<?xml version="1.0" encoding="utf-8"?>
<!-- Generator: Adobe Illustrator 18.1.0, SVG Export Plug-In . SVG Version: 6.00 Build 0)  -->
<!DOCTYPE svg PUBLIC "-//W3C//DTD SVG 1.1//EN" "http://www.w3.org/Graphics/SVG/1.1/DTD/svg11.dtd">
<svg version="1.1" id="Layer_1" xmlns="http://www.w3.org/2000/svg" xmlns:xlink="http://www.w3.org/1999/xlink" x="0px" y="0px"
	 viewBox="0 0 841.89 595.28" enable-background="new 0 0 841.89 595.28" xml:space="preserve">
<rect x="649.503" y="183.32" fill="#FFFFFF" width="84.641" height="37.912"/>
<rect x="649.503" y="183.32" fill="none" stroke="#7D7B7B" stroke-miterlimit="10" width="84.641" height="37.912"/>
<line fill="none" stroke="#000000" stroke-width="2" stroke-miterlimit="10" x1="207.785" y1="473.831" x2="509.269" y2="473.831"/>
<path d="M302.124,247.743v-79.852V247.743z"/>
<line fill="none" stroke="#000000" stroke-width="2" stroke-miterlimit="10" x1="302.124" y1="167.89" x2="302.124" y2="247.743"/>
<polyline fill="none" stroke="#000000" stroke-width="2" stroke-miterlimit="10" points="174.281,183.32 174.281,167.891 
	691.824,167.891 691.824,183.32 "/>
<path d="M433.885,247.743V147.171V247.743z"/>
<line fill="none" stroke="#000000" stroke-width="2" stroke-miterlimit="10" x1="433.886" y1="147.171" x2="433.886" y2="247.744"/>
<rect x="391.565" y="109.259" fill="#FFFFFF" width="84.641" height="37.912"/>
<rect x="391.565" y="109.259" fill="none" stroke="#7D7B7B" stroke-miterlimit="10" width="84.641" height="37.912"/>
<rect x="131.961" y="183.32" fill="#FFFFFF" width="84.641" height="37.912"/>
<rect x="131.961" y="183.32" fill="none" stroke="#7D7B7B" stroke-miterlimit="10" width="84.641" height="37.912"/>
<text transform="matrix(1 0 0 1 419.7788 132.6233)" font-family="'HelveticaNeue'" font-size="10.5801">Home</text>
<text transform="matrix(1 0 0 1 159.7729 198.7488)"><tspan x="0" y="0" font-family="'HelveticaNeue'" font-size="10.5801">V</tspan><tspan x="5.893" y="0" font-family="'HelveticaNeue'" font-size="10.5801">enue</tspan></text>
<text transform="matrix(1 0 0 1 147.4365 211.4451)" font-family="'HelveticaNeue'" font-size="10.5801">Information</text>
<text transform="matrix(1 0 0 1 666.2607 527.3904)" font-family="'HelveticaNeue'" font-size="12">Link</text>
<text transform="matrix(1 0 0 1 665.3848 549.3855)"><tspan x="0" y="0" font-family="'HelveticaNeue'" font-size="12">Exte</tspan><tspan x="23.771" y="0" font-family="'HelveticaNeue'" font-size="12">r</tspan><tspan x="27.972" y="0" font-family="'HelveticaNeue'" font-size="12">nal page</tspan></text>
<rect x="315.3" y="456.198" fill="#FFFFFF" width="84.641" height="37.912"/>
<rect x="315.3" y="456.198" fill="none" stroke="#7D7B7B" stroke-miterlimit="10" width="84.641" height="37.912"/>
<text transform="matrix(1 0 0 1 331.5522 471.6267)"><tspan x="0" y="0" font-family="'HelveticaNeue'" font-size="10.5801" letter-spacing="-1">T</tspan><tspan x="4.909" y="0" font-family="'HelveticaNeue'" font-size="10.5801">erms and </tspan></text>
<text transform="matrix(1 0 0 1 333.0332 484.323)" font-family="'HelveticaNeue'" font-size="10.5801">conditions</text>
<rect x="413.166" y="456.198" fill="#FFFFFF" width="84.641" height="37.912"/>
<rect x="413.166" y="456.198" fill="none" stroke="#7D7B7B" stroke-miterlimit="10" width="84.641" height="37.912"/>
<text transform="matrix(1 0 0 1 438.1523 477.7986)" font-family="'HelveticaNeue'" font-size="10.5801">Privacy</text>
<rect x="219.198" y="455.757" fill="#FFFFFF" width="84.641" height="37.912"/>
<rect x="219.198" y="455.757" fill="none" stroke="#7D7B7B" stroke-miterlimit="10" width="84.641" height="37.912"/>
<text transform="matrix(1 0 0 1 236.6294 472.0681)" font-family="'HelveticaNeue'" font-size="10.5801">Canon HQ</text>
<text transform="matrix(1 0 0 1 230.8525 484.7644)" font-family="'HelveticaNeue'" font-size="10.5801">location map</text>
<rect x="509.269" y="456.198" fill="#FFFFFF" width="84.641" height="37.912"/>
<rect x="509.269" y="456.198" fill="none" stroke="#7D7B7B" stroke-miterlimit="10" width="84.641" height="37.912"/>
<text transform="matrix(1 0 0 1 519.459 478.6804)" font-family="'HelveticaNeue'" font-size="10.5801">Cookie policy</text>
<rect x="123.144" y="454.875" fill="#E2E0E0" width="84.641" height="37.912"/>
<rect x="123.144" y="454.875" fill="none" stroke="#000000" stroke-miterlimit="10" width="84.641" height="37.912"/>
<rect x="747.378" y="534.355" fill="#E2E0E0" width="33.567" height="15.035"/>
<rect x="747.378" y="534.355" fill="none" stroke="#000000" stroke-miterlimit="10" width="33.567" height="15.035"/>
<text transform="matrix(1 0 0 1 134.9951 476.4763)" font-family="'HelveticaNeue'" font-size="10.5801">Social media</text>
<text transform="matrix(1 0 0 1 121.8442 432.3894)" font-family="'HelveticaNeue-Bold'" font-size="10.5801">Footer Links </text>
<rect x="259.803" y="183.32" fill="#FFFFFF" width="84.641" height="37.912"/>
<rect x="259.803" y="183.32" fill="none" stroke="#7D7B7B" stroke-miterlimit="10" width="84.641" height="37.912"/>
<text transform="matrix(1 0 0 1 278.6045 205.802)"><tspan x="0" y="0" font-family="'HelveticaNeue'" font-size="10.5801">What</tspan><tspan x="24.693" y="0" font-family="'HelveticaNeue'" font-size="10.5801">’</tspan><tspan x="26.862" y="0" font-family="'HelveticaNeue'" font-size="10.5801">s on</tspan></text>
<rect x="391.565" y="183.32" fill="#FFFFFF" width="84.641" height="37.912"/>
<rect x="391.565" y="183.32" fill="none" stroke="#7D7B7B" stroke-miterlimit="10" width="84.641" height="37.912"/>
<text transform="matrix(1 0 0 1 402.335 205.802)" font-family="'HelveticaNeue'" font-size="10.5801">Rent a Canon</text>
<rect x="392.447" y="247.744" fill="#FFFFFF" width="84.641" height="37.912"/>
<rect x="392.447" y="247.744" fill="none" stroke="#7D7B7B" stroke-miterlimit="10" width="84.641" height="37.912"/>
<text transform="matrix(1 0 0 1 396.8491 270.3494)"><tspan x="0" y="0" font-family="'HelveticaNeue'" font-size="10.5801">Rental P</tspan><tspan x="39.971" y="0" font-family="'HelveticaNeue'" font-size="10.5801">r</tspan><tspan x="43.303" y="0" font-family="'HelveticaNeue'" font-size="10.5801">oducts</tspan></text>
<rect x="521.636" y="183.32" fill="#FFFFFF" width="84.641" height="37.912"/>
<rect x="521.636" y="183.32" fill="none" stroke="#7D7B7B" stroke-miterlimit="10" width="84.641" height="37.912"/>
<text transform="matrix(1 0 0 1 653.6104 205.802)" font-family="'HelveticaNeue'" font-size="10.5801">Photo Marathon</text>
<text transform="matrix(1 0 0 1 538.3818 204.8708)" font-family="'HelveticaNeue'" font-size="10.5801">Photo Tips</text>
<rect x="259.803" y="247.744" fill="#FFFFFF" width="84.641" height="37.912"/>
<rect x="259.803" y="247.744" fill="none" stroke="#7D7B7B" stroke-miterlimit="10" width="84.641" height="37.912"/>
<text transform="matrix(1 0 0 1 269.9873 270.3494)"><tspan x="0" y="0" font-family="'HelveticaNeue'" font-size="10.5801">W</tspan><tspan x="9.406" y="0" font-family="'HelveticaNeue'" font-size="10.5801">alking tours</tspan></text>
<line fill="none" stroke="#000000" stroke-width="2" stroke-miterlimit="10" x1="563.957" y1="183.32" x2="563.957" y2="167.891"/>
<line fill="none" stroke="#EC1A4D" stroke-width="2" stroke-miterlimit="10" stroke-dasharray="2,2" x1="222.773" y1="202.276" x2="253.632" y2="202.276"/>
<polyline fill="none" stroke="#EC1A4D" stroke-width="2" stroke-miterlimit="10" stroke-dasharray="2,2" points="253.632,449.144 
	253.632,403.297 174.281,403.297 174.281,226.962 "/>
<line fill="none" stroke="#EC1A4D" stroke-width="2" stroke-miterlimit="10" stroke-dasharray="2,2" x1="514.607" y1="202.276" x2="481.985" y2="202.276"/>
<polyline fill="none" stroke="#EC1A4D" stroke-width="2" stroke-miterlimit="10" stroke-dasharray="2,2" points="563.957,226.963 
	563.957,240.188 489.927,240.188 489.927,207.817 481.986,207.817 "/>
<line fill="none" stroke="#EC1A4D" stroke-width="2" stroke-miterlimit="10" stroke-dasharray="2,2" x1="694.378" y1="524.39" x2="780.945" y2="524.39"/>
<text transform="matrix(1 0 0 1 34.5947 54.3713)" font-family="'HelveticaNeue-UltraLight'" font-size="19.5636">Canon- Vivid Site map</text>
<polyline fill="none" stroke="#EC1A4D" stroke-width="2" stroke-miterlimit="10" stroke-dasharray="2,2" points="385.883,205.802 
	378.496,205.802 378.496,328.011 181.883,328.011 181.883,226.962 "/>
<polygon fill="#EC1A4D" points="257.156,202.406 251.367,199.401 251.168,205.297 "/>
<polygon fill="#EC1A4D" points="219.826,202.478 225.707,205.299 225.72,199.4 "/>
<polygon fill="#EC1A4D" points="181.825,223.997 178.934,229.844 184.832,229.928 "/>
<polygon fill="#EC1A4D" points="174.223,223.997 171.332,229.844 177.23,229.928 "/>
<polygon fill="#EC1A4D" points="479.001,202.593 484.97,205.224 484.794,199.328 "/>
<polygon fill="#EC1A4D" points="479.001,208.134 484.97,210.765 484.794,204.869 "/>
</svg>
