<?xml version="1.0" encoding="utf-8"?>
<!-- Generator: Adobe Illustrator 18.1.0, SVG Export Plug-In . SVG Version: 6.00 Build 0)  -->
<!DOCTYPE svg PUBLIC "-//W3C//DTD SVG 1.1//EN" "http://www.w3.org/Graphics/SVG/1.1/DTD/svg11.dtd">
<svg version="1.1" id="Layer_1" xmlns="http://www.w3.org/2000/svg" xmlns:xlink="http://www.w3.org/1999/xlink" x="0px" y="0px"
	 viewBox="0 0 55 55" enable-background="new 0 0 55 55" xml:space="preserve">
<circle fill="#838383" cx="27.5" cy="27.6" r="27.5"/>
<g>
	<path fill="#FFFFFF" d="M19.7,21c0-1,0.8-1.7,1.7-1.7c1,0,1.7,0.7,1.7,1.7s-0.8,1.7-1.7,1.7C20.5,22.7,19.7,22,19.7,21z M20,34.9
		V23.9h2.9v10.9H20z"/>
	<path fill="#FFFFFF" d="M33.1,34.9v-6.6c0-1.5-0.8-2-2-2c-1.1,0-2,0.6-2.5,1.3v7.4h-2.9V23.9h2.9v1.4c0.7-0.8,2.1-1.7,3.8-1.7
		c2.4,0,3.6,1.4,3.6,3.5v7.7H33.1z"/>
</g>
<circle fill="none" stroke="#FFFFFF" stroke-width="1.2572" stroke-miterlimit="10" cx="27.3" cy="28.1" r="16.3"/>
</svg>
