<?xml version="1.0" encoding="utf-8"?>
<!-- Generator: Adobe Illustrator 18.1.0, SVG Export Plug-In . SVG Version: 6.00 Build 0)  -->
<!DOCTYPE svg PUBLIC "-//W3C//DTD SVG 1.1//EN" "http://www.w3.org/Graphics/SVG/1.1/DTD/svg11.dtd">
<svg version="1.1" id="Layer_1" xmlns="http://www.w3.org/2000/svg" xmlns:xlink="http://www.w3.org/1999/xlink" x="0px" y="0px"
	 viewBox="0 0 55 55" enable-background="new 0 0 55 55" xml:space="preserve">
<circle fill="#9ECECE" cx="27.5" cy="27.5" r="27.5"/>
<g>
	<g>
		<path fill="#5E5E5E" d="M36.3,32.6c-0.2,0.2-0.3,0.4-0.4,0.5c-0.4,0.4-0.8,0.5-1.3,0.6c-2.8,0-5.6-0.6-8.1-1.8
			c-5.3-2.6-8.6-6.9-10-12.7c-0.3-1.3-0.5-2.7-0.4-4c0-0.5,0.2-0.9,0.5-1.3c0.4-0.4,0.9-0.9,1.3-1.3c0.9-0.9,2.2-1.1,3.3-0.4
			c0.7,0.4,1.2,1,1.4,1.8c0.3,1,0.6,2,0.8,3c0.2,0.9-0.1,1.7-0.7,2.3c-0.3,0.3-0.6,0.6-0.8,0.8c-0.1,0.1-0.2,0.2-0.1,0.4
			c1.2,3.8,3.7,6.3,7.5,7.5c0.2,0.1,0.3,0,0.4-0.1c0.2-0.3,0.5-0.5,0.7-0.8c0.8-0.7,1.7-1,2.7-0.7c0.9,0.2,1.8,0.5,2.8,0.8
			c1.4,0.4,2.6,2.1,1.9,3.8c-0.1,0.2-0.1,0.4,0.1,0.5c1,0.9,1.6,1.9,2,3.2c0.9,3.4-1.5,6.9-5,7.4c-1.9,0.2-3.6-0.4-5-1.7
			c-2.4-2.4-4.8-4.8-7.2-7.2c-1-1-2.7-0.7-3.3,0.6c-0.3,0.8-0.2,1.6,0.4,2.2c1.9,1.9,3.8,3.8,5.7,5.7c0.4,0.4,0.5,1,0.1,1.4
			c-0.4,0.5-1,0.5-1.5,0c-0.7-0.7-1.4-1.4-2.1-2.1c-1.2-1.2-2.5-2.4-3.7-3.7c-1.1-1.2-1.4-2.6-0.9-4.1c0.5-1.5,1.6-2.4,3.2-2.6
			c1.4-0.2,2.6,0.3,3.6,1.3c2.4,2.4,4.7,4.8,7.2,7.1c1.2,1.1,2.6,1.4,4.1,0.9c1.5-0.5,2.4-1.7,2.6-3.3c0.2-1.3-0.2-2.4-1.1-3.3
			C36.7,33.1,36.6,32.9,36.3,32.6z"/>
	</g>
</g>
</svg>
