<?xml version="1.0" encoding="utf-8"?>
<!-- Generator: Adobe Illustrator 18.1.0, SVG Export Plug-In . SVG Version: 6.00 Build 0)  -->
<!DOCTYPE svg PUBLIC "-//W3C//DTD SVG 1.1//EN" "http://www.w3.org/Graphics/SVG/1.1/DTD/svg11.dtd">
<svg version="1.1" id="Layer_1" xmlns="http://www.w3.org/2000/svg" xmlns:xlink="http://www.w3.org/1999/xlink" x="0px" y="0px"
	 viewBox="0 0 86.6 100" enable-background="new 0 0 86.6 100" xml:space="preserve">
<polygon fill="#D8D8D7" points="43.3,100 0,75 0,25 43.3,0 86.6,25 86.6,75 "/>
<g>
	<g>
		<g>
			<g>
				<path fill="#5E5F5E" d="M17.5,66.9v4.3c0,0.8-0.2,1.4-0.7,1.8c-0.5,0.4-1.1,0.7-1.9,0.7c-0.8,0-1.4-0.2-1.9-0.7
					c-0.4-0.4-0.7-1-0.7-1.8v-4.3h0.8v4.4c0,0.6,0.2,1,0.5,1.3c0.3,0.3,0.8,0.4,1.3,0.4c0.6,0,1-0.2,1.3-0.5
					c0.3-0.3,0.5-0.7,0.5-1.3v-4.4H17.5z"/>
				<path fill="#5E5F5E" d="M22.4,72.2c0,0.5-0.2,0.8-0.5,1.1c-0.3,0.3-0.8,0.4-1.5,0.4c-0.7,0-1.2-0.1-1.6-0.3v-0.7
					c0.2,0.1,0.5,0.2,0.8,0.3c0.3,0.1,0.5,0.1,0.8,0.1c0.4,0,0.7-0.1,0.9-0.2c0.2-0.1,0.3-0.3,0.3-0.6c0-0.2-0.1-0.4-0.3-0.5
					c-0.2-0.1-0.5-0.3-1-0.5c-0.5-0.2-0.8-0.3-1-0.5c-0.2-0.1-0.3-0.3-0.4-0.4c-0.1-0.2-0.1-0.4-0.1-0.6c0-0.4,0.2-0.7,0.5-1
					c0.3-0.2,0.8-0.4,1.4-0.4c0.5,0,1.1,0.1,1.6,0.3L22,69.4c-0.5-0.2-1-0.3-1.4-0.3c-0.4,0-0.6,0.1-0.8,0.2
					c-0.2,0.1-0.3,0.3-0.3,0.5c0,0.1,0,0.2,0.1,0.3c0.1,0.1,0.2,0.2,0.3,0.3c0.2,0.1,0.4,0.2,0.9,0.4c0.6,0.2,1,0.4,1.2,0.7
					C22.3,71.6,22.4,71.9,22.4,72.2z"/>
				<path fill="#5E5F5E" d="M25.7,73.7c-0.7,0-1.3-0.2-1.8-0.7c-0.4-0.5-0.6-1.1-0.6-1.9c0-0.8,0.2-1.5,0.6-1.9
					c0.4-0.5,0.9-0.7,1.6-0.7c0.6,0,1.1,0.2,1.5,0.6c0.4,0.4,0.5,1,0.5,1.6v0.5h-3.5c0,0.6,0.2,1,0.4,1.3c0.3,0.3,0.7,0.5,1.2,0.5
					c0.5,0,1.1-0.1,1.6-0.3v0.7c-0.3,0.1-0.5,0.2-0.8,0.3C26.3,73.7,26.1,73.7,25.7,73.7z M25.5,69.1c-0.4,0-0.7,0.1-1,0.4
					c-0.2,0.3-0.4,0.6-0.4,1.1h2.6c0-0.5-0.1-0.8-0.3-1.1C26.2,69.3,25.9,69.1,25.5,69.1z"/>
				<path fill="#5E5F5E" d="M31.2,68.5c0.2,0,0.4,0,0.6,0.1l-0.1,0.7c-0.2,0-0.4-0.1-0.5-0.1c-0.4,0-0.8,0.2-1,0.5
					c-0.3,0.3-0.4,0.7-0.4,1.2v2.7h-0.8v-5h0.6l0.1,0.9h0c0.2-0.3,0.4-0.6,0.7-0.8C30.5,68.6,30.8,68.5,31.2,68.5z"/>
				<path fill="#5E5F5E" d="M37.4,68.5c0.2,0,0.4,0,0.6,0.1l-0.1,0.7c-0.2,0-0.4-0.1-0.5-0.1c-0.4,0-0.8,0.2-1,0.5
					c-0.3,0.3-0.4,0.7-0.4,1.2v2.7h-0.8v-5h0.6l0.1,0.9h0c0.2-0.3,0.4-0.6,0.7-0.8C36.8,68.6,37.1,68.5,37.4,68.5z"/>
				<path fill="#5E5F5E" d="M41.1,73.7c-0.7,0-1.3-0.2-1.8-0.7c-0.4-0.5-0.6-1.1-0.6-1.9c0-0.8,0.2-1.5,0.6-1.9
					c0.4-0.5,0.9-0.7,1.6-0.7c0.6,0,1.1,0.2,1.5,0.6c0.4,0.4,0.5,1,0.5,1.6v0.5h-3.5c0,0.6,0.2,1,0.4,1.3c0.3,0.3,0.7,0.5,1.2,0.5
					c0.5,0,1.1-0.1,1.6-0.3v0.7c-0.3,0.1-0.5,0.2-0.8,0.3C41.7,73.7,41.4,73.7,41.1,73.7z M40.9,69.1c-0.4,0-0.7,0.1-1,0.4
					c-0.2,0.3-0.4,0.6-0.4,1.1h2.6c0-0.5-0.1-0.8-0.3-1.1C41.6,69.3,41.3,69.1,40.9,69.1z"/>
				<path fill="#5E5F5E" d="M47.5,72.2c0,0.5-0.2,0.8-0.5,1.1c-0.3,0.3-0.8,0.4-1.5,0.4c-0.7,0-1.2-0.1-1.6-0.3v-0.7
					c0.2,0.1,0.5,0.2,0.8,0.3c0.3,0.1,0.5,0.1,0.8,0.1c0.4,0,0.7-0.1,0.9-0.2c0.2-0.1,0.3-0.3,0.3-0.6c0-0.2-0.1-0.4-0.3-0.5
					c-0.2-0.1-0.5-0.3-1-0.5c-0.5-0.2-0.8-0.3-1-0.5c-0.2-0.1-0.3-0.3-0.4-0.4c-0.1-0.2-0.1-0.4-0.1-0.6c0-0.4,0.2-0.7,0.5-1
					c0.3-0.2,0.8-0.4,1.4-0.4c0.5,0,1.1,0.1,1.6,0.3l-0.3,0.6c-0.5-0.2-1-0.3-1.4-0.3c-0.4,0-0.6,0.1-0.8,0.2
					c-0.2,0.1-0.3,0.3-0.3,0.5c0,0.1,0,0.2,0.1,0.3c0.1,0.1,0.2,0.2,0.3,0.3c0.2,0.1,0.4,0.2,0.9,0.4c0.6,0.2,1,0.4,1.2,0.7
					C47.4,71.6,47.5,71.9,47.5,72.2z"/>
				<path fill="#5E5F5E" d="M50.8,73.7c-0.7,0-1.3-0.2-1.8-0.7c-0.4-0.5-0.6-1.1-0.6-1.9c0-0.8,0.2-1.5,0.6-1.9
					c0.4-0.5,0.9-0.7,1.6-0.7c0.6,0,1.1,0.2,1.5,0.6c0.4,0.4,0.5,1,0.5,1.6v0.5h-3.5c0,0.6,0.2,1,0.4,1.3c0.3,0.3,0.7,0.5,1.2,0.5
					c0.5,0,1.1-0.1,1.6-0.3v0.7c-0.3,0.1-0.5,0.2-0.8,0.3C51.5,73.7,51.2,73.7,50.8,73.7z M50.6,69.1c-0.4,0-0.7,0.1-1,0.4
					c-0.2,0.3-0.4,0.6-0.4,1.1h2.6c0-0.5-0.1-0.8-0.3-1.1C51.3,69.3,51,69.1,50.6,69.1z"/>
				<path fill="#5E5F5E" d="M57.1,73.6l-0.2-0.7h0c-0.3,0.3-0.5,0.5-0.7,0.6c-0.2,0.1-0.6,0.2-0.9,0.2c-0.5,0-0.9-0.1-1.2-0.4
					c-0.3-0.3-0.4-0.6-0.4-1.1c0-1,0.8-1.5,2.4-1.6l0.9,0v-0.3c0-0.4-0.1-0.7-0.3-0.9c-0.2-0.2-0.4-0.3-0.8-0.3
					c-0.4,0-0.9,0.1-1.4,0.4l-0.2-0.6c0.2-0.1,0.5-0.2,0.8-0.3c0.3-0.1,0.6-0.1,0.9-0.1c0.6,0,1,0.1,1.3,0.4s0.4,0.7,0.4,1.3v3.4
					H57.1z M55.3,73.1c0.5,0,0.8-0.1,1.1-0.4c0.3-0.3,0.4-0.6,0.4-1.1v-0.5l-0.8,0c-0.6,0-1,0.1-1.3,0.3c-0.3,0.2-0.4,0.4-0.4,0.8
					c0,0.3,0.1,0.5,0.2,0.6C54.8,73,55,73.1,55.3,73.1z"/>
				<path fill="#5E5F5E" d="M61.5,68.5c0.2,0,0.4,0,0.6,0.1L62,69.3c-0.2,0-0.4-0.1-0.5-0.1c-0.4,0-0.8,0.2-1,0.5
					c-0.3,0.3-0.4,0.7-0.4,1.2v2.7h-0.8v-5h0.6l0.1,0.9h0c0.2-0.3,0.4-0.6,0.7-0.8C60.9,68.6,61.2,68.5,61.5,68.5z"/>
				<path fill="#5E5F5E" d="M65,73.7c-0.7,0-1.3-0.2-1.7-0.7c-0.4-0.4-0.6-1.1-0.6-1.9c0-0.8,0.2-1.5,0.6-1.9c0.4-0.5,1-0.7,1.7-0.7
					c0.2,0,0.5,0,0.7,0.1c0.2,0.1,0.4,0.1,0.6,0.2l-0.2,0.6c-0.2-0.1-0.4-0.1-0.5-0.2s-0.4-0.1-0.5-0.1c-1,0-1.5,0.7-1.5,2
					c0,0.6,0.1,1.1,0.4,1.4c0.2,0.3,0.6,0.5,1.1,0.5c0.4,0,0.8-0.1,1.3-0.3v0.7C66,73.6,65.5,73.7,65,73.7z"/>
				<path fill="#5E5F5E" d="M70.9,73.6v-3.2c0-0.4-0.1-0.7-0.3-0.9c-0.2-0.2-0.5-0.3-0.9-0.3c-0.5,0-0.9,0.1-1.2,0.4
					c-0.2,0.3-0.4,0.8-0.4,1.4v2.6h-0.8v-7.1h0.8v2.2c0,0.3,0,0.5,0,0.6h0c0.1-0.2,0.4-0.4,0.6-0.6c0.3-0.1,0.6-0.2,0.9-0.2
					c0.6,0,1.1,0.1,1.4,0.4c0.3,0.3,0.5,0.8,0.5,1.4v3.3H70.9z"/>
			</g>
		</g>
		<line fill="none" stroke="#5E5F5E" stroke-miterlimit="10" x1="7.3" y1="59.5" x2="79.3" y2="59.5"/>
		<path fill="none" stroke="#5E5F5E" stroke-width="1.4182" stroke-miterlimit="10" d="M51.8,32.4c0,6.9-5.6,12.6-12.6,12.6
			c-6.9,0-12.6-5.6-12.6-12.6c0-6.9,5.6-12.6,12.6-12.6C46.2,19.9,51.8,25.5,51.8,32.4z"/>
	</g>
	<path fill="#5E5F5E" d="M61.7,52.4c-0.3,0-0.7-0.1-0.9-0.3l-12-9.5c-0.6-0.5-0.8-1.5-0.2-2.1c0.5-0.6,1.5-0.8,2.1-0.2l12,9.5
		c0.6,0.5,0.8,1.5,0.2,2.1C62.6,52.2,62.1,52.4,61.7,52.4z"/>
</g>
</svg>
