<?xml version="1.0" encoding="utf-8"?>
<!-- Generator: Adobe Illustrator 18.1.1, SVG Export Plug-In . SVG Version: 6.00 Build 0)  -->
<!DOCTYPE svg PUBLIC "-//W3C//DTD SVG 1.1//EN" "http://www.w3.org/Graphics/SVG/1.1/DTD/svg11.dtd">
<svg version="1.1" id="Layer_1" xmlns="http://www.w3.org/2000/svg" xmlns:xlink="http://www.w3.org/1999/xlink" x="0px" y="0px"
	 viewBox="0 0 788.5 241.7" enable-background="new 0 0 788.5 241.7" xml:space="preserve">
<g>
	<rect x="18.7" y="19.7" fill="#CE7065" width="769.8" height="1.5"/>
	<g>
		<path fill="#CE7065" d="M166.8,4.4c0,1.4-0.3,2.4-1,3.2s-1.7,1.2-2.9,1.2c-1.3,0-2.2-0.4-2.9-1.2s-1-1.9-1-3.3
			c0-1.4,0.3-2.5,1-3.2s1.7-1.2,2.9-1.2c1.2,0,2.2,0.4,2.9,1.2S166.8,3,166.8,4.4z M160,4.4c0,1.2,0.2,2,0.7,2.6s1.2,0.9,2.2,0.9
			c0.9,0,1.7-0.3,2.2-0.9s0.7-1.5,0.7-2.6c0-1.2-0.2-2-0.7-2.6s-1.2-0.9-2.1-0.9c-0.9,0-1.7,0.3-2.2,0.9S160,3.3,160,4.4z"/>
		<path fill="#CE7065" d="M176.1,0.1v5.5c0,1-0.3,1.7-0.9,2.3s-1.4,0.8-2.4,0.8S171,8.5,170.4,8s-0.8-1.3-0.8-2.3V0.1h1v5.6
			c0,0.7,0.2,1.3,0.6,1.6s1,0.6,1.7,0.6c0.7,0,1.3-0.2,1.7-0.6s0.6-0.9,0.6-1.7V0.1H176.1z"/>
		<path fill="#CE7065" d="M180.3,5.1v3.6h-1V0.1h2.3c1.1,0,1.8,0.2,2.3,0.6s0.8,1,0.8,1.8c0,1.1-0.6,1.9-1.7,2.3l2.3,3.8h-1.2
			l-2.1-3.6H180.3z M180.3,4.3h1.4c0.7,0,1.2-0.1,1.5-0.4s0.5-0.7,0.5-1.3c0-0.6-0.2-1-0.5-1.2S182.3,1,181.6,1h-1.3V4.3z"/>
		<path fill="#CE7065" d="M196.5,6.4c0,0.8-0.3,1.3-0.8,1.8s-1.3,0.6-2.2,0.6c-1,0-1.8-0.1-2.3-0.4v-1c0.4,0.1,0.7,0.3,1.1,0.4
			s0.8,0.1,1.2,0.1c0.7,0,1.2-0.1,1.5-0.4s0.5-0.6,0.5-1.1c0-0.3-0.1-0.5-0.2-0.7s-0.3-0.4-0.6-0.5s-0.7-0.3-1.3-0.5
			c-0.8-0.3-1.4-0.6-1.7-1s-0.5-0.9-0.5-1.5c0-0.7,0.2-1.2,0.7-1.6s1.2-0.6,2-0.6c0.9,0,1.6,0.2,2.3,0.5l-0.3,0.9
			c-0.7-0.3-1.4-0.4-2.1-0.4c-0.5,0-0.9,0.1-1.2,0.3s-0.4,0.5-0.4,0.9c0,0.3,0.1,0.5,0.2,0.7s0.3,0.4,0.6,0.5s0.7,0.3,1.2,0.5
			c0.9,0.3,1.5,0.7,1.9,1S196.5,5.8,196.5,6.4z"/>
		<path fill="#CE7065" d="M206.5,4.4c0,1.4-0.3,2.4-1,3.2s-1.7,1.2-2.9,1.2c-1.3,0-2.2-0.4-2.9-1.2s-1-1.9-1-3.3
			c0-1.4,0.3-2.5,1-3.2s1.7-1.2,2.9-1.2c1.2,0,2.2,0.4,2.9,1.2S206.5,3,206.5,4.4z M199.7,4.4c0,1.2,0.2,2,0.7,2.6s1.2,0.9,2.2,0.9
			c0.9,0,1.7-0.3,2.2-0.9s0.7-1.5,0.7-2.6c0-1.2-0.2-2-0.7-2.6s-1.2-0.9-2.1-0.9c-0.9,0-1.7,0.3-2.2,0.9S199.7,3.3,199.7,4.4z"/>
		<path fill="#CE7065" d="M209.4,8.7V0.1h1v7.7h3.8v0.9H209.4z"/>
		<path fill="#CE7065" d="M223,0.1v5.5c0,1-0.3,1.7-0.9,2.3s-1.4,0.8-2.4,0.8s-1.8-0.3-2.4-0.8s-0.8-1.3-0.8-2.3V0.1h1v5.6
			c0,0.7,0.2,1.3,0.6,1.6s1,0.6,1.7,0.6c0.7,0,1.3-0.2,1.7-0.6s0.6-0.9,0.6-1.7V0.1H223z"/>
		<path fill="#CE7065" d="M228.8,8.7h-1V1h-2.7V0.1h6.4V1h-2.7V8.7z"/>
		<path fill="#CE7065" d="M233.7,8.7V0.1h1v8.6H233.7z"/>
		<path fill="#CE7065" d="M245.3,4.4c0,1.4-0.3,2.4-1,3.2s-1.7,1.2-2.9,1.2c-1.3,0-2.2-0.4-2.9-1.2s-1-1.9-1-3.3
			c0-1.4,0.3-2.5,1-3.2s1.7-1.2,2.9-1.2c1.2,0,2.2,0.4,2.9,1.2S245.3,3,245.3,4.4z M238.5,4.4c0,1.2,0.2,2,0.7,2.6s1.2,0.9,2.2,0.9
			c0.9,0,1.7-0.3,2.2-0.9s0.7-1.5,0.7-2.6c0-1.2-0.2-2-0.7-2.6s-1.2-0.9-2.1-0.9c-0.9,0-1.7,0.3-2.2,0.9S238.5,3.3,238.5,4.4z"/>
		<path fill="#CE7065" d="M254.8,8.7h-1.1L249,1.5h0c0.1,0.8,0.1,1.6,0.1,2.3v4.9h-0.9V0.1h1.1l4.7,7.2h0c0-0.1,0-0.4-0.1-1
			s0-1,0-1.2V0.1h0.9V8.7z"/>
		<path fill="#CE7065" d="M262.9,6.4c0,0.8-0.3,1.3-0.8,1.8s-1.3,0.6-2.2,0.6c-1,0-1.8-0.1-2.3-0.4v-1c0.4,0.1,0.7,0.3,1.1,0.4
			s0.8,0.1,1.2,0.1c0.7,0,1.2-0.1,1.5-0.4s0.5-0.6,0.5-1.1c0-0.3-0.1-0.5-0.2-0.7s-0.3-0.4-0.6-0.5s-0.7-0.3-1.3-0.5
			c-0.8-0.3-1.4-0.6-1.7-1s-0.5-0.9-0.5-1.5c0-0.7,0.2-1.2,0.7-1.6s1.2-0.6,2-0.6c0.9,0,1.6,0.2,2.3,0.5l-0.3,0.9
			c-0.7-0.3-1.4-0.4-2.1-0.4c-0.5,0-0.9,0.1-1.2,0.3s-0.4,0.5-0.4,0.9c0,0.3,0.1,0.5,0.2,0.7s0.3,0.4,0.6,0.5s0.7,0.3,1.2,0.5
			c0.9,0.3,1.5,0.7,1.9,1S262.9,5.8,262.9,6.4z"/>
		<path fill="#CE7065" d="M275,8.7L273.9,6h-3.4l-1.1,2.7h-1l3.4-8.6h0.8l3.4,8.6H275z M273.6,5.1l-1-2.7c-0.1-0.3-0.3-0.7-0.4-1.2
			c-0.1,0.4-0.2,0.8-0.4,1.2l-1,2.7H273.6z"/>
		<path fill="#CE7065" d="M278.1,8.7V0.1h1v7.7h3.8v0.9H278.1z"/>
		<path fill="#CE7065" d="M290.1,6.4c0,0.8-0.3,1.3-0.8,1.8S288,8.8,287,8.8c-1,0-1.8-0.1-2.3-0.4v-1c0.4,0.1,0.7,0.3,1.1,0.4
			s0.8,0.1,1.2,0.1c0.7,0,1.2-0.1,1.5-0.4s0.5-0.6,0.5-1.1c0-0.3-0.1-0.5-0.2-0.7s-0.3-0.4-0.6-0.5s-0.7-0.3-1.3-0.5
			c-0.8-0.3-1.4-0.6-1.7-1s-0.5-0.9-0.5-1.5c0-0.7,0.2-1.2,0.7-1.6s1.2-0.6,2-0.6c0.9,0,1.6,0.2,2.3,0.5l-0.3,0.9
			c-0.7-0.3-1.4-0.4-2.1-0.4c-0.5,0-0.9,0.1-1.2,0.3s-0.4,0.5-0.4,0.9c0,0.3,0.1,0.5,0.2,0.7s0.3,0.4,0.6,0.5s0.7,0.3,1.2,0.5
			c0.9,0.3,1.5,0.7,1.9,1S290.1,5.8,290.1,6.4z"/>
		<path fill="#CE7065" d="M300.1,4.4c0,1.4-0.3,2.4-1,3.2s-1.7,1.2-2.9,1.2c-1.3,0-2.2-0.4-2.9-1.2s-1-1.9-1-3.3
			c0-1.4,0.3-2.5,1-3.2S295,0,296.2,0c1.2,0,2.2,0.4,2.9,1.2S300.1,3,300.1,4.4z M293.3,4.4c0,1.2,0.2,2,0.7,2.6s1.2,0.9,2.2,0.9
			c0.9,0,1.7-0.3,2.2-0.9s0.7-1.5,0.7-2.6c0-1.2-0.2-2-0.7-2.6s-1.2-0.9-2.1-0.9c-0.9,0-1.7,0.3-2.2,0.9S293.3,3.3,293.3,4.4z"/>
		<path fill="#CE7065" d="M312.4,8.7L311.3,6h-3.4l-1.1,2.7h-1l3.4-8.6h0.8l3.4,8.6H312.4z M311,5.1l-1-2.7
			c-0.1-0.3-0.3-0.7-0.4-1.2c-0.1,0.4-0.2,0.8-0.4,1.2l-1,2.7H311z"/>
		<path fill="#CE7065" d="M322.3,4.3c0,1.4-0.4,2.5-1.2,3.2s-1.9,1.1-3.3,1.1h-2.4V0.1h2.6c1.3,0,2.4,0.4,3.1,1.1S322.3,3,322.3,4.3
			z M321.3,4.4c0-1.1-0.3-2-0.8-2.5S319,1,317.9,1h-1.4v6.8h1.2c1.2,0,2.1-0.3,2.7-0.9S321.3,5.5,321.3,4.4z"/>
		<path fill="#CE7065" d="M332,4.3c0,1.4-0.4,2.5-1.2,3.2s-1.9,1.1-3.3,1.1h-2.4V0.1h2.6c1.3,0,2.4,0.4,3.1,1.1S332,3,332,4.3z
			 M330.9,4.4c0-1.1-0.3-2-0.8-2.5S328.7,1,327.6,1h-1.4v6.8h1.2c1.2,0,2.1-0.3,2.7-0.9S330.9,5.5,330.9,4.4z"/>
		<path fill="#CE7065" d="M335.8,5.1v3.6h-1V0.1h2.3c1.1,0,1.8,0.2,2.3,0.6s0.8,1,0.8,1.8c0,1.1-0.6,1.9-1.7,2.3l2.3,3.8h-1.2
			l-2.1-3.6H335.8z M335.8,4.3h1.4c0.7,0,1.2-0.1,1.5-0.4s0.5-0.7,0.5-1.3c0-0.6-0.2-1-0.5-1.2S337.8,1,337.1,1h-1.3V4.3z"/>
		<path fill="#CE7065" d="M347.9,8.7h-4.8V0.1h4.8V1h-3.8v2.8h3.6v0.9h-3.6v3.2h3.8V8.7z"/>
		<path fill="#CE7065" d="M355.5,6.4c0,0.8-0.3,1.3-0.8,1.8s-1.3,0.6-2.2,0.6c-1,0-1.8-0.1-2.3-0.4v-1c0.4,0.1,0.7,0.3,1.1,0.4
			s0.8,0.1,1.2,0.1c0.7,0,1.2-0.1,1.5-0.4s0.5-0.6,0.5-1.1c0-0.3-0.1-0.5-0.2-0.7s-0.3-0.4-0.6-0.5s-0.7-0.3-1.3-0.5
			c-0.8-0.3-1.4-0.6-1.7-1s-0.5-0.9-0.5-1.5c0-0.7,0.2-1.2,0.7-1.6s1.2-0.6,2-0.6c0.9,0,1.6,0.2,2.3,0.5L355,1.3
			c-0.7-0.3-1.4-0.4-2.1-0.4c-0.5,0-0.9,0.1-1.2,0.3s-0.4,0.5-0.4,0.9c0,0.3,0.1,0.5,0.2,0.7s0.3,0.4,0.6,0.5s0.7,0.3,1.2,0.5
			c0.9,0.3,1.5,0.7,1.9,1S355.5,5.8,355.5,6.4z"/>
		<path fill="#CE7065" d="M363,6.4c0,0.8-0.3,1.3-0.8,1.8s-1.3,0.6-2.2,0.6c-1,0-1.8-0.1-2.3-0.4v-1c0.4,0.1,0.7,0.3,1.1,0.4
			s0.8,0.1,1.2,0.1c0.7,0,1.2-0.1,1.5-0.4S362,7,362,6.5c0-0.3-0.1-0.5-0.2-0.7s-0.3-0.4-0.6-0.5s-0.7-0.3-1.3-0.5
			c-0.8-0.3-1.4-0.6-1.7-1s-0.5-0.9-0.5-1.5c0-0.7,0.2-1.2,0.7-1.6s1.2-0.6,2-0.6c0.9,0,1.6,0.2,2.3,0.5l-0.3,0.9
			c-0.7-0.3-1.4-0.4-2.1-0.4c-0.5,0-0.9,0.1-1.2,0.3s-0.4,0.5-0.4,0.9c0,0.3,0.1,0.5,0.2,0.7s0.3,0.4,0.6,0.5s0.7,0.3,1.2,0.5
			c0.9,0.3,1.5,0.7,1.9,1S363,5.8,363,6.4z"/>
		<path fill="#CE7065" d="M370.4,8.7h-4.8V0.1h4.8V1h-3.8v2.8h3.6v0.9h-3.6v3.2h3.8V8.7z"/>
		<path fill="#CE7065" d="M380,4.3c0,1.4-0.4,2.5-1.2,3.2s-1.9,1.1-3.3,1.1h-2.4V0.1h2.6c1.3,0,2.4,0.4,3.1,1.1S380,3,380,4.3z
			 M379,4.4c0-1.1-0.3-2-0.8-2.5S376.8,1,375.6,1h-1.4v6.8h1.2c1.2,0,2.1-0.3,2.7-0.9S379,5.5,379,4.4z"/>
		<path fill="#CE7065" d="M394.3,4.4c0,1.4-0.3,2.4-1,3.2s-1.7,1.2-2.9,1.2c-1.3,0-2.2-0.4-2.9-1.2s-1-1.9-1-3.3
			c0-1.4,0.3-2.5,1-3.2s1.7-1.2,2.9-1.2c1.2,0,2.2,0.4,2.9,1.2S394.3,3,394.3,4.4z M387.5,4.4c0,1.2,0.2,2,0.7,2.6s1.2,0.9,2.2,0.9
			c0.9,0,1.7-0.3,2.2-0.9s0.7-1.5,0.7-2.6c0-1.2-0.2-2-0.7-2.6s-1.2-0.9-2.1-0.9c-0.9,0-1.7,0.3-2.2,0.9S387.5,3.3,387.5,4.4z"/>
		<path fill="#CE7065" d="M403.6,0.1v5.5c0,1-0.3,1.7-0.9,2.3s-1.4,0.8-2.4,0.8s-1.8-0.3-2.4-0.8S397,6.6,397,5.7V0.1h1v5.6
			c0,0.7,0.2,1.3,0.6,1.6s1,0.6,1.7,0.6c0.7,0,1.3-0.2,1.7-0.6s0.6-0.9,0.6-1.7V0.1H403.6z"/>
		<path fill="#CE7065" d="M407.7,5.1v3.6h-1V0.1h2.3c1.1,0,1.8,0.2,2.3,0.6s0.8,1,0.8,1.8c0,1.1-0.6,1.9-1.7,2.3l2.3,3.8h-1.2
			l-2.1-3.6H407.7z M407.7,4.3h1.4c0.7,0,1.2-0.1,1.5-0.4s0.5-0.7,0.5-1.3c0-0.6-0.2-1-0.5-1.2S409.8,1,409,1h-1.3V4.3z"/>
		<path fill="#CE7065" d="M420.1,8.7h-1V0.1h4.8V1h-3.8v3.1h3.6V5h-3.6V8.7z"/>
		<path fill="#CE7065" d="M433.6,4.4c0,1.4-0.3,2.4-1,3.2s-1.7,1.2-2.9,1.2c-1.3,0-2.2-0.4-2.9-1.2s-1-1.9-1-3.3
			c0-1.4,0.3-2.5,1-3.2s1.7-1.2,2.9-1.2c1.2,0,2.2,0.4,2.9,1.2S433.6,3,433.6,4.4z M426.8,4.4c0,1.2,0.2,2,0.7,2.6s1.2,0.9,2.2,0.9
			c0.9,0,1.7-0.3,2.2-0.9s0.7-1.5,0.7-2.6c0-1.2-0.2-2-0.7-2.6s-1.2-0.9-2.1-0.9c-0.9,0-1.7,0.3-2.2,0.9S426.8,3.3,426.8,4.4z"/>
		<path fill="#CE7065" d="M442.9,0.1v5.5c0,1-0.3,1.7-0.9,2.3s-1.4,0.8-2.4,0.8s-1.8-0.3-2.4-0.8s-0.8-1.3-0.8-2.3V0.1h1v5.6
			c0,0.7,0.2,1.3,0.6,1.6s1,0.6,1.7,0.6c0.7,0,1.3-0.2,1.7-0.6s0.6-0.9,0.6-1.7V0.1H442.9z"/>
		<path fill="#CE7065" d="M447.1,5.1v3.6h-1V0.1h2.3c1.1,0,1.8,0.2,2.3,0.6s0.8,1,0.8,1.8c0,1.1-0.6,1.9-1.7,2.3l2.3,3.8h-1.2
			l-2.1-3.6H447.1z M447.1,4.3h1.4c0.7,0,1.2-0.1,1.5-0.4s0.5-0.7,0.5-1.3c0-0.6-0.2-1-0.5-1.2S449.1,1,448.4,1h-1.3V4.3z"/>
		<path fill="#CE7065" d="M462.2,8.7l-2.9-7.6h0c0.1,0.6,0.1,1.3,0.1,2.1v5.4h-0.9V0.1h1.5l2.7,7.1h0l2.7-7.1h1.5v8.6h-1V3.2
			c0-0.6,0-1.3,0.1-2.1h0L463,8.7H462.2z"/>
		<path fill="#CE7065" d="M475.5,8.7L474.4,6H471L470,8.7h-1l3.4-8.6h0.8l3.4,8.6H475.5z M474.1,5.1l-1-2.7
			c-0.1-0.3-0.3-0.7-0.4-1.2c-0.1,0.4-0.2,0.8-0.4,1.2l-1,2.7H474.1z"/>
		<path fill="#CE7065" d="M478.6,8.7V0.1h1v8.6H478.6z"/>
		<path fill="#CE7065" d="M489.6,8.7h-1.1l-4.7-7.2h0c0.1,0.8,0.1,1.6,0.1,2.3v4.9h-0.9V0.1h1.1l4.7,7.2h0c0-0.1,0-0.4-0.1-1
			s0-1,0-1.2V0.1h0.9V8.7z"/>
		<path fill="#CE7065" d="M502.2,8.7L501.2,6h-3.4l-1.1,2.7h-1l3.4-8.6h0.8l3.4,8.6H502.2z M500.8,5.1l-1-2.7
			c-0.1-0.3-0.3-0.7-0.4-1.2c-0.1,0.4-0.2,0.8-0.4,1.2l-1,2.7H500.8z"/>
		<path fill="#CE7065" d="M506.3,5.1v3.6h-1V0.1h2.3c1.1,0,1.8,0.2,2.3,0.6s0.8,1,0.8,1.8c0,1.1-0.6,1.9-1.7,2.3l2.3,3.8h-1.2
			l-2.1-3.6H506.3z M506.3,4.3h1.4c0.7,0,1.2-0.1,1.5-0.4s0.5-0.7,0.5-1.3c0-0.6-0.2-1-0.5-1.2S508.4,1,507.6,1h-1.3V4.3z"/>
		<path fill="#CE7065" d="M518.4,8.7h-4.8V0.1h4.8V1h-3.8v2.8h3.6v0.9h-3.6v3.2h3.8V8.7z"/>
		<path fill="#CE7065" d="M526.6,8.7L525.5,6h-3.4L521,8.7h-1l3.4-8.6h0.8l3.4,8.6H526.6z M525.2,5.1l-1-2.7
			c-0.1-0.3-0.3-0.7-0.4-1.2c-0.1,0.4-0.2,0.8-0.4,1.2l-1,2.7H525.2z"/>
		<path fill="#CE7065" d="M534.5,6.4c0,0.8-0.3,1.3-0.8,1.8s-1.3,0.6-2.2,0.6c-1,0-1.8-0.1-2.3-0.4v-1c0.4,0.1,0.7,0.3,1.1,0.4
			s0.8,0.1,1.2,0.1c0.7,0,1.2-0.1,1.5-0.4s0.5-0.6,0.5-1.1c0-0.3-0.1-0.5-0.2-0.7s-0.3-0.4-0.6-0.5s-0.7-0.3-1.3-0.5
			c-0.8-0.3-1.4-0.6-1.7-1s-0.5-0.9-0.5-1.5c0-0.7,0.2-1.2,0.7-1.6s1.2-0.6,2-0.6c0.9,0,1.6,0.2,2.3,0.5L534,1.3
			c-0.7-0.3-1.4-0.4-2.1-0.4c-0.5,0-0.9,0.1-1.2,0.3s-0.4,0.5-0.4,0.9c0,0.3,0.1,0.5,0.2,0.7s0.3,0.4,0.6,0.5s0.7,0.3,1.2,0.5
			c0.9,0.3,1.5,0.7,1.9,1S534.5,5.8,534.5,6.4z"/>
		<path fill="#CE7065" d="M548.7,4.4c0,1.4-0.3,2.4-1,3.2s-1.7,1.2-2.9,1.2c-1.3,0-2.2-0.4-2.9-1.2s-1-1.9-1-3.3
			c0-1.4,0.3-2.5,1-3.2s1.7-1.2,2.9-1.2c1.2,0,2.2,0.4,2.9,1.2S548.7,3,548.7,4.4z M541.8,4.4c0,1.2,0.2,2,0.7,2.6s1.2,0.9,2.2,0.9
			c0.9,0,1.7-0.3,2.2-0.9s0.7-1.5,0.7-2.6c0-1.2-0.2-2-0.7-2.6s-1.2-0.9-2.1-0.9c-0.9,0-1.7,0.3-2.2,0.9S541.8,3.3,541.8,4.4z"/>
		<path fill="#CE7065" d="M552.5,8.7h-1V0.1h4.8V1h-3.8v3.1h3.6V5h-3.6V8.7z"/>
		<path fill="#CE7065" d="M566.2,0.9c-0.9,0-1.7,0.3-2.2,0.9s-0.8,1.5-0.8,2.6c0,1.1,0.3,2,0.8,2.6s1.3,0.9,2.2,0.9
			c0.6,0,1.3-0.1,2-0.3v0.9c-0.6,0.2-1.3,0.3-2.2,0.3c-1.3,0-2.2-0.4-2.9-1.1s-1-1.9-1-3.3c0-0.9,0.2-1.7,0.5-2.3s0.8-1.2,1.4-1.5
			s1.4-0.5,2.2-0.5c0.9,0,1.7,0.2,2.4,0.5l-0.4,0.9C567.5,1.1,566.9,0.9,566.2,0.9z"/>
		<path fill="#CE7065" d="M578.5,4.4c0,1.4-0.3,2.4-1,3.2s-1.7,1.2-2.9,1.2c-1.3,0-2.2-0.4-2.9-1.2s-1-1.9-1-3.3
			c0-1.4,0.3-2.5,1-3.2s1.7-1.2,2.9-1.2c1.2,0,2.2,0.4,2.9,1.2S578.5,3,578.5,4.4z M571.7,4.4c0,1.2,0.2,2,0.7,2.6s1.2,0.9,2.2,0.9
			c0.9,0,1.7-0.3,2.2-0.9s0.7-1.5,0.7-2.6c0-1.2-0.2-2-0.7-2.6s-1.2-0.9-2.1-0.9c-0.9,0-1.7,0.3-2.2,0.9S571.7,3.3,571.7,4.4z"/>
		<path fill="#CE7065" d="M588,8.7h-1.1l-4.7-7.2h0c0.1,0.8,0.1,1.6,0.1,2.3v4.9h-0.9V0.1h1.1l4.7,7.2h0c0-0.1,0-0.4-0.1-1
			s0-1,0-1.2V0.1h0.9V8.7z"/>
		<path fill="#CE7065" d="M594.9,0.9c-0.9,0-1.7,0.3-2.2,0.9s-0.8,1.5-0.8,2.6c0,1.1,0.3,2,0.8,2.6s1.3,0.9,2.2,0.9
			c0.6,0,1.3-0.1,2-0.3v0.9c-0.6,0.2-1.3,0.3-2.2,0.3c-1.3,0-2.2-0.4-2.9-1.1s-1-1.9-1-3.3c0-0.9,0.2-1.7,0.5-2.3s0.8-1.2,1.4-1.5
			s1.4-0.5,2.2-0.5c0.9,0,1.7,0.2,2.4,0.5l-0.4,0.9C596.2,1.1,595.6,0.9,594.9,0.9z"/>
		<path fill="#CE7065" d="M604.5,8.7h-4.8V0.1h4.8V1h-3.8v2.8h3.6v0.9h-3.6v3.2h3.8V8.7z"/>
		<path fill="#CE7065" d="M608.3,5.1v3.6h-1V0.1h2.3c1.1,0,1.8,0.2,2.3,0.6s0.8,1,0.8,1.8c0,1.1-0.6,1.9-1.7,2.3l2.3,3.8h-1.2
			l-2.1-3.6H608.3z M608.3,4.3h1.4c0.7,0,1.2-0.1,1.5-0.4s0.5-0.7,0.5-1.3c0-0.6-0.2-1-0.5-1.2S610.3,1,609.6,1h-1.3V4.3z"/>
		<path fill="#CE7065" d="M622.3,8.7h-1.1l-4.7-7.2h0c0.1,0.8,0.1,1.6,0.1,2.3v4.9h-0.9V0.1h1.1l4.7,7.2h0c0-0.1,0-0.4-0.1-1
			s0-1,0-1.2V0.1h0.9V8.7z"/>
	</g>
	<g>
		<rect x="243.1" y="166.9" fill="#CE7065" width="107" height="1.5"/>
		<g>
			<circle fill="#CE7065" cx="296.3" cy="100.6" r="51"/>
			<g>
				<path fill="#FFFFFF" d="M265.2,95.8v6.2c0,0.7-0.2,1.3-0.5,1.9c-0.3,0.5-0.7,0.9-1.3,1.2c-0.6,0.3-1.3,0.4-2.1,0.4
					c-1.2,0-2.1-0.3-2.8-0.9c-0.7-0.6-1-1.5-1-2.6v-6.2h1.6v6c0,0.8,0.2,1.4,0.5,1.7c0.4,0.4,0.9,0.6,1.7,0.6c1.5,0,2.2-0.8,2.2-2.3
					v-6H265.2z"/>
				<path fill="#FFFFFF" d="M274.1,102.8c0,0.8-0.3,1.5-0.9,2s-1.5,0.7-2.5,0.7s-2-0.2-2.7-0.5v-1.5c0.4,0.2,0.9,0.4,1.4,0.5
					c0.5,0.1,0.9,0.2,1.4,0.2c0.6,0,1.1-0.1,1.4-0.4s0.4-0.6,0.4-0.9c0-0.4-0.1-0.7-0.4-0.9c-0.3-0.2-0.8-0.5-1.7-0.9
					c-0.9-0.4-1.5-0.8-1.8-1.2c-0.4-0.5-0.5-1-0.5-1.6c0-0.8,0.3-1.4,0.8-1.9c0.6-0.5,1.3-0.7,2.3-0.7c0.9,0,1.8,0.2,2.7,0.6
					l-0.5,1.3c-0.8-0.4-1.6-0.5-2.3-0.5c-0.5,0-0.9,0.1-1.1,0.3c-0.3,0.2-0.4,0.5-0.4,0.9c0,0.2,0.1,0.5,0.2,0.6
					c0.1,0.2,0.3,0.3,0.5,0.5c0.2,0.2,0.7,0.4,1.3,0.6c0.7,0.3,1.2,0.6,1.5,0.8c0.3,0.3,0.6,0.5,0.7,0.9
					C274,102,274.1,102.4,274.1,102.8z"/>
				<path fill="#FFFFFF" d="M282.4,105.4H277v-9.6h5.4v1.3h-3.8v2.6h3.6v1.3h-3.6v3h3.8V105.4z"/>
				<path fill="#FFFFFF" d="M287,101.6v3.8h-1.6v-9.6h2.7c1.2,0,2.1,0.2,2.7,0.7c0.6,0.5,0.9,1.2,0.9,2.1c0,1.2-0.6,2-1.9,2.5
					l2.7,4.2h-1.8l-2.3-3.8H287z M287,100.3h1.1c0.7,0,1.3-0.1,1.6-0.4c0.3-0.3,0.5-0.7,0.5-1.2c0-0.5-0.2-0.9-0.5-1.2
					c-0.4-0.2-0.9-0.4-1.6-0.4h-1V100.3z"/>
				<path fill="#FFFFFF" d="M301,105.4h-1.5v-9.6h5.4v1.3H301v3h3.6v1.3H301V105.4z"/>
				<path fill="#FFFFFF" d="M307.6,105.4v-9.6h1.6v8.2h4v1.3H307.6z"/>
				<path fill="#FFFFFF" d="M324.3,100.6c0,1.6-0.4,2.8-1.2,3.6s-1.9,1.3-3.3,1.3c-1.4,0-2.5-0.4-3.3-1.3c-0.8-0.9-1.2-2.1-1.2-3.6
					c0-1.6,0.4-2.8,1.2-3.6s1.9-1.3,3.3-1.3c1.4,0,2.5,0.4,3.3,1.3C324,97.8,324.3,99,324.3,100.6z M317,100.6
					c0,1.2,0.2,2.1,0.7,2.7s1.2,0.9,2.1,0.9c0.9,0,1.6-0.3,2.1-0.9c0.5-0.6,0.7-1.5,0.7-2.7c0-1.2-0.2-2.1-0.7-2.7
					c-0.5-0.6-1.2-0.9-2.1-0.9c-0.9,0-1.6,0.3-2.1,0.9C317.3,98.5,317,99.4,317,100.6z"/>
				<path fill="#FFFFFF" d="M336.2,105.4h-1.7l-1.6-5.7c-0.1-0.2-0.2-0.6-0.3-1.1c-0.1-0.5-0.2-0.8-0.2-1c0,0.3-0.1,0.6-0.2,1.1
					c-0.1,0.4-0.2,0.8-0.2,1l-1.6,5.7h-1.7l-1.2-4.8l-1.3-4.8h1.6l1.4,5.6c0.2,0.9,0.4,1.7,0.5,2.4c0-0.4,0.1-0.8,0.2-1.2
					c0.1-0.5,0.2-0.8,0.3-1.1l1.6-5.6h1.5l1.6,5.6c0.2,0.5,0.3,1.3,0.5,2.3c0.1-0.6,0.2-1.4,0.5-2.4l1.4-5.6h1.6L336.2,105.4z"/>
			</g>
		</g>
		<g>
			<path d="M263.2,182.5c0-0.3,0.1-0.5,0.2-0.6s0.3-0.2,0.5-0.2s0.4,0.1,0.5,0.2s0.2,0.4,0.2,0.6c0,0.3-0.1,0.5-0.2,0.6
				c-0.1,0.1-0.3,0.2-0.5,0.2s-0.4-0.1-0.5-0.2C263.2,182.9,263.2,182.7,263.2,182.5z"/>
			<path d="M273.4,179.5c-0.8,0-1.5,0.3-2,0.8c-0.5,0.5-0.7,1.3-0.7,2.2c0,1,0.2,1.7,0.7,2.3c0.5,0.5,1.1,0.8,2,0.8
				c0.6,0,1.1-0.1,1.6-0.2v0.4c-0.4,0.2-1,0.2-1.7,0.2c-1,0-1.7-0.3-2.2-0.9s-0.8-1.5-0.8-2.6c0-0.7,0.1-1.3,0.4-1.8
				c0.3-0.5,0.6-0.9,1.1-1.2c0.5-0.3,1.1-0.4,1.7-0.4c0.7,0,1.3,0.1,1.8,0.4l-0.2,0.4C274.5,179.6,273.9,179.5,273.4,179.5z"/>
			<path d="M277.1,185.9v-6.8h0.5v6.3h3.2v0.4H277.1z"/>
			<path d="M286,183.5h-2.8l-0.9,2.4h-0.5l2.7-6.8h0.3l2.7,6.8h-0.5L286,183.5z M283.4,183.1h2.4l-0.9-2.4c-0.1-0.2-0.2-0.5-0.3-0.8
				c-0.1,0.3-0.2,0.6-0.3,0.8L283.4,183.1z"/>
			<path d="M289.6,183v3h-0.5v-6.8h1.6c0.8,0,1.5,0.2,1.9,0.5c0.4,0.3,0.6,0.8,0.6,1.4c0,0.5-0.1,0.8-0.4,1.2
				c-0.2,0.3-0.6,0.5-1.1,0.7l1.8,3.1H293l-1.7-3H289.6z M289.6,182.6h1.3c0.6,0,1-0.1,1.3-0.4c0.3-0.3,0.5-0.6,0.5-1.1
				c0-0.5-0.2-0.9-0.5-1.1c-0.3-0.2-0.8-0.4-1.5-0.4h-1.1V182.6z"/>
			<path d="M295.5,185.9v-6.8h0.5v6.8H295.5z"/>
			<path d="M299,185.9h-0.5v-6.8h3.7v0.4H299v2.9h3.1v0.4H299V185.9z"/>
			<path d="M305.6,182.9l2-3.7h0.5l-2.3,4.2v2.6h-0.5v-2.6l-2.3-4.2h0.5L305.6,182.9z"/>
			<path d="M314.7,185.9h-0.5v-6.3H312v-0.4h4.9v0.4h-2.2V185.9z"/>
			<path d="M323.5,185.9h-0.5v-3.3h-4v3.3h-0.5v-6.8h0.5v3h4v-3h0.5V185.9z"/>
			<path d="M329.9,185.9h-3.7v-6.8h3.7v0.4h-3.2v2.6h3.1v0.4h-3.1v2.9h3.2V185.9z"/>
			<path d="M268,199.2v-6.8h0.5v6.3h3.2v0.4H268z"/>
			<path d="M273.6,199.2v-6.8h0.5v6.8H273.6z"/>
			<path d="M277.2,199.2h-0.5v-6.8h3.7v0.4h-3.2v2.9h3.1v0.4h-3.1V199.2z"/>
			<path d="M285.9,199.2h-3.7v-6.8h3.7v0.4h-3.2v2.6h3.1v0.4h-3.1v2.9h3.2V199.2z"/>
			<path d="M288.1,199.2v-6.8h0.5v6.8H288.1z"/>
			<path d="M296.9,195.8c0,0.9-0.2,1.7-0.6,2.3c-0.4,0.6-0.9,1-1.6,1.1l1.5,1.6h-0.8l-1.3-1.5l-0.2,0h-0.1c-0.9,0-1.7-0.3-2.2-0.9
				c-0.5-0.6-0.8-1.5-0.8-2.6c0-1.1,0.3-1.9,0.8-2.5c0.5-0.6,1.3-0.9,2.2-0.9c0.9,0,1.7,0.3,2.2,0.9
				C296.7,193.9,296.9,194.7,296.9,195.8z M291.4,195.8c0,1,0.2,1.7,0.6,2.2c0.4,0.5,1.1,0.8,1.9,0.8c0.8,0,1.4-0.3,1.9-0.8
				c0.4-0.5,0.6-1.3,0.6-2.3c0-1-0.2-1.7-0.6-2.2c-0.4-0.5-1.1-0.8-1.9-0.8c-0.8,0-1.4,0.3-1.9,0.8S291.4,194.8,291.4,195.8z"/>
			<path d="M308.1,195.8c0,0.9-0.2,1.7-0.6,2.3c-0.4,0.6-0.9,1-1.6,1.1l1.5,1.6h-0.8l-1.3-1.5l-0.2,0H305c-0.9,0-1.7-0.3-2.2-0.9
				c-0.5-0.6-0.8-1.5-0.8-2.6c0-1.1,0.3-1.9,0.8-2.5c0.5-0.6,1.3-0.9,2.2-0.9c0.9,0,1.7,0.3,2.2,0.9
				C307.8,193.9,308.1,194.7,308.1,195.8z M302.5,195.8c0,1,0.2,1.7,0.6,2.2c0.4,0.5,1.1,0.8,1.9,0.8c0.8,0,1.4-0.3,1.9-0.8
				c0.4-0.5,0.6-1.3,0.6-2.3c0-1-0.2-1.7-0.6-2.2c-0.4-0.5-1.1-0.8-1.9-0.8c-0.8,0-1.4,0.3-1.9,0.8S302.5,194.8,302.5,195.8z"/>
			<path d="M315.3,192.4v4.4c0,0.8-0.2,1.4-0.7,1.8s-1.1,0.7-1.9,0.7c-0.8,0-1.4-0.2-1.8-0.7c-0.4-0.4-0.7-1.1-0.7-1.8v-4.4h0.5v4.4
				c0,0.7,0.2,1.2,0.5,1.5c0.4,0.4,0.9,0.5,1.5,0.5c0.6,0,1.1-0.2,1.5-0.5c0.4-0.4,0.5-0.9,0.5-1.5v-4.4H315.3z"/>
			<path d="M317.9,199.2v-6.8h0.5v6.8H317.9z"/>
			<path d="M325.1,199.2h-4.7v-0.4l4-6h-3.8v-0.4h4.4v0.4l-4,6h4.1V199.2z"/>
			<path d="M252.1,209c0-0.3,0.1-0.5,0.2-0.6s0.3-0.2,0.5-0.2s0.4,0.1,0.5,0.2c0.1,0.1,0.2,0.4,0.2,0.6c0,0.3-0.1,0.5-0.2,0.6
				c-0.1,0.1-0.3,0.2-0.5,0.2s-0.4-0.1-0.5-0.2C252.2,209.5,252.1,209.3,252.1,209z"/>
			<path d="M263.2,210.8c0,0.6-0.2,1-0.6,1.3c-0.4,0.3-1,0.5-1.7,0.5c-0.8,0-1.5-0.1-1.9-0.3v-0.5c0.5,0.2,1.1,0.3,1.9,0.3
				c0.6,0,1-0.1,1.3-0.4c0.3-0.3,0.5-0.6,0.5-1c0-0.3-0.1-0.5-0.2-0.6c-0.1-0.2-0.3-0.3-0.5-0.5c-0.2-0.1-0.6-0.3-1.1-0.5
				c-0.7-0.2-1.2-0.5-1.4-0.8c-0.3-0.3-0.4-0.6-0.4-1.1c0-0.5,0.2-0.9,0.6-1.2c0.4-0.3,0.9-0.5,1.5-0.5c0.6,0,1.2,0.1,1.8,0.4
				l-0.2,0.4c-0.6-0.2-1.1-0.4-1.6-0.4c-0.5,0-0.9,0.1-1.2,0.3s-0.4,0.5-0.4,0.9c0,0.2,0,0.5,0.1,0.6c0.1,0.2,0.2,0.3,0.4,0.4
				s0.6,0.3,1.1,0.5c0.5,0.2,0.9,0.4,1.2,0.5s0.5,0.4,0.6,0.6S263.2,210.5,263.2,210.8z"/>
			<path d="M267.1,212.5h-0.5v-6.3h-2.2v-0.4h4.9v0.4h-2.2V212.5z"/>
			<path d="M271.5,209.6v3H271v-6.8h1.6c0.8,0,1.5,0.2,1.9,0.5c0.4,0.3,0.6,0.8,0.6,1.4c0,0.5-0.1,0.8-0.4,1.2
				c-0.2,0.3-0.6,0.5-1.1,0.7l1.8,3.1h-0.6l-1.7-3H271.5z M271.5,209.1h1.3c0.6,0,1-0.1,1.3-0.4c0.3-0.3,0.5-0.6,0.5-1.1
				c0-0.5-0.2-0.9-0.5-1.1c-0.3-0.2-0.8-0.4-1.5-0.4h-1.1V209.1z"/>
			<path d="M281.1,212.5h-3.7v-6.8h3.7v0.4h-3.2v2.6h3.1v0.4h-3.1v2.9h3.2V212.5z"/>
			<path d="M286.6,210.1h-2.8l-0.9,2.4h-0.5l2.7-6.8h0.3l2.7,6.8h-0.5L286.6,210.1z M284,209.7h2.4l-0.9-2.4
				c-0.1-0.2-0.2-0.5-0.3-0.8c-0.1,0.3-0.2,0.6-0.3,0.8L284,209.7z"/>
			<path d="M292.7,212.5l-2.5-6.3h0c0,0.4,0,0.8,0,1.2v5.1h-0.5v-6.8h0.7l2.4,6h0l2.4-6h0.7v6.8h-0.5v-5.1c0-0.4,0-0.7,0.1-1.1h0
				l-2.5,6.2H292.7z"/>
			<path d="M298.6,212.5v-6.8h0.5v6.3h3.2v0.4H298.6z"/>
			<path d="M304.2,212.5v-6.8h0.5v6.8H304.2z"/>
			<path d="M312.2,212.5h-0.5l-4-6h0c0,0.7,0.1,1.3,0.1,1.6v4.4h-0.5v-6.8h0.5l4,6h0c0-0.6,0-1.1,0-1.6v-4.4h0.5V212.5z"/>
			<path d="M318.6,212.5h-3.7v-6.8h3.7v0.4h-3.2v2.6h3.1v0.4h-3.1v2.9h3.2V212.5z"/>
			<path d="M325.8,212.5h-0.5v-6.3h-2.2v-0.4h4.9v0.4h-2.2V212.5z"/>
			<path d="M334.6,212.5h-0.5v-3.3h-4v3.3h-0.5v-6.8h0.5v3h4v-3h0.5V212.5z"/>
			<path d="M340.9,212.5h-3.7v-6.8h3.7v0.4h-3.2v2.6h3.1v0.4h-3.1v2.9h3.2V212.5z"/>
			<path d="M256.4,224.1c0,0.6-0.2,1-0.6,1.3c-0.4,0.3-1,0.5-1.7,0.5c-0.8,0-1.5-0.1-1.9-0.3v-0.5c0.5,0.2,1.1,0.3,1.9,0.3
				c0.6,0,1-0.1,1.3-0.4c0.3-0.3,0.5-0.6,0.5-1c0-0.3-0.1-0.5-0.2-0.6c-0.1-0.2-0.3-0.3-0.5-0.5s-0.6-0.3-1.1-0.4
				c-0.7-0.2-1.2-0.5-1.4-0.8c-0.3-0.3-0.4-0.6-0.4-1.1c0-0.5,0.2-0.9,0.6-1.2c0.4-0.3,0.9-0.5,1.5-0.5c0.6,0,1.2,0.1,1.8,0.4
				l-0.2,0.4c-0.6-0.2-1.1-0.4-1.6-0.4c-0.5,0-0.9,0.1-1.2,0.3c-0.3,0.2-0.4,0.5-0.4,0.9c0,0.2,0,0.5,0.1,0.6
				c0.1,0.2,0.2,0.3,0.4,0.4c0.2,0.1,0.6,0.3,1.1,0.5c0.5,0.2,0.9,0.4,1.2,0.5c0.3,0.2,0.5,0.4,0.6,0.6
				C256.4,223.5,256.4,223.7,256.4,224.1z"/>
			<path d="M258.6,225.8V219h0.5v6.8H258.6z"/>
			<path d="M264.3,222.4h2.5v3.1c-0.7,0.3-1.4,0.4-2.2,0.4c-1.1,0-1.9-0.3-2.5-0.9c-0.6-0.6-0.9-1.5-0.9-2.6c0-0.7,0.1-1.3,0.4-1.8
				c0.3-0.5,0.7-0.9,1.2-1.2c0.5-0.3,1.1-0.4,1.8-0.4c0.7,0,1.4,0.1,2,0.4l-0.2,0.4c-0.6-0.3-1.2-0.4-1.8-0.4
				c-0.9,0-1.6,0.3-2.1,0.8c-0.5,0.6-0.8,1.3-0.8,2.2c0,1,0.2,1.8,0.7,2.3c0.5,0.5,1.2,0.8,2.2,0.8c0.6,0,1.2-0.1,1.6-0.3v-2.4h-2
				V222.4z"/>
			<path d="M274.2,225.8h-0.5l-4-6h0c0,0.7,0.1,1.3,0.1,1.6v4.4h-0.5V219h0.5l4,6h0c0-0.6,0-1.1,0-1.6V219h0.5V225.8z"/>
			<path d="M276.3,223.4V223h2.2v0.4H276.3z"/>
			<path d="M285.6,219v4.4c0,0.8-0.2,1.4-0.7,1.8c-0.5,0.4-1.1,0.7-1.9,0.7c-0.8,0-1.4-0.2-1.8-0.7c-0.4-0.4-0.7-1.1-0.7-1.8V219
				h0.5v4.4c0,0.7,0.2,1.2,0.5,1.5c0.4,0.4,0.9,0.5,1.5,0.5c0.6,0,1.1-0.2,1.5-0.5s0.5-0.9,0.5-1.5V219H285.6z"/>
			<path d="M292.2,221c0,0.7-0.2,1.2-0.7,1.5s-1.1,0.5-1.9,0.5h-1v2.8h-0.5V219h1.7C291.4,219,292.2,219.7,292.2,221z M288.6,222.6
				h0.9c0.8,0,1.3-0.1,1.7-0.4s0.5-0.7,0.5-1.2c0-0.5-0.2-0.9-0.5-1.2s-0.8-0.4-1.5-0.4h-1.1V222.6z"/>
			<path d="M301.6,221c0,0.7-0.2,1.2-0.7,1.5s-1.1,0.5-1.9,0.5h-1v2.8h-0.5V219h1.7C300.8,219,301.6,219.7,301.6,221z M298,222.6
				h0.9c0.8,0,1.3-0.1,1.7-0.4s0.5-0.7,0.5-1.2c0-0.5-0.2-0.9-0.5-1.2s-0.8-0.4-1.5-0.4H298V222.6z"/>
			<path d="M304.3,222.8v3h-0.5V219h1.6c0.8,0,1.5,0.2,1.9,0.5c0.4,0.3,0.6,0.8,0.6,1.4c0,0.5-0.1,0.8-0.4,1.2
				c-0.2,0.3-0.6,0.5-1.1,0.7l1.8,3.1h-0.6l-1.7-3H304.3z M304.3,222.4h1.3c0.6,0,1-0.1,1.3-0.4c0.3-0.3,0.5-0.6,0.5-1.1
				c0-0.5-0.2-0.9-0.5-1.1c-0.3-0.2-0.8-0.4-1.5-0.4h-1.1V222.4z"/>
			<path d="M315.9,222.4c0,1.1-0.3,1.9-0.8,2.6c-0.5,0.6-1.3,0.9-2.2,0.9c-0.9,0-1.7-0.3-2.2-0.9c-0.5-0.6-0.8-1.5-0.8-2.6
				c0-1.1,0.3-1.9,0.8-2.5c0.5-0.6,1.3-0.9,2.2-0.9c0.9,0,1.7,0.3,2.2,0.9C315.6,220.5,315.9,221.3,315.9,222.4z M310.3,222.4
				c0,1,0.2,1.7,0.6,2.3c0.4,0.5,1.1,0.8,1.9,0.8c0.8,0,1.4-0.3,1.9-0.8c0.4-0.5,0.6-1.3,0.6-2.3c0-1-0.2-1.7-0.6-2.2
				c-0.4-0.5-1.1-0.8-1.9-0.8c-0.8,0-1.4,0.3-1.9,0.8S310.3,221.4,310.3,222.4z"/>
			<path d="M321,219.4c-0.8,0-1.5,0.3-2,0.8c-0.5,0.5-0.7,1.3-0.7,2.2c0,1,0.2,1.7,0.7,2.3c0.5,0.5,1.1,0.8,2,0.8
				c0.6,0,1.1-0.1,1.6-0.2v0.4c-0.4,0.2-1,0.2-1.7,0.2c-1,0-1.7-0.3-2.2-0.9s-0.8-1.5-0.8-2.6c0-0.7,0.1-1.3,0.4-1.8
				c0.3-0.5,0.6-0.9,1.1-1.2c0.5-0.3,1.1-0.4,1.7-0.4c0.7,0,1.3,0.1,1.8,0.4l-0.2,0.4C322.1,219.5,321.6,219.4,321,219.4z"/>
			<path d="M328.5,225.8h-3.7V219h3.7v0.4h-3.2v2.6h3.1v0.4h-3.1v2.9h3.2V225.8z"/>
			<path d="M334.5,224.1c0,0.6-0.2,1-0.6,1.3c-0.4,0.3-1,0.5-1.7,0.5c-0.8,0-1.5-0.1-1.9-0.3v-0.5c0.5,0.2,1.1,0.3,1.9,0.3
				c0.6,0,1-0.1,1.3-0.4c0.3-0.3,0.5-0.6,0.5-1c0-0.3-0.1-0.5-0.2-0.6c-0.1-0.2-0.3-0.3-0.5-0.5s-0.6-0.3-1.1-0.4
				c-0.7-0.2-1.2-0.5-1.4-0.8c-0.3-0.3-0.4-0.6-0.4-1.1c0-0.5,0.2-0.9,0.6-1.2c0.4-0.3,0.9-0.5,1.5-0.5c0.6,0,1.2,0.1,1.8,0.4
				l-0.2,0.4c-0.6-0.2-1.1-0.4-1.6-0.4c-0.5,0-0.9,0.1-1.2,0.3c-0.3,0.2-0.4,0.5-0.4,0.9c0,0.2,0,0.5,0.1,0.6
				c0.1,0.2,0.2,0.3,0.4,0.4c0.2,0.1,0.6,0.3,1.1,0.5c0.5,0.2,0.9,0.4,1.2,0.5c0.3,0.2,0.5,0.4,0.6,0.6
				C334.4,223.5,334.5,223.7,334.5,224.1z"/>
			<path d="M340.3,224.1c0,0.6-0.2,1-0.6,1.3c-0.4,0.3-1,0.5-1.7,0.5c-0.8,0-1.5-0.1-1.9-0.3v-0.5c0.5,0.2,1.1,0.3,1.9,0.3
				c0.6,0,1-0.1,1.3-0.4c0.3-0.3,0.5-0.6,0.5-1c0-0.3-0.1-0.5-0.2-0.6c-0.1-0.2-0.3-0.3-0.5-0.5s-0.6-0.3-1.1-0.4
				c-0.7-0.2-1.2-0.5-1.4-0.8c-0.3-0.3-0.4-0.6-0.4-1.1c0-0.5,0.2-0.9,0.6-1.2c0.4-0.3,0.9-0.5,1.5-0.5c0.6,0,1.2,0.1,1.8,0.4
				l-0.2,0.4c-0.6-0.2-1.1-0.4-1.6-0.4c-0.5,0-0.9,0.1-1.2,0.3c-0.3,0.2-0.4,0.5-0.4,0.9c0,0.2,0,0.5,0.1,0.6
				c0.1,0.2,0.2,0.3,0.4,0.4c0.2,0.1,0.6,0.3,1.1,0.5c0.5,0.2,0.9,0.4,1.2,0.5c0.3,0.2,0.5,0.4,0.6,0.6
				C340.3,223.5,340.3,223.7,340.3,224.1z"/>
		</g>
	</g>
	<g>
		<rect x="675.3" y="166.9" fill="#CE7065" width="107" height="1.5"/>
		<g>
			<circle fill="#CE7065" cx="728.8" cy="101.9" r="51"/>
			<g>
				<path fill="#FFFFFF" d="M710.1,87.6h1.6l-3.3,9.6h-1.6l-3.3-9.6h1.6l2,5.9c0.1,0.3,0.2,0.6,0.3,1.1c0.1,0.4,0.2,0.8,0.2,1
					c0.1-0.3,0.1-0.7,0.3-1.1c0.1-0.4,0.2-0.8,0.3-1L710.1,87.6z"/>
				<path fill="#FFFFFF" d="M714,97.1v-9.6h1.6v9.6H714z"/>
				<path fill="#FFFFFF" d="M724.6,94.5c0,0.8-0.3,1.5-0.9,2c-0.6,0.5-1.5,0.7-2.5,0.7s-2-0.2-2.7-0.5v-1.5c0.4,0.2,0.9,0.4,1.4,0.5
					c0.5,0.1,0.9,0.2,1.4,0.2c0.6,0,1.1-0.1,1.4-0.4c0.3-0.2,0.4-0.6,0.4-0.9c0-0.4-0.1-0.7-0.4-0.9s-0.8-0.5-1.7-0.9
					c-0.9-0.4-1.5-0.8-1.8-1.2c-0.4-0.5-0.5-1-0.5-1.6c0-0.8,0.3-1.4,0.8-1.9s1.3-0.7,2.3-0.7c0.9,0,1.8,0.2,2.7,0.6l-0.5,1.3
					c-0.8-0.4-1.6-0.5-2.3-0.5c-0.5,0-0.9,0.1-1.1,0.3c-0.3,0.2-0.4,0.5-0.4,0.9c0,0.2,0.1,0.5,0.2,0.6c0.1,0.2,0.3,0.3,0.5,0.5
					c0.2,0.2,0.7,0.4,1.3,0.6c0.7,0.3,1.2,0.6,1.5,0.8s0.6,0.5,0.7,0.9C724.5,93.7,724.6,94.1,724.6,94.5z"/>
				<path fill="#FFFFFF" d="M734.9,87.6v6.2c0,0.7-0.2,1.3-0.5,1.9c-0.3,0.5-0.7,0.9-1.3,1.2s-1.3,0.4-2.1,0.4
					c-1.2,0-2.1-0.3-2.8-0.9c-0.7-0.6-1-1.5-1-2.6v-6.2h1.6v6c0,0.8,0.2,1.4,0.5,1.7c0.4,0.4,0.9,0.6,1.7,0.6c1.5,0,2.2-0.8,2.2-2.3
					v-6H734.9z"/>
				<path fill="#FFFFFF" d="M744.3,97.1l-1-2.7h-3.7l-0.9,2.7h-1.6l3.6-9.6h1.7l3.6,9.6H744.3z M742.9,93.1l-0.9-2.6
					c-0.1-0.2-0.2-0.4-0.3-0.8c-0.1-0.4-0.2-0.6-0.2-0.8c-0.1,0.5-0.3,1.1-0.5,1.8l-0.9,2.5H742.9z"/>
				<path fill="#FFFFFF" d="M748.2,97.1v-9.6h1.6v8.2h4v1.3H748.2z"/>
				<path fill="#FFFFFF" d="M710.8,111.4c0,1.6-0.4,2.8-1.3,3.6s-2.1,1.3-3.8,1.3h-2.7v-9.6h3c1.5,0,2.7,0.4,3.5,1.2
					C710.4,108.8,710.8,109.9,710.8,111.4z M709.2,111.5c0-2.3-1.1-3.4-3.2-3.4h-1.4v6.9h1.1C708,115,709.2,113.8,709.2,111.5z"/>
				<path fill="#FFFFFF" d="M719.3,116.3h-5.4v-9.6h5.4v1.3h-3.8v2.6h3.6v1.3h-3.6v3h3.8V116.3z"/>
				<path fill="#FFFFFF" d="M727.9,113.7c0,0.8-0.3,1.5-0.9,2c-0.6,0.5-1.5,0.7-2.5,0.7s-2-0.2-2.7-0.5v-1.5
					c0.4,0.2,0.9,0.4,1.4,0.5c0.5,0.1,0.9,0.2,1.4,0.2c0.6,0,1.1-0.1,1.4-0.4c0.3-0.2,0.4-0.6,0.4-0.9c0-0.4-0.1-0.7-0.4-0.9
					s-0.8-0.5-1.7-0.9c-0.9-0.4-1.5-0.8-1.8-1.2c-0.4-0.5-0.5-1-0.5-1.6c0-0.8,0.3-1.4,0.8-1.9s1.3-0.7,2.3-0.7
					c0.9,0,1.8,0.2,2.7,0.6l-0.5,1.3c-0.8-0.4-1.6-0.5-2.3-0.5c-0.5,0-0.9,0.1-1.1,0.3c-0.3,0.2-0.4,0.5-0.4,0.9
					c0,0.2,0.1,0.5,0.2,0.6c0.1,0.2,0.3,0.3,0.5,0.5c0.2,0.2,0.7,0.4,1.3,0.6c0.7,0.3,1.2,0.6,1.5,0.8s0.6,0.5,0.7,0.9
					C727.8,112.9,727.9,113.3,727.9,113.7z"/>
				<path fill="#FFFFFF" d="M730.7,116.3v-9.6h1.6v9.6H730.7z"/>
				<path fill="#FFFFFF" d="M739.7,111.1h3.5v4.8c-0.6,0.2-1.1,0.3-1.7,0.4c-0.5,0.1-1.1,0.1-1.7,0.1c-1.4,0-2.6-0.4-3.3-1.3
					c-0.8-0.9-1.2-2.1-1.2-3.6c0-1.5,0.4-2.7,1.3-3.6c0.9-0.9,2.1-1.3,3.7-1.3c1,0,1.9,0.2,2.8,0.6l-0.5,1.3
					c-0.8-0.4-1.6-0.5-2.3-0.5c-1,0-1.8,0.3-2.4,1c-0.6,0.6-0.9,1.5-0.9,2.6c0,1.2,0.3,2.1,0.8,2.7c0.5,0.6,1.3,0.9,2.3,0.9
					c0.5,0,1-0.1,1.6-0.2v-2.5h-2V111.1z"/>
				<path fill="#FFFFFF" d="M754.5,116.3h-1.9l-4.7-7.6h-0.1l0,0.4c0.1,0.8,0.1,1.6,0.1,2.2v5h-1.4v-9.6h1.9l4.7,7.6h0
					c0-0.1,0-0.5-0.1-1.1c0-0.6,0-1.1,0-1.5v-5h1.4V116.3z"/>
			</g>
		</g>
		<g>
			<path d="M698.5,184.2c0-0.3,0.1-0.5,0.2-0.6s0.3-0.2,0.5-0.2c0.2,0,0.4,0.1,0.5,0.2s0.2,0.4,0.2,0.6c0,0.3-0.1,0.5-0.2,0.6
				s-0.3,0.2-0.5,0.2s-0.4-0.1-0.5-0.2C698.6,184.7,698.5,184.5,698.5,184.2z"/>
			<path d="M709.6,187.6h-3.7v-6.8h3.7v0.4h-3.2v2.6h3.1v0.4h-3.1v2.9h3.2V187.6z"/>
			<path d="M714.8,187.6l-2.5-6.3h0c0,0.4,0,0.8,0,1.2v5.1h-0.5v-6.8h0.7l2.4,6h0l2.4-6h0.7v6.8h-0.5v-5.1c0-0.4,0-0.7,0.1-1.1h0
				l-2.5,6.2H714.8z"/>
			<path d="M724.8,182.8c0,0.7-0.2,1.2-0.7,1.5s-1.1,0.5-1.9,0.5h-1v2.8h-0.5v-6.8h1.7C724,180.9,724.8,181.5,724.8,182.8z
				 M721.2,184.4h0.9c0.8,0,1.3-0.1,1.7-0.4s0.5-0.7,0.5-1.2c0-0.5-0.2-0.9-0.5-1.2c-0.3-0.3-0.8-0.4-1.5-0.4h-1.1V184.4z"/>
			<path d="M731.9,187.6h-0.5v-3.3h-4v3.3H727v-6.8h0.5v3h4v-3h0.5V187.6z"/>
			<path d="M737.8,185.3H735l-0.9,2.4h-0.5l2.7-6.8h0.3l2.7,6.8h-0.5L737.8,185.3z M735.2,184.8h2.4l-0.9-2.4
				c-0.1-0.2-0.2-0.5-0.3-0.8c-0.1,0.3-0.2,0.6-0.3,0.8L735.2,184.8z"/>
			<path d="M744.7,185.9c0,0.6-0.2,1-0.6,1.3c-0.4,0.3-1,0.5-1.7,0.5c-0.8,0-1.5-0.1-1.9-0.3V187c0.5,0.2,1.1,0.3,1.9,0.3
				c0.6,0,1-0.1,1.3-0.4c0.3-0.3,0.5-0.6,0.5-1c0-0.3-0.1-0.5-0.2-0.6c-0.1-0.2-0.3-0.3-0.5-0.5s-0.6-0.3-1.1-0.4
				c-0.7-0.2-1.2-0.5-1.4-0.8c-0.3-0.3-0.4-0.6-0.4-1.1c0-0.5,0.2-0.9,0.6-1.2c0.4-0.3,0.9-0.5,1.5-0.5c0.6,0,1.2,0.1,1.8,0.4
				l-0.2,0.4c-0.6-0.2-1.1-0.4-1.6-0.4c-0.5,0-0.9,0.1-1.2,0.3c-0.3,0.2-0.4,0.5-0.4,0.9c0,0.2,0,0.5,0.1,0.6
				c0.1,0.2,0.2,0.3,0.4,0.4c0.2,0.1,0.6,0.3,1.1,0.5c0.5,0.2,0.9,0.4,1.2,0.5c0.3,0.2,0.5,0.4,0.6,0.6
				C744.6,185.3,744.7,185.6,744.7,185.9z"/>
			<path d="M746.8,187.6v-6.8h0.5v6.8H746.8z"/>
			<path d="M753.7,185.9c0,0.6-0.2,1-0.6,1.3c-0.4,0.3-1,0.5-1.7,0.5c-0.8,0-1.5-0.1-1.9-0.3V187c0.5,0.2,1.1,0.3,1.9,0.3
				c0.6,0,1-0.1,1.3-0.4c0.3-0.3,0.5-0.6,0.5-1c0-0.3-0.1-0.5-0.2-0.6c-0.1-0.2-0.3-0.3-0.5-0.5s-0.6-0.3-1.1-0.4
				c-0.7-0.2-1.2-0.5-1.4-0.8c-0.3-0.3-0.4-0.6-0.4-1.1c0-0.5,0.2-0.9,0.6-1.2c0.4-0.3,0.9-0.5,1.5-0.5c0.6,0,1.2,0.1,1.8,0.4
				l-0.2,0.4c-0.6-0.2-1.1-0.4-1.6-0.4c-0.5,0-0.9,0.1-1.2,0.3c-0.3,0.2-0.4,0.5-0.4,0.9c0,0.2,0,0.5,0.1,0.6
				c0.1,0.2,0.2,0.3,0.4,0.4c0.2,0.1,0.6,0.3,1.1,0.5c0.5,0.2,0.9,0.4,1.2,0.5c0.3,0.2,0.5,0.4,0.6,0.6
				C753.6,185.3,753.7,185.6,753.7,185.9z"/>
			<path d="M759.5,187.6h-3.7v-6.8h3.7v0.4h-3.2v2.6h3.1v0.4h-3.1v2.9h3.2V187.6z"/>
			<path d="M702,194.5c-0.8,0-1.5,0.3-2,0.8c-0.5,0.5-0.7,1.3-0.7,2.2c0,1,0.2,1.7,0.7,2.3c0.5,0.5,1.1,0.8,2,0.8
				c0.6,0,1.1-0.1,1.6-0.2v0.4c-0.4,0.2-1,0.2-1.7,0.2c-1,0-1.7-0.3-2.2-0.9s-0.8-1.5-0.8-2.6c0-0.7,0.1-1.3,0.4-1.8
				c0.3-0.5,0.6-0.9,1.1-1.2c0.5-0.3,1.1-0.4,1.7-0.4c0.7,0,1.3,0.1,1.8,0.4l-0.2,0.4C703,194.6,702.5,194.5,702,194.5z"/>
			<path d="M711.4,197.5c0,1.1-0.3,1.9-0.8,2.6c-0.5,0.6-1.3,0.9-2.2,0.9c-0.9,0-1.7-0.3-2.2-0.9c-0.5-0.6-0.8-1.5-0.8-2.6
				c0-1.1,0.3-1.9,0.8-2.5c0.5-0.6,1.3-0.9,2.2-0.9c0.9,0,1.7,0.3,2.2,0.9S711.4,196.5,711.4,197.5z M705.9,197.5
				c0,1,0.2,1.7,0.7,2.2c0.4,0.5,1.1,0.8,1.9,0.8c0.8,0,1.4-0.3,1.9-0.8s0.6-1.3,0.6-2.3c0-1-0.2-1.7-0.6-2.2
				c-0.4-0.5-1.1-0.8-1.9-0.8c-0.8,0-1.4,0.3-1.9,0.8S705.9,196.6,705.9,197.5z"/>
			<path d="M716.7,200.9l-2.5-6.3h0c0,0.4,0,0.8,0,1.2v5.1h-0.5v-6.8h0.7l2.4,6h0l2.4-6h0.7v6.8h-0.5v-5.1c0-0.4,0-0.7,0.1-1.1h0
				l-2.5,6.2H716.7z"/>
			<path d="M725.6,200.9l-2.5-6.3h0c0,0.4,0,0.8,0,1.2v5.1h-0.5v-6.8h0.7l2.4,6h0l2.4-6h0.7v6.8h-0.5v-5.1c0-0.4,0-0.7,0.1-1.1h0
				l-2.5,6.2H725.6z"/>
			<path d="M736.5,194.2v4.4c0,0.8-0.2,1.4-0.7,1.8s-1.1,0.7-1.9,0.7c-0.8,0-1.4-0.2-1.8-0.7c-0.4-0.4-0.7-1.1-0.7-1.8v-4.4h0.5v4.4
				c0,0.7,0.2,1.2,0.5,1.5c0.4,0.4,0.9,0.5,1.5,0.5c0.6,0,1.1-0.2,1.5-0.5c0.4-0.4,0.5-0.9,0.5-1.5v-4.4H736.5z"/>
			<path d="M743.9,200.9h-0.5l-4-6h0c0,0.7,0.1,1.3,0.1,1.6v4.4H739v-6.8h0.5l4,6h0c0-0.6,0-1.1,0-1.6v-4.4h0.5V200.9z"/>
			<path d="M746.6,200.9v-6.8h0.5v6.8H746.6z"/>
			<path d="M751.5,200.9H751v-6.3h-2.2v-0.4h4.9v0.4h-2.2V200.9z"/>
			<path d="M756.9,197.9l2-3.7h0.5l-2.3,4.2v2.6h-0.5v-2.6l-2.3-4.2h0.5L756.9,197.9z"/>
			<path d="M671.9,210.8c0-0.3,0.1-0.5,0.2-0.6s0.3-0.2,0.5-0.2c0.2,0,0.4,0.1,0.5,0.2c0.1,0.1,0.2,0.4,0.2,0.6
				c0,0.3-0.1,0.5-0.2,0.6c-0.1,0.1-0.3,0.2-0.5,0.2s-0.4-0.1-0.5-0.2C671.9,211.2,671.9,211,671.9,210.8z"/>
			<path d="M679.2,214.2v-6.8h0.5v6.8H679.2z"/>
			<path d="M685.3,214.2l-2.5-6.3h0c0,0.4,0,0.8,0,1.2v5.1h-0.5v-6.8h0.7l2.4,6h0l2.4-6h0.7v6.8h-0.5v-5.1c0-0.4,0-0.7,0.1-1.1h0
				l-2.5,6.2H685.3z"/>
			<path d="M695.3,209.4c0,0.7-0.2,1.2-0.7,1.5s-1.1,0.5-1.9,0.5h-1v2.8h-0.5v-6.8h1.7C694.5,207.5,695.3,208.1,695.3,209.4z
				 M691.7,211h0.9c0.8,0,1.3-0.1,1.7-0.4s0.5-0.7,0.5-1.2c0-0.5-0.2-0.9-0.5-1.2c-0.3-0.3-0.8-0.4-1.5-0.4h-1.1V211z"/>
			<path d="M698,211.3v3h-0.5v-6.8h1.6c0.8,0,1.5,0.2,1.9,0.5c0.4,0.3,0.6,0.8,0.6,1.4c0,0.5-0.1,0.8-0.4,1.2
				c-0.2,0.3-0.6,0.5-1.1,0.7l1.8,3.1h-0.6l-1.7-3H698z M698,210.9h1.3c0.6,0,1-0.1,1.3-0.4c0.3-0.3,0.5-0.6,0.5-1.1
				c0-0.5-0.2-0.9-0.5-1.1c-0.3-0.2-0.8-0.4-1.5-0.4H698V210.9z"/>
			<path d="M709.5,210.8c0,1.1-0.3,1.9-0.8,2.6c-0.5,0.6-1.3,0.9-2.2,0.9c-0.9,0-1.7-0.3-2.2-0.9c-0.5-0.6-0.8-1.5-0.8-2.6
				c0-1.1,0.3-1.9,0.8-2.5c0.5-0.6,1.3-0.9,2.2-0.9c0.9,0,1.7,0.3,2.2,0.9C709.3,208.9,709.5,209.8,709.5,210.8z M704,210.8
				c0,1,0.2,1.7,0.6,2.2c0.4,0.5,1.1,0.8,1.9,0.8c0.8,0,1.4-0.3,1.9-0.8c0.4-0.5,0.6-1.3,0.6-2.3c0-1-0.2-1.7-0.6-2.2
				c-0.4-0.5-1.1-0.8-1.9-0.8c-0.8,0-1.4,0.3-1.9,0.8S704,209.9,704,210.8z"/>
			<path d="M715.8,207.5h0.5l-2.5,6.8h-0.4l-2.5-6.8h0.5l1.7,4.6c0.3,0.7,0.4,1.2,0.5,1.6c0.1-0.2,0.2-0.6,0.4-1.1L715.8,207.5z"/>
			<path d="M721.7,214.2H718v-6.8h3.7v0.4h-3.2v2.6h3.1v0.4h-3.1v2.9h3.2V214.2z"/>
			<path d="M732,214.2h-0.5v-3.3h-4v3.3h-0.5v-6.8h0.5v3h4v-3h0.5V214.2z"/>
			<path d="M740.4,210.8c0,1.1-0.3,1.9-0.8,2.6c-0.5,0.6-1.3,0.9-2.2,0.9c-0.9,0-1.7-0.3-2.2-0.9c-0.5-0.6-0.8-1.5-0.8-2.6
				c0-1.1,0.3-1.9,0.8-2.5c0.5-0.6,1.3-0.9,2.2-0.9c0.9,0,1.7,0.3,2.2,0.9C740.1,208.9,740.4,209.8,740.4,210.8z M734.8,210.8
				c0,1,0.2,1.7,0.6,2.2c0.4,0.5,1.1,0.8,1.9,0.8c0.8,0,1.4-0.3,1.9-0.8c0.4-0.5,0.6-1.3,0.6-2.3c0-1-0.2-1.7-0.6-2.2
				c-0.4-0.5-1.1-0.8-1.9-0.8c-0.8,0-1.4,0.3-1.9,0.8S734.8,209.9,734.8,210.8z"/>
			<path d="M748,214.2h-0.4l-1.5-5.2c-0.1-0.4-0.2-0.8-0.3-1.1c0,0.3-0.1,0.6-0.2,0.9c-0.1,0.3-0.6,2.1-1.5,5.4h-0.4l-1.9-6.8h0.5
				l1.2,4.4c0,0.2,0.1,0.3,0.1,0.5s0.1,0.3,0.1,0.4c0,0.1,0.1,0.3,0.1,0.4c0,0.1,0.1,0.2,0.1,0.4c0.1-0.4,0.2-1.1,0.5-1.9l1.2-4.1
				h0.5l1.4,4.7c0.2,0.5,0.3,1,0.3,1.3c0-0.2,0.1-0.5,0.2-0.7c0.1-0.2,0.5-2,1.4-5.3h0.5L748,214.2z"/>
			<path d="M757.7,210.8h2.5v3.1c-0.7,0.3-1.4,0.4-2.2,0.4c-1.1,0-1.9-0.3-2.5-0.9c-0.6-0.6-0.9-1.5-0.9-2.6c0-0.7,0.1-1.3,0.4-1.8
				c0.3-0.5,0.7-0.9,1.2-1.2c0.5-0.3,1.1-0.4,1.8-0.4c0.7,0,1.4,0.1,2,0.4l-0.2,0.4c-0.6-0.3-1.2-0.4-1.8-0.4
				c-0.9,0-1.6,0.3-2.1,0.8c-0.5,0.6-0.8,1.3-0.8,2.2c0,1,0.2,1.8,0.7,2.3c0.5,0.5,1.2,0.8,2.2,0.8c0.6,0,1.2-0.1,1.6-0.3v-2.4h-2
				V210.8z"/>
			<path d="M768.3,210.8c0,1.1-0.3,1.9-0.8,2.6c-0.5,0.6-1.3,0.9-2.2,0.9c-0.9,0-1.7-0.3-2.2-0.9c-0.5-0.6-0.8-1.5-0.8-2.6
				c0-1.1,0.3-1.9,0.8-2.5c0.5-0.6,1.3-0.9,2.2-0.9c0.9,0,1.7,0.3,2.2,0.9C768,208.9,768.3,209.8,768.3,210.8z M762.7,210.8
				c0,1,0.2,1.7,0.6,2.2c0.4,0.5,1.1,0.8,1.9,0.8c0.8,0,1.4-0.3,1.9-0.8c0.4-0.5,0.6-1.3,0.6-2.3c0-1-0.2-1.7-0.6-2.2
				c-0.4-0.5-1.1-0.8-1.9-0.8c-0.8,0-1.4,0.3-1.9,0.8S762.7,209.9,762.7,210.8z"/>
			<path d="M773.8,211.8h-2.8l-0.9,2.4h-0.5l2.7-6.8h0.3l2.7,6.8h-0.5L773.8,211.8z M771.2,211.4h2.4l-0.9-2.4
				c-0.1-0.2-0.2-0.5-0.3-0.8c-0.1,0.3-0.2,0.6-0.3,0.8L771.2,211.4z"/>
			<path d="M777,214.2v-6.8h0.5v6.3h3.2v0.4H777z"/>
			<path d="M786.3,212.5c0,0.6-0.2,1-0.6,1.3c-0.4,0.3-1,0.5-1.7,0.5c-0.8,0-1.5-0.1-1.9-0.3v-0.5c0.5,0.2,1.1,0.3,1.9,0.3
				c0.6,0,1-0.1,1.3-0.4c0.3-0.3,0.5-0.6,0.5-1c0-0.3-0.1-0.5-0.2-0.6s-0.3-0.3-0.5-0.5c-0.2-0.1-0.6-0.3-1.1-0.5
				c-0.7-0.2-1.2-0.5-1.4-0.8c-0.3-0.3-0.4-0.6-0.4-1.1c0-0.5,0.2-0.9,0.6-1.2s0.9-0.5,1.5-0.5c0.6,0,1.2,0.1,1.8,0.4l-0.2,0.4
				c-0.6-0.2-1.1-0.4-1.6-0.4c-0.5,0-0.9,0.1-1.2,0.3s-0.4,0.5-0.4,0.9c0,0.2,0,0.5,0.1,0.6s0.2,0.3,0.4,0.4s0.6,0.3,1.1,0.5
				c0.5,0.2,0.9,0.4,1.2,0.5s0.5,0.4,0.6,0.6C786.2,211.9,786.3,212.2,786.3,212.5z"/>
			<path d="M693.9,225.1h-2.8l-0.9,2.4h-0.5l2.7-6.8h0.3l2.7,6.8h-0.5L693.9,225.1z M691.3,224.7h2.4l-0.9-2.4
				c-0.1-0.2-0.2-0.5-0.3-0.8c-0.1,0.3-0.2,0.6-0.3,0.8L691.3,224.7z"/>
			<path d="M697.5,224.6v3H697v-6.8h1.6c0.8,0,1.5,0.2,1.9,0.5s0.6,0.8,0.6,1.4c0,0.5-0.1,0.8-0.4,1.2c-0.2,0.3-0.6,0.5-1.1,0.7
				l1.8,3.1h-0.6l-1.7-3H697.5z M697.5,224.2h1.3c0.6,0,1-0.1,1.3-0.4c0.3-0.3,0.5-0.6,0.5-1.1c0-0.5-0.2-0.9-0.5-1.1
				c-0.3-0.2-0.8-0.4-1.5-0.4h-1.1V224.2z"/>
			<path d="M707.1,227.5h-3.7v-6.8h3.7v0.4h-3.2v2.6h3.1v0.4h-3.1v2.9h3.2V227.5z"/>
			<path d="M716.6,222.7c0,0.7-0.2,1.2-0.7,1.5s-1.1,0.5-1.9,0.5h-1v2.8h-0.5v-6.8h1.7C715.8,220.8,716.6,221.4,716.6,222.7z
				 M713,224.3h0.9c0.8,0,1.3-0.1,1.7-0.4s0.5-0.7,0.5-1.2c0-0.5-0.2-0.9-0.5-1.2c-0.3-0.3-0.8-0.4-1.5-0.4H713V224.3z"/>
			<path d="M719.3,224.6v3h-0.5v-6.8h1.6c0.8,0,1.5,0.2,1.9,0.5s0.6,0.8,0.6,1.4c0,0.5-0.1,0.8-0.4,1.2c-0.2,0.3-0.6,0.5-1.1,0.7
				l1.8,3.1h-0.6l-1.7-3H719.3z M719.3,224.2h1.3c0.6,0,1-0.1,1.3-0.4c0.3-0.3,0.5-0.6,0.5-1.1c0-0.5-0.2-0.9-0.5-1.1
				c-0.3-0.2-0.8-0.4-1.5-0.4h-1.1V224.2z"/>
			<path d="M728.9,227.5h-3.7v-6.8h3.7v0.4h-3.2v2.6h3.1v0.4h-3.1v2.9h3.2V227.5z"/>
			<path d="M734.8,225.8c0,0.6-0.2,1-0.6,1.3c-0.4,0.3-1,0.5-1.7,0.5c-0.8,0-1.5-0.1-1.9-0.3v-0.5c0.5,0.2,1.1,0.3,1.9,0.3
				c0.6,0,1-0.1,1.3-0.4c0.3-0.3,0.5-0.6,0.5-1c0-0.3-0.1-0.5-0.2-0.6c-0.1-0.2-0.3-0.3-0.5-0.5s-0.6-0.3-1.1-0.4
				c-0.7-0.2-1.2-0.5-1.4-0.8c-0.3-0.3-0.4-0.6-0.4-1.1c0-0.5,0.2-0.9,0.6-1.2c0.4-0.3,0.9-0.5,1.5-0.5c0.6,0,1.2,0.1,1.8,0.4
				l-0.2,0.4c-0.6-0.2-1.1-0.4-1.6-0.4c-0.5,0-0.9,0.1-1.2,0.3c-0.3,0.2-0.4,0.5-0.4,0.9c0,0.2,0,0.5,0.1,0.6
				c0.1,0.2,0.2,0.3,0.4,0.4c0.2,0.1,0.6,0.3,1.1,0.5c0.5,0.2,0.9,0.4,1.2,0.5c0.3,0.2,0.5,0.4,0.6,0.6
				C734.8,225.2,734.8,225.5,734.8,225.8z"/>
			<path d="M740.7,227.5H737v-6.8h3.7v0.4h-3.2v2.6h3.1v0.4h-3.1v2.9h3.2V227.5z"/>
			<path d="M747.9,227.5h-0.5l-4-6h0c0,0.7,0.1,1.3,0.1,1.6v4.4h-0.5v-6.8h0.5l4,6h0c0-0.6,0-1.1,0-1.6v-4.4h0.5V227.5z"/>
			<path d="M752.3,227.5h-0.5v-6.3h-2.2v-0.4h4.9v0.4h-2.2V227.5z"/>
			<path d="M759.9,227.5h-3.7v-6.8h3.7v0.4h-3.2v2.6h3.1v0.4h-3.1v2.9h3.2V227.5z"/>
			<path d="M767.3,224.1c0,1.1-0.3,2-0.9,2.6c-0.6,0.6-1.5,0.9-2.6,0.9h-1.6v-6.8h1.8c1.1,0,1.9,0.3,2.5,0.8
				C767,222.2,767.3,223,767.3,224.1z M766.8,224.1c0-1-0.2-1.7-0.7-2.2c-0.5-0.5-1.2-0.7-2.2-0.7h-1.2v5.9h1.1
				C765.8,227.1,766.8,226.1,766.8,224.1z"/>
		</g>
	</g>
	<g>
		<rect x="21.2" y="166.9" fill="#CE7065" width="107" height="1.5"/>
		<g>
			<circle fill="#CE7065" cx="74.6" cy="101.3" r="51"/>
			<g>
				<path fill="#FFFFFF" d="M45.7,97.8c-0.9,0-1.6,0.3-2.1,1c-0.5,0.6-0.8,1.5-0.8,2.6c0,1.2,0.2,2.1,0.7,2.7
					c0.5,0.6,1.2,0.9,2.1,0.9c0.4,0,0.8,0,1.2-0.1c0.4-0.1,0.8-0.2,1.2-0.3v1.3c-0.7,0.3-1.6,0.4-2.5,0.4c-1.4,0-2.5-0.4-3.2-1.3
					c-0.7-0.8-1.1-2.1-1.1-3.6c0-1,0.2-1.9,0.5-2.6c0.4-0.7,0.9-1.3,1.6-1.7c0.7-0.4,1.5-0.6,2.4-0.6c1,0,1.9,0.2,2.7,0.6l-0.6,1.3
					c-0.3-0.2-0.7-0.3-1-0.4C46.4,97.8,46.1,97.8,45.7,97.8z"/>
				<path fill="#FFFFFF" d="M59.6,101.3c0,1.6-0.4,2.8-1.2,3.6s-1.9,1.3-3.3,1.3c-1.4,0-2.5-0.4-3.3-1.3c-0.8-0.9-1.2-2.1-1.2-3.6
					c0-1.6,0.4-2.8,1.2-3.6c0.8-0.8,1.9-1.3,3.3-1.3c1.4,0,2.5,0.4,3.3,1.3C59.2,98.6,59.6,99.8,59.6,101.3z M52.3,101.3
					c0,1.2,0.2,2.1,0.7,2.7s1.2,0.9,2.1,0.9c0.9,0,1.6-0.3,2.1-0.9c0.5-0.6,0.7-1.5,0.7-2.7c0-1.2-0.2-2.1-0.7-2.7
					c-0.5-0.6-1.2-0.9-2.1-0.9c-0.9,0-1.6,0.3-2.1,0.9C52.5,99.3,52.3,100.2,52.3,101.3z"/>
				<path fill="#FFFFFF" d="M70.6,106.1h-1.9L64,98.5h-0.1l0,0.4c0.1,0.8,0.1,1.6,0.1,2.2v5h-1.4v-9.6h1.9l4.7,7.6h0
					c0-0.1,0-0.5-0.1-1.1c0-0.6,0-1.1,0-1.5v-5h1.4V106.1z"/>
				<path fill="#FFFFFF" d="M77.4,106.1h-1.6v-8.2H73v-1.3h7.2v1.3h-2.8V106.1z"/>
				<path fill="#FFFFFF" d="M88.1,106.1h-5.4v-9.6h5.4v1.3h-3.8v2.6h3.6v1.3h-3.6v3h3.8V106.1z"/>
				<path fill="#FFFFFF" d="M99.1,106.1h-1.9l-4.7-7.6h-0.1l0,0.4c0.1,0.8,0.1,1.6,0.1,2.2v5h-1.4v-9.6H93l4.7,7.6h0
					c0-0.1,0-0.5-0.1-1.1c0-0.6,0-1.1,0-1.5v-5h1.4V106.1z"/>
				<path fill="#FFFFFF" d="M105.9,106.1h-1.6v-8.2h-2.8v-1.3h7.2v1.3h-2.8V106.1z"/>
			</g>
		</g>
		<g>
			<path d="M0,184.8c0-0.3,0.1-0.5,0.2-0.6s0.3-0.2,0.5-0.2s0.4,0.1,0.5,0.2c0.1,0.1,0.2,0.4,0.2,0.6c0,0.3-0.1,0.5-0.2,0.6
				c-0.1,0.1-0.3,0.2-0.5,0.2s-0.4-0.1-0.5-0.2C0.1,185.2,0,185,0,184.8z"/>
			<path d="M10.6,185.8H7.9l-0.9,2.4H6.4l2.7-6.8h0.3l2.7,6.8h-0.5L10.6,185.8z M8,185.4h2.4L9.5,183c-0.1-0.2-0.2-0.5-0.3-0.8
				c-0.1,0.3-0.2,0.6-0.3,0.8L8,185.4z"/>
			<path d="M18.9,184.8c0,1.1-0.3,2-0.9,2.6c-0.6,0.6-1.5,0.9-2.6,0.9h-1.6v-6.8h1.8c1.1,0,1.9,0.3,2.5,0.8
				C18.6,182.9,18.9,183.7,18.9,184.8z M18.4,184.8c0-1-0.2-1.7-0.7-2.2c-0.5-0.5-1.2-0.7-2.2-0.7h-1.2v5.9h1.1
				C17.4,187.8,18.4,186.8,18.4,184.8z"/>
			<path d="M26.3,184.8c0,1.1-0.3,2-0.9,2.6c-0.6,0.6-1.5,0.9-2.6,0.9h-1.6v-6.8H23c1.1,0,1.9,0.3,2.5,0.8
				C26,182.9,26.3,183.7,26.3,184.8z M25.8,184.8c0-1-0.2-1.7-0.7-2.2c-0.5-0.5-1.2-0.7-2.2-0.7h-1.2v5.9h1.1
				C24.8,187.8,25.8,186.8,25.8,184.8z"/>
			<path d="M32.3,188.2h-3.7v-6.8h3.7v0.4h-3.2v2.6h3.1v0.4h-3.1v2.9h3.2V188.2z"/>
			<path d="M39.7,184.8c0,1.1-0.3,2-0.9,2.6c-0.6,0.6-1.5,0.9-2.6,0.9h-1.6v-6.8h1.8c1.1,0,1.9,0.3,2.5,0.8
				C39.4,182.9,39.7,183.7,39.7,184.8z M39.2,184.8c0-1-0.2-1.7-0.7-2.2c-0.5-0.5-1.2-0.7-2.2-0.7H35v5.9h1.1
				C38.2,187.8,39.2,186.8,39.2,184.8z"/>
			<path d="M48.1,188.2l-2.5-6.3h0c0,0.4,0,0.8,0,1.2v5.1h-0.5v-6.8h0.7l2.4,6h0l2.4-6h0.7v6.8h-0.5v-5.1c0-0.4,0-0.7,0.1-1.1h0
				l-2.5,6.2H48.1z"/>
			<path d="M57.7,188.2H54v-6.8h3.7v0.4h-3.2v2.6h3.1v0.4h-3.1v2.9h3.2V188.2z"/>
			<path d="M64.9,188.2h-0.5l-4-6h0c0,0.7,0.1,1.3,0.1,1.6v4.4H60v-6.8h0.5l4,6h0c0-0.6,0-1.1,0-1.6v-4.4h0.5V188.2z"/>
			<path d="M69.3,188.2h-0.5v-6.3h-2.2v-0.4h4.9v0.4h-2.2V188.2z"/>
			<path d="M78.9,184.8c0,1.1-0.3,1.9-0.8,2.6c-0.5,0.6-1.3,0.9-2.2,0.9c-0.9,0-1.7-0.3-2.2-0.9c-0.5-0.6-0.8-1.5-0.8-2.6
				c0-1.1,0.3-1.9,0.8-2.5c0.5-0.6,1.3-0.9,2.2-0.9c0.9,0,1.7,0.3,2.2,0.9C78.7,182.9,78.9,183.8,78.9,184.8z M73.4,184.8
				c0,1,0.2,1.7,0.6,2.3c0.4,0.5,1.1,0.8,1.9,0.8c0.8,0,1.4-0.3,1.9-0.8c0.4-0.5,0.6-1.3,0.6-2.3c0-1-0.2-1.7-0.6-2.2
				c-0.4-0.5-1.1-0.8-1.9-0.8c-0.8,0-1.4,0.3-1.9,0.8S73.4,183.9,73.4,184.8z"/>
			<path d="M81.7,185.3v3h-0.5v-6.8h1.6c0.8,0,1.5,0.2,1.9,0.5c0.4,0.3,0.6,0.8,0.6,1.4c0,0.5-0.1,0.8-0.4,1.2
				c-0.2,0.3-0.6,0.5-1.1,0.7l1.8,3.1h-0.6l-1.7-3H81.7z M81.7,184.9H83c0.6,0,1-0.1,1.3-0.4c0.3-0.3,0.5-0.6,0.5-1.1
				c0-0.5-0.2-0.9-0.5-1.1c-0.3-0.2-0.8-0.4-1.5-0.4h-1.1V184.9z"/>
			<path d="M91.3,186.5c0,0.6-0.2,1-0.6,1.3c-0.4,0.3-1,0.5-1.7,0.5c-0.8,0-1.5-0.1-1.9-0.3v-0.5c0.5,0.2,1.1,0.3,1.9,0.3
				c0.6,0,1-0.1,1.3-0.4c0.3-0.3,0.5-0.6,0.5-1c0-0.3-0.1-0.5-0.2-0.6c-0.1-0.2-0.3-0.3-0.5-0.5s-0.6-0.3-1.1-0.4
				c-0.7-0.2-1.2-0.5-1.4-0.8c-0.3-0.3-0.4-0.6-0.4-1.1c0-0.5,0.2-0.9,0.6-1.2c0.4-0.3,0.9-0.5,1.5-0.5c0.6,0,1.2,0.1,1.8,0.4
				l-0.2,0.4c-0.6-0.2-1.1-0.4-1.6-0.4c-0.5,0-0.9,0.1-1.2,0.3c-0.3,0.2-0.4,0.5-0.4,0.9c0,0.2,0,0.5,0.1,0.6
				c0.1,0.2,0.2,0.3,0.4,0.4c0.2,0.1,0.6,0.3,1.1,0.5c0.5,0.2,0.9,0.4,1.2,0.5c0.3,0.2,0.5,0.4,0.6,0.6
				C91.2,185.9,91.3,186.2,91.3,186.5z"/>
			<path d="M98.4,188.2h-0.5v-3.3h-4v3.3h-0.5v-6.8h0.5v3h4v-3h0.5V188.2z"/>
			<path d="M101,188.2v-6.8h0.5v6.8H101z"/>
			<path d="M108.2,183.4c0,0.7-0.2,1.2-0.7,1.5s-1.1,0.5-1.9,0.5h-1v2.8h-0.5v-6.8h1.7C107.4,181.5,108.2,182.1,108.2,183.4z
				 M104.6,185h0.9c0.8,0,1.3-0.1,1.7-0.4s0.5-0.7,0.5-1.2c0-0.5-0.2-0.9-0.5-1.2s-0.8-0.4-1.5-0.4h-1.1V185z"/>
			<path d="M117.6,183.4c0,0.7-0.2,1.2-0.7,1.5s-1.1,0.5-1.9,0.5h-1v2.8h-0.5v-6.8h1.7C116.8,181.5,117.6,182.1,117.6,183.4z
				 M114,185h0.9c0.8,0,1.3-0.1,1.7-0.4s0.5-0.7,0.5-1.2c0-0.5-0.2-0.9-0.5-1.2s-0.8-0.4-1.5-0.4H114V185z"/>
			<path d="M120.3,185.3v3h-0.5v-6.8h1.6c0.8,0,1.5,0.2,1.9,0.5c0.4,0.3,0.6,0.8,0.6,1.4c0,0.5-0.1,0.8-0.4,1.2
				c-0.2,0.3-0.6,0.5-1.1,0.7l1.8,3.1h-0.6l-1.7-3H120.3z M120.3,184.9h1.3c0.6,0,1-0.1,1.3-0.4c0.3-0.3,0.5-0.6,0.5-1.1
				c0-0.5-0.2-0.9-0.5-1.1c-0.3-0.2-0.8-0.4-1.5-0.4h-1.1V184.9z"/>
			<path d="M131.9,184.8c0,1.1-0.3,1.9-0.8,2.6c-0.5,0.6-1.3,0.9-2.2,0.9c-0.9,0-1.7-0.3-2.2-0.9c-0.5-0.6-0.8-1.5-0.8-2.6
				c0-1.1,0.3-1.9,0.8-2.5c0.5-0.6,1.3-0.9,2.2-0.9c0.9,0,1.7,0.3,2.2,0.9C131.6,182.9,131.9,183.8,131.9,184.8z M126.3,184.8
				c0,1,0.2,1.7,0.6,2.3c0.4,0.5,1.1,0.8,1.9,0.8c0.8,0,1.4-0.3,1.9-0.8c0.4-0.5,0.6-1.3,0.6-2.3c0-1-0.2-1.7-0.6-2.2
				c-0.4-0.5-1.1-0.8-1.9-0.8c-0.8,0-1.4,0.3-1.9,0.8S126.3,183.9,126.3,184.8z"/>
			<path d="M136.8,184.8h2.5v3.1c-0.7,0.3-1.4,0.4-2.2,0.4c-1.1,0-1.9-0.3-2.5-0.9c-0.6-0.6-0.9-1.5-0.9-2.6c0-0.7,0.1-1.3,0.4-1.8
				c0.3-0.5,0.7-0.9,1.2-1.2c0.5-0.3,1.1-0.4,1.8-0.4c0.7,0,1.4,0.1,2,0.4l-0.2,0.4c-0.6-0.3-1.2-0.4-1.8-0.4
				c-0.9,0-1.6,0.3-2.1,0.8c-0.5,0.6-0.8,1.3-0.8,2.2c0,1,0.2,1.8,0.7,2.3c0.5,0.5,1.2,0.8,2.2,0.8c0.6,0,1.2-0.1,1.6-0.3v-2.4h-2
				V184.8z"/>
			<path d="M142.2,185.3v3h-0.5v-6.8h1.6c0.8,0,1.5,0.2,1.9,0.5c0.4,0.3,0.6,0.8,0.6,1.4c0,0.5-0.1,0.8-0.4,1.2
				c-0.2,0.3-0.6,0.5-1.1,0.7l1.8,3.1h-0.6l-1.7-3H142.2z M142.2,184.9h1.3c0.6,0,1-0.1,1.3-0.4c0.3-0.3,0.5-0.6,0.5-1.1
				c0-0.5-0.2-0.9-0.5-1.1c-0.3-0.2-0.8-0.4-1.5-0.4h-1.1V184.9z"/>
			<path d="M151.3,185.8h-2.8l-0.9,2.4h-0.5l2.7-6.8h0.3l2.7,6.8h-0.5L151.3,185.8z M148.7,185.4h2.4l-0.9-2.4
				c-0.1-0.2-0.2-0.5-0.3-0.8c-0.1,0.3-0.2,0.6-0.3,0.8L148.7,185.4z"/>
			<path d="M157.5,188.2l-2.5-6.3h0c0,0.4,0,0.8,0,1.2v5.1h-0.5v-6.8h0.7l2.4,6h0l2.4-6h0.7v6.8h-0.5v-5.1c0-0.4,0-0.7,0.1-1.1h0
				l-2.5,6.2H157.5z"/>
			<path d="M17.5,198.1c0-0.3,0.1-0.5,0.2-0.6s0.3-0.2,0.5-0.2s0.4,0.1,0.5,0.2c0.1,0.1,0.2,0.4,0.2,0.6c0,0.3-0.1,0.5-0.2,0.6
				c-0.1,0.1-0.3,0.2-0.5,0.2s-0.4-0.1-0.5-0.2C17.5,198.5,17.5,198.3,17.5,198.1z"/>
			<path d="M28.5,201.5h-3.7v-6.8h3.7v0.4h-3.2v2.6h3.1v0.4h-3.1v2.9h3.2V201.5z"/>
			<path d="M33.8,201.5l-2.5-6.3h0c0,0.4,0,0.8,0,1.2v5.1h-0.5v-6.8h0.7l2.4,6h0l2.4-6h0.7v6.8h-0.5v-5.1c0-0.4,0-0.7,0.1-1.1h0
				l-2.5,6.2H33.8z"/>
			<path d="M43.8,196.7c0,0.7-0.2,1.2-0.7,1.5c-0.4,0.3-1.1,0.5-1.9,0.5h-1v2.8h-0.5v-6.8h1.7C43,194.8,43.8,195.4,43.8,196.7z
				 M40.2,198.3h0.9c0.8,0,1.3-0.1,1.7-0.4c0.3-0.3,0.5-0.7,0.5-1.2c0-0.5-0.2-0.9-0.5-1.2c-0.3-0.3-0.8-0.4-1.5-0.4h-1.1V198.3z"/>
			<path d="M50.9,201.5h-0.5v-3.3h-4v3.3h-0.5v-6.8h0.5v3h4v-3h0.5V201.5z"/>
			<path d="M56.8,199.1H54l-0.9,2.4h-0.5l2.7-6.8h0.3l2.7,6.8h-0.5L56.8,199.1z M54.2,198.7h2.4l-0.9-2.4c-0.1-0.2-0.2-0.5-0.3-0.8
				c-0.1,0.3-0.2,0.6-0.3,0.8L54.2,198.7z"/>
			<path d="M63.6,199.8c0,0.6-0.2,1-0.6,1.3c-0.4,0.3-1,0.5-1.7,0.5c-0.8,0-1.5-0.1-1.9-0.3v-0.5c0.5,0.2,1.1,0.3,1.9,0.3
				c0.6,0,1-0.1,1.3-0.4c0.3-0.3,0.5-0.6,0.5-1c0-0.3-0.1-0.5-0.2-0.6c-0.1-0.2-0.3-0.3-0.5-0.5c-0.2-0.1-0.6-0.3-1.1-0.5
				c-0.7-0.2-1.2-0.5-1.4-0.8c-0.3-0.3-0.4-0.6-0.4-1.1c0-0.5,0.2-0.9,0.6-1.2c0.4-0.3,0.9-0.5,1.5-0.5c0.6,0,1.2,0.1,1.8,0.4
				l-0.2,0.4c-0.6-0.2-1.1-0.4-1.6-0.4c-0.5,0-0.9,0.1-1.2,0.3S60,196,60,196.4c0,0.2,0,0.5,0.1,0.6c0.1,0.2,0.2,0.3,0.4,0.4
				s0.6,0.3,1.1,0.5c0.5,0.2,0.9,0.4,1.2,0.5s0.5,0.4,0.6,0.6S63.6,199.5,63.6,199.8z"/>
			<path d="M65.8,201.5v-6.8h0.5v6.8H65.8z"/>
			<path d="M72.6,199.8c0,0.6-0.2,1-0.6,1.3c-0.4,0.3-1,0.5-1.7,0.5c-0.8,0-1.5-0.1-1.9-0.3v-0.5c0.5,0.2,1.1,0.3,1.9,0.3
				c0.6,0,1-0.1,1.3-0.4c0.3-0.3,0.5-0.6,0.5-1c0-0.3-0.1-0.5-0.2-0.6c-0.1-0.2-0.3-0.3-0.5-0.5c-0.2-0.1-0.6-0.3-1.1-0.5
				c-0.7-0.2-1.2-0.5-1.4-0.8c-0.3-0.3-0.4-0.6-0.4-1.1c0-0.5,0.2-0.9,0.6-1.2c0.4-0.3,0.9-0.5,1.5-0.5c0.6,0,1.2,0.1,1.8,0.4
				l-0.2,0.4c-0.6-0.2-1.1-0.4-1.6-0.4c-0.5,0-0.9,0.1-1.2,0.3S69,196,69,196.4c0,0.2,0,0.5,0.1,0.6c0.1,0.2,0.2,0.3,0.4,0.4
				s0.6,0.3,1.1,0.5c0.5,0.2,0.9,0.4,1.2,0.5s0.5,0.4,0.6,0.6S72.6,199.5,72.6,199.8z"/>
			<path d="M78.5,201.5h-3.7v-6.8h3.7v0.4h-3.2v2.6h3.1v0.4h-3.1v2.9h3.2V201.5z"/>
			<path d="M86.8,195.1c-0.8,0-1.5,0.3-2,0.8c-0.5,0.5-0.7,1.3-0.7,2.2c0,1,0.2,1.7,0.7,2.3c0.5,0.5,1.1,0.8,2,0.8
				c0.6,0,1.1-0.1,1.6-0.2v0.4c-0.4,0.2-1,0.2-1.7,0.2c-1,0-1.7-0.3-2.2-0.9s-0.8-1.5-0.8-2.6c0-0.7,0.1-1.3,0.4-1.8
				c0.3-0.5,0.6-0.9,1.1-1.2c0.5-0.3,1.1-0.4,1.7-0.4c0.7,0,1.3,0.1,1.8,0.4l-0.2,0.4C87.9,195.2,87.3,195.1,86.8,195.1z"/>
			<path d="M96.2,198.1c0,1.1-0.3,1.9-0.8,2.6c-0.5,0.6-1.3,0.9-2.2,0.9c-0.9,0-1.7-0.3-2.2-0.9c-0.5-0.6-0.8-1.5-0.8-2.6
				c0-1.1,0.3-1.9,0.8-2.5c0.5-0.6,1.3-0.9,2.2-0.9c0.9,0,1.7,0.3,2.2,0.9C95.9,196.2,96.2,197.1,96.2,198.1z M90.7,198.1
				c0,1,0.2,1.7,0.6,2.2c0.4,0.5,1.1,0.8,1.9,0.8c0.8,0,1.4-0.3,1.9-0.8c0.4-0.5,0.6-1.3,0.6-2.3c0-1-0.2-1.7-0.6-2.2
				c-0.4-0.5-1.1-0.8-1.9-0.8c-0.8,0-1.4,0.3-1.9,0.8S90.7,197.2,90.7,198.1z"/>
			<path d="M101.5,201.5l-2.5-6.3h0c0,0.4,0,0.8,0,1.2v5.1h-0.5v-6.8h0.7l2.4,6h0l2.4-6h0.7v6.8h-0.5v-5.1c0-0.4,0-0.7,0.1-1.1h0
				l-2.5,6.2H101.5z"/>
			<path d="M110.4,201.5l-2.5-6.3h0c0,0.4,0,0.8,0,1.2v5.1h-0.5v-6.8h0.7l2.4,6h0l2.4-6h0.7v6.8h-0.5v-5.1c0-0.4,0-0.7,0.1-1.1h0
				l-2.5,6.2H110.4z"/>
			<path d="M121.3,194.8v4.4c0,0.8-0.2,1.4-0.7,1.8s-1.1,0.7-1.9,0.7c-0.8,0-1.4-0.2-1.8-0.7c-0.4-0.4-0.7-1.1-0.7-1.8v-4.4h0.5v4.4
				c0,0.7,0.2,1.2,0.5,1.5c0.4,0.4,0.9,0.5,1.5,0.5c0.6,0,1.1-0.2,1.5-0.5c0.4-0.4,0.5-0.9,0.5-1.5v-4.4H121.3z"/>
			<path d="M128.8,201.5h-0.5l-4-6h0c0,0.7,0.1,1.3,0.1,1.6v4.4h-0.5v-6.8h0.5l4,6h0c0-0.6,0-1.1,0-1.6v-4.4h0.5V201.5z"/>
			<path d="M131.4,201.5v-6.8h0.5v6.8H131.4z"/>
			<path d="M136.3,201.5h-0.5v-6.3h-2.2v-0.4h4.9v0.4h-2.2V201.5z"/>
			<path d="M141.7,198.5l2-3.7h0.5l-2.3,4.2v2.6h-0.5V199l-2.3-4.2h0.5L141.7,198.5z"/>
			<path d="M29.8,211.4c0-0.3,0.1-0.5,0.2-0.6s0.3-0.2,0.5-0.2s0.4,0.1,0.5,0.2c0.1,0.1,0.2,0.4,0.2,0.6c0,0.3-0.1,0.5-0.2,0.6
				c-0.1,0.1-0.3,0.2-0.5,0.2s-0.4-0.1-0.5-0.2C29.8,211.8,29.8,211.6,29.8,211.4z"/>
			<path d="M40,208.4c-0.9,0-1.5,0.3-2,0.8c-0.5,0.5-0.7,1.3-0.7,2.2c0,1,0.2,1.7,0.7,2.3c0.5,0.5,1.1,0.8,2,0.8
				c0.6,0,1.1-0.1,1.6-0.2v0.4c-0.4,0.2-1,0.2-1.7,0.2c-1,0-1.7-0.3-2.2-0.9c-0.5-0.6-0.8-1.5-0.8-2.6c0-0.7,0.1-1.3,0.4-1.8
				s0.6-0.9,1.1-1.2c0.5-0.3,1.1-0.4,1.7-0.4c0.7,0,1.3,0.1,1.8,0.4l-0.2,0.4C41.1,208.5,40.6,208.4,40,208.4z"/>
			<path d="M43.7,214.8V208h0.5v6.3h3.2v0.4H43.7z"/>
			<path d="M52.6,212.4h-2.8l-0.9,2.4h-0.5l2.7-6.8h0.3l2.7,6.8h-0.5L52.6,212.4z M50,212h2.4l-0.9-2.4c-0.1-0.2-0.2-0.5-0.3-0.8
				c-0.1,0.3-0.2,0.6-0.3,0.8L50,212z"/>
			<path d="M56.2,211.9v3h-0.5V208h1.6c0.8,0,1.5,0.2,1.9,0.5s0.6,0.8,0.6,1.4c0,0.5-0.1,0.8-0.4,1.2c-0.2,0.3-0.6,0.5-1.1,0.7
				l1.8,3.1h-0.6l-1.7-3H56.2z M56.2,211.5h1.3c0.6,0,1-0.1,1.3-0.4c0.3-0.3,0.5-0.6,0.5-1.1c0-0.5-0.2-0.9-0.5-1.1
				s-0.8-0.4-1.5-0.4h-1.1V211.5z"/>
			<path d="M62.1,214.8V208h0.5v6.8H62.1z"/>
			<path d="M65.7,214.8h-0.5V208h3.7v0.4h-3.2v2.9h3.1v0.4h-3.1V214.8z"/>
			<path d="M72.2,211.8l2-3.7h0.5l-2.3,4.2v2.6H72v-2.6l-2.3-4.2h0.5L72.2,211.8z"/>
			<path d="M81.3,214.8h-0.5v-6.3h-2.2V208h4.9v0.4h-2.2V214.8z"/>
			<path d="M90.2,214.8h-0.5v-3.3h-4v3.3h-0.5V208h0.5v3h4v-3h0.5V214.8z"/>
			<path d="M96.5,214.8h-3.7V208h3.7v0.4h-3.2v2.6h3.1v0.4h-3.1v2.9h3.2V214.8z"/>
			<path d="M105.9,208h0.5l-2.5,6.8h-0.4L101,208h0.5l1.7,4.6c0.3,0.7,0.4,1.2,0.5,1.6c0.1-0.2,0.2-0.6,0.4-1.1L105.9,208z"/>
			<path d="M111.4,212.4h-2.8l-0.9,2.4h-0.5l2.7-6.8h0.3l2.7,6.8h-0.5L111.4,212.4z M108.8,212h2.4l-0.9-2.4
				c-0.1-0.2-0.2-0.5-0.3-0.8c-0.1,0.3-0.2,0.6-0.3,0.8L108.8,212z"/>
			<path d="M114.5,214.8V208h0.5v6.3h3.2v0.4H114.5z"/>
			<path d="M125.1,208v4.4c0,0.8-0.2,1.4-0.7,1.8s-1.1,0.7-1.9,0.7c-0.8,0-1.4-0.2-1.8-0.7c-0.4-0.4-0.7-1.1-0.7-1.8V208h0.5v4.4
				c0,0.7,0.2,1.2,0.5,1.5c0.4,0.4,0.9,0.5,1.5,0.5c0.6,0,1.1-0.2,1.5-0.5c0.4-0.4,0.5-0.9,0.5-1.5V208H125.1z"/>
			<path d="M131.4,214.8h-3.7V208h3.7v0.4h-3.2v2.6h3.1v0.4h-3.1v2.9h3.2V214.8z"/>
			<path d="M53.2,223.3c0,0.7-0.2,1.2-0.7,1.5c-0.4,0.3-1.1,0.5-1.9,0.5h-1v2.8h-0.5v-6.8h1.7C52.4,221.3,53.2,222,53.2,223.3z
				 M49.6,224.9h0.9c0.8,0,1.3-0.1,1.7-0.4c0.3-0.3,0.5-0.7,0.5-1.2c0-0.5-0.2-0.9-0.5-1.2c-0.3-0.3-0.8-0.4-1.5-0.4h-1.1V224.9z"/>
			<path d="M55.9,225.2v3h-0.5v-6.8H57c0.8,0,1.5,0.2,1.9,0.5c0.4,0.3,0.6,0.8,0.6,1.4c0,0.5-0.1,0.8-0.4,1.2
				c-0.2,0.3-0.6,0.5-1.1,0.7l1.8,3.1h-0.6l-1.7-3H55.9z M55.9,224.8h1.3c0.6,0,1-0.1,1.3-0.4c0.3-0.3,0.5-0.6,0.5-1.1
				c0-0.5-0.2-0.9-0.5-1.1c-0.3-0.2-0.8-0.4-1.5-0.4h-1.1V224.8z"/>
			<path d="M67.5,224.7c0,1.1-0.3,1.9-0.8,2.6c-0.5,0.6-1.3,0.9-2.2,0.9c-0.9,0-1.7-0.3-2.2-0.9c-0.5-0.6-0.8-1.5-0.8-2.6
				c0-1.1,0.3-1.9,0.8-2.5c0.5-0.6,1.3-0.9,2.2-0.9c0.9,0,1.7,0.3,2.2,0.9C67.2,222.8,67.5,223.6,67.5,224.7z M61.9,224.7
				c0,1,0.2,1.7,0.6,2.3c0.4,0.5,1.1,0.8,1.9,0.8c0.8,0,1.4-0.3,1.9-0.8c0.4-0.5,0.6-1.3,0.6-2.3c0-1-0.2-1.7-0.6-2.2
				c-0.4-0.5-1.1-0.8-1.9-0.8c-0.8,0-1.4,0.3-1.9,0.8S61.9,223.8,61.9,224.7z"/>
			<path d="M73.8,223.3c0,0.7-0.2,1.2-0.7,1.5s-1.1,0.5-1.9,0.5h-1v2.8h-0.5v-6.8h1.7C73,221.3,73.8,222,73.8,223.3z M70.2,224.9
				h0.9c0.8,0,1.3-0.1,1.7-0.4s0.5-0.7,0.5-1.2c0-0.5-0.2-0.9-0.5-1.2s-0.8-0.4-1.5-0.4h-1.1V224.9z"/>
			<path d="M81.7,224.7c0,1.1-0.3,1.9-0.8,2.6c-0.5,0.6-1.3,0.9-2.2,0.9c-0.9,0-1.7-0.3-2.2-0.9c-0.5-0.6-0.8-1.5-0.8-2.6
				c0-1.1,0.3-1.9,0.8-2.5c0.5-0.6,1.3-0.9,2.2-0.9c0.9,0,1.7,0.3,2.2,0.9C81.4,222.8,81.7,223.6,81.7,224.7z M76.2,224.7
				c0,1,0.2,1.7,0.6,2.3c0.4,0.5,1.1,0.8,1.9,0.8c0.8,0,1.4-0.3,1.9-0.8c0.4-0.5,0.6-1.3,0.6-2.3c0-1-0.2-1.7-0.6-2.2
				c-0.4-0.5-1.1-0.8-1.9-0.8c-0.8,0-1.4,0.3-1.9,0.8S76.2,223.8,76.2,224.7z"/>
			<path d="M87.7,226.4c0,0.6-0.2,1-0.6,1.3c-0.4,0.3-1,0.5-1.7,0.5c-0.8,0-1.5-0.1-1.9-0.3v-0.5c0.5,0.2,1.1,0.3,1.9,0.3
				c0.6,0,1-0.1,1.3-0.4c0.3-0.3,0.5-0.6,0.5-1c0-0.3-0.1-0.5-0.2-0.6c-0.1-0.2-0.3-0.3-0.5-0.5s-0.6-0.3-1.1-0.4
				c-0.7-0.2-1.2-0.5-1.4-0.8c-0.3-0.3-0.4-0.6-0.4-1.1c0-0.5,0.2-0.9,0.6-1.2c0.4-0.3,0.9-0.5,1.5-0.5c0.6,0,1.2,0.1,1.8,0.4
				l-0.2,0.4c-0.6-0.2-1.1-0.4-1.6-0.4c-0.5,0-0.9,0.1-1.2,0.3c-0.3,0.2-0.4,0.5-0.4,0.9c0,0.2,0,0.5,0.1,0.6
				c0.1,0.2,0.2,0.3,0.4,0.4c0.2,0.1,0.6,0.3,1.1,0.5c0.5,0.2,0.9,0.4,1.2,0.5c0.3,0.2,0.5,0.4,0.6,0.6
				C87.7,225.8,87.7,226.1,87.7,226.4z"/>
			<path d="M89.9,228.1v-6.8h0.5v6.8H89.9z"/>
			<path d="M94.7,228.1h-0.5v-6.3h-2.2v-0.4h4.9v0.4h-2.2V228.1z"/>
			<path d="M98.7,228.1v-6.8h0.5v6.8H98.7z"/>
			<path d="M107.5,224.7c0,1.1-0.3,1.9-0.8,2.6c-0.5,0.6-1.3,0.9-2.2,0.9c-0.9,0-1.7-0.3-2.2-0.9c-0.5-0.6-0.8-1.5-0.8-2.6
				c0-1.1,0.3-1.9,0.8-2.5c0.5-0.6,1.3-0.9,2.2-0.9c0.9,0,1.7,0.3,2.2,0.9C107.2,222.8,107.5,223.6,107.5,224.7z M101.9,224.7
				c0,1,0.2,1.7,0.6,2.3c0.4,0.5,1.1,0.8,1.9,0.8c0.8,0,1.4-0.3,1.9-0.8c0.4-0.5,0.6-1.3,0.6-2.3c0-1-0.2-1.7-0.6-2.2
				c-0.4-0.5-1.1-0.8-1.9-0.8c-0.8,0-1.4,0.3-1.9,0.8S101.9,223.8,101.9,224.7z"/>
			<path d="M114.7,228.1h-0.5l-4-6h0c0,0.7,0.1,1.3,0.1,1.6v4.4h-0.5v-6.8h0.5l4,6h0c0-0.6,0-1.1,0-1.6v-4.4h0.5V228.1z"/>
			<path d="M6.1,237.9c0-0.3,0.1-0.5,0.2-0.6s0.3-0.2,0.5-0.2s0.4,0.1,0.5,0.2c0.1,0.1,0.2,0.4,0.2,0.6c0,0.3-0.1,0.5-0.2,0.6
				c-0.1,0.1-0.3,0.2-0.5,0.2s-0.4-0.1-0.5-0.2C6.2,238.4,6.1,238.2,6.1,237.9z"/>
			<path d="M13.9,238.5v3h-0.5v-6.8h1.6c0.8,0,1.5,0.2,1.9,0.5s0.6,0.8,0.6,1.4c0,0.5-0.1,0.8-0.4,1.2c-0.2,0.3-0.6,0.5-1.1,0.7
				l1.8,3.1h-0.6l-1.7-3H13.9z M13.9,238.1h1.3c0.6,0,1-0.1,1.3-0.4c0.3-0.3,0.5-0.6,0.5-1.1c0-0.5-0.2-0.9-0.5-1.1
				s-0.8-0.4-1.5-0.4h-1.1V238.1z"/>
			<path d="M23.5,241.4h-3.7v-6.8h3.7v0.4h-3.2v2.6h3.1v0.4h-3.1v2.9h3.2V241.4z"/>
			<path d="M28.8,241.4l-2.5-6.3h0c0,0.4,0,0.8,0,1.2v5.1h-0.5v-6.8h0.7l2.4,6h0l2.4-6h0.7v6.8h-0.5v-5.1c0-0.4,0-0.7,0.1-1.1h0
				l-2.5,6.2H28.8z"/>
			<path d="M40.4,238c0,1.1-0.3,1.9-0.8,2.6c-0.5,0.6-1.3,0.9-2.2,0.9c-0.9,0-1.7-0.3-2.2-0.9c-0.5-0.6-0.8-1.5-0.8-2.6
				c0-1.1,0.3-1.9,0.8-2.5c0.5-0.6,1.3-0.9,2.2-0.9c0.9,0,1.7,0.3,2.2,0.9C40.1,236.1,40.4,236.9,40.4,238z M34.8,238
				c0,1,0.2,1.7,0.6,2.2c0.4,0.5,1.1,0.8,1.9,0.8c0.8,0,1.4-0.3,1.9-0.8s0.6-1.3,0.6-2.3c0-1-0.2-1.7-0.6-2.2
				c-0.4-0.5-1.1-0.8-1.9-0.8c-0.8,0-1.4,0.3-1.9,0.8C35.1,236.3,34.8,237,34.8,238z"/>
			<path d="M46.7,234.6h0.5l-2.5,6.8h-0.4l-2.5-6.8h0.5l1.7,4.6c0.3,0.7,0.4,1.2,0.5,1.6c0.1-0.2,0.2-0.6,0.4-1.1L46.7,234.6z"/>
			<path d="M52.6,241.4h-3.7v-6.8h3.7v0.4h-3.2v2.6h3.1v0.4h-3.1v2.9h3.2V241.4z"/>
			<path d="M59.7,241.4h-0.5v-6.3h-2.2v-0.4h4.9v0.4h-2.2V241.4z"/>
			<path d="M66.9,239h-2.8l-0.9,2.4h-0.5l2.7-6.8h0.3l2.7,6.8h-0.5L66.9,239z M64.3,238.6h2.4l-0.9-2.4c-0.1-0.2-0.2-0.5-0.3-0.8
				c-0.1,0.3-0.2,0.6-0.3,0.8L64.3,238.6z"/>
			<path d="M75,241.4h-0.5l-4-6h0c0,0.7,0.1,1.3,0.1,1.6v4.4h-0.5v-6.8h0.5l4,6h0c0-0.6,0-1.1,0-1.6v-4.4H75V241.4z"/>
			<path d="M80.3,238h2.5v3.1c-0.7,0.3-1.4,0.4-2.2,0.4c-1.1,0-1.9-0.3-2.5-0.9c-0.6-0.6-0.9-1.5-0.9-2.6c0-0.7,0.1-1.3,0.4-1.8
				c0.3-0.5,0.7-0.9,1.2-1.2c0.5-0.3,1.1-0.4,1.8-0.4c0.7,0,1.4,0.1,2,0.4l-0.2,0.4c-0.6-0.3-1.2-0.4-1.8-0.4
				c-0.9,0-1.6,0.3-2.1,0.8c-0.5,0.6-0.8,1.3-0.8,2.2c0,1,0.2,1.8,0.7,2.3c0.5,0.5,1.2,0.8,2.2,0.8c0.6,0,1.2-0.1,1.6-0.3v-2.4h-2
				V238z"/>
			<path d="M85.2,241.4v-6.8h0.5v6.8H85.2z"/>
			<path d="M88.3,234.6h1.9c0.8,0,1.5,0.1,1.8,0.4c0.4,0.3,0.6,0.7,0.6,1.3c0,0.4-0.1,0.7-0.4,1c-0.2,0.3-0.6,0.4-1,0.5v0
				c0.5,0.1,0.9,0.3,1.2,0.5c0.3,0.3,0.4,0.6,0.4,1.1c0,0.6-0.2,1.1-0.6,1.4c-0.4,0.3-1,0.5-1.8,0.5h-2.1V234.6z M88.8,237.7h1.5
				c0.6,0,1.1-0.1,1.4-0.3s0.4-0.5,0.4-1s-0.2-0.8-0.5-1c-0.3-0.2-0.8-0.3-1.5-0.3h-1.4V237.7z M88.8,238.1v2.9h1.6
				c1.3,0,1.9-0.5,1.9-1.5c0-0.9-0.7-1.4-2-1.4H88.8z"/>
			<path d="M95,241.4v-6.8h0.5v6.3h3.2v0.4H95z"/>
			<path d="M104.3,241.4h-3.7v-6.8h3.7v0.4H101v2.6h3.1v0.4H101v2.9h3.2V241.4z"/>
			<path d="M110.2,238.5v3h-0.5v-6.8h1.6c0.8,0,1.5,0.2,1.9,0.5c0.4,0.3,0.6,0.8,0.6,1.4c0,0.5-0.1,0.8-0.4,1.2
				c-0.2,0.3-0.6,0.5-1.1,0.7l1.8,3.1h-0.6l-1.7-3H110.2z M110.2,238.1h1.3c0.6,0,1-0.1,1.3-0.4c0.3-0.3,0.5-0.6,0.5-1.1
				c0-0.5-0.2-0.9-0.5-1.1c-0.3-0.2-0.8-0.4-1.5-0.4h-1.1V238.1z"/>
			<path d="M119.8,241.4h-3.7v-6.8h3.7v0.4h-3.2v2.6h3.1v0.4h-3.1v2.9h3.2V241.4z"/>
			<path d="M127.4,241.4H127l-1.5-5.2c-0.1-0.4-0.2-0.8-0.3-1.1c0,0.3-0.1,0.6-0.2,0.9c-0.1,0.3-0.6,2.1-1.5,5.4h-0.4l-1.9-6.8h0.5
				l1.2,4.4c0,0.2,0.1,0.3,0.1,0.5c0,0.2,0.1,0.3,0.1,0.4s0.1,0.3,0.1,0.4c0,0.1,0.1,0.2,0.1,0.4c0.1-0.4,0.2-1.1,0.5-1.9l1.2-4.1
				h0.5l1.4,4.7c0.2,0.5,0.3,1,0.3,1.3c0-0.2,0.1-0.5,0.2-0.7s0.5-2,1.4-5.3h0.5L127.4,241.4z"/>
			<path d="M134.5,239h-2.8l-0.9,2.4h-0.5l2.7-6.8h0.3l2.7,6.8h-0.5L134.5,239z M131.9,238.6h2.4l-0.9-2.4c-0.1-0.2-0.2-0.5-0.3-0.8
				c-0.1,0.3-0.2,0.6-0.3,0.8L131.9,238.6z"/>
			<path d="M138.1,238.5v3h-0.5v-6.8h1.6c0.8,0,1.5,0.2,1.9,0.5c0.4,0.3,0.6,0.8,0.6,1.4c0,0.5-0.1,0.8-0.4,1.2
				c-0.2,0.3-0.6,0.5-1.1,0.7l1.8,3.1h-0.6l-1.7-3H138.1z M138.1,238.1h1.3c0.6,0,1-0.1,1.3-0.4c0.3-0.3,0.5-0.6,0.5-1.1
				c0-0.5-0.2-0.9-0.5-1.1c-0.3-0.2-0.8-0.4-1.5-0.4h-1.1V238.1z"/>
			<path d="M149.1,238c0,1.1-0.3,2-0.9,2.6c-0.6,0.6-1.5,0.9-2.6,0.9H144v-6.8h1.8c1.1,0,1.9,0.3,2.5,0.8
				C148.8,236,149.1,236.9,149.1,238z M148.6,238c0-1-0.2-1.7-0.7-2.2c-0.5-0.5-1.2-0.7-2.2-0.7h-1.2v5.9h1.1
				C147.6,241,148.6,240,148.6,238z"/>
			<path d="M155.1,239.7c0,0.6-0.2,1-0.6,1.3c-0.4,0.3-1,0.5-1.7,0.5c-0.8,0-1.5-0.1-1.9-0.3v-0.5c0.5,0.2,1.1,0.3,1.9,0.3
				c0.6,0,1-0.1,1.3-0.4c0.3-0.3,0.5-0.6,0.5-1c0-0.3-0.1-0.5-0.2-0.6c-0.1-0.2-0.3-0.3-0.5-0.5c-0.2-0.1-0.6-0.3-1.1-0.5
				c-0.7-0.2-1.2-0.5-1.4-0.8c-0.3-0.3-0.4-0.6-0.4-1.1c0-0.5,0.2-0.9,0.6-1.2c0.4-0.3,0.9-0.5,1.5-0.5c0.6,0,1.2,0.1,1.8,0.4
				l-0.2,0.4c-0.6-0.2-1.1-0.4-1.6-0.4c-0.5,0-0.9,0.1-1.2,0.3s-0.4,0.5-0.4,0.9c0,0.2,0,0.5,0.1,0.6c0.1,0.2,0.2,0.3,0.4,0.4
				s0.6,0.3,1.1,0.5c0.5,0.2,0.9,0.4,1.2,0.5s0.5,0.4,0.6,0.6S155.1,239.4,155.1,239.7z"/>
		</g>
	</g>
	<g>
		<rect x="459" y="166.9" fill="#CE7065" width="107" height="1.5"/>
		<g>
			<circle fill="#CE7065" cx="512" cy="103.1" r="51"/>
			<g>
				<path fill="#FFFFFF" d="M471.6,99.1v-7.6h1.2v7.6H471.6z"/>
				<path fill="#FFFFFF" d="M482.1,99.1h-1.5l-3.8-6.1h0l0,0.3c0,0.6,0.1,1.2,0.1,1.8v4h-1.1v-7.6h1.5l3.7,6.1h0c0-0.1,0-0.4,0-0.9
					c0-0.5,0-0.9,0-1.2v-4h1.1V99.1z"/>
				<path fill="#FFFFFF" d="M486.1,99.1h-1.2v-7.6h4.3v1.1h-3.1v2.4h2.9V96h-2.9V99.1z"/>
				<path fill="#FFFFFF" d="M498.2,95.3c0,1.2-0.3,2.2-0.9,2.9c-0.6,0.7-1.5,1-2.6,1c-1.2,0-2-0.3-2.7-1s-0.9-1.7-0.9-2.9
					c0-1.3,0.3-2.2,0.9-2.9c0.6-0.7,1.5-1,2.7-1c1.1,0,2,0.3,2.6,1C497.9,93.1,498.2,94,498.2,95.3z M492.3,95.3
					c0,0.9,0.2,1.7,0.6,2.1c0.4,0.5,0.9,0.7,1.7,0.7c0.7,0,1.3-0.2,1.7-0.7c0.4-0.5,0.6-1.2,0.6-2.1c0-0.9-0.2-1.6-0.6-2.1
					s-0.9-0.7-1.7-0.7c-0.7,0-1.3,0.2-1.7,0.7C492.5,93.6,492.3,94.3,492.3,95.3z"/>
				<path fill="#FFFFFF" d="M501.9,96v3.1h-1.2v-7.6h2.2c1,0,1.7,0.2,2.2,0.6c0.5,0.4,0.7,0.9,0.7,1.7c0,1-0.5,1.6-1.5,2l2.2,3.4
					h-1.4l-1.8-3.1H501.9z M501.9,95h0.9c0.6,0,1-0.1,1.3-0.3c0.3-0.2,0.4-0.5,0.4-1c0-0.4-0.1-0.7-0.4-0.9
					c-0.3-0.2-0.7-0.3-1.3-0.3h-0.8V95z"/>
				<path fill="#FFFFFF" d="M511.6,99.1l-2.2-6.4h0c0.1,0.9,0.1,1.8,0.1,2.7v3.7h-1.1v-7.6h1.8l2.1,6.1h0l2.2-6.1h1.8v7.6h-1.2v-3.8
					c0-0.4,0-0.9,0-1.5c0-0.6,0-1,0-1.1h0l-2.3,6.4H511.6z"/>
				<path fill="#FFFFFF" d="M523.7,99.1l-0.8-2.1H520l-0.7,2.1h-1.3l2.9-7.7h1.4l2.9,7.7H523.7z M522.6,95.9l-0.7-2.1
					c-0.1-0.1-0.1-0.4-0.2-0.7c-0.1-0.3-0.2-0.5-0.2-0.7c-0.1,0.4-0.2,0.9-0.4,1.4l-0.7,2H522.6z"/>
				<path fill="#FFFFFF" d="M529.5,99.1h-1.2v-6.6H526v-1.1h5.7v1.1h-2.2V99.1z"/>
				<path fill="#FFFFFF" d="M533.7,99.1v-7.6h1.2v7.6H533.7z"/>
				<path fill="#FFFFFF" d="M544.5,95.3c0,1.2-0.3,2.2-0.9,2.9c-0.6,0.7-1.5,1-2.6,1c-1.2,0-2-0.3-2.7-1s-0.9-1.7-0.9-2.9
					c0-1.3,0.3-2.2,0.9-2.9c0.6-0.7,1.5-1,2.7-1c1.1,0,2,0.3,2.6,1C544.2,93.1,544.5,94,544.5,95.3z M538.7,95.3
					c0,0.9,0.2,1.7,0.6,2.1c0.4,0.5,0.9,0.7,1.7,0.7c0.7,0,1.3-0.2,1.7-0.7c0.4-0.5,0.6-1.2,0.6-2.1c0-0.9-0.2-1.6-0.6-2.1
					s-0.9-0.7-1.7-0.7c-0.7,0-1.3,0.2-1.7,0.7C538.9,93.6,538.7,94.3,538.7,95.3z"/>
				<path fill="#FFFFFF" d="M553.4,99.1h-1.5l-3.8-6.1h0l0,0.3c0,0.6,0.1,1.2,0.1,1.8v4H547v-7.6h1.5l3.7,6.1h0c0-0.1,0-0.4,0-0.9
					c0-0.5,0-0.9,0-1.2v-4h1.1V99.1z"/>
				<path fill="#FFFFFF" d="M475,114.8l-0.8-2.1h-2.9l-0.7,2.1h-1.3l2.9-7.7h1.4l2.9,7.7H475z M473.9,111.6l-0.7-2.1
					c-0.1-0.1-0.1-0.4-0.2-0.7s-0.2-0.5-0.2-0.7c-0.1,0.4-0.2,0.9-0.4,1.4l-0.7,2H473.9z"/>
				<path fill="#FFFFFF" d="M479.4,111.7v3.1h-1.2v-7.6h2.2c1,0,1.7,0.2,2.2,0.6c0.5,0.4,0.7,0.9,0.7,1.7c0,1-0.5,1.6-1.5,2l2.2,3.4
					h-1.4l-1.8-3.1H479.4z M479.4,110.7h0.9c0.6,0,1-0.1,1.3-0.3c0.3-0.2,0.4-0.5,0.4-1c0-0.4-0.1-0.7-0.4-0.9
					c-0.3-0.2-0.7-0.3-1.3-0.3h-0.8V110.7z"/>
				<path fill="#FFFFFF" d="M489,108.1c-0.7,0-1.3,0.3-1.7,0.8c-0.4,0.5-0.6,1.2-0.6,2.1c0,0.9,0.2,1.6,0.6,2.1
					c0.4,0.5,1,0.7,1.7,0.7c0.3,0,0.6,0,0.9-0.1c0.3-0.1,0.6-0.1,0.9-0.2v1.1c-0.6,0.2-1.3,0.3-2,0.3c-1.1,0-2-0.3-2.6-1
					s-0.9-1.6-0.9-2.9c0-0.8,0.1-1.5,0.4-2.1s0.7-1.1,1.3-1.4s1.2-0.5,1.9-0.5c0.8,0,1.5,0.2,2.2,0.5l-0.4,1
					c-0.3-0.1-0.5-0.2-0.8-0.3C489.7,108.1,489.4,108.1,489,108.1z"/>
				<path fill="#FFFFFF" d="M499.4,114.8h-1.3v-3.4h-3.5v3.4h-1.2v-7.6h1.2v3.1h3.5v-3.1h1.3V114.8z"/>
				<path fill="#FFFFFF" d="M502.2,114.8v-7.6h1.2v7.6H502.2z"/>
				<path fill="#FFFFFF" d="M508.9,114.8h-1.2v-6.6h-2.2v-1.1h5.7v1.1h-2.2V114.8z"/>
				<path fill="#FFFFFF" d="M517.5,114.8h-4.3v-7.6h4.3v1.1h-3.1v2.1h2.9v1h-2.9v2.4h3.1V114.8z"/>
				<path fill="#FFFFFF" d="M523.2,108.1c-0.7,0-1.3,0.3-1.7,0.8c-0.4,0.5-0.6,1.2-0.6,2.1c0,0.9,0.2,1.6,0.6,2.1
					c0.4,0.5,1,0.7,1.7,0.7c0.3,0,0.6,0,0.9-0.1c0.3-0.1,0.6-0.1,0.9-0.2v1.1c-0.6,0.2-1.3,0.3-2,0.3c-1.1,0-2-0.3-2.6-1
					s-0.9-1.6-0.9-2.9c0-0.8,0.1-1.5,0.4-2.1s0.7-1.1,1.3-1.4s1.2-0.5,1.9-0.5c0.8,0,1.5,0.2,2.2,0.5l-0.4,1
					c-0.3-0.1-0.5-0.2-0.8-0.3C523.8,108.1,523.5,108.1,523.2,108.1z"/>
				<path fill="#FFFFFF" d="M530.2,114.8h-1.2v-6.6h-2.2v-1.1h5.7v1.1h-2.2V114.8z"/>
				<path fill="#FFFFFF" d="M540.4,107.1v4.9c0,0.6-0.1,1.1-0.4,1.5c-0.2,0.4-0.6,0.7-1.1,1c-0.5,0.2-1,0.3-1.6,0.3
					c-0.9,0-1.7-0.3-2.2-0.8c-0.5-0.5-0.8-1.2-0.8-2.1v-4.9h1.3v4.8c0,0.6,0.1,1.1,0.4,1.4c0.3,0.3,0.7,0.4,1.3,0.4
					c1.2,0,1.8-0.6,1.8-1.9v-4.8H540.4z"/>
				<path fill="#FFFFFF" d="M544.4,111.7v3.1h-1.2v-7.6h2.2c1,0,1.7,0.2,2.2,0.6c0.5,0.4,0.7,0.9,0.7,1.7c0,1-0.5,1.6-1.5,2l2.2,3.4
					h-1.4l-1.8-3.1H544.4z M544.4,110.7h0.9c0.6,0,1-0.1,1.3-0.3c0.3-0.2,0.4-0.5,0.4-1c0-0.4-0.1-0.7-0.4-0.9
					c-0.3-0.2-0.7-0.3-1.3-0.3h-0.8V110.7z"/>
				<path fill="#FFFFFF" d="M555.1,114.8h-4.3v-7.6h4.3v1.1H552v2.1h2.9v1H552v2.4h3.1V114.8z"/>
			</g>
		</g>
		<g>
			<path d="M462,185c0-0.3,0.1-0.5,0.2-0.6s0.3-0.2,0.5-0.2c0.2,0,0.4,0.1,0.5,0.2c0.1,0.1,0.2,0.4,0.2,0.6c0,0.3-0.1,0.5-0.2,0.6
				c-0.1,0.1-0.3,0.2-0.5,0.2s-0.4-0.1-0.5-0.2C462,185.4,462,185.2,462,185z"/>
			<path d="M472.2,182c-0.8,0-1.5,0.3-2,0.8c-0.5,0.5-0.7,1.3-0.7,2.2c0,1,0.2,1.7,0.7,2.3c0.5,0.5,1.1,0.8,2,0.8
				c0.6,0,1.1-0.1,1.6-0.2v0.4c-0.4,0.2-1,0.2-1.7,0.2c-1,0-1.7-0.3-2.2-0.9s-0.8-1.5-0.8-2.6c0-0.7,0.1-1.3,0.4-1.8
				s0.6-0.9,1.1-1.2s1.1-0.4,1.7-0.4c0.7,0,1.3,0.1,1.8,0.4l-0.2,0.4C473.3,182.1,472.7,182,472.2,182z"/>
			<path d="M475.9,188.4v-6.8h0.5v6.3h3.2v0.4H475.9z"/>
			<path d="M484.8,186H482l-0.9,2.4h-0.5l2.7-6.8h0.3l2.7,6.8h-0.5L484.8,186z M482.2,185.6h2.4l-0.9-2.4c-0.1-0.2-0.2-0.5-0.3-0.8
				c-0.1,0.3-0.2,0.6-0.3,0.8L482.2,185.6z"/>
			<path d="M488.4,185.5v3h-0.5v-6.8h1.6c0.8,0,1.5,0.2,1.9,0.5s0.6,0.8,0.6,1.4c0,0.5-0.1,0.8-0.4,1.2c-0.2,0.3-0.6,0.5-1.1,0.7
				l1.8,3.1h-0.6l-1.7-3H488.4z M488.4,185.1h1.3c0.6,0,1-0.1,1.3-0.4c0.3-0.3,0.5-0.6,0.5-1.1c0-0.5-0.2-0.9-0.5-1.1
				s-0.8-0.4-1.5-0.4h-1.1V185.1z"/>
			<path d="M494.3,188.4v-6.8h0.5v6.8H494.3z"/>
			<path d="M497.8,188.4h-0.5v-6.8h3.7v0.4h-3.2v2.9h3.1v0.4h-3.1V188.4z"/>
			<path d="M504.4,185.4l2-3.7h0.5l-2.3,4.2v2.6h-0.5v-2.6l-2.3-4.2h0.5L504.4,185.4z"/>
			<path d="M513.5,188.4H513v-6.3h-2.2v-0.4h4.9v0.4h-2.2V188.4z"/>
			<path d="M522.3,188.4h-0.5v-3.3h-4v3.3h-0.5v-6.8h0.5v3h4v-3h0.5V188.4z"/>
			<path d="M528.7,188.4H525v-6.8h3.7v0.4h-3.2v2.6h3.1v0.4h-3.1v2.9h3.2V188.4z"/>
			<path d="M538.1,181.7h0.5l-2.5,6.8h-0.4l-2.5-6.8h0.5l1.7,4.6c0.3,0.7,0.4,1.2,0.5,1.6c0.1-0.2,0.2-0.6,0.4-1.1L538.1,181.7z"/>
			<path d="M543.6,186h-2.8l-0.9,2.4h-0.5l2.7-6.8h0.3l2.7,6.8h-0.5L543.6,186z M541,185.6h2.4l-0.9-2.4c-0.1-0.2-0.2-0.5-0.3-0.8
				c-0.1,0.3-0.2,0.6-0.3,0.8L541,185.6z"/>
			<path d="M546.7,188.4v-6.8h0.5v6.3h3.2v0.4H546.7z"/>
			<path d="M557.3,181.7v4.4c0,0.8-0.2,1.4-0.7,1.8s-1.1,0.7-1.9,0.7c-0.8,0-1.4-0.2-1.8-0.7c-0.4-0.4-0.7-1.1-0.7-1.8v-4.4h0.5v4.4
				c0,0.7,0.2,1.2,0.5,1.5c0.4,0.4,0.9,0.5,1.5,0.5c0.6,0,1.1-0.2,1.5-0.5c0.4-0.4,0.5-0.9,0.5-1.5v-4.4H557.3z"/>
			<path d="M563.5,188.4h-3.7v-6.8h3.7v0.4h-3.2v2.6h3.1v0.4h-3.1v2.9h3.2V188.4z"/>
			<path d="M485.4,196.9c0,0.7-0.2,1.2-0.7,1.5s-1.1,0.5-1.9,0.5h-1v2.8h-0.5v-6.8h1.7C484.6,194.9,485.4,195.6,485.4,196.9z
				 M481.8,198.5h0.9c0.8,0,1.3-0.1,1.7-0.4s0.5-0.7,0.5-1.2c0-0.5-0.2-0.9-0.5-1.2c-0.3-0.3-0.8-0.4-1.5-0.4h-1.1V198.5z"/>
			<path d="M488.1,198.8v3h-0.5v-6.8h1.6c0.8,0,1.5,0.2,1.9,0.5s0.6,0.8,0.6,1.4c0,0.5-0.1,0.8-0.4,1.2c-0.2,0.3-0.6,0.5-1.1,0.7
				l1.8,3.1h-0.6l-1.7-3H488.1z M488.1,198.4h1.3c0.6,0,1-0.1,1.3-0.4c0.3-0.3,0.5-0.6,0.5-1.1c0-0.5-0.2-0.9-0.5-1.1
				c-0.3-0.2-0.8-0.4-1.5-0.4h-1.1V198.4z"/>
			<path d="M499.7,198.3c0,1.1-0.3,1.9-0.8,2.6c-0.5,0.6-1.3,0.9-2.2,0.9c-0.9,0-1.7-0.3-2.2-0.9s-0.8-1.5-0.8-2.6
				c0-1.1,0.3-1.9,0.8-2.5c0.5-0.6,1.3-0.9,2.2-0.9c0.9,0,1.7,0.3,2.2,0.9C499.4,196.4,499.7,197.2,499.7,198.3z M494.1,198.3
				c0,1,0.2,1.7,0.7,2.3c0.4,0.5,1.1,0.8,1.9,0.8c0.8,0,1.4-0.3,1.9-0.8s0.6-1.3,0.6-2.3c0-1-0.2-1.7-0.6-2.2s-1.1-0.8-1.9-0.8
				c-0.8,0-1.4,0.3-1.9,0.8S494.1,197.4,494.1,198.3z"/>
			<path d="M506,196.9c0,0.7-0.2,1.2-0.7,1.5s-1.1,0.5-1.9,0.5h-1v2.8h-0.5v-6.8h1.7C505.2,194.9,506,195.6,506,196.9z M502.4,198.5
				h0.9c0.8,0,1.3-0.1,1.7-0.4s0.5-0.7,0.5-1.2c0-0.5-0.2-0.9-0.5-1.2c-0.3-0.3-0.8-0.4-1.5-0.4h-1.1V198.5z"/>
			<path d="M513.9,198.3c0,1.1-0.3,1.9-0.8,2.6s-1.3,0.9-2.2,0.9c-0.9,0-1.7-0.3-2.2-0.9c-0.5-0.6-0.8-1.5-0.8-2.6
				c0-1.1,0.3-1.9,0.8-2.5s1.3-0.9,2.2-0.9c0.9,0,1.7,0.3,2.2,0.9C513.6,196.4,513.9,197.2,513.9,198.3z M508.3,198.3
				c0,1,0.2,1.7,0.6,2.3c0.4,0.5,1.1,0.8,1.9,0.8c0.8,0,1.4-0.3,1.9-0.8c0.4-0.5,0.6-1.3,0.6-2.3c0-1-0.2-1.7-0.6-2.2
				c-0.4-0.5-1.1-0.8-1.9-0.8c-0.8,0-1.4,0.3-1.9,0.8S508.3,197.4,508.3,198.3z"/>
			<path d="M519.9,200c0,0.6-0.2,1-0.6,1.3c-0.4,0.3-1,0.5-1.7,0.5c-0.8,0-1.5-0.1-1.9-0.3v-0.5c0.5,0.2,1.1,0.3,1.9,0.3
				c0.6,0,1-0.1,1.3-0.4c0.3-0.3,0.5-0.6,0.5-1c0-0.3-0.1-0.5-0.2-0.6c-0.1-0.2-0.3-0.3-0.5-0.5s-0.6-0.3-1.1-0.4
				c-0.7-0.2-1.2-0.5-1.4-0.8c-0.3-0.3-0.4-0.6-0.4-1.1c0-0.5,0.2-0.9,0.6-1.2c0.4-0.3,0.9-0.5,1.5-0.5c0.6,0,1.2,0.1,1.8,0.4
				l-0.2,0.4c-0.6-0.2-1.1-0.4-1.6-0.4c-0.5,0-0.9,0.1-1.2,0.3c-0.3,0.2-0.4,0.5-0.4,0.9c0,0.2,0,0.5,0.1,0.6
				c0.1,0.2,0.2,0.3,0.4,0.4c0.2,0.1,0.6,0.3,1.1,0.5c0.5,0.2,0.9,0.4,1.2,0.5c0.3,0.2,0.5,0.4,0.6,0.6
				C519.8,199.4,519.9,199.7,519.9,200z"/>
			<path d="M522,201.7v-6.8h0.5v6.8H522z"/>
			<path d="M526.9,201.7h-0.5v-6.3h-2.2v-0.4h4.9v0.4h-2.2V201.7z"/>
			<path d="M530.8,201.7v-6.8h0.5v6.8H530.8z"/>
			<path d="M539.6,198.3c0,1.1-0.3,1.9-0.8,2.6s-1.3,0.9-2.2,0.9c-0.9,0-1.7-0.3-2.2-0.9c-0.5-0.6-0.8-1.5-0.8-2.6
				c0-1.1,0.3-1.9,0.8-2.5s1.3-0.9,2.2-0.9c0.9,0,1.7,0.3,2.2,0.9C539.4,196.4,539.6,197.2,539.6,198.3z M534.1,198.3
				c0,1,0.2,1.7,0.6,2.3c0.4,0.5,1.1,0.8,1.9,0.8c0.8,0,1.4-0.3,1.9-0.8c0.4-0.5,0.6-1.3,0.6-2.3c0-1-0.2-1.7-0.6-2.2
				c-0.4-0.5-1.1-0.8-1.9-0.8c-0.8,0-1.4,0.3-1.9,0.8S534.1,197.4,534.1,198.3z"/>
			<path d="M546.8,201.7h-0.5l-4-6h0c0,0.7,0.1,1.3,0.1,1.6v4.4h-0.5v-6.8h0.5l4,6h0c0-0.6,0-1.1,0-1.6v-4.4h0.5V201.7z"/>
			<path d="M448.2,211.6c0-0.3,0.1-0.5,0.2-0.6s0.3-0.2,0.5-0.2c0.2,0,0.4,0.1,0.5,0.2s0.2,0.4,0.2,0.6c0,0.3-0.1,0.5-0.2,0.6
				s-0.3,0.2-0.5,0.2s-0.4-0.1-0.5-0.2C448.3,212,448.2,211.8,448.2,211.6z"/>
			<path d="M458.5,208.6c-0.8,0-1.5,0.3-2,0.8c-0.5,0.5-0.7,1.3-0.7,2.2c0,1,0.2,1.7,0.7,2.3s1.1,0.8,2,0.8c0.6,0,1.1-0.1,1.6-0.2
				v0.4c-0.4,0.2-1,0.2-1.7,0.2c-1,0-1.7-0.3-2.2-0.9s-0.8-1.5-0.8-2.6c0-0.7,0.1-1.3,0.4-1.8c0.3-0.5,0.6-0.9,1.1-1.2
				c0.5-0.3,1.1-0.4,1.7-0.4c0.7,0,1.3,0.1,1.8,0.4l-0.2,0.4C459.5,208.7,459,208.6,458.5,208.6z"/>
			<path d="M462.2,215v-6.8h0.5v6.3h3.2v0.4H462.2z"/>
			<path d="M471,212.6h-2.8l-0.9,2.4h-0.5l2.7-6.8h0.3l2.7,6.8H472L471,212.6z M468.4,212.2h2.4l-0.9-2.4c-0.1-0.2-0.2-0.5-0.3-0.8
				c-0.1,0.3-0.2,0.6-0.3,0.8L468.4,212.2z"/>
			<path d="M474.6,212.1v3h-0.5v-6.8h1.6c0.8,0,1.5,0.2,1.9,0.5c0.4,0.3,0.6,0.8,0.6,1.4c0,0.5-0.1,0.8-0.4,1.2s-0.6,0.5-1.1,0.7
				l1.8,3.1h-0.6l-1.7-3H474.6z M474.6,211.7h1.3c0.6,0,1-0.1,1.3-0.4c0.3-0.3,0.5-0.6,0.5-1.1c0-0.5-0.2-0.9-0.5-1.1
				c-0.3-0.2-0.8-0.4-1.5-0.4h-1.1V211.7z"/>
			<path d="M480.5,215v-6.8h0.5v6.8H480.5z"/>
			<path d="M484.1,215h-0.5v-6.8h3.7v0.4h-3.2v2.9h3.1v0.4h-3.1V215z"/>
			<path d="M490.7,212l2-3.7h0.5l-2.3,4.2v2.6h-0.5v-2.6l-2.3-4.2h0.5L490.7,212z"/>
			<path d="M499.8,215h-0.5v-6.3h-2.2v-0.4h4.9v0.4h-2.2V215z"/>
			<path d="M508.6,215h-0.5v-3.3h-4v3.3h-0.5v-6.8h0.5v3h4v-3h0.5V215z"/>
			<path d="M514.9,215h-3.7v-6.8h3.7v0.4h-3.2v2.6h3.1v0.4h-3.1v2.9h3.2V215z"/>
			<path d="M520.4,215v-6.8h0.5v6.3h3.2v0.4H520.4z"/>
			<path d="M525.9,215v-6.8h0.5v6.8H525.9z"/>
			<path d="M529.5,215h-0.5v-6.8h3.7v0.4h-3.2v2.9h3.1v0.4h-3.1V215z"/>
			<path d="M538.2,215h-3.7v-6.8h3.7v0.4H535v2.6h3.1v0.4H535v2.9h3.2V215z"/>
			<path d="M540.5,215v-6.8h0.5v6.8H540.5z"/>
			<path d="M549.3,211.6c0,0.9-0.2,1.7-0.6,2.3s-0.9,1-1.6,1.1l1.5,1.6h-0.8l-1.3-1.5l-0.2,0h-0.1c-0.9,0-1.7-0.3-2.2-0.9
				c-0.5-0.6-0.8-1.5-0.8-2.6c0-1.1,0.3-1.9,0.8-2.5s1.3-0.9,2.2-0.9c0.9,0,1.7,0.3,2.2,0.9C549,209.7,549.3,210.5,549.3,211.6z
				 M543.7,211.6c0,1,0.2,1.7,0.6,2.3c0.4,0.5,1.1,0.8,1.9,0.8c0.8,0,1.4-0.3,1.9-0.8c0.4-0.5,0.6-1.3,0.6-2.3c0-1-0.2-1.7-0.6-2.2
				c-0.4-0.5-1.1-0.8-1.9-0.8c-0.8,0-1.4,0.3-1.9,0.8S543.7,210.7,543.7,211.6z"/>
			<path d="M560.4,211.6c0,0.9-0.2,1.7-0.6,2.3s-0.9,1-1.6,1.1l1.5,1.6H559l-1.3-1.5l-0.2,0h-0.1c-0.9,0-1.7-0.3-2.2-0.9
				c-0.5-0.6-0.8-1.5-0.8-2.6c0-1.1,0.3-1.9,0.8-2.5s1.3-0.9,2.2-0.9c0.9,0,1.7,0.3,2.2,0.9C560.2,209.7,560.4,210.5,560.4,211.6z
				 M554.9,211.6c0,1,0.2,1.7,0.6,2.3c0.4,0.5,1.1,0.8,1.9,0.8c0.8,0,1.4-0.3,1.9-0.8c0.4-0.5,0.6-1.3,0.6-2.3c0-1-0.2-1.7-0.6-2.2
				c-0.4-0.5-1.1-0.8-1.9-0.8c-0.8,0-1.4,0.3-1.9,0.8S554.9,210.7,554.9,211.6z"/>
			<path d="M567.7,208.2v4.4c0,0.8-0.2,1.4-0.7,1.8c-0.5,0.4-1.1,0.7-1.9,0.7c-0.8,0-1.4-0.2-1.8-0.7c-0.4-0.4-0.7-1.1-0.7-1.8v-4.4
				h0.5v4.4c0,0.7,0.2,1.2,0.5,1.5c0.4,0.4,0.9,0.5,1.5,0.5c0.6,0,1.1-0.2,1.5-0.5s0.5-0.9,0.5-1.5v-4.4H567.7z"/>
			<path d="M570.2,215v-6.8h0.5v6.8H570.2z"/>
			<path d="M577.5,215h-4.7v-0.4l4-6h-3.8v-0.4h4.4v0.4l-4,6h4.1V215z"/>
			<path d="M463.7,224.8c0-0.3,0.1-0.5,0.2-0.6s0.3-0.2,0.5-0.2c0.2,0,0.4,0.1,0.5,0.2c0.1,0.1,0.2,0.4,0.2,0.6
				c0,0.3-0.1,0.5-0.2,0.6c-0.1,0.1-0.3,0.2-0.5,0.2s-0.4-0.1-0.5-0.2C463.7,225.3,463.7,225.1,463.7,224.8z"/>
			<path d="M471.5,225.4v3H471v-6.8h1.6c0.8,0,1.5,0.2,1.9,0.5s0.6,0.8,0.6,1.4c0,0.5-0.1,0.8-0.4,1.2c-0.2,0.3-0.6,0.5-1.1,0.7
				l1.8,3.1h-0.6l-1.7-3H471.5z M471.5,225h1.3c0.6,0,1-0.1,1.3-0.4c0.3-0.3,0.5-0.6,0.5-1.1c0-0.5-0.2-0.9-0.5-1.1
				s-0.8-0.4-1.5-0.4h-1.1V225z"/>
			<path d="M481.1,228.3h-3.7v-6.8h3.7v0.4h-3.2v2.6h3.1v0.4h-3.1v2.9h3.2V228.3z"/>
			<path d="M486.3,228.3l-2.5-6.3h0c0,0.4,0,0.8,0,1.2v5.1h-0.5v-6.8h0.7l2.4,6h0l2.4-6h0.7v6.8h-0.5v-5.1c0-0.4,0-0.7,0.1-1.1h0
				l-2.5,6.2H486.3z"/>
			<path d="M497.9,224.9c0,1.1-0.3,1.9-0.8,2.6c-0.5,0.6-1.3,0.9-2.2,0.9c-0.9,0-1.7-0.3-2.2-0.9c-0.5-0.6-0.8-1.5-0.8-2.6
				c0-1.1,0.3-1.9,0.8-2.5c0.5-0.6,1.3-0.9,2.2-0.9c0.9,0,1.7,0.3,2.2,0.9C497.7,223,497.9,223.8,497.9,224.9z M492.4,224.9
				c0,1,0.2,1.7,0.6,2.2c0.4,0.5,1.1,0.8,1.9,0.8c0.8,0,1.4-0.3,1.9-0.8c0.4-0.5,0.6-1.3,0.6-2.3c0-1-0.2-1.7-0.6-2.2
				c-0.4-0.5-1.1-0.8-1.9-0.8c-0.8,0-1.4,0.3-1.9,0.8S492.4,223.9,492.4,224.9z"/>
			<path d="M504.2,221.5h0.5l-2.5,6.8h-0.4l-2.5-6.8h0.5l1.7,4.6c0.3,0.7,0.4,1.2,0.5,1.6c0.1-0.2,0.2-0.6,0.4-1.1L504.2,221.5z"/>
			<path d="M510.1,228.3h-3.7v-6.8h3.7v0.4h-3.2v2.6h3.1v0.4h-3.1v2.9h3.2V228.3z"/>
			<path d="M517.3,228.3h-0.5V222h-2.2v-0.4h4.9v0.4h-2.2V228.3z"/>
			<path d="M524.5,225.9h-2.8l-0.9,2.4h-0.5l2.7-6.8h0.3l2.7,6.8h-0.5L524.5,225.9z M521.9,225.5h2.4l-0.9-2.4
				c-0.1-0.2-0.2-0.5-0.3-0.8c-0.1,0.3-0.2,0.6-0.3,0.8L521.9,225.5z"/>
			<path d="M532.6,228.3h-0.5l-4-6h0c0,0.7,0.1,1.3,0.1,1.6v4.4h-0.5v-6.8h0.5l4,6h0c0-0.6,0-1.1,0-1.6v-4.4h0.5V228.3z"/>
			<path d="M537.8,224.9h2.5v3.1c-0.7,0.3-1.4,0.4-2.2,0.4c-1.1,0-1.9-0.3-2.5-0.9c-0.6-0.6-0.9-1.5-0.9-2.6c0-0.7,0.1-1.3,0.4-1.8
				s0.7-0.9,1.2-1.2c0.5-0.3,1.1-0.4,1.8-0.4c0.7,0,1.4,0.1,2,0.4l-0.2,0.4c-0.6-0.3-1.2-0.4-1.8-0.4c-0.9,0-1.6,0.3-2.1,0.8
				c-0.5,0.6-0.8,1.3-0.8,2.2c0,1,0.2,1.8,0.7,2.3c0.5,0.5,1.2,0.8,2.2,0.8c0.6,0,1.2-0.1,1.6-0.3v-2.4h-2V224.9z"/>
			<path d="M542.8,228.3v-6.8h0.5v6.8H542.8z"/>
			<path d="M545.9,221.5h1.9c0.8,0,1.5,0.1,1.8,0.4c0.4,0.3,0.6,0.7,0.6,1.3c0,0.4-0.1,0.7-0.4,1c-0.2,0.3-0.6,0.4-1,0.5v0
				c0.5,0.1,0.9,0.3,1.2,0.5c0.3,0.3,0.4,0.6,0.4,1.1c0,0.6-0.2,1.1-0.6,1.4c-0.4,0.3-1,0.5-1.8,0.5h-2.1V221.5z M546.3,224.6h1.5
				c0.6,0,1.1-0.1,1.4-0.3s0.4-0.5,0.4-1s-0.2-0.8-0.5-1c-0.3-0.2-0.8-0.3-1.5-0.3h-1.4V224.6z M546.3,225v2.9h1.6
				c1.3,0,1.9-0.5,1.9-1.5c0-0.9-0.7-1.4-2-1.4H546.3z"/>
			<path d="M552.5,228.3v-6.8h0.5v6.3h3.2v0.4H552.5z"/>
			<path d="M561.8,228.3h-3.7v-6.8h3.7v0.4h-3.2v2.6h3.1v0.4h-3.1v2.9h3.2V228.3z"/>
			<path d="M490.5,238.7v3H490v-6.8h1.6c0.8,0,1.5,0.2,1.9,0.5c0.4,0.3,0.6,0.8,0.6,1.4c0,0.5-0.1,0.8-0.4,1.2s-0.6,0.5-1.1,0.7
				l1.8,3.1h-0.6l-1.7-3H490.5z M490.5,238.2h1.3c0.6,0,1-0.1,1.3-0.4c0.3-0.3,0.5-0.6,0.5-1.1c0-0.5-0.2-0.9-0.5-1.1
				c-0.3-0.2-0.8-0.4-1.5-0.4h-1.1V238.2z"/>
			<path d="M500.1,241.6h-3.7v-6.8h3.7v0.4h-3.2v2.6h3.1v0.4h-3.1v2.9h3.2V241.6z"/>
			<path d="M507.7,241.6h-0.4l-1.5-5.2c-0.1-0.4-0.2-0.8-0.3-1.1c0,0.3-0.1,0.6-0.2,0.9c-0.1,0.3-0.6,2.1-1.5,5.4h-0.4l-1.9-6.8h0.5
				l1.2,4.4c0,0.2,0.1,0.3,0.1,0.5c0,0.2,0.1,0.3,0.1,0.4c0,0.1,0.1,0.3,0.1,0.4c0,0.1,0.1,0.2,0.1,0.4c0.1-0.4,0.2-1.1,0.5-1.9
				l1.2-4.1h0.5l1.4,4.7c0.2,0.5,0.3,1,0.3,1.3c0-0.2,0.1-0.5,0.2-0.7c0.1-0.2,0.5-2,1.4-5.3h0.5L507.7,241.6z"/>
			<path d="M514.8,239.2H512l-0.9,2.4h-0.5l2.7-6.8h0.3l2.7,6.8h-0.5L514.8,239.2z M512.2,238.8h2.4l-0.9-2.4
				c-0.1-0.2-0.2-0.5-0.3-0.8c-0.1,0.3-0.2,0.6-0.3,0.8L512.2,238.8z"/>
			<path d="M518.4,238.7v3h-0.5v-6.8h1.6c0.8,0,1.5,0.2,1.9,0.5s0.6,0.8,0.6,1.4c0,0.5-0.1,0.8-0.4,1.2c-0.2,0.3-0.6,0.5-1.1,0.7
				l1.8,3.1h-0.6l-1.7-3H518.4z M518.4,238.2h1.3c0.6,0,1-0.1,1.3-0.4c0.3-0.3,0.5-0.6,0.5-1.1c0-0.5-0.2-0.9-0.5-1.1
				c-0.3-0.2-0.8-0.4-1.5-0.4h-1.1V238.2z"/>
			<path d="M529.4,238.2c0,1.1-0.3,2-0.9,2.6c-0.6,0.6-1.5,0.9-2.6,0.9h-1.6v-6.8h1.8c1.1,0,1.9,0.3,2.5,0.8
				S529.4,237.1,529.4,238.2z M528.9,238.2c0-1-0.2-1.7-0.7-2.2c-0.5-0.5-1.2-0.7-2.2-0.7h-1.2v5.9h1.1
				C527.9,241.2,528.9,240.2,528.9,238.2z"/>
			<path d="M535.4,239.9c0,0.6-0.2,1-0.6,1.3c-0.4,0.3-1,0.5-1.7,0.5c-0.8,0-1.5-0.1-1.9-0.3V241c0.5,0.2,1.1,0.3,1.9,0.3
				c0.6,0,1-0.1,1.3-0.4c0.3-0.3,0.5-0.6,0.5-1c0-0.3-0.1-0.5-0.2-0.6c-0.1-0.2-0.3-0.3-0.5-0.5s-0.6-0.3-1.1-0.4
				c-0.7-0.2-1.2-0.5-1.4-0.8c-0.3-0.3-0.4-0.6-0.4-1.1c0-0.5,0.2-0.9,0.6-1.2c0.4-0.3,0.9-0.5,1.5-0.5c0.6,0,1.2,0.1,1.8,0.4
				l-0.2,0.4c-0.6-0.2-1.1-0.4-1.6-0.4c-0.5,0-0.9,0.1-1.2,0.3c-0.3,0.2-0.4,0.5-0.4,0.9c0,0.2,0,0.5,0.1,0.6
				c0.1,0.2,0.2,0.3,0.4,0.4c0.2,0.1,0.6,0.3,1.1,0.5c0.5,0.2,0.9,0.4,1.2,0.5c0.3,0.2,0.5,0.4,0.6,0.6
				C535.4,239.3,535.4,239.5,535.4,239.9z"/>
		</g>
	</g>
	<g>
		<path fill="#5D5E5E" d="M185.9,107.8h-7.3v-5.2h7.3v-7.2h5.3v7.2h7.3v5.2h-7.3v7.1h-5.3V107.8z"/>
	</g>
	<g>
		<path fill="#5D5E5E" d="M402.1,105h-7.3v-5.2h7.3v-7.2h5.3v7.2h7.3v5.2h-7.3v7.1h-5.3V105z"/>
	</g>
	<g>
		<path fill="#5D5E5E" d="M618.3,106.2H611V101h7.3v-7.2h5.3v7.2h7.3v5.2h-7.3v7.1h-5.3V106.2z"/>
	</g>
</g>
</svg>
