<?xml version="1.0" encoding="utf-8"?>
<!-- Generator: Adobe Illustrator 18.1.1, SVG Export Plug-In . SVG Version: 6.00 Build 0)  -->
<!DOCTYPE svg PUBLIC "-//W3C//DTD SVG 1.1//EN" "http://www.w3.org/Graphics/SVG/1.1/DTD/svg11.dtd">
<svg version="1.1" id="Layer_1" xmlns="http://www.w3.org/2000/svg" xmlns:xlink="http://www.w3.org/1999/xlink" x="0px" y="0px"
	 viewBox="0 0 417.8 441.4" enable-background="new 0 0 417.8 441.4" xml:space="preserve">
<circle fill="#CE7065" cx="92.1" cy="92.1" r="92.1"/>
<circle fill="#CE7065" cx="325.7" cy="92.1" r="92.1"/>
<circle fill="#CE7065" cx="92.1" cy="311.2" r="92.1"/>
<circle fill="#CE7065" cx="325.6" cy="311.2" r="92.1"/>
<g>
	<path fill="#FFFFFF" d="M60.6,88.3c-1,0-1.7,0.3-2.3,1c-0.6,0.7-0.8,1.6-0.8,2.8c0,1.3,0.3,2.2,0.8,2.9c0.5,0.6,1.3,1,2.3,1
		c0.4,0,0.9,0,1.3-0.1s0.8-0.2,1.3-0.3v1.4c-0.8,0.3-1.7,0.5-2.7,0.5c-1.5,0-2.7-0.5-3.5-1.4c-0.8-0.9-1.2-2.2-1.2-3.9
		c0-1.1,0.2-2,0.6-2.8c0.4-0.8,1-1.4,1.7-1.8c0.7-0.4,1.6-0.6,2.6-0.6c1.1,0,2,0.2,2.9,0.7l-0.6,1.4c-0.3-0.2-0.7-0.3-1.1-0.4
		S61,88.3,60.6,88.3z"/>
	<path fill="#FFFFFF" d="M75.6,92.1c0,1.7-0.4,3-1.3,3.9c-0.8,0.9-2,1.4-3.6,1.4c-1.6,0-2.7-0.5-3.6-1.4s-1.2-2.2-1.2-3.9
		s0.4-3,1.3-3.9c0.8-0.9,2-1.4,3.6-1.4c1.5,0,2.7,0.5,3.5,1.4C75.1,89.1,75.6,90.4,75.6,92.1z M67.7,92.1c0,1.3,0.3,2.2,0.8,2.9
		c0.5,0.7,1.3,1,2.3,1c1,0,1.8-0.3,2.3-1c0.5-0.6,0.8-1.6,0.8-2.9c0-1.3-0.3-2.2-0.8-2.9s-1.3-1-2.3-1c-1,0-1.8,0.3-2.3,1
		C68,89.9,67.7,90.8,67.7,92.1z"/>
	<path fill="#FFFFFF" d="M87.4,97.2h-2.1l-5.1-8.2h-0.1l0,0.5c0.1,0.9,0.1,1.7,0.1,2.4v5.3h-1.5V87h2l5,8.1h0c0-0.1,0-0.5-0.1-1.2
		c0-0.7,0-1.2,0-1.6V87h1.5V97.2z"/>
	<path fill="#FFFFFF" d="M94.7,97.2h-1.7v-8.8h-3V87h7.7v1.4h-3V97.2z"/>
	<path fill="#FFFFFF" d="M106.2,97.2h-5.8V87h5.8v1.4h-4.1v2.8h3.9v1.4h-3.9v3.2h4.1V97.2z"/>
	<path fill="#FFFFFF" d="M118.1,97.2H116l-5.1-8.2h-0.1l0,0.5c0.1,0.9,0.1,1.7,0.1,2.4v5.3h-1.5V87h2l5,8.1h0c0-0.1,0-0.5-0.1-1.2
		c0-0.7,0-1.2,0-1.6V87h1.5V97.2z"/>
	<path fill="#FFFFFF" d="M125.5,97.2h-1.7v-8.8h-3V87h7.7v1.4h-3V97.2z"/>
</g>
<g>
	<path fill="#5D5E5E" d="M205.7,101.2h-9v-6.5h9v-8.8h6.5v8.8h9v6.5h-9v8.7h-6.5V101.2z"/>
</g>
<g>
	<path fill="#5D5E5E" d="M205.6,314.5h-9V308h9v-8.8h6.5v8.8h9v6.5h-9v8.7h-6.5V314.5z"/>
</g>
<g>
	<path fill="#FFFFFF" d="M271.2,82.8V72.6h1.7v10.3H271.2z"/>
	<path fill="#FFFFFF" d="M285.2,82.8h-2.1l-5.1-8.2h-0.1l0,0.5c0.1,0.9,0.1,1.7,0.1,2.4v5.3h-1.5V72.6h2l5,8.1h0
		c0-0.1,0-0.5-0.1-1.2c0-0.7,0-1.2,0-1.6v-5.4h1.5V82.8z"/>
	<path fill="#FFFFFF" d="M290.7,82.8H289V72.6h5.8V74h-4.1v3.2h3.9v1.4h-3.9V82.8z"/>
	<path fill="#FFFFFF" d="M306.9,77.7c0,1.7-0.4,3-1.3,3.9c-0.8,0.9-2,1.4-3.6,1.4c-1.6,0-2.7-0.5-3.6-1.4s-1.2-2.2-1.2-3.9
		s0.4-3,1.3-3.9c0.8-0.9,2-1.4,3.6-1.4c1.5,0,2.7,0.5,3.5,1.4C306.5,74.7,306.9,76,306.9,77.7z M299.1,77.7c0,1.3,0.3,2.2,0.8,2.9
		c0.5,0.7,1.3,1,2.3,1c1,0,1.8-0.3,2.3-1c0.5-0.6,0.8-1.6,0.8-2.9c0-1.3-0.3-2.2-0.8-2.9s-1.3-1-2.3-1c-1,0-1.8,0.3-2.3,1
		C299.3,75.5,299.1,76.4,299.1,77.7z"/>
	<path fill="#FFFFFF" d="M311.9,78.7v4.1h-1.7V72.6h2.9c1.3,0,2.3,0.2,2.9,0.7s1,1.2,1,2.2c0,1.3-0.7,2.2-2,2.7l2.9,4.5H316
		l-2.5-4.1H311.9z M311.9,77.3h1.2c0.8,0,1.3-0.1,1.7-0.4c0.4-0.3,0.5-0.7,0.5-1.3c0-0.6-0.2-1-0.6-1.3s-1-0.4-1.7-0.4h-1.1V77.3z"
		/>
	<path fill="#FFFFFF" d="M324.9,82.8l-3-8.6h-0.1c0.1,1.3,0.1,2.5,0.1,3.6v5h-1.5V72.6h2.4l2.9,8.2h0l2.9-8.2h2.4v10.3h-1.6v-5.1
		c0-0.5,0-1.2,0-2c0-0.8,0-1.3,0.1-1.5h-0.1l-3.1,8.6H324.9z"/>
	<path fill="#FFFFFF" d="M341.2,82.8l-1-2.9h-3.9l-1,2.9h-1.8l3.8-10.3h1.8l3.8,10.3H341.2z M339.8,78.5l-1-2.8
		c-0.1-0.2-0.2-0.5-0.3-0.9s-0.2-0.7-0.3-0.9c-0.1,0.6-0.3,1.2-0.6,1.9l-0.9,2.7H339.8z"/>
	<path fill="#FFFFFF" d="M349,82.8h-1.7V74h-3v-1.4h7.7V74h-3V82.8z"/>
	<path fill="#FFFFFF" d="M354.7,82.8V72.6h1.7v10.3H354.7z"/>
	<path fill="#FFFFFF" d="M369.3,77.7c0,1.7-0.4,3-1.3,3.9c-0.8,0.9-2,1.4-3.6,1.4c-1.6,0-2.7-0.5-3.6-1.4s-1.2-2.2-1.2-3.9
		s0.4-3,1.3-3.9c0.8-0.9,2-1.4,3.6-1.4c1.5,0,2.7,0.5,3.5,1.4C368.9,74.7,369.3,76,369.3,77.7z M361.4,77.7c0,1.3,0.3,2.2,0.8,2.9
		c0.5,0.7,1.3,1,2.3,1c1,0,1.8-0.3,2.3-1c0.5-0.6,0.8-1.6,0.8-2.9c0-1.3-0.3-2.2-0.8-2.9s-1.3-1-2.3-1c-1,0-1.8,0.3-2.3,1
		C361.7,75.5,361.4,76.4,361.4,77.7z"/>
	<path fill="#FFFFFF" d="M381.1,82.8h-2.1l-5.1-8.2H374l0,0.5c0.1,0.9,0.1,1.7,0.1,2.4v5.3h-1.5V72.6h2l5,8.1h0c0-0.1,0-0.5-0.1-1.2
		c0-0.7,0-1.2,0-1.6v-5.4h1.5V82.8z"/>
	<path fill="#FFFFFF" d="M275.7,111.6l-1-2.9h-3.9l-1,2.9H268l3.8-10.3h1.8l3.8,10.3H275.7z M274.3,107.3l-1-2.8
		c-0.1-0.2-0.2-0.5-0.3-0.9s-0.2-0.7-0.3-0.9c-0.1,0.6-0.3,1.2-0.6,1.9l-0.9,2.7H274.3z"/>
	<path fill="#FFFFFF" d="M281.6,107.5v4.1H280v-10.3h2.9c1.3,0,2.3,0.2,2.9,0.7s1,1.2,1,2.2c0,1.3-0.7,2.2-2,2.7l2.9,4.5h-1.9
		l-2.5-4.1H281.6z M281.6,106.1h1.2c0.8,0,1.3-0.1,1.7-0.4c0.4-0.3,0.5-0.7,0.5-1.3c0-0.6-0.2-1-0.6-1.3s-1-0.4-1.7-0.4h-1.1V106.1z
		"/>
	<path fill="#FFFFFF" d="M294.6,102.7c-1,0-1.7,0.3-2.3,1c-0.6,0.7-0.8,1.6-0.8,2.8c0,1.3,0.3,2.2,0.8,2.9c0.5,0.6,1.3,1,2.3,1
		c0.4,0,0.9,0,1.3-0.1s0.8-0.2,1.3-0.3v1.4c-0.8,0.3-1.7,0.5-2.7,0.5c-1.5,0-2.7-0.5-3.5-1.4c-0.8-0.9-1.2-2.2-1.2-3.9
		c0-1.1,0.2-2,0.6-2.8c0.4-0.8,1-1.4,1.7-1.8c0.7-0.4,1.6-0.6,2.6-0.6c1.1,0,2,0.2,2.9,0.7l-0.6,1.4c-0.3-0.2-0.7-0.3-1.1-0.4
		S295,102.7,294.6,102.7z"/>
	<path fill="#FFFFFF" d="M308.6,111.6h-1.7V107h-4.7v4.6h-1.7v-10.3h1.7v4.2h4.7v-4.2h1.7V111.6z"/>
	<path fill="#FFFFFF" d="M312.3,111.6v-10.3h1.7v10.3H312.3z"/>
	<path fill="#FFFFFF" d="M321.4,111.6h-1.7v-8.8h-3v-1.4h7.7v1.4h-3V111.6z"/>
	<path fill="#FFFFFF" d="M332.9,111.6H327v-10.3h5.8v1.4h-4.1v2.8h3.9v1.4h-3.9v3.2h4.1V111.6z"/>
	<path fill="#FFFFFF" d="M340.5,102.7c-1,0-1.7,0.3-2.3,1c-0.6,0.7-0.8,1.6-0.8,2.8c0,1.3,0.3,2.2,0.8,2.9c0.5,0.6,1.3,1,2.3,1
		c0.4,0,0.9,0,1.3-0.1s0.8-0.2,1.3-0.3v1.4c-0.8,0.3-1.7,0.5-2.7,0.5c-1.5,0-2.7-0.5-3.5-1.4c-0.8-0.9-1.2-2.2-1.2-3.9
		c0-1.1,0.2-2,0.6-2.8c0.4-0.8,1-1.4,1.7-1.8c0.7-0.4,1.6-0.6,2.6-0.6c1.1,0,2,0.2,2.9,0.7l-0.6,1.4c-0.3-0.2-0.7-0.3-1.1-0.4
		S341,102.7,340.5,102.7z"/>
	<path fill="#FFFFFF" d="M349.9,111.6h-1.7v-8.8h-3v-1.4h7.7v1.4h-3V111.6z"/>
	<path fill="#FFFFFF" d="M363.7,101.4v6.7c0,0.8-0.2,1.4-0.5,2c-0.3,0.6-0.8,1-1.4,1.3c-0.6,0.3-1.4,0.5-2.2,0.5c-1.3,0-2.3-0.3-3-1
		s-1.1-1.6-1.1-2.8v-6.6h1.7v6.5c0,0.8,0.2,1.5,0.6,1.9s1,0.6,1.8,0.6c1.6,0,2.4-0.8,2.4-2.5v-6.5H363.7z"/>
	<path fill="#FFFFFF" d="M369,107.5v4.1h-1.7v-10.3h2.9c1.3,0,2.3,0.2,2.9,0.7s1,1.2,1,2.2c0,1.3-0.7,2.2-2,2.7l2.9,4.5h-1.9
		l-2.5-4.1H369z M369,106.1h1.2c0.8,0,1.3-0.1,1.7-0.4c0.4-0.3,0.5-0.7,0.5-1.3c0-0.6-0.2-1-0.6-1.3s-1-0.4-1.7-0.4H369V106.1z"/>
	<path fill="#FFFFFF" d="M383.5,111.6h-5.8v-10.3h5.8v1.4h-4.1v2.8h3.9v1.4h-3.9v3.2h4.1V111.6z"/>
</g>
<g>
	<g>
		<path fill="#FFFFFF" d="M23.9,303.8h-1.7v-10.3H28v1.4h-4.1v3.2h3.9v1.4h-3.9V303.8z"/>
		<path fill="#FFFFFF" d="M31,303.8v-10.3h1.7v8.8H37v1.4H31z"/>
		<path fill="#FFFFFF" d="M49,298.6c0,1.7-0.4,3-1.3,3.9s-2,1.4-3.6,1.4c-1.6,0-2.7-0.5-3.6-1.4c-0.8-0.9-1.2-2.2-1.2-3.9
			s0.4-3,1.3-3.9c0.8-0.9,2-1.4,3.6-1.4c1.5,0,2.7,0.5,3.5,1.4C48.6,295.6,49,296.9,49,298.6z M41.1,298.6c0,1.3,0.3,2.2,0.8,2.9
			s1.3,1,2.3,1c1,0,1.8-0.3,2.3-1c0.5-0.6,0.8-1.6,0.8-2.9c0-1.3-0.3-2.2-0.8-2.9c-0.5-0.7-1.3-1-2.3-1c-1,0-1.8,0.3-2.3,1
			C41.4,296.4,41.1,297.4,41.1,298.6z"/>
		<path fill="#FFFFFF" d="M61.7,303.8h-1.8l-1.7-6.1c-0.1-0.3-0.2-0.7-0.3-1.2s-0.2-0.9-0.2-1.1c0,0.3-0.1,0.7-0.2,1.2
			s-0.2,0.8-0.3,1.1l-1.7,6.1h-1.8l-1.3-5.1l-1.4-5.1h1.7l1.5,6c0.2,1,0.4,1.8,0.5,2.5c0.1-0.4,0.1-0.8,0.2-1.3
			c0.1-0.5,0.2-0.9,0.3-1.2l1.7-6h1.7l1.7,6c0.2,0.6,0.3,1.4,0.5,2.5c0.1-0.7,0.2-1.5,0.5-2.6l1.5-6h1.7L61.7,303.8z"/>
		<path fill="#FFFFFF" d="M80.9,298.6c0,1.7-0.4,3-1.3,3.9s-2,1.4-3.6,1.4c-1.6,0-2.7-0.5-3.6-1.4c-0.8-0.9-1.2-2.2-1.2-3.9
			s0.4-3,1.3-3.9c0.8-0.9,2-1.4,3.6-1.4c1.5,0,2.7,0.5,3.5,1.4C80.5,295.6,80.9,296.9,80.9,298.6z M73.1,298.6
			c0,1.3,0.3,2.2,0.8,2.9s1.3,1,2.3,1c1,0,1.8-0.3,2.3-1c0.5-0.6,0.8-1.6,0.8-2.9c0-1.3-0.3-2.2-0.8-2.9c-0.5-0.7-1.3-1-2.3-1
			c-1,0-1.8,0.3-2.3,1C73.3,296.4,73.1,297.4,73.1,298.6z"/>
		<path fill="#FFFFFF" d="M85.9,303.8h-1.7v-10.3H90v1.4h-4.1v3.2h3.9v1.4h-3.9V303.8z"/>
		<path fill="#FFFFFF" d="M101.3,303.8h-1.7v-8.8h-3v-1.4h7.7v1.4h-3V303.8z"/>
		<path fill="#FFFFFF" d="M115.1,303.8h-1.7v-4.6h-4.7v4.6H107v-10.3h1.7v4.2h4.7v-4.2h1.7V303.8z"/>
		<path fill="#FFFFFF" d="M124.7,303.8h-5.8v-10.3h5.8v1.4h-4.1v2.8h3.9v1.4h-3.9v3.2h4.1V303.8z"/>
		<path fill="#FFFFFF" d="M138.7,301c0,0.9-0.3,1.6-1,2.2c-0.7,0.5-1.6,0.8-2.7,0.8c-1.2,0-2.1-0.2-2.9-0.5v-1.6
			c0.5,0.2,1,0.4,1.5,0.5c0.5,0.1,1,0.2,1.5,0.2c0.7,0,1.2-0.1,1.5-0.4c0.3-0.3,0.5-0.6,0.5-1c0-0.4-0.1-0.7-0.4-1
			c-0.3-0.3-0.9-0.6-1.8-0.9c-0.9-0.4-1.6-0.8-2-1.3c-0.4-0.5-0.6-1.1-0.6-1.8c0-0.9,0.3-1.5,0.9-2s1.4-0.7,2.5-0.7
			c1,0,2,0.2,2.9,0.6l-0.5,1.4c-0.9-0.4-1.7-0.6-2.4-0.6c-0.5,0-1,0.1-1.2,0.4s-0.4,0.5-0.4,0.9c0,0.3,0.1,0.5,0.2,0.7
			c0.1,0.2,0.3,0.4,0.6,0.5c0.3,0.2,0.7,0.4,1.4,0.7c0.8,0.3,1.3,0.6,1.7,0.9s0.6,0.6,0.8,0.9C138.7,300.1,138.7,300.5,138.7,301z"
			/>
		<path fill="#FFFFFF" d="M141.8,303.8v-10.3h1.7v10.3H141.8z"/>
		<path fill="#FFFFFF" d="M150.8,303.8h-1.7v-8.8h-3v-1.4h7.7v1.4h-3V303.8z"/>
		<path fill="#FFFFFF" d="M162.3,303.8h-5.8v-10.3h5.8v1.4h-4.1v2.8h3.9v1.4h-3.9v3.2h4.1V303.8z"/>
	</g>
	<g>
		<path fill="#FFFFFF" d="M19.1,329c-0.5-0.8-0.9-1.5-1-2.2c-0.2-0.7-0.3-1.4-0.3-2c0-1,0.1-1.9,0.3-2.8c0.2-0.9,0.5-1.7,0.9-2.5
			c0.4-0.8,0.8-1.5,1.3-2.1c0.5-0.6,1-1.2,1.5-1.7l0.5,0.5c-0.5,0.6-1,1.2-1.4,1.9c-0.4,0.7-0.8,1.4-1.1,2.1s-0.5,1.5-0.7,2.2
			c-0.2,0.8-0.2,1.5-0.2,2.3c0,0.6,0.1,1.2,0.2,1.9c0.1,0.7,0.3,1.3,0.7,2L19.1,329z"/>
		<path fill="#FFFFFF" d="M22.9,322.2c0-0.9,0.1-1.7,0.4-2.5c0.2-0.8,0.6-1.5,1-2.1c0.4-0.6,1-1.1,1.6-1.4c0.6-0.3,1.3-0.5,2.1-0.5
			c0.5,0,0.9,0.1,1.3,0.2s0.7,0.4,1,0.7s0.5,0.7,0.7,1.2s0.2,1.1,0.2,1.8c0,0.9-0.1,1.8-0.4,2.6c-0.2,0.8-0.6,1.5-1,2.1
			c-0.4,0.6-0.9,1.1-1.5,1.4c-0.6,0.4-1.3,0.5-2,0.5c-1.1,0-2-0.3-2.5-1C23.2,324.4,22.9,323.4,22.9,322.2z M24.1,322.2
			c0,0.9,0.2,1.6,0.6,2.1c0.4,0.5,0.9,0.7,1.7,0.7c0.5,0,1-0.1,1.5-0.4s0.8-0.7,1.2-1.2c0.3-0.5,0.6-1.1,0.8-1.8s0.3-1.4,0.3-2.1
			c0-0.6-0.1-1-0.2-1.4s-0.3-0.7-0.5-0.9c-0.2-0.2-0.4-0.3-0.7-0.4c-0.3-0.1-0.5-0.1-0.8-0.1c-0.5,0-1,0.2-1.5,0.5
			c-0.5,0.3-0.8,0.7-1.2,1.2c-0.3,0.5-0.6,1.1-0.8,1.8C24.2,320.8,24.1,321.5,24.1,322.2z"/>
		<path fill="#FFFFFF" d="M37.1,325.9l1-4.6c0-0.2,0.1-0.3,0.1-0.5c0-0.2,0-0.3,0-0.5c0-0.3-0.1-0.5-0.2-0.7
			c-0.1-0.2-0.4-0.3-0.7-0.3c-0.2,0-0.5,0.1-0.7,0.2c-0.2,0.1-0.5,0.3-0.7,0.4c-0.2,0.2-0.4,0.4-0.6,0.6c-0.2,0.2-0.3,0.4-0.4,0.6
			l-1,4.6h-1.1l1.5-7.2h0.7l-0.1,1.2h0.1c0.1-0.2,0.3-0.3,0.4-0.5s0.4-0.3,0.6-0.5s0.5-0.2,0.7-0.3c0.3-0.1,0.6-0.1,0.9-0.1
			c0.5,0,0.9,0.1,1.1,0.3s0.4,0.6,0.4,1.2c0,0.3,0,0.6-0.1,1l-1,4.8H37.1z"/>
		<path fill="#FFFFFF" d="M42.1,321.2h3.3l-0.2,1h-3.3L42.1,321.2z"/>
		<path fill="#FFFFFF" d="M49.6,315.8h1.1l-0.9,4.1h0.1c0.1-0.2,0.3-0.3,0.5-0.5s0.4-0.3,0.6-0.5c0.2-0.1,0.4-0.2,0.7-0.3
			c0.2-0.1,0.5-0.1,0.8-0.1c0.6,0,1,0.2,1.2,0.6c0.3,0.4,0.4,0.9,0.4,1.5c0,0.9-0.1,1.6-0.4,2.3c-0.2,0.7-0.6,1.2-1,1.7
			c-0.4,0.5-0.8,0.8-1.3,1.1s-1,0.4-1.5,0.4c-0.5,0-1-0.1-1.4-0.2c-0.4-0.1-0.7-0.2-0.9-0.4L49.6,315.8z M52,319.4
			c-0.2,0-0.5,0.1-0.7,0.2c-0.2,0.1-0.5,0.3-0.7,0.5c-0.2,0.2-0.4,0.4-0.6,0.6c-0.2,0.2-0.3,0.5-0.5,0.7l-0.7,3.4
			c0.3,0.2,0.7,0.3,1.2,0.3c0.3,0,0.6-0.1,1-0.3c0.3-0.2,0.6-0.5,0.9-0.8c0.3-0.4,0.5-0.8,0.7-1.3s0.3-1.1,0.3-1.8
			c0-0.5-0.1-0.9-0.2-1.1C52.5,319.5,52.3,319.4,52,319.4z"/>
		<path fill="#FFFFFF" d="M56.2,323.6c0-0.8,0.1-1.5,0.3-2.1c0.2-0.6,0.5-1.2,0.8-1.6s0.7-0.8,1.2-1.1c0.5-0.2,0.9-0.4,1.5-0.4
			c0.4,0,0.7,0.1,1,0.2c0.3,0.1,0.5,0.3,0.7,0.5c0.2,0.2,0.3,0.5,0.4,0.8c0.1,0.3,0.1,0.6,0.1,0.9c0,0.7-0.1,1.4-0.3,2
			c-0.2,0.6-0.4,1.2-0.8,1.6s-0.7,0.8-1.2,1.1c-0.4,0.3-0.9,0.4-1.4,0.4c-0.4,0-0.8-0.1-1.1-0.2c-0.3-0.1-0.5-0.3-0.7-0.6
			c-0.2-0.2-0.3-0.5-0.4-0.8C56.3,324.2,56.2,323.9,56.2,323.6z M57.4,323.4c0,0.6,0.1,1,0.3,1.3s0.5,0.5,1,0.5
			c0.3,0,0.6-0.1,0.9-0.3c0.3-0.2,0.5-0.5,0.7-0.9s0.4-0.8,0.5-1.3c0.1-0.5,0.2-1,0.2-1.5c0-0.5-0.1-0.9-0.3-1.2s-0.5-0.4-1-0.4
			c-0.3,0-0.6,0.1-0.9,0.3c-0.3,0.2-0.5,0.5-0.8,0.9c-0.2,0.4-0.4,0.8-0.5,1.3C57.5,322.4,57.4,322.8,57.4,323.4z"/>
		<path fill="#FFFFFF" d="M69.7,323c-0.1,0.4-0.1,0.7-0.2,1.1c0,0.4,0,0.7,0,1c0,0.1,0,0.3,0,0.4s0,0.2,0,0.4h-0.8l-0.2-1.3h-0.1
			c-0.1,0.2-0.3,0.3-0.4,0.5c-0.2,0.2-0.4,0.3-0.6,0.5c-0.2,0.1-0.4,0.2-0.6,0.3c-0.2,0.1-0.5,0.1-0.7,0.1c-1.1,0-1.7-0.7-1.7-2.2
			c0-0.6,0.1-1.2,0.2-1.9s0.4-1.2,0.7-1.7c0.3-0.5,0.8-0.9,1.3-1.3s1.2-0.5,1.9-0.5c0.3,0,0.6,0,1,0.1s0.8,0.1,1.1,0.3L69.7,323z
			 M66.5,325.1c0.2,0,0.5-0.1,0.7-0.2c0.2-0.1,0.4-0.2,0.6-0.4c0.2-0.2,0.4-0.3,0.5-0.5c0.1-0.2,0.3-0.4,0.3-0.5l0.8-3.9
			c-0.3-0.1-0.7-0.2-1.1-0.2s-0.8,0.1-1.2,0.4c-0.3,0.3-0.6,0.6-0.8,1s-0.4,0.9-0.5,1.4c-0.1,0.5-0.2,1.1-0.2,1.6
			c0,0.4,0.1,0.7,0.2,0.9C65.9,325,66.2,325.1,66.5,325.1z"/>
		<path fill="#FFFFFF" d="M77.1,319.6c-0.1,0-0.2,0-0.3,0s-0.2,0-0.3,0c-0.5,0-0.9,0.2-1.3,0.5c-0.4,0.3-0.6,0.7-0.8,1.1l-1,4.7
			h-1.1l1.5-7.2h0.7v1.2h0.1c0.1-0.2,0.2-0.4,0.4-0.5s0.3-0.3,0.4-0.4s0.3-0.2,0.5-0.3c0.2-0.1,0.4-0.1,0.6-0.1c0.2,0,0.4,0,0.7,0.1
			L77.1,319.6z"/>
		<path fill="#FFFFFF" d="M83.7,323.4c-0.1,0.4-0.1,0.7-0.2,1.1c0,0.3-0.1,0.6-0.1,0.9c0,0.1,0,0.2,0,0.3s0,0.2,0,0.3h-0.7l-0.2-1.3
			h-0.1c-0.1,0.2-0.3,0.3-0.4,0.5s-0.4,0.3-0.6,0.5s-0.4,0.2-0.7,0.3c-0.2,0.1-0.5,0.1-0.7,0.1c-0.5,0-0.9-0.2-1.3-0.6
			c-0.3-0.4-0.5-1-0.5-1.9c0-0.6,0.1-1.1,0.2-1.8c0.2-0.6,0.4-1.1,0.7-1.6c0.3-0.5,0.7-0.9,1.2-1.2c0.5-0.3,1-0.5,1.6-0.5
			c0.2,0,0.3,0,0.4,0s0.2,0,0.4,0c0.1,0,0.2,0,0.3,0.1c0.1,0,0.2,0.1,0.3,0.1l0.6-3h1.1L83.7,323.4z M80.5,325.1
			c0.2,0,0.4-0.1,0.6-0.2c0.2-0.1,0.4-0.2,0.6-0.4c0.2-0.2,0.4-0.3,0.5-0.5c0.1-0.2,0.3-0.4,0.4-0.5l0.8-3.7
			c-0.2-0.1-0.3-0.2-0.6-0.2s-0.5-0.1-0.8-0.1c-0.4,0-0.7,0.1-1,0.4c-0.3,0.2-0.6,0.6-0.8,0.9c-0.2,0.4-0.4,0.8-0.5,1.4
			c-0.1,0.5-0.2,1-0.2,1.6c0,0.4,0.1,0.7,0.2,1S80.2,325.1,80.5,325.1z"/>
		<path fill="#FFFFFF" d="M88.4,318.7h1.1l-1.5,7.2h-1.1L88.4,318.7z M88.6,316.5c0-0.2,0.1-0.4,0.2-0.6c0.1-0.2,0.3-0.2,0.6-0.2
			c0.2,0,0.4,0.1,0.6,0.2c0.2,0.2,0.2,0.3,0.2,0.6s-0.1,0.4-0.2,0.6c-0.2,0.1-0.3,0.2-0.6,0.2c-0.2,0-0.4-0.1-0.6-0.2
			C88.7,316.9,88.6,316.7,88.6,316.5z"/>
		<path fill="#FFFFFF" d="M95.6,325.9l1-4.6c0-0.2,0.1-0.3,0.1-0.5c0-0.2,0-0.3,0-0.5c0-0.3-0.1-0.5-0.2-0.7
			c-0.1-0.2-0.4-0.3-0.7-0.3c-0.2,0-0.5,0.1-0.7,0.2c-0.2,0.1-0.5,0.3-0.7,0.4c-0.2,0.2-0.4,0.4-0.6,0.6c-0.2,0.2-0.3,0.4-0.4,0.6
			l-1,4.6h-1.1l1.5-7.2h0.7l-0.1,1.2h0.1c0.1-0.2,0.3-0.3,0.4-0.5s0.4-0.3,0.6-0.5s0.5-0.2,0.7-0.3c0.3-0.1,0.6-0.1,0.9-0.1
			c0.5,0,0.9,0.1,1.1,0.3s0.4,0.6,0.4,1.2c0,0.3,0,0.6-0.1,1l-1,4.8H95.6z"/>
		<path fill="#FFFFFF" d="M105,326.2c-0.2,0.9-0.5,1.6-1,2.1c-0.5,0.4-1.1,0.7-2,0.7c-0.6,0-1.1-0.1-1.5-0.2s-0.7-0.3-0.9-0.4
			l0.5-0.8c0.1,0,0.2,0.1,0.3,0.2c0.1,0.1,0.2,0.1,0.4,0.2c0.2,0.1,0.3,0.1,0.6,0.1c0.2,0,0.5,0.1,0.8,0.1c0.5,0,0.9-0.2,1.2-0.5
			c0.3-0.3,0.6-0.9,0.7-1.6l0.3-1.2h-0.1c-0.1,0.2-0.3,0.4-0.4,0.5c-0.2,0.2-0.3,0.3-0.5,0.4c-0.2,0.1-0.4,0.2-0.6,0.3
			s-0.5,0.1-0.7,0.1c-0.5,0-0.9-0.2-1.3-0.6c-0.3-0.4-0.5-0.9-0.5-1.6c0-0.6,0.1-1.3,0.3-1.9c0.2-0.6,0.4-1.2,0.8-1.7
			s0.8-0.9,1.3-1.2s1.1-0.5,1.8-0.5c0.5,0,1,0,1.3,0.1c0.4,0.1,0.7,0.2,0.9,0.3L105,326.2z M102.3,325.1c0.2,0,0.5-0.1,0.7-0.2
			s0.5-0.3,0.6-0.5c0.2-0.2,0.4-0.4,0.5-0.6s0.3-0.4,0.4-0.6l0.7-3.5c-0.2-0.1-0.3-0.1-0.6-0.2c-0.2,0-0.4,0-0.7,0
			c-0.4,0-0.8,0.1-1.1,0.3s-0.6,0.5-0.9,0.9s-0.4,0.8-0.6,1.3c-0.1,0.5-0.2,1-0.2,1.6c0,0.4,0.1,0.8,0.3,1
			C101.8,325,102,325.1,102.3,325.1z"/>
		<path fill="#FFFFFF" d="M114.8,318.7h0.7l-0.1,1.2h0.1c0.1-0.2,0.3-0.3,0.5-0.5s0.4-0.3,0.6-0.5c0.2-0.1,0.4-0.2,0.7-0.3
			c0.2-0.1,0.5-0.1,0.8-0.1c0.2,0,0.4,0,0.6,0.1c0.2,0.1,0.4,0.2,0.5,0.4c0.2,0.2,0.3,0.4,0.4,0.7c0.1,0.3,0.1,0.6,0.1,1
			c0,0.8-0.1,1.6-0.3,2.3c-0.2,0.7-0.5,1.2-0.9,1.7c-0.4,0.5-0.8,0.8-1.3,1.1c-0.5,0.2-0.9,0.4-1.4,0.4c-0.3,0-0.6,0-0.9-0.1
			c-0.3-0.1-0.4-0.1-0.5-0.2l-0.6,3h-1.1L114.8,318.7z M117.6,319.4c-0.3,0-0.5,0.1-0.7,0.2s-0.5,0.3-0.6,0.5
			c-0.2,0.2-0.4,0.4-0.5,0.6c-0.2,0.2-0.3,0.4-0.4,0.6l-0.7,3.4c0.2,0.1,0.3,0.2,0.5,0.3c0.2,0,0.4,0.1,0.6,0.1
			c0.4,0,0.7-0.1,1.1-0.3s0.6-0.5,0.9-0.9c0.3-0.4,0.5-0.8,0.6-1.4c0.2-0.5,0.2-1.1,0.2-1.8c0-0.4-0.1-0.7-0.2-1
			C118.1,319.5,117.9,319.4,117.6,319.4z"/>
		<path fill="#FFFFFF" d="M126.4,319.6c-0.1,0-0.2,0-0.3,0s-0.2,0-0.3,0c-0.5,0-0.9,0.2-1.3,0.5c-0.4,0.3-0.6,0.7-0.8,1.1l-1,4.7
			h-1.1l1.5-7.2h0.7v1.2h0.1c0.1-0.2,0.2-0.4,0.4-0.5s0.3-0.3,0.4-0.4s0.3-0.2,0.5-0.3c0.2-0.1,0.4-0.1,0.6-0.1c0.2,0,0.4,0,0.7,0.1
			L126.4,319.6z"/>
		<path fill="#FFFFFF" d="M127.6,323.6c0-0.8,0.1-1.5,0.3-2.1c0.2-0.6,0.5-1.2,0.8-1.6s0.7-0.8,1.2-1.1c0.5-0.2,0.9-0.4,1.5-0.4
			c0.4,0,0.7,0.1,1,0.2c0.3,0.1,0.5,0.3,0.7,0.5c0.2,0.2,0.3,0.5,0.4,0.8c0.1,0.3,0.1,0.6,0.1,0.9c0,0.7-0.1,1.4-0.3,2
			c-0.2,0.6-0.4,1.2-0.8,1.6s-0.7,0.8-1.2,1.1c-0.4,0.3-0.9,0.4-1.4,0.4c-0.4,0-0.8-0.1-1.1-0.2c-0.3-0.1-0.5-0.3-0.7-0.6
			c-0.2-0.2-0.3-0.5-0.4-0.8C127.7,324.2,127.6,323.9,127.6,323.6z M128.8,323.4c0,0.6,0.1,1,0.3,1.3s0.5,0.5,1,0.5
			c0.3,0,0.6-0.1,0.9-0.3c0.3-0.2,0.5-0.5,0.7-0.9s0.4-0.8,0.5-1.3c0.1-0.5,0.2-1,0.2-1.5c0-0.5-0.1-0.9-0.3-1.2s-0.5-0.4-1-0.4
			c-0.3,0-0.6,0.1-0.9,0.3c-0.3,0.2-0.5,0.5-0.8,0.9c-0.2,0.4-0.4,0.8-0.5,1.3C128.9,322.4,128.8,322.8,128.8,323.4z"/>
		<path fill="#FFFFFF" d="M140.4,325.3c-0.1,0.1-0.3,0.2-0.5,0.3c-0.2,0.1-0.4,0.2-0.6,0.2c-0.2,0.1-0.4,0.1-0.6,0.2
			c-0.2,0-0.4,0.1-0.5,0.1c-0.5,0-0.9-0.1-1.2-0.2s-0.5-0.3-0.7-0.6s-0.3-0.5-0.4-0.8c-0.1-0.3-0.1-0.5-0.1-0.8
			c0-0.8,0.1-1.5,0.3-2.2s0.5-1.2,0.9-1.6c0.4-0.5,0.8-0.8,1.3-1c0.5-0.2,1-0.4,1.5-0.4c0.4,0,0.7,0,0.9,0.1
			c0.2,0.1,0.4,0.1,0.6,0.2l-0.4,0.9c-0.2-0.1-0.4-0.2-0.6-0.2c-0.2-0.1-0.5-0.1-0.8-0.1c-0.3,0-0.6,0.1-1,0.3
			c-0.3,0.2-0.6,0.5-0.8,0.9c-0.2,0.4-0.4,0.8-0.6,1.2c-0.1,0.5-0.2,0.9-0.2,1.4c0,0.6,0.1,1.1,0.4,1.4c0.3,0.3,0.6,0.4,1.1,0.4
			c0.3,0,0.6-0.1,0.9-0.2c0.3-0.1,0.6-0.3,0.8-0.4L140.4,325.3z"/>
		<path fill="#FFFFFF" d="M147.5,325.2c-0.3,0.3-0.7,0.5-1.2,0.7c-0.5,0.1-0.9,0.2-1.4,0.2c-0.8,0-1.3-0.2-1.7-0.7
			c-0.4-0.4-0.6-1.1-0.6-1.8s0.1-1.5,0.3-2.1c0.2-0.6,0.5-1.2,0.9-1.6c0.4-0.4,0.8-0.8,1.2-1s0.9-0.3,1.4-0.3c0.3,0,0.6,0,0.9,0.1
			c0.3,0.1,0.5,0.2,0.6,0.4c0.2,0.2,0.3,0.3,0.4,0.5c0.1,0.2,0.1,0.4,0.1,0.7c0,0.7-0.3,1.2-1,1.6s-1.6,0.6-2.9,0.6
			c-0.1,0-0.2,0-0.4,0c-0.1,0-0.3,0-0.4,0c0,0.2-0.1,0.4-0.1,0.5c0,0.2,0,0.3,0,0.4c0,0.5,0.1,1,0.4,1.3c0.2,0.3,0.6,0.5,1.1,0.5
			c0.4,0,0.8-0.1,1.2-0.2c0.4-0.1,0.6-0.3,0.8-0.4L147.5,325.2z M146.3,319.4c-0.5,0-1,0.2-1.4,0.5c-0.4,0.4-0.7,0.9-0.9,1.6
			c0.4,0,0.7,0,1.1,0c0.4,0,0.8-0.1,1.1-0.2c0.3-0.1,0.6-0.2,0.8-0.4c0.2-0.2,0.3-0.4,0.3-0.7c0-0.1,0-0.2-0.1-0.3
			c0-0.1-0.1-0.2-0.2-0.3c-0.1-0.1-0.2-0.1-0.3-0.2C146.7,319.4,146.5,319.4,146.3,319.4z"/>
		<path fill="#FFFFFF" d="M153.4,323.8c0-0.2-0.1-0.5-0.2-0.6c-0.1-0.2-0.3-0.3-0.5-0.5c-0.2-0.1-0.4-0.3-0.6-0.4s-0.4-0.3-0.6-0.5
			c-0.2-0.2-0.4-0.4-0.5-0.6c-0.1-0.2-0.2-0.5-0.2-0.8c0-0.3,0.1-0.5,0.2-0.8c0.1-0.2,0.3-0.4,0.5-0.6s0.5-0.3,0.8-0.4
			c0.3-0.1,0.7-0.2,1-0.2c0.5,0,0.9,0,1.2,0.1c0.3,0.1,0.5,0.2,0.7,0.3l-0.4,0.9c-0.4-0.2-0.9-0.3-1.6-0.3c-0.4,0-0.7,0.1-1,0.3
			c-0.3,0.2-0.4,0.4-0.4,0.8c0,0.2,0.1,0.4,0.2,0.5c0.1,0.2,0.3,0.3,0.5,0.4c0.2,0.1,0.4,0.3,0.6,0.4s0.4,0.3,0.6,0.5
			c0.2,0.2,0.3,0.4,0.5,0.6s0.2,0.5,0.2,0.8c0,0.7-0.3,1.3-0.8,1.7s-1.2,0.6-2,0.6c-0.4,0-0.8,0-1.2-0.1c-0.4-0.1-0.7-0.2-0.9-0.3
			l0.4-0.9c0.2,0.1,0.4,0.2,0.8,0.3c0.3,0.1,0.6,0.1,1,0.1c0.5,0,0.8-0.1,1.1-0.3S153.4,324.3,153.4,323.8z"/>
		<path fill="#FFFFFF" d="M160.2,323.8c0-0.2-0.1-0.5-0.2-0.6c-0.1-0.2-0.3-0.3-0.5-0.5c-0.2-0.1-0.4-0.3-0.6-0.4s-0.4-0.3-0.6-0.5
			c-0.2-0.2-0.4-0.4-0.5-0.6c-0.1-0.2-0.2-0.5-0.2-0.8c0-0.3,0.1-0.5,0.2-0.8c0.1-0.2,0.3-0.4,0.5-0.6s0.5-0.3,0.8-0.4
			c0.3-0.1,0.7-0.2,1-0.2c0.5,0,0.9,0,1.2,0.1c0.3,0.1,0.5,0.2,0.7,0.3l-0.4,0.9c-0.4-0.2-0.9-0.3-1.6-0.3c-0.4,0-0.7,0.1-1,0.3
			c-0.3,0.2-0.4,0.4-0.4,0.8c0,0.2,0.1,0.4,0.2,0.5c0.1,0.2,0.3,0.3,0.5,0.4c0.2,0.1,0.4,0.3,0.6,0.4s0.4,0.3,0.6,0.5
			c0.2,0.2,0.3,0.4,0.5,0.6s0.2,0.5,0.2,0.8c0,0.7-0.3,1.3-0.8,1.7s-1.2,0.6-2,0.6c-0.4,0-0.8,0-1.2-0.1c-0.4-0.1-0.7-0.2-0.9-0.3
			l0.4-0.9c0.2,0.1,0.4,0.2,0.8,0.3c0.3,0.1,0.6,0.1,1,0.1c0.5,0,0.8-0.1,1.1-0.3S160.2,324.3,160.2,323.8z"/>
		<path fill="#FFFFFF" d="M165.2,315.6c0.2,0.3,0.4,0.6,0.6,1s0.3,0.7,0.4,1.1c0.1,0.4,0.2,0.7,0.2,1.1c0,0.4,0.1,0.7,0.1,1
			c0,1-0.1,1.9-0.3,2.8c-0.2,0.9-0.5,1.7-0.9,2.5c-0.4,0.8-0.8,1.5-1.3,2.2c-0.5,0.7-1,1.2-1.5,1.7l-0.5-0.5
			c0.5-0.5,0.9-1.1,1.3-1.7c0.4-0.7,0.8-1.3,1.1-2.1c0.3-0.7,0.6-1.5,0.7-2.2c0.2-0.8,0.3-1.5,0.3-2.3c0-0.9-0.1-1.7-0.2-2.3
			c-0.1-0.6-0.3-1.2-0.6-1.7L165.2,315.6z"/>
	</g>
</g>
<g>
	<path fill="#FFFFFF" d="M274.2,306h1.7l-3.6,10.3h-1.8L267,306h1.7l2.1,6.4c0.1,0.3,0.2,0.7,0.4,1.2c0.1,0.5,0.2,0.8,0.2,1.1
		c0.1-0.4,0.2-0.8,0.3-1.2c0.1-0.5,0.2-0.8,0.3-1L274.2,306z"/>
	<path fill="#FFFFFF" d="M278.4,316.3V306h1.7v10.3H278.4z"/>
	<path fill="#FFFFFF" d="M289.8,313.5c0,0.9-0.3,1.6-1,2.2c-0.7,0.5-1.6,0.8-2.7,0.8c-1.2,0-2.1-0.2-2.9-0.5v-1.6
		c0.5,0.2,1,0.4,1.5,0.5s1,0.2,1.5,0.2c0.7,0,1.2-0.1,1.5-0.4c0.3-0.3,0.5-0.6,0.5-1c0-0.4-0.1-0.7-0.4-1c-0.3-0.3-0.9-0.6-1.8-0.9
		c-0.9-0.4-1.6-0.8-2-1.3c-0.4-0.5-0.6-1.1-0.6-1.8c0-0.9,0.3-1.5,0.9-2s1.4-0.7,2.5-0.7c1,0,2,0.2,2.9,0.6l-0.5,1.4
		c-0.9-0.4-1.7-0.6-2.4-0.6c-0.5,0-1,0.1-1.2,0.4s-0.4,0.6-0.4,0.9c0,0.3,0.1,0.5,0.2,0.7c0.1,0.2,0.3,0.4,0.6,0.5
		c0.3,0.2,0.7,0.4,1.4,0.7c0.8,0.3,1.3,0.6,1.7,0.9s0.6,0.6,0.8,0.9S289.8,313.1,289.8,313.5z"/>
	<path fill="#FFFFFF" d="M300.9,306v6.7c0,0.8-0.2,1.4-0.5,2c-0.3,0.6-0.8,1-1.4,1.3c-0.6,0.3-1.4,0.5-2.2,0.5c-1.3,0-2.3-0.3-3-1
		c-0.7-0.7-1.1-1.6-1.1-2.8V306h1.7v6.5c0,0.8,0.2,1.5,0.6,1.9c0.4,0.4,1,0.6,1.8,0.6c1.6,0,2.4-0.8,2.4-2.5V306H300.9z"/>
	<path fill="#FFFFFF" d="M311,316.3l-1-2.9H306l-1,2.9h-1.8l3.8-10.3h1.8l3.8,10.3H311z M309.5,312l-1-2.8c-0.1-0.2-0.2-0.5-0.3-0.9
		c-0.1-0.4-0.2-0.7-0.3-0.9c-0.1,0.6-0.3,1.2-0.6,1.9l-0.9,2.7H309.5z"/>
	<path fill="#FFFFFF" d="M315.2,316.3V306h1.7v8.8h4.4v1.4H315.2z"/>
	<path fill="#FFFFFF" d="M337.3,311.1c0,1.7-0.5,3-1.4,3.9c-0.9,0.9-2.3,1.3-4.1,1.3h-2.9V306h3.2c1.6,0,2.9,0.4,3.8,1.3
		C336.8,308.2,337.3,309.5,337.3,311.1z M335.5,311.1c0-2.5-1.2-3.7-3.5-3.7h-1.5v7.5h1.2C334.3,314.9,335.5,313.6,335.5,311.1z"/>
	<path fill="#FFFFFF" d="M346.4,316.3h-5.8V306h5.8v1.4h-4.1v2.8h3.9v1.4h-3.9v3.2h4.1V316.3z"/>
	<path fill="#FFFFFF" d="M355.6,313.5c0,0.9-0.3,1.6-1,2.2c-0.7,0.5-1.6,0.8-2.7,0.8c-1.2,0-2.1-0.2-2.9-0.5v-1.6
		c0.5,0.2,1,0.4,1.5,0.5s1,0.2,1.5,0.2c0.7,0,1.2-0.1,1.5-0.4c0.3-0.3,0.5-0.6,0.5-1c0-0.4-0.1-0.7-0.4-1c-0.3-0.3-0.9-0.6-1.8-0.9
		c-0.9-0.4-1.6-0.8-2-1.3c-0.4-0.5-0.6-1.1-0.6-1.8c0-0.9,0.3-1.5,0.9-2s1.4-0.7,2.5-0.7c1,0,2,0.2,2.9,0.6l-0.5,1.4
		c-0.9-0.4-1.7-0.6-2.4-0.6c-0.5,0-1,0.1-1.2,0.4s-0.4,0.6-0.4,0.9c0,0.3,0.1,0.5,0.2,0.7c0.1,0.2,0.3,0.4,0.6,0.5
		c0.3,0.2,0.7,0.4,1.4,0.7c0.8,0.3,1.3,0.6,1.7,0.9s0.6,0.6,0.8,0.9S355.6,313.1,355.6,313.5z"/>
	<path fill="#FFFFFF" d="M358.7,316.3V306h1.7v10.3H358.7z"/>
	<path fill="#FFFFFF" d="M368.4,310.7h3.8v5.2c-0.6,0.2-1.2,0.3-1.8,0.4c-0.6,0.1-1.2,0.1-1.8,0.1c-1.6,0-2.8-0.5-3.6-1.4
		c-0.8-0.9-1.3-2.2-1.3-3.9c0-1.7,0.5-3,1.4-3.9c1-0.9,2.3-1.4,3.9-1.4c1.1,0,2.1,0.2,3.1,0.6l-0.6,1.4c-0.8-0.4-1.7-0.6-2.5-0.6
		c-1.1,0-2,0.3-2.6,1c-0.6,0.7-1,1.6-1,2.8c0,1.3,0.3,2.2,0.9,2.9s1.4,1,2.5,1c0.5,0,1.1-0.1,1.7-0.2v-2.7h-2.1V310.7z"/>
	<path fill="#FFFFFF" d="M384.3,316.3h-2.1l-5.1-8.2h-0.1l0,0.5c0.1,0.9,0.1,1.7,0.1,2.4v5.3h-1.5V306h2l5,8.1h0
		c0-0.1,0-0.5-0.1-1.2c0-0.7,0-1.2,0-1.6V306h1.5V316.3z"/>
</g>
<g>
	<path fill="#CE7065" d="M37.2,441.3l-1.2-3.2h-4l-1.2,3.2h-1.2l4-10h1l3.9,10H37.2z M35.6,437.1l-1.2-3.1c-0.2-0.4-0.3-0.9-0.5-1.4
		c-0.1,0.4-0.2,0.9-0.4,1.4l-1.2,3.1H35.6z"/>
	<path fill="#CE7065" d="M42,437.1v4.2h-1.2v-10h2.7c1.2,0,2.1,0.2,2.7,0.7s0.9,1.2,0.9,2.1c0,1.3-0.7,2.2-2,2.7l2.7,4.5h-1.4
		l-2.4-4.2H42z M42,436.1h1.6c0.8,0,1.4-0.2,1.8-0.5c0.4-0.3,0.6-0.8,0.6-1.5c0-0.7-0.2-1.1-0.6-1.4s-1-0.4-1.9-0.4H42V436.1z"/>
	<path fill="#CE7065" d="M56.1,441.3h-5.6v-10h5.6v1h-4.4v3.2h4.1v1h-4.1v3.7h4.4V441.3z"/>
	<path fill="#CE7065" d="M65.7,441.3l-1.2-3.2h-4l-1.2,3.2H58l4-10h1l3.9,10H65.7z M64.1,437.1l-1.2-3.1c-0.2-0.4-0.3-0.9-0.5-1.4
		c-0.1,0.4-0.2,0.9-0.4,1.4l-1.2,3.1H64.1z"/>
	<path fill="#CE7065" d="M74.9,438.6c0,0.9-0.3,1.6-1,2.1s-1.5,0.7-2.6,0.7c-1.2,0-2.1-0.2-2.7-0.5v-1.1c0.4,0.2,0.9,0.3,1.3,0.4
		s1,0.2,1.4,0.2c0.8,0,1.4-0.1,1.8-0.4c0.4-0.3,0.6-0.7,0.6-1.2c0-0.3-0.1-0.6-0.2-0.9c-0.1-0.2-0.4-0.4-0.7-0.6s-0.8-0.4-1.5-0.6
		c-0.9-0.3-1.6-0.7-2-1.2s-0.6-1.1-0.6-1.8c0-0.8,0.3-1.4,0.9-1.8s1.3-0.7,2.3-0.7c1,0,1.9,0.2,2.7,0.5l-0.4,1
		c-0.8-0.3-1.6-0.5-2.4-0.5c-0.6,0-1.1,0.1-1.4,0.4s-0.5,0.6-0.5,1.1c0,0.3,0.1,0.6,0.2,0.9c0.1,0.2,0.3,0.4,0.6,0.6
		c0.3,0.2,0.8,0.4,1.4,0.6c1,0.4,1.8,0.8,2.2,1.2S74.9,437.9,74.9,438.6z"/>
	<path fill="#CE7065" d="M91.4,441.3h-1.1l-2-6.7c-0.1-0.3-0.2-0.7-0.3-1.1s-0.2-0.7-0.2-0.8c-0.1,0.6-0.3,1.3-0.5,2l-2,6.7h-1.1
		l-2.7-10h1.2l1.6,6.2c0.2,0.9,0.4,1.7,0.5,2.4c0.1-0.8,0.3-1.7,0.5-2.4l1.8-6.1h1.2l1.9,6.1c0.2,0.7,0.4,1.5,0.6,2.4
		c0.1-0.6,0.3-1.4,0.5-2.4l1.6-6.2h1.2L91.4,441.3z"/>
	<path fill="#CE7065" d="M96.7,441.3v-10h1.2v10H96.7z"/>
	<path fill="#CE7065" d="M104.8,441.3h-1.2v-9h-3.2v-1h7.5v1h-3.2V441.3z"/>
	<path fill="#CE7065" d="M118.1,441.3h-1.2v-4.7h-5.3v4.7h-1.2v-10h1.2v4.3h5.3v-4.3h1.2V441.3z"/>
	<path fill="#CE7065" d="M135.2,436.3c0,1.6-0.4,2.9-1.2,3.8s-1.9,1.4-3.4,1.4c-1.5,0-2.6-0.5-3.4-1.4c-0.8-0.9-1.2-2.2-1.2-3.8
		c0-1.6,0.4-2.9,1.2-3.8c0.8-0.9,1.9-1.3,3.4-1.3c1.4,0,2.6,0.5,3.4,1.4S135.2,434.7,135.2,436.3z M127.3,436.3
		c0,1.4,0.3,2.4,0.9,3.1c0.6,0.7,1.4,1,2.5,1c1.1,0,1.9-0.3,2.5-1s0.8-1.7,0.8-3.1c0-1.3-0.3-2.4-0.8-3.1c-0.6-0.7-1.4-1-2.5-1
		c-1.1,0-1.9,0.3-2.5,1C127.5,433.9,127.3,434.9,127.3,436.3z"/>
	<path fill="#CE7065" d="M144.8,434.2c0,1-0.3,1.8-1,2.3c-0.7,0.5-1.7,0.8-3,0.8h-1.2v3.9h-1.2v-10h2.6
		C143.6,431.3,144.8,432.3,144.8,434.2z M139.7,436.4h1c1,0,1.8-0.2,2.2-0.5s0.7-0.9,0.7-1.6c0-0.7-0.2-1.2-0.6-1.5s-1.1-0.5-2-0.5
		h-1.3V436.4z"/>
	<path fill="#CE7065" d="M154.3,434.2c0,1-0.3,1.8-1,2.3c-0.7,0.5-1.7,0.8-3,0.8h-1.2v3.9H148v-10h2.6
		C153.1,431.3,154.3,432.3,154.3,434.2z M149.1,436.4h1c1,0,1.8-0.2,2.2-0.5s0.7-0.9,0.7-1.6c0-0.7-0.2-1.2-0.6-1.5s-1.1-0.5-2-0.5
		h-1.3V436.4z"/>
	<path fill="#CE7065" d="M166.1,436.3c0,1.6-0.4,2.9-1.2,3.8s-1.9,1.4-3.4,1.4c-1.5,0-2.6-0.5-3.4-1.4c-0.8-0.9-1.2-2.2-1.2-3.8
		c0-1.6,0.4-2.9,1.2-3.8c0.8-0.9,1.9-1.3,3.4-1.3c1.4,0,2.6,0.5,3.4,1.4S166.1,434.7,166.1,436.3z M158.2,436.3
		c0,1.4,0.3,2.4,0.9,3.1c0.6,0.7,1.4,1,2.5,1c1.1,0,1.9-0.3,2.5-1s0.8-1.7,0.8-3.1c0-1.3-0.3-2.4-0.8-3.1c-0.6-0.7-1.4-1-2.5-1
		c-1.1,0-1.9,0.3-2.5,1C158.4,433.9,158.2,434.9,158.2,436.3z"/>
	<path fill="#CE7065" d="M170.6,437.1v4.2h-1.2v-10h2.7c1.2,0,2.1,0.2,2.7,0.7s0.9,1.2,0.9,2.1c0,1.3-0.7,2.2-2,2.7l2.7,4.5h-1.4
		l-2.4-4.2H170.6z M170.6,436.1h1.6c0.8,0,1.4-0.2,1.8-0.5c0.4-0.3,0.6-0.8,0.6-1.5c0-0.7-0.2-1.1-0.6-1.4s-1-0.4-1.9-0.4h-1.5
		V436.1z"/>
	<path fill="#CE7065" d="M182.2,441.3H181v-9h-3.2v-1h7.5v1h-3.2V441.3z"/>
	<path fill="#CE7065" d="M195.4,431.3v6.5c0,1.1-0.3,2-1,2.7s-1.6,1-2.8,1s-2.1-0.3-2.8-1s-1-1.6-1-2.7v-6.4h1.2v6.5
		c0,0.8,0.2,1.5,0.7,1.9s1.1,0.7,2,0.7c0.8,0,1.5-0.2,1.9-0.7c0.5-0.4,0.7-1.1,0.7-1.9v-6.5H195.4z"/>
	<path fill="#CE7065" d="M207,441.3h-1.3l-5.5-8.4h-0.1c0.1,1,0.1,1.9,0.1,2.7v5.7h-1.1v-10h1.3l5.4,8.4h0.1c0-0.1,0-0.5-0.1-1.2
		c0-0.7,0-1.1,0-1.4v-5.7h1.1V441.3z"/>
	<path fill="#CE7065" d="M210.8,441.3v-10h1.2v10H210.8z"/>
	<path fill="#CE7065" d="M218.8,441.3h-1.2v-9h-3.2v-1h7.5v1h-3.2V441.3z"/>
	<path fill="#CE7065" d="M224.5,441.3v-10h1.2v10H224.5z"/>
	<path fill="#CE7065" d="M235,441.3h-5.6v-10h5.6v1h-4.4v3.2h4.1v1h-4.1v3.7h4.4V441.3z"/>
	<path fill="#CE7065" d="M243.9,438.6c0,0.9-0.3,1.6-1,2.1c-0.6,0.5-1.5,0.7-2.6,0.7c-1.2,0-2.1-0.2-2.7-0.5v-1.1
		c0.4,0.2,0.9,0.3,1.3,0.4c0.5,0.1,1,0.2,1.4,0.2c0.8,0,1.4-0.1,1.8-0.4c0.4-0.3,0.6-0.7,0.6-1.2c0-0.3-0.1-0.6-0.2-0.9
		c-0.1-0.2-0.4-0.4-0.7-0.6s-0.8-0.4-1.5-0.6c-0.9-0.3-1.6-0.7-2-1.2s-0.6-1.1-0.6-1.8c0-0.8,0.3-1.4,0.9-1.8
		c0.6-0.5,1.3-0.7,2.3-0.7c1,0,1.9,0.2,2.7,0.5l-0.4,1c-0.8-0.3-1.6-0.5-2.4-0.5c-0.6,0-1.1,0.1-1.4,0.4c-0.3,0.3-0.5,0.6-0.5,1.1
		c0,0.3,0.1,0.6,0.2,0.9c0.1,0.2,0.3,0.4,0.6,0.6c0.3,0.2,0.8,0.4,1.4,0.6c1,0.4,1.8,0.8,2.2,1.2S243.9,437.9,243.9,438.6z"/>
	<path fill="#CE7065" d="M252.9,441.3h-1.2v-10h5.6v1h-4.4v3.7h4.1v1h-4.1V441.3z"/>
	<path fill="#CE7065" d="M268.7,436.3c0,1.6-0.4,2.9-1.2,3.8c-0.8,0.9-1.9,1.4-3.4,1.4c-1.5,0-2.6-0.5-3.4-1.4
		c-0.8-0.9-1.2-2.2-1.2-3.8c0-1.6,0.4-2.9,1.2-3.8c0.8-0.9,1.9-1.3,3.4-1.3c1.4,0,2.6,0.5,3.4,1.4S268.7,434.7,268.7,436.3z
		 M260.7,436.3c0,1.4,0.3,2.4,0.9,3.1c0.6,0.7,1.4,1,2.5,1c1.1,0,1.9-0.3,2.5-1s0.8-1.7,0.8-3.1c0-1.3-0.3-2.4-0.8-3.1
		c-0.6-0.7-1.4-1-2.5-1c-1.1,0-1.9,0.3-2.5,1C261,433.9,260.7,434.9,260.7,436.3z"/>
	<path fill="#CE7065" d="M273.1,437.1v4.2h-1.2v-10h2.7c1.2,0,2.1,0.2,2.7,0.7s0.9,1.2,0.9,2.1c0,1.3-0.7,2.2-2,2.7l2.7,4.5h-1.4
		l-2.4-4.2H273.1z M273.1,436.1h1.6c0.8,0,1.4-0.2,1.8-0.5c0.4-0.3,0.6-0.8,0.6-1.5c0-0.7-0.2-1.1-0.6-1.4s-1-0.4-1.9-0.4h-1.5
		V436.1z"/>
	<path fill="#CE7065" d="M286.3,441.3v-10h1.2v10H286.3z"/>
	<path fill="#CE7065" d="M295.7,441.3l-3.4-8.9h-0.1c0.1,0.7,0.1,1.5,0.1,2.5v6.4h-1.1v-10h1.8l3.2,8.2h0.1l3.2-8.2h1.7v10H300v-6.4
		c0-0.7,0-1.5,0.1-2.4h-0.1l-3.4,8.8H295.7z"/>
	<path fill="#CE7065" d="M311.3,434.2c0,1-0.3,1.8-1,2.3c-0.7,0.5-1.7,0.8-3,0.8h-1.2v3.9H305v-10h2.6
		C310.1,431.3,311.3,432.3,311.3,434.2z M306.1,436.4h1c1,0,1.8-0.2,2.2-0.5s0.7-0.9,0.7-1.6c0-0.7-0.2-1.2-0.6-1.5s-1.1-0.5-2-0.5
		h-1.3V436.4z"/>
	<path fill="#CE7065" d="M315.6,437.1v4.2h-1.2v-10h2.7c1.2,0,2.1,0.2,2.7,0.7s0.9,1.2,0.9,2.1c0,1.3-0.7,2.2-2,2.7l2.7,4.5h-1.4
		l-2.4-4.2H315.6z M315.6,436.1h1.6c0.8,0,1.4-0.2,1.8-0.5c0.4-0.3,0.6-0.8,0.6-1.5c0-0.7-0.2-1.1-0.6-1.4s-1-0.4-1.9-0.4h-1.5
		V436.1z"/>
	<path fill="#CE7065" d="M332.8,436.3c0,1.6-0.4,2.9-1.2,3.8s-1.9,1.4-3.4,1.4c-1.5,0-2.6-0.5-3.4-1.4c-0.8-0.9-1.2-2.2-1.2-3.8
		c0-1.6,0.4-2.9,1.2-3.8c0.8-0.9,1.9-1.3,3.4-1.3c1.4,0,2.6,0.5,3.4,1.4S332.8,434.7,332.8,436.3z M324.9,436.3
		c0,1.4,0.3,2.4,0.9,3.1c0.6,0.7,1.4,1,2.5,1c1.1,0,1.9-0.3,2.5-1c0.6-0.7,0.8-1.7,0.8-3.1c0-1.3-0.3-2.4-0.8-3.1
		c-0.6-0.7-1.4-1-2.5-1c-1.1,0-1.9,0.3-2.5,1C325.2,433.9,324.9,434.9,324.9,436.3z"/>
	<path fill="#CE7065" d="M341.8,431.3h1.3l-3.6,10h-1.1l-3.6-10h1.2l2.3,6.5c0.3,0.7,0.5,1.5,0.6,2.2c0.2-0.7,0.4-1.5,0.6-2.2
		L341.8,431.3z"/>
	<path fill="#CE7065" d="M351.1,441.3h-5.6v-10h5.6v1h-4.4v3.2h4.1v1h-4.1v3.7h4.4V441.3z"/>
	<path fill="#CE7065" d="M358.7,441.3l-3.4-8.9h-0.1c0.1,0.7,0.1,1.5,0.1,2.5v6.4h-1.1v-10h1.8l3.2,8.2h0.1l3.2-8.2h1.7v10h-1.2
		v-6.4c0-0.7,0-1.5,0.1-2.4h-0.1l-3.4,8.8H358.7z"/>
	<path fill="#CE7065" d="M373.6,441.3H368v-10h5.6v1h-4.4v3.2h4.1v1h-4.1v3.7h4.4V441.3z"/>
	<path fill="#CE7065" d="M384.7,441.3h-1.3l-5.5-8.4h-0.1c0.1,1,0.1,1.9,0.1,2.7v5.7h-1.1v-10h1.3l5.4,8.4h0.1c0-0.1,0-0.5-0.1-1.2
		c0-0.7,0-1.1,0-1.4v-5.7h1.1V441.3z"/>
	<path fill="#CE7065" d="M391.5,441.3h-1.2v-9h-3.2v-1h7.5v1h-3.2V441.3z"/>
</g>
</svg>
