<?xml version="1.0" encoding="utf-8"?>
<!-- Generator: Adobe Illustrator 18.1.1, SVG Export Plug-In . SVG Version: 6.00 Build 0)  -->
<!DOCTYPE svg PUBLIC "-//W3C//DTD SVG 1.1//EN" "http://www.w3.org/Graphics/SVG/1.1/DTD/svg11.dtd">
<svg version="1.1" id="Layer_1" xmlns="http://www.w3.org/2000/svg" xmlns:xlink="http://www.w3.org/1999/xlink" x="0px" y="0px"
	 viewBox="0 0 383.1 154.2" enable-background="new 0 0 383.1 154.2" xml:space="preserve">
<g>
	<rect x="123.4" y="20.1" fill="#D3D3D3" width="1.9" height="14.2"/>
	<polygon fill="#D3D3D3" points="269.6,97.6 265.6,97.6 265.6,61.9 270.1,61.9 270.1,63.8 267.5,63.8 267.5,95.7 269.6,95.7 	"/>
	<polygon fill="#D3D3D3" points="51.4,141.9 42.7,141.7 42.8,139.8 49.4,139.9 49.4,84.9 44.9,84.9 44.9,83 51.4,83 	"/>
	
		<rect x="37.5" y="102.2" transform="matrix(1 3.246976e-03 -3.246976e-03 1 0.3353 -0.1426)" fill="#D3D3D3" width="13.2" height="1.9"/>
	<polygon fill="#CA1F3D" points="51.1,123.9 41.5,123.9 41.5,122 49.2,122 49.1,108.6 59.2,108.6 59.2,110.5 51,110.5 	"/>
	<g>
		<path fill="#49494A" d="M29,40.4c0,0.4-0.1,0.7-0.4,0.9c-0.3,0.2-0.6,0.3-1.1,0.3s-0.9-0.1-1.2-0.2v-0.7c0.2,0.1,0.4,0.2,0.6,0.2
			c0.2,0.1,0.4,0.1,0.6,0.1c0.3,0,0.5-0.1,0.6-0.2c0.1-0.1,0.2-0.2,0.2-0.4c0-0.2-0.1-0.3-0.2-0.4c-0.1-0.1-0.4-0.2-0.7-0.4
			c-0.4-0.2-0.7-0.3-0.8-0.5s-0.2-0.4-0.2-0.7c0-0.4,0.1-0.6,0.4-0.8c0.2-0.2,0.6-0.3,1-0.3c0.4,0,0.8,0.1,1.2,0.3l-0.2,0.6
			c-0.4-0.2-0.7-0.2-1-0.2c-0.2,0-0.4,0-0.5,0.1c-0.1,0.1-0.2,0.2-0.2,0.4c0,0.1,0,0.2,0.1,0.3c0,0.1,0.1,0.2,0.2,0.2
			c0.1,0.1,0.3,0.2,0.6,0.3c0.3,0.1,0.5,0.2,0.7,0.4c0.1,0.1,0.2,0.2,0.3,0.4S29,40.2,29,40.4z"/>
		<path fill="#49494A" d="M33.1,41.5h-0.7v-1.9h-1.9v1.9h-0.7v-4.2h0.7V39h1.9v-1.7h0.7V41.5z"/>
		<path fill="#49494A" d="M38,39.4c0,0.7-0.2,1.2-0.5,1.6s-0.8,0.6-1.5,0.6c-0.6,0-1.1-0.2-1.5-0.6c-0.3-0.4-0.5-0.9-0.5-1.6
			s0.2-1.2,0.5-1.6s0.8-0.6,1.5-0.6c0.6,0,1.1,0.2,1.5,0.6C37.8,38.2,38,38.7,38,39.4z M34.8,39.4c0,0.5,0.1,0.9,0.3,1.2
			S35.6,41,36,41c0.4,0,0.7-0.1,0.9-0.4c0.2-0.3,0.3-0.7,0.3-1.2c0-0.5-0.1-0.9-0.3-1.2c-0.2-0.3-0.5-0.4-0.9-0.4
			c-0.4,0-0.7,0.1-0.9,0.4S34.8,38.9,34.8,39.4z"/>
		<path fill="#49494A" d="M41.7,38.6c0,0.4-0.1,0.8-0.4,1c-0.3,0.2-0.7,0.4-1.2,0.4h-0.4v1.6h-0.7v-4.2h1.2c0.5,0,0.9,0.1,1.2,0.3
			C41.6,37.8,41.7,38.2,41.7,38.6z M39.6,39.4H40c0.4,0,0.6-0.1,0.8-0.2c0.2-0.1,0.2-0.3,0.2-0.6c0-0.2-0.1-0.4-0.2-0.5
			c-0.1-0.1-0.4-0.2-0.7-0.2h-0.5V39.4z"/>
	</g>
	<g>
		<path fill="#49494A" d="M59.4,39.7v1.7h-0.7v-4.2h1.2c0.5,0,0.9,0.1,1.2,0.3c0.3,0.2,0.4,0.5,0.4,0.9c0,0.5-0.3,0.9-0.8,1.1
			l1.2,1.9h-0.8l-1-1.7H59.4z M59.4,39.1h0.5c0.3,0,0.6-0.1,0.7-0.2c0.1-0.1,0.2-0.3,0.2-0.5c0-0.2-0.1-0.4-0.2-0.5
			c-0.2-0.1-0.4-0.2-0.7-0.2h-0.5V39.1z"/>
		<path fill="#49494A" d="M64.8,41.4h-2.4v-4.2h2.4v0.6h-1.7v1.1h1.6v0.6h-1.6v1.3h1.7V41.4z"/>
		<path fill="#49494A" d="M69.5,39.2c0,0.5-0.1,0.9-0.3,1.3c-0.2,0.3-0.5,0.6-0.9,0.7l1,1.1h-0.9l-0.8-0.9h-0.1
			c-0.6,0-1.1-0.2-1.5-0.6c-0.3-0.4-0.5-0.9-0.5-1.6s0.2-1.2,0.5-1.6s0.8-0.6,1.5-0.6c0.6,0,1.1,0.2,1.5,0.6
			C69.3,38,69.5,38.6,69.5,39.2z M66.3,39.2c0,0.5,0.1,0.9,0.3,1.2s0.5,0.4,0.9,0.4c0.4,0,0.7-0.1,0.9-0.4c0.2-0.3,0.3-0.7,0.3-1.2
			c0-0.5-0.1-0.9-0.3-1.2c-0.2-0.3-0.5-0.4-0.9-0.4c-0.4,0-0.7,0.1-0.9,0.4S66.3,38.7,66.3,39.2z"/>
		<path fill="#49494A" d="M73.7,37.1v2.7c0,0.3-0.1,0.6-0.2,0.8c-0.1,0.2-0.3,0.4-0.6,0.5s-0.6,0.2-0.9,0.2c-0.5,0-0.9-0.1-1.2-0.4
			c-0.3-0.3-0.4-0.7-0.4-1.1v-2.7h0.7v2.7c0,0.3,0.1,0.6,0.2,0.8c0.2,0.2,0.4,0.2,0.7,0.2c0.6,0,1-0.3,1-1v-2.7H73.7z"/>
		<path fill="#49494A" d="M77.2,41.4h-2.4v-4.2h2.4v0.6h-1.7v1.1h1.6v0.6h-1.6v1.3h1.7V41.4z"/>
		<path fill="#49494A" d="M80.5,40.2c0,0.4-0.1,0.7-0.4,0.9c-0.3,0.2-0.6,0.3-1.1,0.3s-0.9-0.1-1.2-0.2v-0.7
			c0.2,0.1,0.4,0.2,0.6,0.2c0.2,0.1,0.4,0.1,0.6,0.1c0.3,0,0.5-0.1,0.6-0.2c0.1-0.1,0.2-0.2,0.2-0.4c0-0.2-0.1-0.3-0.2-0.4
			c-0.1-0.1-0.4-0.2-0.7-0.4c-0.4-0.2-0.7-0.3-0.8-0.5s-0.2-0.4-0.2-0.7c0-0.4,0.1-0.6,0.4-0.8c0.2-0.2,0.6-0.3,1-0.3
			c0.4,0,0.8,0.1,1.2,0.3l-0.2,0.6c-0.4-0.2-0.7-0.2-1-0.2c-0.2,0-0.4,0-0.5,0.1c-0.1,0.1-0.2,0.2-0.2,0.4c0,0.1,0,0.2,0.1,0.3
			c0,0.1,0.1,0.2,0.2,0.2c0.1,0.1,0.3,0.2,0.6,0.3c0.3,0.1,0.5,0.2,0.7,0.4c0.1,0.1,0.2,0.2,0.3,0.4S80.5,40,80.5,40.2z"/>
		<path fill="#49494A" d="M82.8,41.4h-0.7v-3.6h-1.2v-0.6H84v0.6h-1.2V41.4z"/>
		<path fill="#49494A" d="M88.8,41.4l-0.4-1.2h-1.6l-0.4,1.2h-0.7l1.6-4.2H88l1.6,4.2H88.8z M88.2,39.6l-0.4-1.1
			c0-0.1-0.1-0.2-0.1-0.4c-0.1-0.2-0.1-0.3-0.1-0.4c-0.1,0.2-0.1,0.5-0.2,0.8L87,39.6H88.2z"/>
		<path fill="#49494A" d="M93.1,41.4h-0.7v-3.6h-1.2v-0.6h3.2v0.6h-1.2V41.4z"/>
		<path fill="#49494A" d="M98.7,39.2c0,0.7-0.2,1.2-0.5,1.6s-0.8,0.6-1.5,0.6c-0.6,0-1.1-0.2-1.5-0.6c-0.3-0.4-0.5-0.9-0.5-1.6
			s0.2-1.2,0.5-1.6s0.8-0.6,1.5-0.6c0.6,0,1.1,0.2,1.5,0.6C98.6,38,98.7,38.6,98.7,39.2z M95.5,39.2c0,0.5,0.1,0.9,0.3,1.2
			s0.5,0.4,0.9,0.4c0.4,0,0.7-0.1,0.9-0.4c0.2-0.3,0.3-0.7,0.3-1.2c0-0.5-0.1-0.9-0.3-1.2c-0.2-0.3-0.5-0.4-0.9-0.4
			c-0.4,0-0.7,0.1-0.9,0.4S95.5,38.7,95.5,39.2z"/>
		<path fill="#49494A" d="M100.8,39.1l1-1.9h0.8l-1.4,2.6v1.6h-0.7v-1.6l-1.4-2.6h0.8L100.8,39.1z"/>
	</g>
	<g>
		<path fill="#49494A" d="M155.3,41.5l-0.4-1.2h-1.6l-0.4,1.2h-0.7l1.6-4.2h0.8l1.6,4.2H155.3z M154.7,39.7l-0.4-1.1
			c0-0.1-0.1-0.2-0.1-0.4c-0.1-0.2-0.1-0.3-0.1-0.4c-0.1,0.2-0.1,0.5-0.2,0.8l-0.4,1.1H154.7z"/>
		<path fill="#49494A" d="M156.6,37.2h1.3c0.6,0,1,0.1,1.3,0.3c0.3,0.2,0.4,0.4,0.4,0.8c0,0.2-0.1,0.5-0.2,0.6
			c-0.1,0.2-0.3,0.3-0.5,0.3v0c0.3,0.1,0.5,0.2,0.7,0.3c0.1,0.2,0.2,0.4,0.2,0.7c0,0.4-0.1,0.7-0.4,0.9c-0.3,0.2-0.6,0.3-1.1,0.3
			h-1.5V37.2z M157.3,39h0.7c0.3,0,0.5,0,0.6-0.1c0.1-0.1,0.2-0.2,0.2-0.5c0-0.2-0.1-0.3-0.2-0.4c-0.1-0.1-0.4-0.1-0.7-0.1h-0.6V39z
			 M157.3,39.5v1.3h0.7c0.3,0,0.5-0.1,0.7-0.2c0.1-0.1,0.2-0.3,0.2-0.5c0-0.2-0.1-0.4-0.2-0.5c-0.1-0.1-0.4-0.2-0.7-0.2H157.3z"/>
		<path fill="#49494A" d="M164.3,39.3c0,0.7-0.2,1.2-0.5,1.6s-0.8,0.6-1.5,0.6c-0.6,0-1.1-0.2-1.5-0.6c-0.3-0.4-0.5-0.9-0.5-1.6
			s0.2-1.2,0.5-1.6s0.8-0.6,1.5-0.6c0.6,0,1.1,0.2,1.5,0.6C164.1,38.1,164.3,38.7,164.3,39.3z M161,39.3c0,0.5,0.1,0.9,0.3,1.2
			s0.5,0.4,0.9,0.4c0.4,0,0.7-0.1,0.9-0.4c0.2-0.3,0.3-0.7,0.3-1.2c0-0.5-0.1-0.9-0.3-1.2c-0.2-0.3-0.5-0.4-0.9-0.4
			c-0.4,0-0.7,0.1-0.9,0.4S161,38.8,161,39.3z"/>
		<path fill="#49494A" d="M168.5,37.2V40c0,0.3-0.1,0.6-0.2,0.8c-0.1,0.2-0.3,0.4-0.6,0.5s-0.6,0.2-0.9,0.2c-0.5,0-0.9-0.1-1.2-0.4
			c-0.3-0.3-0.4-0.7-0.4-1.1v-2.7h0.7v2.7c0,0.3,0.1,0.6,0.2,0.8c0.2,0.2,0.4,0.2,0.7,0.2c0.6,0,1-0.3,1-1v-2.7H168.5z"/>
		<path fill="#49494A" d="M171,41.5h-0.7v-3.6h-1.2v-0.6h3.2v0.6H171V41.5z"/>
		<path fill="#49494A" d="M177.7,37.2V40c0,0.3-0.1,0.6-0.2,0.8c-0.1,0.2-0.3,0.4-0.6,0.5s-0.6,0.2-0.9,0.2c-0.5,0-0.9-0.1-1.2-0.4
			c-0.3-0.3-0.4-0.7-0.4-1.1v-2.7h0.7v2.7c0,0.3,0.1,0.6,0.2,0.8c0.2,0.2,0.4,0.2,0.7,0.2c0.6,0,1-0.3,1-1v-2.7H177.7z"/>
		<path fill="#49494A" d="M181.3,40.3c0,0.4-0.1,0.7-0.4,0.9c-0.3,0.2-0.6,0.3-1.1,0.3s-0.9-0.1-1.2-0.2v-0.7
			c0.2,0.1,0.4,0.2,0.6,0.2c0.2,0.1,0.4,0.1,0.6,0.1c0.3,0,0.5-0.1,0.6-0.2c0.1-0.1,0.2-0.2,0.2-0.4c0-0.2-0.1-0.3-0.2-0.4
			c-0.1-0.1-0.4-0.2-0.7-0.4c-0.4-0.2-0.7-0.3-0.8-0.5s-0.2-0.4-0.2-0.7c0-0.4,0.1-0.6,0.4-0.8c0.2-0.2,0.6-0.3,1-0.3
			c0.4,0,0.8,0.1,1.2,0.3L181,38c-0.4-0.2-0.7-0.2-1-0.2c-0.2,0-0.4,0-0.5,0.1c-0.1,0.1-0.2,0.2-0.2,0.4c0,0.1,0,0.2,0.1,0.3
			c0,0.1,0.1,0.2,0.2,0.2c0.1,0.1,0.3,0.2,0.6,0.3c0.3,0.1,0.5,0.2,0.7,0.4c0.1,0.1,0.2,0.2,0.3,0.4S181.3,40.1,181.3,40.3z"/>
	</g>
	<g>
		<path fill="#49494A" d="M195.1,38c-0.4,0-0.7,0.1-0.9,0.4c-0.2,0.3-0.3,0.7-0.3,1.2c0,0.5,0.1,0.9,0.3,1.2
			c0.2,0.3,0.5,0.4,0.9,0.4c0.2,0,0.4,0,0.5-0.1c0.2,0,0.3-0.1,0.5-0.1v0.6c-0.3,0.1-0.7,0.2-1.1,0.2c-0.6,0-1.1-0.2-1.4-0.6
			c-0.3-0.4-0.5-0.9-0.5-1.6c0-0.4,0.1-0.8,0.2-1.2s0.4-0.6,0.7-0.8c0.3-0.2,0.7-0.3,1.1-0.3c0.4,0,0.8,0.1,1.2,0.3l-0.2,0.6
			c-0.1-0.1-0.3-0.1-0.5-0.2C195.4,38,195.3,38,195.1,38z"/>
		<path fill="#49494A" d="M200.8,39.6c0,0.7-0.2,1.2-0.5,1.6s-0.8,0.6-1.5,0.6c-0.6,0-1.1-0.2-1.5-0.6c-0.3-0.4-0.5-0.9-0.5-1.6
			s0.2-1.2,0.5-1.6s0.8-0.6,1.5-0.6c0.6,0,1.1,0.2,1.5,0.6C200.6,38.4,200.8,38.9,200.8,39.6z M197.6,39.6c0,0.5,0.1,0.9,0.3,1.2
			s0.5,0.4,0.9,0.4c0.4,0,0.7-0.1,0.9-0.4c0.2-0.3,0.3-0.7,0.3-1.2c0-0.5-0.1-0.9-0.3-1.2s-0.5-0.4-0.9-0.4c-0.4,0-0.7,0.1-0.9,0.4
			C197.7,38.7,197.6,39.1,197.6,39.6z"/>
		<path fill="#49494A" d="M205.2,41.7h-0.8l-2.1-3.4h0l0,0.2c0,0.4,0,0.7,0,1v2.2h-0.6v-4.2h0.8l2.1,3.3h0c0,0,0-0.2,0-0.5
			s0-0.5,0-0.7v-2.2h0.6V41.7z"/>
		<path fill="#49494A" d="M207.8,41.7h-0.7v-3.6h-1.2v-0.6h3.2v0.6h-1.2V41.7z"/>
		<path fill="#49494A" d="M212.3,41.7l-0.4-1.2h-1.6l-0.4,1.2h-0.7l1.6-4.2h0.8l1.6,4.2H212.3z M211.7,39.9l-0.4-1.1
			c0-0.1-0.1-0.2-0.1-0.4c-0.1-0.2-0.1-0.3-0.1-0.4c-0.1,0.2-0.1,0.5-0.2,0.8l-0.4,1.1H211.7z"/>
		<path fill="#49494A" d="M215.4,38c-0.4,0-0.7,0.1-0.9,0.4c-0.2,0.3-0.3,0.7-0.3,1.2c0,0.5,0.1,0.9,0.3,1.2
			c0.2,0.3,0.5,0.4,0.9,0.4c0.2,0,0.4,0,0.5-0.1c0.2,0,0.3-0.1,0.5-0.1v0.6c-0.3,0.1-0.7,0.2-1.1,0.2c-0.6,0-1.1-0.2-1.4-0.6
			c-0.3-0.4-0.5-0.9-0.5-1.6c0-0.4,0.1-0.8,0.2-1.2s0.4-0.6,0.7-0.8c0.3-0.2,0.7-0.3,1.1-0.3c0.4,0,0.8,0.1,1.2,0.3l-0.2,0.6
			c-0.1-0.1-0.3-0.1-0.5-0.2C215.7,38,215.5,38,215.4,38z"/>
		<path fill="#49494A" d="M218.8,41.7h-0.7v-3.6h-1.2v-0.6h3.2v0.6h-1.2V41.7z"/>
	</g>
	<g>
		<path fill="#49494A" d="M232.1,40.8c0,0.4-0.1,0.7-0.4,0.9s-0.6,0.3-1.1,0.3s-0.9-0.1-1.2-0.2v-0.7c0.2,0.1,0.4,0.2,0.6,0.2
			c0.2,0.1,0.4,0.1,0.6,0.1c0.3,0,0.5-0.1,0.6-0.2c0.1-0.1,0.2-0.2,0.2-0.4c0-0.2-0.1-0.3-0.2-0.4c-0.1-0.1-0.4-0.2-0.7-0.4
			c-0.4-0.2-0.7-0.3-0.8-0.5s-0.2-0.4-0.2-0.7c0-0.4,0.1-0.6,0.4-0.8c0.2-0.2,0.6-0.3,1-0.3c0.4,0,0.8,0.1,1.2,0.3l-0.2,0.6
			c-0.4-0.2-0.7-0.2-1-0.2c-0.2,0-0.4,0-0.5,0.1c-0.1,0.1-0.2,0.2-0.2,0.4c0,0.1,0,0.2,0.1,0.3s0.1,0.2,0.2,0.2s0.3,0.2,0.6,0.3
			c0.3,0.1,0.5,0.2,0.7,0.4c0.1,0.1,0.2,0.2,0.3,0.4C232.1,40.5,232.1,40.7,232.1,40.8z"/>
		<path fill="#49494A" d="M235.3,42H233v-4.2h2.4v0.6h-1.7v1.1h1.6v0.6h-1.6v1.3h1.7V42z"/>
		<path fill="#49494A" d="M238.9,42l-0.4-1.2h-1.6l-0.4,1.2h-0.7l1.6-4.2h0.8l1.6,4.2H238.9z M238.3,40.2l-0.4-1.1
			c0-0.1-0.1-0.2-0.1-0.4c-0.1-0.2-0.1-0.3-0.1-0.4c-0.1,0.2-0.1,0.5-0.2,0.8l-0.4,1.1H238.3z"/>
		<path fill="#49494A" d="M240.8,40.3V42h-0.7v-4.2h1.2c0.5,0,0.9,0.1,1.2,0.3c0.3,0.2,0.4,0.5,0.4,0.9c0,0.5-0.3,0.9-0.8,1.1
			l1.2,1.9h-0.8l-1-1.7H240.8z M240.8,39.7h0.5c0.3,0,0.6-0.1,0.7-0.2s0.2-0.3,0.2-0.5c0-0.2-0.1-0.4-0.2-0.5
			c-0.2-0.1-0.4-0.2-0.7-0.2h-0.5V39.7z"/>
		<path fill="#49494A" d="M245.7,38.3c-0.4,0-0.7,0.1-0.9,0.4c-0.2,0.3-0.3,0.7-0.3,1.2c0,0.5,0.1,0.9,0.3,1.2
			c0.2,0.3,0.5,0.4,0.9,0.4c0.2,0,0.4,0,0.5-0.1c0.2,0,0.3-0.1,0.5-0.1v0.6c-0.3,0.1-0.7,0.2-1.1,0.2c-0.6,0-1.1-0.2-1.4-0.6
			c-0.3-0.4-0.5-0.9-0.5-1.6c0-0.4,0.1-0.8,0.2-1.2s0.4-0.6,0.7-0.8c0.3-0.2,0.7-0.3,1.1-0.3c0.4,0,0.8,0.1,1.2,0.3l-0.2,0.6
			c-0.1-0.1-0.3-0.1-0.5-0.2C246.1,38.3,245.9,38.3,245.7,38.3z"/>
		<path fill="#49494A" d="M251,42h-0.7v-1.9h-1.9V42h-0.7v-4.2h0.7v1.7h1.9v-1.7h0.7V42z"/>
	</g>
	<g>
		<path fill="#49494A" d="M274.9,41.7v-4.2h0.7v3.6h1.8v0.6H274.9z"/>
		<path fill="#49494A" d="M281.8,39.6c0,0.7-0.2,1.2-0.5,1.6s-0.8,0.6-1.5,0.6c-0.6,0-1.1-0.2-1.5-0.6c-0.3-0.4-0.5-0.9-0.5-1.6
			s0.2-1.2,0.5-1.6s0.8-0.6,1.5-0.6c0.6,0,1.1,0.2,1.5,0.6C281.6,38.4,281.8,38.9,281.8,39.6z M278.6,39.6c0,0.5,0.1,0.9,0.3,1.2
			s0.5,0.4,0.9,0.4c0.4,0,0.7-0.1,0.9-0.4c0.2-0.3,0.3-0.7,0.3-1.2c0-0.5-0.1-0.9-0.3-1.2c-0.2-0.3-0.5-0.4-0.9-0.4
			c-0.4,0-0.7,0.1-0.9,0.4C278.7,38.7,278.6,39.1,278.6,39.6z"/>
		<path fill="#49494A" d="M284.4,39.4h1.6v2.1c-0.3,0.1-0.5,0.1-0.7,0.2c-0.2,0-0.5,0.1-0.8,0.1c-0.6,0-1.1-0.2-1.5-0.6
			c-0.3-0.4-0.5-0.9-0.5-1.6c0-0.7,0.2-1.2,0.6-1.6s0.9-0.6,1.6-0.6c0.4,0,0.9,0.1,1.3,0.3l-0.2,0.6c-0.3-0.2-0.7-0.2-1-0.2
			c-0.4,0-0.8,0.1-1.1,0.4c-0.3,0.3-0.4,0.7-0.4,1.2c0,0.5,0.1,0.9,0.4,1.2s0.6,0.4,1,0.4c0.2,0,0.5,0,0.7-0.1V40h-0.9V39.4z"/>
		<path fill="#49494A" d="M287,41.7v-4.2h0.7v4.2H287z"/>
		<path fill="#49494A" d="M292.3,41.7h-0.8l-2.1-3.4h0l0,0.2c0,0.4,0,0.7,0,1v2.2h-0.6v-4.2h0.8l2.1,3.3h0c0,0,0-0.2,0-0.5
			c0-0.3,0-0.5,0-0.7v-2.2h0.6V41.7z"/>
	</g>
	<g>
		<path fill="#49494A" d="M352.6,37.3h0.7l-1.5,4.2h-0.7l-1.5-4.2h0.7l0.9,2.6c0,0.1,0.1,0.3,0.1,0.5c0.1,0.2,0.1,0.3,0.1,0.4
			c0-0.1,0.1-0.3,0.1-0.5c0.1-0.2,0.1-0.3,0.1-0.4L352.6,37.3z"/>
		<path fill="#49494A" d="M353.9,41.5v-4.2h0.7v4.2H353.9z"/>
		<path fill="#49494A" d="M358.1,41.5h-2.4v-4.2h2.4v0.6h-1.7V39h1.6v0.6h-1.6v1.3h1.7V41.5z"/>
		<path fill="#49494A" d="M362.9,41.5h-0.8l-0.7-2.5c0-0.1-0.1-0.3-0.1-0.5c0-0.2-0.1-0.4-0.1-0.4c0,0.1,0,0.3-0.1,0.5
			c0,0.2-0.1,0.3-0.1,0.4l-0.7,2.5h-0.8l-0.5-2.1l-0.6-2.1h0.7l0.6,2.5c0.1,0.4,0.2,0.7,0.2,1c0-0.2,0.1-0.3,0.1-0.5
			c0-0.2,0.1-0.4,0.1-0.5l0.7-2.5h0.7l0.7,2.5c0.1,0.2,0.1,0.6,0.2,1c0-0.3,0.1-0.6,0.2-1l0.6-2.5h0.7L362.9,41.5z"/>
		<path fill="#49494A" d="M367.9,37.8c-0.4,0-0.7,0.1-0.9,0.4c-0.2,0.3-0.3,0.7-0.3,1.2c0,0.5,0.1,0.9,0.3,1.2
			c0.2,0.3,0.5,0.4,0.9,0.4c0.2,0,0.4,0,0.5-0.1c0.2,0,0.3-0.1,0.5-0.1v0.6c-0.3,0.1-0.7,0.2-1.1,0.2c-0.6,0-1.1-0.2-1.4-0.6
			c-0.3-0.4-0.5-0.9-0.5-1.6c0-0.4,0.1-0.8,0.2-1.2s0.4-0.6,0.7-0.8c0.3-0.2,0.7-0.3,1.1-0.3c0.4,0,0.8,0.1,1.2,0.3l-0.2,0.6
			c-0.1-0.1-0.3-0.1-0.5-0.2C368.2,37.9,368.1,37.8,367.9,37.8z"/>
		<path fill="#49494A" d="M372.5,41.5l-0.4-1.2h-1.6l-0.4,1.2h-0.7l1.6-4.2h0.8l1.6,4.2H372.5z M371.9,39.8l-0.4-1.1
			c0-0.1-0.1-0.2-0.1-0.4c-0.1-0.2-0.1-0.3-0.1-0.4c-0.1,0.2-0.1,0.5-0.2,0.8l-0.4,1.1H371.9z"/>
		<path fill="#49494A" d="M374.4,39.8v1.7h-0.7v-4.2h1.2c0.5,0,0.9,0.1,1.2,0.3c0.3,0.2,0.4,0.5,0.4,0.9c0,0.5-0.3,0.9-0.8,1.1
			l1.2,1.9h-0.8l-1-1.7H374.4z M374.4,39.3h0.5c0.3,0,0.6-0.1,0.7-0.2s0.2-0.3,0.2-0.5c0-0.2-0.1-0.4-0.2-0.5
			c-0.2-0.1-0.4-0.2-0.7-0.2h-0.5V39.3z"/>
		<path fill="#49494A" d="M379,41.5h-0.7v-3.6h-1.2v-0.6h3.2v0.6H379V41.5z"/>
	</g>
	<rect x="80.3" y="19.4" fill="#D3D3D3" width="1.9" height="14.4"/>
	<rect x="165.4" y="20.6" fill="#D3D3D3" width="1.9" height="13.3"/>
	<rect x="165.9" y="45" fill="#D3D3D3" width="1.9" height="15.1"/>
	<rect x="204.7" y="21.3" fill="#D3D3D3" width="1.9" height="13"/>
	
		<rect x="233.8" y="26.2" transform="matrix(1.201943e-03 1 -1 1.201943e-03 267.1731 -213.1312)" fill="#64C29D" width="13" height="1.9"/>
	
		<rect x="239.4" y="44.6" transform="matrix(1 6.122334e-03 -6.122334e-03 1 0.332 -1.4705)" fill="#64C29D" width="1.9" height="17.8"/>
	
		<rect x="276.4" y="26.5" transform="matrix(2.732516e-02 0.9996 -0.9996 2.732516e-02 302.9734 -256.3939)" fill="#D3D3D3" width="13.6" height="1.9"/>
	<polygon fill="#D3D3D3" points="370.2,33.2 368.2,33.2 368.2,21.3 240.3,21.3 240.3,19.4 370.2,19.4 	"/>
	<polygon fill="#D3D3D3" points="10,142.6 9.9,82.3 16.7,82.5 16.6,84.5 11.8,84.3 11.9,140.6 20,140.5 20,142.4 	"/>
	<g>
		<path d="M20.5,80.9c-0.6,0-1.1,0.2-1.4,0.6c-0.3,0.4-0.5,0.9-0.5,1.6c0,0.7,0.2,1.2,0.5,1.6s0.8,0.6,1.4,0.6
			c0.4,0,0.8-0.1,1.1-0.2v0.3c-0.3,0.1-0.7,0.2-1.2,0.2c-0.7,0-1.2-0.2-1.6-0.7c-0.4-0.4-0.6-1-0.6-1.8c0-0.5,0.1-0.9,0.3-1.3
			c0.2-0.4,0.4-0.7,0.8-0.9c0.3-0.2,0.7-0.3,1.2-0.3c0.5,0,0.9,0.1,1.3,0.3l-0.1,0.3C21.2,80.9,20.8,80.9,20.5,80.9z"/>
		<path d="M24.7,85.4l-0.1-0.6h0c-0.2,0.2-0.4,0.4-0.6,0.5c-0.2,0.1-0.4,0.1-0.7,0.1c-0.3,0-0.6-0.1-0.8-0.3
			c-0.2-0.2-0.3-0.4-0.3-0.7c0-0.3,0.1-0.6,0.4-0.8c0.3-0.2,0.7-0.3,1.3-0.3l0.7,0v-0.2c0-0.3-0.1-0.6-0.2-0.8s-0.4-0.3-0.7-0.3
			c-0.3,0-0.7,0.1-1,0.3l-0.1-0.3c0.4-0.2,0.8-0.3,1.2-0.3c0.4,0,0.7,0.1,0.9,0.3s0.3,0.5,0.3,0.9v2.4H24.7z M23.3,85.2
			c0.4,0,0.7-0.1,0.9-0.3c0.2-0.2,0.3-0.5,0.3-0.9v-0.4l-0.6,0c-0.5,0-0.9,0.1-1.1,0.2c-0.2,0.1-0.3,0.3-0.3,0.6
			c0,0.2,0.1,0.4,0.2,0.5C22.9,85.1,23.1,85.2,23.3,85.2z"/>
		<path d="M27,85.2c0.2,0,0.4,0,0.5-0.1v0.3c-0.2,0.1-0.3,0.1-0.5,0.1c-0.3,0-0.5-0.1-0.7-0.3s-0.2-0.4-0.2-0.8v-2.3h-0.5v-0.2
			l0.5-0.1l0.2-0.8h0.2v0.9h1v0.3h-1v2.2c0,0.3,0,0.5,0.1,0.6C26.6,85.1,26.8,85.2,27,85.2z"/>
		<path d="M29.7,85.5c-0.5,0-0.9-0.2-1.2-0.5c-0.3-0.3-0.4-0.8-0.4-1.3c0-0.6,0.1-1,0.4-1.4c0.3-0.3,0.7-0.5,1.1-0.5
			c0.4,0,0.7,0.1,1,0.4c0.2,0.3,0.4,0.7,0.4,1.2v0.3h-2.6c0,0.5,0.1,0.9,0.3,1.1c0.2,0.3,0.5,0.4,1,0.4c0.2,0,0.4,0,0.5,0
			c0.2,0,0.3-0.1,0.6-0.2v0.3c-0.2,0.1-0.4,0.1-0.6,0.2C30.1,85.5,29.9,85.5,29.7,85.5z M29.6,82.1c-0.3,0-0.6,0.1-0.8,0.3
			c-0.2,0.2-0.3,0.6-0.4,1h2.2c0-0.4-0.1-0.7-0.3-1S29.9,82.1,29.6,82.1z"/>
		<path d="M34.7,81.9v0.2l-0.7,0c0.2,0.2,0.3,0.5,0.3,0.8c0,0.3-0.1,0.6-0.3,0.8c-0.2,0.2-0.5,0.3-0.9,0.3c-0.2,0-0.3,0-0.3,0
			c-0.1,0.1-0.2,0.1-0.3,0.2c-0.1,0.1-0.1,0.2-0.1,0.3c0,0.1,0,0.2,0.1,0.2s0.2,0.1,0.4,0.1h0.6c0.4,0,0.7,0.1,0.9,0.2
			c0.2,0.2,0.3,0.4,0.3,0.7c0,0.4-0.2,0.7-0.5,0.9c-0.3,0.2-0.7,0.3-1.3,0.3c-0.4,0-0.8-0.1-1-0.3c-0.2-0.2-0.4-0.4-0.4-0.7
			c0-0.2,0.1-0.4,0.2-0.6c0.2-0.2,0.4-0.3,0.6-0.3c-0.1,0-0.2-0.1-0.3-0.2C32,84.8,32,84.7,32,84.6c0-0.2,0.2-0.4,0.5-0.6
			c-0.2-0.1-0.4-0.2-0.5-0.4c-0.1-0.2-0.2-0.4-0.2-0.6c0-0.4,0.1-0.6,0.3-0.9s0.5-0.3,0.9-0.3c0.2,0,0.4,0,0.5,0.1H34.7z M31.9,86
			c0,0.5,0.4,0.7,1.1,0.7c0.9,0,1.4-0.3,1.4-0.9c0-0.2-0.1-0.4-0.2-0.5c-0.1-0.1-0.4-0.1-0.7-0.1h-0.6C32.2,85.2,31.9,85.5,31.9,86z
			 M32.1,83c0,0.3,0.1,0.5,0.3,0.6c0.2,0.2,0.4,0.2,0.7,0.2c0.3,0,0.5-0.1,0.7-0.2c0.2-0.2,0.2-0.4,0.2-0.7c0-0.3-0.1-0.5-0.2-0.7
			C33.6,82.1,33.3,82,33,82c-0.3,0-0.5,0.1-0.7,0.2C32.2,82.4,32.1,82.7,32.1,83z"/>
		<path d="M38.4,83.6c0,0.6-0.1,1-0.4,1.4c-0.3,0.3-0.7,0.5-1.2,0.5c-0.3,0-0.6-0.1-0.8-0.2c-0.2-0.2-0.4-0.4-0.5-0.6
			s-0.2-0.6-0.2-1c0-0.6,0.1-1,0.4-1.4s0.7-0.5,1.2-0.5c0.5,0,0.9,0.2,1.1,0.5C38.3,82.6,38.4,83.1,38.4,83.6z M35.6,83.6
			c0,0.5,0.1,0.9,0.3,1.1s0.5,0.4,0.9,0.4s0.7-0.1,0.9-0.4s0.3-0.7,0.3-1.1c0-0.5-0.1-0.9-0.3-1.1c-0.2-0.3-0.5-0.4-0.9-0.4
			c-0.4,0-0.7,0.1-0.9,0.4C35.7,82.8,35.6,83.1,35.6,83.6z"/>
		<path d="M40.8,81.8c0.2,0,0.3,0,0.5,0l-0.1,0.3c-0.1,0-0.3-0.1-0.5-0.1c-0.3,0-0.6,0.1-0.7,0.4c-0.2,0.3-0.3,0.6-0.3,1v2h-0.3
			v-3.6h0.3l0,0.6h0c0.1-0.3,0.3-0.4,0.5-0.6C40.4,81.8,40.6,81.8,40.8,81.8z"/>
		<path d="M41.4,81.9h0.3l0.8,2c0.2,0.6,0.4,1,0.4,1.2h0c0.1-0.3,0.2-0.7,0.4-1.3l0.8-2h0.3L42.9,86c-0.1,0.3-0.2,0.6-0.3,0.7
			c-0.1,0.1-0.2,0.2-0.3,0.3C42.1,87,42,87,41.8,87c-0.1,0-0.3,0-0.4-0.1v-0.3c0.1,0,0.3,0.1,0.4,0.1c0.1,0,0.2,0,0.3-0.1
			c0.1-0.1,0.2-0.1,0.2-0.2c0.1-0.1,0.1-0.3,0.2-0.5c0.1-0.2,0.1-0.4,0.2-0.5L41.4,81.9z"/>
	</g>
	<g>
		<g>
			<path fill="#0D0B0B" d="M26.9,103.1h-1.9l-0.7,1.7h-0.4l1.9-4.8H26l1.9,4.8h-0.4L26.9,103.1z M25.1,102.8h1.7l-0.7-1.7
				c-0.1-0.1-0.1-0.3-0.2-0.6c-0.1,0.2-0.1,0.4-0.2,0.6L25.1,102.8z"/>
			<path fill="#0D0B0B" d="M31.3,101.2v0.2l-0.7,0c0.2,0.2,0.3,0.5,0.3,0.8c0,0.3-0.1,0.6-0.3,0.8c-0.2,0.2-0.5,0.3-0.9,0.3
				c-0.2,0-0.3,0-0.3,0c-0.1,0.1-0.2,0.1-0.3,0.2c-0.1,0.1-0.1,0.2-0.1,0.3c0,0.1,0,0.2,0.1,0.2s0.2,0.1,0.4,0.1H30
				c0.4,0,0.7,0.1,0.9,0.2c0.2,0.2,0.3,0.4,0.3,0.7c0,0.4-0.2,0.7-0.5,0.9c-0.3,0.2-0.7,0.3-1.3,0.3c-0.4,0-0.8-0.1-1-0.3
				c-0.2-0.2-0.4-0.4-0.4-0.7c0-0.2,0.1-0.4,0.2-0.6c0.2-0.2,0.4-0.3,0.6-0.3c-0.1,0-0.2-0.1-0.3-0.2c-0.1-0.1-0.1-0.2-0.1-0.3
				c0-0.2,0.2-0.4,0.5-0.6c-0.2-0.1-0.4-0.2-0.5-0.4c-0.1-0.2-0.2-0.4-0.2-0.6c0-0.4,0.1-0.6,0.3-0.9s0.5-0.3,0.9-0.3
				c0.2,0,0.4,0,0.5,0.1H31.3z M28.4,105.4c0,0.5,0.4,0.7,1.1,0.7c0.9,0,1.4-0.3,1.4-0.9c0-0.2-0.1-0.4-0.2-0.5
				c-0.1-0.1-0.4-0.1-0.7-0.1h-0.6C28.7,104.6,28.4,104.9,28.4,105.4z M28.7,102.3c0,0.3,0.1,0.5,0.3,0.6c0.2,0.2,0.4,0.2,0.7,0.2
				c0.3,0,0.5-0.1,0.7-0.2c0.2-0.2,0.2-0.4,0.2-0.7c0-0.3-0.1-0.5-0.2-0.7c-0.2-0.2-0.4-0.2-0.7-0.2c-0.3,0-0.5,0.1-0.7,0.2
				C28.8,101.8,28.7,102.1,28.7,102.3z"/>
			<path fill="#0D0B0B" d="M33.4,104.9c-0.5,0-0.9-0.2-1.2-0.5c-0.3-0.3-0.4-0.8-0.4-1.3c0-0.6,0.1-1,0.4-1.4
				c0.3-0.3,0.7-0.5,1.1-0.5c0.4,0,0.7,0.1,1,0.4c0.2,0.3,0.4,0.7,0.4,1.2v0.3h-2.6c0,0.5,0.1,0.9,0.3,1.1c0.2,0.3,0.5,0.4,1,0.4
				c0.2,0,0.4,0,0.5,0c0.2,0,0.3-0.1,0.6-0.2v0.3c-0.2,0.1-0.4,0.1-0.6,0.2C33.8,104.8,33.6,104.9,33.4,104.9z M33.4,101.5
				c-0.3,0-0.6,0.1-0.8,0.3c-0.2,0.2-0.3,0.6-0.4,1h2.2c0-0.4-0.1-0.7-0.3-1S33.7,101.5,33.4,101.5z"/>
		</g>
	</g>
	<g>
		<g>
			<path fill="#0C0808" d="M23.5,119.7h1.3c0.6,0,1,0.1,1.3,0.3c0.3,0.2,0.4,0.5,0.4,0.9c0,0.3-0.1,0.5-0.3,0.7s-0.4,0.3-0.7,0.4v0
				c0.4,0.1,0.7,0.2,0.8,0.4s0.3,0.4,0.3,0.8c0,0.4-0.1,0.8-0.4,1c-0.3,0.2-0.7,0.4-1.2,0.4h-1.5V119.7z M23.9,121.9h1.1
				c0.4,0,0.8-0.1,1-0.2c0.2-0.2,0.3-0.4,0.3-0.7s-0.1-0.6-0.3-0.7c-0.2-0.1-0.6-0.2-1-0.2h-1V121.9z M23.9,122.2v2.1H25
				c0.9,0,1.3-0.4,1.3-1.1c0-0.7-0.5-1-1.4-1H23.9z"/>
			<path fill="#0C0808" d="M29.1,120.9c0.2,0,0.3,0,0.5,0l-0.1,0.3c-0.1,0-0.3-0.1-0.5-0.1c-0.3,0-0.6,0.1-0.7,0.4
				c-0.2,0.3-0.3,0.6-0.3,1v2h-0.3V121h0.3l0,0.6h0c0.1-0.3,0.3-0.4,0.5-0.6C28.6,121,28.8,120.9,29.1,120.9z"/>
			<path fill="#0C0808" d="M32.4,124.5l-0.1-0.6h0c-0.2,0.2-0.4,0.4-0.6,0.5c-0.2,0.1-0.4,0.1-0.7,0.1c-0.3,0-0.6-0.1-0.8-0.3
				c-0.2-0.2-0.3-0.4-0.3-0.7c0-0.3,0.1-0.6,0.4-0.8c0.3-0.2,0.7-0.3,1.3-0.3l0.7,0v-0.2c0-0.3-0.1-0.6-0.2-0.8s-0.4-0.3-0.7-0.3
				c-0.3,0-0.7,0.1-1,0.3l-0.1-0.3c0.4-0.2,0.8-0.3,1.2-0.3c0.4,0,0.7,0.1,0.9,0.3s0.3,0.5,0.3,0.9v2.4H32.4z M31.1,124.3
				c0.4,0,0.7-0.1,0.9-0.3c0.2-0.2,0.3-0.5,0.3-0.9v-0.4l-0.6,0c-0.5,0-0.9,0.1-1.1,0.2c-0.2,0.1-0.3,0.3-0.3,0.6
				c0,0.2,0.1,0.4,0.2,0.5C30.7,124.2,30.9,124.3,31.1,124.3z"/>
			<path fill="#0C0808" d="M36.3,124.5v-2.3c0-0.4-0.1-0.6-0.2-0.8s-0.4-0.2-0.7-0.2c-0.4,0-0.7,0.1-0.9,0.3s-0.3,0.6-0.3,1v2h-0.3
				V121h0.3l0.1,0.5h0c0.2-0.4,0.6-0.6,1.2-0.6c0.8,0,1.2,0.4,1.2,1.3v2.3H36.3z"/>
			<path fill="#0C0808" d="M39.1,120.9c0.3,0,0.5,0,0.7,0.1s0.4,0.3,0.5,0.5h0c0-0.3,0-0.5,0-0.8v-1.3h0.3v5.1h-0.2l-0.1-0.5h0
				c-0.3,0.4-0.7,0.6-1.2,0.6c-0.5,0-0.9-0.2-1.1-0.5c-0.3-0.3-0.4-0.8-0.4-1.3c0-0.6,0.1-1.1,0.4-1.4
				C38.2,121.1,38.6,120.9,39.1,120.9z M39.1,121.2c-0.4,0-0.7,0.1-0.9,0.4c-0.2,0.3-0.3,0.7-0.3,1.2c0,1,0.4,1.5,1.2,1.5
				c0.4,0,0.7-0.1,0.9-0.3c0.2-0.2,0.3-0.6,0.3-1.2v-0.1c0-0.5-0.1-0.9-0.3-1.2C39.8,121.3,39.5,121.2,39.1,121.2z"/>
		</g>
	</g>
	<g>
		<g>
			<path d="M23.8,142.4h-0.3v-4.5h-1.6v-0.3h3.4v0.3h-1.6V142.4z"/>
			<path d="M28.9,140.6c0,0.6-0.1,1-0.4,1.4c-0.3,0.3-0.7,0.5-1.2,0.5c-0.3,0-0.6-0.1-0.8-0.2c-0.2-0.2-0.4-0.4-0.5-0.6
				s-0.2-0.6-0.2-1c0-0.6,0.1-1,0.4-1.4s0.7-0.5,1.2-0.5c0.5,0,0.9,0.2,1.1,0.5C28.8,139.6,28.9,140,28.9,140.6z M26.1,140.6
				c0,0.5,0.1,0.9,0.3,1.1s0.5,0.4,0.9,0.4s0.7-0.1,0.9-0.4s0.3-0.7,0.3-1.1c0-0.5-0.1-0.9-0.3-1.1c-0.2-0.3-0.5-0.4-0.9-0.4
				c-0.4,0-0.7,0.1-0.9,0.4C26.2,139.7,26.1,140.1,26.1,140.6z"/>
			<path d="M31.4,142.4c-0.5,0-0.9-0.2-1.2-0.6h0l0,0.3c0,0.2,0,0.3,0,0.5v1.4h-0.3v-5.2h0.3l0.1,0.5h0c0.2-0.4,0.6-0.6,1.2-0.6
				c0.5,0,0.8,0.2,1.1,0.5s0.4,0.8,0.4,1.4c0,0.6-0.1,1-0.4,1.4C32.2,142.3,31.9,142.4,31.4,142.4z M31.4,142.1
				c0.4,0,0.6-0.1,0.8-0.4c0.2-0.3,0.3-0.6,0.3-1.1c0-1-0.4-1.6-1.1-1.6c-0.4,0-0.7,0.1-0.9,0.3c-0.2,0.2-0.3,0.6-0.3,1.1v0.1
				c0,0.6,0.1,1,0.3,1.2C30.7,142,31,142.1,31.4,142.1z"/>
			<path d="M38.4,142.4h-3v-0.3l1.3-1.3c0.4-0.4,0.6-0.7,0.8-0.8c0.1-0.2,0.2-0.4,0.3-0.6c0.1-0.2,0.1-0.4,0.1-0.6
				c0-0.3-0.1-0.5-0.3-0.7c-0.2-0.2-0.4-0.3-0.7-0.3c-0.4,0-0.8,0.1-1.1,0.4l-0.2-0.2c0.4-0.3,0.8-0.5,1.3-0.5c0.4,0,0.7,0.1,1,0.3
				s0.4,0.5,0.4,0.9c0,0.3-0.1,0.6-0.2,0.9s-0.5,0.7-0.9,1.1l-1.2,1.3v0h2.6V142.4z"/>
			<path d="M42.3,140c0,0.8-0.1,1.5-0.4,1.9c-0.3,0.4-0.6,0.6-1.2,0.6c-0.5,0-0.9-0.2-1.1-0.6c-0.3-0.4-0.4-1-0.4-1.8
				c0-0.8,0.1-1.5,0.4-1.9c0.3-0.4,0.6-0.6,1.1-0.6c0.5,0,0.9,0.2,1.2,0.6S42.3,139.2,42.3,140z M39.6,140c0,0.7,0.1,1.3,0.3,1.6
				c0.2,0.4,0.5,0.5,0.9,0.5c0.4,0,0.7-0.2,0.9-0.5c0.2-0.4,0.3-0.9,0.3-1.6c0-0.7-0.1-1.2-0.3-1.6c-0.2-0.4-0.5-0.5-0.9-0.5
				c-0.4,0-0.7,0.2-0.9,0.5C39.7,138.7,39.6,139.2,39.6,140z"/>
		</g>
	</g>
	<polygon fill="#BD1F3D" points="21,123.8 9.7,123.8 9.9,109.7 0,109.7 0,59.1 32.5,59.1 32.7,44.8 34.6,44.8 34.4,61 1.9,61 
		1.9,107.8 11.9,107.8 11.7,121.9 21,121.9 	"/>
	<polygon fill="#D3D3D3" points="321.8,78.8 321.8,51.9 367.9,51.9 368.2,44.9 370.1,45 369.8,53.8 323.7,53.8 323.7,76.9 
		333.4,76.6 333.5,78.5 	"/>
	<rect x="74.1" y="115.5" fill="#BD1F3D" width="1.9" height="20.3"/>
	<g>
		<path fill="#020202" d="M65.7,108.8c0,0.5-0.2,0.8-0.5,1.1s-0.8,0.4-1.3,0.4h-0.7v2h-0.3v-4.8H64
			C65.1,107.4,65.7,107.9,65.7,108.8z M63.1,109.9h0.7c0.5,0,0.9-0.1,1.2-0.3s0.4-0.5,0.4-0.9c0-0.4-0.1-0.6-0.3-0.8
			c-0.2-0.2-0.6-0.3-1.1-0.3h-0.8V109.9z"/>
		<path fill="#020202" d="M68,108.6c0.2,0,0.3,0,0.5,0l-0.1,0.3c-0.1,0-0.3-0.1-0.5-0.1c-0.3,0-0.6,0.1-0.7,0.4
			c-0.2,0.3-0.3,0.6-0.3,1v2h-0.3v-3.6h0.3l0,0.6h0c0.1-0.3,0.3-0.4,0.5-0.6S67.8,108.6,68,108.6z"/>
		<path fill="#020202" d="M72.2,110.4c0,0.6-0.1,1-0.4,1.4s-0.7,0.5-1.2,0.5c-0.3,0-0.6-0.1-0.8-0.2c-0.2-0.2-0.4-0.4-0.5-0.6
			s-0.2-0.6-0.2-1c0-0.6,0.1-1,0.4-1.4c0.3-0.3,0.7-0.5,1.2-0.5c0.5,0,0.9,0.2,1.1,0.5C72.1,109.4,72.2,109.8,72.2,110.4z
			 M69.4,110.4c0,0.5,0.1,0.9,0.3,1.1c0.2,0.3,0.5,0.4,0.9,0.4s0.7-0.1,0.9-0.4c0.2-0.3,0.3-0.7,0.3-1.1c0-0.5-0.1-0.9-0.3-1.1
			c-0.2-0.3-0.5-0.4-0.9-0.4c-0.4,0-0.7,0.1-0.9,0.4C69.5,109.5,69.4,109.9,69.4,110.4z"/>
		<path fill="#020202" d="M74.5,108.6c0.3,0,0.5,0,0.7,0.1s0.4,0.3,0.5,0.5h0c0-0.3,0-0.5,0-0.8v-1.3H76v5.1h-0.2l-0.1-0.5h0
			c-0.3,0.4-0.7,0.6-1.2,0.6c-0.5,0-0.9-0.2-1.1-0.5c-0.3-0.3-0.4-0.8-0.4-1.3c0-0.6,0.1-1.1,0.4-1.4
			C73.6,108.7,74,108.6,74.5,108.6z M74.5,108.8c-0.4,0-0.7,0.1-0.9,0.4c-0.2,0.3-0.3,0.7-0.3,1.2c0,1,0.4,1.5,1.2,1.5
			c0.4,0,0.7-0.1,0.9-0.3c0.2-0.2,0.3-0.6,0.3-1.2v-0.1c0-0.5-0.1-0.9-0.3-1.2C75.2,109,74.9,108.8,74.5,108.8z"/>
		<path fill="#020202" d="M77.4,108.6v2.3c0,0.4,0.1,0.6,0.2,0.8s0.4,0.2,0.7,0.2c0.4,0,0.7-0.1,0.9-0.3c0.2-0.2,0.3-0.6,0.3-1v-2
			h0.3v3.6h-0.3l-0.1-0.5h0c-0.2,0.4-0.6,0.6-1.2,0.6c-0.8,0-1.2-0.4-1.2-1.3v-2.3H77.4z"/>
		<path fill="#020202" d="M82.5,112.2c-0.5,0-0.9-0.2-1.2-0.5s-0.4-0.8-0.4-1.3c0-0.6,0.1-1,0.4-1.4c0.3-0.3,0.7-0.5,1.2-0.5
			c0.3,0,0.6,0.1,0.9,0.2l-0.1,0.3c-0.3-0.1-0.6-0.2-0.8-0.2c-0.4,0-0.8,0.1-1,0.4s-0.3,0.7-0.3,1.2c0,0.5,0.1,0.9,0.3,1.1
			s0.5,0.4,0.9,0.4c0.3,0,0.6-0.1,0.9-0.2v0.3C83.2,112.2,82.9,112.2,82.5,112.2z"/>
		<path fill="#020202" d="M85.2,112c0.2,0,0.4,0,0.5-0.1v0.3c-0.2,0.1-0.3,0.1-0.5,0.1c-0.3,0-0.5-0.1-0.7-0.3s-0.2-0.4-0.2-0.8
			v-2.3h-0.5v-0.2l0.5-0.1l0.2-0.8h0.2v0.9h1v0.3h-1v2.2c0,0.3,0,0.5,0.1,0.6C84.9,111.9,85,112,85.2,112z"/>
		<path fill="#020202" d="M88.7,111.3c0,0.3-0.1,0.6-0.4,0.7c-0.2,0.2-0.6,0.3-1,0.3c-0.5,0-0.9-0.1-1.1-0.2v-0.3
			c0.4,0.2,0.7,0.3,1.1,0.3c0.4,0,0.6-0.1,0.8-0.2c0.2-0.1,0.3-0.3,0.3-0.5c0-0.2-0.1-0.3-0.2-0.5c-0.1-0.1-0.4-0.2-0.7-0.4
			c-0.4-0.1-0.6-0.2-0.7-0.3s-0.3-0.2-0.3-0.3c-0.1-0.1-0.1-0.3-0.1-0.4c0-0.3,0.1-0.5,0.3-0.6c0.2-0.2,0.5-0.2,0.9-0.2
			c0.4,0,0.7,0.1,1.1,0.2l-0.1,0.3c-0.3-0.1-0.7-0.2-1-0.2c-0.3,0-0.5,0-0.7,0.1c-0.2,0.1-0.3,0.2-0.3,0.4c0,0.2,0.1,0.3,0.2,0.4
			s0.4,0.2,0.8,0.4c0.3,0.1,0.6,0.2,0.7,0.3c0.1,0.1,0.3,0.2,0.3,0.3C88.7,111,88.7,111.1,88.7,111.3z"/>
	</g>
	<g>
		<path d="M156.5,68.7v-4.8h0.3v4.5h2.3v0.3H156.5z"/>
		<path d="M162.8,66.9c0,0.6-0.1,1-0.4,1.4c-0.3,0.3-0.7,0.5-1.2,0.5c-0.3,0-0.6-0.1-0.8-0.2c-0.2-0.2-0.4-0.4-0.5-0.6
			s-0.2-0.6-0.2-1c0-0.6,0.1-1,0.4-1.4c0.3-0.3,0.7-0.5,1.2-0.5c0.5,0,0.9,0.2,1.1,0.5C162.6,65.9,162.8,66.3,162.8,66.9z M160,66.9
			c0,0.5,0.1,0.9,0.3,1.1c0.2,0.3,0.5,0.4,0.9,0.4s0.7-0.1,0.9-0.4c0.2-0.3,0.3-0.7,0.3-1.1c0-0.5-0.1-0.9-0.3-1.1
			c-0.2-0.3-0.5-0.4-0.9-0.4c-0.4,0-0.7,0.1-0.9,0.4C160.1,66,160,66.4,160,66.9z"/>
		<path d="M163.2,65.1h0.3l0.8,2c0.2,0.6,0.4,1,0.4,1.2h0c0.1-0.3,0.2-0.7,0.4-1.3l0.8-2h0.3l-1.6,4.1c-0.1,0.3-0.2,0.6-0.3,0.7
			c-0.1,0.1-0.2,0.2-0.3,0.3c-0.1,0.1-0.3,0.1-0.4,0.1c-0.1,0-0.3,0-0.4-0.1v-0.3c0.1,0,0.3,0.1,0.4,0.1c0.1,0,0.2,0,0.3-0.1
			c0.1-0.1,0.2-0.1,0.2-0.2c0.1-0.1,0.1-0.3,0.2-0.5c0.1-0.2,0.1-0.4,0.2-0.5L163.2,65.1z"/>
		<path d="M169,68.7l-0.1-0.6h0c-0.2,0.2-0.4,0.4-0.6,0.5s-0.4,0.1-0.7,0.1c-0.3,0-0.6-0.1-0.8-0.3c-0.2-0.2-0.3-0.4-0.3-0.7
			c0-0.3,0.1-0.6,0.4-0.8c0.3-0.2,0.7-0.3,1.3-0.3l0.7,0v-0.2c0-0.3-0.1-0.6-0.2-0.8c-0.1-0.2-0.4-0.3-0.7-0.3c-0.3,0-0.7,0.1-1,0.3
			l-0.1-0.3c0.4-0.2,0.8-0.3,1.2-0.3c0.4,0,0.7,0.1,0.9,0.3s0.3,0.5,0.3,0.9v2.4H169z M167.7,68.5c0.4,0,0.7-0.1,0.9-0.3
			c0.2-0.2,0.3-0.5,0.3-0.9v-0.4l-0.6,0c-0.5,0-0.9,0.1-1.1,0.2c-0.2,0.1-0.3,0.3-0.3,0.6c0,0.2,0.1,0.4,0.2,0.5
			C167.2,68.4,167.4,68.5,167.7,68.5z"/>
		<path d="M170.7,68.7h-0.3v-5.1h0.3V68.7z"/>
		<path d="M172.8,68.5c0.2,0,0.4,0,0.5-0.1v0.3c-0.2,0.1-0.3,0.1-0.5,0.1c-0.3,0-0.5-0.1-0.7-0.3s-0.2-0.4-0.2-0.8v-2.3h-0.5v-0.2
			l0.5-0.1l0.2-0.8h0.2v0.9h1v0.3h-1v2.2c0,0.3,0,0.5,0.1,0.6C172.5,68.4,172.6,68.5,172.8,68.5z"/>
		<path d="M173.5,65.1h0.3l0.8,2c0.2,0.6,0.4,1,0.4,1.2h0c0.1-0.3,0.2-0.7,0.4-1.3l0.8-2h0.3l-1.6,4.1c-0.1,0.3-0.2,0.6-0.3,0.7
			c-0.1,0.1-0.2,0.2-0.3,0.3c-0.1,0.1-0.3,0.1-0.4,0.1c-0.1,0-0.3,0-0.4-0.1v-0.3c0.1,0,0.3,0.1,0.4,0.1c0.1,0,0.2,0,0.3-0.1
			c0.1-0.1,0.2-0.1,0.2-0.2c0.1-0.1,0.1-0.3,0.2-0.5c0.1-0.2,0.1-0.4,0.2-0.5L173.5,65.1z"/>
		<path d="M157.6,73.3c0,0.5-0.2,0.8-0.5,1.1s-0.8,0.4-1.3,0.4h-0.7v2h-0.3v-4.8h1.2C157.1,71.9,157.6,72.4,157.6,73.3z M155.1,74.5
			h0.7c0.5,0,0.9-0.1,1.2-0.3s0.4-0.5,0.4-0.9c0-0.4-0.1-0.6-0.3-0.8c-0.2-0.2-0.6-0.3-1.1-0.3h-0.8V74.5z"/>
		<path d="M160,73.1c0.2,0,0.3,0,0.5,0l-0.1,0.3c-0.1,0-0.3-0.1-0.5-0.1c-0.3,0-0.6,0.1-0.7,0.4c-0.2,0.3-0.3,0.6-0.3,1v2h-0.3v-3.6
			h0.3l0,0.6h0c0.1-0.3,0.3-0.4,0.5-0.6C159.6,73.1,159.8,73.1,160,73.1z"/>
		<path d="M164.1,74.9c0,0.6-0.1,1-0.4,1.4c-0.3,0.3-0.7,0.5-1.2,0.5c-0.3,0-0.6-0.1-0.8-0.2c-0.2-0.2-0.4-0.4-0.5-0.6
			s-0.2-0.6-0.2-1c0-0.6,0.1-1,0.4-1.4c0.3-0.3,0.7-0.5,1.2-0.5c0.5,0,0.9,0.2,1.1,0.5C164,73.9,164.1,74.4,164.1,74.9z M161.3,74.9
			c0,0.5,0.1,0.9,0.3,1.1c0.2,0.3,0.5,0.4,0.9,0.4s0.7-0.1,0.9-0.4c0.2-0.3,0.3-0.7,0.3-1.1c0-0.5-0.1-0.9-0.3-1.1
			c-0.2-0.3-0.5-0.4-0.9-0.4c-0.4,0-0.7,0.1-0.9,0.4C161.4,74.1,161.3,74.4,161.3,74.9z"/>
		<path d="M167.9,73.2v0.2l-0.7,0c0.2,0.2,0.3,0.5,0.3,0.8c0,0.3-0.1,0.6-0.3,0.8c-0.2,0.2-0.5,0.3-0.9,0.3c-0.2,0-0.3,0-0.3,0
			c-0.1,0.1-0.2,0.1-0.3,0.2c-0.1,0.1-0.1,0.2-0.1,0.3c0,0.1,0,0.2,0.1,0.2c0.1,0.1,0.2,0.1,0.4,0.1h0.6c0.4,0,0.7,0.1,0.9,0.2
			c0.2,0.2,0.3,0.4,0.3,0.7c0,0.4-0.2,0.7-0.5,0.9c-0.3,0.2-0.7,0.3-1.3,0.3c-0.4,0-0.8-0.1-1-0.3c-0.2-0.2-0.4-0.4-0.4-0.7
			c0-0.2,0.1-0.4,0.2-0.6c0.2-0.2,0.4-0.3,0.6-0.3c-0.1,0-0.2-0.1-0.3-0.2c-0.1-0.1-0.1-0.2-0.1-0.3c0-0.2,0.2-0.4,0.5-0.6
			c-0.2-0.1-0.4-0.2-0.5-0.4c-0.1-0.2-0.2-0.4-0.2-0.6c0-0.4,0.1-0.6,0.3-0.9s0.5-0.3,0.9-0.3c0.2,0,0.4,0,0.5,0.1H167.9z M165,77.3
			c0,0.5,0.4,0.7,1.1,0.7c0.9,0,1.4-0.3,1.4-0.9c0-0.2-0.1-0.4-0.2-0.5c-0.1-0.1-0.4-0.1-0.7-0.1H166C165.3,76.5,165,76.8,165,77.3z
			 M165.3,74.3c0,0.3,0.1,0.5,0.3,0.6c0.2,0.2,0.4,0.2,0.7,0.2c0.3,0,0.5-0.1,0.7-0.2c0.2-0.2,0.2-0.4,0.2-0.7
			c0-0.3-0.1-0.5-0.2-0.7s-0.4-0.2-0.7-0.2c-0.3,0-0.5,0.1-0.7,0.2C165.4,73.8,165.3,74,165.3,74.3z"/>
		<path d="M170,73.1c0.2,0,0.3,0,0.5,0l-0.1,0.3c-0.1,0-0.3-0.1-0.5-0.1c-0.3,0-0.6,0.1-0.7,0.4c-0.2,0.3-0.3,0.6-0.3,1v2h-0.3v-3.6
			h0.3l0,0.6h0c0.1-0.3,0.3-0.4,0.5-0.6C169.6,73.1,169.8,73.1,170,73.1z"/>
		<path d="M173.4,76.7l-0.1-0.6h0c-0.2,0.2-0.4,0.4-0.6,0.5s-0.4,0.1-0.7,0.1c-0.3,0-0.6-0.1-0.8-0.3c-0.2-0.2-0.3-0.4-0.3-0.7
			c0-0.3,0.1-0.6,0.4-0.8c0.3-0.2,0.7-0.3,1.3-0.3l0.7,0v-0.2c0-0.3-0.1-0.6-0.2-0.8c-0.1-0.2-0.4-0.3-0.7-0.3c-0.3,0-0.7,0.1-1,0.3
			l-0.1-0.3c0.4-0.2,0.8-0.3,1.2-0.3c0.4,0,0.7,0.1,0.9,0.3s0.3,0.5,0.3,0.9v2.4H173.4z M172.1,76.5c0.4,0,0.7-0.1,0.9-0.3
			c0.2-0.2,0.3-0.5,0.3-0.9v-0.4l-0.6,0c-0.5,0-0.9,0.1-1.1,0.2c-0.2,0.1-0.3,0.3-0.3,0.6c0,0.2,0.1,0.4,0.2,0.5
			C171.6,76.4,171.8,76.5,172.1,76.5z"/>
		<path d="M179.2,76.7v-2.3c0-0.3-0.1-0.6-0.2-0.8s-0.3-0.2-0.6-0.2c-0.4,0-0.6,0.1-0.8,0.3c-0.2,0.2-0.3,0.5-0.3,0.9v2.1H177v-2.4
			c0-0.6-0.3-0.9-0.8-0.9c-0.4,0-0.6,0.1-0.8,0.3c-0.2,0.2-0.3,0.6-0.3,1v2h-0.3v-3.6h0.3l0.1,0.5h0c0.1-0.2,0.2-0.3,0.4-0.4
			c0.2-0.1,0.4-0.1,0.6-0.1c0.6,0,0.9,0.2,1.1,0.6h0c0.1-0.2,0.3-0.4,0.5-0.5c0.2-0.1,0.4-0.2,0.7-0.2c0.4,0,0.7,0.1,0.9,0.3
			c0.2,0.2,0.3,0.5,0.3,1v2.3H179.2z"/>
	</g>
	<g>
		<path d="M66.4,139.4c0,0.5-0.2,0.8-0.5,1.1s-0.8,0.4-1.3,0.4h-0.7v2h-0.3V138h1.2C65.8,138,66.4,138.5,66.4,139.4z M63.9,140.5
			h0.7c0.5,0,0.9-0.1,1.2-0.3s0.4-0.5,0.4-0.9c0-0.4-0.1-0.6-0.3-0.8c-0.2-0.2-0.6-0.3-1.1-0.3h-0.8V140.5z"/>
		<path d="M68.8,139.2c0.2,0,0.3,0,0.5,0l-0.1,0.3c-0.1,0-0.3-0.1-0.5-0.1c-0.3,0-0.6,0.1-0.7,0.4c-0.2,0.3-0.3,0.6-0.3,1v2h-0.3
			v-3.6h0.3l0,0.6h0c0.1-0.3,0.3-0.4,0.5-0.6S68.5,139.2,68.8,139.2z"/>
		<path d="M72.9,141c0,0.6-0.1,1-0.4,1.4s-0.7,0.5-1.2,0.5c-0.3,0-0.6-0.1-0.8-0.2c-0.2-0.2-0.4-0.4-0.5-0.6s-0.2-0.6-0.2-1
			c0-0.6,0.1-1,0.4-1.4c0.3-0.3,0.7-0.5,1.2-0.5c0.5,0,0.9,0.2,1.1,0.5C72.8,140,72.9,140.4,72.9,141z M70.1,141
			c0,0.5,0.1,0.9,0.3,1.1c0.2,0.3,0.5,0.4,0.9,0.4s0.7-0.1,0.9-0.4c0.2-0.3,0.3-0.7,0.3-1.1c0-0.5-0.1-0.9-0.3-1.1
			c-0.2-0.3-0.5-0.4-0.9-0.4c-0.4,0-0.7,0.1-0.9,0.4C70.2,140.1,70.1,140.5,70.1,141z"/>
		<path d="M75.2,139.2c0.3,0,0.5,0,0.7,0.1s0.4,0.3,0.5,0.5h0c0-0.3,0-0.5,0-0.8v-1.3h0.3v5.1h-0.2l-0.1-0.5h0
			c-0.3,0.4-0.7,0.6-1.2,0.6c-0.5,0-0.9-0.2-1.1-0.5c-0.3-0.3-0.4-0.8-0.4-1.3c0-0.6,0.1-1.1,0.4-1.4
			C74.3,139.3,74.7,139.2,75.2,139.2z M75.2,139.5c-0.4,0-0.7,0.1-0.9,0.4c-0.2,0.3-0.3,0.7-0.3,1.2c0,1,0.4,1.5,1.2,1.5
			c0.4,0,0.7-0.1,0.9-0.3c0.2-0.2,0.3-0.6,0.3-1.2V141c0-0.5-0.1-0.9-0.3-1.2C75.9,139.6,75.6,139.5,75.2,139.5z"/>
		<path d="M78.2,139.2v2.3c0,0.4,0.1,0.6,0.2,0.8s0.4,0.2,0.7,0.2c0.4,0,0.7-0.1,0.9-0.3c0.2-0.2,0.3-0.6,0.3-1v-2h0.3v3.6h-0.3
			l-0.1-0.5h0c-0.2,0.4-0.6,0.6-1.2,0.6c-0.8,0-1.2-0.4-1.2-1.3v-2.3H78.2z"/>
		<path d="M83.2,142.9c-0.5,0-0.9-0.2-1.2-0.5s-0.4-0.8-0.4-1.3c0-0.6,0.1-1,0.4-1.4c0.3-0.3,0.7-0.5,1.2-0.5c0.3,0,0.6,0.1,0.9,0.2
			l-0.1,0.3c-0.3-0.1-0.6-0.2-0.8-0.2c-0.4,0-0.8,0.1-1,0.4S82,140.5,82,141c0,0.5,0.1,0.9,0.3,1.1s0.5,0.4,0.9,0.4
			c0.3,0,0.6-0.1,0.9-0.2v0.3C83.9,142.8,83.6,142.9,83.2,142.9z"/>
		<path d="M85.9,142.6c0.2,0,0.4,0,0.5-0.1v0.3c-0.2,0.1-0.3,0.1-0.5,0.1c-0.3,0-0.5-0.1-0.7-0.3s-0.2-0.4-0.2-0.8v-2.3h-0.5v-0.2
			l0.5-0.1l0.2-0.8h0.2v0.9h1v0.3h-1v2.2c0,0.3,0,0.5,0.1,0.6C85.6,142.5,85.7,142.6,85.9,142.6z"/>
		<path d="M70.4,148.4c0,0.8-0.2,1.4-0.6,1.8c-0.4,0.4-1,0.6-1.9,0.6h-1.1V146h1.3c0.8,0,1.3,0.2,1.7,0.6
			C70.2,147,70.4,147.6,70.4,148.4z M70.1,148.4c0-0.7-0.2-1.2-0.5-1.5s-0.9-0.5-1.5-0.5h-0.9v4.2h0.8
			C69.4,150.5,70.1,149.8,70.1,148.4z"/>
		<path d="M72.9,150.9c-0.5,0-0.9-0.2-1.2-0.5c-0.3-0.3-0.4-0.8-0.4-1.3c0-0.6,0.1-1,0.4-1.4c0.3-0.3,0.7-0.5,1.1-0.5
			c0.4,0,0.7,0.1,1,0.4c0.2,0.3,0.4,0.7,0.4,1.2v0.3h-2.6c0,0.5,0.1,0.9,0.3,1.1c0.2,0.3,0.5,0.4,1,0.4c0.2,0,0.4,0,0.5,0
			c0.2,0,0.3-0.1,0.6-0.2v0.3c-0.2,0.1-0.4,0.1-0.6,0.2C73.3,150.9,73.1,150.9,72.9,150.9z M72.8,147.5c-0.3,0-0.6,0.1-0.8,0.3
			c-0.2,0.2-0.3,0.6-0.4,1h2.2c0-0.4-0.1-0.7-0.3-1S73.1,147.5,72.8,147.5z"/>
		<path d="M76.1,150.6c0.2,0,0.4,0,0.5-0.1v0.3c-0.2,0.1-0.3,0.1-0.5,0.1c-0.3,0-0.5-0.1-0.7-0.3s-0.2-0.4-0.2-0.8v-2.3h-0.5v-0.2
			l0.5-0.1l0.2-0.8h0.2v0.9h1v0.3h-1v2.2c0,0.3,0,0.5,0.1,0.6C75.7,150.5,75.9,150.6,76.1,150.6z"/>
		<path d="M79.5,150.8l-0.1-0.6h0c-0.2,0.2-0.4,0.4-0.6,0.5c-0.2,0.1-0.4,0.1-0.7,0.1c-0.3,0-0.6-0.1-0.8-0.3
			c-0.2-0.2-0.3-0.4-0.3-0.7c0-0.3,0.1-0.6,0.4-0.8c0.3-0.2,0.7-0.3,1.3-0.3l0.7,0v-0.2c0-0.3-0.1-0.6-0.2-0.8s-0.4-0.3-0.7-0.3
			c-0.3,0-0.7,0.1-1,0.3l-0.1-0.3c0.4-0.2,0.8-0.3,1.2-0.3c0.4,0,0.7,0.1,0.9,0.3s0.3,0.5,0.3,0.9v2.4H79.5z M78.2,150.6
			c0.4,0,0.7-0.1,0.9-0.3c0.2-0.2,0.3-0.5,0.3-0.9V149l-0.6,0c-0.5,0-0.9,0.1-1.1,0.2c-0.2,0.1-0.3,0.3-0.3,0.6
			c0,0.2,0.1,0.4,0.2,0.5C77.8,150.5,78,150.6,78.2,150.6z"/>
		<path d="M80.9,146.3c0-0.2,0.1-0.3,0.2-0.3c0.1,0,0.1,0,0.2,0.1s0.1,0.1,0.1,0.2c0,0.1,0,0.2-0.1,0.2s-0.1,0.1-0.2,0.1
			C81,146.6,80.9,146.5,80.9,146.3z M81.3,150.8h-0.3v-3.6h0.3V150.8z"/>
		<path d="M82.8,150.8h-0.3v-5.1h0.3V150.8z"/>
	</g>
	<g>
		<path fill="#49494A" d="M119.6,41.6h-0.7v-4.2h2.4V38h-1.7v1.3h1.6v0.6h-1.6V41.6z"/>
		<path fill="#49494A" d="M124.7,41.6l-0.4-1.2h-1.6l-0.4,1.2h-0.7l1.6-4.2h0.8l1.6,4.2H124.7z M124.1,39.8l-0.4-1.1
			c0-0.1-0.1-0.2-0.1-0.4c-0.1-0.2-0.1-0.3-0.1-0.4c-0.1,0.2-0.1,0.5-0.2,0.8l-0.4,1.1H124.1z"/>
		<path fill="#49494A" d="M129.7,39.5c0,0.5-0.1,0.9-0.3,1.3c-0.2,0.3-0.5,0.6-0.9,0.7l1,1.1h-0.9l-0.8-0.9h-0.1
			c-0.6,0-1.1-0.2-1.5-0.6c-0.3-0.4-0.5-0.9-0.5-1.6s0.2-1.2,0.5-1.6s0.8-0.6,1.5-0.6c0.6,0,1.1,0.2,1.5,0.6
			C129.6,38.3,129.7,38.8,129.7,39.5z M126.5,39.5c0,0.5,0.1,0.9,0.3,1.2s0.5,0.4,0.9,0.4c0.4,0,0.7-0.1,0.9-0.4
			c0.2-0.3,0.3-0.7,0.3-1.2c0-0.5-0.1-0.9-0.3-1.2c-0.2-0.3-0.5-0.4-0.9-0.4c-0.4,0-0.7,0.1-0.9,0.4S126.5,39,126.5,39.5z"/>
	</g>
	
		<rect x="346.3" y="91.7" transform="matrix(4.361214e-03 1 -1 4.361214e-03 445.861 -262.5695)" fill="#CA1F3D" width="17" height="1.9"/>
	
		<rect x="347.4" y="126.3" transform="matrix(4.741607e-03 1 -1 4.741607e-03 480.8452 -228.6034)" fill="#CA1F3D" width="15.7" height="1.9"/>
	<g>
		<path d="M232,67.7v2.1h-0.3V65h1.1c0.6,0,1,0.1,1.3,0.3c0.3,0.2,0.4,0.5,0.4,1c0,0.3-0.1,0.6-0.3,0.8c-0.2,0.2-0.4,0.4-0.8,0.5
			l1.3,2.2h-0.4l-1.2-2.1H232z M232,67.4h0.9c0.4,0,0.7-0.1,0.9-0.3s0.3-0.4,0.3-0.8c0-0.4-0.1-0.6-0.3-0.8
			c-0.2-0.2-0.6-0.2-1.1-0.2H232V67.4z"/>
		<path d="M237,69.9c-0.5,0-0.9-0.2-1.2-0.5s-0.4-0.8-0.4-1.3c0-0.6,0.1-1,0.4-1.4c0.3-0.3,0.7-0.5,1.1-0.5c0.4,0,0.7,0.1,1,0.4
			s0.4,0.7,0.4,1.2v0.3h-2.6c0,0.5,0.1,0.9,0.3,1.1c0.2,0.3,0.5,0.4,1,0.4c0.2,0,0.4,0,0.5,0c0.2,0,0.3-0.1,0.6-0.2v0.3
			c-0.2,0.1-0.4,0.1-0.6,0.2C237.4,69.8,237.2,69.9,237,69.9z M236.9,66.5c-0.3,0-0.6,0.1-0.8,0.3s-0.3,0.6-0.4,1h2.2
			c0-0.4-0.1-0.7-0.3-1S237.2,66.5,236.9,66.5z"/>
		<path d="M241.4,68.9c0,0.3-0.1,0.6-0.4,0.7s-0.6,0.3-1,0.3c-0.5,0-0.9-0.1-1.1-0.2v-0.4c0.4,0.2,0.7,0.3,1.1,0.3
			c0.4,0,0.6-0.1,0.8-0.2c0.2-0.1,0.3-0.3,0.3-0.5c0-0.2-0.1-0.3-0.2-0.5c-0.1-0.1-0.4-0.2-0.7-0.4c-0.4-0.1-0.6-0.2-0.7-0.3
			c-0.1-0.1-0.3-0.2-0.3-0.3S239,67.2,239,67c0-0.3,0.1-0.5,0.3-0.6c0.2-0.2,0.5-0.2,0.9-0.2c0.4,0,0.7,0.1,1.1,0.2l-0.1,0.3
			c-0.3-0.1-0.7-0.2-1-0.2c-0.3,0-0.5,0-0.7,0.1c-0.2,0.1-0.3,0.2-0.3,0.4c0,0.2,0.1,0.3,0.2,0.4c0.1,0.1,0.4,0.2,0.8,0.4
			c0.3,0.1,0.6,0.2,0.7,0.3c0.1,0.1,0.3,0.2,0.3,0.3C241.4,68.6,241.4,68.7,241.4,68.9z"/>
		<path d="M242.6,66.2v2.3c0,0.4,0.1,0.6,0.2,0.8s0.4,0.2,0.7,0.2c0.4,0,0.7-0.1,0.9-0.3c0.2-0.2,0.3-0.6,0.3-1v-2h0.3v3.6h-0.3
			l-0.1-0.5h0c-0.2,0.4-0.6,0.6-1.2,0.6c-0.8,0-1.2-0.4-1.2-1.3v-2.3H242.6z"/>
		<path d="M246.6,69.8h-0.3v-5.1h0.3V69.8z"/>
		<path d="M248.7,69.6c0.2,0,0.4,0,0.5-0.1v0.3c-0.2,0.1-0.3,0.1-0.5,0.1c-0.3,0-0.5-0.1-0.7-0.3c-0.1-0.2-0.2-0.4-0.2-0.8v-2.3
			h-0.5v-0.2l0.5-0.1l0.2-0.8h0.2v0.9h1v0.3h-1v2.2c0,0.3,0,0.5,0.1,0.6C248.4,69.5,248.5,69.6,248.7,69.6z"/>
		<path d="M252.2,68.9c0,0.3-0.1,0.6-0.4,0.7s-0.6,0.3-1,0.3c-0.5,0-0.9-0.1-1.1-0.2v-0.4c0.4,0.2,0.7,0.3,1.1,0.3
			c0.3,0,0.6-0.1,0.8-0.2c0.2-0.1,0.3-0.3,0.3-0.5c0-0.2-0.1-0.3-0.2-0.5s-0.4-0.2-0.7-0.4c-0.4-0.1-0.6-0.2-0.8-0.3
			c-0.1-0.1-0.3-0.2-0.3-0.3c-0.1-0.1-0.1-0.3-0.1-0.4c0-0.3,0.1-0.5,0.3-0.6c0.2-0.2,0.5-0.2,0.9-0.2c0.4,0,0.7,0.1,1.1,0.2
			l-0.1,0.3c-0.3-0.1-0.7-0.2-1-0.2c-0.3,0-0.5,0-0.7,0.1c-0.2,0.1-0.3,0.2-0.3,0.4c0,0.2,0.1,0.3,0.2,0.4c0.1,0.1,0.4,0.2,0.8,0.4
			c0.3,0.1,0.6,0.2,0.7,0.3s0.3,0.2,0.3,0.3C252.2,68.6,252.2,68.7,252.2,68.9z"/>
	</g>
	<g>
		<path d="M274.4,61.6c0,0.5-0.2,0.8-0.5,1.1c-0.3,0.2-0.8,0.4-1.3,0.4h-0.7v2h-0.3v-4.8h1.2C273.8,60.2,274.4,60.7,274.4,61.6z
			 M271.9,62.7h0.7c0.5,0,0.9-0.1,1.2-0.3s0.4-0.5,0.4-0.9c0-0.4-0.1-0.6-0.3-0.8s-0.6-0.3-1.1-0.3h-0.8V62.7z"/>
		<path d="M277.5,65l-0.1-0.6h0c-0.2,0.2-0.4,0.4-0.6,0.5s-0.4,0.1-0.7,0.1c-0.3,0-0.6-0.1-0.8-0.3c-0.2-0.2-0.3-0.4-0.3-0.7
			c0-0.3,0.1-0.6,0.4-0.8c0.3-0.2,0.7-0.3,1.3-0.3l0.7,0v-0.2c0-0.3-0.1-0.6-0.2-0.8c-0.1-0.2-0.4-0.3-0.7-0.3c-0.3,0-0.7,0.1-1,0.3
			l-0.1-0.3c0.4-0.2,0.8-0.3,1.2-0.3c0.4,0,0.7,0.1,0.9,0.3s0.3,0.5,0.3,0.9V65H277.5z M276.2,64.7c0.4,0,0.7-0.1,0.9-0.3
			c0.2-0.2,0.3-0.5,0.3-0.9v-0.4l-0.6,0c-0.5,0-0.9,0.1-1.1,0.2c-0.2,0.1-0.3,0.3-0.3,0.6c0,0.2,0.1,0.4,0.2,0.5
			C275.8,64.7,276,64.7,276.2,64.7z"/>
		<path d="M281.1,64c0,0.3-0.1,0.6-0.4,0.7s-0.6,0.3-1,0.3c-0.5,0-0.9-0.1-1.1-0.2v-0.4c0.4,0.2,0.7,0.3,1.1,0.3
			c0.3,0,0.6-0.1,0.8-0.2c0.2-0.1,0.3-0.3,0.3-0.5c0-0.2-0.1-0.3-0.2-0.5s-0.4-0.2-0.7-0.4c-0.4-0.1-0.6-0.2-0.8-0.3
			c-0.1-0.1-0.3-0.2-0.3-0.3c-0.1-0.1-0.1-0.3-0.1-0.4c0-0.3,0.1-0.5,0.3-0.6c0.2-0.2,0.5-0.2,0.9-0.2c0.4,0,0.7,0.1,1.1,0.2
			l-0.1,0.3c-0.3-0.1-0.7-0.2-1-0.2c-0.3,0-0.5,0-0.7,0.1c-0.2,0.1-0.3,0.2-0.3,0.4c0,0.2,0.1,0.3,0.2,0.4c0.1,0.1,0.4,0.2,0.8,0.4
			c0.3,0.1,0.6,0.2,0.7,0.3s0.3,0.2,0.3,0.3C281.1,63.8,281.1,63.9,281.1,64z"/>
		<path d="M283,64.8c0.2,0,0.4,0,0.5-0.1V65c-0.2,0.1-0.3,0.1-0.5,0.1c-0.3,0-0.5-0.1-0.7-0.3S282,64.4,282,64v-2.3h-0.5v-0.2
			l0.5-0.1l0.2-0.8h0.2v0.9h1v0.3h-1V64c0,0.3,0,0.5,0.1,0.6S282.8,64.8,283,64.8z"/>
		<path d="M288.9,63.2c0,0.6-0.1,1-0.4,1.4c-0.3,0.3-0.7,0.5-1.2,0.5c-0.3,0-0.6-0.1-0.8-0.2c-0.2-0.2-0.4-0.4-0.5-0.6
			c-0.1-0.3-0.2-0.6-0.2-1c0-0.6,0.1-1,0.4-1.4c0.3-0.3,0.7-0.5,1.2-0.5c0.5,0,0.9,0.2,1.1,0.5C288.8,62.2,288.9,62.6,288.9,63.2z
			 M286.1,63.2c0,0.5,0.1,0.9,0.3,1.1c0.2,0.3,0.5,0.4,0.9,0.4s0.7-0.1,0.9-0.4c0.2-0.3,0.3-0.7,0.3-1.1c0-0.5-0.1-0.9-0.3-1.1
			c-0.2-0.3-0.5-0.4-0.9-0.4s-0.7,0.1-0.9,0.4C286.2,62.3,286.1,62.7,286.1,63.2z"/>
		<path d="M291.3,61.4c0.2,0,0.3,0,0.5,0l-0.1,0.3c-0.1,0-0.3-0.1-0.5-0.1c-0.3,0-0.6,0.1-0.7,0.4c-0.2,0.3-0.3,0.6-0.3,1v2h-0.3
			v-3.6h0.3l0,0.6h0c0.1-0.3,0.3-0.4,0.5-0.6C290.9,61.4,291.1,61.4,291.3,61.4z"/>
		<path d="M293.8,61.4c0.3,0,0.5,0,0.7,0.1s0.4,0.3,0.5,0.5h0c0-0.3,0-0.5,0-0.8v-1.3h0.3V65h-0.2l-0.1-0.5h0
			c-0.3,0.4-0.7,0.6-1.2,0.6c-0.5,0-0.9-0.2-1.1-0.5c-0.3-0.3-0.4-0.8-0.4-1.3c0-0.6,0.1-1.1,0.4-1.4
			C293,61.5,293.3,61.4,293.8,61.4z M293.8,61.6c-0.4,0-0.7,0.1-0.9,0.4c-0.2,0.3-0.3,0.7-0.3,1.2c0,1,0.4,1.5,1.2,1.5
			c0.4,0,0.7-0.1,0.9-0.3s0.3-0.6,0.3-1.2v-0.1c0-0.5-0.1-0.9-0.3-1.2C294.5,61.8,294.2,61.6,293.8,61.6z"/>
		<path d="M298,65c-0.5,0-0.9-0.2-1.2-0.5c-0.3-0.3-0.4-0.8-0.4-1.3c0-0.6,0.1-1,0.4-1.4s0.7-0.5,1.1-0.5c0.4,0,0.7,0.1,1,0.4
			c0.2,0.3,0.4,0.7,0.4,1.2v0.3h-2.6c0,0.5,0.1,0.9,0.3,1.1c0.2,0.3,0.5,0.4,1,0.4c0.2,0,0.4,0,0.5,0c0.2,0,0.3-0.1,0.6-0.2v0.3
			c-0.2,0.1-0.4,0.1-0.6,0.2C298.3,65,298.2,65,298,65z M297.9,61.6c-0.3,0-0.6,0.1-0.8,0.3s-0.3,0.6-0.4,1h2.2c0-0.4-0.1-0.7-0.3-1
			S298.2,61.6,297.9,61.6z"/>
		<path d="M301.6,61.4c0.2,0,0.3,0,0.5,0l-0.1,0.3c-0.1,0-0.3-0.1-0.5-0.1c-0.3,0-0.6,0.1-0.7,0.4c-0.2,0.3-0.3,0.6-0.3,1v2h-0.3
			v-3.6h0.3l0,0.6h0c0.1-0.3,0.3-0.4,0.5-0.6C301.2,61.4,301.4,61.4,301.6,61.4z"/>
		<path d="M305,64c0,0.3-0.1,0.6-0.4,0.7s-0.6,0.3-1,0.3c-0.5,0-0.9-0.1-1.1-0.2v-0.4c0.4,0.2,0.7,0.3,1.1,0.3
			c0.4,0,0.6-0.1,0.8-0.2c0.2-0.1,0.3-0.3,0.3-0.5c0-0.2-0.1-0.3-0.2-0.5c-0.1-0.1-0.4-0.2-0.7-0.4c-0.4-0.1-0.6-0.2-0.7-0.3
			c-0.1-0.1-0.3-0.2-0.3-0.3s-0.1-0.3-0.1-0.4c0-0.3,0.1-0.5,0.3-0.6c0.2-0.2,0.5-0.2,0.9-0.2c0.4,0,0.7,0.1,1.1,0.2l-0.1,0.3
			c-0.3-0.1-0.7-0.2-1-0.2c-0.3,0-0.5,0-0.7,0.1c-0.2,0.1-0.3,0.2-0.3,0.4c0,0.2,0.1,0.3,0.2,0.4c0.1,0.1,0.4,0.2,0.8,0.4
			c0.3,0.1,0.6,0.2,0.7,0.3c0.1,0.1,0.3,0.2,0.3,0.3C305,63.8,305,63.9,305,64z"/>
	</g>
	<g>
		<path d="M274.9,98.4v-4.8h0.3v4.5h2.3v0.3H274.9z"/>
		<path d="M281.2,96.6c0,0.6-0.1,1-0.4,1.4s-0.7,0.5-1.2,0.5c-0.3,0-0.6-0.1-0.8-0.2c-0.2-0.2-0.4-0.4-0.5-0.6
			c-0.1-0.3-0.2-0.6-0.2-1c0-0.6,0.1-1,0.4-1.4c0.3-0.3,0.7-0.5,1.2-0.5c0.5,0,0.9,0.2,1.1,0.5C281,95.6,281.2,96,281.2,96.6z
			 M278.4,96.6c0,0.5,0.1,0.9,0.3,1.1c0.2,0.3,0.5,0.4,0.9,0.4s0.7-0.1,0.9-0.4c0.2-0.3,0.3-0.7,0.3-1.1c0-0.5-0.1-0.9-0.3-1.1
			S280,95,279.6,95s-0.7,0.1-0.9,0.4C278.5,95.7,278.4,96.1,278.4,96.6z"/>
		<path d="M281.6,94.8h0.3l0.8,2c0.2,0.6,0.4,1,0.4,1.2h0c0.1-0.3,0.2-0.7,0.4-1.3l0.8-2h0.3l-1.6,4.1c-0.1,0.3-0.2,0.6-0.3,0.7
			c-0.1,0.1-0.2,0.2-0.3,0.3s-0.3,0.1-0.4,0.1c-0.1,0-0.3,0-0.4-0.1v-0.3c0.1,0,0.3,0.1,0.4,0.1c0.1,0,0.2,0,0.3-0.1
			c0.1-0.1,0.2-0.1,0.2-0.2c0.1-0.1,0.1-0.3,0.2-0.5c0.1-0.2,0.1-0.4,0.2-0.5L281.6,94.8z"/>
		<path d="M287.4,98.4l-0.1-0.6h0c-0.2,0.2-0.4,0.4-0.6,0.5c-0.2,0.1-0.4,0.1-0.7,0.1c-0.3,0-0.6-0.1-0.8-0.3
			c-0.2-0.2-0.3-0.4-0.3-0.7c0-0.3,0.1-0.6,0.4-0.8c0.3-0.2,0.7-0.3,1.3-0.3l0.7,0v-0.2c0-0.3-0.1-0.6-0.2-0.8
			c-0.1-0.2-0.4-0.3-0.7-0.3c-0.3,0-0.7,0.1-1,0.3l-0.1-0.3c0.4-0.2,0.8-0.3,1.2-0.3c0.4,0,0.7,0.1,0.9,0.3c0.2,0.2,0.3,0.5,0.3,0.9
			v2.4H287.4z M286.1,98.1c0.4,0,0.7-0.1,0.9-0.3c0.2-0.2,0.3-0.5,0.3-0.9v-0.3l-0.6,0c-0.5,0-0.9,0.1-1.1,0.2s-0.3,0.3-0.3,0.6
			c0,0.2,0.1,0.4,0.2,0.5S285.8,98.1,286.1,98.1z"/>
		<path d="M289.1,98.4h-0.3v-5.1h0.3V98.4z"/>
		<path d="M291.2,98.2c0.2,0,0.4,0,0.5-0.1v0.3c-0.2,0.1-0.3,0.1-0.5,0.1c-0.3,0-0.5-0.1-0.7-0.3s-0.2-0.4-0.2-0.8v-2.3h-0.5v-0.2
			l0.5-0.1l0.2-0.8h0.2v0.9h1v0.3h-1v2.2c0,0.3,0,0.5,0.1,0.6C290.9,98.1,291,98.2,291.2,98.2z"/>
		<path d="M291.9,94.8h0.3l0.8,2c0.2,0.6,0.4,1,0.4,1.2h0c0.1-0.3,0.2-0.7,0.4-1.3l0.8-2h0.3l-1.6,4.1c-0.1,0.3-0.2,0.6-0.3,0.7
			c-0.1,0.1-0.2,0.2-0.3,0.3c-0.1,0.1-0.3,0.1-0.4,0.1c-0.1,0-0.3,0-0.4-0.1v-0.3c0.1,0,0.3,0.1,0.4,0.1c0.1,0,0.2,0,0.3-0.1
			c0.1-0.1,0.2-0.1,0.2-0.2c0.1-0.1,0.1-0.3,0.2-0.5c0.1-0.2,0.1-0.4,0.2-0.5L291.9,94.8z"/>
	</g>
	<g>
		<path d="M338.4,78.6v2.1H338v-4.8h1.1c0.6,0,1,0.1,1.3,0.3c0.3,0.2,0.4,0.5,0.4,1c0,0.3-0.1,0.6-0.3,0.8c-0.2,0.2-0.4,0.4-0.8,0.5
			l1.3,2.2h-0.4l-1.2-2.1H338.4z M338.4,78.3h0.9c0.4,0,0.7-0.1,0.9-0.3c0.2-0.2,0.3-0.4,0.3-0.8c0-0.4-0.1-0.6-0.3-0.8
			c-0.2-0.2-0.6-0.2-1.1-0.2h-0.8V78.3z"/>
		<path d="M343.4,80.7c-0.5,0-0.9-0.2-1.2-0.5s-0.4-0.8-0.4-1.3c0-0.6,0.1-1,0.4-1.4c0.3-0.3,0.7-0.5,1.1-0.5c0.4,0,0.7,0.1,1,0.4
			c0.2,0.3,0.4,0.7,0.4,1.2v0.3h-2.6c0,0.5,0.1,0.9,0.3,1.1c0.2,0.3,0.5,0.4,1,0.4c0.2,0,0.4,0,0.5,0c0.2,0,0.3-0.1,0.6-0.2v0.3
			c-0.2,0.1-0.4,0.1-0.6,0.2C343.8,80.7,343.6,80.7,343.4,80.7z M343.3,77.3c-0.3,0-0.6,0.1-0.8,0.3s-0.3,0.6-0.4,1h2.2
			c0-0.4-0.1-0.7-0.3-1C343.8,77.5,343.6,77.3,343.3,77.3z"/>
		<path d="M346.4,80.7l-1.4-3.6h0.3l0.9,2.4c0.1,0.3,0.2,0.6,0.3,0.8h0c0.1-0.3,0.2-0.6,0.3-0.8l0.9-2.4h0.3l-1.4,3.6H346.4z"/>
		<path d="M348.6,76.1c0-0.2,0.1-0.3,0.2-0.3c0.1,0,0.1,0,0.2,0.1c0,0.1,0.1,0.1,0.1,0.2c0,0.1,0,0.2-0.1,0.2s-0.1,0.1-0.2,0.1
			C348.7,76.4,348.6,76.3,348.6,76.1z M349,80.7h-0.3v-3.6h0.3V80.7z"/>
		<path d="M351.6,80.7c-0.5,0-0.9-0.2-1.2-0.5s-0.4-0.8-0.4-1.3c0-0.6,0.1-1,0.4-1.4c0.3-0.3,0.7-0.5,1.1-0.5c0.4,0,0.7,0.1,1,0.4
			s0.4,0.7,0.4,1.2v0.3h-2.6c0,0.5,0.1,0.9,0.3,1.1c0.2,0.3,0.5,0.4,1,0.4c0.2,0,0.4,0,0.5,0c0.2,0,0.3-0.1,0.6-0.2v0.3
			c-0.2,0.1-0.4,0.1-0.6,0.2C352,80.7,351.8,80.7,351.6,80.7z M351.5,77.3c-0.3,0-0.6,0.1-0.8,0.3s-0.3,0.6-0.4,1h2.2
			c0-0.4-0.1-0.7-0.3-1S351.8,77.3,351.5,77.3z"/>
		<path d="M356.7,80.7l-0.8-2.4c-0.1-0.2-0.1-0.4-0.2-0.7h0l-0.1,0.2l-0.1,0.5l-0.8,2.4h-0.3l-1-3.6h0.3l0.6,2.1
			c0.1,0.5,0.2,0.9,0.3,1.1h0c0.1-0.5,0.2-0.8,0.3-1l0.7-2.2h0.3l0.7,2.2c0.2,0.5,0.3,0.9,0.3,1h0c0-0.1,0.1-0.5,0.3-1.1l0.5-2h0.3
			l-1,3.6H356.7z"/>
		<path d="M363.4,78.9c0,0.6-0.1,1-0.4,1.4c-0.3,0.3-0.7,0.5-1.2,0.5c-0.3,0-0.6-0.1-0.8-0.2c-0.2-0.2-0.4-0.4-0.5-0.6
			s-0.2-0.6-0.2-1c0-0.6,0.1-1,0.4-1.4c0.3-0.3,0.7-0.5,1.2-0.5c0.5,0,0.9,0.2,1.1,0.5C363.2,77.9,363.4,78.3,363.4,78.9z
			 M360.6,78.9c0,0.5,0.1,0.9,0.3,1.1s0.5,0.4,0.9,0.4s0.7-0.1,0.9-0.4s0.3-0.7,0.3-1.1c0-0.5-0.1-0.9-0.3-1.1
			c-0.2-0.3-0.5-0.4-0.9-0.4s-0.7,0.1-0.9,0.4C360.7,78,360.6,78.4,360.6,78.9z"/>
		<path d="M365.8,77.1c0.2,0,0.3,0,0.5,0l-0.1,0.3c-0.1,0-0.3-0.1-0.5-0.1c-0.3,0-0.6,0.1-0.7,0.4c-0.2,0.3-0.3,0.6-0.3,1v2h-0.3
			v-3.6h0.3l0,0.6h0c0.1-0.3,0.3-0.4,0.5-0.6C365.3,77.1,365.5,77.1,365.8,77.1z"/>
		<path d="M368.3,77.1c0.3,0,0.5,0,0.7,0.1s0.4,0.3,0.5,0.5h0c0-0.3,0-0.5,0-0.8v-1.3h0.3v5.1h-0.2l-0.1-0.5h0
			c-0.3,0.4-0.7,0.6-1.2,0.6c-0.5,0-0.9-0.2-1.1-0.5c-0.3-0.3-0.4-0.8-0.4-1.3c0-0.6,0.1-1.1,0.4-1.4
			C367.4,77.2,367.8,77.1,368.3,77.1z M368.3,77.3c-0.4,0-0.7,0.1-0.9,0.4c-0.2,0.3-0.3,0.7-0.3,1.2c0,1,0.4,1.5,1.2,1.5
			c0.4,0,0.7-0.1,0.9-0.3c0.2-0.2,0.3-0.6,0.3-1.2v-0.1c0-0.5-0.1-0.9-0.3-1.2C369,77.5,368.7,77.3,368.3,77.3z"/>
		<path d="M372.4,80.7c-0.5,0-0.9-0.2-1.2-0.5s-0.4-0.8-0.4-1.3c0-0.6,0.1-1,0.4-1.4c0.3-0.3,0.7-0.5,1.1-0.5c0.4,0,0.7,0.1,1,0.4
			c0.2,0.3,0.4,0.7,0.4,1.2v0.3h-2.6c0,0.5,0.1,0.9,0.3,1.1c0.2,0.3,0.5,0.4,1,0.4c0.2,0,0.4,0,0.5,0c0.2,0,0.3-0.1,0.6-0.2v0.3
			c-0.2,0.1-0.4,0.1-0.6,0.2C372.8,80.7,372.6,80.7,372.4,80.7z M372.3,77.3c-0.3,0-0.6,0.1-0.8,0.3s-0.3,0.6-0.4,1h2.2
			c0-0.4-0.1-0.7-0.3-1C372.9,77.5,372.6,77.3,372.3,77.3z"/>
		<path d="M376,77.1c0.2,0,0.3,0,0.5,0l-0.1,0.3c-0.1,0-0.3-0.1-0.5-0.1c-0.3,0-0.6,0.1-0.7,0.4c-0.2,0.3-0.3,0.6-0.3,1v2h-0.3v-3.6
			h0.3l0,0.6h0c0.1-0.3,0.3-0.4,0.5-0.6C375.6,77.1,375.8,77.1,376,77.1z"/>
	</g>
	<g>
		<path d="M334,104.8c0,0.5-0.2,0.8-0.5,1.1s-0.8,0.4-1.3,0.4h-0.7v2h-0.3v-4.8h1.2C333.4,103.5,334,103.9,334,104.8z M331.5,106
			h0.7c0.5,0,0.9-0.1,1.2-0.3c0.2-0.2,0.4-0.5,0.4-0.9c0-0.4-0.1-0.6-0.3-0.8c-0.2-0.2-0.6-0.3-1.1-0.3h-0.8V106z"/>
		<path d="M337.1,108.2l-0.1-0.6h0c-0.2,0.2-0.4,0.4-0.6,0.5c-0.2,0.1-0.4,0.1-0.7,0.1c-0.3,0-0.6-0.1-0.8-0.3
			c-0.2-0.2-0.3-0.4-0.3-0.7c0-0.3,0.1-0.6,0.4-0.8c0.3-0.2,0.7-0.3,1.3-0.3l0.7,0v-0.2c0-0.3-0.1-0.6-0.2-0.8
			c-0.1-0.2-0.4-0.3-0.7-0.3c-0.3,0-0.7,0.1-1,0.3l-0.1-0.3c0.4-0.2,0.8-0.3,1.2-0.3c0.4,0,0.7,0.1,0.9,0.3c0.2,0.2,0.3,0.5,0.3,0.9
			v2.4H337.1z M335.8,108c0.4,0,0.7-0.1,0.9-0.3s0.3-0.5,0.3-0.9v-0.3l-0.6,0c-0.5,0-0.9,0.1-1.1,0.2c-0.2,0.1-0.3,0.3-0.3,0.6
			c0,0.2,0.1,0.4,0.2,0.5S335.6,108,335.8,108z"/>
		<path d="M337.9,104.7h0.3l0.8,2c0.2,0.6,0.4,1,0.4,1.2h0c0.1-0.3,0.2-0.7,0.4-1.3l0.8-2h0.3l-1.6,4.1c-0.1,0.3-0.2,0.6-0.3,0.7
			c-0.1,0.1-0.2,0.2-0.3,0.3c-0.1,0.1-0.3,0.1-0.4,0.1c-0.1,0-0.3,0-0.4-0.1v-0.3c0.1,0,0.3,0.1,0.4,0.1c0.1,0,0.2,0,0.3-0.1
			c0.1-0.1,0.2-0.1,0.2-0.2c0.1-0.1,0.1-0.3,0.2-0.5c0.1-0.2,0.1-0.4,0.2-0.5L337.9,104.7z"/>
		<path d="M346,108.2v-2.3c0-0.3-0.1-0.6-0.2-0.8c-0.1-0.2-0.3-0.2-0.6-0.2c-0.4,0-0.6,0.1-0.8,0.3c-0.2,0.2-0.3,0.5-0.3,0.9v2.1
			h-0.3v-2.4c0-0.6-0.3-0.9-0.8-0.9c-0.4,0-0.6,0.1-0.8,0.3s-0.3,0.6-0.3,1v2h-0.3v-3.6h0.3l0.1,0.5h0c0.1-0.2,0.2-0.3,0.4-0.4
			c0.2-0.1,0.4-0.1,0.6-0.1c0.6,0,0.9,0.2,1.1,0.6h0c0.1-0.2,0.3-0.4,0.5-0.5c0.2-0.1,0.4-0.2,0.7-0.2c0.4,0,0.7,0.1,0.9,0.3
			c0.2,0.2,0.3,0.5,0.3,1v2.3H346z"/>
		<path d="M348.9,108.3c-0.5,0-0.9-0.2-1.2-0.5s-0.4-0.8-0.4-1.3c0-0.6,0.1-1,0.4-1.4c0.3-0.3,0.7-0.5,1.1-0.5c0.4,0,0.7,0.1,1,0.4
			c0.2,0.3,0.4,0.7,0.4,1.2v0.3h-2.6c0,0.5,0.1,0.9,0.3,1.1c0.2,0.3,0.5,0.4,1,0.4c0.2,0,0.4,0,0.5,0c0.2,0,0.3-0.1,0.6-0.2v0.3
			c-0.2,0.1-0.4,0.1-0.6,0.2C349.3,108.3,349.1,108.3,348.9,108.3z M348.8,104.9c-0.3,0-0.6,0.1-0.8,0.3c-0.2,0.2-0.3,0.6-0.4,1h2.2
			c0-0.4-0.1-0.7-0.3-1S349.2,104.9,348.8,104.9z"/>
		<path d="M353.7,108.2v-2.3c0-0.4-0.1-0.6-0.2-0.8s-0.4-0.2-0.7-0.2c-0.4,0-0.7,0.1-0.9,0.3s-0.3,0.6-0.3,1v2h-0.3v-3.6h0.3
			l0.1,0.5h0c0.2-0.4,0.6-0.6,1.2-0.6c0.8,0,1.2,0.4,1.2,1.3v2.3H353.7z"/>
		<path d="M356.1,108c0.2,0,0.4,0,0.5-0.1v0.3c-0.2,0.1-0.3,0.1-0.5,0.1c-0.3,0-0.5-0.1-0.7-0.3s-0.2-0.4-0.2-0.8V105h-0.5v-0.2
			l0.5-0.1l0.2-0.8h0.2v0.9h1v0.3h-1v2.2c0,0.3,0,0.5,0.1,0.6S355.9,108,356.1,108z"/>
		<path d="M360.4,104.6c0.3,0,0.5,0,0.7,0.1s0.4,0.3,0.5,0.5h0c0-0.3,0-0.5,0-0.8v-1.3h0.3v5.1h-0.2l-0.1-0.5h0
			c-0.3,0.4-0.7,0.6-1.2,0.6c-0.5,0-0.9-0.2-1.1-0.5c-0.3-0.3-0.4-0.8-0.4-1.3c0-0.6,0.1-1.1,0.4-1.4
			C359.5,104.8,359.9,104.6,360.4,104.6z M360.4,104.9c-0.4,0-0.7,0.1-0.9,0.4c-0.2,0.3-0.3,0.7-0.3,1.2c0,1,0.4,1.5,1.2,1.5
			c0.4,0,0.7-0.1,0.9-0.3c0.2-0.2,0.3-0.6,0.3-1.2v-0.1c0-0.5-0.1-0.9-0.3-1.2C361.1,105,360.8,104.9,360.4,104.9z"/>
		<path d="M364.5,108.3c-0.5,0-0.9-0.2-1.2-0.5s-0.4-0.8-0.4-1.3c0-0.6,0.1-1,0.4-1.4c0.3-0.3,0.7-0.5,1.1-0.5c0.4,0,0.7,0.1,1,0.4
			c0.2,0.3,0.4,0.7,0.4,1.2v0.3h-2.6c0,0.5,0.1,0.9,0.3,1.1c0.2,0.3,0.5,0.4,1,0.4c0.2,0,0.4,0,0.5,0c0.2,0,0.3-0.1,0.6-0.2v0.3
			c-0.2,0.1-0.4,0.1-0.6,0.2C364.9,108.3,364.7,108.3,364.5,108.3z M364.4,104.9c-0.3,0-0.6,0.1-0.8,0.3c-0.2,0.2-0.3,0.6-0.4,1h2.2
			c0-0.4-0.1-0.7-0.3-1C365,105,364.8,104.9,364.4,104.9z"/>
		<path d="M367.7,108c0.2,0,0.4,0,0.5-0.1v0.3c-0.2,0.1-0.3,0.1-0.5,0.1c-0.3,0-0.5-0.1-0.7-0.3c-0.2-0.2-0.2-0.4-0.2-0.8V105h-0.5
			v-0.2l0.5-0.1l0.2-0.8h0.2v0.9h1v0.3h-1v2.2c0,0.3,0,0.5,0.1,0.6S367.5,108,367.7,108z"/>
		<path d="M371.2,108.2l-0.1-0.6h0c-0.2,0.2-0.4,0.4-0.6,0.5c-0.2,0.1-0.4,0.1-0.7,0.1c-0.3,0-0.6-0.1-0.8-0.3
			c-0.2-0.2-0.3-0.4-0.3-0.7c0-0.3,0.1-0.6,0.4-0.8c0.3-0.2,0.7-0.3,1.3-0.3l0.7,0v-0.2c0-0.3-0.1-0.6-0.2-0.8
			c-0.1-0.2-0.4-0.3-0.7-0.3c-0.3,0-0.7,0.1-1,0.3l-0.1-0.3c0.4-0.2,0.8-0.3,1.2-0.3c0.4,0,0.7,0.1,0.9,0.3s0.3,0.5,0.3,0.9v2.4
			H371.2z M369.9,108c0.4,0,0.7-0.1,0.9-0.3s0.3-0.5,0.3-0.9v-0.3l-0.6,0c-0.5,0-0.9,0.1-1.1,0.2c-0.2,0.1-0.3,0.3-0.3,0.6
			c0,0.2,0.1,0.4,0.2,0.5C369.4,107.9,369.6,108,369.9,108z"/>
		<path d="M372.5,103.7c0-0.2,0.1-0.3,0.2-0.3c0.1,0,0.1,0,0.2,0.1c0,0.1,0.1,0.1,0.1,0.2s0,0.2-0.1,0.2c0,0.1-0.1,0.1-0.2,0.1
			C372.6,104,372.5,103.9,372.5,103.7z M372.9,108.2h-0.3v-3.6h0.3V108.2z"/>
		<path d="M374.4,108.2h-0.3v-5.1h0.3V108.2z"/>
		<path d="M377.8,107.3c0,0.3-0.1,0.6-0.4,0.7c-0.2,0.2-0.6,0.3-1,0.3c-0.5,0-0.9-0.1-1.1-0.2v-0.3c0.4,0.2,0.7,0.3,1.1,0.3
			c0.4,0,0.6-0.1,0.8-0.2c0.2-0.1,0.3-0.3,0.3-0.5c0-0.2-0.1-0.3-0.2-0.5c-0.1-0.1-0.4-0.2-0.7-0.4c-0.4-0.1-0.6-0.2-0.7-0.3
			s-0.3-0.2-0.3-0.3c-0.1-0.1-0.1-0.3-0.1-0.4c0-0.3,0.1-0.5,0.3-0.6c0.2-0.2,0.5-0.2,0.9-0.2c0.4,0,0.7,0.1,1.1,0.2l-0.1,0.3
			c-0.3-0.1-0.7-0.2-1-0.2c-0.3,0-0.5,0-0.7,0.1s-0.3,0.2-0.3,0.4c0,0.2,0.1,0.3,0.2,0.4s0.4,0.2,0.8,0.4c0.3,0.1,0.6,0.2,0.7,0.3
			c0.1,0.1,0.3,0.2,0.3,0.3C377.8,107,377.8,107.2,377.8,107.3z"/>
		<path d="M380.3,103.5l-1.8,4.8h-0.3l1.8-4.8H380.3z"/>
		<path d="M335.9,114.2v2.1h-0.3v-4.8h1.1c0.6,0,1,0.1,1.3,0.3c0.3,0.2,0.4,0.5,0.4,1c0,0.3-0.1,0.6-0.3,0.8
			c-0.2,0.2-0.4,0.4-0.8,0.5l1.3,2.2h-0.4l-1.2-2.1H335.9z M335.9,113.9h0.9c0.4,0,0.7-0.1,0.9-0.3s0.3-0.4,0.3-0.8
			c0-0.4-0.1-0.6-0.3-0.8s-0.6-0.2-1.1-0.2h-0.8V113.9z"/>
		<path d="M340.9,116.3c-0.5,0-0.9-0.2-1.2-0.5s-0.4-0.8-0.4-1.3c0-0.6,0.1-1,0.4-1.4c0.3-0.3,0.7-0.5,1.1-0.5c0.4,0,0.7,0.1,1,0.4
			c0.2,0.3,0.4,0.7,0.4,1.2v0.3h-2.6c0,0.5,0.1,0.9,0.3,1.1c0.2,0.3,0.5,0.4,1,0.4c0.2,0,0.4,0,0.5,0c0.2,0,0.3-0.1,0.6-0.2v0.3
			c-0.2,0.1-0.4,0.1-0.6,0.2C341.3,116.3,341.1,116.3,340.9,116.3z M340.8,112.9c-0.3,0-0.6,0.1-0.8,0.3c-0.2,0.2-0.3,0.6-0.4,1h2.2
			c0-0.4-0.1-0.7-0.3-1S341.1,112.9,340.8,112.9z"/>
		<path d="M343.9,116.3l-1.4-3.6h0.3l0.9,2.4c0.1,0.3,0.2,0.6,0.3,0.8h0c0.1-0.3,0.2-0.6,0.3-0.8l0.9-2.4h0.3l-1.4,3.6H343.9z"/>
		<path d="M346.2,111.7c0-0.2,0.1-0.3,0.2-0.3c0.1,0,0.1,0,0.2,0.1c0,0.1,0.1,0.1,0.1,0.2c0,0.1,0,0.2-0.1,0.2
			c0,0.1-0.1,0.1-0.2,0.1C346.3,112,346.2,111.9,346.2,111.7z M346.6,116.3h-0.3v-3.6h0.3V116.3z"/>
		<path d="M349.2,116.3c-0.5,0-0.9-0.2-1.2-0.5c-0.3-0.3-0.4-0.8-0.4-1.3c0-0.6,0.1-1,0.4-1.4c0.3-0.3,0.7-0.5,1.1-0.5
			c0.4,0,0.7,0.1,1,0.4c0.2,0.3,0.4,0.7,0.4,1.2v0.3h-2.6c0,0.5,0.1,0.9,0.3,1.1c0.2,0.3,0.5,0.4,1,0.4c0.2,0,0.4,0,0.5,0
			c0.2,0,0.3-0.1,0.6-0.2v0.3c-0.2,0.1-0.4,0.1-0.6,0.2C349.6,116.3,349.4,116.3,349.2,116.3z M349.1,112.9c-0.3,0-0.6,0.1-0.8,0.3
			c-0.2,0.2-0.3,0.6-0.4,1h2.2c0-0.4-0.1-0.7-0.3-1C349.6,113.1,349.4,112.9,349.1,112.9z"/>
		<path d="M354.3,116.3l-0.8-2.4c0-0.2-0.1-0.4-0.2-0.7h0l-0.1,0.2l-0.1,0.5l-0.8,2.4h-0.3l-1-3.6h0.3l0.6,2.1
			c0.1,0.5,0.2,0.9,0.3,1.1h0c0.1-0.5,0.2-0.8,0.3-1l0.7-2.2h0.3l0.7,2.2c0.2,0.5,0.3,0.9,0.3,1h0c0-0.1,0.1-0.5,0.3-1.1l0.5-2h0.3
			l-1,3.6H354.3z"/>
		<path d="M360.9,114.5c0,0.6-0.1,1-0.4,1.4c-0.3,0.3-0.7,0.5-1.2,0.5c-0.3,0-0.6-0.1-0.8-0.2s-0.4-0.4-0.5-0.6
			c-0.1-0.3-0.2-0.6-0.2-1c0-0.6,0.1-1,0.4-1.4s0.7-0.5,1.2-0.5c0.5,0,0.9,0.2,1.2,0.5C360.8,113.5,360.9,113.9,360.9,114.5z
			 M358.1,114.5c0,0.5,0.1,0.9,0.3,1.1s0.5,0.4,0.9,0.4s0.7-0.1,0.9-0.4s0.3-0.7,0.3-1.1c0-0.5-0.1-0.9-0.3-1.1
			c-0.2-0.3-0.5-0.4-0.9-0.4c-0.4,0-0.7,0.1-0.9,0.4S358.1,114,358.1,114.5z"/>
		<path d="M363.3,112.6c0.2,0,0.3,0,0.5,0l-0.1,0.3c-0.1,0-0.3-0.1-0.5-0.1c-0.3,0-0.6,0.1-0.7,0.4c-0.2,0.3-0.3,0.6-0.3,1v2h-0.3
			v-3.6h0.3l0,0.6h0c0.1-0.3,0.3-0.4,0.5-0.6C362.9,112.7,363.1,112.6,363.3,112.6z"/>
		<path d="M365.8,112.6c0.3,0,0.5,0,0.7,0.1s0.4,0.3,0.5,0.5h0c0-0.3,0-0.5,0-0.8v-1.3h0.3v5.1h-0.2l-0.1-0.5h0
			c-0.3,0.4-0.7,0.6-1.2,0.6c-0.5,0-0.9-0.2-1.1-0.5c-0.3-0.3-0.4-0.8-0.4-1.3c0-0.6,0.1-1.1,0.4-1.4
			C365,112.8,365.3,112.6,365.8,112.6z M365.8,112.9c-0.4,0-0.7,0.1-0.9,0.4c-0.2,0.3-0.3,0.7-0.3,1.2c0,1,0.4,1.5,1.2,1.5
			c0.4,0,0.7-0.1,0.9-0.3c0.2-0.2,0.3-0.6,0.3-1.2v-0.1c0-0.5-0.1-0.9-0.3-1.2C366.5,113.1,366.2,112.9,365.8,112.9z"/>
		<path d="M370,116.3c-0.5,0-0.9-0.2-1.2-0.5s-0.4-0.8-0.4-1.3c0-0.6,0.1-1,0.4-1.4c0.3-0.3,0.7-0.5,1.1-0.5c0.4,0,0.7,0.1,1,0.4
			c0.2,0.3,0.4,0.7,0.4,1.2v0.3h-2.6c0,0.5,0.1,0.9,0.3,1.1c0.2,0.3,0.5,0.4,1,0.4c0.2,0,0.4,0,0.5,0c0.2,0,0.3-0.1,0.6-0.2v0.3
			c-0.2,0.1-0.4,0.1-0.6,0.2C370.3,116.3,370.2,116.3,370,116.3z M369.9,112.9c-0.3,0-0.6,0.1-0.8,0.3c-0.2,0.2-0.3,0.6-0.4,1h2.2
			c0-0.4-0.1-0.7-0.3-1S370.2,112.9,369.9,112.9z"/>
		<path d="M373.6,112.6c0.2,0,0.3,0,0.5,0L374,113c-0.1,0-0.3-0.1-0.5-0.1c-0.3,0-0.6,0.1-0.7,0.4c-0.2,0.3-0.3,0.6-0.3,1v2h-0.3
			v-3.6h0.3l0,0.6h0c0.1-0.3,0.3-0.4,0.5-0.6C373.2,112.7,373.4,112.6,373.6,112.6z"/>
	</g>
	<g>
		<path d="M341.4,138.3c-0.6,0-1.1,0.2-1.4,0.6c-0.3,0.4-0.5,0.9-0.5,1.6c0,0.7,0.2,1.2,0.5,1.6s0.8,0.6,1.4,0.6
			c0.4,0,0.8-0.1,1.1-0.2v0.3c-0.3,0.1-0.7,0.2-1.2,0.2c-0.7,0-1.2-0.2-1.6-0.7s-0.6-1-0.6-1.8c0-0.5,0.1-0.9,0.3-1.3
			c0.2-0.4,0.4-0.7,0.8-0.9s0.7-0.3,1.2-0.3c0.5,0,0.9,0.1,1.3,0.3l-0.1,0.3C342.1,138.3,341.8,138.3,341.4,138.3z"/>
		<path d="M346.4,141c0,0.6-0.1,1-0.4,1.4s-0.7,0.5-1.2,0.5c-0.3,0-0.6-0.1-0.8-0.2c-0.2-0.2-0.4-0.4-0.5-0.6s-0.2-0.6-0.2-1
			c0-0.6,0.1-1,0.4-1.4c0.3-0.3,0.7-0.5,1.2-0.5c0.5,0,0.9,0.2,1.1,0.5S346.4,140.4,346.4,141z M343.6,141c0,0.5,0.1,0.9,0.3,1.1
			c0.2,0.3,0.5,0.4,0.9,0.4s0.7-0.1,0.9-0.4c0.2-0.3,0.3-0.7,0.3-1.1c0-0.5-0.1-0.9-0.3-1.1c-0.2-0.3-0.5-0.4-0.9-0.4
			c-0.4,0-0.7,0.1-0.9,0.4S343.6,140.5,343.6,141z"/>
		<path d="M349.8,142.8v-2.3c0-0.4-0.1-0.6-0.2-0.8s-0.4-0.2-0.7-0.2c-0.4,0-0.7,0.1-0.9,0.3s-0.3,0.6-0.3,1v2h-0.3v-3.6h0.3
			l0.1,0.5h0c0.2-0.4,0.6-0.6,1.2-0.6c0.8,0,1.2,0.4,1.2,1.3v2.3H349.8z"/>
		<path d="M352.6,139.5h-0.8v3.3h-0.3v-3.3h-0.7v-0.2l0.7-0.1v-0.3c0-0.4,0.1-0.8,0.2-1c0.2-0.2,0.4-0.3,0.8-0.3
			c0.2,0,0.4,0,0.6,0.1L353,138c-0.2-0.1-0.3-0.1-0.5-0.1c-0.3,0-0.4,0.1-0.5,0.2c-0.1,0.2-0.2,0.4-0.2,0.7v0.3h0.8V139.5z
			 M353.3,138.3c0-0.2,0.1-0.3,0.2-0.3c0.1,0,0.1,0,0.2,0.1c0,0.1,0.1,0.1,0.1,0.2s0,0.2-0.1,0.2c0,0.1-0.1,0.1-0.2,0.1
			C353.3,138.6,353.3,138.5,353.3,138.3z M353.6,142.8h-0.3v-3.6h0.3V142.8z"/>
		<path d="M356.2,139.2c0.2,0,0.3,0,0.5,0l-0.1,0.3c-0.1,0-0.3-0.1-0.5-0.1c-0.3,0-0.6,0.1-0.7,0.4c-0.2,0.3-0.3,0.6-0.3,1v2h-0.3
			v-3.6h0.3l0,0.6h0c0.1-0.3,0.3-0.4,0.5-0.6C355.8,139.2,356,139.2,356.2,139.2z"/>
		<path d="M361.9,142.8v-2.3c0-0.3-0.1-0.6-0.2-0.8c-0.1-0.2-0.3-0.2-0.6-0.2c-0.4,0-0.6,0.1-0.8,0.3c-0.2,0.2-0.3,0.5-0.3,0.9v2.1
			h-0.3v-2.4c0-0.6-0.3-0.9-0.8-0.9c-0.4,0-0.6,0.1-0.8,0.3s-0.3,0.6-0.3,1v2h-0.3v-3.6h0.3l0.1,0.5h0c0.1-0.2,0.2-0.3,0.4-0.4
			c0.2-0.1,0.4-0.1,0.6-0.1c0.6,0,0.9,0.2,1.1,0.6h0c0.1-0.2,0.3-0.4,0.5-0.5c0.2-0.1,0.4-0.2,0.7-0.2c0.4,0,0.7,0.1,0.9,0.3
			s0.3,0.5,0.3,1v2.3H361.9z"/>
		<path d="M365.5,142.8l-0.1-0.6h0c-0.2,0.2-0.4,0.4-0.6,0.5c-0.2,0.1-0.4,0.1-0.7,0.1c-0.3,0-0.6-0.1-0.8-0.3
			c-0.2-0.2-0.3-0.4-0.3-0.7c0-0.3,0.1-0.6,0.4-0.8c0.3-0.2,0.7-0.3,1.3-0.3l0.7,0v-0.2c0-0.3-0.1-0.6-0.2-0.8
			c-0.1-0.2-0.4-0.3-0.7-0.3c-0.3,0-0.7,0.1-1,0.3l-0.1-0.3c0.4-0.2,0.8-0.3,1.2-0.3c0.4,0,0.7,0.1,0.9,0.3s0.3,0.5,0.3,0.9v2.4
			H365.5z M364.2,142.6c0.4,0,0.7-0.1,0.9-0.3s0.3-0.5,0.3-0.9V141l-0.6,0c-0.5,0-0.9,0.1-1.1,0.2c-0.2,0.1-0.3,0.3-0.3,0.6
			c0,0.2,0.1,0.4,0.2,0.5C363.8,142.5,364,142.6,364.2,142.6z"/>
		<path d="M367.8,142.6c0.2,0,0.4,0,0.5-0.1v0.3c-0.2,0.1-0.3,0.1-0.5,0.1c-0.3,0-0.5-0.1-0.7-0.3c-0.2-0.2-0.2-0.4-0.2-0.8v-2.3
			h-0.5v-0.2l0.5-0.1l0.2-0.8h0.2v0.9h1v0.3h-1v2.2c0,0.3,0,0.5,0.1,0.6S367.6,142.6,367.8,142.6z"/>
		<path d="M369.1,138.3c0-0.2,0.1-0.3,0.2-0.3c0.1,0,0.1,0,0.2,0.1c0,0.1,0.1,0.1,0.1,0.2s0,0.2-0.1,0.2c0,0.1-0.1,0.1-0.2,0.1
			C369.2,138.6,369.1,138.5,369.1,138.3z M369.5,142.8h-0.3v-3.6h0.3V142.8z"/>
		<path d="M373.6,141c0,0.6-0.1,1-0.4,1.4s-0.7,0.5-1.2,0.5c-0.3,0-0.6-0.1-0.8-0.2s-0.4-0.4-0.5-0.6c-0.1-0.3-0.2-0.6-0.2-1
			c0-0.6,0.1-1,0.4-1.4c0.3-0.3,0.7-0.5,1.2-0.5c0.5,0,0.9,0.2,1.2,0.5C373.5,140,373.6,140.4,373.6,141z M370.8,141
			c0,0.5,0.1,0.9,0.3,1.1c0.2,0.3,0.5,0.4,0.9,0.4s0.7-0.1,0.9-0.4c0.2-0.3,0.3-0.7,0.3-1.1c0-0.5-0.1-0.9-0.3-1.1
			c-0.2-0.3-0.5-0.4-0.9-0.4c-0.4,0-0.7,0.1-0.9,0.4S370.8,140.5,370.8,141z"/>
		<path d="M377.1,142.8v-2.3c0-0.4-0.1-0.6-0.2-0.8s-0.4-0.2-0.7-0.2c-0.4,0-0.7,0.1-0.9,0.3s-0.3,0.6-0.3,1v2h-0.3v-3.6h0.3
			l0.1,0.5h0c0.2-0.4,0.6-0.6,1.2-0.6c0.8,0,1.2,0.4,1.2,1.3v2.3H377.1z"/>
	</g>
	<g>
		<path d="M278.2,81.6h-0.3l-1-3.7c-0.1-0.3-0.2-0.6-0.2-0.7c0,0.2-0.1,0.4-0.1,0.7c-0.1,0.2-0.4,1.5-1.1,3.8h-0.3l-1.3-4.8h0.3
			l0.8,3.1c0,0.1,0.1,0.2,0.1,0.3c0,0.1,0.1,0.2,0.1,0.3c0,0.1,0,0.2,0.1,0.3c0,0.1,0,0.2,0.1,0.3c0.1-0.3,0.2-0.7,0.3-1.4l0.8-2.9
			h0.4l1,3.3c0.1,0.4,0.2,0.7,0.2,0.9c0-0.2,0.1-0.3,0.1-0.5c0-0.2,0.4-1.4,1-3.8h0.3L278.2,81.6z"/>
		<path d="M280.3,77.1c0-0.2,0.1-0.3,0.2-0.3c0.1,0,0.1,0,0.2,0.1c0,0.1,0.1,0.1,0.1,0.2c0,0.1,0,0.2-0.1,0.2s-0.1,0.1-0.2,0.1
			C280.3,77.4,280.3,77.3,280.3,77.1z M280.6,81.6h-0.3v-3.6h0.3V81.6z"/>
		<path d="M284,80.7c0,0.3-0.1,0.6-0.4,0.7c-0.2,0.2-0.6,0.3-1,0.3c-0.5,0-0.9-0.1-1.1-0.2v-0.3c0.4,0.2,0.7,0.3,1.1,0.3
			c0.3,0,0.6-0.1,0.8-0.2c0.2-0.1,0.3-0.3,0.3-0.5c0-0.2-0.1-0.3-0.2-0.5c-0.1-0.1-0.4-0.2-0.7-0.4c-0.4-0.1-0.6-0.2-0.8-0.3
			c-0.1-0.1-0.3-0.2-0.3-0.3c-0.1-0.1-0.1-0.3-0.1-0.4c0-0.3,0.1-0.5,0.3-0.6c0.2-0.2,0.5-0.2,0.9-0.2c0.4,0,0.7,0.1,1.1,0.2
			l-0.1,0.3c-0.3-0.1-0.7-0.2-1-0.2c-0.3,0-0.5,0-0.7,0.1c-0.2,0.1-0.3,0.2-0.3,0.4c0,0.2,0.1,0.3,0.2,0.4c0.1,0.1,0.4,0.2,0.8,0.4
			c0.3,0.1,0.6,0.2,0.7,0.3c0.1,0.1,0.3,0.2,0.3,0.3C284,80.4,284,80.6,284,80.7z"/>
		<path d="M287.4,81.6v-2.3c0-0.4-0.1-0.6-0.2-0.8s-0.4-0.2-0.7-0.2c-0.4,0-0.7,0.1-0.9,0.3s-0.3,0.6-0.3,1v2h-0.3v-5.1h0.3v1.6
			l0,0.5h0c0.1-0.2,0.3-0.4,0.5-0.5c0.2-0.1,0.5-0.1,0.8-0.1c0.8,0,1.2,0.4,1.2,1.3v2.3H287.4z"/>
		<path d="M290.9,81.6h-0.3v-5.1h0.3V81.6z"/>
		<path d="M292.1,77.1c0-0.2,0.1-0.3,0.2-0.3c0.1,0,0.1,0,0.2,0.1c0,0.1,0.1,0.1,0.1,0.2c0,0.1,0,0.2-0.1,0.2c0,0.1-0.1,0.1-0.2,0.1
			C292.2,77.4,292.1,77.3,292.1,77.1z M292.5,81.6h-0.3v-3.6h0.3V81.6z"/>
		<path d="M295.9,80.7c0,0.3-0.1,0.6-0.4,0.7c-0.2,0.2-0.6,0.3-1,0.3c-0.5,0-0.9-0.1-1.1-0.2v-0.3c0.4,0.2,0.7,0.3,1.1,0.3
			c0.4,0,0.6-0.1,0.8-0.2c0.2-0.1,0.3-0.3,0.3-0.5c0-0.2-0.1-0.3-0.2-0.5c-0.1-0.1-0.4-0.2-0.7-0.4c-0.4-0.1-0.6-0.2-0.7-0.3
			c-0.1-0.1-0.3-0.2-0.3-0.3c-0.1-0.1-0.1-0.3-0.1-0.4c0-0.3,0.1-0.5,0.3-0.6c0.2-0.2,0.5-0.2,0.9-0.2c0.4,0,0.7,0.1,1.1,0.2
			l-0.1,0.3c-0.3-0.1-0.7-0.2-1-0.2c-0.3,0-0.5,0-0.7,0.1s-0.3,0.2-0.3,0.4c0,0.2,0.1,0.3,0.2,0.4c0.1,0.1,0.4,0.2,0.8,0.4
			c0.3,0.1,0.6,0.2,0.7,0.3c0.1,0.1,0.3,0.2,0.3,0.3C295.8,80.4,295.9,80.6,295.9,80.7z"/>
		<path d="M297.7,81.4c0.2,0,0.4,0,0.5-0.1v0.3c-0.2,0.1-0.3,0.1-0.5,0.1c-0.3,0-0.5-0.1-0.7-0.3s-0.2-0.4-0.2-0.8v-2.3h-0.5v-0.2
			l0.5-0.1l0.2-0.8h0.2v0.9h1v0.3h-1v2.2c0,0.3,0,0.5,0.1,0.6C297.4,81.4,297.5,81.4,297.7,81.4z"/>
	</g>
	<path fill="none" stroke="#D3D3D3" stroke-width="1.9134" stroke-miterlimit="10" d="M223.4,90.3"/>
	<path fill="none" stroke="#D3D3D3" stroke-width="1.9134" stroke-miterlimit="10" d="M215.5,122.6"/>
	<path fill="none" stroke="#D3D3D3" stroke-width="1.9134" stroke-miterlimit="10" d="M263,78"/>
	<polygon fill="#D3D3D3" points="259.6,81 259.6,51.2 283.4,51.4 283.6,44.8 285.5,44.8 285.3,53.4 261.5,53.2 261.5,79 266.5,78.8 
		266.6,80.7 	"/>
	<path fill="none" stroke="#B21F3B" stroke-width="1.9134" stroke-miterlimit="10" d="M198.7,20"/>
	<polygon fill="#BD1F3D" points="34.6,34.5 32.7,34.5 32.7,19.4 198.6,19.4 198.6,21.3 34.6,21.3 	"/>
	<rect x="197.7" y="13.5" fill="#B21F3B" width="1.9" height="7.8"/>
	<polygon fill="#BD1F3D" points="90.1,146.6 90.1,144.7 321.9,144 321.8,76.9 333.5,77.1 333.4,79 323.7,78.8 323.8,145.9 	"/>
	<polygon fill="#64C29D" points="321.4,143.2 239.8,143.2 239.8,72.4 241.7,72.4 241.7,141.3 319.5,141.3 319.5,74.1 333.8,74.1 
		333.8,76 321.4,76 	"/>
	
		<rect x="348.6" y="91.9" transform="matrix(1.408884e-02 0.9999 -0.9999 1.408884e-02 444.9598 -265.5197)" fill="#64C29D" width="17" height="1.9"/>
	<rect x="356.8" y="119.5" fill="#64C29D" width="1.9" height="15.8"/>
	<path fill="#969696" d="M35.9,128.2h-9.3c-3.2,0-5.9-2.6-5.9-5.9s2.6-5.9,5.9-5.9h9.3c3.2,0,5.9,2.6,5.9,5.9S39.1,128.2,35.9,128.2
		z M26.6,116.9c-3,0-5.4,2.4-5.4,5.4s2.4,5.4,5.4,5.4h9.3c3,0,5.4-2.4,5.4-5.4s-2.4-5.4-5.4-5.4H26.6z"/>
	<path fill="#969696" d="M84.7,115.5H63.9c-2.8,0-5.1-2.3-5.1-5.1s2.3-5.1,5.1-5.1h20.8c2.8,0,5.1,2.3,5.1,5.1
		S87.5,115.5,84.7,115.5z M63.9,105.7c-2.6,0-4.7,2.1-4.7,4.7s2.1,4.7,4.7,4.7h20.8c2.6,0,4.7-2.1,4.7-4.7s-2.1-4.7-4.7-4.7H63.9z"
		/>
	<path fill="#969696" d="M84.3,154.2H65c-3.3,0-6-2.7-6-6v-6.7c0-3.3,2.7-6,6-6h19.4c3.3,0,6,2.7,6,6v6.7
		C90.3,151.5,87.6,154.2,84.3,154.2z M65,136c-3,0-5.5,2.5-5.5,5.5v6.7c0,3,2.5,5.5,5.5,5.5h19.4c3,0,5.5-2.5,5.5-5.5v-6.7
		c0-3-2.5-5.5-5.5-5.5H65z"/>
	<path fill="#969696" d="M370.4,84.4h-30.9c-3.3,0-6-2.3-6-5.1v-1.6c0-2.8,2.7-5.1,6-5.1h30.9c3.3,0,6,2.3,6,5.1v1.6
		C376.4,82.1,373.7,84.4,370.4,84.4z M339.5,73.1c-3,0-5.5,2.1-5.5,4.6v1.6c0,2.5,2.5,4.6,5.5,4.6h30.9c3,0,5.5-2.1,5.5-4.6v-1.6
		c0-2.5-2.5-4.6-5.5-4.6H339.5z"/>
	<path fill="#969696" d="M377.1,119.5h-41.9c-3.3,0-6-2.7-6-6v-6.7c0-3.3,2.7-6,6-6h41.9c3.3,0,6,2.7,6,6v6.7
		C383.1,116.9,380.4,119.5,377.1,119.5z M335.2,101.4c-3,0-5.5,2.5-5.5,5.5v6.7c0,3,2.5,5.5,5.5,5.5h41.9c3,0,5.5-2.5,5.5-5.5v-6.7
		c0-3-2.5-5.5-5.5-5.5H335.2z"/>
	<path fill="#969696" d="M372.7,145.9h-32.1c-2.6,0-4.6-1.6-4.6-3.6v-3.9c0-2,2.1-3.6,4.6-3.6h32.1c2.6,0,4.6,1.6,4.6,3.6v3.9
		C377.3,144.3,375.3,145.9,372.7,145.9z M340.6,135.3c-2.3,0-4.2,1.4-4.2,3.1v3.9c0,1.7,1.9,3.1,4.2,3.1h32.1c2.3,0,4.2-1.4,4.2-3.1
		v-3.9c0-1.7-1.9-3.1-4.2-3.1H340.6z"/>
	<polygon fill="#64C29D" points="200.7,21.6 200.5,13.6 202.4,13.6 202.6,19.6 241.2,19.4 241.2,21.3 	"/>
	<rect x="181.2" y="0" fill="#A9A8A8" width="37.8" height="13.6"/>
	<g>
		<g>
			<path fill="#FFFFFF" d="M194,9.7h-0.8V7.6h-2.1v2.1h-0.8V5h0.8v1.9h2.1V5h0.8V9.7z"/>
			<path fill="#FFFFFF" d="M199.9,7.3c0,0.8-0.2,1.3-0.6,1.8s-0.9,0.6-1.6,0.6c-0.7,0-1.2-0.2-1.6-0.6c-0.4-0.4-0.6-1-0.6-1.8
				c0-0.8,0.2-1.4,0.6-1.8s0.9-0.6,1.6-0.6c0.7,0,1.2,0.2,1.6,0.6C199.7,6,199.9,6.6,199.9,7.3z M196.3,7.3c0,0.6,0.1,1,0.3,1.3
				c0.2,0.3,0.6,0.4,1,0.4c0.5,0,0.8-0.1,1-0.4c0.2-0.3,0.3-0.7,0.3-1.3c0-0.6-0.1-1-0.3-1.3c-0.2-0.3-0.6-0.4-1-0.4
				c-0.5,0-0.8,0.1-1,0.4C196.4,6.3,196.3,6.8,196.3,7.3z"/>
			<path fill="#FFFFFF" d="M203.4,9.7L202,5.8h0c0,0.6,0.1,1.1,0.1,1.6v2.3h-0.7V5h1.1l1.3,3.7h0l1.3-3.7h1.1v4.7h-0.7V7.4
				c0-0.2,0-0.5,0-0.9c0-0.4,0-0.6,0-0.7h0L204,9.7H203.4z"/>
			<path fill="#FFFFFF" d="M210.5,9.7h-2.6V5h2.6v0.6h-1.9v1.3h1.8v0.6h-1.8V9h1.9V9.7z"/>
		</g>
	</g>
</g>
</svg>
