<?xml version="1.0" encoding="utf-8"?>
<!-- Generator: Adobe Illustrator 18.1.1, SVG Export Plug-In . SVG Version: 6.00 Build 0)  -->
<!DOCTYPE svg PUBLIC "-//W3C//DTD SVG 1.1//EN" "http://www.w3.org/Graphics/SVG/1.1/DTD/svg11.dtd">
<svg version="1.1" id="Layer_1" xmlns="http://www.w3.org/2000/svg" xmlns:xlink="http://www.w3.org/1999/xlink" x="0px" y="0px"
	 viewBox="0 0 382.5 153.9" enable-background="new 0 0 382.5 153.9" xml:space="preserve">
<g>
	<rect x="176.8" y="0" fill="#A9A8A8" width="37.8" height="13.6"/>
	<g>
		<g>
			<path fill="#FFFFFF" d="M189.6,9.7h-0.8V7.6h-2.1v2.1h-0.8V5h0.8v1.9h2.1V5h0.8V9.7z"/>
			<path fill="#FFFFFF" d="M195.5,7.3c0,0.8-0.2,1.3-0.6,1.8c-0.4,0.4-0.9,0.6-1.6,0.6c-0.7,0-1.2-0.2-1.6-0.6
				c-0.4-0.4-0.6-1-0.6-1.8c0-0.8,0.2-1.4,0.6-1.8c0.4-0.4,0.9-0.6,1.6-0.6c0.7,0,1.2,0.2,1.6,0.6C195.3,6,195.5,6.6,195.5,7.3z
				 M191.9,7.3c0,0.6,0.1,1,0.3,1.3c0.2,0.3,0.6,0.4,1,0.4c0.5,0,0.8-0.1,1-0.4c0.2-0.3,0.3-0.7,0.3-1.3c0-0.6-0.1-1-0.3-1.3
				c-0.2-0.3-0.6-0.4-1-0.4c-0.5,0-0.8,0.1-1,0.4C192,6.3,191.9,6.8,191.9,7.3z"/>
			<path fill="#FFFFFF" d="M199,9.7l-1.4-3.9h0c0,0.6,0.1,1.1,0.1,1.6v2.3H197V5h1.1l1.3,3.7h0l1.3-3.7h1.1v4.7H201V7.4
				c0-0.2,0-0.5,0-0.9c0-0.4,0-0.6,0-0.7h0l-1.4,3.9H199z"/>
			<path fill="#FFFFFF" d="M206.1,9.7h-2.6V5h2.6v0.6h-1.9v1.3h1.8v0.6h-1.8V9h1.9V9.7z"/>
		</g>
	</g>
	<polygon fill="#D3D3D3" points="51,123.6 41.4,123.6 41.4,121.7 49.1,121.7 49.1,109.3 51,109.3 	"/>
	
		<rect x="37.4" y="102" transform="matrix(1 3.104198e-03 -3.104198e-03 1 0.3197 -0.1362)" fill="#D3D3D3" width="13.2" height="1.9"/>
	<rect x="123.2" y="20" fill="#D3D3D3" width="1.9" height="14.2"/>
	<polygon fill="#D3D3D3" points="269.2,97.3 265.2,97.3 265.2,61.7 269.7,61.7 269.7,63.6 267.1,63.6 267.1,95.4 269.2,95.4 	"/>
	<polygon fill="#D3D3D3" points="51.3,141.6 42.6,141.3 42.7,139.4 49.4,139.6 49.4,109.3 51.3,109.3 	"/>
	<polygon fill="#E89D23" points="51.3,109.3 49.4,109.3 49.4,84.7 45.6,84.7 45.6,82.8 51.3,82.8 	"/>
	<rect x="49.4" y="108.3" fill="#E89D23" width="9.8" height="1.9"/>
	<g>
		<g>
			<path fill="#49494A" d="M29,40.2c0,0.4-0.1,0.7-0.4,0.9c-0.3,0.2-0.6,0.3-1.1,0.3s-0.9-0.1-1.2-0.2v-0.7c0.2,0.1,0.4,0.2,0.6,0.2
				c0.2,0.1,0.4,0.1,0.6,0.1c0.3,0,0.5-0.1,0.6-0.2c0.1-0.1,0.2-0.2,0.2-0.4c0-0.2-0.1-0.3-0.2-0.4c-0.1-0.1-0.4-0.2-0.7-0.4
				c-0.4-0.2-0.7-0.3-0.8-0.5s-0.2-0.4-0.2-0.7c0-0.4,0.1-0.6,0.4-0.8c0.2-0.2,0.6-0.3,1-0.3c0.4,0,0.8,0.1,1.2,0.3l-0.2,0.6
				c-0.4-0.2-0.7-0.2-1-0.2c-0.2,0-0.4,0-0.5,0.1C27,37.9,27,38,27,38.2c0,0.1,0,0.2,0.1,0.3c0,0.1,0.1,0.2,0.2,0.2
				c0.1,0.1,0.3,0.2,0.6,0.3c0.3,0.1,0.5,0.2,0.7,0.4c0.1,0.1,0.2,0.2,0.3,0.4S29,40,29,40.2z"/>
			<path fill="#49494A" d="M33.1,41.3h-0.7v-1.9h-1.9v1.9h-0.7v-4.2h0.7v1.7h1.9v-1.7h0.7V41.3z"/>
			<path fill="#49494A" d="M38,39.2c0,0.7-0.2,1.2-0.5,1.6s-0.8,0.6-1.5,0.6c-0.6,0-1.1-0.2-1.5-0.6c-0.3-0.4-0.5-0.9-0.5-1.6
				s0.2-1.2,0.5-1.6S35.4,37,36,37c0.6,0,1.1,0.2,1.5,0.6C37.8,38,38,38.5,38,39.2z M34.7,39.2c0,0.5,0.1,0.9,0.3,1.2
				s0.5,0.4,0.9,0.4c0.4,0,0.7-0.1,0.9-0.4c0.2-0.3,0.3-0.7,0.3-1.2c0-0.5-0.1-0.9-0.3-1.2c-0.2-0.3-0.5-0.4-0.9-0.4
				c-0.4,0-0.7,0.1-0.9,0.4S34.7,38.7,34.7,39.2z"/>
			<path fill="#49494A" d="M41.7,38.4c0,0.4-0.1,0.8-0.4,1c-0.3,0.2-0.7,0.4-1.2,0.4h-0.4v1.6h-0.7v-4.2h1.2c0.5,0,0.9,0.1,1.2,0.3
				C41.5,37.6,41.7,38,41.7,38.4z M39.6,39.2h0.4c0.4,0,0.6-0.1,0.8-0.2c0.2-0.1,0.2-0.3,0.2-0.6c0-0.2-0.1-0.4-0.2-0.5
				c-0.1-0.1-0.4-0.2-0.7-0.2h-0.5V39.2z"/>
		</g>
	</g>
	<g>
		<g>
			<path fill="#49494A" d="M59.3,39.5v1.7h-0.7V37h1.2c0.5,0,0.9,0.1,1.2,0.3c0.3,0.2,0.4,0.5,0.4,0.9c0,0.5-0.3,0.9-0.8,1.1
				l1.2,1.9H61l-1-1.7H59.3z M59.3,38.9h0.5c0.3,0,0.6-0.1,0.7-0.2c0.1-0.1,0.2-0.3,0.2-0.5c0-0.2-0.1-0.4-0.2-0.5
				c-0.2-0.1-0.4-0.2-0.7-0.2h-0.5V38.9z"/>
			<path fill="#49494A" d="M64.7,41.2h-2.4V37h2.4v0.6H63v1.1h1.6v0.6H63v1.3h1.7V41.2z"/>
			<path fill="#49494A" d="M69.4,39.1c0,0.5-0.1,0.9-0.3,1.3c-0.2,0.3-0.5,0.6-0.9,0.7l1,1.1h-0.9l-0.8-0.9h-0.1
				c-0.6,0-1.1-0.2-1.5-0.6c-0.3-0.4-0.5-0.9-0.5-1.6s0.2-1.2,0.5-1.6s0.8-0.6,1.5-0.6c0.6,0,1.1,0.2,1.5,0.6
				C69.2,37.8,69.4,38.4,69.4,39.1z M66.2,39.1c0,0.5,0.1,0.9,0.3,1.2s0.5,0.4,0.9,0.4c0.4,0,0.7-0.1,0.9-0.4
				c0.2-0.3,0.3-0.7,0.3-1.2c0-0.5-0.1-0.9-0.3-1.2c-0.2-0.3-0.5-0.4-0.9-0.4c-0.4,0-0.7,0.1-0.9,0.4S66.2,38.5,66.2,39.1z"/>
			<path fill="#49494A" d="M73.6,37v2.7c0,0.3-0.1,0.6-0.2,0.8c-0.1,0.2-0.3,0.4-0.6,0.5s-0.6,0.2-0.9,0.2c-0.5,0-0.9-0.1-1.2-0.4
				c-0.3-0.3-0.4-0.7-0.4-1.1V37H71v2.7c0,0.3,0.1,0.6,0.2,0.8c0.2,0.2,0.4,0.2,0.7,0.2c0.6,0,1-0.3,1-1V37H73.6z"/>
			<path fill="#49494A" d="M77.1,41.2h-2.4V37h2.4v0.6h-1.7v1.1H77v0.6h-1.6v1.3h1.7V41.2z"/>
			<path fill="#49494A" d="M80.4,40c0,0.4-0.1,0.7-0.4,0.9c-0.3,0.2-0.6,0.3-1.1,0.3S78,41.2,77.7,41v-0.7c0.2,0.1,0.4,0.2,0.6,0.2
				c0.2,0.1,0.4,0.1,0.6,0.1c0.3,0,0.5-0.1,0.6-0.2c0.1-0.1,0.2-0.2,0.2-0.4c0-0.2-0.1-0.3-0.2-0.4c-0.1-0.1-0.4-0.2-0.7-0.4
				c-0.4-0.2-0.7-0.3-0.8-0.5s-0.2-0.4-0.2-0.7c0-0.4,0.1-0.6,0.4-0.8c0.2-0.2,0.6-0.3,1-0.3c0.4,0,0.8,0.1,1.2,0.3l-0.2,0.6
				c-0.4-0.2-0.7-0.2-1-0.2c-0.2,0-0.4,0-0.5,0.1c-0.1,0.1-0.2,0.2-0.2,0.4c0,0.1,0,0.2,0.1,0.3c0,0.1,0.1,0.2,0.2,0.2
				c0.1,0.1,0.3,0.2,0.6,0.3c0.3,0.1,0.5,0.2,0.7,0.4c0.1,0.1,0.2,0.2,0.3,0.4S80.4,39.8,80.4,40z"/>
			<path fill="#49494A" d="M82.7,41.2H82v-3.6h-1.2V37h3.2v0.6h-1.2V41.2z"/>
			<path fill="#49494A" d="M88.7,41.2L88.3,40h-1.6l-0.4,1.2h-0.7l1.6-4.2h0.8l1.6,4.2H88.7z M88.1,39.4l-0.4-1.1
				c0-0.1-0.1-0.2-0.1-0.4c-0.1-0.2-0.1-0.3-0.1-0.4c-0.1,0.2-0.1,0.5-0.2,0.8l-0.4,1.1H88.1z"/>
			<path fill="#49494A" d="M93,41.2h-0.7v-3.6h-1.2V37h3.2v0.6H93V41.2z"/>
			<path fill="#49494A" d="M98.6,39.1c0,0.7-0.2,1.2-0.5,1.6s-0.8,0.6-1.5,0.6c-0.6,0-1.1-0.2-1.5-0.6c-0.3-0.4-0.5-0.9-0.5-1.6
				s0.2-1.2,0.5-1.6s0.8-0.6,1.5-0.6c0.6,0,1.1,0.2,1.5,0.6C98.5,37.8,98.6,38.4,98.6,39.1z M95.4,39.1c0,0.5,0.1,0.9,0.3,1.2
				s0.5,0.4,0.9,0.4c0.4,0,0.7-0.1,0.9-0.4c0.2-0.3,0.3-0.7,0.3-1.2c0-0.5-0.1-0.9-0.3-1.2c-0.2-0.3-0.5-0.4-0.9-0.4
				c-0.4,0-0.7,0.1-0.9,0.4S95.4,38.5,95.4,39.1z"/>
			<path fill="#49494A" d="M100.7,38.9l1-1.9h0.8l-1.4,2.6v1.6h-0.7v-1.6L99,37h0.8L100.7,38.9z"/>
		</g>
	</g>
	<g>
		<g>
			<path fill="#49494A" d="M155.1,41.3l-0.4-1.2h-1.6l-0.4,1.2h-0.7l1.6-4.2h0.8l1.6,4.2H155.1z M154.5,39.5l-0.4-1.1
				c0-0.1-0.1-0.2-0.1-0.4c-0.1-0.2-0.1-0.3-0.1-0.4c-0.1,0.2-0.1,0.5-0.2,0.8l-0.4,1.1H154.5z"/>
			<path fill="#49494A" d="M156.4,37.1h1.3c0.6,0,1,0.1,1.3,0.3c0.3,0.2,0.4,0.4,0.4,0.8c0,0.2-0.1,0.5-0.2,0.6
				c-0.1,0.2-0.3,0.3-0.5,0.3v0c0.3,0.1,0.5,0.2,0.7,0.3c0.1,0.2,0.2,0.4,0.2,0.7c0,0.4-0.1,0.7-0.4,0.9c-0.3,0.2-0.6,0.3-1.1,0.3
				h-1.5V37.1z M157.1,38.8h0.7c0.3,0,0.5,0,0.6-0.1c0.1-0.1,0.2-0.2,0.2-0.5c0-0.2-0.1-0.3-0.2-0.4c-0.1-0.1-0.4-0.1-0.7-0.1h-0.6
				V38.8z M157.1,39.4v1.3h0.7c0.3,0,0.5-0.1,0.7-0.2c0.1-0.1,0.2-0.3,0.2-0.5c0-0.2-0.1-0.4-0.2-0.5c-0.1-0.1-0.4-0.2-0.7-0.2
				H157.1z"/>
			<path fill="#49494A" d="M164,39.2c0,0.7-0.2,1.2-0.5,1.6s-0.8,0.6-1.5,0.6c-0.6,0-1.1-0.2-1.5-0.6c-0.3-0.4-0.5-0.9-0.5-1.6
				s0.2-1.2,0.5-1.6s0.8-0.6,1.5-0.6c0.6,0,1.1,0.2,1.5,0.6C163.9,37.9,164,38.5,164,39.2z M160.8,39.2c0,0.5,0.1,0.9,0.3,1.2
				s0.5,0.4,0.9,0.4c0.4,0,0.7-0.1,0.9-0.4c0.2-0.3,0.3-0.7,0.3-1.2c0-0.5-0.1-0.9-0.3-1.2c-0.2-0.3-0.5-0.4-0.9-0.4
				c-0.4,0-0.7,0.1-0.9,0.4S160.8,38.6,160.8,39.2z"/>
			<path fill="#49494A" d="M168.2,37.1v2.7c0,0.3-0.1,0.6-0.2,0.8c-0.1,0.2-0.3,0.4-0.6,0.5s-0.6,0.2-0.9,0.2
				c-0.5,0-0.9-0.1-1.2-0.4c-0.3-0.3-0.4-0.7-0.4-1.1v-2.7h0.7v2.7c0,0.3,0.1,0.6,0.2,0.8c0.2,0.2,0.4,0.2,0.7,0.2c0.6,0,1-0.3,1-1
				v-2.7H168.2z"/>
			<path fill="#49494A" d="M170.8,41.3h-0.7v-3.6h-1.2v-0.6h3.2v0.6h-1.2V41.3z"/>
			<path fill="#49494A" d="M177.5,37.1v2.7c0,0.3-0.1,0.6-0.2,0.8c-0.1,0.2-0.3,0.4-0.6,0.5s-0.6,0.2-0.9,0.2
				c-0.5,0-0.9-0.1-1.2-0.4c-0.3-0.3-0.4-0.7-0.4-1.1v-2.7h0.7v2.7c0,0.3,0.1,0.6,0.2,0.8c0.2,0.2,0.4,0.2,0.7,0.2c0.6,0,1-0.3,1-1
				v-2.7H177.5z"/>
			<path fill="#49494A" d="M181,40.1c0,0.4-0.1,0.7-0.4,0.9c-0.3,0.2-0.6,0.3-1.1,0.3s-0.9-0.1-1.2-0.2v-0.7
				c0.2,0.1,0.4,0.2,0.6,0.2c0.2,0.1,0.4,0.1,0.6,0.1c0.3,0,0.5-0.1,0.6-0.2c0.1-0.1,0.2-0.2,0.2-0.4c0-0.2-0.1-0.3-0.2-0.4
				c-0.1-0.1-0.4-0.2-0.7-0.4c-0.4-0.2-0.7-0.3-0.8-0.5s-0.2-0.4-0.2-0.7c0-0.4,0.1-0.6,0.4-0.8c0.2-0.2,0.6-0.3,1-0.3
				c0.4,0,0.8,0.1,1.2,0.3l-0.2,0.6c-0.4-0.2-0.7-0.2-1-0.2c-0.2,0-0.4,0-0.5,0.1c-0.1,0.1-0.2,0.2-0.2,0.4c0,0.1,0,0.2,0.1,0.3
				c0,0.1,0.1,0.2,0.2,0.2c0.1,0.1,0.3,0.2,0.6,0.3c0.3,0.1,0.5,0.2,0.7,0.4c0.1,0.1,0.2,0.2,0.3,0.4S181,39.9,181,40.1z"/>
		</g>
	</g>
	<g>
		<g>
			<path fill="#49494A" d="M194.8,37.8c-0.4,0-0.7,0.1-0.9,0.4c-0.2,0.3-0.3,0.7-0.3,1.2c0,0.5,0.1,0.9,0.3,1.2
				c0.2,0.3,0.5,0.4,0.9,0.4c0.2,0,0.4,0,0.5-0.1c0.2,0,0.3-0.1,0.5-0.1v0.6c-0.3,0.1-0.7,0.2-1.1,0.2c-0.6,0-1.1-0.2-1.4-0.6
				c-0.3-0.4-0.5-0.9-0.5-1.6c0-0.4,0.1-0.8,0.2-1.2s0.4-0.6,0.7-0.8c0.3-0.2,0.7-0.3,1.1-0.3c0.4,0,0.8,0.1,1.2,0.3l-0.2,0.6
				c-0.1-0.1-0.3-0.1-0.5-0.2C195.1,37.9,195,37.8,194.8,37.8z"/>
			<path fill="#49494A" d="M200.5,39.4c0,0.7-0.2,1.2-0.5,1.6c-0.3,0.4-0.8,0.6-1.5,0.6c-0.6,0-1.1-0.2-1.5-0.6
				c-0.3-0.4-0.5-0.9-0.5-1.6s0.2-1.2,0.5-1.6c0.3-0.4,0.8-0.6,1.5-0.6c0.6,0,1.1,0.2,1.5,0.6C200.3,38.2,200.5,38.7,200.5,39.4z
				 M197.3,39.4c0,0.5,0.1,0.9,0.3,1.2c0.2,0.3,0.5,0.4,0.9,0.4c0.4,0,0.7-0.1,0.9-0.4c0.2-0.3,0.3-0.7,0.3-1.2
				c0-0.5-0.1-0.9-0.3-1.2s-0.5-0.4-0.9-0.4c-0.4,0-0.7,0.1-0.9,0.4C197.4,38.5,197.3,38.9,197.3,39.4z"/>
			<path fill="#49494A" d="M204.9,41.5h-0.8l-2.1-3.4h0l0,0.2c0,0.4,0,0.7,0,1v2.2h-0.6v-4.2h0.8l2.1,3.3h0c0,0,0-0.2,0-0.5
				c0-0.3,0-0.5,0-0.7v-2.2h0.6V41.5z"/>
			<path fill="#49494A" d="M207.5,41.5h-0.7v-3.6h-1.2v-0.6h3.2v0.6h-1.2V41.5z"/>
			<path fill="#49494A" d="M212,41.5l-0.4-1.2H210l-0.4,1.2h-0.7l1.6-4.2h0.8l1.6,4.2H212z M211.4,39.7l-0.4-1.1
				c0-0.1-0.1-0.2-0.1-0.4c-0.1-0.2-0.1-0.3-0.1-0.4c-0.1,0.2-0.1,0.5-0.2,0.8l-0.4,1.1H211.4z"/>
			<path fill="#49494A" d="M215.1,37.8c-0.4,0-0.7,0.1-0.9,0.4c-0.2,0.3-0.3,0.7-0.3,1.2c0,0.5,0.1,0.9,0.3,1.2
				c0.2,0.3,0.5,0.4,0.9,0.4c0.2,0,0.4,0,0.5-0.1c0.2,0,0.3-0.1,0.5-0.1v0.6c-0.3,0.1-0.7,0.2-1.1,0.2c-0.6,0-1.1-0.2-1.4-0.6
				c-0.3-0.4-0.5-0.9-0.5-1.6c0-0.4,0.1-0.8,0.2-1.2c0.2-0.3,0.4-0.6,0.7-0.8c0.3-0.2,0.7-0.3,1.1-0.3c0.4,0,0.8,0.1,1.2,0.3
				l-0.2,0.6c-0.1-0.1-0.3-0.1-0.5-0.2C215.4,37.9,215.3,37.8,215.1,37.8z"/>
			<path fill="#49494A" d="M218.5,41.5h-0.7v-3.6h-1.2v-0.6h3.2v0.6h-1.2V41.5z"/>
		</g>
	</g>
	<g>
		<g>
			<path fill="#49494A" d="M231.8,40.6c0,0.4-0.1,0.7-0.4,0.9c-0.3,0.2-0.6,0.3-1.1,0.3c-0.5,0-0.9-0.1-1.2-0.2V41
				c0.2,0.1,0.4,0.2,0.6,0.2c0.2,0.1,0.4,0.1,0.6,0.1c0.3,0,0.5-0.1,0.6-0.2c0.1-0.1,0.2-0.2,0.2-0.4c0-0.2-0.1-0.3-0.2-0.4
				c-0.1-0.1-0.4-0.2-0.7-0.4c-0.4-0.2-0.7-0.3-0.8-0.5c-0.2-0.2-0.2-0.4-0.2-0.7c0-0.4,0.1-0.6,0.4-0.8c0.2-0.2,0.6-0.3,1-0.3
				c0.4,0,0.8,0.1,1.2,0.3l-0.2,0.6c-0.4-0.2-0.7-0.2-1-0.2c-0.2,0-0.4,0-0.5,0.1c-0.1,0.1-0.2,0.2-0.2,0.4c0,0.1,0,0.2,0.1,0.3
				s0.1,0.2,0.2,0.2c0.1,0.1,0.3,0.2,0.6,0.3c0.3,0.1,0.5,0.2,0.7,0.4c0.1,0.1,0.2,0.2,0.3,0.4C231.8,40.3,231.8,40.5,231.8,40.6z"
				/>
			<path fill="#49494A" d="M235,41.8h-2.4v-4.2h2.4v0.6h-1.7v1.1h1.6v0.6h-1.6v1.3h1.7V41.8z"/>
			<path fill="#49494A" d="M238.5,41.8l-0.4-1.2h-1.6l-0.4,1.2h-0.7l1.6-4.2h0.8l1.6,4.2H238.5z M237.9,40l-0.4-1.1
				c0-0.1-0.1-0.2-0.1-0.4c-0.1-0.2-0.1-0.3-0.1-0.4c-0.1,0.2-0.1,0.5-0.2,0.8l-0.4,1.1H237.9z"/>
			<path fill="#49494A" d="M240.5,40.1v1.7h-0.7v-4.2h1.2c0.5,0,0.9,0.1,1.2,0.3c0.3,0.2,0.4,0.5,0.4,0.9c0,0.5-0.3,0.9-0.8,1.1
				l1.2,1.9h-0.8l-1-1.7H240.5z M240.5,39.5h0.5c0.3,0,0.6-0.1,0.7-0.2s0.2-0.3,0.2-0.5c0-0.2-0.1-0.4-0.2-0.5
				c-0.2-0.1-0.4-0.2-0.7-0.2h-0.5V39.5z"/>
			<path fill="#49494A" d="M245.4,38.1c-0.4,0-0.7,0.1-0.9,0.4c-0.2,0.3-0.3,0.7-0.3,1.2c0,0.5,0.1,0.9,0.3,1.2
				c0.2,0.3,0.5,0.4,0.9,0.4c0.2,0,0.4,0,0.5-0.1c0.2,0,0.3-0.1,0.5-0.1v0.6c-0.3,0.1-0.7,0.2-1.1,0.2c-0.6,0-1.1-0.2-1.4-0.6
				c-0.3-0.4-0.5-0.9-0.5-1.6c0-0.4,0.1-0.8,0.2-1.2c0.2-0.3,0.4-0.6,0.7-0.8c0.3-0.2,0.7-0.3,1.1-0.3c0.4,0,0.8,0.1,1.2,0.3
				l-0.2,0.6c-0.1-0.1-0.3-0.1-0.5-0.2C245.7,38.1,245.6,38.1,245.4,38.1z"/>
			<path fill="#49494A" d="M250.7,41.8H250v-1.9H248v1.9h-0.7v-4.2h0.7v1.7h1.9v-1.7h0.7V41.8z"/>
		</g>
	</g>
	<g>
		<g>
			<path fill="#49494A" d="M274.5,41.5v-4.2h0.7v3.6h1.8v0.6H274.5z"/>
			<path fill="#49494A" d="M281.4,39.4c0,0.7-0.2,1.2-0.5,1.6c-0.3,0.4-0.8,0.6-1.5,0.6c-0.6,0-1.1-0.2-1.5-0.6
				c-0.3-0.4-0.5-0.9-0.5-1.6s0.2-1.2,0.5-1.6c0.3-0.4,0.8-0.6,1.5-0.6c0.6,0,1.1,0.2,1.5,0.6C281.2,38.2,281.4,38.7,281.4,39.4z
				 M278.2,39.4c0,0.5,0.1,0.9,0.3,1.2s0.5,0.4,0.9,0.4c0.4,0,0.7-0.1,0.9-0.4c0.2-0.3,0.3-0.7,0.3-1.2c0-0.5-0.1-0.9-0.3-1.2
				s-0.5-0.4-0.9-0.4c-0.4,0-0.7,0.1-0.9,0.4C278.3,38.5,278.2,38.9,278.2,39.4z"/>
			<path fill="#49494A" d="M284,39.2h1.6v2.1c-0.3,0.1-0.5,0.1-0.7,0.2c-0.2,0-0.5,0.1-0.8,0.1c-0.6,0-1.1-0.2-1.5-0.6
				c-0.3-0.4-0.5-0.9-0.5-1.6c0-0.7,0.2-1.2,0.6-1.6s0.9-0.6,1.6-0.6c0.4,0,0.9,0.1,1.3,0.3l-0.2,0.6c-0.3-0.2-0.7-0.2-1-0.2
				c-0.5,0-0.8,0.1-1.1,0.4c-0.3,0.3-0.4,0.7-0.4,1.2c0,0.5,0.1,0.9,0.4,1.2s0.6,0.4,1,0.4c0.2,0,0.5,0,0.7-0.1v-1.1H284V39.2z"/>
			<path fill="#49494A" d="M286.6,41.5v-4.2h0.7v4.2H286.6z"/>
			<path fill="#49494A" d="M291.9,41.5h-0.8l-2.1-3.4h0l0,0.2c0,0.4,0,0.7,0,1v2.2h-0.6v-4.2h0.8l2.1,3.3h0c0,0,0-0.2,0-0.5
				c0-0.3,0-0.5,0-0.7v-2.2h0.6V41.5z"/>
		</g>
	</g>
	<g>
		<g>
			<path fill="#49494A" d="M352.1,37.1h0.7l-1.5,4.2h-0.7l-1.5-4.2h0.7l0.9,2.6c0,0.1,0.1,0.3,0.1,0.5c0.1,0.2,0.1,0.3,0.1,0.4
				c0-0.1,0.1-0.3,0.1-0.5s0.1-0.3,0.1-0.4L352.1,37.1z"/>
			<path fill="#49494A" d="M353.3,41.3v-4.2h0.7v4.2H353.3z"/>
			<path fill="#49494A" d="M357.5,41.3h-2.4v-4.2h2.4v0.6h-1.7v1.1h1.6v0.6h-1.6v1.3h1.7V41.3z"/>
			<path fill="#49494A" d="M362.3,41.3h-0.8l-0.7-2.5c0-0.1-0.1-0.3-0.1-0.5c0-0.2-0.1-0.4-0.1-0.4c0,0.1-0.1,0.3-0.1,0.5
				s-0.1,0.3-0.1,0.4l-0.7,2.5H359l-0.5-2.1l-0.6-2.1h0.7l0.6,2.5c0.1,0.4,0.2,0.7,0.2,1c0-0.2,0.1-0.3,0.1-0.5
				c0-0.2,0.1-0.4,0.1-0.5l0.7-2.5h0.7l0.7,2.5c0.1,0.2,0.1,0.6,0.2,1c0-0.3,0.1-0.6,0.2-1l0.6-2.5h0.7L362.3,41.3z"/>
			<path fill="#49494A" d="M367.4,37.6c-0.4,0-0.7,0.1-0.9,0.4c-0.2,0.3-0.3,0.7-0.3,1.2c0,0.5,0.1,0.9,0.3,1.2
				c0.2,0.3,0.5,0.4,0.9,0.4c0.2,0,0.4,0,0.5-0.1c0.2,0,0.3-0.1,0.5-0.1v0.6c-0.3,0.1-0.7,0.2-1.1,0.2c-0.6,0-1.1-0.2-1.4-0.6
				c-0.3-0.4-0.5-0.9-0.5-1.6c0-0.4,0.1-0.8,0.2-1.2c0.2-0.3,0.4-0.6,0.7-0.8c0.3-0.2,0.7-0.3,1.1-0.3c0.4,0,0.8,0.1,1.2,0.3
				l-0.2,0.6c-0.1-0.1-0.3-0.1-0.5-0.2C367.7,37.7,367.5,37.6,367.4,37.6z"/>
			<path fill="#49494A" d="M371.9,41.3l-0.4-1.2h-1.6l-0.4,1.2h-0.7l1.6-4.2h0.8l1.6,4.2H371.9z M371.3,39.6l-0.4-1.1
				c0-0.1-0.1-0.2-0.1-0.4c-0.1-0.2-0.1-0.3-0.1-0.4c-0.1,0.2-0.1,0.5-0.2,0.8l-0.4,1.1H371.3z"/>
			<path fill="#49494A" d="M373.9,39.6v1.7h-0.7v-4.2h1.2c0.5,0,0.9,0.1,1.2,0.3c0.3,0.2,0.4,0.5,0.4,0.9c0,0.5-0.3,0.9-0.8,1.1
				l1.2,1.9h-0.8l-1-1.7H373.9z M373.9,39.1h0.5c0.3,0,0.6-0.1,0.7-0.2s0.2-0.3,0.2-0.5c0-0.2-0.1-0.4-0.2-0.5
				c-0.2-0.1-0.4-0.2-0.7-0.2h-0.5V39.1z"/>
			<path fill="#49494A" d="M378.5,41.3h-0.7v-3.6h-1.2v-0.6h3.2v0.6h-1.2V41.3z"/>
		</g>
	</g>
	<rect x="80.2" y="19.2" fill="#D3D3D3" width="1.9" height="14.4"/>
	<rect x="165.2" y="20.4" fill="#D3D3D3" width="1.9" height="13.3"/>
	<rect x="165.6" y="44.8" fill="#D3D3D3" width="1.9" height="15.1"/>
	<rect x="204.4" y="21.1" fill="#D3D3D3" width="1.9" height="13"/>
	
		<rect x="233.4" y="26.1" transform="matrix(1.203731e-03 1 -1 1.203731e-03 266.6408 -212.9348)" fill="#D3D3D3" width="13" height="1.9"/>
	
		<rect x="239" y="44.4" transform="matrix(1 6.134854e-03 -6.134854e-03 1 0.3314 -1.4712)" fill="#D3D3D3" width="1.9" height="17.8"/>
	
		<rect x="276" y="26.4" transform="matrix(2.729263e-02 0.9996 -0.9996 2.729263e-02 302.3962 -256.1266)" fill="#D3D3D3" width="13.6" height="1.9"/>
	<polygon fill="#D3D3D3" points="369.6,33 367.7,33 367.7,21.2 239.9,21.2 239.9,19.3 369.6,19.3 	"/>
	<polygon fill="#E89D23" points="9.9,108.5 9.8,82 16.6,82.3 16.6,84.2 11.8,84 11.8,108.5 	"/>
	<polygon fill="#D3D3D3" points="10,142.2 9.9,108.5 11.8,108.5 11.9,140.3 20,140.1 20,142.1 	"/>
	<g>
		<g>
			<path d="M20.4,80.6c-0.6,0-1.1,0.2-1.4,0.6c-0.3,0.4-0.5,0.9-0.5,1.6c0,0.7,0.2,1.2,0.5,1.6s0.8,0.6,1.4,0.6
				c0.4,0,0.8-0.1,1.1-0.2v0.3c-0.3,0.1-0.7,0.2-1.2,0.2c-0.7,0-1.2-0.2-1.6-0.7s-0.6-1-0.6-1.8c0-0.5,0.1-0.9,0.3-1.3
				c0.2-0.4,0.4-0.7,0.8-0.9s0.7-0.3,1.2-0.3c0.5,0,0.9,0.1,1.3,0.3l-0.1,0.3C21.2,80.7,20.8,80.6,20.4,80.6z"/>
			<path d="M24.6,85.2l-0.1-0.6h0c-0.2,0.2-0.4,0.4-0.6,0.5c-0.2,0.1-0.4,0.1-0.7,0.1c-0.3,0-0.6-0.1-0.8-0.3
				c-0.2-0.2-0.3-0.4-0.3-0.7c0-0.3,0.1-0.6,0.4-0.8c0.3-0.2,0.7-0.3,1.3-0.3l0.7,0v-0.2c0-0.3-0.1-0.6-0.2-0.8
				c-0.1-0.2-0.4-0.3-0.7-0.3c-0.3,0-0.7,0.1-1,0.3l-0.1-0.3c0.4-0.2,0.8-0.3,1.2-0.3c0.4,0,0.7,0.1,0.9,0.3s0.3,0.5,0.3,0.9v2.4
				H24.6z M23.3,84.9c0.4,0,0.7-0.1,0.9-0.3c0.2-0.2,0.3-0.5,0.3-0.9v-0.3l-0.6,0c-0.5,0-0.9,0.1-1.1,0.2c-0.2,0.1-0.3,0.3-0.3,0.6
				c0,0.2,0.1,0.4,0.2,0.5S23.1,84.9,23.3,84.9z"/>
			<path d="M27,84.9c0.2,0,0.4,0,0.5-0.1v0.3c-0.2,0.1-0.3,0.1-0.5,0.1c-0.3,0-0.5-0.1-0.7-0.3S26,84.5,26,84.2v-2.3h-0.5v-0.2
				l0.5-0.1l0.2-0.8h0.2v0.9h1v0.3h-1v2.2c0,0.3,0,0.5,0.1,0.6C26.6,84.9,26.8,84.9,27,84.9z"/>
			<path d="M29.7,85.2c-0.5,0-0.9-0.2-1.2-0.5c-0.3-0.3-0.4-0.8-0.4-1.3c0-0.6,0.1-1,0.4-1.4c0.3-0.3,0.7-0.5,1.1-0.5
				c0.4,0,0.7,0.1,1,0.4c0.2,0.3,0.4,0.7,0.4,1.2v0.3h-2.6c0,0.5,0.1,0.9,0.3,1.1c0.2,0.3,0.5,0.4,1,0.4c0.2,0,0.4,0,0.5,0
				c0.2,0,0.3-0.1,0.6-0.2V85c-0.2,0.1-0.4,0.1-0.6,0.2C30.1,85.2,29.9,85.2,29.7,85.2z M29.6,81.8c-0.3,0-0.6,0.1-0.8,0.3
				c-0.2,0.2-0.3,0.6-0.4,1h2.2c0-0.4-0.1-0.7-0.3-1S29.9,81.8,29.6,81.8z"/>
			<path d="M34.7,81.6v0.2l-0.7,0c0.2,0.2,0.3,0.5,0.3,0.8c0,0.3-0.1,0.6-0.3,0.8c-0.2,0.2-0.5,0.3-0.9,0.3c-0.2,0-0.3,0-0.3,0
				c-0.1,0.1-0.2,0.1-0.3,0.2c-0.1,0.1-0.1,0.2-0.1,0.3c0,0.1,0,0.2,0.1,0.2c0.1,0.1,0.2,0.1,0.4,0.1h0.6c0.4,0,0.7,0.1,0.9,0.2
				c0.2,0.2,0.3,0.4,0.3,0.7c0,0.4-0.2,0.7-0.5,0.9s-0.7,0.3-1.3,0.3c-0.4,0-0.8-0.1-1-0.3c-0.2-0.2-0.4-0.4-0.4-0.7
				c0-0.2,0.1-0.4,0.2-0.6c0.2-0.2,0.4-0.3,0.6-0.3c-0.1,0-0.2-0.1-0.3-0.2C32,84.6,32,84.5,32,84.4c0-0.2,0.2-0.4,0.5-0.6
				c-0.2-0.1-0.4-0.2-0.5-0.4c-0.1-0.2-0.2-0.4-0.2-0.6c0-0.4,0.1-0.6,0.3-0.9s0.5-0.3,0.9-0.3c0.2,0,0.4,0,0.5,0.1H34.7z
				 M31.8,85.8c0,0.5,0.4,0.7,1.1,0.7c0.9,0,1.4-0.3,1.4-0.9c0-0.2-0.1-0.4-0.2-0.5S33.7,85,33.4,85h-0.6
				C32.2,85,31.8,85.2,31.8,85.8z M32.1,82.7c0,0.3,0.1,0.5,0.3,0.6c0.2,0.2,0.4,0.2,0.7,0.2c0.3,0,0.5-0.1,0.7-0.2
				c0.2-0.2,0.2-0.4,0.2-0.7c0-0.3-0.1-0.5-0.2-0.7c-0.2-0.2-0.4-0.2-0.7-0.2c-0.3,0-0.5,0.1-0.7,0.2C32.2,82.2,32.1,82.4,32.1,82.7
				z"/>
			<path d="M38.4,83.4c0,0.6-0.1,1-0.4,1.4s-0.7,0.5-1.2,0.5c-0.3,0-0.6-0.1-0.8-0.2c-0.2-0.2-0.4-0.4-0.5-0.6s-0.2-0.6-0.2-1
				c0-0.6,0.1-1,0.4-1.4c0.3-0.3,0.7-0.5,1.2-0.5c0.5,0,0.9,0.2,1.1,0.5C38.2,82.4,38.4,82.8,38.4,83.4z M35.6,83.4
				c0,0.5,0.1,0.9,0.3,1.1c0.2,0.3,0.5,0.4,0.9,0.4s0.7-0.1,0.9-0.4c0.2-0.3,0.3-0.7,0.3-1.1c0-0.5-0.1-0.9-0.3-1.1
				c-0.2-0.3-0.5-0.4-0.9-0.4c-0.4,0-0.7,0.1-0.9,0.4C35.7,82.5,35.6,82.9,35.6,83.4z"/>
			<path d="M40.8,81.5c0.2,0,0.3,0,0.5,0l-0.1,0.3c-0.1,0-0.3-0.1-0.5-0.1c-0.3,0-0.6,0.1-0.7,0.4c-0.2,0.3-0.3,0.6-0.3,1v2h-0.3
				v-3.6h0.3l0,0.6h0c0.1-0.3,0.3-0.4,0.5-0.6S40.5,81.5,40.8,81.5z"/>
			<path d="M41.4,81.6h0.3l0.8,2c0.2,0.6,0.4,1,0.4,1.2h0c0.1-0.3,0.2-0.7,0.4-1.3l0.8-2h0.3l-1.6,4.1c-0.1,0.3-0.2,0.6-0.3,0.7
				c-0.1,0.1-0.2,0.2-0.3,0.3c-0.1,0.1-0.3,0.1-0.4,0.1c-0.1,0-0.3,0-0.4-0.1v-0.3c0.1,0,0.3,0.1,0.4,0.1c0.1,0,0.2,0,0.3-0.1
				c0.1-0.1,0.2-0.1,0.2-0.2c0.1-0.1,0.1-0.3,0.2-0.5c0.1-0.2,0.1-0.4,0.2-0.5L41.4,81.6z"/>
		</g>
	</g>
	<g>
		<g>
			<path d="M26.8,102.8h-1.9l-0.7,1.7h-0.4l1.9-4.8H26l1.9,4.8h-0.4L26.8,102.8z M25,102.5h1.7l-0.7-1.7c-0.1-0.1-0.1-0.3-0.2-0.6
				c-0.1,0.2-0.1,0.4-0.2,0.6L25,102.5z"/>
			<path d="M31.2,101v0.2l-0.7,0c0.2,0.2,0.3,0.5,0.3,0.8c0,0.3-0.1,0.6-0.3,0.8c-0.2,0.2-0.5,0.3-0.9,0.3c-0.2,0-0.3,0-0.3,0
				c-0.1,0.1-0.2,0.1-0.3,0.2c-0.1,0.1-0.1,0.2-0.1,0.3c0,0.1,0,0.2,0.1,0.2s0.2,0.1,0.4,0.1H30c0.4,0,0.7,0.1,0.9,0.2
				c0.2,0.2,0.3,0.4,0.3,0.7c0,0.4-0.2,0.7-0.5,0.9c-0.3,0.2-0.7,0.3-1.3,0.3c-0.4,0-0.8-0.1-1-0.3c-0.2-0.2-0.4-0.4-0.4-0.7
				c0-0.2,0.1-0.4,0.2-0.6c0.2-0.2,0.4-0.3,0.6-0.3c-0.1,0-0.2-0.1-0.3-0.2c-0.1-0.1-0.1-0.2-0.1-0.3c0-0.2,0.2-0.4,0.5-0.6
				c-0.2-0.1-0.4-0.2-0.5-0.4c-0.1-0.2-0.2-0.4-0.2-0.6c0-0.4,0.1-0.6,0.3-0.9s0.5-0.3,0.9-0.3c0.2,0,0.4,0,0.5,0.1H31.2z
				 M28.4,105.1c0,0.5,0.4,0.7,1.1,0.7c0.9,0,1.4-0.3,1.4-0.9c0-0.2-0.1-0.4-0.2-0.5c-0.1-0.1-0.4-0.1-0.7-0.1h-0.6
				C28.7,104.3,28.4,104.6,28.4,105.1z M28.6,102.1c0,0.3,0.1,0.5,0.3,0.6c0.2,0.2,0.4,0.2,0.7,0.2c0.3,0,0.5-0.1,0.7-0.2
				c0.2-0.2,0.2-0.4,0.2-0.7c0-0.3-0.1-0.5-0.2-0.7c-0.2-0.2-0.4-0.2-0.7-0.2c-0.3,0-0.5,0.1-0.7,0.2
				C28.7,101.5,28.6,101.8,28.6,102.1z"/>
			<path d="M33.4,104.6c-0.5,0-0.9-0.2-1.2-0.5c-0.3-0.3-0.4-0.8-0.4-1.3c0-0.6,0.1-1,0.4-1.4c0.3-0.3,0.7-0.5,1.1-0.5
				c0.4,0,0.7,0.1,1,0.4c0.2,0.3,0.4,0.7,0.4,1.2v0.3h-2.6c0,0.5,0.1,0.9,0.3,1.1c0.2,0.3,0.5,0.4,1,0.4c0.2,0,0.4,0,0.5,0
				c0.2,0,0.3-0.1,0.6-0.2v0.3c-0.2,0.1-0.4,0.1-0.6,0.2C33.8,104.6,33.6,104.6,33.4,104.6z M33.3,101.2c-0.3,0-0.6,0.1-0.8,0.3
				c-0.2,0.2-0.3,0.6-0.4,1h2.2c0-0.4-0.1-0.7-0.3-1S33.6,101.2,33.3,101.2z"/>
		</g>
	</g>
	<g>
		<g>
			<path d="M23.5,119.4h1.3c0.6,0,1,0.1,1.3,0.3c0.3,0.2,0.4,0.5,0.4,0.9c0,0.3-0.1,0.5-0.3,0.7s-0.4,0.3-0.7,0.4v0
				c0.4,0.1,0.7,0.2,0.8,0.4s0.3,0.4,0.3,0.8c0,0.4-0.1,0.8-0.4,1c-0.3,0.2-0.7,0.4-1.2,0.4h-1.5V119.4z M23.8,121.6h1.1
				c0.4,0,0.8-0.1,1-0.2c0.2-0.2,0.3-0.4,0.3-0.7s-0.1-0.6-0.3-0.7c-0.2-0.1-0.6-0.2-1-0.2h-1V121.6z M23.8,121.8v2.1H25
				c0.9,0,1.3-0.4,1.3-1.1c0-0.7-0.5-1-1.4-1H23.8z"/>
			<path d="M29,120.6c0.2,0,0.3,0,0.5,0l-0.1,0.3c-0.1,0-0.3-0.1-0.5-0.1c-0.3,0-0.6,0.1-0.7,0.4c-0.2,0.3-0.3,0.6-0.3,1v2h-0.3
				v-3.6h0.3l0,0.6h0c0.1-0.3,0.3-0.4,0.5-0.6C28.6,120.6,28.8,120.6,29,120.6z"/>
			<path d="M32.4,124.2l-0.1-0.6h0c-0.2,0.2-0.4,0.4-0.6,0.5c-0.2,0.1-0.4,0.1-0.7,0.1c-0.3,0-0.6-0.1-0.8-0.3
				c-0.2-0.2-0.3-0.4-0.3-0.7c0-0.3,0.1-0.6,0.4-0.8c0.3-0.2,0.7-0.3,1.3-0.3l0.7,0v-0.2c0-0.3-0.1-0.6-0.2-0.8s-0.4-0.3-0.7-0.3
				c-0.3,0-0.7,0.1-1,0.3l-0.1-0.3c0.4-0.2,0.8-0.3,1.2-0.3c0.4,0,0.7,0.1,0.9,0.3s0.3,0.5,0.3,0.9v2.4H32.4z M31.1,124
				c0.4,0,0.7-0.1,0.9-0.3c0.2-0.2,0.3-0.5,0.3-0.9v-0.4l-0.6,0c-0.5,0-0.9,0.1-1.1,0.2c-0.2,0.1-0.3,0.3-0.3,0.6
				c0,0.2,0.1,0.4,0.2,0.5C30.6,123.9,30.8,124,31.1,124z"/>
			<path d="M36.3,124.2v-2.3c0-0.4-0.1-0.6-0.2-0.8s-0.4-0.2-0.7-0.2c-0.4,0-0.7,0.1-0.9,0.3s-0.3,0.6-0.3,1v2h-0.3v-3.6h0.3
				l0.1,0.5h0c0.2-0.4,0.6-0.6,1.2-0.6c0.8,0,1.2,0.4,1.2,1.3v2.3H36.3z"/>
			<path d="M39,120.6c0.3,0,0.5,0,0.7,0.1s0.4,0.3,0.5,0.5h0c0-0.3,0-0.5,0-0.8v-1.3h0.3v5.1h-0.2l-0.1-0.5h0
				c-0.3,0.4-0.7,0.6-1.2,0.6c-0.5,0-0.9-0.2-1.1-0.5c-0.3-0.3-0.4-0.8-0.4-1.3c0-0.6,0.1-1.1,0.4-1.4
				C38.2,120.7,38.5,120.6,39,120.6z M39,120.9c-0.4,0-0.7,0.1-0.9,0.4c-0.2,0.3-0.3,0.7-0.3,1.2c0,1,0.4,1.5,1.2,1.5
				c0.4,0,0.7-0.1,0.9-0.3c0.2-0.2,0.3-0.6,0.3-1.2v-0.1c0-0.5-0.1-0.9-0.3-1.2C39.7,121,39.4,120.9,39,120.9z"/>
		</g>
	</g>
	<g>
		<g>
			<path d="M23.8,142h-0.3v-4.5h-1.6v-0.3h3.4v0.3h-1.6V142z"/>
			<path d="M28.9,140.2c0,0.6-0.1,1-0.4,1.4c-0.3,0.3-0.7,0.5-1.2,0.5c-0.3,0-0.6-0.1-0.8-0.2c-0.2-0.2-0.4-0.4-0.5-0.6
				s-0.2-0.6-0.2-1c0-0.6,0.1-1,0.4-1.4s0.7-0.5,1.2-0.5c0.5,0,0.9,0.2,1.1,0.5C28.8,139.2,28.9,139.7,28.9,140.2z M26.1,140.2
				c0,0.5,0.1,0.9,0.3,1.1s0.5,0.4,0.9,0.4s0.7-0.1,0.9-0.4s0.3-0.7,0.3-1.1c0-0.5-0.1-0.9-0.3-1.1c-0.2-0.3-0.5-0.4-0.9-0.4
				c-0.4,0-0.7,0.1-0.9,0.4C26.2,139.4,26.1,139.7,26.1,140.2z"/>
			<path d="M31.4,142.1c-0.5,0-0.9-0.2-1.2-0.6h0l0,0.3c0,0.2,0,0.3,0,0.5v1.4h-0.3v-5.2h0.3l0.1,0.5h0c0.2-0.4,0.6-0.6,1.2-0.6
				c0.5,0,0.8,0.2,1.1,0.5s0.4,0.8,0.4,1.4c0,0.6-0.1,1-0.4,1.4C32.2,141.9,31.9,142.1,31.4,142.1z M31.4,141.8
				c0.4,0,0.6-0.1,0.8-0.4c0.2-0.3,0.3-0.6,0.3-1.1c0-1-0.4-1.6-1.1-1.6c-0.4,0-0.7,0.1-0.9,0.3c-0.2,0.2-0.3,0.6-0.3,1.1v0.1
				c0,0.6,0.1,1,0.3,1.2C30.7,141.7,31,141.8,31.4,141.8z"/>
			<path d="M38.4,142h-3v-0.3l1.3-1.3c0.4-0.4,0.6-0.7,0.8-0.8c0.1-0.2,0.2-0.4,0.3-0.6c0.1-0.2,0.1-0.4,0.1-0.6
				c0-0.3-0.1-0.5-0.3-0.7c-0.2-0.2-0.4-0.3-0.7-0.3c-0.4,0-0.8,0.1-1.1,0.4l-0.2-0.2c0.4-0.3,0.8-0.5,1.3-0.5c0.4,0,0.7,0.1,1,0.3
				s0.4,0.5,0.4,0.9c0,0.3-0.1,0.6-0.2,0.9s-0.5,0.7-0.9,1.1l-1.2,1.3v0h2.6V142z"/>
			<path d="M42.3,139.6c0,0.8-0.1,1.5-0.4,1.9c-0.3,0.4-0.6,0.6-1.2,0.6c-0.5,0-0.9-0.2-1.1-0.6c-0.3-0.4-0.4-1-0.4-1.8
				c0-0.8,0.1-1.5,0.4-1.9c0.3-0.4,0.6-0.6,1.1-0.6c0.5,0,0.9,0.2,1.2,0.6S42.3,138.8,42.3,139.6z M39.6,139.6
				c0,0.7,0.1,1.3,0.3,1.6c0.2,0.4,0.5,0.5,0.9,0.5c0.4,0,0.7-0.2,0.9-0.5c0.2-0.4,0.3-0.9,0.3-1.6c0-0.7-0.1-1.2-0.3-1.6
				c-0.2-0.4-0.5-0.5-0.9-0.5c-0.4,0-0.7,0.2-0.9,0.5C39.6,138.4,39.6,138.9,39.6,139.6z"/>
		</g>
	</g>
	<polygon fill="#D3D3D3" points="20.9,123.5 9.7,123.5 10,108.5 11.9,108.5 11.6,121.6 20.9,121.6 	"/>
	<polygon fill="#E89D23" points="10.9,109.4 0,109.4 0,58.9 32.5,58.9 32.7,44.6 34.6,44.6 34.4,60.8 1.9,60.8 1.9,107.5 
		10.9,107.5 	"/>
	<polygon fill="#D3D3D3" points="321.3,78.6 321.3,51.7 367.4,51.7 367.6,44.7 369.5,44.8 369.2,53.6 323.2,53.6 323.2,76.6 
		332.9,76.4 333,78.3 	"/>
	<rect x="74" y="115.2" fill="#E89D23" width="1.9" height="20.3"/>
	<g>
		<g>
			<path d="M64.9,108.5c0,0.5-0.2,0.8-0.5,1.1s-0.8,0.4-1.3,0.4h-0.7v2H62v-4.8h1.2C64.3,107.1,64.9,107.6,64.9,108.5z M62.4,109.6
				H63c0.5,0,0.9-0.1,1.2-0.3s0.4-0.5,0.4-0.9c0-0.4-0.1-0.6-0.3-0.8c-0.2-0.2-0.6-0.3-1.1-0.3h-0.8V109.6z"/>
			<path d="M67.3,108.3c0.2,0,0.3,0,0.5,0l-0.1,0.3c-0.1,0-0.3-0.1-0.5-0.1c-0.3,0-0.6,0.1-0.7,0.4c-0.2,0.3-0.3,0.6-0.3,1v2h-0.3
				v-3.6h0.3l0,0.6h0c0.1-0.3,0.3-0.4,0.5-0.6C66.8,108.3,67,108.3,67.3,108.3z"/>
			<path d="M71.4,110.1c0,0.6-0.1,1-0.4,1.4c-0.3,0.3-0.7,0.5-1.2,0.5c-0.3,0-0.6-0.1-0.8-0.2c-0.2-0.2-0.4-0.4-0.5-0.6
				s-0.2-0.6-0.2-1c0-0.6,0.1-1,0.4-1.4s0.7-0.5,1.2-0.5c0.5,0,0.9,0.2,1.1,0.5C71.3,109.1,71.4,109.5,71.4,110.1z M68.6,110.1
				c0,0.5,0.1,0.9,0.3,1.1s0.5,0.4,0.9,0.4s0.7-0.1,0.9-0.4s0.3-0.7,0.3-1.1c0-0.5-0.1-0.9-0.3-1.1c-0.2-0.3-0.5-0.4-0.9-0.4
				c-0.4,0-0.7,0.1-0.9,0.4C68.7,109.2,68.6,109.6,68.6,110.1z"/>
			<path d="M73.7,108.3c0.3,0,0.5,0,0.7,0.1s0.4,0.3,0.5,0.5h0c0-0.3,0-0.5,0-0.8v-1.3h0.3v5.1H75l-0.1-0.5h0
				c-0.3,0.4-0.7,0.6-1.2,0.6c-0.5,0-0.9-0.2-1.1-0.5c-0.3-0.3-0.4-0.8-0.4-1.3c0-0.6,0.1-1.1,0.4-1.4
				C72.8,108.4,73.2,108.3,73.7,108.3z M73.7,108.6c-0.4,0-0.7,0.1-0.9,0.4c-0.2,0.3-0.3,0.7-0.3,1.2c0,1,0.4,1.5,1.2,1.5
				c0.4,0,0.7-0.1,0.9-0.3c0.2-0.2,0.3-0.6,0.3-1.2v-0.1c0-0.5-0.1-0.9-0.3-1.2C74.4,108.7,74.1,108.6,73.7,108.6z"/>
			<path d="M76.7,108.3v2.3c0,0.4,0.1,0.6,0.2,0.8s0.4,0.2,0.7,0.2c0.4,0,0.7-0.1,0.9-0.3c0.2-0.2,0.3-0.6,0.3-1v-2h0.3v3.6h-0.3
				l-0.1-0.5h0c-0.2,0.4-0.6,0.6-1.2,0.6c-0.8,0-1.2-0.4-1.2-1.3v-2.3H76.7z"/>
			<path d="M81.8,111.9c-0.5,0-0.9-0.2-1.2-0.5s-0.4-0.8-0.4-1.3c0-0.6,0.1-1,0.4-1.4c0.3-0.3,0.7-0.5,1.2-0.5
				c0.3,0,0.6,0.1,0.9,0.2l-0.1,0.3c-0.3-0.1-0.6-0.2-0.8-0.2c-0.4,0-0.8,0.1-1,0.4s-0.3,0.7-0.3,1.2c0,0.5,0.1,0.9,0.3,1.1
				s0.5,0.4,0.9,0.4c0.3,0,0.6-0.1,0.9-0.2v0.3C82.4,111.9,82.1,111.9,81.8,111.9z"/>
			<path d="M84.5,111.7c0.2,0,0.4,0,0.5-0.1v0.3c-0.2,0.1-0.3,0.1-0.5,0.1c-0.3,0-0.5-0.1-0.7-0.3s-0.2-0.4-0.2-0.8v-2.3H83v-0.2
				l0.5-0.1l0.2-0.8h0.2v0.9h1v0.3h-1v2.2c0,0.3,0,0.5,0.1,0.6C84.1,111.6,84.2,111.7,84.5,111.7z"/>
			<path d="M88,111c0,0.3-0.1,0.6-0.4,0.7c-0.2,0.2-0.6,0.3-1,0.3c-0.5,0-0.9-0.1-1.1-0.2v-0.4c0.4,0.2,0.7,0.3,1.1,0.3
				c0.4,0,0.6-0.1,0.8-0.2s0.3-0.3,0.3-0.5c0-0.2-0.1-0.3-0.2-0.5c-0.1-0.1-0.4-0.2-0.7-0.4c-0.4-0.1-0.6-0.2-0.7-0.3
				c-0.1-0.1-0.3-0.2-0.3-0.3c-0.1-0.1-0.1-0.3-0.1-0.4c0-0.3,0.1-0.5,0.3-0.6c0.2-0.2,0.5-0.2,0.9-0.2c0.4,0,0.7,0.1,1.1,0.2
				l-0.1,0.3c-0.3-0.1-0.7-0.2-1-0.2c-0.3,0-0.5,0-0.7,0.1c-0.2,0.1-0.3,0.2-0.3,0.4c0,0.2,0.1,0.3,0.2,0.4c0.1,0.1,0.4,0.2,0.8,0.4
				c0.3,0.1,0.6,0.2,0.7,0.3c0.1,0.1,0.3,0.2,0.3,0.3C87.9,110.7,88,110.8,88,111z"/>
		</g>
	</g>
	<g>
		<g>
			<path d="M155.5,68.4v-4.8h0.3v4.5h2.3v0.3H155.5z"/>
			<path d="M161.8,66.7c0,0.6-0.1,1-0.4,1.4c-0.3,0.3-0.7,0.5-1.2,0.5c-0.3,0-0.6-0.1-0.8-0.2c-0.2-0.2-0.4-0.4-0.5-0.6
				s-0.2-0.6-0.2-1c0-0.6,0.1-1,0.4-1.4c0.3-0.3,0.7-0.5,1.2-0.5c0.5,0,0.9,0.2,1.1,0.5C161.7,65.6,161.8,66.1,161.8,66.7z
				 M159,66.7c0,0.5,0.1,0.9,0.3,1.1c0.2,0.3,0.5,0.4,0.9,0.4s0.7-0.1,0.9-0.4c0.2-0.3,0.3-0.7,0.3-1.1c0-0.5-0.1-0.9-0.3-1.1
				c-0.2-0.3-0.5-0.4-0.9-0.4c-0.4,0-0.7,0.1-0.9,0.4C159.1,65.8,159,66.2,159,66.7z"/>
			<path d="M162.2,64.9h0.3l0.8,2c0.2,0.6,0.4,1,0.4,1.2h0c0.1-0.3,0.2-0.7,0.4-1.3l0.8-2h0.3l-1.6,4.1c-0.1,0.3-0.2,0.6-0.3,0.7
				c-0.1,0.1-0.2,0.2-0.3,0.3c-0.1,0.1-0.3,0.1-0.4,0.1c-0.1,0-0.3,0-0.4-0.1v-0.3c0.1,0,0.3,0.1,0.4,0.1c0.1,0,0.2,0,0.3-0.1
				c0.1-0.1,0.2-0.1,0.2-0.2c0.1-0.1,0.1-0.3,0.2-0.5c0.1-0.2,0.1-0.4,0.2-0.5L162.2,64.9z"/>
			<path d="M168,68.4l-0.1-0.6h0c-0.2,0.2-0.4,0.4-0.6,0.5s-0.4,0.1-0.7,0.1c-0.3,0-0.6-0.1-0.8-0.3c-0.2-0.2-0.3-0.4-0.3-0.7
				c0-0.3,0.1-0.6,0.4-0.8c0.3-0.2,0.7-0.3,1.3-0.3l0.7,0v-0.2c0-0.3-0.1-0.6-0.2-0.8c-0.1-0.2-0.4-0.3-0.7-0.3
				c-0.3,0-0.7,0.1-1,0.3l-0.1-0.3c0.4-0.2,0.8-0.3,1.2-0.3c0.4,0,0.7,0.1,0.9,0.3s0.3,0.5,0.3,0.9v2.4H168z M166.7,68.2
				c0.4,0,0.7-0.1,0.9-0.3c0.2-0.2,0.3-0.5,0.3-0.9v-0.4l-0.6,0c-0.5,0-0.9,0.1-1.1,0.2c-0.2,0.1-0.3,0.3-0.3,0.6
				c0,0.2,0.1,0.4,0.2,0.5C166.3,68.2,166.5,68.2,166.7,68.2z"/>
			<path d="M169.7,68.4h-0.3v-5.1h0.3V68.4z"/>
			<path d="M171.9,68.2c0.2,0,0.4,0,0.5-0.1v0.3c-0.2,0.1-0.3,0.1-0.5,0.1c-0.3,0-0.5-0.1-0.7-0.3s-0.2-0.4-0.2-0.8v-2.3h-0.5V65
				l0.5-0.1l0.2-0.8h0.2v0.9h1v0.3h-1v2.2c0,0.3,0,0.5,0.1,0.6C171.5,68.2,171.7,68.2,171.9,68.2z"/>
			<path d="M172.6,64.9h0.3l0.8,2c0.2,0.6,0.4,1,0.4,1.2h0c0.1-0.3,0.2-0.7,0.4-1.3l0.8-2h0.3l-1.6,4.1c-0.1,0.3-0.2,0.6-0.3,0.7
				c-0.1,0.1-0.2,0.2-0.3,0.3c-0.1,0.1-0.3,0.1-0.4,0.1c-0.1,0-0.3,0-0.4-0.1v-0.3c0.1,0,0.3,0.1,0.4,0.1c0.1,0,0.2,0,0.3-0.1
				c0.1-0.1,0.2-0.1,0.2-0.2c0.1-0.1,0.1-0.3,0.2-0.5c0.1-0.2,0.1-0.4,0.2-0.5L172.6,64.9z"/>
			<path d="M156.7,73.1c0,0.5-0.2,0.8-0.5,1.1s-0.8,0.4-1.3,0.4h-0.7v2h-0.3v-4.8h1.2C156.1,71.7,156.7,72.2,156.7,73.1z
				 M154.1,74.2h0.7c0.5,0,0.9-0.1,1.2-0.3s0.4-0.5,0.4-0.9c0-0.4-0.1-0.6-0.3-0.8c-0.2-0.2-0.6-0.3-1.1-0.3h-0.8V74.2z"/>
			<path d="M159,72.9c0.2,0,0.3,0,0.5,0l-0.1,0.3c-0.1,0-0.3-0.1-0.5-0.1c-0.3,0-0.6,0.1-0.7,0.4c-0.2,0.3-0.3,0.6-0.3,1v2h-0.3
				v-3.6h0.3l0,0.6h0c0.1-0.3,0.3-0.4,0.5-0.6C158.6,72.9,158.8,72.9,159,72.9z"/>
			<path d="M163.2,74.7c0,0.6-0.1,1-0.4,1.4c-0.3,0.3-0.7,0.5-1.2,0.5c-0.3,0-0.6-0.1-0.8-0.2c-0.2-0.2-0.4-0.4-0.5-0.6
				s-0.2-0.6-0.2-1c0-0.6,0.1-1,0.4-1.4c0.3-0.3,0.7-0.5,1.2-0.5c0.5,0,0.9,0.2,1.1,0.5C163,73.7,163.2,74.1,163.2,74.7z
				 M160.4,74.7c0,0.5,0.1,0.9,0.3,1.1c0.2,0.3,0.5,0.4,0.9,0.4s0.7-0.1,0.9-0.4c0.2-0.3,0.3-0.7,0.3-1.1c0-0.5-0.1-0.9-0.3-1.1
				c-0.2-0.3-0.5-0.4-0.9-0.4c-0.4,0-0.7,0.1-0.9,0.4C160.5,73.8,160.4,74.2,160.4,74.7z"/>
			<path d="M166.9,72.9v0.2l-0.7,0c0.2,0.2,0.3,0.5,0.3,0.8c0,0.3-0.1,0.6-0.3,0.8c-0.2,0.2-0.5,0.3-0.9,0.3c-0.2,0-0.3,0-0.3,0
				c-0.1,0.1-0.2,0.1-0.3,0.2c-0.1,0.1-0.1,0.2-0.1,0.3c0,0.1,0,0.2,0.1,0.2c0.1,0.1,0.2,0.1,0.4,0.1h0.6c0.4,0,0.7,0.1,0.9,0.2
				c0.2,0.2,0.3,0.4,0.3,0.7c0,0.4-0.2,0.7-0.5,0.9c-0.3,0.2-0.7,0.3-1.3,0.3c-0.4,0-0.8-0.1-1-0.3c-0.2-0.2-0.4-0.4-0.4-0.7
				c0-0.2,0.1-0.4,0.2-0.6c0.2-0.2,0.4-0.3,0.6-0.3c-0.1,0-0.2-0.1-0.3-0.2c-0.1-0.1-0.1-0.2-0.1-0.3c0-0.2,0.2-0.4,0.5-0.6
				c-0.2-0.1-0.4-0.2-0.5-0.4c-0.1-0.2-0.2-0.4-0.2-0.6c0-0.4,0.1-0.6,0.3-0.9s0.5-0.3,0.9-0.3c0.2,0,0.4,0,0.5,0.1H166.9z
				 M164,77.1c0,0.5,0.4,0.7,1.1,0.7c0.9,0,1.4-0.3,1.4-0.9c0-0.2-0.1-0.4-0.2-0.5c-0.1-0.1-0.4-0.1-0.7-0.1H165
				C164.4,76.3,164,76.6,164,77.1z M164.3,74c0,0.3,0.1,0.5,0.3,0.6c0.2,0.2,0.4,0.2,0.7,0.2c0.3,0,0.5-0.1,0.7-0.2
				c0.2-0.2,0.2-0.4,0.2-0.7c0-0.3-0.1-0.5-0.2-0.7s-0.4-0.2-0.7-0.2c-0.3,0-0.5,0.1-0.7,0.2C164.4,73.5,164.3,73.7,164.3,74z"/>
			<path d="M169.1,72.9c0.2,0,0.3,0,0.5,0l-0.1,0.3c-0.1,0-0.3-0.1-0.5-0.1c-0.3,0-0.6,0.1-0.7,0.4c-0.2,0.3-0.3,0.6-0.3,1v2h-0.3
				v-3.6h0.3l0,0.6h0c0.1-0.3,0.3-0.4,0.5-0.6C168.6,72.9,168.8,72.9,169.1,72.9z"/>
			<path d="M172.4,76.5l-0.1-0.6h0c-0.2,0.2-0.4,0.4-0.6,0.5s-0.4,0.1-0.7,0.1c-0.3,0-0.6-0.1-0.8-0.3c-0.2-0.2-0.3-0.4-0.3-0.7
				c0-0.3,0.1-0.6,0.4-0.8c0.3-0.2,0.7-0.3,1.3-0.3l0.7,0v-0.2c0-0.3-0.1-0.6-0.2-0.8c-0.1-0.2-0.4-0.3-0.7-0.3
				c-0.3,0-0.7,0.1-1,0.3l-0.1-0.3c0.4-0.2,0.8-0.3,1.2-0.3c0.4,0,0.7,0.1,0.9,0.3s0.3,0.5,0.3,0.9v2.4H172.4z M171.1,76.3
				c0.4,0,0.7-0.1,0.9-0.3c0.2-0.2,0.3-0.5,0.3-0.9v-0.4l-0.6,0c-0.5,0-0.9,0.1-1.1,0.2c-0.2,0.1-0.3,0.3-0.3,0.6
				c0,0.2,0.1,0.4,0.2,0.5C170.7,76.2,170.9,76.3,171.1,76.3z"/>
			<path d="M178.2,76.5v-2.3c0-0.3-0.1-0.6-0.2-0.8s-0.3-0.2-0.6-0.2c-0.4,0-0.6,0.1-0.8,0.3c-0.2,0.2-0.3,0.5-0.3,0.9v2.1H176v-2.4
				c0-0.6-0.3-0.9-0.8-0.9c-0.4,0-0.6,0.1-0.8,0.3c-0.2,0.2-0.3,0.6-0.3,1v2h-0.3v-3.6h0.3l0.1,0.5h0c0.1-0.2,0.2-0.3,0.4-0.4
				c0.2-0.1,0.4-0.1,0.6-0.1c0.6,0,0.9,0.2,1.1,0.6h0c0.1-0.2,0.3-0.4,0.5-0.5c0.2-0.1,0.4-0.2,0.7-0.2c0.4,0,0.7,0.1,0.9,0.3
				c0.2,0.2,0.3,0.5,0.3,1v2.3H178.2z"/>
		</g>
	</g>
	<g>
		<g>
			<path d="M66.2,139c0,0.5-0.2,0.8-0.5,1.1s-0.8,0.4-1.3,0.4h-0.7v2h-0.3v-4.8h1.2C65.6,137.7,66.2,138.1,66.2,139z M63.7,140.2
				h0.7c0.5,0,0.9-0.1,1.2-0.3s0.4-0.5,0.4-0.9c0-0.4-0.1-0.6-0.3-0.8c-0.2-0.2-0.6-0.3-1.1-0.3h-0.8V140.2z"/>
			<path d="M68.6,138.8c0.2,0,0.3,0,0.5,0l-0.1,0.3c-0.1,0-0.3-0.1-0.5-0.1c-0.3,0-0.6,0.1-0.7,0.4c-0.2,0.3-0.3,0.6-0.3,1v2h-0.3
				v-3.6h0.3l0,0.6h0c0.1-0.3,0.3-0.4,0.5-0.6S68.3,138.8,68.6,138.8z"/>
			<path d="M72.7,140.7c0,0.6-0.1,1-0.4,1.4s-0.7,0.5-1.2,0.5c-0.3,0-0.6-0.1-0.8-0.2c-0.2-0.2-0.4-0.4-0.5-0.6s-0.2-0.6-0.2-1
				c0-0.6,0.1-1,0.4-1.4c0.3-0.3,0.7-0.5,1.2-0.5c0.5,0,0.9,0.2,1.1,0.5C72.6,139.7,72.7,140.1,72.7,140.7z M69.9,140.7
				c0,0.5,0.1,0.9,0.3,1.1c0.2,0.3,0.5,0.4,0.9,0.4s0.7-0.1,0.9-0.4c0.2-0.3,0.3-0.7,0.3-1.1c0-0.5-0.1-0.9-0.3-1.1
				c-0.2-0.3-0.5-0.4-0.9-0.4c-0.4,0-0.7,0.1-0.9,0.4C70,139.8,69.9,140.2,69.9,140.7z"/>
			<path d="M75,138.8c0.3,0,0.5,0,0.7,0.1s0.4,0.3,0.5,0.5h0c0-0.3,0-0.5,0-0.8v-1.3h0.3v5.1h-0.2l-0.1-0.5h0
				c-0.3,0.4-0.7,0.6-1.2,0.6c-0.5,0-0.9-0.2-1.1-0.5c-0.3-0.3-0.4-0.8-0.4-1.3c0-0.6,0.1-1.1,0.4-1.4C74.1,139,74.5,138.8,75,138.8
				z M75,139.1c-0.4,0-0.7,0.1-0.9,0.4c-0.2,0.3-0.3,0.7-0.3,1.2c0,1,0.4,1.5,1.2,1.5c0.4,0,0.7-0.1,0.9-0.3
				c0.2-0.2,0.3-0.6,0.3-1.2v-0.1c0-0.5-0.1-0.9-0.3-1.2C75.7,139.2,75.4,139.1,75,139.1z"/>
			<path d="M78,138.9v2.3c0,0.4,0.1,0.6,0.2,0.8s0.4,0.2,0.7,0.2c0.4,0,0.7-0.1,0.9-0.3c0.2-0.2,0.3-0.6,0.3-1v-2h0.3v3.6h-0.3
				l-0.1-0.5h0c-0.2,0.4-0.6,0.6-1.2,0.6c-0.8,0-1.2-0.4-1.2-1.3v-2.3H78z"/>
			<path d="M83,142.5c-0.5,0-0.9-0.2-1.2-0.5s-0.4-0.8-0.4-1.3c0-0.6,0.1-1,0.4-1.4c0.3-0.3,0.7-0.5,1.2-0.5c0.3,0,0.6,0.1,0.9,0.2
				l-0.1,0.3c-0.3-0.1-0.6-0.2-0.8-0.2c-0.4,0-0.8,0.1-1,0.4s-0.3,0.7-0.3,1.2c0,0.5,0.1,0.9,0.3,1.1s0.5,0.4,0.9,0.4
				c0.3,0,0.6-0.1,0.9-0.2v0.3C83.7,142.5,83.4,142.5,83,142.5z"/>
			<path d="M85.7,142.2c0.2,0,0.4,0,0.5-0.1v0.3c-0.2,0.1-0.3,0.1-0.5,0.1c-0.3,0-0.5-0.1-0.7-0.3s-0.2-0.4-0.2-0.8v-2.3h-0.5V139
				l0.5-0.1L85,138h0.2v0.9h1v0.3h-1v2.2c0,0.3,0,0.5,0.1,0.6C85.4,142.2,85.5,142.2,85.7,142.2z"/>
			<path d="M70.2,148.1c0,0.8-0.2,1.4-0.6,1.8c-0.4,0.4-1,0.6-1.9,0.6h-1.1v-4.8h1.3c0.8,0,1.3,0.2,1.7,0.6
				C70,146.7,70.2,147.3,70.2,148.1z M69.9,148.1c0-0.7-0.2-1.2-0.5-1.5s-0.9-0.5-1.5-0.5h-0.9v4.2h0.8
				C69.2,150.2,69.9,149.5,69.9,148.1z"/>
			<path d="M72.7,150.6c-0.5,0-0.9-0.2-1.2-0.5c-0.3-0.3-0.4-0.8-0.4-1.3c0-0.6,0.1-1,0.4-1.4c0.3-0.3,0.7-0.5,1.1-0.5
				c0.4,0,0.7,0.1,1,0.4c0.2,0.3,0.4,0.7,0.4,1.2v0.3h-2.6c0,0.5,0.1,0.9,0.3,1.1c0.2,0.3,0.5,0.4,1,0.4c0.2,0,0.4,0,0.5,0
				c0.2,0,0.3-0.1,0.6-0.2v0.3c-0.2,0.1-0.4,0.1-0.6,0.2C73.1,150.5,72.9,150.6,72.7,150.6z M72.6,147.2c-0.3,0-0.6,0.1-0.8,0.3
				c-0.2,0.2-0.3,0.6-0.4,1h2.2c0-0.4-0.1-0.7-0.3-1S72.9,147.2,72.6,147.2z"/>
			<path d="M75.9,150.3c0.2,0,0.4,0,0.5-0.1v0.3c-0.2,0.1-0.3,0.1-0.5,0.1c-0.3,0-0.5-0.1-0.7-0.3s-0.2-0.4-0.2-0.8v-2.3h-0.5V147
				l0.5-0.1l0.2-0.8h0.2v0.9h1v0.3h-1v2.2c0,0.3,0,0.5,0.1,0.6C75.5,150.2,75.7,150.3,75.9,150.3z"/>
			<path d="M79.3,150.5l-0.1-0.6h0c-0.2,0.2-0.4,0.4-0.6,0.5c-0.2,0.1-0.4,0.1-0.7,0.1c-0.3,0-0.6-0.1-0.8-0.3
				c-0.2-0.2-0.3-0.4-0.3-0.7c0-0.3,0.1-0.6,0.4-0.8c0.3-0.2,0.7-0.3,1.3-0.3l0.7,0v-0.2c0-0.3-0.1-0.6-0.2-0.8s-0.4-0.3-0.7-0.3
				c-0.3,0-0.7,0.1-1,0.3l-0.1-0.3c0.4-0.2,0.8-0.3,1.2-0.3c0.4,0,0.7,0.1,0.9,0.3s0.3,0.5,0.3,0.9v2.4H79.3z M78,150.3
				c0.4,0,0.7-0.1,0.9-0.3c0.2-0.2,0.3-0.5,0.3-0.9v-0.4l-0.6,0c-0.5,0-0.9,0.1-1.1,0.2c-0.2,0.1-0.3,0.3-0.3,0.6
				c0,0.2,0.1,0.4,0.2,0.5C77.6,150.2,77.8,150.3,78,150.3z"/>
			<path d="M80.7,146c0-0.2,0.1-0.3,0.2-0.3c0.1,0,0.1,0,0.2,0.1s0.1,0.1,0.1,0.2c0,0.1,0,0.2-0.1,0.2s-0.1,0.1-0.2,0.1
				C80.7,146.3,80.7,146.2,80.7,146z M81,150.5h-0.3v-3.6H81V150.5z"/>
			<path d="M82.6,150.5h-0.3v-5.1h0.3V150.5z"/>
		</g>
	</g>
	<g>
		<g>
			<path fill="#49494A" d="M119.4,41.4h-0.7v-4.2h2.4v0.6h-1.7v1.3h1.6v0.6h-1.6V41.4z"/>
			<path fill="#49494A" d="M124.5,41.4l-0.4-1.2h-1.6l-0.4,1.2h-0.7l1.6-4.2h0.8l1.6,4.2H124.5z M123.9,39.6l-0.4-1.1
				c0-0.1-0.1-0.2-0.1-0.4c-0.1-0.2-0.1-0.3-0.1-0.4c-0.1,0.2-0.1,0.5-0.2,0.8l-0.4,1.1H123.9z"/>
			<path fill="#49494A" d="M129.6,39.3c0,0.5-0.1,0.9-0.3,1.3c-0.2,0.3-0.5,0.6-0.9,0.7l1,1.1h-0.9l-0.8-0.9h-0.1
				c-0.6,0-1.1-0.2-1.5-0.6c-0.3-0.4-0.5-0.9-0.5-1.6s0.2-1.2,0.5-1.6s0.8-0.6,1.5-0.6c0.6,0,1.1,0.2,1.5,0.6
				C129.4,38.1,129.6,38.6,129.6,39.3z M126.3,39.3c0,0.5,0.1,0.9,0.3,1.2s0.5,0.4,0.9,0.4c0.4,0,0.7-0.1,0.9-0.4
				c0.2-0.3,0.3-0.7,0.3-1.2c0-0.5-0.1-0.9-0.3-1.2c-0.2-0.3-0.5-0.4-0.9-0.4c-0.4,0-0.7,0.1-0.9,0.4S126.3,38.8,126.3,39.3z"/>
		</g>
	</g>
	
		<rect x="345.8" y="91.4" transform="matrix(4.253331e-03 1 -1 4.253331e-03 445.0959 -262.2881)" fill="#E89D23" width="17" height="1.9"/>
	
		<rect x="346.9" y="126" transform="matrix(4.749356e-03 1 -1 4.749356e-03 479.9866 -228.3831)" fill="#E89D23" width="15.6" height="1.9"/>
	<g>
		<g>
			<path d="M231.6,67.5v2.1h-0.3v-4.8h1.1c0.6,0,1,0.1,1.3,0.3c0.3,0.2,0.4,0.5,0.4,1c0,0.3-0.1,0.6-0.3,0.8
				c-0.2,0.2-0.4,0.4-0.8,0.5l1.3,2.2H234l-1.2-2.1H231.6z M231.6,67.2h0.9c0.4,0,0.7-0.1,0.9-0.3s0.3-0.4,0.3-0.8
				c0-0.4-0.1-0.6-0.3-0.8c-0.2-0.2-0.6-0.2-1.1-0.2h-0.8V67.2z"/>
			<path d="M236.6,69.6c-0.5,0-0.9-0.2-1.2-0.5s-0.4-0.8-0.4-1.3c0-0.6,0.1-1,0.4-1.4s0.7-0.5,1.1-0.5c0.4,0,0.7,0.1,1,0.4
				s0.4,0.7,0.4,1.2v0.3h-2.6c0,0.5,0.1,0.9,0.3,1.1c0.2,0.3,0.5,0.4,1,0.4c0.2,0,0.4,0,0.5,0c0.2,0,0.3-0.1,0.6-0.2v0.3
				c-0.2,0.1-0.4,0.1-0.6,0.2C237,69.6,236.8,69.6,236.6,69.6z M236.5,66.2c-0.3,0-0.6,0.1-0.8,0.3c-0.2,0.2-0.3,0.6-0.4,1h2.2
				c0-0.4-0.1-0.7-0.3-1S236.8,66.2,236.5,66.2z"/>
			<path d="M241.1,68.6c0,0.3-0.1,0.6-0.4,0.7c-0.2,0.2-0.6,0.3-1,0.3c-0.5,0-0.9-0.1-1.1-0.2v-0.4c0.4,0.2,0.7,0.3,1.1,0.3
				c0.4,0,0.6-0.1,0.8-0.2c0.2-0.1,0.3-0.3,0.3-0.5c0-0.2-0.1-0.3-0.2-0.5c-0.1-0.1-0.4-0.2-0.7-0.4c-0.4-0.1-0.6-0.2-0.7-0.3
				c-0.1-0.1-0.3-0.2-0.3-0.3s-0.1-0.3-0.1-0.4c0-0.3,0.1-0.5,0.3-0.6c0.2-0.2,0.5-0.2,0.9-0.2c0.4,0,0.7,0.1,1.1,0.2l-0.1,0.3
				c-0.3-0.1-0.7-0.2-1-0.2c-0.3,0-0.5,0-0.7,0.1c-0.2,0.1-0.3,0.2-0.3,0.4c0,0.2,0.1,0.3,0.2,0.4c0.1,0.1,0.4,0.2,0.8,0.4
				c0.3,0.1,0.6,0.2,0.7,0.3c0.1,0.1,0.3,0.2,0.3,0.3C241,68.3,241.1,68.5,241.1,68.6z"/>
			<path d="M242.3,66v2.3c0,0.4,0.1,0.6,0.2,0.8s0.4,0.2,0.7,0.2c0.4,0,0.7-0.1,0.9-0.3c0.2-0.2,0.3-0.6,0.3-1v-2h0.3v3.6h-0.3
				l-0.1-0.5h0c-0.2,0.4-0.6,0.6-1.2,0.6c-0.8,0-1.2-0.4-1.2-1.3V66H242.3z"/>
			<path d="M246.2,69.6h-0.3v-5.1h0.3V69.6z"/>
			<path d="M248.4,69.3c0.2,0,0.4,0,0.5-0.1v0.3c-0.2,0.1-0.3,0.1-0.5,0.1c-0.3,0-0.5-0.1-0.7-0.3s-0.2-0.4-0.2-0.8v-2.3h-0.5v-0.2
				l0.5-0.1l0.2-0.8h0.2V66h1v0.3h-1v2.2c0,0.3,0,0.5,0.1,0.6C248,69.3,248.2,69.3,248.4,69.3z"/>
			<path d="M251.9,68.6c0,0.3-0.1,0.6-0.4,0.7c-0.2,0.2-0.6,0.3-1,0.3c-0.5,0-0.9-0.1-1.1-0.2v-0.4c0.4,0.2,0.7,0.3,1.1,0.3
				c0.4,0,0.6-0.1,0.8-0.2c0.2-0.1,0.3-0.3,0.3-0.5c0-0.2-0.1-0.3-0.2-0.5c-0.1-0.1-0.4-0.2-0.7-0.4c-0.4-0.1-0.6-0.2-0.7-0.3
				c-0.1-0.1-0.3-0.2-0.3-0.3s-0.1-0.3-0.1-0.4c0-0.3,0.1-0.5,0.3-0.6c0.2-0.2,0.5-0.2,0.9-0.2c0.4,0,0.7,0.1,1.1,0.2l-0.1,0.3
				c-0.3-0.1-0.7-0.2-1-0.2c-0.3,0-0.5,0-0.7,0.1c-0.2,0.1-0.3,0.2-0.3,0.4c0,0.2,0.1,0.3,0.2,0.4c0.1,0.1,0.4,0.2,0.8,0.4
				c0.3,0.1,0.6,0.2,0.7,0.3c0.1,0.1,0.3,0.2,0.3,0.3C251.8,68.3,251.9,68.5,251.9,68.6z"/>
		</g>
	</g>
	<g>
		<g>
			<path d="M277.8,61.3c0,0.5-0.2,0.8-0.5,1.1c-0.3,0.2-0.8,0.4-1.3,0.4h-0.7v2h-0.3V60h1.2C277.2,60,277.8,60.4,277.8,61.3z
				 M275.2,62.5h0.7c0.5,0,0.9-0.1,1.2-0.3s0.4-0.5,0.4-0.9c0-0.4-0.1-0.6-0.3-0.8s-0.6-0.3-1.1-0.3h-0.8V62.5z"/>
			<path d="M280.9,64.7l-0.1-0.6h0c-0.2,0.2-0.4,0.4-0.6,0.5s-0.4,0.1-0.7,0.1c-0.3,0-0.6-0.1-0.8-0.3s-0.3-0.4-0.3-0.7
				c0-0.3,0.1-0.6,0.4-0.8c0.3-0.2,0.7-0.3,1.3-0.3l0.7,0v-0.2c0-0.3-0.1-0.6-0.2-0.8c-0.1-0.2-0.4-0.3-0.7-0.3
				c-0.3,0-0.7,0.1-1,0.3l-0.1-0.3c0.4-0.2,0.8-0.3,1.2-0.3c0.4,0,0.7,0.1,0.9,0.3c0.2,0.2,0.3,0.5,0.3,0.9v2.4H280.9z M279.6,64.5
				c0.4,0,0.7-0.1,0.9-0.3c0.2-0.2,0.3-0.5,0.3-0.9v-0.4l-0.6,0c-0.5,0-0.9,0.1-1.1,0.2c-0.2,0.1-0.3,0.3-0.3,0.6
				c0,0.2,0.1,0.4,0.2,0.5C279.1,64.5,279.3,64.5,279.6,64.5z"/>
			<path d="M284.5,63.8c0,0.3-0.1,0.6-0.4,0.7c-0.2,0.2-0.6,0.3-1,0.3c-0.5,0-0.9-0.1-1.1-0.2v-0.4c0.4,0.2,0.7,0.3,1.1,0.3
				c0.4,0,0.6-0.1,0.8-0.2c0.2-0.1,0.3-0.3,0.3-0.5c0-0.2-0.1-0.3-0.2-0.5c-0.1-0.1-0.4-0.2-0.7-0.4c-0.4-0.1-0.6-0.2-0.7-0.3
				c-0.1-0.1-0.3-0.2-0.3-0.3S282,62.2,282,62c0-0.3,0.1-0.5,0.3-0.6c0.2-0.2,0.5-0.2,0.9-0.2c0.4,0,0.7,0.1,1.1,0.2l-0.1,0.3
				c-0.3-0.1-0.7-0.2-1-0.2c-0.3,0-0.5,0-0.7,0.1c-0.2,0.1-0.3,0.2-0.3,0.4c0,0.2,0.1,0.3,0.2,0.4c0.1,0.1,0.4,0.2,0.8,0.4
				c0.3,0.1,0.6,0.2,0.7,0.3c0.1,0.1,0.3,0.2,0.3,0.3C284.4,63.5,284.5,63.7,284.5,63.8z"/>
			<path d="M286.3,64.5c0.2,0,0.4,0,0.5-0.1v0.3c-0.2,0.1-0.3,0.1-0.5,0.1c-0.3,0-0.5-0.1-0.7-0.3s-0.2-0.4-0.2-0.8v-2.3h-0.5v-0.2
				l0.5-0.1l0.2-0.8h0.2v0.9h1v0.3h-1v2.2c0,0.3,0,0.5,0.1,0.6C286,64.5,286.1,64.5,286.3,64.5z"/>
			<path d="M292.3,63c0,0.6-0.1,1-0.4,1.4c-0.3,0.3-0.7,0.5-1.2,0.5c-0.3,0-0.6-0.1-0.8-0.2s-0.4-0.4-0.5-0.6
				c-0.1-0.3-0.2-0.6-0.2-1c0-0.6,0.1-1,0.4-1.4c0.3-0.3,0.7-0.5,1.2-0.5c0.5,0,0.9,0.2,1.1,0.5C292.2,61.9,292.3,62.4,292.3,63z
				 M289.5,63c0,0.5,0.1,0.9,0.3,1.1c0.2,0.3,0.5,0.4,0.9,0.4s0.7-0.1,0.9-0.4c0.2-0.3,0.3-0.7,0.3-1.1c0-0.5-0.1-0.9-0.3-1.1
				c-0.2-0.3-0.5-0.4-0.9-0.4c-0.4,0-0.7,0.1-0.9,0.4C289.6,62.1,289.5,62.5,289.5,63z"/>
			<path d="M294.7,61.1c0.2,0,0.3,0,0.5,0l-0.1,0.3c-0.1,0-0.3-0.1-0.5-0.1c-0.3,0-0.6,0.1-0.7,0.4c-0.2,0.3-0.3,0.6-0.3,1v2h-0.3
				v-3.6h0.3l0,0.6h0c0.1-0.3,0.3-0.4,0.5-0.6C294.3,61.2,294.5,61.1,294.7,61.1z"/>
			<path d="M297.2,61.1c0.3,0,0.5,0,0.7,0.1s0.4,0.3,0.5,0.5h0c0-0.3,0-0.5,0-0.8v-1.3h0.3v5.1h-0.2l-0.1-0.5h0
				c-0.3,0.4-0.7,0.6-1.2,0.6c-0.5,0-0.9-0.2-1.1-0.5c-0.3-0.3-0.4-0.7-0.4-1.3c0-0.6,0.1-1.1,0.4-1.4
				C296.3,61.3,296.7,61.1,297.2,61.1z M297.2,61.4c-0.4,0-0.7,0.1-0.9,0.4c-0.2,0.3-0.3,0.7-0.3,1.2c0,1,0.4,1.5,1.2,1.5
				c0.4,0,0.7-0.1,0.9-0.3c0.2-0.2,0.3-0.6,0.3-1.2V63c0-0.5-0.1-0.9-0.3-1.2C297.9,61.5,297.6,61.4,297.2,61.4z"/>
			<path d="M301.3,64.8c-0.5,0-0.9-0.2-1.2-0.5s-0.4-0.8-0.4-1.3c0-0.6,0.1-1,0.4-1.4s0.7-0.5,1.1-0.5c0.4,0,0.7,0.1,1,0.4
				s0.4,0.7,0.4,1.2V63H300c0,0.5,0.1,0.9,0.3,1.1c0.2,0.3,0.5,0.4,1,0.4c0.2,0,0.4,0,0.5,0c0.2,0,0.3-0.1,0.6-0.2v0.3
				c-0.2,0.1-0.4,0.1-0.6,0.2C301.7,64.8,301.5,64.8,301.3,64.8z M301.2,61.4c-0.3,0-0.6,0.1-0.8,0.3c-0.2,0.2-0.3,0.6-0.4,1h2.2
				c0-0.4-0.1-0.7-0.3-1S301.5,61.4,301.2,61.4z"/>
			<path d="M305,61.1c0.2,0,0.3,0,0.5,0l-0.1,0.3c-0.1,0-0.3-0.1-0.5-0.1c-0.3,0-0.6,0.1-0.7,0.4c-0.2,0.3-0.3,0.6-0.3,1v2h-0.3
				v-3.6h0.3l0,0.6h0c0.1-0.3,0.3-0.4,0.5-0.6C304.5,61.2,304.7,61.1,305,61.1z"/>
			<path d="M308.4,63.8c0,0.3-0.1,0.6-0.4,0.7c-0.2,0.2-0.6,0.3-1,0.3c-0.5,0-0.9-0.1-1.1-0.2v-0.4c0.4,0.2,0.7,0.3,1.1,0.3
				c0.4,0,0.6-0.1,0.8-0.2c0.2-0.1,0.3-0.3,0.3-0.5c0-0.2-0.1-0.3-0.2-0.5c-0.1-0.1-0.4-0.2-0.7-0.4c-0.4-0.1-0.6-0.2-0.7-0.3
				c-0.1-0.1-0.3-0.2-0.3-0.3s-0.1-0.3-0.1-0.4c0-0.3,0.1-0.5,0.3-0.6c0.2-0.2,0.5-0.2,0.9-0.2c0.4,0,0.7,0.1,1.1,0.2l-0.1,0.3
				c-0.3-0.1-0.7-0.2-1-0.2c-0.3,0-0.5,0-0.7,0.1c-0.2,0.1-0.3,0.2-0.3,0.4c0,0.2,0.1,0.3,0.2,0.4c0.1,0.1,0.4,0.2,0.8,0.4
				c0.3,0.1,0.6,0.2,0.7,0.3c0.1,0.1,0.3,0.2,0.3,0.3C308.3,63.5,308.4,63.7,308.4,63.8z"/>
		</g>
	</g>
	<g>
		<g>
			<path d="M274.5,98.1v-4.8h0.3v4.5h2.3v0.3H274.5z"/>
			<path d="M280.8,96.3c0,0.6-0.1,1-0.4,1.4s-0.7,0.5-1.2,0.5c-0.3,0-0.6-0.1-0.8-0.2s-0.4-0.4-0.5-0.6c-0.1-0.3-0.2-0.6-0.2-1
				c0-0.6,0.1-1,0.4-1.4c0.3-0.3,0.7-0.5,1.2-0.5c0.5,0,0.9,0.2,1.1,0.5C280.6,95.3,280.8,95.7,280.8,96.3z M278,96.3
				c0,0.5,0.1,0.9,0.3,1.1c0.2,0.3,0.5,0.4,0.9,0.4s0.7-0.1,0.9-0.4c0.2-0.3,0.3-0.7,0.3-1.1c0-0.5-0.1-0.9-0.3-1.1
				s-0.5-0.4-0.9-0.4c-0.4,0-0.7,0.1-0.9,0.4C278.1,95.4,278,95.8,278,96.3z"/>
			<path d="M281.2,94.5h0.3l0.8,2c0.2,0.6,0.4,1,0.4,1.2h0c0.1-0.3,0.2-0.7,0.4-1.3l0.8-2h0.3l-1.6,4.1c-0.1,0.3-0.2,0.6-0.3,0.7
				c-0.1,0.1-0.2,0.2-0.3,0.3c-0.1,0.1-0.3,0.1-0.4,0.1c-0.1,0-0.3,0-0.4-0.1v-0.3c0.1,0,0.3,0.1,0.4,0.1c0.1,0,0.2,0,0.3-0.1
				s0.2-0.1,0.2-0.2c0.1-0.1,0.1-0.3,0.2-0.5c0.1-0.2,0.1-0.4,0.2-0.5L281.2,94.5z"/>
			<path d="M287,98.1l-0.1-0.6h0c-0.2,0.2-0.4,0.4-0.6,0.5c-0.2,0.1-0.4,0.1-0.7,0.1c-0.3,0-0.6-0.1-0.8-0.3
				c-0.2-0.2-0.3-0.4-0.3-0.7c0-0.3,0.1-0.6,0.4-0.8c0.3-0.2,0.7-0.3,1.3-0.3l0.7,0v-0.2c0-0.3-0.1-0.6-0.2-0.8
				c-0.1-0.2-0.4-0.3-0.7-0.3c-0.3,0-0.7,0.1-1,0.3l-0.1-0.3c0.4-0.2,0.8-0.3,1.2-0.3c0.4,0,0.7,0.1,0.9,0.3
				c0.2,0.2,0.3,0.5,0.3,0.9v2.4H287z M285.7,97.9c0.4,0,0.7-0.1,0.9-0.3s0.3-0.5,0.3-0.9v-0.3l-0.6,0c-0.5,0-0.9,0.1-1.1,0.2
				c-0.2,0.1-0.3,0.3-0.3,0.6c0,0.2,0.1,0.4,0.2,0.5C285.2,97.8,285.4,97.9,285.7,97.9z"/>
			<path d="M288.7,98.1h-0.3V93h0.3V98.1z"/>
			<path d="M290.8,97.9c0.2,0,0.4,0,0.5-0.1v0.3c-0.2,0.1-0.3,0.1-0.5,0.1c-0.3,0-0.5-0.1-0.7-0.3s-0.2-0.4-0.2-0.8v-2.3h-0.5v-0.2
				l0.5-0.1l0.2-0.8h0.2v0.9h1v0.3h-1v2.2c0,0.3,0,0.5,0.1,0.6C290.5,97.8,290.6,97.9,290.8,97.9z"/>
			<path d="M291.5,94.5h0.3l0.8,2c0.2,0.6,0.4,1,0.4,1.2h0c0.1-0.3,0.2-0.7,0.4-1.3l0.8-2h0.3l-1.6,4.1c-0.1,0.3-0.2,0.6-0.3,0.7
				c-0.1,0.1-0.2,0.2-0.3,0.3c-0.1,0.1-0.3,0.1-0.4,0.1c-0.1,0-0.3,0-0.4-0.1v-0.3c0.1,0,0.3,0.1,0.4,0.1c0.1,0,0.2,0,0.3-0.1
				s0.2-0.1,0.2-0.2c0.1-0.1,0.1-0.3,0.2-0.5c0.1-0.2,0.1-0.4,0.2-0.5L291.5,94.5z"/>
		</g>
	</g>
	<g>
		<g>
			<path d="M335.8,78.3v2.1h-0.3v-4.8h1.1c0.6,0,1,0.1,1.3,0.3c0.3,0.2,0.4,0.5,0.4,1c0,0.3-0.1,0.6-0.3,0.8s-0.4,0.4-0.8,0.5
				l1.3,2.2h-0.4l-1.2-2.1H335.8z M335.8,78.1h0.9c0.4,0,0.7-0.1,0.9-0.3s0.3-0.4,0.3-0.8c0-0.4-0.1-0.6-0.3-0.8
				c-0.2-0.2-0.6-0.2-1.1-0.2h-0.8V78.1z"/>
			<path d="M340.8,80.5c-0.5,0-0.9-0.2-1.2-0.5s-0.4-0.8-0.4-1.3c0-0.6,0.1-1,0.4-1.4c0.3-0.3,0.7-0.5,1.1-0.5c0.4,0,0.7,0.1,1,0.4
				c0.2,0.3,0.4,0.7,0.4,1.2v0.3h-2.6c0,0.5,0.1,0.9,0.3,1.1c0.2,0.3,0.5,0.4,1,0.4c0.2,0,0.4,0,0.5,0c0.2,0,0.3-0.1,0.6-0.2v0.3
				c-0.2,0.1-0.4,0.1-0.6,0.2S341,80.5,340.8,80.5z M340.7,77.1c-0.3,0-0.6,0.1-0.8,0.3c-0.2,0.2-0.3,0.6-0.4,1h2.2
				c0-0.4-0.1-0.7-0.3-1S341,77.1,340.7,77.1z"/>
			<path d="M343.8,80.4l-1.4-3.6h0.3l0.9,2.4c0.1,0.3,0.2,0.6,0.3,0.8h0c0.1-0.3,0.2-0.6,0.3-0.8l0.9-2.4h0.3l-1.4,3.6H343.8z"/>
			<path d="M346.1,75.9c0-0.2,0.1-0.3,0.2-0.3c0.1,0,0.1,0,0.2,0.1c0,0.1,0.1,0.1,0.1,0.2c0,0.1,0,0.2-0.1,0.2s-0.1,0.1-0.2,0.1
				C346.1,76.2,346.1,76.1,346.1,75.9z M346.4,80.4h-0.3v-3.6h0.3V80.4z"/>
			<path d="M349,80.5c-0.5,0-0.9-0.2-1.2-0.5s-0.4-0.8-0.4-1.3c0-0.6,0.1-1,0.4-1.4c0.3-0.3,0.7-0.5,1.1-0.5c0.4,0,0.7,0.1,1,0.4
				c0.2,0.3,0.4,0.7,0.4,1.2v0.3h-2.6c0,0.5,0.1,0.9,0.3,1.1c0.2,0.3,0.5,0.4,1,0.4c0.2,0,0.4,0,0.5,0c0.2,0,0.3-0.1,0.6-0.2v0.3
				c-0.2,0.1-0.4,0.1-0.6,0.2S349.3,80.5,349,80.5z M349,77.1c-0.3,0-0.6,0.1-0.8,0.3c-0.2,0.2-0.3,0.6-0.4,1h2.2
				c0-0.4-0.1-0.7-0.3-1S349.3,77.1,349,77.1z"/>
			<path d="M354.1,80.4l-0.8-2.4c0-0.2-0.1-0.4-0.2-0.7h0l-0.1,0.2l-0.1,0.5l-0.8,2.4h-0.3l-1-3.6h0.3l0.6,2.1
				c0.1,0.5,0.2,0.9,0.3,1.1h0c0.1-0.5,0.2-0.8,0.3-1l0.7-2.2h0.3L354,79c0.2,0.5,0.3,0.8,0.3,1h0c0-0.1,0.1-0.5,0.3-1.1l0.5-2h0.3
				l-1,3.6H354.1z"/>
			<path d="M360.8,78.6c0,0.6-0.1,1-0.4,1.4s-0.7,0.5-1.2,0.5c-0.3,0-0.6-0.1-0.8-0.2s-0.4-0.4-0.5-0.6c-0.1-0.3-0.2-0.6-0.2-1
				c0-0.6,0.1-1,0.4-1.4c0.3-0.3,0.7-0.5,1.2-0.5c0.5,0,0.9,0.2,1.1,0.5C360.7,77.6,360.8,78.1,360.8,78.6z M358,78.6
				c0,0.5,0.1,0.9,0.3,1.1c0.2,0.3,0.5,0.4,0.9,0.4s0.7-0.1,0.9-0.4c0.2-0.3,0.3-0.7,0.3-1.1c0-0.5-0.1-0.9-0.3-1.1
				s-0.5-0.4-0.9-0.4c-0.4,0-0.7,0.1-0.9,0.4C358.1,77.8,358,78.2,358,78.6z"/>
			<path d="M363.2,76.8c0.2,0,0.3,0,0.5,0l-0.1,0.3c-0.1,0-0.3-0.1-0.5-0.1c-0.3,0-0.6,0.1-0.7,0.4c-0.2,0.3-0.3,0.6-0.3,1v2h-0.3
				v-3.6h0.3l0,0.6h0c0.1-0.3,0.3-0.4,0.5-0.6C362.8,76.9,363,76.8,363.2,76.8z"/>
			<path d="M365.7,76.8c0.3,0,0.5,0,0.7,0.1s0.4,0.3,0.5,0.5h0c0-0.3,0-0.5,0-0.8v-1.3h0.3v5.1H367l-0.1-0.5h0
				c-0.3,0.4-0.7,0.6-1.2,0.6c-0.5,0-0.9-0.2-1.1-0.5s-0.4-0.8-0.4-1.3c0-0.6,0.1-1.1,0.4-1.4C364.8,77,365.2,76.8,365.7,76.8z
				 M365.7,77.1c-0.4,0-0.7,0.1-0.9,0.4c-0.2,0.3-0.3,0.7-0.3,1.2c0,1,0.4,1.5,1.2,1.5c0.4,0,0.7-0.1,0.9-0.3
				c0.2-0.2,0.3-0.6,0.3-1.2v-0.1c0-0.5-0.1-0.9-0.3-1.2C366.4,77.2,366.1,77.1,365.7,77.1z"/>
			<path d="M369.8,80.5c-0.5,0-0.9-0.2-1.2-0.5s-0.4-0.8-0.4-1.3c0-0.6,0.1-1,0.4-1.4c0.3-0.3,0.7-0.5,1.1-0.5c0.4,0,0.7,0.1,1,0.4
				c0.2,0.3,0.4,0.7,0.4,1.2v0.3h-2.6c0,0.5,0.1,0.9,0.3,1.1c0.2,0.3,0.5,0.4,1,0.4c0.2,0,0.4,0,0.5,0c0.2,0,0.3-0.1,0.6-0.2v0.3
				c-0.2,0.1-0.4,0.1-0.6,0.2S370,80.5,369.8,80.5z M369.7,77.1c-0.3,0-0.6,0.1-0.8,0.3c-0.2,0.2-0.3,0.6-0.4,1h2.2
				c0-0.4-0.1-0.7-0.3-1S370,77.1,369.7,77.1z"/>
			<path d="M373.5,76.8c0.2,0,0.3,0,0.5,0l-0.1,0.3c-0.1,0-0.3-0.1-0.5-0.1c-0.3,0-0.6,0.1-0.7,0.4c-0.2,0.3-0.3,0.6-0.3,1v2h-0.3
				v-3.6h0.3l0,0.6h0c0.1-0.3,0.3-0.4,0.5-0.6C373,76.9,373.2,76.8,373.5,76.8z"/>
		</g>
	</g>
	<g>
		<g>
			<path d="M334.2,104.5c0,0.5-0.2,0.8-0.5,1.1c-0.3,0.2-0.8,0.4-1.3,0.4h-0.7v2h-0.3v-4.8h1.2C333.6,103.2,334.2,103.6,334.2,104.5
				z M331.6,105.7h0.7c0.5,0,0.9-0.1,1.2-0.3s0.4-0.5,0.4-0.9c0-0.4-0.1-0.6-0.3-0.8s-0.6-0.3-1.1-0.3h-0.8V105.7z"/>
			<path d="M337.3,107.9l-0.1-0.6h0c-0.2,0.2-0.4,0.4-0.6,0.5c-0.2,0.1-0.4,0.1-0.7,0.1c-0.3,0-0.6-0.1-0.8-0.3
				c-0.2-0.2-0.3-0.4-0.3-0.7c0-0.3,0.1-0.6,0.4-0.8c0.3-0.2,0.7-0.3,1.3-0.3l0.7,0v-0.2c0-0.3-0.1-0.6-0.2-0.8
				c-0.1-0.2-0.4-0.3-0.7-0.3c-0.3,0-0.7,0.1-1,0.3l-0.1-0.3c0.4-0.2,0.8-0.3,1.2-0.3c0.4,0,0.7,0.1,0.9,0.3
				c0.2,0.2,0.3,0.5,0.3,0.9v2.4H337.3z M336,107.7c0.4,0,0.7-0.1,0.9-0.3s0.3-0.5,0.3-0.9v-0.3l-0.6,0c-0.5,0-0.9,0.1-1.1,0.2
				c-0.2,0.1-0.3,0.3-0.3,0.6c0,0.2,0.1,0.4,0.2,0.5C335.5,107.7,335.7,107.7,336,107.7z"/>
			<path d="M338.1,104.4h0.3l0.8,2c0.2,0.6,0.4,1,0.4,1.2h0c0.1-0.3,0.2-0.7,0.4-1.3l0.8-2h0.3l-1.6,4.1c-0.1,0.3-0.2,0.6-0.3,0.7
				c-0.1,0.1-0.2,0.2-0.3,0.3c-0.1,0.1-0.3,0.1-0.4,0.1c-0.1,0-0.3,0-0.4-0.1v-0.3c0.1,0,0.3,0.1,0.4,0.1c0.1,0,0.2,0,0.3-0.1
				s0.2-0.1,0.2-0.2c0.1-0.1,0.1-0.3,0.2-0.5c0.1-0.2,0.1-0.4,0.2-0.5L338.1,104.4z"/>
			<path d="M346.2,107.9v-2.3c0-0.3-0.1-0.6-0.2-0.8c-0.1-0.2-0.3-0.2-0.6-0.2c-0.4,0-0.6,0.1-0.8,0.3c-0.2,0.2-0.3,0.5-0.3,0.9v2.1
				H344v-2.4c0-0.6-0.3-0.9-0.8-0.9c-0.4,0-0.6,0.1-0.8,0.3s-0.3,0.6-0.3,1v2h-0.3v-3.6h0.3l0.1,0.5h0c0.1-0.2,0.2-0.3,0.4-0.4
				c0.2-0.1,0.4-0.1,0.6-0.1c0.6,0,0.9,0.2,1.1,0.6h0c0.1-0.2,0.3-0.4,0.5-0.5c0.2-0.1,0.4-0.2,0.7-0.2c0.4,0,0.7,0.1,0.9,0.3
				c0.2,0.2,0.3,0.5,0.3,1v2.3H346.2z"/>
			<path d="M349.1,108c-0.5,0-0.9-0.2-1.2-0.5s-0.4-0.8-0.4-1.3c0-0.6,0.1-1,0.4-1.4c0.3-0.3,0.7-0.5,1.1-0.5c0.4,0,0.7,0.1,1,0.4
				c0.2,0.3,0.4,0.7,0.4,1.2v0.3h-2.6c0,0.5,0.1,0.9,0.3,1.1c0.2,0.3,0.5,0.4,1,0.4c0.2,0,0.4,0,0.5,0c0.2,0,0.3-0.1,0.6-0.2v0.3
				c-0.2,0.1-0.4,0.1-0.6,0.2S349.3,108,349.1,108z M349,104.6c-0.3,0-0.6,0.1-0.8,0.3c-0.2,0.2-0.3,0.6-0.4,1h2.2
				c0-0.4-0.1-0.7-0.3-1S349.3,104.6,349,104.6z"/>
			<path d="M353.8,107.9v-2.3c0-0.4-0.1-0.6-0.2-0.8s-0.4-0.2-0.7-0.2c-0.4,0-0.7,0.1-0.9,0.3s-0.3,0.6-0.3,1v2h-0.3v-3.6h0.3
				l0.1,0.5h0c0.2-0.4,0.6-0.6,1.2-0.6c0.8,0,1.2,0.4,1.2,1.3v2.3H353.8z"/>
			<path d="M356.2,107.7c0.2,0,0.4,0,0.5-0.1v0.3c-0.2,0.1-0.3,0.1-0.5,0.1c-0.3,0-0.5-0.1-0.7-0.3s-0.2-0.4-0.2-0.8v-2.3h-0.5v-0.2
				l0.5-0.1l0.2-0.8h0.2v0.9h1v0.3h-1v2.2c0,0.3,0,0.5,0.1,0.6C355.9,107.7,356,107.7,356.2,107.7z"/>
			<path d="M360.6,104.3c0.3,0,0.5,0,0.7,0.1s0.4,0.3,0.5,0.5h0c0-0.3,0-0.5,0-0.8v-1.3h0.3v5.1h-0.2l-0.1-0.5h0
				c-0.3,0.4-0.7,0.6-1.2,0.6c-0.5,0-0.9-0.2-1.1-0.5s-0.4-0.8-0.4-1.3c0-0.6,0.1-1.1,0.4-1.4C359.7,104.5,360.1,104.3,360.6,104.3z
				 M360.6,104.6c-0.4,0-0.7,0.1-0.9,0.4c-0.2,0.3-0.3,0.7-0.3,1.2c0,1,0.4,1.5,1.2,1.5c0.4,0,0.7-0.1,0.9-0.3
				c0.2-0.2,0.3-0.6,0.3-1.2v-0.1c0-0.5-0.1-0.9-0.3-1.2C361.3,104.7,361,104.6,360.6,104.6z"/>
			<path d="M364.7,108c-0.5,0-0.9-0.2-1.2-0.5s-0.4-0.8-0.4-1.3c0-0.6,0.1-1,0.4-1.4c0.3-0.3,0.7-0.5,1.1-0.5c0.4,0,0.7,0.1,1,0.4
				c0.2,0.3,0.4,0.7,0.4,1.2v0.3h-2.6c0,0.5,0.1,0.9,0.3,1.1c0.2,0.3,0.5,0.4,1,0.4c0.2,0,0.4,0,0.5,0c0.2,0,0.3-0.1,0.6-0.2v0.3
				c-0.2,0.1-0.4,0.1-0.6,0.2S364.9,108,364.7,108z M364.6,104.6c-0.3,0-0.6,0.1-0.8,0.3c-0.2,0.2-0.3,0.6-0.4,1h2.2
				c0-0.4-0.1-0.7-0.3-1S364.9,104.6,364.6,104.6z"/>
			<path d="M367.9,107.7c0.2,0,0.4,0,0.5-0.1v0.3c-0.2,0.1-0.3,0.1-0.5,0.1c-0.3,0-0.5-0.1-0.7-0.3s-0.2-0.4-0.2-0.8v-2.3h-0.5v-0.2
				l0.5-0.1l0.2-0.8h0.2v0.9h1v0.3h-1v2.2c0,0.3,0,0.5,0.1,0.6C367.5,107.7,367.6,107.7,367.9,107.7z"/>
			<path d="M371.3,107.9l-0.1-0.6h0c-0.2,0.2-0.4,0.4-0.6,0.5c-0.2,0.1-0.4,0.1-0.7,0.1c-0.3,0-0.6-0.1-0.8-0.3
				c-0.2-0.2-0.3-0.4-0.3-0.7c0-0.3,0.1-0.6,0.4-0.8c0.3-0.2,0.7-0.3,1.3-0.3l0.7,0v-0.2c0-0.3-0.1-0.6-0.2-0.8
				c-0.1-0.2-0.4-0.3-0.7-0.3c-0.3,0-0.7,0.1-1,0.3l-0.1-0.3c0.4-0.2,0.8-0.3,1.2-0.3c0.4,0,0.7,0.1,0.9,0.3
				c0.2,0.2,0.3,0.5,0.3,0.9v2.4H371.3z M370,107.7c0.4,0,0.7-0.1,0.9-0.3s0.3-0.5,0.3-0.9v-0.3l-0.6,0c-0.5,0-0.9,0.1-1.1,0.2
				c-0.2,0.1-0.3,0.3-0.3,0.6c0,0.2,0.1,0.4,0.2,0.5C369.6,107.7,369.8,107.7,370,107.7z"/>
			<path d="M372.7,103.4c0-0.2,0.1-0.3,0.2-0.3c0.1,0,0.1,0,0.2,0.1c0,0.1,0.1,0.1,0.1,0.2s0,0.2-0.1,0.2s-0.1,0.1-0.2,0.1
				C372.7,103.7,372.7,103.6,372.7,103.4z M373,107.9h-0.3v-3.6h0.3V107.9z"/>
			<path d="M374.5,107.9h-0.3v-5.1h0.3V107.9z"/>
			<path d="M377.9,107c0,0.3-0.1,0.6-0.4,0.7c-0.2,0.2-0.6,0.3-1,0.3c-0.5,0-0.9-0.1-1.1-0.2v-0.3c0.4,0.2,0.7,0.3,1.1,0.3
				c0.4,0,0.6-0.1,0.8-0.2c0.2-0.1,0.3-0.3,0.3-0.5c0-0.2-0.1-0.3-0.2-0.5c-0.1-0.1-0.4-0.2-0.7-0.4c-0.4-0.1-0.6-0.2-0.7-0.3
				s-0.3-0.2-0.3-0.3c-0.1-0.1-0.1-0.3-0.1-0.4c0-0.3,0.1-0.5,0.3-0.6c0.2-0.2,0.5-0.2,0.9-0.2c0.4,0,0.7,0.1,1.1,0.2l-0.1,0.3
				c-0.3-0.1-0.7-0.2-1-0.2c-0.3,0-0.5,0-0.7,0.1s-0.3,0.2-0.3,0.4c0,0.2,0.1,0.3,0.2,0.4s0.4,0.2,0.8,0.4c0.3,0.1,0.6,0.2,0.7,0.3
				c0.1,0.1,0.3,0.2,0.3,0.3C377.9,106.7,377.9,106.9,377.9,107z"/>
			<path d="M380.5,103.2l-1.8,4.8h-0.3l1.8-4.8H380.5z"/>
			<path d="M336.1,113.9v2.1h-0.3v-4.8h1.1c0.6,0,1,0.1,1.3,0.3c0.3,0.2,0.4,0.5,0.4,1c0,0.3-0.1,0.6-0.3,0.8
				c-0.2,0.2-0.4,0.4-0.8,0.5l1.3,2.2h-0.4l-1.2-2.1H336.1z M336.1,113.6h0.9c0.4,0,0.7-0.1,0.9-0.3s0.3-0.4,0.3-0.8
				c0-0.4-0.1-0.6-0.3-0.8c-0.2-0.2-0.6-0.2-1.1-0.2h-0.8V113.6z"/>
			<path d="M341.1,116c-0.5,0-0.9-0.2-1.2-0.5s-0.4-0.8-0.4-1.3c0-0.6,0.1-1,0.4-1.4c0.3-0.3,0.7-0.5,1.1-0.5c0.4,0,0.7,0.1,1,0.4
				c0.2,0.3,0.4,0.7,0.4,1.2v0.3h-2.6c0,0.5,0.1,0.9,0.3,1.1c0.2,0.3,0.5,0.4,1,0.4c0.2,0,0.4,0,0.5,0c0.2,0,0.3-0.1,0.6-0.2v0.3
				c-0.2,0.1-0.4,0.1-0.6,0.2C341.5,116,341.3,116,341.1,116z M341,112.6c-0.3,0-0.6,0.1-0.8,0.3c-0.2,0.2-0.3,0.6-0.4,1h2.2
				c0-0.4-0.1-0.7-0.3-1S341.3,112.6,341,112.6z"/>
			<path d="M344.1,116l-1.4-3.6h0.3l0.9,2.4c0.1,0.3,0.2,0.6,0.3,0.8h0c0.1-0.3,0.2-0.6,0.3-0.8l0.9-2.4h0.3l-1.4,3.6H344.1z"/>
			<path d="M346.3,111.4c0-0.2,0.1-0.3,0.2-0.3c0.1,0,0.1,0,0.2,0.1s0.1,0.1,0.1,0.2c0,0.1,0,0.2-0.1,0.2s-0.1,0.1-0.2,0.1
				C346.4,111.8,346.3,111.7,346.3,111.4z M346.7,116h-0.3v-3.6h0.3V116z"/>
			<path d="M349.3,116c-0.5,0-0.9-0.2-1.2-0.5s-0.4-0.8-0.4-1.3c0-0.6,0.1-1,0.4-1.4c0.3-0.3,0.7-0.5,1.1-0.5c0.4,0,0.7,0.1,1,0.4
				c0.2,0.3,0.4,0.7,0.4,1.2v0.3H348c0,0.5,0.1,0.9,0.3,1.1c0.2,0.3,0.5,0.4,1,0.4c0.2,0,0.4,0,0.5,0c0.2,0,0.3-0.1,0.6-0.2v0.3
				c-0.2,0.1-0.4,0.1-0.6,0.2C349.7,116,349.5,116,349.3,116z M349.2,112.6c-0.3,0-0.6,0.1-0.8,0.3c-0.2,0.2-0.3,0.6-0.4,1h2.2
				c0-0.4-0.1-0.7-0.3-1S349.5,112.6,349.2,112.6z"/>
			<path d="M354.4,116l-0.8-2.4c0-0.2-0.1-0.4-0.2-0.7h0l-0.1,0.2l-0.1,0.5l-0.8,2.4h-0.3l-1-3.6h0.3l0.6,2.1
				c0.1,0.5,0.2,0.9,0.3,1.1h0c0.1-0.5,0.2-0.8,0.3-1l0.7-2.2h0.3l0.7,2.2c0.2,0.5,0.3,0.9,0.3,1h0c0-0.1,0.1-0.5,0.3-1.1l0.5-2h0.3
				l-1,3.6H354.4z"/>
			<path d="M361.1,114.2c0,0.6-0.1,1-0.4,1.4c-0.3,0.3-0.7,0.5-1.2,0.5c-0.3,0-0.6-0.1-0.8-0.2s-0.4-0.4-0.5-0.6
				c-0.1-0.3-0.2-0.6-0.2-1c0-0.6,0.1-1,0.4-1.4s0.7-0.5,1.2-0.5c0.5,0,0.9,0.2,1.1,0.5C360.9,113.2,361.1,113.6,361.1,114.2z
				 M358.3,114.2c0,0.5,0.1,0.9,0.3,1.1c0.2,0.3,0.5,0.4,0.9,0.4s0.7-0.1,0.9-0.4c0.2-0.3,0.3-0.7,0.3-1.1c0-0.5-0.1-0.9-0.3-1.1
				c-0.2-0.3-0.5-0.4-0.9-0.4c-0.4,0-0.7,0.1-0.9,0.4C358.4,113.3,358.3,113.7,358.3,114.2z"/>
			<path d="M363.5,112.4c0.2,0,0.3,0,0.5,0l-0.1,0.3c-0.1,0-0.3-0.1-0.5-0.1c-0.3,0-0.6,0.1-0.7,0.4s-0.3,0.6-0.3,1v2h-0.3v-3.6h0.3
				l0,0.6h0c0.1-0.3,0.3-0.4,0.5-0.6C363,112.4,363.2,112.4,363.5,112.4z"/>
			<path d="M366,112.4c0.3,0,0.5,0,0.7,0.1s0.4,0.3,0.5,0.5h0c0-0.3,0-0.5,0-0.8v-1.3h0.3v5.1h-0.2l-0.1-0.5h0
				c-0.3,0.4-0.7,0.6-1.2,0.6c-0.5,0-0.9-0.2-1.1-0.5c-0.3-0.3-0.4-0.8-0.4-1.3c0-0.6,0.1-1.1,0.4-1.4
				C365.1,112.5,365.5,112.4,366,112.4z M366,112.7c-0.4,0-0.7,0.1-0.9,0.4c-0.2,0.3-0.3,0.7-0.3,1.2c0,1,0.4,1.5,1.2,1.5
				c0.4,0,0.7-0.1,0.9-0.3c0.2-0.2,0.3-0.6,0.3-1.2v-0.1c0-0.5-0.1-0.9-0.3-1.2C366.7,112.8,366.4,112.7,366,112.7z"/>
			<path d="M370.1,116c-0.5,0-0.9-0.2-1.2-0.5s-0.4-0.8-0.4-1.3c0-0.6,0.1-1,0.4-1.4c0.3-0.3,0.7-0.5,1.1-0.5c0.4,0,0.7,0.1,1,0.4
				c0.2,0.3,0.4,0.7,0.4,1.2v0.3h-2.6c0,0.5,0.1,0.9,0.3,1.1c0.2,0.3,0.5,0.4,1,0.4c0.2,0,0.4,0,0.5,0c0.2,0,0.3-0.1,0.6-0.2v0.3
				c-0.2,0.1-0.4,0.1-0.6,0.2C370.5,116,370.3,116,370.1,116z M370,112.6c-0.3,0-0.6,0.1-0.8,0.3c-0.2,0.2-0.3,0.6-0.4,1h2.2
				c0-0.4-0.1-0.7-0.3-1S370.3,112.6,370,112.6z"/>
			<path d="M373.7,112.4c0.2,0,0.3,0,0.5,0l-0.1,0.3c-0.1,0-0.3-0.1-0.5-0.1c-0.3,0-0.6,0.1-0.7,0.4s-0.3,0.6-0.3,1v2h-0.3v-3.6h0.3
				l0,0.6h0c0.1-0.3,0.3-0.4,0.5-0.6C373.3,112.4,373.5,112.4,373.7,112.4z"/>
		</g>
	</g>
	<g>
		<g>
			<path d="M339.6,137.9c-0.6,0-1.1,0.2-1.4,0.6c-0.3,0.4-0.5,0.9-0.5,1.6c0,0.7,0.2,1.2,0.5,1.6c0.3,0.4,0.8,0.6,1.4,0.6
				c0.4,0,0.8-0.1,1.1-0.2v0.3c-0.3,0.1-0.7,0.2-1.2,0.2c-0.7,0-1.2-0.2-1.6-0.7s-0.6-1-0.6-1.8c0-0.5,0.1-0.9,0.3-1.3
				c0.2-0.4,0.4-0.7,0.8-0.9c0.3-0.2,0.7-0.3,1.2-0.3c0.5,0,0.9,0.1,1.3,0.3l-0.1,0.3C340.3,138,339.9,137.9,339.6,137.9z"/>
			<path d="M344.5,140.7c0,0.6-0.1,1-0.4,1.4s-0.7,0.5-1.2,0.5c-0.3,0-0.6-0.1-0.8-0.2s-0.4-0.4-0.5-0.6c-0.1-0.3-0.2-0.6-0.2-1
				c0-0.6,0.1-1,0.4-1.4c0.3-0.3,0.7-0.5,1.2-0.5c0.5,0,0.9,0.2,1.1,0.5C344.4,139.7,344.5,140.1,344.5,140.7z M341.7,140.7
				c0,0.5,0.1,0.9,0.3,1.1c0.2,0.3,0.5,0.4,0.9,0.4s0.7-0.1,0.9-0.4c0.2-0.3,0.3-0.7,0.3-1.1c0-0.5-0.1-0.9-0.3-1.1
				s-0.5-0.4-0.9-0.4c-0.4,0-0.7,0.1-0.9,0.4C341.8,139.8,341.7,140.2,341.7,140.7z"/>
			<path d="M348,142.5v-2.3c0-0.4-0.1-0.6-0.2-0.8s-0.4-0.2-0.7-0.2c-0.4,0-0.7,0.1-0.9,0.3s-0.3,0.6-0.3,1v2h-0.3v-3.6h0.3l0.1,0.5
				h0c0.2-0.4,0.6-0.6,1.2-0.6c0.8,0,1.2,0.4,1.2,1.3v2.3H348z"/>
			<path d="M350.8,139.2h-0.8v3.3h-0.3v-3.3H349V139l0.7-0.1v-0.3c0-0.4,0.1-0.8,0.2-1c0.2-0.2,0.4-0.3,0.8-0.3c0.2,0,0.4,0,0.6,0.1
				l-0.1,0.3c-0.2-0.1-0.3-0.1-0.5-0.1c-0.3,0-0.4,0.1-0.5,0.2c-0.1,0.2-0.2,0.4-0.2,0.7v0.3h0.8V139.2z M351.4,137.9
				c0-0.2,0.1-0.3,0.2-0.3c0.1,0,0.1,0,0.2,0.1c0,0.1,0.1,0.1,0.1,0.2s0,0.2-0.1,0.2s-0.1,0.1-0.2,0.1
				C351.5,138.2,351.4,138.1,351.4,137.9z M351.8,142.5h-0.3v-3.6h0.3V142.5z"/>
			<path d="M354.4,138.8c0.2,0,0.3,0,0.5,0l-0.1,0.3c-0.1,0-0.3-0.1-0.5-0.1c-0.3,0-0.6,0.1-0.7,0.4c-0.2,0.3-0.3,0.6-0.3,1v2H353
				v-3.6h0.3l0,0.6h0c0.1-0.3,0.3-0.4,0.5-0.6C353.9,138.9,354.1,138.8,354.4,138.8z"/>
			<path d="M360,142.5v-2.3c0-0.3-0.1-0.6-0.2-0.8c-0.1-0.2-0.3-0.2-0.6-0.2c-0.4,0-0.6,0.1-0.8,0.3c-0.2,0.2-0.3,0.5-0.3,0.9v2.1
				h-0.3V140c0-0.6-0.3-0.9-0.8-0.9c-0.4,0-0.6,0.1-0.8,0.3s-0.3,0.6-0.3,1v2h-0.3v-3.6h0.3l0.1,0.5h0c0.1-0.2,0.2-0.3,0.4-0.4
				c0.2-0.1,0.4-0.1,0.6-0.1c0.6,0,0.9,0.2,1.1,0.6h0c0.1-0.2,0.3-0.4,0.5-0.5c0.2-0.1,0.4-0.2,0.7-0.2c0.4,0,0.7,0.1,0.9,0.3
				c0.2,0.2,0.3,0.5,0.3,1v2.3H360z"/>
			<path d="M363.7,142.5l-0.1-0.6h0c-0.2,0.2-0.4,0.4-0.6,0.5c-0.2,0.1-0.4,0.1-0.7,0.1c-0.3,0-0.6-0.1-0.8-0.3
				c-0.2-0.2-0.3-0.4-0.3-0.7c0-0.3,0.1-0.6,0.4-0.8c0.3-0.2,0.7-0.3,1.3-0.3l0.7,0v-0.2c0-0.3-0.1-0.6-0.2-0.8
				c-0.1-0.2-0.4-0.3-0.7-0.3c-0.3,0-0.7,0.1-1,0.3l-0.1-0.3c0.4-0.2,0.8-0.3,1.2-0.3c0.4,0,0.7,0.1,0.9,0.3
				c0.2,0.2,0.3,0.5,0.3,0.9v2.4H363.7z M362.4,142.2c0.4,0,0.7-0.1,0.9-0.3s0.3-0.5,0.3-0.9v-0.3l-0.6,0c-0.5,0-0.9,0.1-1.1,0.2
				c-0.2,0.1-0.3,0.3-0.3,0.6c0,0.2,0.1,0.4,0.2,0.5C361.9,142.2,362.1,142.2,362.4,142.2z"/>
			<path d="M366,142.2c0.2,0,0.4,0,0.5-0.1v0.3c-0.2,0.1-0.3,0.1-0.5,0.1c-0.3,0-0.5-0.1-0.7-0.3s-0.2-0.4-0.2-0.8v-2.3h-0.5V139
				l0.5-0.1l0.2-0.8h0.2v0.9h1v0.3h-1v2.2c0,0.3,0,0.5,0.1,0.6C365.6,142.2,365.8,142.2,366,142.2z"/>
			<path d="M367.2,137.9c0-0.2,0.1-0.3,0.2-0.3c0.1,0,0.1,0,0.2,0.1c0,0.1,0.1,0.1,0.1,0.2s0,0.2-0.1,0.2s-0.1,0.1-0.2,0.1
				C367.3,138.2,367.2,138.1,367.2,137.9z M367.6,142.5h-0.3v-3.6h0.3V142.5z"/>
			<path d="M371.7,140.7c0,0.6-0.1,1-0.4,1.4s-0.7,0.5-1.2,0.5c-0.3,0-0.6-0.1-0.8-0.2s-0.4-0.4-0.5-0.6c-0.1-0.3-0.2-0.6-0.2-1
				c0-0.6,0.1-1,0.4-1.4c0.3-0.3,0.7-0.5,1.2-0.5c0.5,0,0.9,0.2,1.1,0.5C371.6,139.7,371.7,140.1,371.7,140.7z M368.9,140.7
				c0,0.5,0.1,0.9,0.3,1.1c0.2,0.3,0.5,0.4,0.9,0.4s0.7-0.1,0.9-0.4c0.2-0.3,0.3-0.7,0.3-1.1c0-0.5-0.1-0.9-0.3-1.1
				s-0.5-0.4-0.9-0.4c-0.4,0-0.7,0.1-0.9,0.4C369,139.8,368.9,140.2,368.9,140.7z"/>
			<path d="M375.2,142.5v-2.3c0-0.4-0.1-0.6-0.2-0.8s-0.4-0.2-0.7-0.2c-0.4,0-0.7,0.1-0.9,0.3s-0.3,0.6-0.3,1v2h-0.3v-3.6h0.3
				l0.1,0.5h0c0.2-0.4,0.6-0.6,1.2-0.6c0.8,0,1.2,0.4,1.2,1.3v2.3H375.2z"/>
		</g>
	</g>
	<g>
		<g>
			<path d="M277.8,81.4h-0.3l-1-3.7c-0.1-0.3-0.2-0.6-0.2-0.7c0,0.2-0.1,0.4-0.1,0.7c-0.1,0.2-0.4,1.5-1.1,3.8h-0.3l-1.3-4.8h0.3
				l0.8,3.1c0,0.1,0.1,0.2,0.1,0.3s0.1,0.2,0.1,0.3c0,0.1,0,0.2,0.1,0.3c0,0.1,0,0.2,0.1,0.3c0.1-0.3,0.2-0.7,0.3-1.4l0.8-2.9h0.4
				l1,3.3c0.1,0.4,0.2,0.7,0.2,0.9c0-0.2,0.1-0.3,0.1-0.5c0-0.2,0.4-1.4,1-3.8h0.3L277.8,81.4z"/>
			<path d="M279.8,76.8c0-0.2,0.1-0.3,0.2-0.3c0.1,0,0.1,0,0.2,0.1c0,0.1,0.1,0.1,0.1,0.2c0,0.1,0,0.2-0.1,0.2
				c0,0.1-0.1,0.1-0.2,0.1C279.9,77.2,279.8,77.1,279.8,76.8z M280.2,81.4h-0.3v-3.6h0.3V81.4z"/>
			<path d="M283.6,80.5c0,0.3-0.1,0.6-0.4,0.7c-0.2,0.2-0.6,0.3-1,0.3c-0.5,0-0.9-0.1-1.1-0.2v-0.3c0.4,0.2,0.7,0.3,1.1,0.3
				c0.4,0,0.6-0.1,0.8-0.2c0.2-0.1,0.3-0.3,0.3-0.5c0-0.2-0.1-0.3-0.2-0.5c-0.1-0.1-0.4-0.2-0.7-0.4c-0.4-0.1-0.6-0.2-0.7-0.3
				s-0.3-0.2-0.3-0.3c-0.1-0.1-0.1-0.3-0.1-0.4c0-0.3,0.1-0.5,0.3-0.6c0.2-0.2,0.5-0.2,0.9-0.2c0.4,0,0.7,0.1,1.1,0.2l-0.1,0.3
				c-0.3-0.1-0.7-0.2-1-0.2c-0.3,0-0.5,0-0.7,0.1s-0.3,0.2-0.3,0.4c0,0.2,0.1,0.3,0.2,0.4s0.4,0.2,0.8,0.4c0.3,0.1,0.6,0.2,0.7,0.3
				c0.1,0.1,0.3,0.2,0.3,0.3C283.6,80.2,283.6,80.3,283.6,80.5z"/>
			<path d="M287,81.4v-2.3c0-0.4-0.1-0.6-0.2-0.8s-0.4-0.2-0.7-0.2c-0.4,0-0.7,0.1-0.9,0.3s-0.3,0.6-0.3,1v2h-0.3v-5.1h0.3v1.6
				l0,0.5h0c0.1-0.2,0.3-0.4,0.5-0.5c0.2-0.1,0.5-0.1,0.8-0.1c0.8,0,1.2,0.4,1.2,1.3v2.3H287z"/>
			<path d="M290.5,81.4h-0.3v-5.1h0.3V81.4z"/>
			<path d="M291.7,76.8c0-0.2,0.1-0.3,0.2-0.3c0.1,0,0.1,0,0.2,0.1c0,0.1,0.1,0.1,0.1,0.2c0,0.1,0,0.2-0.1,0.2
				c0,0.1-0.1,0.1-0.2,0.1C291.7,77.2,291.7,77.1,291.7,76.8z M292,81.4h-0.3v-3.6h0.3V81.4z"/>
			<path d="M295.4,80.5c0,0.3-0.1,0.6-0.4,0.7c-0.2,0.2-0.6,0.3-1,0.3c-0.5,0-0.9-0.1-1.1-0.2v-0.3c0.4,0.2,0.7,0.3,1.1,0.3
				c0.4,0,0.6-0.1,0.8-0.2c0.2-0.1,0.3-0.3,0.3-0.5c0-0.2-0.1-0.3-0.2-0.5c-0.1-0.1-0.4-0.2-0.7-0.4c-0.4-0.1-0.6-0.2-0.7-0.3
				s-0.3-0.2-0.3-0.3c-0.1-0.1-0.1-0.3-0.1-0.4c0-0.3,0.1-0.5,0.3-0.6c0.2-0.2,0.5-0.2,0.9-0.2c0.4,0,0.7,0.1,1.1,0.2l-0.1,0.3
				c-0.3-0.1-0.7-0.2-1-0.2c-0.3,0-0.5,0-0.7,0.1s-0.3,0.2-0.3,0.4c0,0.2,0.1,0.3,0.2,0.4s0.4,0.2,0.8,0.4c0.3,0.1,0.6,0.2,0.7,0.3
				c0.1,0.1,0.3,0.2,0.3,0.3C295.4,80.2,295.4,80.3,295.4,80.5z"/>
			<path d="M297.3,81.2c0.2,0,0.4,0,0.5-0.1v0.3c-0.2,0.1-0.3,0.1-0.5,0.1c-0.3,0-0.5-0.1-0.7-0.3s-0.2-0.4-0.2-0.8v-2.3h-0.5v-0.2
				l0.5-0.1l0.2-0.8h0.2v0.9h1v0.3h-1v2.2c0,0.3,0,0.5,0.1,0.6C296.9,81.1,297.1,81.2,297.3,81.2z"/>
		</g>
	</g>
	<path fill="none" stroke="#D3D3D3" stroke-width="1.9105" stroke-miterlimit="10" d="M223.1,90.1"/>
	<path fill="none" stroke="#D3D3D3" stroke-width="1.9105" stroke-miterlimit="10" d="M215.2,122.2"/>
	<path fill="none" stroke="#D3D3D3" stroke-width="1.9105" stroke-miterlimit="10" d="M262.6,77.8"/>
	<polygon fill="#D3D3D3" points="259.2,80.7 259.2,51 283,51.2 283.1,44.6 285.1,44.6 284.9,53.1 261.1,53 261.1,78.7 266.1,78.5 
		266.2,80.5 	"/>
	<path fill="none" stroke="#B21F3B" stroke-width="1.9105" stroke-miterlimit="10" d="M198.4,19.9"/>
	<polygon fill="#E89D23" points="34.6,34.3 32.7,34.3 32.7,19.3 198.3,19.3 198.3,21.2 34.6,21.2 	"/>
	<rect x="197.4" y="13.3" fill="#E89D23" width="1.9" height="7.7"/>
	<polygon fill="#E89D23" points="90,146.3 90,144.3 321.4,143.6 321.3,76.6 333,76.8 332.9,78.8 323.2,78.6 323.3,145.5 	"/>
	<path fill="#969696" d="M37.8,88.7H24.6c-4.5,0-8.2-2.6-8.2-5.9s3.7-5.9,8.2-5.9h13.2c4.5,0,8.2,2.6,8.2,5.9S42.3,88.7,37.8,88.7z
		 M24.6,77.4c-4.3,0-7.7,2.4-7.7,5.4s3.5,5.4,7.7,5.4h13.2c4.3,0,7.7-2.4,7.7-5.4s-3.5-5.4-7.7-5.4H24.6z"/>
	<path fill="#969696" d="M85.3,115.2H64.5c-2.8,0-5.1-2.3-5.1-5.1c0-2.8,2.3-5.1,5.1-5.1h20.8c2.8,0,5.1,2.3,5.1,5.1
		C90.4,112.9,88.1,115.2,85.3,115.2z M64.5,105.4c-2.6,0-4.7,2.1-4.7,4.7c0,2.6,2.1,4.7,4.7,4.7h20.8c2.6,0,4.7-2.1,4.7-4.7
		c0-2.6-2.1-4.7-4.7-4.7H64.5z"/>
	<path fill="#969696" d="M84.2,153.9H64.9c-3.3,0-6-2.7-6-6v-6.7c0-3.3,2.7-6,6-6h19.3c3.3,0,6,2.7,6,6v6.7
		C90.2,151.2,87.5,153.9,84.2,153.9z M64.9,135.7c-3,0-5.5,2.5-5.5,5.5v6.7c0,3,2.5,5.5,5.5,5.5h19.3c3,0,5.5-2.5,5.5-5.5v-6.7
		c0-3-2.5-5.5-5.5-5.5H64.9z"/>
	<path fill="#969696" d="M369.8,84.1H339c-3.3,0-6-2.3-6-5v-1.6c0-2.8,2.7-5,6-5h30.8c3.3,0,6,2.3,6,5v1.6
		C375.8,81.9,373.1,84.1,369.8,84.1z M339,72.9c-3,0-5.5,2.1-5.5,4.6v1.6c0,2.5,2.5,4.6,5.5,4.6h30.8c3,0,5.5-2.1,5.5-4.6v-1.6
		c0-2.5-2.5-4.6-5.5-4.6H339z"/>
	<path fill="#969696" d="M376.5,119.2h-41.8c-3.3,0-6-2.7-6-6v-6.7c0-3.3,2.7-6,6-6h41.8c3.3,0,6,2.7,6,6v6.7
		C382.5,116.6,379.8,119.2,376.5,119.2z M334.7,101.1c-3,0-5.5,2.5-5.5,5.5v6.7c0,3,2.5,5.5,5.5,5.5h41.8c3,0,5.5-2.5,5.5-5.5v-6.7
		c0-3-2.5-5.5-5.5-5.5H334.7z"/>
	<path fill="#969696" d="M372.1,145.5h-32c-2.6,0-4.6-1.6-4.6-3.6v-3.9c0-2,2.1-3.6,4.6-3.6h32c2.6,0,4.6,1.6,4.6,3.6v3.9
		C376.8,143.9,374.7,145.5,372.1,145.5z M340.1,135c-2.3,0-4.2,1.4-4.2,3.1v3.9c0,1.7,1.9,3.1,4.2,3.1h32c2.3,0,4.2-1.4,4.2-3.1
		v-3.9c0-1.7-1.9-3.1-4.2-3.1H340.1z"/>
	<path fill="none" stroke="#D3D3D3" stroke-width="1.9105" stroke-miterlimit="10" d="M201.2,13.4"/>
	
		<rect x="219" y="-0.6" transform="matrix(5.112463e-03 1 -1 5.112463e-03 239.1876 -199.7398)" fill="#D3D3D3" width="1.9" height="41.8"/>
</g>
</svg>
