<?xml version="1.0" encoding="utf-8"?>
<!-- Generator: Adobe Illustrator 18.1.1, SVG Export Plug-In . SVG Version: 6.00 Build 0)  -->
<!DOCTYPE svg PUBLIC "-//W3C//DTD SVG 1.1//EN" "http://www.w3.org/Graphics/SVG/1.1/DTD/svg11.dtd">
<svg version="1.1" id="Layer_1" xmlns="http://www.w3.org/2000/svg" xmlns:xlink="http://www.w3.org/1999/xlink" x="0px" y="0px"
	 viewBox="0 0 392.3 155.9" enable-background="new 0 0 392.3 155.9" xml:space="preserve">
<rect x="181.6" y="0" fill="#A9A8A8" width="37.8" height="13.6"/>
<g>
	<g>
		<path fill="#FFFFFF" d="M194.4,9.7h-0.8V7.6h-2.1v2.1h-0.8V5h0.8v1.9h2.1V5h0.8V9.7z"/>
		<path fill="#FFFFFF" d="M200.3,7.3c0,0.8-0.2,1.3-0.6,1.8c-0.4,0.4-0.9,0.6-1.6,0.6c-0.7,0-1.2-0.2-1.6-0.6
			c-0.4-0.4-0.6-1-0.6-1.8c0-0.8,0.2-1.4,0.6-1.8c0.4-0.4,0.9-0.6,1.6-0.6c0.7,0,1.2,0.2,1.6,0.6C200.1,6,200.3,6.6,200.3,7.3z
			 M196.7,7.3c0,0.6,0.1,1,0.3,1.3c0.2,0.3,0.6,0.4,1,0.4c0.5,0,0.8-0.1,1-0.4s0.3-0.7,0.3-1.3c0-0.6-0.1-1-0.3-1.3
			c-0.2-0.3-0.6-0.4-1-0.4c-0.5,0-0.8,0.1-1,0.4C196.8,6.3,196.7,6.8,196.7,7.3z"/>
		<path fill="#FFFFFF" d="M203.8,9.7l-1.4-3.9h0c0,0.6,0.1,1.1,0.1,1.6v2.3h-0.7V5h1.1l1.3,3.7h0l1.3-3.7h1.1v4.7h-0.7V7.4
			c0-0.2,0-0.5,0-0.9c0-0.4,0-0.6,0-0.7h0l-1.4,3.9H203.8z"/>
		<path fill="#FFFFFF" d="M210.9,9.7h-2.6V5h2.6v0.6H209v1.3h1.8v0.6H209V9h1.9V9.7z"/>
	</g>
</g>
<rect x="124.8" y="20.2" fill="#D3D3D3" width="1.9" height="14.3"/>
<polygon fill="#D3D3D3" points="272.7,98.6 268.7,98.6 268.7,62.5 273.2,62.5 273.2,64.4 270.6,64.4 270.6,96.6 272.7,96.6 "/>
<polygon fill="#D3D3D3" points="52,143.4 43.2,143.2 43.3,141.2 50,141.4 50,85.8 45.4,85.8 45.4,83.8 52,83.8 "/>
<rect x="37.9" y="103.3" transform="matrix(1 3.209554e-03 -3.209554e-03 1 0.3348 -0.1426)" fill="#D3D3D3" width="13.4" height="1.9"/>
<polygon fill="#87C9E9" points="51.7,125.2 42,125.2 42,123.3 49.7,123.3 49.7,109.7 59.9,109.7 59.9,111.6 51.6,111.6 "/>
<g>
	<path fill="#49494A" d="M29.3,40.7c0,0.4-0.1,0.7-0.4,0.9s-0.7,0.3-1.1,0.3c-0.5,0-0.9-0.1-1.2-0.2V41c0.2,0.1,0.4,0.2,0.6,0.2
		c0.2,0.1,0.4,0.1,0.6,0.1c0.3,0,0.5-0.1,0.6-0.2c0.1-0.1,0.2-0.2,0.2-0.4c0-0.2-0.1-0.3-0.2-0.4c-0.1-0.1-0.4-0.2-0.7-0.4
		c-0.4-0.2-0.7-0.3-0.8-0.5c-0.2-0.2-0.2-0.4-0.2-0.7c0-0.4,0.1-0.6,0.4-0.8c0.3-0.2,0.6-0.3,1-0.3c0.4,0,0.8,0.1,1.2,0.3l-0.2,0.6
		c-0.4-0.2-0.7-0.2-1-0.2c-0.2,0-0.4,0-0.5,0.1c-0.1,0.1-0.2,0.2-0.2,0.4c0,0.1,0,0.2,0.1,0.3c0,0.1,0.1,0.2,0.2,0.2
		c0.1,0.1,0.3,0.2,0.6,0.3c0.3,0.1,0.5,0.3,0.7,0.4c0.1,0.1,0.3,0.2,0.3,0.4C29.3,40.3,29.3,40.5,29.3,40.7z"/>
	<path fill="#49494A" d="M33.5,41.8h-0.7v-1.9h-2v1.9h-0.7v-4.3h0.7v1.7h2v-1.7h0.7V41.8z"/>
	<path fill="#49494A" d="M38.4,39.7c0,0.7-0.2,1.2-0.5,1.6s-0.8,0.6-1.5,0.6c-0.6,0-1.1-0.2-1.5-0.6c-0.3-0.4-0.5-0.9-0.5-1.6
		c0-0.7,0.2-1.2,0.5-1.6c0.3-0.4,0.8-0.6,1.5-0.6c0.6,0,1.1,0.2,1.5,0.6C38.3,38.5,38.4,39,38.4,39.7z M35.2,39.7
		c0,0.5,0.1,0.9,0.3,1.2c0.2,0.3,0.5,0.4,0.9,0.4c0.4,0,0.7-0.1,0.9-0.4s0.3-0.7,0.3-1.2c0-0.5-0.1-0.9-0.3-1.2s-0.5-0.4-0.9-0.4
		c-0.4,0-0.7,0.1-0.9,0.4S35.2,39.2,35.2,39.7z"/>
	<path fill="#49494A" d="M42.2,38.9c0,0.4-0.1,0.8-0.4,1c-0.3,0.2-0.7,0.4-1.2,0.4h-0.4v1.6h-0.7v-4.3h1.2c0.5,0,0.9,0.1,1.2,0.3
		S42.2,38.4,42.2,38.9z M40.1,39.7h0.4c0.4,0,0.6-0.1,0.8-0.2c0.2-0.1,0.3-0.3,0.3-0.6c0-0.2-0.1-0.4-0.2-0.5
		c-0.2-0.1-0.4-0.2-0.7-0.2h-0.5V39.7z"/>
</g>
<g>
	<path fill="#49494A" d="M60,40v1.7h-0.7v-4.3h1.2c0.6,0,1,0.1,1.2,0.3s0.4,0.5,0.4,0.9c0,0.5-0.3,0.9-0.8,1.1l1.2,1.9h-0.8l-1-1.7
		H60z M60,39.4h0.5c0.3,0,0.6-0.1,0.7-0.2c0.1-0.1,0.2-0.3,0.2-0.5c0-0.2-0.1-0.4-0.2-0.5c-0.2-0.1-0.4-0.2-0.7-0.2H60V39.4z"/>
	<path fill="#49494A" d="M65.6,41.7h-2.4v-4.3h2.4V38h-1.7v1.2h1.6v0.6h-1.6v1.3h1.7V41.7z"/>
	<path fill="#49494A" d="M70.3,39.5c0,0.5-0.1,1-0.3,1.3c-0.2,0.4-0.5,0.6-0.9,0.7l1,1.1h-0.9l-0.8-1h-0.1c-0.6,0-1.1-0.2-1.5-0.6
		c-0.3-0.4-0.5-0.9-0.5-1.6c0-0.7,0.2-1.2,0.5-1.6c0.3-0.4,0.8-0.6,1.5-0.6c0.6,0,1.1,0.2,1.5,0.6C70.1,38.3,70.3,38.9,70.3,39.5z
		 M67,39.5c0,0.5,0.1,0.9,0.3,1.2c0.2,0.3,0.5,0.4,0.9,0.4c0.4,0,0.7-0.1,0.9-0.4s0.3-0.7,0.3-1.2c0-0.5-0.1-0.9-0.3-1.2
		S68.7,38,68.3,38c-0.4,0-0.7,0.1-0.9,0.4S67,39,67,39.5z"/>
	<path fill="#49494A" d="M74.6,37.4v2.8c0,0.3-0.1,0.6-0.2,0.8c-0.1,0.2-0.3,0.4-0.6,0.5c-0.3,0.1-0.6,0.2-0.9,0.2
		c-0.5,0-0.9-0.1-1.2-0.4s-0.4-0.7-0.4-1.2v-2.8h0.7v2.7c0,0.4,0.1,0.6,0.2,0.8c0.2,0.2,0.4,0.3,0.8,0.3c0.7,0,1-0.3,1-1v-2.7H74.6z
		"/>
	<path fill="#49494A" d="M78.1,41.7h-2.4v-4.3h2.4V38h-1.7v1.2H78v0.6h-1.6v1.3h1.7V41.7z"/>
	<path fill="#49494A" d="M81.4,40.5c0,0.4-0.1,0.7-0.4,0.9s-0.7,0.3-1.1,0.3c-0.5,0-0.9-0.1-1.2-0.2v-0.7c0.2,0.1,0.4,0.2,0.6,0.2
		c0.2,0.1,0.4,0.1,0.6,0.1c0.3,0,0.5-0.1,0.6-0.2c0.1-0.1,0.2-0.2,0.2-0.4c0-0.2-0.1-0.3-0.2-0.4c-0.1-0.1-0.4-0.2-0.7-0.4
		c-0.4-0.2-0.7-0.3-0.8-0.5c-0.2-0.2-0.2-0.4-0.2-0.7c0-0.4,0.1-0.6,0.4-0.8c0.3-0.2,0.6-0.3,1-0.3c0.4,0,0.8,0.1,1.2,0.3l-0.2,0.6
		c-0.4-0.2-0.7-0.2-1-0.2c-0.2,0-0.4,0-0.5,0.1c-0.1,0.1-0.2,0.2-0.2,0.4c0,0.1,0,0.2,0.1,0.3c0,0.1,0.1,0.2,0.2,0.2
		c0.1,0.1,0.3,0.2,0.6,0.3c0.3,0.1,0.5,0.3,0.7,0.4c0.1,0.1,0.3,0.2,0.3,0.4C81.4,40.2,81.4,40.3,81.4,40.5z"/>
	<path fill="#49494A" d="M83.7,41.7H83V38h-1.3v-0.6H85V38h-1.3V41.7z"/>
	<path fill="#49494A" d="M89.9,41.7l-0.4-1.2h-1.6l-0.4,1.2h-0.7l1.6-4.3H89l1.6,4.3H89.9z M89.2,39.9l-0.4-1.2
		c0-0.1-0.1-0.2-0.1-0.4c-0.1-0.2-0.1-0.3-0.1-0.4c-0.1,0.2-0.1,0.5-0.2,0.8L88,39.9H89.2z"/>
	<path fill="#49494A" d="M94.2,41.7h-0.7V38h-1.3v-0.6h3.2V38h-1.3V41.7z"/>
	<path fill="#49494A" d="M99.9,39.5c0,0.7-0.2,1.2-0.5,1.6s-0.8,0.6-1.5,0.6c-0.6,0-1.1-0.2-1.5-0.6c-0.3-0.4-0.5-0.9-0.5-1.6
		c0-0.7,0.2-1.2,0.5-1.6c0.3-0.4,0.8-0.6,1.5-0.6c0.6,0,1.1,0.2,1.5,0.6C99.7,38.3,99.9,38.9,99.9,39.5z M96.6,39.5
		c0,0.5,0.1,0.9,0.3,1.2c0.2,0.3,0.5,0.4,0.9,0.4c0.4,0,0.7-0.1,0.9-0.4s0.3-0.7,0.3-1.2c0-0.5-0.1-0.9-0.3-1.2S98.3,38,97.9,38
		c-0.4,0-0.7,0.1-0.9,0.4S96.6,39,96.6,39.5z"/>
	<path fill="#49494A" d="M102,39.4l1-1.9h0.8l-1.4,2.6v1.7h-0.7v-1.6l-1.4-2.6h0.8L102,39.4z"/>
</g>
<g>
	<path fill="#49494A" d="M157.1,41.8l-0.4-1.2h-1.6l-0.4,1.2h-0.7l1.6-4.3h0.8l1.6,4.3H157.1z M156.5,40l-0.4-1.2
		c0-0.1-0.1-0.2-0.1-0.4c-0.1-0.2-0.1-0.3-0.1-0.4c-0.1,0.2-0.1,0.5-0.2,0.8l-0.4,1.1H156.5z"/>
	<path fill="#49494A" d="M158.4,37.5h1.3c0.6,0,1,0.1,1.3,0.3c0.3,0.2,0.4,0.4,0.4,0.8c0,0.2-0.1,0.5-0.2,0.6
		c-0.1,0.2-0.3,0.3-0.6,0.3v0c0.3,0.1,0.5,0.2,0.7,0.3c0.1,0.2,0.2,0.4,0.2,0.7c0,0.4-0.1,0.7-0.4,0.9s-0.6,0.3-1.1,0.3h-1.5V37.5z
		 M159.1,39.3h0.7c0.3,0,0.5,0,0.6-0.1c0.1-0.1,0.2-0.2,0.2-0.5c0-0.2-0.1-0.3-0.2-0.4c-0.1-0.1-0.4-0.1-0.7-0.1h-0.6V39.3z
		 M159.1,39.9v1.4h0.7c0.3,0,0.5-0.1,0.7-0.2c0.2-0.1,0.2-0.3,0.2-0.5c0-0.2-0.1-0.4-0.2-0.5c-0.2-0.1-0.4-0.2-0.7-0.2H159.1z"/>
	<path fill="#49494A" d="M166.2,39.6c0,0.7-0.2,1.2-0.5,1.6s-0.8,0.6-1.5,0.6c-0.6,0-1.1-0.2-1.5-0.6c-0.3-0.4-0.5-0.9-0.5-1.6
		c0-0.7,0.2-1.2,0.5-1.6c0.3-0.4,0.8-0.6,1.5-0.6c0.6,0,1.1,0.2,1.5,0.6C166,38.4,166.2,39,166.2,39.6z M162.9,39.6
		c0,0.5,0.1,0.9,0.3,1.2c0.2,0.3,0.5,0.4,0.9,0.4c0.4,0,0.7-0.1,0.9-0.4s0.3-0.7,0.3-1.2c0-0.5-0.1-0.9-0.3-1.2s-0.5-0.4-0.9-0.4
		c-0.4,0-0.7,0.1-0.9,0.4S162.9,39.1,162.9,39.6z"/>
	<path fill="#49494A" d="M170.4,37.5v2.8c0,0.3-0.1,0.6-0.2,0.8c-0.1,0.2-0.3,0.4-0.6,0.5c-0.3,0.1-0.6,0.2-0.9,0.2
		c-0.5,0-0.9-0.1-1.2-0.4c-0.3-0.3-0.4-0.7-0.4-1.2v-2.8h0.7v2.7c0,0.4,0.1,0.6,0.2,0.8c0.2,0.2,0.4,0.3,0.8,0.3c0.7,0,1-0.3,1-1
		v-2.7H170.4z"/>
	<path fill="#49494A" d="M173,41.8h-0.7v-3.7H171v-0.6h3.2v0.6H173V41.8z"/>
	<path fill="#49494A" d="M179.8,37.5v2.8c0,0.3-0.1,0.6-0.2,0.8s-0.3,0.4-0.6,0.5c-0.3,0.1-0.6,0.2-0.9,0.2c-0.5,0-0.9-0.1-1.2-0.4
		c-0.3-0.3-0.4-0.7-0.4-1.2v-2.8h0.7v2.7c0,0.4,0.1,0.6,0.2,0.8s0.4,0.3,0.8,0.3c0.7,0,1-0.3,1-1v-2.7H179.8z"/>
	<path fill="#49494A" d="M183.4,40.6c0,0.4-0.1,0.7-0.4,0.9c-0.3,0.2-0.7,0.3-1.1,0.3s-0.9-0.1-1.2-0.2V41c0.2,0.1,0.4,0.2,0.6,0.2
		c0.2,0.1,0.4,0.1,0.6,0.1c0.3,0,0.5-0.1,0.6-0.2c0.1-0.1,0.2-0.2,0.2-0.4c0-0.2-0.1-0.3-0.2-0.4c-0.1-0.1-0.4-0.2-0.7-0.4
		c-0.4-0.2-0.7-0.3-0.8-0.5c-0.2-0.2-0.2-0.4-0.2-0.7c0-0.4,0.1-0.6,0.4-0.8c0.3-0.2,0.6-0.3,1-0.3c0.4,0,0.8,0.1,1.2,0.3l-0.2,0.6
		c-0.4-0.2-0.7-0.2-1-0.2c-0.2,0-0.4,0-0.5,0.1c-0.1,0.1-0.2,0.2-0.2,0.4c0,0.1,0,0.2,0.1,0.3c0,0.1,0.1,0.2,0.2,0.2
		c0.1,0.1,0.3,0.2,0.6,0.3c0.3,0.1,0.5,0.3,0.7,0.4c0.1,0.1,0.3,0.2,0.3,0.4C183.3,40.3,183.4,40.4,183.4,40.6z"/>
</g>
<g>
	<path fill="#49494A" d="M197.4,38.3c-0.4,0-0.7,0.1-0.9,0.4c-0.2,0.3-0.3,0.7-0.3,1.2c0,0.5,0.1,0.9,0.3,1.2s0.5,0.4,1,0.4
		c0.2,0,0.4,0,0.5-0.1c0.2,0,0.3-0.1,0.5-0.1v0.6c-0.3,0.1-0.7,0.2-1.1,0.2c-0.6,0-1.1-0.2-1.4-0.6c-0.3-0.4-0.5-0.9-0.5-1.6
		c0-0.4,0.1-0.8,0.2-1.2c0.2-0.3,0.4-0.6,0.7-0.8c0.3-0.2,0.7-0.3,1.1-0.3c0.4,0,0.8,0.1,1.2,0.3l-0.2,0.6c-0.1-0.1-0.3-0.1-0.5-0.2
		C197.7,38.3,197.5,38.3,197.4,38.3z"/>
	<path fill="#49494A" d="M203.1,39.9c0,0.7-0.2,1.2-0.5,1.6s-0.8,0.6-1.5,0.6c-0.6,0-1.1-0.2-1.5-0.6c-0.3-0.4-0.5-0.9-0.5-1.6
		c0-0.7,0.2-1.2,0.5-1.6c0.3-0.4,0.8-0.6,1.5-0.6c0.6,0,1.1,0.2,1.5,0.6C203,38.7,203.1,39.2,203.1,39.9z M199.9,39.9
		c0,0.5,0.1,0.9,0.3,1.2s0.5,0.4,0.9,0.4c0.4,0,0.7-0.1,0.9-0.4s0.3-0.7,0.3-1.2c0-0.5-0.1-0.9-0.3-1.2s-0.5-0.4-0.9-0.4
		c-0.4,0-0.7,0.1-0.9,0.4S199.9,39.4,199.9,39.9z"/>
	<path fill="#49494A" d="M207.6,42h-0.9l-2.1-3.4h0l0,0.2c0,0.4,0,0.7,0,1V42H204v-4.3h0.8l2.1,3.4h0c0,0,0-0.2,0-0.5s0-0.5,0-0.7
		v-2.2h0.6V42z"/>
	<path fill="#49494A" d="M210.2,42h-0.7v-3.7h-1.3v-0.6h3.2v0.6h-1.3V42z"/>
	<path fill="#49494A" d="M214.8,42l-0.4-1.2h-1.6l-0.4,1.2h-0.7l1.6-4.3h0.8l1.6,4.3H214.8z M214.1,40.2l-0.4-1.2
		c0-0.1-0.1-0.2-0.1-0.4c-0.1-0.2-0.1-0.3-0.1-0.4c-0.1,0.2-0.1,0.5-0.2,0.8l-0.4,1.1H214.1z"/>
	<path fill="#49494A" d="M217.9,38.3c-0.4,0-0.7,0.1-0.9,0.4s-0.3,0.7-0.3,1.2c0,0.5,0.1,0.9,0.3,1.2s0.5,0.4,1,0.4
		c0.2,0,0.4,0,0.5-0.1c0.2,0,0.3-0.1,0.5-0.1v0.6c-0.3,0.1-0.7,0.2-1.1,0.2c-0.6,0-1.1-0.2-1.4-0.6c-0.3-0.4-0.5-0.9-0.5-1.6
		c0-0.4,0.1-0.8,0.2-1.2c0.2-0.3,0.4-0.6,0.7-0.8c0.3-0.2,0.7-0.3,1.1-0.3c0.4,0,0.8,0.1,1.2,0.3l-0.3,0.6c-0.1-0.1-0.3-0.1-0.5-0.2
		C218.2,38.3,218.1,38.3,217.9,38.3z"/>
	<path fill="#49494A" d="M221.3,42h-0.7v-3.7h-1.3v-0.6h3.2v0.6h-1.3V42z"/>
</g>
<g>
	<path fill="#49494A" d="M234.8,41.2c0,0.4-0.1,0.7-0.4,0.9c-0.3,0.2-0.7,0.3-1.1,0.3s-0.9-0.1-1.2-0.2v-0.7
		c0.2,0.1,0.4,0.2,0.6,0.2c0.2,0.1,0.4,0.1,0.6,0.1c0.3,0,0.5-0.1,0.6-0.2c0.1-0.1,0.2-0.2,0.2-0.4c0-0.2-0.1-0.3-0.2-0.4
		c-0.1-0.1-0.4-0.2-0.7-0.4c-0.4-0.2-0.7-0.3-0.8-0.5c-0.2-0.2-0.2-0.4-0.2-0.7c0-0.4,0.1-0.6,0.4-0.8c0.3-0.2,0.6-0.3,1-0.3
		c0.4,0,0.8,0.1,1.2,0.3l-0.2,0.6c-0.4-0.2-0.7-0.2-1-0.2c-0.2,0-0.4,0-0.5,0.1c-0.1,0.1-0.2,0.2-0.2,0.4c0,0.1,0,0.2,0.1,0.3
		c0,0.1,0.1,0.2,0.2,0.2c0.1,0.1,0.3,0.2,0.6,0.3c0.3,0.1,0.5,0.3,0.7,0.4c0.1,0.1,0.3,0.2,0.3,0.4C234.8,40.8,234.8,41,234.8,41.2z
		"/>
	<path fill="#49494A" d="M238.1,42.3h-2.4v-4.3h2.4v0.6h-1.7v1.2h1.6v0.6h-1.6v1.3h1.7V42.3z"/>
	<path fill="#49494A" d="M241.6,42.3l-0.4-1.2h-1.6l-0.4,1.2h-0.7L240,38h0.8l1.6,4.3H241.6z M241,40.5l-0.4-1.2
		c0-0.1-0.1-0.2-0.1-0.4c-0.1-0.2-0.1-0.3-0.1-0.4c-0.1,0.2-0.1,0.5-0.2,0.8l-0.4,1.1H241z"/>
	<path fill="#49494A" d="M243.6,40.6v1.7h-0.7v-4.3h1.2c0.6,0,1,0.1,1.2,0.3c0.3,0.2,0.4,0.5,0.4,0.9c0,0.5-0.3,0.9-0.8,1.1l1.2,1.9
		h-0.8l-1-1.7H243.6z M243.6,40h0.5c0.3,0,0.6-0.1,0.7-0.2c0.1-0.1,0.2-0.3,0.2-0.5c0-0.2-0.1-0.4-0.2-0.5c-0.2-0.1-0.4-0.2-0.7-0.2
		h-0.5V40z"/>
	<path fill="#49494A" d="M248.6,38.6c-0.4,0-0.7,0.1-0.9,0.4s-0.3,0.7-0.3,1.2c0,0.5,0.1,0.9,0.3,1.2s0.5,0.4,1,0.4
		c0.2,0,0.4,0,0.5-0.1c0.2,0,0.3-0.1,0.5-0.1v0.6c-0.3,0.1-0.7,0.2-1.1,0.2c-0.6,0-1.1-0.2-1.4-0.6c-0.3-0.4-0.5-0.9-0.5-1.6
		c0-0.4,0.1-0.8,0.2-1.2c0.2-0.3,0.4-0.6,0.7-0.8c0.3-0.2,0.7-0.3,1.1-0.3c0.4,0,0.8,0.1,1.2,0.3l-0.3,0.6c-0.1-0.1-0.3-0.1-0.5-0.2
		C248.9,38.6,248.8,38.6,248.6,38.6z"/>
	<path fill="#49494A" d="M253.9,42.3h-0.7v-1.9h-2v1.9h-0.7v-4.3h0.7v1.7h2v-1.7h0.7V42.3z"/>
</g>
<g>
	<path fill="#49494A" d="M278.1,42v-4.3h0.7v3.7h1.8V42H278.1z"/>
	<path fill="#49494A" d="M285.1,39.9c0,0.7-0.2,1.2-0.5,1.6s-0.8,0.6-1.5,0.6c-0.6,0-1.1-0.2-1.5-0.6c-0.3-0.4-0.5-0.9-0.5-1.6
		c0-0.7,0.2-1.2,0.5-1.6c0.3-0.4,0.8-0.6,1.5-0.6c0.6,0,1.1,0.2,1.5,0.6C284.9,38.7,285.1,39.2,285.1,39.9z M281.8,39.9
		c0,0.5,0.1,0.9,0.3,1.2c0.2,0.3,0.5,0.4,0.9,0.4c0.4,0,0.7-0.1,0.9-0.4s0.3-0.7,0.3-1.2c0-0.5-0.1-0.9-0.3-1.2s-0.5-0.4-0.9-0.4
		c-0.4,0-0.7,0.1-0.9,0.4S281.8,39.4,281.8,39.9z"/>
	<path fill="#49494A" d="M287.8,39.7h1.6v2.1c-0.3,0.1-0.5,0.1-0.7,0.2c-0.2,0-0.5,0.1-0.8,0.1c-0.6,0-1.1-0.2-1.5-0.6
		c-0.3-0.4-0.5-0.9-0.5-1.6c0-0.7,0.2-1.2,0.6-1.6c0.4-0.4,0.9-0.6,1.6-0.6c0.4,0,0.9,0.1,1.3,0.3l-0.2,0.6c-0.3-0.2-0.7-0.2-1-0.2
		c-0.5,0-0.8,0.1-1.1,0.4c-0.3,0.3-0.4,0.7-0.4,1.2c0,0.5,0.1,0.9,0.4,1.2s0.6,0.4,1,0.4c0.2,0,0.5,0,0.7-0.1v-1.1h-0.9V39.7z"/>
	<path fill="#49494A" d="M290.4,42v-4.3h0.7V42H290.4z"/>
	<path fill="#49494A" d="M295.7,42h-0.9l-2.1-3.4h0l0,0.2c0,0.4,0,0.7,0,1V42h-0.6v-4.3h0.8l2.1,3.4h0c0,0,0-0.2,0-0.5s0-0.5,0-0.7
		v-2.2h0.6V42z"/>
</g>
<g>
	<path fill="#49494A" d="M356.7,37.6h0.7l-1.5,4.3h-0.7l-1.5-4.3h0.7l0.9,2.7c0,0.1,0.1,0.3,0.1,0.5s0.1,0.3,0.1,0.4
		c0-0.1,0.1-0.3,0.1-0.5c0.1-0.2,0.1-0.3,0.1-0.4L356.7,37.6z"/>
	<path fill="#49494A" d="M358,41.8v-4.3h0.7v4.3H358z"/>
	<path fill="#49494A" d="M362.2,41.8h-2.4v-4.3h2.4v0.6h-1.7v1.2h1.6v0.6h-1.6v1.3h1.7V41.8z"/>
	<path fill="#49494A" d="M367.1,41.8h-0.8l-0.7-2.5c0-0.1-0.1-0.3-0.1-0.5s-0.1-0.4-0.1-0.4c0,0.1-0.1,0.3-0.1,0.5
		c0,0.2-0.1,0.3-0.1,0.4l-0.7,2.5h-0.8l-0.6-2.1l-0.6-2.1h0.7l0.6,2.5c0.1,0.4,0.2,0.8,0.2,1.1c0-0.2,0.1-0.4,0.1-0.6
		s0.1-0.4,0.1-0.5l0.7-2.5h0.7l0.7,2.5c0.1,0.2,0.1,0.6,0.2,1c0-0.3,0.1-0.6,0.2-1.1l0.6-2.5h0.7L367.1,41.8z"/>
	<path fill="#49494A" d="M372.2,38.1c-0.4,0-0.7,0.1-0.9,0.4s-0.3,0.7-0.3,1.2c0,0.5,0.1,0.9,0.3,1.2s0.5,0.4,1,0.4
		c0.2,0,0.4,0,0.5-0.1c0.2,0,0.3-0.1,0.5-0.1v0.6c-0.3,0.1-0.7,0.2-1.1,0.2c-0.6,0-1.1-0.2-1.4-0.6c-0.3-0.4-0.5-0.9-0.5-1.6
		c0-0.4,0.1-0.8,0.2-1.2c0.2-0.3,0.4-0.6,0.7-0.8c0.3-0.2,0.7-0.3,1.1-0.3c0.4,0,0.8,0.1,1.2,0.3l-0.3,0.6c-0.1-0.1-0.3-0.1-0.5-0.2
		C372.5,38.1,372.3,38.1,372.2,38.1z"/>
	<path fill="#49494A" d="M376.8,41.8l-0.4-1.2h-1.6l-0.4,1.2h-0.7l1.6-4.3h0.8l1.6,4.3H376.8z M376.2,40.1l-0.4-1.2
		c0-0.1-0.1-0.2-0.1-0.4c-0.1-0.2-0.1-0.3-0.1-0.4c-0.1,0.2-0.1,0.5-0.2,0.8l-0.4,1.1H376.2z"/>
	<path fill="#49494A" d="M378.8,40.1v1.7h-0.7v-4.3h1.2c0.6,0,1,0.1,1.2,0.3c0.3,0.2,0.4,0.5,0.4,0.9c0,0.5-0.3,0.9-0.8,1.1l1.2,1.9
		h-0.8l-1-1.7H378.8z M378.8,39.6h0.5c0.3,0,0.6-0.1,0.7-0.2c0.1-0.1,0.2-0.3,0.2-0.5c0-0.2-0.1-0.4-0.2-0.5
		c-0.2-0.1-0.4-0.2-0.7-0.2h-0.5V39.6z"/>
	<path fill="#49494A" d="M383.4,41.8h-0.7v-3.7h-1.3v-0.6h3.2v0.6h-1.3V41.8z"/>
</g>
<rect x="81.3" y="19.5" fill="#40355E" width="1.9" height="14.6"/>
<rect x="167.3" y="20.7" fill="#D3D3D3" width="1.9" height="13.5"/>
<rect x="167.8" y="45.4" fill="#D3D3D3" width="1.9" height="15.3"/>
<rect x="207.1" y="21.4" fill="#D3D3D3" width="1.9" height="13.2"/>
<rect x="236.5" y="26.4" transform="matrix(1.262382e-03 1 -1 1.262382e-03 270.11 -215.7619)" fill="#1FA1B7" width="13.2" height="1.9"/>
<rect x="242.2" y="45" transform="matrix(1 6.054380e-03 -6.054380e-03 1 0.3311 -1.471)" fill="#1FA1B7" width="1.9" height="18"/>
<rect x="279.6" y="26.7" transform="matrix(2.743647e-02 0.9996 -0.9996 2.743647e-02 306.3089 -259.523)" fill="#D3D3D3" width="13.8" height="1.9"/>
<polygon fill="#D3D3D3" points="374.5,33.4 372.5,33.4 372.5,21.4 243.1,21.4 243.1,19.5 374.5,19.5 "/>
<polygon fill="#D3D3D3" points="10.1,144.1 10,83.1 16.9,83.3 16.8,85.3 11.9,85.1 12,142.1 20.2,142 20.3,143.9 "/>
<g>
	<path d="M20.7,81.6c-0.6,0-1.1,0.2-1.4,0.6c-0.3,0.4-0.5,0.9-0.5,1.6c0,0.7,0.2,1.2,0.5,1.6c0.3,0.4,0.8,0.6,1.4,0.6
		c0.4,0,0.8-0.1,1.1-0.2v0.3c-0.3,0.1-0.7,0.2-1.2,0.2c-0.7,0-1.2-0.2-1.6-0.7c-0.4-0.4-0.6-1.1-0.6-1.8c0-0.5,0.1-0.9,0.3-1.3
		s0.5-0.7,0.8-0.9c0.3-0.2,0.8-0.3,1.2-0.3c0.5,0,0.9,0.1,1.3,0.3l-0.1,0.3C21.5,81.7,21.1,81.6,20.7,81.6z"/>
	<path d="M24.9,86.2l-0.1-0.6h0c-0.2,0.2-0.4,0.4-0.6,0.5c-0.2,0.1-0.4,0.1-0.7,0.1c-0.4,0-0.6-0.1-0.8-0.3
		c-0.2-0.2-0.3-0.4-0.3-0.8c0-0.4,0.1-0.6,0.4-0.8c0.3-0.2,0.7-0.3,1.3-0.3l0.7,0v-0.2c0-0.3-0.1-0.6-0.2-0.8
		c-0.1-0.2-0.4-0.3-0.7-0.3c-0.3,0-0.7,0.1-1,0.3l-0.1-0.3c0.4-0.2,0.8-0.3,1.2-0.3c0.4,0,0.7,0.1,0.9,0.3c0.2,0.2,0.3,0.5,0.3,1
		v2.4H24.9z M23.6,86c0.4,0,0.7-0.1,0.9-0.3c0.2-0.2,0.3-0.5,0.3-0.9v-0.4l-0.6,0c-0.5,0-0.9,0.1-1.1,0.2c-0.2,0.1-0.3,0.3-0.3,0.6
		c0,0.2,0.1,0.4,0.2,0.5S23.4,86,23.6,86z"/>
	<path d="M27.3,86c0.2,0,0.4,0,0.5-0.1v0.3c-0.2,0.1-0.3,0.1-0.5,0.1c-0.3,0-0.6-0.1-0.7-0.3s-0.2-0.4-0.2-0.8v-2.3h-0.5v-0.2
		l0.5-0.2l0.2-0.8h0.2v0.9h1.1v0.3h-1.1v2.3c0,0.3,0,0.5,0.1,0.6C26.9,86,27.1,86,27.3,86z"/>
	<path d="M30.1,86.3c-0.5,0-0.9-0.2-1.2-0.5s-0.4-0.8-0.4-1.4c0-0.6,0.1-1,0.4-1.4c0.3-0.3,0.7-0.5,1.1-0.5c0.4,0,0.8,0.1,1,0.4
		c0.2,0.3,0.4,0.7,0.4,1.2v0.3h-2.6c0,0.5,0.1,0.9,0.3,1.1c0.2,0.3,0.5,0.4,1,0.4c0.2,0,0.4,0,0.5,0c0.2,0,0.4-0.1,0.6-0.2v0.3
		c-0.2,0.1-0.4,0.1-0.6,0.2C30.5,86.3,30.3,86.3,30.1,86.3z M30,82.9c-0.3,0-0.6,0.1-0.8,0.3c-0.2,0.2-0.3,0.6-0.4,1H31
		c0-0.4-0.1-0.7-0.3-1S30.3,82.9,30,82.9z"/>
	<path d="M35.1,82.7v0.2l-0.7,0c0.2,0.2,0.3,0.5,0.3,0.8c0,0.3-0.1,0.6-0.3,0.8c-0.2,0.2-0.5,0.3-0.9,0.3c-0.2,0-0.3,0-0.3,0
		c-0.1,0.1-0.2,0.2-0.3,0.2c-0.1,0.1-0.1,0.2-0.1,0.3c0,0.1,0,0.2,0.1,0.3c0.1,0.1,0.2,0.1,0.4,0.1h0.6c0.4,0,0.7,0.1,0.9,0.2
		c0.2,0.2,0.3,0.4,0.3,0.7c0,0.4-0.2,0.7-0.5,0.9c-0.3,0.2-0.7,0.3-1.3,0.3c-0.5,0-0.8-0.1-1.1-0.3c-0.2-0.2-0.4-0.4-0.4-0.7
		c0-0.2,0.1-0.5,0.2-0.6c0.2-0.2,0.4-0.3,0.6-0.3c-0.1,0-0.2-0.1-0.3-0.2c-0.1-0.1-0.1-0.2-0.1-0.3c0-0.2,0.2-0.5,0.5-0.6
		c-0.2-0.1-0.4-0.2-0.5-0.4c-0.1-0.2-0.2-0.4-0.2-0.6c0-0.4,0.1-0.6,0.3-0.9c0.2-0.2,0.5-0.3,0.9-0.3c0.2,0,0.4,0,0.5,0.1H35.1z
		 M32.2,86.9c0,0.5,0.4,0.7,1.1,0.7c0.9,0,1.4-0.3,1.4-0.9c0-0.2-0.1-0.4-0.2-0.5c-0.1-0.1-0.4-0.1-0.7-0.1h-0.6
		C32.6,86.1,32.2,86.3,32.2,86.9z M32.5,83.8c0,0.3,0.1,0.5,0.3,0.6c0.2,0.2,0.4,0.2,0.7,0.2c0.3,0,0.5-0.1,0.7-0.2
		c0.2-0.2,0.2-0.4,0.2-0.7c0-0.3-0.1-0.5-0.2-0.7c-0.2-0.2-0.4-0.2-0.7-0.2c-0.3,0-0.5,0.1-0.7,0.2C32.6,83.3,32.5,83.5,32.5,83.8z"
		/>
	<path d="M38.9,84.4c0,0.6-0.1,1-0.4,1.4c-0.3,0.3-0.7,0.5-1.2,0.5c-0.3,0-0.6-0.1-0.8-0.2s-0.4-0.4-0.6-0.7c-0.1-0.3-0.2-0.6-0.2-1
		c0-0.6,0.1-1,0.4-1.4c0.3-0.3,0.7-0.5,1.2-0.5c0.5,0,0.9,0.2,1.2,0.5S38.9,83.9,38.9,84.4z M36,84.4c0,0.5,0.1,0.9,0.3,1.2
		s0.5,0.4,0.9,0.4c0.4,0,0.7-0.1,0.9-0.4c0.2-0.3,0.3-0.7,0.3-1.2c0-0.5-0.1-0.9-0.3-1.2c-0.2-0.3-0.5-0.4-0.9-0.4
		c-0.4,0-0.7,0.1-0.9,0.4C36.1,83.6,36,83.9,36,84.4z"/>
	<path d="M41.3,82.6c0.2,0,0.3,0,0.5,0l-0.1,0.3c-0.1,0-0.3-0.1-0.5-0.1c-0.3,0-0.6,0.1-0.8,0.4c-0.2,0.3-0.3,0.6-0.3,1v2h-0.3v-3.6
		h0.3l0,0.6h0c0.1-0.3,0.3-0.4,0.5-0.6S41,82.6,41.3,82.6z"/>
	<path d="M41.9,82.7h0.3l0.8,2c0.2,0.6,0.4,1,0.4,1.3h0c0.1-0.3,0.2-0.7,0.5-1.3l0.8-2H45l-1.6,4.2c-0.1,0.3-0.2,0.6-0.3,0.7
		s-0.2,0.2-0.3,0.3c-0.1,0.1-0.3,0.1-0.4,0.1c-0.1,0-0.3,0-0.4-0.1v-0.3c0.1,0,0.3,0.1,0.4,0.1c0.1,0,0.2,0,0.3-0.1s0.2-0.1,0.2-0.2
		c0.1-0.1,0.1-0.3,0.2-0.5c0.1-0.2,0.2-0.4,0.2-0.5L41.9,82.7z"/>
</g>
<g>
	<g>
		<path fill="#0D0B0B" d="M27.2,104.1h-2l-0.7,1.7h-0.4l1.9-4.9h0.2l1.9,4.9h-0.4L27.2,104.1z M25.3,103.8h1.7l-0.7-1.7
			c-0.1-0.1-0.1-0.3-0.2-0.6c-0.1,0.2-0.1,0.4-0.2,0.6L25.3,103.8z"/>
		<path fill="#0D0B0B" d="M31.6,102.3v0.2l-0.7,0c0.2,0.2,0.3,0.5,0.3,0.8c0,0.3-0.1,0.6-0.3,0.8c-0.2,0.2-0.5,0.3-0.9,0.3
			c-0.2,0-0.3,0-0.3,0c-0.1,0.1-0.2,0.2-0.3,0.2c-0.1,0.1-0.1,0.2-0.1,0.3c0,0.1,0,0.2,0.1,0.3c0.1,0.1,0.2,0.1,0.4,0.1h0.6
			c0.4,0,0.7,0.1,0.9,0.2c0.2,0.2,0.3,0.4,0.3,0.7c0,0.4-0.2,0.7-0.5,0.9c-0.3,0.2-0.7,0.3-1.3,0.3c-0.5,0-0.8-0.1-1.1-0.3
			c-0.2-0.2-0.4-0.4-0.4-0.7c0-0.2,0.1-0.5,0.2-0.6c0.2-0.2,0.4-0.3,0.6-0.3c-0.1,0-0.2-0.1-0.3-0.2c-0.1-0.1-0.1-0.2-0.1-0.3
			c0-0.2,0.2-0.5,0.5-0.6c-0.2-0.1-0.4-0.2-0.5-0.4c-0.1-0.2-0.2-0.4-0.2-0.6c0-0.4,0.1-0.6,0.3-0.9c0.2-0.2,0.5-0.3,0.9-0.3
			c0.2,0,0.4,0,0.5,0.1H31.6z M28.7,106.5c0,0.5,0.4,0.7,1.1,0.7c0.9,0,1.4-0.3,1.4-0.9c0-0.2-0.1-0.4-0.2-0.5
			c-0.1-0.1-0.4-0.1-0.7-0.1h-0.6C29.1,105.7,28.7,105.9,28.7,106.5z M29,103.4c0,0.3,0.1,0.5,0.3,0.6c0.2,0.2,0.4,0.2,0.7,0.2
			c0.3,0,0.5-0.1,0.7-0.2c0.2-0.2,0.2-0.4,0.2-0.7c0-0.3-0.1-0.5-0.2-0.7c-0.2-0.2-0.4-0.2-0.7-0.2c-0.3,0-0.5,0.1-0.7,0.2
			C29.1,102.9,29,103.1,29,103.4z"/>
		<path fill="#0D0B0B" d="M33.8,105.9c-0.5,0-0.9-0.2-1.2-0.5s-0.4-0.8-0.4-1.4c0-0.6,0.1-1,0.4-1.4c0.3-0.3,0.7-0.5,1.1-0.5
			c0.4,0,0.8,0.1,1,0.4c0.2,0.3,0.4,0.7,0.4,1.2v0.3h-2.6c0,0.5,0.1,0.9,0.3,1.1c0.2,0.3,0.5,0.4,1,0.4c0.2,0,0.4,0,0.5,0
			c0.2,0,0.4-0.1,0.6-0.2v0.3c-0.2,0.1-0.4,0.1-0.6,0.2C34.2,105.9,34,105.9,33.8,105.9z M33.7,102.5c-0.3,0-0.6,0.1-0.8,0.3
			c-0.2,0.2-0.3,0.6-0.4,1h2.2c0-0.4-0.1-0.7-0.3-1S34.1,102.5,33.7,102.5z"/>
	</g>
</g>
<g>
	<g>
		<path fill="#0C0808" d="M23.1,121h1.3c0.6,0,1,0.1,1.3,0.3c0.3,0.2,0.4,0.5,0.4,0.9c0,0.3-0.1,0.5-0.3,0.7
			c-0.2,0.2-0.4,0.3-0.7,0.4v0c0.4,0.1,0.7,0.2,0.9,0.4c0.2,0.2,0.3,0.4,0.3,0.8c0,0.4-0.1,0.8-0.4,1c-0.3,0.2-0.7,0.4-1.3,0.4h-1.5
			V121z M23.5,123.1h1.1c0.5,0,0.8-0.1,1-0.2c0.2-0.2,0.3-0.4,0.3-0.7s-0.1-0.6-0.3-0.7c-0.2-0.1-0.6-0.2-1-0.2h-1V123.1z
			 M23.5,123.4v2.1h1.1c0.9,0,1.3-0.4,1.3-1.1c0-0.7-0.5-1-1.4-1H23.5z"/>
		<path fill="#0C0808" d="M28.7,122.1c0.2,0,0.3,0,0.5,0l-0.1,0.3c-0.1,0-0.3-0.1-0.5-0.1c-0.3,0-0.6,0.1-0.8,0.4s-0.3,0.6-0.3,1v2
			h-0.3v-3.6h0.3l0,0.6h0c0.1-0.3,0.3-0.5,0.5-0.6C28.3,122.2,28.5,122.1,28.7,122.1z"/>
		<path fill="#0C0808" d="M32.1,125.8l-0.1-0.6h0c-0.2,0.2-0.4,0.4-0.6,0.5c-0.2,0.1-0.4,0.1-0.7,0.1c-0.4,0-0.6-0.1-0.8-0.3
			c-0.2-0.2-0.3-0.4-0.3-0.8c0-0.3,0.1-0.6,0.4-0.8s0.7-0.3,1.3-0.3l0.7,0v-0.2c0-0.3-0.1-0.6-0.2-0.8c-0.1-0.2-0.4-0.3-0.7-0.3
			c-0.3,0-0.7,0.1-1,0.3l-0.1-0.3c0.4-0.2,0.8-0.3,1.2-0.3c0.4,0,0.7,0.1,0.9,0.3c0.2,0.2,0.3,0.5,0.3,1v2.4H32.1z M30.8,125.6
			c0.4,0,0.7-0.1,0.9-0.3c0.2-0.2,0.3-0.5,0.3-0.9V124l-0.6,0c-0.5,0-0.9,0.1-1.1,0.2s-0.3,0.3-0.3,0.6c0,0.2,0.1,0.4,0.2,0.5
			C30.4,125.5,30.5,125.6,30.8,125.6z"/>
		<path fill="#0C0808" d="M36,125.8v-2.3c0-0.4-0.1-0.6-0.2-0.8c-0.2-0.2-0.4-0.2-0.7-0.2c-0.4,0-0.7,0.1-0.9,0.3
			c-0.2,0.2-0.3,0.6-0.3,1.1v2h-0.3v-3.6h0.3l0.1,0.5h0c0.2-0.4,0.6-0.6,1.2-0.6c0.8,0,1.2,0.4,1.2,1.3v2.4H36z"/>
		<path fill="#0C0808" d="M38.8,122.1c0.3,0,0.5,0,0.7,0.1c0.2,0.1,0.4,0.3,0.5,0.5h0c0-0.3,0-0.6,0-0.8v-1.3h0.3v5.1h-0.2l-0.1-0.5
			h0c-0.3,0.4-0.7,0.6-1.2,0.6c-0.5,0-0.9-0.2-1.1-0.5c-0.3-0.3-0.4-0.8-0.4-1.3c0-0.6,0.1-1.1,0.4-1.4
			C38,122.3,38.3,122.1,38.8,122.1z M38.8,122.4c-0.4,0-0.7,0.1-0.9,0.4c-0.2,0.3-0.3,0.7-0.3,1.2c0,1,0.4,1.5,1.2,1.5
			c0.4,0,0.7-0.1,0.9-0.4c0.2-0.2,0.3-0.6,0.3-1.2V124c0-0.6-0.1-1-0.3-1.2S39.3,122.4,38.8,122.4z"/>
	</g>
</g>
<g>
	<g>
		<path d="M32.3,143.9H32v-4.5h-1.6V139h3.5v0.3h-1.6V143.9z"/>
		<path d="M37.5,142.1c0,0.6-0.1,1-0.4,1.4c-0.3,0.3-0.7,0.5-1.2,0.5c-0.3,0-0.6-0.1-0.8-0.2s-0.4-0.4-0.6-0.7
			c-0.1-0.3-0.2-0.6-0.2-1c0-0.6,0.1-1,0.4-1.4c0.3-0.3,0.7-0.5,1.2-0.5c0.5,0,0.9,0.2,1.2,0.5S37.5,141.5,37.5,142.1z M34.7,142.1
			c0,0.5,0.1,0.9,0.3,1.2s0.5,0.4,0.9,0.4c0.4,0,0.7-0.1,0.9-0.4c0.2-0.3,0.3-0.7,0.3-1.2c0-0.5-0.1-0.9-0.3-1.2
			c-0.2-0.3-0.5-0.4-0.9-0.4c-0.4,0-0.7,0.1-0.9,0.4C34.8,141.2,34.7,141.6,34.7,142.1z"/>
		<path d="M40,143.9c-0.6,0-1-0.2-1.2-0.6h0l0,0.3c0,0.2,0,0.3,0,0.5v1.4h-0.3v-5.2h0.3l0.1,0.5h0c0.2-0.4,0.6-0.6,1.2-0.6
			c0.5,0,0.9,0.2,1.1,0.5c0.3,0.3,0.4,0.8,0.4,1.4c0,0.6-0.1,1-0.4,1.4C40.9,143.8,40.5,143.9,40,143.9z M40,143.6
			c0.4,0,0.7-0.1,0.9-0.4c0.2-0.3,0.3-0.7,0.3-1.1c0-1.1-0.4-1.6-1.1-1.6c-0.4,0-0.7,0.1-0.9,0.3s-0.3,0.6-0.3,1.1v0.1
			c0,0.6,0.1,1,0.3,1.2C39.3,143.5,39.6,143.6,40,143.6z"/>
		<path d="M47.1,143.9h-3v-0.3l1.3-1.3c0.4-0.4,0.6-0.7,0.8-0.9c0.1-0.2,0.3-0.4,0.3-0.6s0.1-0.4,0.1-0.6c0-0.3-0.1-0.5-0.3-0.7
			c-0.2-0.2-0.4-0.3-0.7-0.3c-0.4,0-0.8,0.1-1.2,0.4l-0.2-0.2c0.4-0.3,0.9-0.5,1.3-0.5c0.4,0,0.8,0.1,1,0.3s0.4,0.5,0.4,0.9
			c0,0.3-0.1,0.6-0.2,0.9s-0.5,0.7-0.9,1.1l-1.2,1.3v0h2.6V143.9z"/>
		<path d="M51,141.4c0,0.8-0.1,1.5-0.4,1.9c-0.3,0.4-0.7,0.6-1.2,0.6c-0.5,0-0.9-0.2-1.2-0.6c-0.3-0.4-0.4-1-0.4-1.9
			c0-0.8,0.1-1.5,0.4-1.9s0.6-0.6,1.2-0.6c0.5,0,0.9,0.2,1.2,0.6C50.9,140,51,140.6,51,141.4z M48.3,141.4c0,0.8,0.1,1.3,0.3,1.7
			c0.2,0.4,0.5,0.5,0.9,0.5c0.4,0,0.7-0.2,0.9-0.6c0.2-0.4,0.3-0.9,0.3-1.6c0-0.7-0.1-1.3-0.3-1.6c-0.2-0.4-0.5-0.6-0.9-0.6
			c-0.4,0-0.7,0.2-0.9,0.6S48.3,140.7,48.3,141.4z"/>
	</g>
</g>
<polygon fill="#87C9E9" points="21.2,125.1 9.8,125.1 10.1,110.9 0,110.8 0,59.7 32.9,59.7 33.1,45.1 35,45.1 34.8,61.6 1.9,61.6 
	1.9,108.9 12,108.9 11.8,123.2 21.2,123.2 "/>
<polygon fill="#D3D3D3" points="325.6,79.6 325.6,52.3 372.2,52.3 372.4,45.3 374.4,45.3 374.1,54.2 327.5,54.2 327.5,77.6 
	337.3,77.3 337.3,79.3 "/>
<rect x="75" y="116.7" fill="#87C9E9" width="1.9" height="20.6"/>
<g>
	<path fill="#020202" d="M66.5,109.9c0,0.5-0.2,0.8-0.5,1.1s-0.8,0.4-1.3,0.4h-0.7v2h-0.3v-4.8h1.2C65.9,108.5,66.5,109,66.5,109.9z
		 M63.9,111h0.7c0.5,0,0.9-0.1,1.2-0.3c0.2-0.2,0.4-0.5,0.4-0.9c0-0.4-0.1-0.6-0.3-0.8s-0.6-0.3-1.1-0.3h-0.8V111z"/>
	<path fill="#020202" d="M68.8,109.7c0.2,0,0.3,0,0.5,0l-0.1,0.3c-0.1,0-0.3-0.1-0.5-0.1c-0.3,0-0.6,0.1-0.8,0.4
		c-0.2,0.3-0.3,0.6-0.3,1v2h-0.3v-3.6h0.3l0,0.6h0c0.1-0.3,0.3-0.4,0.5-0.6S68.6,109.7,68.8,109.7z"/>
	<path fill="#020202" d="M73,111.5c0,0.6-0.1,1-0.4,1.4c-0.3,0.3-0.7,0.5-1.2,0.5c-0.3,0-0.6-0.1-0.8-0.2s-0.4-0.4-0.6-0.7
		c-0.1-0.3-0.2-0.6-0.2-1c0-0.6,0.1-1,0.4-1.4c0.3-0.3,0.7-0.5,1.2-0.5c0.5,0,0.9,0.2,1.2,0.5S73,110.9,73,111.5z M70.2,111.5
		c0,0.5,0.1,0.9,0.3,1.2s0.5,0.4,0.9,0.4c0.4,0,0.7-0.1,0.9-0.4c0.2-0.3,0.3-0.7,0.3-1.2c0-0.5-0.1-0.9-0.3-1.2
		c-0.2-0.3-0.5-0.4-0.9-0.4c-0.4,0-0.7,0.1-0.9,0.4C70.3,110.6,70.2,111,70.2,111.5z"/>
	<path fill="#020202" d="M75.3,109.7c0.3,0,0.5,0,0.7,0.1c0.2,0.1,0.4,0.3,0.5,0.5h0c0-0.3,0-0.5,0-0.8v-1.3h0.3v5.1h-0.2l-0.1-0.5
		h0c-0.3,0.4-0.7,0.6-1.2,0.6c-0.5,0-0.9-0.2-1.1-0.5s-0.4-0.8-0.4-1.3c0-0.6,0.1-1.1,0.4-1.4C74.5,109.8,74.8,109.7,75.3,109.7z
		 M75.3,110c-0.4,0-0.7,0.1-0.9,0.4c-0.2,0.3-0.3,0.7-0.3,1.2c0,1,0.4,1.5,1.2,1.5c0.4,0,0.7-0.1,0.9-0.4s0.3-0.6,0.3-1.2v-0.1
		c0-0.6-0.1-1-0.3-1.2C76.1,110.1,75.8,110,75.3,110z"/>
	<path fill="#020202" d="M78.3,109.7v2.3c0,0.4,0.1,0.6,0.2,0.8c0.2,0.2,0.4,0.2,0.7,0.2c0.4,0,0.7-0.1,0.9-0.3
		c0.2-0.2,0.3-0.6,0.3-1.1v-2h0.3v3.6h-0.3l-0.1-0.5h0c-0.2,0.4-0.7,0.6-1.2,0.6c-0.8,0-1.2-0.4-1.2-1.3v-2.3H78.3z"/>
	<path fill="#020202" d="M83.5,113.4c-0.5,0-0.9-0.2-1.2-0.5s-0.4-0.8-0.4-1.4c0-0.6,0.2-1.1,0.5-1.4c0.3-0.3,0.7-0.5,1.2-0.5
		c0.3,0,0.6,0.1,0.9,0.2l-0.1,0.3c-0.3-0.1-0.6-0.2-0.8-0.2c-0.4,0-0.8,0.1-1,0.4c-0.2,0.3-0.3,0.7-0.3,1.2c0,0.5,0.1,0.9,0.3,1.1
		c0.2,0.3,0.5,0.4,1,0.4c0.3,0,0.6-0.1,0.9-0.2v0.3C84.2,113.3,83.9,113.4,83.5,113.4z"/>
	<path fill="#020202" d="M86.2,113.1c0.2,0,0.4,0,0.5-0.1v0.3c-0.2,0.1-0.3,0.1-0.5,0.1c-0.3,0-0.6-0.1-0.7-0.3s-0.2-0.4-0.2-0.8
		V110h-0.5v-0.2l0.5-0.2l0.2-0.8h0.2v0.9h1.1v0.3h-1.1v2.3c0,0.3,0,0.5,0.1,0.6C85.9,113,86,113.1,86.2,113.1z"/>
	<path fill="#020202" d="M89.8,112.4c0,0.3-0.1,0.6-0.4,0.7c-0.2,0.2-0.6,0.3-1,0.3c-0.5,0-0.9-0.1-1.1-0.2v-0.4
		c0.4,0.2,0.7,0.3,1.1,0.3c0.4,0,0.6-0.1,0.8-0.2c0.2-0.1,0.3-0.3,0.3-0.5c0-0.2-0.1-0.3-0.2-0.5c-0.1-0.1-0.4-0.2-0.7-0.4
		c-0.4-0.1-0.6-0.2-0.8-0.3c-0.1-0.1-0.3-0.2-0.3-0.3c-0.1-0.1-0.1-0.3-0.1-0.4c0-0.3,0.1-0.5,0.3-0.6c0.2-0.2,0.5-0.2,0.9-0.2
		c0.4,0,0.8,0.1,1.1,0.2l-0.1,0.3c-0.4-0.1-0.7-0.2-1-0.2c-0.3,0-0.5,0-0.7,0.1c-0.2,0.1-0.3,0.2-0.3,0.4c0,0.2,0.1,0.3,0.2,0.5
		c0.1,0.1,0.4,0.2,0.8,0.4c0.3,0.1,0.6,0.2,0.7,0.3c0.1,0.1,0.3,0.2,0.3,0.3S89.8,112.2,89.8,112.4z"/>
</g>
<g>
	<path d="M158.3,69.3v-4.8h0.3V69h2.3v0.3H158.3z"/>
	<path d="M164.7,67.5c0,0.6-0.1,1-0.4,1.4c-0.3,0.3-0.7,0.5-1.2,0.5c-0.3,0-0.6-0.1-0.8-0.2s-0.4-0.4-0.6-0.7
		c-0.1-0.3-0.2-0.6-0.2-1c0-0.6,0.1-1,0.4-1.4c0.3-0.3,0.7-0.5,1.2-0.5c0.5,0,0.9,0.2,1.2,0.5S164.7,66.9,164.7,67.5z M161.8,67.5
		c0,0.5,0.1,0.9,0.3,1.2c0.2,0.3,0.5,0.4,0.9,0.4c0.4,0,0.7-0.1,0.9-0.4c0.2-0.3,0.3-0.7,0.3-1.2c0-0.5-0.1-0.9-0.3-1.2
		c-0.2-0.3-0.5-0.4-0.9-0.4s-0.7,0.1-0.9,0.4S161.8,67,161.8,67.5z"/>
	<path d="M165.1,65.7h0.3l0.8,2c0.2,0.6,0.4,1,0.4,1.3h0c0.1-0.3,0.2-0.7,0.5-1.3l0.8-2h0.3l-1.6,4.2c-0.1,0.3-0.2,0.6-0.3,0.7
		s-0.2,0.2-0.3,0.3s-0.3,0.1-0.4,0.1c-0.1,0-0.3,0-0.4-0.1v-0.3c0.1,0,0.3,0.1,0.4,0.1c0.1,0,0.2,0,0.3-0.1s0.2-0.1,0.2-0.2
		s0.2-0.3,0.2-0.5c0.1-0.2,0.2-0.4,0.2-0.5L165.1,65.7z"/>
	<path d="M171,69.3l-0.1-0.6h0c-0.2,0.2-0.4,0.4-0.6,0.5c-0.2,0.1-0.4,0.1-0.7,0.1c-0.4,0-0.6-0.1-0.8-0.3c-0.2-0.2-0.3-0.4-0.3-0.8
		c0-0.4,0.1-0.6,0.4-0.8c0.3-0.2,0.7-0.3,1.3-0.3l0.7,0V67c0-0.3-0.1-0.6-0.2-0.8c-0.1-0.2-0.4-0.3-0.7-0.3c-0.3,0-0.7,0.1-1,0.3
		l-0.1-0.3c0.4-0.2,0.8-0.3,1.2-0.3c0.4,0,0.7,0.1,0.9,0.3c0.2,0.2,0.3,0.5,0.3,1v2.4H171z M169.6,69.1c0.4,0,0.7-0.1,0.9-0.3
		c0.2-0.2,0.3-0.5,0.3-0.9v-0.4l-0.6,0c-0.5,0-0.9,0.1-1.1,0.2c-0.2,0.1-0.3,0.3-0.3,0.6c0,0.2,0.1,0.4,0.2,0.5
		C169.2,69,169.4,69.1,169.6,69.1z"/>
	<path d="M172.7,69.3h-0.3v-5.1h0.3V69.3z"/>
	<path d="M174.8,69.1c0.2,0,0.4,0,0.5-0.1v0.3c-0.2,0.1-0.3,0.1-0.5,0.1c-0.3,0-0.6-0.1-0.7-0.3c-0.2-0.2-0.2-0.4-0.2-0.8V66h-0.5
		v-0.2l0.5-0.1l0.2-0.8h0.2v0.9h1.1V66h-1.1v2.3c0,0.3,0,0.5,0.1,0.6C174.5,69,174.6,69.1,174.8,69.1z"/>
	<path d="M175.6,65.7h0.3l0.8,2c0.2,0.6,0.4,1,0.4,1.3h0c0.1-0.3,0.2-0.7,0.5-1.3l0.8-2h0.3l-1.6,4.2c-0.1,0.3-0.2,0.6-0.3,0.7
		s-0.2,0.2-0.3,0.3c-0.1,0.1-0.3,0.1-0.4,0.1c-0.1,0-0.3,0-0.4-0.1v-0.3c0.1,0,0.3,0.1,0.4,0.1c0.1,0,0.2,0,0.3-0.1s0.2-0.1,0.2-0.2
		c0.1-0.1,0.1-0.3,0.2-0.5c0.1-0.2,0.2-0.4,0.2-0.5L175.6,65.7z"/>
	<path d="M159.5,74c0,0.5-0.2,0.8-0.5,1.1c-0.3,0.2-0.8,0.4-1.3,0.4h-0.7v2h-0.3v-4.8h1.2C158.9,72.6,159.5,73.1,159.5,74z
		 M156.9,75.2h0.7c0.5,0,0.9-0.1,1.2-0.3c0.2-0.2,0.4-0.5,0.4-0.9c0-0.4-0.1-0.6-0.3-0.8c-0.2-0.2-0.6-0.3-1.1-0.3h-0.8V75.2z"/>
	<path d="M161.8,73.8c0.2,0,0.3,0,0.5,0l-0.1,0.3c-0.2,0-0.3-0.1-0.5-0.1c-0.3,0-0.6,0.1-0.8,0.4c-0.2,0.3-0.3,0.6-0.3,1v2h-0.3
		v-3.6h0.3l0,0.6h0c0.1-0.3,0.3-0.5,0.5-0.6C161.4,73.8,161.6,73.8,161.8,73.8z"/>
	<path d="M166,75.6c0,0.6-0.1,1-0.4,1.4c-0.3,0.3-0.7,0.5-1.2,0.5c-0.3,0-0.6-0.1-0.8-0.2s-0.4-0.4-0.6-0.7c-0.1-0.3-0.2-0.6-0.2-1
		c0-0.6,0.1-1,0.4-1.4c0.3-0.3,0.7-0.5,1.2-0.5c0.5,0,0.9,0.2,1.2,0.5S166,75.1,166,75.6z M163.2,75.6c0,0.5,0.1,0.9,0.3,1.2
		c0.2,0.3,0.5,0.4,0.9,0.4c0.4,0,0.7-0.1,0.9-0.4c0.2-0.3,0.3-0.7,0.3-1.2c0-0.5-0.1-0.9-0.3-1.2c-0.2-0.3-0.5-0.4-0.9-0.4
		s-0.7,0.1-0.9,0.4S163.2,75.2,163.2,75.6z"/>
	<path d="M169.8,73.9v0.2l-0.7,0c0.2,0.2,0.3,0.5,0.3,0.8c0,0.3-0.1,0.6-0.3,0.8c-0.2,0.2-0.5,0.3-0.9,0.3c-0.2,0-0.3,0-0.3,0
		c-0.1,0.1-0.2,0.1-0.3,0.2s-0.1,0.2-0.1,0.3c0,0.1,0,0.2,0.1,0.3c0.1,0.1,0.2,0.1,0.4,0.1h0.6c0.4,0,0.7,0.1,0.9,0.2
		c0.2,0.2,0.3,0.4,0.3,0.7c0,0.4-0.2,0.7-0.5,0.9c-0.3,0.2-0.7,0.3-1.3,0.3c-0.5,0-0.8-0.1-1.1-0.3s-0.4-0.4-0.4-0.7
		c0-0.2,0.1-0.5,0.2-0.6c0.2-0.2,0.4-0.3,0.6-0.3c-0.1,0-0.2-0.1-0.3-0.2c-0.1-0.1-0.1-0.2-0.1-0.3c0-0.2,0.2-0.5,0.5-0.6
		c-0.2-0.1-0.4-0.2-0.5-0.4s-0.2-0.4-0.2-0.6c0-0.4,0.1-0.6,0.3-0.9c0.2-0.2,0.5-0.3,0.9-0.3c0.2,0,0.4,0,0.5,0.1H169.8z
		 M166.9,78.1c0,0.5,0.4,0.7,1.1,0.7c0.9,0,1.4-0.3,1.4-0.9c0-0.2-0.1-0.4-0.2-0.5c-0.1-0.1-0.4-0.1-0.7-0.1h-0.6
		C167.3,77.3,166.9,77.5,166.9,78.1z M167.2,75c0,0.3,0.1,0.5,0.3,0.6c0.2,0.2,0.4,0.2,0.7,0.2c0.3,0,0.5-0.1,0.7-0.2
		s0.2-0.4,0.2-0.7c0-0.3-0.1-0.5-0.2-0.7c-0.2-0.2-0.4-0.2-0.7-0.2c-0.3,0-0.5,0.1-0.7,0.2C167.3,74.5,167.2,74.7,167.2,75z"/>
	<path d="M172,73.8c0.2,0,0.3,0,0.5,0l-0.1,0.3c-0.2,0-0.3-0.1-0.5-0.1c-0.3,0-0.6,0.1-0.8,0.4c-0.2,0.3-0.3,0.6-0.3,1v2h-0.3v-3.6
		h0.3l0,0.6h0c0.1-0.3,0.3-0.5,0.5-0.6C171.6,73.8,171.8,73.8,172,73.8z"/>
	<path d="M175.4,77.5l-0.1-0.6h0c-0.2,0.2-0.4,0.4-0.6,0.5c-0.2,0.1-0.4,0.1-0.7,0.1c-0.4,0-0.6-0.1-0.8-0.3
		c-0.2-0.2-0.3-0.4-0.3-0.8c0-0.4,0.1-0.6,0.4-0.8c0.3-0.2,0.7-0.3,1.3-0.3l0.7,0v-0.2c0-0.3-0.1-0.6-0.2-0.8
		c-0.1-0.2-0.4-0.3-0.7-0.3c-0.3,0-0.7,0.1-1,0.3l-0.1-0.3c0.4-0.2,0.8-0.3,1.2-0.3c0.4,0,0.7,0.1,0.9,0.3s0.3,0.5,0.3,1v2.4H175.4z
		 M174.1,77.2c0.4,0,0.7-0.1,0.9-0.3c0.2-0.2,0.3-0.5,0.3-0.9v-0.4l-0.6,0c-0.5,0-0.9,0.1-1.1,0.2c-0.2,0.1-0.3,0.3-0.3,0.6
		c0,0.2,0.1,0.4,0.2,0.5C173.6,77.2,173.8,77.2,174.1,77.2z"/>
	<path d="M181.3,77.5v-2.4c0-0.4-0.1-0.6-0.2-0.8s-0.3-0.2-0.6-0.2c-0.4,0-0.6,0.1-0.8,0.3c-0.2,0.2-0.3,0.5-0.3,1v2.1H179V75
		c0-0.6-0.3-0.9-0.8-0.9c-0.4,0-0.7,0.1-0.8,0.3c-0.2,0.2-0.3,0.6-0.3,1.1v2h-0.3v-3.6h0.3l0.1,0.5h0c0.1-0.2,0.2-0.3,0.4-0.4
		c0.2-0.1,0.4-0.1,0.6-0.1c0.6,0,0.9,0.2,1.1,0.6h0c0.1-0.2,0.3-0.4,0.5-0.5s0.4-0.2,0.7-0.2c0.4,0,0.7,0.1,0.9,0.3
		c0.2,0.2,0.3,0.5,0.3,1v2.4H181.3z"/>
</g>
<g>
	<path d="M75.4,140.8c0,0.5-0.2,0.8-0.5,1.1s-0.8,0.4-1.3,0.4h-0.7v2h-0.3v-4.8h1.2C74.8,139.5,75.4,139.9,75.4,140.8z M72.8,142
		h0.7c0.5,0,0.9-0.1,1.2-0.3c0.2-0.2,0.4-0.5,0.4-0.9c0-0.4-0.1-0.6-0.3-0.8s-0.6-0.3-1.1-0.3h-0.8V142z"/>
	<path d="M77.8,140.6c0.2,0,0.3,0,0.5,0l-0.1,0.3c-0.1,0-0.3-0.1-0.5-0.1c-0.3,0-0.6,0.1-0.8,0.4c-0.2,0.3-0.3,0.6-0.3,1v2h-0.3
		v-3.6h0.3l0,0.6h0c0.1-0.3,0.3-0.4,0.5-0.6S77.6,140.6,77.8,140.6z"/>
	<path d="M82,142.5c0,0.6-0.1,1-0.4,1.4c-0.3,0.3-0.7,0.5-1.2,0.5c-0.3,0-0.6-0.1-0.8-0.2s-0.4-0.4-0.6-0.7c-0.1-0.3-0.2-0.6-0.2-1
		c0-0.6,0.1-1,0.4-1.4c0.3-0.3,0.7-0.5,1.2-0.5c0.5,0,0.9,0.2,1.2,0.5S82,141.9,82,142.5z M79.2,142.5c0,0.5,0.1,0.9,0.3,1.2
		s0.5,0.4,0.9,0.4c0.4,0,0.7-0.1,0.9-0.4c0.2-0.3,0.3-0.7,0.3-1.2c0-0.5-0.1-0.9-0.3-1.2c-0.2-0.3-0.5-0.4-0.9-0.4
		c-0.4,0-0.7,0.1-0.9,0.4C79.3,141.6,79.2,142,79.2,142.5z"/>
	<path d="M84.3,140.6c0.3,0,0.5,0,0.7,0.1c0.2,0.1,0.4,0.3,0.5,0.5h0c0-0.3,0-0.5,0-0.8v-1.3h0.3v5.1h-0.2l-0.1-0.5h0
		c-0.3,0.4-0.7,0.6-1.2,0.6c-0.5,0-0.9-0.2-1.1-0.5s-0.4-0.8-0.4-1.3c0-0.6,0.1-1.1,0.4-1.4C83.4,140.8,83.8,140.6,84.3,140.6z
		 M84.3,140.9c-0.4,0-0.7,0.1-0.9,0.4c-0.2,0.3-0.3,0.7-0.3,1.2c0,1,0.4,1.5,1.2,1.5c0.4,0,0.7-0.1,0.9-0.4s0.3-0.6,0.3-1.2v-0.1
		c0-0.6-0.1-1-0.3-1.2C85,141.1,84.7,140.9,84.3,140.9z"/>
	<path d="M87.3,140.7v2.3c0,0.4,0.1,0.6,0.2,0.8c0.2,0.2,0.4,0.2,0.7,0.2c0.4,0,0.7-0.1,0.9-0.3c0.2-0.2,0.3-0.6,0.3-1.1v-2h0.3v3.6
		h-0.3l-0.1-0.5h0c-0.2,0.4-0.7,0.6-1.2,0.6c-0.8,0-1.2-0.4-1.2-1.3v-2.3H87.3z"/>
	<path d="M92.5,144.4c-0.5,0-0.9-0.2-1.2-0.5s-0.4-0.8-0.4-1.4c0-0.6,0.2-1.1,0.5-1.4c0.3-0.3,0.7-0.5,1.2-0.5
		c0.3,0,0.6,0.1,0.9,0.2l-0.1,0.3c-0.3-0.1-0.6-0.2-0.8-0.2c-0.4,0-0.8,0.1-1,0.4c-0.2,0.3-0.3,0.7-0.3,1.2c0,0.5,0.1,0.9,0.3,1.1
		c0.2,0.3,0.5,0.4,1,0.4c0.3,0,0.6-0.1,0.9-0.2v0.3C93.1,144.3,92.8,144.4,92.5,144.4z"/>
	<path d="M95.2,144.1c0.2,0,0.4,0,0.5-0.1v0.3c-0.2,0.1-0.3,0.1-0.5,0.1c-0.3,0-0.6-0.1-0.7-0.3s-0.2-0.4-0.2-0.8V141h-0.5v-0.2
		l0.5-0.2l0.2-0.8h0.2v0.9h1.1v0.3h-1.1v2.3c0,0.3,0,0.5,0.1,0.6C94.8,144,95,144.1,95.2,144.1z"/>
	<path d="M79.5,150c0,0.8-0.2,1.4-0.6,1.8c-0.4,0.4-1.1,0.6-1.9,0.6h-1.2v-4.8h1.3c0.8,0,1.4,0.2,1.8,0.6
		C79.3,148.6,79.5,149.2,79.5,150z M79.1,150c0-0.7-0.2-1.2-0.5-1.6c-0.4-0.3-0.9-0.5-1.5-0.5h-0.9v4.2H77
		C78.4,152.1,79.1,151.4,79.1,150z"/>
	<path d="M82,152.5c-0.5,0-0.9-0.2-1.2-0.5c-0.3-0.3-0.4-0.8-0.4-1.4c0-0.6,0.1-1,0.4-1.4c0.3-0.3,0.7-0.5,1.1-0.5
		c0.4,0,0.8,0.1,1,0.4c0.2,0.3,0.4,0.7,0.4,1.2v0.3h-2.6c0,0.5,0.1,0.9,0.3,1.1c0.2,0.3,0.5,0.4,1,0.4c0.2,0,0.4,0,0.5,0
		c0.2,0,0.4-0.1,0.6-0.2v0.3c-0.2,0.1-0.4,0.1-0.6,0.2S82.2,152.5,82,152.5z M81.9,149.1c-0.3,0-0.6,0.1-0.8,0.3
		c-0.2,0.2-0.3,0.6-0.4,1h2.2c0-0.4-0.1-0.7-0.3-1C82.5,149.2,82.2,149.1,81.9,149.1z"/>
	<path d="M85.2,152.2c0.2,0,0.4,0,0.5-0.1v0.3c-0.2,0.1-0.3,0.1-0.5,0.1c-0.3,0-0.6-0.1-0.7-0.3s-0.2-0.4-0.2-0.8v-2.3h-0.5v-0.2
		l0.5-0.1l0.2-0.8h0.2v0.9h1.1v0.3h-1.1v2.3c0,0.3,0,0.5,0.1,0.6C84.8,152.1,85,152.2,85.2,152.2z"/>
	<path d="M88.7,152.4l-0.1-0.6h0c-0.2,0.2-0.4,0.4-0.6,0.5c-0.2,0.1-0.4,0.1-0.7,0.1c-0.4,0-0.6-0.1-0.8-0.3
		c-0.2-0.2-0.3-0.4-0.3-0.8c0-0.3,0.1-0.6,0.4-0.8s0.7-0.3,1.3-0.3l0.7,0v-0.2c0-0.3-0.1-0.6-0.2-0.8c-0.1-0.2-0.4-0.3-0.7-0.3
		c-0.3,0-0.7,0.1-1,0.3l-0.1-0.3c0.4-0.2,0.8-0.3,1.2-0.3c0.4,0,0.7,0.1,0.9,0.3c0.2,0.2,0.3,0.5,0.3,1v2.4H88.7z M87.4,152.2
		c0.4,0,0.7-0.1,0.9-0.3c0.2-0.2,0.3-0.5,0.3-0.9v-0.4l-0.6,0c-0.5,0-0.9,0.1-1.1,0.2s-0.3,0.3-0.3,0.6c0,0.2,0.1,0.4,0.2,0.5
		C86.9,152.1,87.1,152.2,87.4,152.2z"/>
	<path d="M90.1,147.8c0-0.2,0.1-0.3,0.2-0.3c0.1,0,0.1,0,0.2,0.1c0,0.1,0.1,0.1,0.1,0.2c0,0.1,0,0.2-0.1,0.2c0,0.1-0.1,0.1-0.2,0.1
		C90.1,148.2,90.1,148,90.1,147.8z M90.4,152.4h-0.3v-3.6h0.3V152.4z"/>
	<path d="M92,152.4h-0.3v-5.1H92V152.4z"/>
</g>
<g>
	<path fill="#49494A" d="M121,41.9h-0.7v-4.3h2.4v0.6H121v1.3h1.6v0.6H121V41.9z"/>
	<path fill="#49494A" d="M126.2,41.9l-0.4-1.2h-1.6l-0.4,1.2h-0.7l1.6-4.3h0.8l1.6,4.3H126.2z M125.5,40.1l-0.4-1.2
		c0-0.1-0.1-0.2-0.1-0.4c-0.1-0.2-0.1-0.3-0.1-0.4c-0.1,0.2-0.1,0.5-0.2,0.8l-0.4,1.1H125.5z"/>
	<path fill="#49494A" d="M131.2,39.8c0,0.5-0.1,1-0.3,1.3c-0.2,0.4-0.5,0.6-0.9,0.7l1,1.1h-0.9l-0.8-1h-0.1c-0.6,0-1.1-0.2-1.5-0.6
		c-0.3-0.4-0.5-0.9-0.5-1.6c0-0.7,0.2-1.2,0.5-1.6c0.3-0.4,0.8-0.6,1.5-0.6c0.6,0,1.1,0.2,1.5,0.6C131.1,38.6,131.2,39.1,131.2,39.8
		z M128,39.8c0,0.5,0.1,0.9,0.3,1.2c0.2,0.3,0.5,0.4,0.9,0.4c0.4,0,0.7-0.1,0.9-0.4s0.3-0.7,0.3-1.2c0-0.5-0.1-0.9-0.3-1.2
		s-0.5-0.4-0.9-0.4c-0.4,0-0.7,0.1-0.9,0.4S128,39.3,128,39.8z"/>
</g>
<rect x="350.3" y="92.6" transform="matrix(4.311743e-03 1 -1 4.311743e-03 450.9041 -265.7687)" fill="#87C9E9" width="17.2" height="1.9"/>
<rect x="351.5" y="127.6" transform="matrix(4.748879e-03 1 -1 4.748879e-03 486.2751 -231.4124)" fill="#87C9E9" width="15.8" height="1.9"/>
<g>
	<path d="M234.7,68.3v2.1h-0.3v-4.8h1.2c0.6,0,1,0.1,1.3,0.3s0.4,0.6,0.4,1c0,0.3-0.1,0.6-0.3,0.8c-0.2,0.2-0.4,0.4-0.8,0.5l1.3,2.2
		h-0.4l-1.2-2.1H234.7z M234.7,68.1h0.9c0.4,0,0.7-0.1,0.9-0.3c0.2-0.2,0.3-0.5,0.3-0.8c0-0.4-0.1-0.6-0.3-0.8
		c-0.2-0.2-0.6-0.3-1.1-0.3h-0.8V68.1z"/>
	<path d="M239.7,70.5c-0.5,0-0.9-0.2-1.2-0.5c-0.3-0.3-0.4-0.8-0.4-1.4c0-0.6,0.1-1,0.4-1.4c0.3-0.3,0.7-0.5,1.1-0.5
		c0.4,0,0.8,0.1,1,0.4c0.2,0.3,0.4,0.7,0.4,1.2v0.3h-2.6c0,0.5,0.1,0.9,0.3,1.1c0.2,0.3,0.5,0.4,1,0.4c0.2,0,0.4,0,0.5,0
		s0.4-0.1,0.6-0.2v0.3c-0.2,0.1-0.4,0.1-0.6,0.2C240.1,70.5,239.9,70.5,239.7,70.5z M239.6,67.1c-0.3,0-0.6,0.1-0.8,0.3
		c-0.2,0.2-0.3,0.6-0.4,1h2.2c0-0.4-0.1-0.7-0.3-1C240.2,67.2,239.9,67.1,239.6,67.1z"/>
	<path d="M244.2,69.5c0,0.3-0.1,0.6-0.4,0.7s-0.6,0.3-1,0.3c-0.5,0-0.9-0.1-1.1-0.2v-0.4c0.4,0.2,0.7,0.3,1.1,0.3
		c0.4,0,0.6-0.1,0.8-0.2c0.2-0.1,0.3-0.3,0.3-0.5c0-0.2-0.1-0.3-0.2-0.5c-0.1-0.1-0.4-0.2-0.7-0.4c-0.4-0.1-0.6-0.2-0.8-0.3
		c-0.1-0.1-0.3-0.2-0.3-0.3s-0.1-0.3-0.1-0.4c0-0.3,0.1-0.5,0.3-0.6c0.2-0.2,0.5-0.2,0.9-0.2c0.4,0,0.8,0.1,1.1,0.2l-0.1,0.3
		c-0.4-0.1-0.7-0.2-1-0.2c-0.3,0-0.5,0-0.7,0.1c-0.2,0.1-0.3,0.2-0.3,0.4c0,0.2,0.1,0.3,0.2,0.5s0.4,0.2,0.8,0.4
		c0.3,0.1,0.6,0.2,0.7,0.3s0.3,0.2,0.3,0.3S244.2,69.4,244.2,69.5z"/>
	<path d="M245.4,66.9v2.3c0,0.4,0.1,0.6,0.2,0.8c0.2,0.2,0.4,0.2,0.7,0.2c0.4,0,0.7-0.1,0.9-0.3c0.2-0.2,0.3-0.6,0.3-1.1v-2h0.3v3.6
		h-0.3l-0.1-0.5h0c-0.2,0.4-0.7,0.6-1.2,0.6c-0.8,0-1.2-0.4-1.2-1.3v-2.3H245.4z"/>
	<path d="M249.5,70.4h-0.3v-5.1h0.3V70.4z"/>
	<path d="M251.6,70.2c0.2,0,0.4,0,0.5-0.1v0.3c-0.2,0.1-0.3,0.1-0.5,0.1c-0.3,0-0.6-0.1-0.7-0.3c-0.2-0.2-0.2-0.4-0.2-0.8v-2.3h-0.5
		v-0.2l0.5-0.1l0.2-0.8h0.2v0.9h1.1v0.3H251v2.3c0,0.3,0,0.5,0.1,0.6C251.3,70.2,251.4,70.2,251.6,70.2z"/>
	<path d="M255.2,69.5c0,0.3-0.1,0.6-0.4,0.7c-0.2,0.2-0.6,0.3-1,0.3c-0.5,0-0.9-0.1-1.1-0.2v-0.4c0.4,0.2,0.7,0.3,1.1,0.3
		c0.4,0,0.6-0.1,0.8-0.2s0.3-0.3,0.3-0.5c0-0.2-0.1-0.3-0.2-0.5c-0.1-0.1-0.4-0.2-0.7-0.4c-0.4-0.1-0.6-0.2-0.8-0.3
		s-0.3-0.2-0.3-0.3c-0.1-0.1-0.1-0.3-0.1-0.4c0-0.3,0.1-0.5,0.3-0.6c0.2-0.2,0.5-0.2,0.9-0.2c0.4,0,0.8,0.1,1.1,0.2l-0.1,0.3
		c-0.4-0.1-0.7-0.2-1-0.2c-0.3,0-0.5,0-0.7,0.1c-0.2,0.1-0.3,0.2-0.3,0.4c0,0.2,0.1,0.3,0.2,0.5c0.1,0.1,0.4,0.2,0.8,0.4
		c0.3,0.1,0.6,0.2,0.7,0.3c0.1,0.1,0.3,0.2,0.3,0.3S255.2,69.4,255.2,69.5z"/>
</g>
<g>
	<path d="M277.6,62.1c0,0.5-0.2,0.8-0.5,1.1c-0.3,0.2-0.8,0.4-1.3,0.4H275v2h-0.3v-4.8h1.2C277,60.7,277.6,61.2,277.6,62.1z
		 M275,63.3h0.7c0.5,0,0.9-0.1,1.2-0.3s0.4-0.5,0.4-0.9c0-0.4-0.1-0.6-0.3-0.8c-0.2-0.2-0.6-0.3-1.1-0.3H275V63.3z"/>
	<path d="M280.7,65.6l-0.1-0.6h0c-0.2,0.2-0.4,0.4-0.6,0.5c-0.2,0.1-0.4,0.1-0.7,0.1c-0.4,0-0.6-0.1-0.8-0.3
		c-0.2-0.2-0.3-0.4-0.3-0.8c0-0.4,0.1-0.6,0.4-0.8c0.3-0.2,0.7-0.3,1.3-0.3l0.7,0v-0.2c0-0.3-0.1-0.6-0.2-0.8
		c-0.1-0.2-0.4-0.3-0.7-0.3c-0.3,0-0.7,0.1-1,0.3l-0.1-0.3c0.4-0.2,0.8-0.3,1.2-0.3c0.4,0,0.7,0.1,0.9,0.3c0.2,0.2,0.3,0.5,0.3,1
		v2.4H280.7z M279.4,65.3c0.4,0,0.7-0.1,0.9-0.3c0.2-0.2,0.3-0.5,0.3-0.9v-0.4l-0.6,0c-0.5,0-0.9,0.1-1.1,0.2
		c-0.2,0.1-0.3,0.3-0.3,0.6c0,0.2,0.1,0.4,0.2,0.5C279,65.3,279.2,65.3,279.4,65.3z"/>
	<path d="M284.4,64.6c0,0.3-0.1,0.6-0.4,0.7s-0.6,0.3-1,0.3c-0.5,0-0.9-0.1-1.1-0.2v-0.4c0.4,0.2,0.7,0.3,1.1,0.3
		c0.4,0,0.6-0.1,0.8-0.2c0.2-0.1,0.3-0.3,0.3-0.5c0-0.2-0.1-0.3-0.2-0.5c-0.1-0.1-0.4-0.2-0.7-0.4c-0.4-0.1-0.6-0.2-0.8-0.3
		c-0.1-0.1-0.3-0.2-0.3-0.3s-0.1-0.3-0.1-0.4c0-0.3,0.1-0.5,0.3-0.6c0.2-0.2,0.5-0.2,0.9-0.2c0.4,0,0.8,0.1,1.1,0.2l-0.1,0.3
		c-0.4-0.1-0.7-0.2-1-0.2c-0.3,0-0.5,0-0.7,0.1c-0.2,0.1-0.3,0.2-0.3,0.4c0,0.2,0.1,0.3,0.2,0.5s0.4,0.2,0.8,0.4
		c0.3,0.1,0.6,0.2,0.7,0.3s0.3,0.2,0.3,0.3S284.4,64.5,284.4,64.6z"/>
	<path d="M286.2,65.4c0.2,0,0.4,0,0.5-0.1v0.3c-0.2,0.1-0.3,0.1-0.5,0.1c-0.3,0-0.6-0.1-0.7-0.3c-0.2-0.2-0.2-0.4-0.2-0.8v-2.3h-0.5
		v-0.2l0.5-0.1l0.2-0.8h0.2V62h1.1v0.3h-1.1v2.3c0,0.3,0,0.5,0.1,0.6C285.9,65.3,286,65.4,286.2,65.4z"/>
	<path d="M292.3,63.8c0,0.6-0.1,1-0.4,1.4c-0.3,0.3-0.7,0.5-1.2,0.5c-0.3,0-0.6-0.1-0.8-0.2s-0.4-0.4-0.6-0.7
		c-0.1-0.3-0.2-0.6-0.2-1c0-0.6,0.1-1,0.4-1.4c0.3-0.3,0.7-0.5,1.2-0.5c0.5,0,0.9,0.2,1.2,0.5S292.3,63.2,292.3,63.8z M289.5,63.8
		c0,0.5,0.1,0.9,0.3,1.2c0.2,0.3,0.5,0.4,0.9,0.4s0.7-0.1,0.9-0.4c0.2-0.3,0.3-0.7,0.3-1.2c0-0.5-0.1-0.9-0.3-1.2s-0.5-0.4-0.9-0.4
		c-0.4,0-0.7,0.1-0.9,0.4C289.6,62.9,289.5,63.3,289.5,63.8z"/>
	<path d="M294.7,61.9c0.2,0,0.3,0,0.5,0l-0.1,0.3c-0.2,0-0.3-0.1-0.5-0.1c-0.3,0-0.6,0.1-0.8,0.4c-0.2,0.3-0.3,0.6-0.3,1v2h-0.3V62
		h0.3l0,0.6h0c0.1-0.3,0.3-0.5,0.5-0.6C294.3,62,294.5,61.9,294.7,61.9z"/>
	<path d="M297.2,61.9c0.3,0,0.5,0,0.7,0.1c0.2,0.1,0.4,0.3,0.5,0.5h0c0-0.3,0-0.5,0-0.8v-1.3h0.3v5.1h-0.2l-0.1-0.5h0
		c-0.3,0.4-0.7,0.6-1.2,0.6c-0.5,0-0.9-0.2-1.1-0.5c-0.3-0.3-0.4-0.8-0.4-1.3c0-0.6,0.1-1.1,0.4-1.4
		C296.4,62.1,296.8,61.9,297.2,61.9z M297.2,62.2c-0.4,0-0.7,0.1-0.9,0.4c-0.2,0.3-0.3,0.7-0.3,1.2c0,1,0.4,1.5,1.2,1.5
		c0.4,0,0.7-0.1,0.9-0.4c0.2-0.2,0.3-0.6,0.3-1.2v-0.1c0-0.6-0.1-1-0.3-1.2C298,62.3,297.7,62.2,297.2,62.2z"/>
	<path d="M301.4,65.6c-0.5,0-0.9-0.2-1.2-0.5c-0.3-0.3-0.4-0.8-0.4-1.4c0-0.6,0.1-1,0.4-1.4c0.3-0.3,0.7-0.5,1.1-0.5
		c0.4,0,0.8,0.1,1,0.4c0.2,0.3,0.4,0.7,0.4,1.2v0.3h-2.6c0,0.5,0.1,0.9,0.3,1.1c0.2,0.3,0.6,0.4,1,0.4c0.2,0,0.4,0,0.5,0
		c0.2,0,0.4-0.1,0.6-0.2v0.3c-0.2,0.1-0.4,0.1-0.6,0.2C301.8,65.6,301.6,65.6,301.4,65.6z M301.3,62.2c-0.3,0-0.6,0.1-0.8,0.3
		c-0.2,0.2-0.3,0.6-0.4,1h2.2c0-0.4-0.1-0.7-0.3-1C301.9,62.3,301.6,62.2,301.3,62.2z"/>
	<path d="M305.1,61.9c0.2,0,0.3,0,0.5,0l-0.1,0.3c-0.2,0-0.3-0.1-0.5-0.1c-0.3,0-0.6,0.1-0.8,0.4c-0.2,0.3-0.3,0.6-0.3,1v2h-0.3V62
		h0.3l0,0.6h0c0.1-0.3,0.3-0.5,0.5-0.6C304.7,62,304.9,61.9,305.1,61.9z"/>
	<path d="M308.5,64.6c0,0.3-0.1,0.6-0.4,0.7s-0.6,0.3-1,0.3c-0.5,0-0.9-0.1-1.1-0.2v-0.4c0.4,0.2,0.7,0.3,1.1,0.3
		c0.4,0,0.6-0.1,0.8-0.2c0.2-0.1,0.3-0.3,0.3-0.5c0-0.2-0.1-0.3-0.2-0.5c-0.1-0.1-0.4-0.2-0.7-0.4c-0.4-0.1-0.6-0.2-0.8-0.3
		c-0.1-0.1-0.3-0.2-0.3-0.3s-0.1-0.3-0.1-0.4c0-0.3,0.1-0.5,0.3-0.6c0.2-0.2,0.5-0.2,0.9-0.2c0.4,0,0.8,0.1,1.1,0.2l-0.1,0.3
		c-0.4-0.1-0.7-0.2-1-0.2c-0.3,0-0.5,0-0.7,0.1c-0.2,0.1-0.3,0.2-0.3,0.4c0,0.2,0.1,0.3,0.2,0.5s0.4,0.2,0.8,0.4
		c0.3,0.1,0.6,0.2,0.7,0.3s0.3,0.2,0.3,0.3S308.5,64.5,308.5,64.6z"/>
</g>
<g>
	<path d="M278.1,99.4v-4.8h0.3V99h2.3v0.3H278.1z"/>
	<path d="M284.4,97.6c0,0.6-0.1,1-0.4,1.4c-0.3,0.3-0.7,0.5-1.2,0.5c-0.3,0-0.6-0.1-0.8-0.2s-0.4-0.4-0.6-0.7s-0.2-0.6-0.2-1
		c0-0.6,0.1-1,0.4-1.4c0.3-0.3,0.7-0.5,1.2-0.5c0.5,0,0.9,0.2,1.2,0.5S284.4,97,284.4,97.6z M281.6,97.6c0,0.5,0.1,0.9,0.3,1.2
		s0.5,0.4,0.9,0.4c0.4,0,0.7-0.1,0.9-0.4s0.3-0.7,0.3-1.2c0-0.5-0.1-0.9-0.3-1.2c-0.2-0.3-0.5-0.4-0.9-0.4s-0.7,0.1-0.9,0.4
		C281.7,96.7,281.6,97.1,281.6,97.6z"/>
	<path d="M284.8,95.8h0.3l0.8,2c0.2,0.6,0.4,1,0.4,1.3h0c0.1-0.3,0.2-0.7,0.5-1.3l0.8-2h0.3l-1.6,4.2c-0.1,0.3-0.2,0.6-0.3,0.7
		s-0.2,0.2-0.3,0.3c-0.1,0.1-0.3,0.1-0.4,0.1c-0.1,0-0.3,0-0.4-0.1v-0.3c0.1,0,0.3,0.1,0.4,0.1c0.1,0,0.2,0,0.3-0.1s0.2-0.1,0.2-0.2
		s0.2-0.3,0.2-0.5c0.1-0.2,0.2-0.4,0.2-0.5L284.8,95.8z"/>
	<path d="M290.7,99.4l-0.1-0.6h0c-0.2,0.2-0.4,0.4-0.6,0.5c-0.2,0.1-0.4,0.1-0.7,0.1c-0.4,0-0.6-0.1-0.8-0.3
		c-0.2-0.2-0.3-0.4-0.3-0.8c0-0.4,0.1-0.6,0.4-0.8c0.3-0.2,0.7-0.3,1.3-0.3l0.7,0V97c0-0.3-0.1-0.6-0.2-0.8
		c-0.1-0.2-0.4-0.3-0.7-0.3c-0.3,0-0.7,0.1-1,0.3l-0.1-0.3c0.4-0.2,0.8-0.3,1.2-0.3c0.4,0,0.7,0.1,0.9,0.3c0.2,0.2,0.3,0.5,0.3,1
		v2.4H290.7z M289.4,99.1c0.4,0,0.7-0.1,0.9-0.3c0.2-0.2,0.3-0.5,0.3-0.9v-0.4l-0.6,0c-0.5,0-0.9,0.1-1.1,0.2
		c-0.2,0.1-0.3,0.3-0.3,0.6c0,0.2,0.1,0.4,0.2,0.5C289,99.1,289.2,99.1,289.4,99.1z"/>
	<path d="M292.5,99.4h-0.3v-5.1h0.3V99.4z"/>
	<path d="M294.6,99.1c0.2,0,0.4,0,0.5-0.1v0.3c-0.2,0.1-0.3,0.1-0.5,0.1c-0.3,0-0.6-0.1-0.7-0.3c-0.2-0.2-0.2-0.4-0.2-0.8v-2.3h-0.5
		v-0.2l0.5-0.2l0.2-0.8h0.2v0.9h1.1v0.3H294v2.3c0,0.3,0,0.5,0.1,0.6C294.3,99.1,294.4,99.1,294.6,99.1z"/>
	<path d="M295.3,95.8h0.3l0.8,2c0.2,0.6,0.4,1,0.4,1.3h0c0.1-0.3,0.2-0.7,0.5-1.3l0.8-2h0.3l-1.6,4.2c-0.1,0.3-0.2,0.6-0.3,0.7
		s-0.2,0.2-0.3,0.3c-0.1,0.1-0.3,0.1-0.4,0.1c-0.1,0-0.3,0-0.4-0.1v-0.3c0.1,0,0.3,0.1,0.4,0.1c0.1,0,0.2,0,0.3-0.1s0.2-0.1,0.2-0.2
		c0.1-0.1,0.1-0.3,0.2-0.5c0.1-0.2,0.2-0.4,0.2-0.5L295.3,95.8z"/>
</g>
<g>
	<path d="M340.9,79.4v2.1h-0.3v-4.8h1.2c0.6,0,1,0.1,1.3,0.3c0.3,0.2,0.4,0.6,0.4,1c0,0.3-0.1,0.6-0.3,0.8c-0.2,0.2-0.4,0.4-0.8,0.5
		l1.3,2.2h-0.4l-1.2-2.1H340.9z M340.9,79.1h0.9c0.4,0,0.7-0.1,0.9-0.3c0.2-0.2,0.3-0.5,0.3-0.8c0-0.4-0.1-0.6-0.3-0.8
		c-0.2-0.2-0.6-0.3-1.1-0.3h-0.8V79.1z"/>
	<path d="M346,81.5c-0.5,0-0.9-0.2-1.2-0.5c-0.3-0.3-0.4-0.8-0.4-1.4c0-0.6,0.1-1,0.4-1.4c0.3-0.3,0.7-0.5,1.1-0.5
		c0.4,0,0.8,0.1,1,0.4c0.2,0.3,0.4,0.7,0.4,1.2v0.3h-2.6c0,0.5,0.1,0.9,0.3,1.1c0.2,0.3,0.6,0.4,1,0.4c0.2,0,0.4,0,0.5,0
		c0.2,0,0.4-0.1,0.6-0.2v0.3c-0.2,0.1-0.4,0.1-0.6,0.2S346.2,81.5,346,81.5z M345.9,78.1c-0.3,0-0.6,0.1-0.8,0.3
		c-0.2,0.2-0.3,0.6-0.4,1h2.2c0-0.4-0.1-0.7-0.3-1C346.4,78.2,346.2,78.1,345.9,78.1z"/>
	<path d="M349,81.5l-1.4-3.6h0.3l0.9,2.4c0.1,0.3,0.2,0.6,0.3,0.8h0c0.1-0.3,0.2-0.6,0.3-0.8l0.9-2.4h0.3l-1.4,3.6H349z"/>
	<path d="M351.3,76.9c0-0.2,0.1-0.3,0.2-0.3c0.1,0,0.1,0,0.2,0.1c0,0.1,0.1,0.1,0.1,0.2c0,0.1,0,0.2-0.1,0.2c0,0.1-0.1,0.1-0.2,0.1
		C351.4,77.2,351.3,77.1,351.3,76.9z M351.7,81.5h-0.3v-3.6h0.3V81.5z"/>
	<path d="M354.3,81.5c-0.5,0-0.9-0.2-1.2-0.5c-0.3-0.3-0.4-0.8-0.4-1.4c0-0.6,0.1-1,0.4-1.4c0.3-0.3,0.7-0.5,1.1-0.5
		c0.4,0,0.8,0.1,1,0.4c0.2,0.3,0.4,0.7,0.4,1.2v0.3H353c0,0.5,0.1,0.9,0.3,1.1c0.2,0.3,0.6,0.4,1,0.4c0.2,0,0.4,0,0.5,0
		c0.2,0,0.4-0.1,0.6-0.2v0.3c-0.2,0.1-0.4,0.1-0.6,0.2S354.5,81.5,354.3,81.5z M354.2,78.1c-0.3,0-0.6,0.1-0.8,0.3
		c-0.2,0.2-0.3,0.6-0.4,1h2.2c0-0.4-0.1-0.7-0.3-1C354.8,78.2,354.6,78.1,354.2,78.1z"/>
	<path d="M359.5,81.5l-0.8-2.4c-0.1-0.2-0.1-0.4-0.2-0.7h0l-0.1,0.2l-0.2,0.5l-0.8,2.4h-0.3l-1-3.6h0.3l0.6,2.1
		c0.1,0.5,0.2,0.9,0.3,1.1h0c0.1-0.5,0.2-0.9,0.3-1l0.7-2.2h0.3l0.7,2.2c0.2,0.5,0.3,0.9,0.3,1h0c0-0.1,0.1-0.5,0.3-1.2l0.5-2.1h0.3
		l-1,3.6H359.5z"/>
	<path d="M366.2,79.7c0,0.6-0.1,1-0.4,1.4c-0.3,0.3-0.7,0.5-1.2,0.5c-0.3,0-0.6-0.1-0.8-0.2s-0.4-0.4-0.6-0.7
		c-0.1-0.3-0.2-0.6-0.2-1c0-0.6,0.1-1,0.4-1.4c0.3-0.3,0.7-0.5,1.2-0.5c0.5,0,0.9,0.2,1.2,0.5S366.2,79.1,366.2,79.7z M363.4,79.7
		c0,0.5,0.1,0.9,0.3,1.2c0.2,0.3,0.5,0.4,0.9,0.4s0.7-0.1,0.9-0.4c0.2-0.3,0.3-0.7,0.3-1.2c0-0.5-0.1-0.9-0.3-1.2s-0.5-0.4-0.9-0.4
		c-0.4,0-0.7,0.1-0.9,0.4C363.5,78.8,363.4,79.2,363.4,79.7z"/>
	<path d="M368.6,77.8c0.2,0,0.3,0,0.5,0l-0.1,0.3c-0.2,0-0.3-0.1-0.5-0.1c-0.3,0-0.6,0.1-0.8,0.4c-0.2,0.3-0.3,0.6-0.3,1v2h-0.3
		v-3.6h0.3l0,0.6h0c0.1-0.3,0.3-0.5,0.5-0.6C368.2,77.8,368.4,77.8,368.6,77.8z"/>
	<path d="M371.2,77.8c0.3,0,0.5,0,0.7,0.1c0.2,0.1,0.4,0.3,0.5,0.5h0c0-0.3,0-0.5,0-0.8v-1.3h0.3v5.1h-0.2l-0.1-0.5h0
		c-0.3,0.4-0.7,0.6-1.2,0.6c-0.5,0-0.9-0.2-1.1-0.5c-0.3-0.3-0.4-0.8-0.4-1.4c0-0.6,0.1-1.1,0.4-1.4C370.3,78,370.7,77.8,371.2,77.8
		z M371.2,78.1c-0.4,0-0.7,0.1-0.9,0.4s-0.3,0.7-0.3,1.2c0,1,0.4,1.5,1.2,1.5c0.4,0,0.7-0.1,0.9-0.4c0.2-0.2,0.3-0.6,0.3-1.2v-0.1
		c0-0.6-0.1-1-0.3-1.2C371.9,78.2,371.6,78.1,371.2,78.1z"/>
	<path d="M375.3,81.5c-0.5,0-0.9-0.2-1.2-0.5c-0.3-0.3-0.4-0.8-0.4-1.4c0-0.6,0.1-1,0.4-1.4c0.3-0.3,0.7-0.5,1.1-0.5
		c0.4,0,0.8,0.1,1,0.4c0.2,0.3,0.4,0.7,0.4,1.2v0.3H374c0,0.5,0.1,0.9,0.3,1.1c0.2,0.3,0.5,0.4,1,0.4c0.2,0,0.4,0,0.5,0
		c0.2,0,0.4-0.1,0.6-0.2v0.3c-0.2,0.1-0.4,0.1-0.6,0.2S375.6,81.5,375.3,81.5z M375.3,78.1c-0.3,0-0.6,0.1-0.8,0.3
		c-0.2,0.2-0.3,0.6-0.4,1h2.2c0-0.4-0.1-0.7-0.3-1C375.8,78.2,375.6,78.1,375.3,78.1z"/>
	<path d="M379,77.8c0.2,0,0.3,0,0.5,0l-0.1,0.3c-0.2,0-0.3-0.1-0.5-0.1c-0.3,0-0.6,0.1-0.8,0.4c-0.2,0.3-0.3,0.6-0.3,1v2h-0.3v-3.6
		h0.3l0,0.6h0c0.1-0.3,0.3-0.5,0.5-0.6C378.6,77.8,378.8,77.8,379,77.8z"/>
</g>
<g>
	<path d="M339.3,105.9c0,0.5-0.2,0.8-0.5,1.1c-0.3,0.2-0.8,0.4-1.3,0.4h-0.7v2h-0.3v-4.8h1.2C338.7,104.5,339.3,105,339.3,105.9z
		 M336.7,107.1h0.7c0.5,0,0.9-0.1,1.2-0.3s0.4-0.5,0.4-0.9c0-0.4-0.1-0.6-0.3-0.8c-0.2-0.2-0.6-0.3-1.1-0.3h-0.8V107.1z"/>
	<path d="M342.4,109.3l-0.1-0.6h0c-0.2,0.2-0.4,0.4-0.6,0.5c-0.2,0.1-0.4,0.1-0.7,0.1c-0.4,0-0.6-0.1-0.8-0.3
		c-0.2-0.2-0.3-0.4-0.3-0.8c0-0.3,0.1-0.6,0.4-0.8c0.3-0.2,0.7-0.3,1.3-0.3l0.7,0V107c0-0.3-0.1-0.6-0.2-0.8
		c-0.1-0.2-0.4-0.3-0.7-0.3c-0.3,0-0.7,0.1-1,0.3l-0.1-0.3c0.4-0.2,0.8-0.3,1.2-0.3c0.4,0,0.7,0.1,0.9,0.3c0.2,0.2,0.3,0.5,0.3,1
		v2.4H342.4z M341.1,109.1c0.4,0,0.7-0.1,0.9-0.3c0.2-0.2,0.3-0.5,0.3-0.9v-0.4l-0.6,0c-0.5,0-0.9,0.1-1.1,0.2s-0.3,0.3-0.3,0.6
		c0,0.2,0.1,0.4,0.2,0.5C340.6,109,340.8,109.1,341.1,109.1z"/>
	<path d="M343.2,105.7h0.3l0.8,2c0.2,0.6,0.4,1,0.4,1.3h0c0.1-0.3,0.2-0.7,0.5-1.3l0.8-2h0.3l-1.6,4.2c-0.1,0.3-0.2,0.6-0.3,0.7
		s-0.2,0.2-0.3,0.3c-0.1,0.1-0.3,0.1-0.4,0.1c-0.1,0-0.3,0-0.4-0.1v-0.3c0.1,0,0.3,0.1,0.4,0.1c0.1,0,0.2,0,0.3-0.1s0.2-0.1,0.2-0.2
		c0.1-0.1,0.1-0.3,0.2-0.5s0.2-0.4,0.2-0.5L343.2,105.7z"/>
	<path d="M351.4,109.3V107c0-0.3-0.1-0.6-0.2-0.8c-0.1-0.2-0.3-0.2-0.6-0.2c-0.4,0-0.6,0.1-0.8,0.3c-0.2,0.2-0.3,0.5-0.3,1v2.1h-0.3
		v-2.5c0-0.6-0.3-0.9-0.8-0.9c-0.4,0-0.7,0.1-0.8,0.3s-0.3,0.6-0.3,1.1v2h-0.3v-3.6h0.3l0.1,0.5h0c0.1-0.2,0.2-0.3,0.4-0.4
		c0.2-0.1,0.4-0.1,0.6-0.1c0.6,0,0.9,0.2,1.1,0.6h0c0.1-0.2,0.3-0.4,0.5-0.5c0.2-0.1,0.4-0.2,0.7-0.2c0.4,0,0.7,0.1,0.9,0.3
		c0.2,0.2,0.3,0.5,0.3,1v2.4H351.4z"/>
	<path d="M354.4,109.4c-0.5,0-0.9-0.2-1.2-0.5c-0.3-0.3-0.4-0.8-0.4-1.4c0-0.6,0.1-1,0.4-1.4c0.3-0.3,0.7-0.5,1.1-0.5
		c0.4,0,0.8,0.1,1,0.4s0.4,0.7,0.4,1.2v0.3H353c0,0.5,0.1,0.9,0.3,1.1c0.2,0.3,0.5,0.4,1,0.4c0.2,0,0.4,0,0.5,0
		c0.2,0,0.4-0.1,0.6-0.2v0.3c-0.2,0.1-0.4,0.1-0.6,0.2S354.6,109.4,354.4,109.4z M354.3,106c-0.3,0-0.6,0.1-0.8,0.3
		c-0.2,0.2-0.3,0.6-0.4,1h2.2c0-0.4-0.1-0.7-0.3-1C354.8,106.1,354.6,106,354.3,106z"/>
	<path d="M359.1,109.3V107c0-0.4-0.1-0.6-0.2-0.8c-0.2-0.2-0.4-0.2-0.7-0.2c-0.4,0-0.7,0.1-0.9,0.3c-0.2,0.2-0.3,0.6-0.3,1.1v2h-0.3
		v-3.6h0.3l0.1,0.5h0c0.2-0.4,0.7-0.6,1.2-0.6c0.8,0,1.2,0.4,1.2,1.3v2.4H359.1z"/>
	<path d="M361.6,109.1c0.2,0,0.4,0,0.5-0.1v0.3c-0.2,0.1-0.3,0.1-0.5,0.1c-0.3,0-0.6-0.1-0.7-0.3c-0.2-0.2-0.2-0.4-0.2-0.8V106h-0.5
		v-0.2l0.5-0.1l0.2-0.8h0.2v0.9h1.1v0.3H361v2.3c0,0.3,0,0.5,0.1,0.6S361.4,109.1,361.6,109.1z"/>
	<path d="M366,105.7c0.3,0,0.5,0,0.7,0.1c0.2,0.1,0.4,0.3,0.5,0.5h0c0-0.3,0-0.6,0-0.8v-1.3h0.3v5.1h-0.2l-0.1-0.5h0
		c-0.3,0.4-0.7,0.6-1.2,0.6c-0.5,0-0.9-0.2-1.1-0.5c-0.3-0.3-0.4-0.8-0.4-1.3c0-0.6,0.1-1.1,0.4-1.4
		C365.1,105.8,365.5,105.7,366,105.7z M366,106c-0.4,0-0.7,0.1-0.9,0.4s-0.3,0.7-0.3,1.2c0,1,0.4,1.5,1.2,1.5c0.4,0,0.7-0.1,0.9-0.4
		c0.2-0.2,0.3-0.6,0.3-1.2v-0.1c0-0.6-0.1-1-0.3-1.2C366.7,106.1,366.4,106,366,106z"/>
	<path d="M370.1,109.4c-0.5,0-0.9-0.2-1.2-0.5c-0.3-0.3-0.4-0.8-0.4-1.4c0-0.6,0.1-1,0.4-1.4c0.3-0.3,0.7-0.5,1.1-0.5
		c0.4,0,0.8,0.1,1,0.4s0.4,0.7,0.4,1.2v0.3h-2.6c0,0.5,0.1,0.9,0.3,1.1c0.2,0.3,0.5,0.4,1,0.4c0.2,0,0.4,0,0.5,0
		c0.2,0,0.4-0.1,0.6-0.2v0.3c-0.2,0.1-0.4,0.1-0.6,0.2S370.3,109.4,370.1,109.4z M370,106c-0.3,0-0.6,0.1-0.8,0.3
		c-0.2,0.2-0.3,0.6-0.4,1h2.2c0-0.4-0.1-0.7-0.3-1C370.6,106.1,370.4,106,370,106z"/>
	<path d="M373.4,109.1c0.2,0,0.4,0,0.5-0.1v0.3c-0.2,0.1-0.3,0.1-0.5,0.1c-0.3,0-0.6-0.1-0.7-0.3c-0.2-0.2-0.2-0.4-0.2-0.8V106h-0.5
		v-0.2l0.5-0.1l0.2-0.8h0.2v0.9h1.1v0.3h-1.1v2.3c0,0.3,0,0.5,0.1,0.6S373.1,109.1,373.4,109.1z"/>
	<path d="M376.9,109.3l-0.1-0.6h0c-0.2,0.2-0.4,0.4-0.6,0.5c-0.2,0.1-0.4,0.1-0.7,0.1c-0.4,0-0.6-0.1-0.8-0.3
		c-0.2-0.2-0.3-0.4-0.3-0.8c0-0.3,0.1-0.6,0.4-0.8c0.3-0.2,0.7-0.3,1.3-0.3l0.7,0V107c0-0.3-0.1-0.6-0.2-0.8
		c-0.1-0.2-0.4-0.3-0.7-0.3c-0.3,0-0.7,0.1-1,0.3l-0.1-0.3c0.4-0.2,0.8-0.3,1.2-0.3c0.4,0,0.7,0.1,0.9,0.3c0.2,0.2,0.3,0.5,0.3,1
		v2.4H376.9z M375.5,109.1c0.4,0,0.7-0.1,0.9-0.3c0.2-0.2,0.3-0.5,0.3-0.9v-0.4l-0.6,0c-0.5,0-0.9,0.1-1.1,0.2s-0.3,0.3-0.3,0.6
		c0,0.2,0.1,0.4,0.2,0.5C375.1,109,375.3,109.1,375.5,109.1z"/>
	<path d="M378.2,104.7c0-0.2,0.1-0.3,0.2-0.3c0.1,0,0.1,0,0.2,0.1s0.1,0.1,0.1,0.2c0,0.1,0,0.2-0.1,0.2c0,0.1-0.1,0.1-0.2,0.1
		C378.3,105.1,378.2,105,378.2,104.7z M378.6,109.3h-0.3v-3.6h0.3V109.3z"/>
	<path d="M380.1,109.3h-0.3v-5.1h0.3V109.3z"/>
	<path d="M383.6,108.4c0,0.3-0.1,0.6-0.4,0.7c-0.2,0.2-0.6,0.3-1,0.3c-0.5,0-0.9-0.1-1.1-0.2v-0.4c0.4,0.2,0.7,0.3,1.1,0.3
		c0.4,0,0.6-0.1,0.8-0.2c0.2-0.1,0.3-0.3,0.3-0.5c0-0.2-0.1-0.3-0.2-0.5s-0.4-0.2-0.7-0.4c-0.4-0.1-0.6-0.2-0.8-0.3
		s-0.3-0.2-0.3-0.3c-0.1-0.1-0.1-0.3-0.1-0.4c0-0.3,0.1-0.5,0.3-0.6c0.2-0.2,0.5-0.2,0.9-0.2c0.4,0,0.8,0.1,1.1,0.2l-0.1,0.3
		c-0.4-0.1-0.7-0.2-1-0.2c-0.3,0-0.5,0-0.7,0.1s-0.3,0.2-0.3,0.4c0,0.2,0.1,0.3,0.2,0.4c0.1,0.1,0.4,0.2,0.8,0.4
		c0.3,0.1,0.6,0.2,0.7,0.3c0.1,0.1,0.3,0.2,0.3,0.3S383.6,108.2,383.6,108.4z"/>
	<path d="M386.1,104.5l-1.8,4.8H384l1.8-4.8H386.1z"/>
	<path d="M341.2,115.4v2.1h-0.3v-4.8h1.2c0.6,0,1,0.1,1.3,0.3c0.3,0.2,0.4,0.6,0.4,1c0,0.3-0.1,0.6-0.3,0.8
		c-0.2,0.2-0.4,0.4-0.8,0.5l1.3,2.2h-0.4l-1.2-2.1H341.2z M341.2,115.1h0.9c0.4,0,0.7-0.1,0.9-0.3c0.2-0.2,0.3-0.5,0.3-0.8
		c0-0.4-0.1-0.6-0.3-0.8c-0.2-0.2-0.6-0.3-1.1-0.3h-0.8V115.1z"/>
	<path d="M346.3,117.5c-0.5,0-0.9-0.2-1.2-0.5c-0.3-0.3-0.4-0.8-0.4-1.4c0-0.6,0.1-1,0.4-1.4c0.3-0.3,0.7-0.5,1.1-0.5
		c0.4,0,0.8,0.1,1,0.4c0.2,0.3,0.4,0.7,0.4,1.2v0.3h-2.6c0,0.5,0.1,0.9,0.3,1.1c0.2,0.3,0.6,0.4,1,0.4c0.2,0,0.4,0,0.5,0
		c0.2,0,0.4-0.1,0.6-0.2v0.3c-0.2,0.1-0.4,0.1-0.6,0.2C346.6,117.5,346.5,117.5,346.3,117.5z M346.2,114.1c-0.3,0-0.6,0.1-0.8,0.3
		c-0.2,0.2-0.3,0.6-0.4,1h2.2c0-0.4-0.1-0.7-0.3-1C346.7,114.2,346.5,114.1,346.2,114.1z"/>
	<path d="M349.3,117.5l-1.4-3.6h0.3l0.9,2.4c0.1,0.3,0.2,0.6,0.3,0.8h0c0.1-0.3,0.2-0.6,0.3-0.8l0.9-2.4h0.3l-1.4,3.6H349.3z"/>
	<path d="M351.6,112.9c0-0.2,0.1-0.3,0.2-0.3c0.1,0,0.1,0,0.2,0.1c0,0.1,0.1,0.1,0.1,0.2c0,0.1,0,0.2-0.1,0.2s-0.1,0.1-0.2,0.1
		C351.6,113.2,351.6,113.1,351.6,112.9z M352,117.5h-0.3v-3.6h0.3V117.5z"/>
	<path d="M354.6,117.5c-0.5,0-0.9-0.2-1.2-0.5c-0.3-0.3-0.4-0.8-0.4-1.4c0-0.6,0.1-1,0.4-1.4c0.3-0.3,0.7-0.5,1.1-0.5
		c0.4,0,0.8,0.1,1,0.4c0.2,0.3,0.4,0.7,0.4,1.2v0.3h-2.6c0,0.5,0.1,0.9,0.3,1.1c0.2,0.3,0.6,0.4,1,0.4c0.2,0,0.4,0,0.5,0
		c0.2,0,0.4-0.1,0.6-0.2v0.3c-0.2,0.1-0.4,0.1-0.6,0.2C355,117.5,354.8,117.5,354.6,117.5z M354.5,114.1c-0.3,0-0.6,0.1-0.8,0.3
		c-0.2,0.2-0.3,0.6-0.4,1h2.2c0-0.4-0.1-0.7-0.3-1C355.1,114.2,354.8,114.1,354.5,114.1z"/>
	<path d="M359.7,117.5l-0.8-2.4c-0.1-0.2-0.1-0.4-0.2-0.7h0l-0.1,0.2l-0.2,0.5l-0.8,2.4h-0.3l-1-3.6h0.3l0.6,2.1
		c0.1,0.5,0.2,0.9,0.3,1.1h0c0.1-0.5,0.2-0.9,0.3-1l0.7-2.2h0.3l0.7,2.2c0.2,0.5,0.3,0.9,0.3,1h0c0-0.1,0.1-0.5,0.3-1.2l0.5-2.1h0.3
		l-1,3.6H359.7z"/>
	<path d="M366.5,115.7c0,0.6-0.1,1-0.4,1.4s-0.7,0.5-1.2,0.5c-0.3,0-0.6-0.1-0.8-0.2s-0.4-0.4-0.6-0.7c-0.1-0.3-0.2-0.6-0.2-1
		c0-0.6,0.1-1,0.4-1.4c0.3-0.3,0.7-0.5,1.2-0.5c0.5,0,0.9,0.2,1.2,0.5S366.5,115.1,366.5,115.7z M363.7,115.7c0,0.5,0.1,0.9,0.3,1.2
		s0.5,0.4,0.9,0.4s0.7-0.1,0.9-0.4c0.2-0.3,0.3-0.7,0.3-1.2c0-0.5-0.1-0.9-0.3-1.2s-0.5-0.4-0.9-0.4c-0.4,0-0.7,0.1-0.9,0.4
		C363.8,114.8,363.7,115.2,363.7,115.7z"/>
	<path d="M368.9,113.8c0.2,0,0.3,0,0.5,0l-0.1,0.3c-0.2,0-0.3-0.1-0.5-0.1c-0.3,0-0.6,0.1-0.8,0.4c-0.2,0.3-0.3,0.6-0.3,1v2h-0.3
		v-3.6h0.3l0,0.6h0c0.1-0.3,0.3-0.4,0.5-0.6S368.7,113.8,368.9,113.8z"/>
	<path d="M371.5,113.8c0.3,0,0.5,0,0.7,0.1c0.2,0.1,0.4,0.3,0.5,0.5h0c0-0.3,0-0.5,0-0.8v-1.3h0.3v5.1h-0.2l-0.1-0.5h0
		c-0.3,0.4-0.7,0.6-1.2,0.6c-0.5,0-0.9-0.2-1.1-0.5c-0.3-0.3-0.4-0.8-0.4-1.3c0-0.6,0.1-1.1,0.4-1.4S371,113.8,371.5,113.8z
		 M371.5,114.1c-0.4,0-0.7,0.1-0.9,0.4s-0.3,0.7-0.3,1.2c0,1,0.4,1.5,1.2,1.5c0.4,0,0.7-0.1,0.9-0.4s0.3-0.6,0.3-1.2v-0.1
		c0-0.6-0.1-1-0.3-1.2C372.2,114.2,371.9,114.1,371.5,114.1z"/>
	<path d="M375.6,117.5c-0.5,0-0.9-0.2-1.2-0.5c-0.3-0.3-0.4-0.8-0.4-1.4c0-0.6,0.1-1,0.4-1.4c0.3-0.3,0.7-0.5,1.1-0.5
		c0.4,0,0.8,0.1,1,0.4c0.2,0.3,0.4,0.7,0.4,1.2v0.3h-2.6c0,0.5,0.1,0.9,0.3,1.1s0.5,0.4,1,0.4c0.2,0,0.4,0,0.5,0
		c0.2,0,0.4-0.1,0.6-0.2v0.3c-0.2,0.1-0.4,0.1-0.6,0.2C376,117.5,375.8,117.5,375.6,117.5z M375.5,114.1c-0.3,0-0.6,0.1-0.8,0.3
		s-0.3,0.6-0.4,1h2.2c0-0.4-0.1-0.7-0.3-1C376.1,114.2,375.8,114.1,375.5,114.1z"/>
	<path d="M379.3,113.8c0.2,0,0.3,0,0.5,0l-0.1,0.3c-0.2,0-0.3-0.1-0.5-0.1c-0.3,0-0.6,0.1-0.8,0.4c-0.2,0.3-0.3,0.6-0.3,1v2h-0.3
		v-3.6h0.3l0,0.6h0c0.1-0.3,0.3-0.4,0.5-0.6S379.1,113.8,379.3,113.8z"/>
</g>
<g>
	<path d="M353.6,139.7c-0.6,0-1.1,0.2-1.4,0.6c-0.3,0.4-0.5,0.9-0.5,1.6c0,0.7,0.2,1.2,0.5,1.6c0.3,0.4,0.8,0.6,1.4,0.6
		c0.4,0,0.8-0.1,1.1-0.2v0.3c-0.3,0.1-0.7,0.2-1.2,0.2c-0.7,0-1.2-0.2-1.6-0.7s-0.6-1.1-0.6-1.8c0-0.5,0.1-0.9,0.3-1.3
		c0.2-0.4,0.5-0.7,0.8-0.9c0.3-0.2,0.8-0.3,1.2-0.3c0.5,0,0.9,0.1,1.3,0.3l-0.1,0.3C354.4,139.8,354,139.7,353.6,139.7z"/>
	<path d="M358.6,142.5c0,0.6-0.1,1-0.4,1.4c-0.3,0.3-0.7,0.5-1.2,0.5c-0.3,0-0.6-0.1-0.8-0.2s-0.4-0.4-0.6-0.7s-0.2-0.6-0.2-1
		c0-0.6,0.1-1,0.4-1.4c0.3-0.3,0.7-0.5,1.2-0.5c0.5,0,0.9,0.2,1.2,0.5S358.6,141.9,358.6,142.5z M355.8,142.5c0,0.5,0.1,0.9,0.3,1.2
		s0.5,0.4,0.9,0.4c0.4,0,0.7-0.1,0.9-0.4s0.3-0.7,0.3-1.2c0-0.5-0.1-0.9-0.3-1.2c-0.2-0.3-0.5-0.4-0.9-0.4s-0.7,0.1-0.9,0.4
		C355.9,141.6,355.8,142,355.8,142.5z"/>
	<path d="M362.1,144.3V142c0-0.4-0.1-0.6-0.2-0.8c-0.2-0.2-0.4-0.2-0.7-0.2c-0.4,0-0.7,0.1-0.9,0.3c-0.2,0.2-0.3,0.6-0.3,1.1v2h-0.3
		v-3.6h0.3l0.1,0.5h0c0.2-0.4,0.7-0.6,1.2-0.6c0.8,0,1.2,0.4,1.2,1.3v2.4H362.1z"/>
	<path d="M365,141h-0.8v3.3h-0.3V141h-0.7v-0.2l0.7-0.1v-0.3c0-0.4,0.1-0.8,0.2-1c0.2-0.2,0.4-0.3,0.8-0.3c0.2,0,0.4,0,0.6,0.1
		l-0.1,0.3c-0.2-0.1-0.4-0.1-0.5-0.1c-0.3,0-0.4,0.1-0.5,0.2c-0.1,0.2-0.2,0.4-0.2,0.7v0.3h0.8V141z M365.6,139.7
		c0-0.2,0.1-0.3,0.2-0.3c0.1,0,0.1,0,0.2,0.1c0,0.1,0.1,0.1,0.1,0.2c0,0.1,0,0.2-0.1,0.2c0,0.1-0.1,0.1-0.2,0.1
		C365.7,140,365.6,139.9,365.6,139.7z M366,144.3h-0.3v-3.6h0.3V144.3z"/>
	<path d="M368.6,140.6c0.2,0,0.3,0,0.5,0L369,141c-0.2,0-0.3-0.1-0.5-0.1c-0.3,0-0.6,0.1-0.8,0.4c-0.2,0.3-0.3,0.6-0.3,1v2h-0.3
		v-3.6h0.3l0,0.6h0c0.1-0.3,0.3-0.4,0.5-0.6S368.4,140.6,368.6,140.6z"/>
	<path d="M374.3,144.3v-2.4c0-0.4-0.1-0.6-0.2-0.8c-0.1-0.2-0.3-0.2-0.6-0.2c-0.4,0-0.6,0.1-0.8,0.3c-0.2,0.2-0.3,0.5-0.3,1v2.1
		h-0.3v-2.5c0-0.6-0.3-0.9-0.8-0.9c-0.4,0-0.7,0.1-0.8,0.3c-0.2,0.2-0.3,0.6-0.3,1.1v2h-0.3v-3.6h0.3l0.1,0.5h0
		c0.1-0.2,0.2-0.3,0.4-0.4s0.4-0.1,0.6-0.1c0.6,0,0.9,0.2,1.1,0.6h0c0.1-0.2,0.3-0.4,0.5-0.5c0.2-0.1,0.4-0.2,0.7-0.2
		c0.4,0,0.7,0.1,0.9,0.3c0.2,0.2,0.3,0.5,0.3,1v2.4H374.3z"/>
	<path d="M378,144.3l-0.1-0.6h0c-0.2,0.2-0.4,0.4-0.6,0.5c-0.2,0.1-0.4,0.1-0.7,0.1c-0.4,0-0.6-0.1-0.8-0.3
		c-0.2-0.2-0.3-0.4-0.3-0.8c0-0.4,0.1-0.6,0.4-0.8c0.3-0.2,0.7-0.3,1.3-0.3l0.7,0V142c0-0.3-0.1-0.6-0.2-0.8
		c-0.1-0.2-0.4-0.3-0.7-0.3c-0.3,0-0.7,0.1-1,0.3l-0.1-0.3c0.4-0.2,0.8-0.3,1.2-0.3c0.4,0,0.7,0.1,0.9,0.3s0.3,0.5,0.3,1v2.4H378z
		 M376.7,144.1c0.4,0,0.7-0.1,0.9-0.3c0.2-0.2,0.3-0.5,0.3-0.9v-0.4l-0.6,0c-0.5,0-0.9,0.1-1.1,0.2c-0.2,0.1-0.3,0.3-0.3,0.6
		c0,0.2,0.1,0.4,0.2,0.5C376.2,144,376.4,144.1,376.7,144.1z"/>
	<path d="M380.4,144.1c0.2,0,0.4,0,0.5-0.1v0.3c-0.2,0.1-0.3,0.1-0.5,0.1c-0.3,0-0.6-0.1-0.7-0.3c-0.2-0.2-0.2-0.4-0.2-0.8V141h-0.5
		v-0.2l0.5-0.2l0.2-0.8h0.2v0.9h1.1v0.3h-1.1v2.3c0,0.3,0,0.5,0.1,0.6C380,144,380.1,144.1,380.4,144.1z"/>
	<path d="M381.6,139.7c0-0.2,0.1-0.3,0.2-0.3c0.1,0,0.1,0,0.2,0.1c0,0.1,0.1,0.1,0.1,0.2c0,0.1,0,0.2-0.1,0.2s-0.1,0.1-0.2,0.1
		C381.7,140,381.6,139.9,381.6,139.7z M382,144.3h-0.3v-3.6h0.3V144.3z"/>
	<path d="M386.2,142.5c0,0.6-0.1,1-0.4,1.4s-0.7,0.5-1.2,0.5c-0.3,0-0.6-0.1-0.8-0.2s-0.4-0.4-0.6-0.7c-0.1-0.3-0.2-0.6-0.2-1
		c0-0.6,0.1-1,0.4-1.4c0.3-0.3,0.7-0.5,1.2-0.5c0.5,0,0.9,0.2,1.2,0.5S386.2,141.9,386.2,142.5z M383.3,142.5c0,0.5,0.1,0.9,0.3,1.2
		s0.5,0.4,0.9,0.4s0.7-0.1,0.9-0.4c0.2-0.3,0.3-0.7,0.3-1.2c0-0.5-0.1-0.9-0.3-1.2s-0.5-0.4-0.9-0.4c-0.4,0-0.7,0.1-0.9,0.4
		C383.4,141.6,383.3,142,383.3,142.5z"/>
	<path d="M389.7,144.3V142c0-0.4-0.1-0.6-0.2-0.8c-0.2-0.2-0.4-0.2-0.7-0.2c-0.4,0-0.7,0.1-0.9,0.3c-0.2,0.2-0.3,0.6-0.3,1.1v2h-0.3
		v-3.6h0.3l0.1,0.5h0c0.2-0.4,0.7-0.6,1.2-0.6c0.8,0,1.2,0.4,1.2,1.3v2.4H389.7z"/>
</g>
<g>
	<path d="M281.5,82.4h-0.3l-1.1-3.7c-0.1-0.3-0.2-0.6-0.2-0.8c0,0.2-0.1,0.4-0.2,0.7c-0.1,0.2-0.4,1.5-1.1,3.8h-0.3l-1.3-4.8h0.4
		l0.8,3.1c0,0.1,0.1,0.2,0.1,0.3s0.1,0.2,0.1,0.3c0,0.1,0,0.2,0.1,0.3c0,0.1,0,0.2,0.1,0.3c0.1-0.3,0.2-0.8,0.3-1.4l0.8-2.9h0.4
		l1,3.4c0.1,0.4,0.2,0.7,0.2,0.9c0-0.2,0.1-0.3,0.1-0.5c0-0.2,0.4-1.4,1-3.8h0.3L281.5,82.4z"/>
	<path d="M283.5,77.8c0-0.2,0.1-0.3,0.2-0.3c0.1,0,0.1,0,0.2,0.1c0,0.1,0.1,0.1,0.1,0.2c0,0.1,0,0.2-0.1,0.2c0,0.1-0.1,0.1-0.2,0.1
		C283.6,78.2,283.5,78.1,283.5,77.8z M283.9,82.4h-0.3v-3.6h0.3V82.4z"/>
	<path d="M287.3,81.5c0,0.3-0.1,0.6-0.4,0.7c-0.2,0.2-0.6,0.3-1,0.3c-0.5,0-0.9-0.1-1.1-0.2v-0.4c0.4,0.2,0.7,0.3,1.1,0.3
		c0.4,0,0.6-0.1,0.8-0.2c0.2-0.1,0.3-0.3,0.3-0.5c0-0.2-0.1-0.3-0.2-0.5s-0.4-0.2-0.7-0.4c-0.4-0.1-0.6-0.2-0.8-0.3
		s-0.3-0.2-0.3-0.3c-0.1-0.1-0.1-0.3-0.1-0.4c0-0.3,0.1-0.5,0.3-0.6c0.2-0.2,0.5-0.2,0.9-0.2c0.4,0,0.8,0.1,1.1,0.2l-0.1,0.3
		c-0.4-0.1-0.7-0.2-1-0.2c-0.3,0-0.5,0-0.7,0.1c-0.2,0.1-0.3,0.2-0.3,0.4c0,0.2,0.1,0.3,0.2,0.4c0.1,0.1,0.4,0.2,0.8,0.4
		c0.3,0.1,0.6,0.2,0.7,0.3c0.1,0.1,0.3,0.2,0.3,0.3S287.3,81.3,287.3,81.5z"/>
	<path d="M290.8,82.4v-2.3c0-0.4-0.1-0.6-0.2-0.8c-0.2-0.2-0.4-0.2-0.7-0.2c-0.4,0-0.7,0.1-0.9,0.3c-0.2,0.2-0.3,0.6-0.3,1.1v2h-0.3
		v-5.1h0.3v1.6l0,0.5h0c0.1-0.2,0.3-0.4,0.5-0.5s0.5-0.1,0.8-0.1c0.8,0,1.2,0.4,1.2,1.3v2.4H290.8z"/>
	<path d="M294.3,82.4H294v-5.1h0.3V82.4z"/>
	<path d="M295.5,77.8c0-0.2,0.1-0.3,0.2-0.3c0.1,0,0.1,0,0.2,0.1c0,0.1,0.1,0.1,0.1,0.2c0,0.1,0,0.2-0.1,0.2c0,0.1-0.1,0.1-0.2,0.1
		C295.6,78.2,295.5,78.1,295.5,77.8z M295.9,82.4h-0.3v-3.6h0.3V82.4z"/>
	<path d="M299.3,81.5c0,0.3-0.1,0.6-0.4,0.7c-0.2,0.2-0.6,0.3-1,0.3c-0.5,0-0.9-0.1-1.1-0.2v-0.4c0.4,0.2,0.7,0.3,1.1,0.3
		c0.4,0,0.6-0.1,0.8-0.2c0.2-0.1,0.3-0.3,0.3-0.5c0-0.2-0.1-0.3-0.2-0.5s-0.4-0.2-0.7-0.4c-0.4-0.1-0.6-0.2-0.8-0.3
		s-0.3-0.2-0.3-0.3c-0.1-0.1-0.1-0.3-0.1-0.4c0-0.3,0.1-0.5,0.3-0.6c0.2-0.2,0.5-0.2,0.9-0.2c0.4,0,0.8,0.1,1.1,0.2l-0.1,0.3
		c-0.4-0.1-0.7-0.2-1-0.2c-0.3,0-0.5,0-0.7,0.1c-0.2,0.1-0.3,0.2-0.3,0.4c0,0.2,0.1,0.3,0.2,0.4c0.1,0.1,0.4,0.2,0.8,0.4
		c0.3,0.1,0.6,0.2,0.7,0.3c0.1,0.1,0.3,0.2,0.3,0.3S299.3,81.3,299.3,81.5z"/>
	<path d="M301.2,82.2c0.2,0,0.4,0,0.5-0.1v0.3c-0.2,0.1-0.3,0.1-0.5,0.1c-0.3,0-0.6-0.1-0.7-0.3c-0.2-0.2-0.2-0.4-0.2-0.8v-2.3h-0.5
		v-0.2l0.5-0.1l0.2-0.8h0.2v0.9h1.1v0.3h-1.1v2.3c0,0.3,0,0.5,0.1,0.6S301,82.2,301.2,82.2z"/>
</g>
<path fill="none" stroke="#D3D3D3" stroke-width="1.9356" stroke-miterlimit="10" d="M226,91.2"/>
<path fill="none" stroke="#D3D3D3" stroke-width="1.9356" stroke-miterlimit="10" d="M218,123.8"/>
<path fill="none" stroke="#D3D3D3" stroke-width="1.9356" stroke-miterlimit="10" d="M266,78.8"/>
<polygon fill="#D3D3D3" points="262.6,81.8 262.6,51.7 286.7,51.9 286.9,45.2 288.8,45.2 288.6,53.8 264.6,53.6 264.6,79.7 
	269.6,79.6 269.7,81.5 "/>
<path fill="none" stroke="#B21F3B" stroke-width="1.9356" stroke-miterlimit="10" d="M201,20.1"/>
<polygon fill="#87C9E9" points="35,34.7 33.1,34.7 33.1,16.3 198.5,16.3 198.5,18.3 35,18.3 "/>
<rect x="197.1" y="13.5" fill="#87C9E9" width="1.9" height="4.5"/>
<polygon fill="#87C9E9" points="99.8,148.1 99.8,146.2 326,145.5 326,77.6 337.3,77.9 337.3,79.8 327.9,79.6 327.9,147.4 "/>
<polygon fill="#1FA1B7" points="325.1,144.7 242.6,144.7 242.6,73.1 244.5,73.1 244.5,142.8 323.2,142.8 323.2,74.8 337.7,74.8 
	337.7,76.7 325.1,76.7 "/>
<rect x="352.7" y="92.8" transform="matrix(1.404068e-02 0.9999 -0.9999 1.404068e-02 449.9933 -268.7532)" fill="#1FA1B7" width="17.2" height="1.9"/>
<rect x="360.9" y="120.8" fill="#1FA1B7" width="1.9" height="16"/>
<path fill="#969696" d="M36.3,129.5h-9.4c-3.3,0-5.9-2.7-5.9-5.9c0-3.3,2.7-5.9,5.9-5.9h9.4c3.3,0,5.9,2.7,5.9,5.9
	C42.3,126.8,39.6,129.5,36.3,129.5z M26.9,118.1c-3,0-5.4,2.4-5.4,5.4c0,3,2.4,5.4,5.4,5.4h9.4c3,0,5.4-2.4,5.4-5.4
	c0-3-2.4-5.4-5.4-5.4H26.9z"/>
<path fill="#969696" d="M88.4,116.7H65.2c-3.2,0-5.7-2.3-5.7-5.2c0-2.9,2.6-5.2,5.7-5.2h23.2c3.2,0,5.7,2.3,5.7,5.2
	C94.1,114.3,91.5,116.7,88.4,116.7z M65.2,106.8c-2.9,0-5.2,2.1-5.2,4.7c0,2.6,2.3,4.7,5.2,4.7h23.2c2.9,0,5.2-2.1,5.2-4.7
	c0-2.6-2.3-4.7-5.2-4.7H65.2z"/>
<path fill="#969696" d="M93.6,155.9H74c-3.3,0-6-2.7-6-6V143c0-3.3,2.7-6,6-6h19.6c3.3,0,6,2.7,6,6v6.8
	C99.6,153.1,96.9,155.9,93.6,155.9z M74,137.5c-3.1,0-5.6,2.5-5.6,5.6v6.8c0,3.1,2.5,5.6,5.6,5.6h19.6c3.1,0,5.6-2.5,5.6-5.6V143
	c0-3.1-2.5-5.6-5.6-5.6H74z"/>
<path fill="#969696" d="M374.7,85.2h-31.2c-3.3,0-6.1-2.3-6.1-5.1v-1.6c0-2.8,2.7-5.1,6.1-5.1h31.2c3.3,0,6,2.3,6,5.1v1.6
	C380.7,82.9,378,85.2,374.7,85.2z M343.5,73.8c-3.1,0-5.6,2.1-5.6,4.6v1.6c0,2.6,2.5,4.6,5.6,4.6h31.2c3.1,0,5.6-2.1,5.6-4.6v-1.6
	c0-2.6-2.5-4.6-5.6-4.6H343.5z"/>
<path fill="#969696" d="M381.5,120.8h-42.3c-3.3,0-6.1-2.7-6.1-6V108c0-3.3,2.7-6,6.1-6h42.3c3.3,0,6,2.7,6,6v6.8
	C387.5,118.1,384.8,120.8,381.5,120.8z M339.1,102.4c-3.1,0-5.6,2.5-5.6,5.6v6.8c0,3.1,2.5,5.6,5.6,5.6h42.3c3.1,0,5.6-2.5,5.6-5.6
	V108c0-3.1-2.5-5.6-5.6-5.6H339.1z"/>
<path fill="#969696" d="M387.3,147.4H353c-2.7,0-4.9-1.6-4.9-3.6v-3.9c0-2,2.2-3.6,4.9-3.6h34.3c2.7,0,5,1.6,5,3.6v3.9
	C392.3,145.8,390.1,147.4,387.3,147.4z M353,136.8c-2.5,0-4.5,1.4-4.5,3.1v3.9c0,1.7,2,3.1,4.5,3.1h34.3c2.5,0,4.5-1.4,4.5-3.1v-3.9
	c0-1.7-2-3.1-4.5-3.1H353z"/>
<polygon fill="#1FA1B7" points="244,21.7 203,21.7 202.8,13.6 204.8,13.6 204.9,19.7 244,19.7 "/>
<polygon fill="#40355E" points="201.5,21.1 81.4,21 81.4,19.1 199.5,19.2 199.5,13.6 201.5,13.6 "/>
</svg>
