<?xml version="1.0" encoding="utf-8"?>
<!-- Generator: Adobe Illustrator 18.1.0, SVG Export Plug-In . SVG Version: 6.00 Build 0)  -->
<!DOCTYPE svg PUBLIC "-//W3C//DTD SVG 1.1//EN" "http://www.w3.org/Graphics/SVG/1.1/DTD/svg11.dtd">
<svg version="1.1" id="Layer_1" xmlns="http://www.w3.org/2000/svg" xmlns:xlink="http://www.w3.org/1999/xlink" x="0px" y="0px"
	 viewBox="0 0 295.1 196.5" enable-background="new 0 0 295.1 196.5" xml:space="preserve">
<g>
	<path fill="#FFFFFF" d="M24.9,179.4h-1.1v1.7h-1.2v-1.7H19v-1l3.6-5.2h1.2v5.1h1.1V179.4z M22.6,178.3v-2c0-0.7,0-1.3,0.1-1.7h0
		c-0.1,0.2-0.3,0.5-0.5,0.9l-1.9,2.8H22.6z"/>
	<path fill="#FFFFFF" d="M31.7,177.2c0,1.4-0.2,2.4-0.7,3c-0.4,0.7-1.1,1-2,1c-0.9,0-1.5-0.3-2-1c-0.5-0.7-0.7-1.7-0.7-3
		c0-1.4,0.2-2.4,0.7-3.1c0.4-0.7,1.1-1,2-1c0.9,0,1.5,0.3,2,1S31.7,175.8,31.7,177.2z M27.7,177.2c0,1.1,0.1,1.8,0.3,2.3
		c0.2,0.5,0.6,0.7,1.1,0.7s0.8-0.2,1.1-0.7c0.2-0.5,0.3-1.2,0.3-2.3c0-1.1-0.1-1.8-0.3-2.3c-0.2-0.5-0.6-0.7-1.1-0.7
		s-0.8,0.2-1.1,0.7C27.8,175.3,27.7,176.1,27.7,177.2z"/>
	<path fill="#FFFFFF" d="M37,175.6c0,0.8-0.1,1.4-0.4,1.9c-0.3,0.4-0.7,0.6-1.3,0.6c-0.5,0-1-0.2-1.3-0.6c-0.3-0.4-0.4-1-0.4-1.8
		c0-1.6,0.6-2.5,1.7-2.5c0.6,0,1,0.2,1.3,0.6C36.8,174.2,37,174.8,37,175.6z M34.5,175.6c0,0.5,0.1,0.9,0.2,1.2s0.3,0.4,0.5,0.4
		c0.5,0,0.7-0.5,0.7-1.6s-0.2-1.6-0.7-1.6c-0.2,0-0.4,0.1-0.5,0.4S34.5,175.1,34.5,175.6z M40.5,173.2l-4.4,7.9h-1l4.4-7.9H40.5z
		 M42.1,178.7c0,0.8-0.1,1.4-0.4,1.9c-0.3,0.4-0.7,0.6-1.3,0.6c-0.5,0-1-0.2-1.3-0.6c-0.3-0.4-0.5-1-0.5-1.8c0-1.6,0.6-2.5,1.7-2.5
		c0.6,0,1,0.2,1.3,0.6C41.9,177.3,42.1,177.9,42.1,178.7z M39.6,178.7c0,0.5,0.1,0.9,0.2,1.2c0.1,0.3,0.3,0.4,0.5,0.4
		c0.5,0,0.7-0.5,0.7-1.6c0-1-0.2-1.6-0.7-1.6c-0.2,0-0.4,0.1-0.5,0.4C39.7,177.8,39.6,178.2,39.6,178.7z"/>
	<path fill="#FFFFFF" d="M55,177.1c0,1.3-0.3,2.3-1,3c-0.6,0.7-1.5,1.1-2.7,1.1c-1.2,0-2.1-0.4-2.7-1.1c-0.6-0.7-1-1.7-1-3
		c0-1.3,0.3-2.3,1-3c0.6-0.7,1.6-1,2.7-1c1.2,0,2.1,0.4,2.7,1.1S55,175.9,55,177.1z M49,177.1c0,1,0.2,1.7,0.6,2.2
		c0.4,0.5,1,0.7,1.7,0.7c0.8,0,1.3-0.2,1.7-0.7c0.4-0.5,0.6-1.2,0.6-2.2c0-1-0.2-1.7-0.6-2.2c-0.4-0.5-1-0.7-1.7-0.7
		c-0.8,0-1.4,0.2-1.7,0.7C49.2,175.5,49,176.2,49,177.1z"/>
	<path fill="#FFFFFF" d="M58.8,181.1h-1.3v-7.9H62v1.1h-3.2v2.5h3v1.1h-3V181.1z"/>
	<path fill="#FFFFFF" d="M69.2,177.9v3.1h-1.3v-7.9h2.2c1,0,1.8,0.2,2.3,0.6s0.7,1,0.7,1.7c0,1-0.5,1.7-1.5,2.1l2.2,3.5h-1.5
		l-1.9-3.1H69.2z M69.2,176.9h0.9c0.6,0,1-0.1,1.3-0.3s0.4-0.6,0.4-1c0-0.4-0.1-0.8-0.4-1s-0.7-0.3-1.3-0.3h-0.8V176.9z"/>
	<path fill="#FFFFFF" d="M80.2,181.1h-4.4v-7.9h4.4v1.1H77v2.1h3v1.1h-3v2.5h3.2V181.1z"/>
	<path fill="#FFFFFF" d="M87.3,179c0,0.7-0.3,1.2-0.8,1.6c-0.5,0.4-1.2,0.6-2.1,0.6s-1.6-0.1-2.2-0.4v-1.2c0.4,0.2,0.7,0.3,1.1,0.4
		c0.4,0.1,0.8,0.1,1.1,0.1c0.5,0,0.9-0.1,1.1-0.3c0.2-0.2,0.4-0.5,0.4-0.8c0-0.3-0.1-0.5-0.3-0.7s-0.7-0.4-1.4-0.7
		c-0.7-0.3-1.2-0.6-1.5-1s-0.4-0.8-0.4-1.3c0-0.7,0.2-1.2,0.7-1.5s1.1-0.6,1.9-0.6c0.8,0,1.5,0.2,2.2,0.5l-0.4,1
		c-0.7-0.3-1.3-0.4-1.9-0.4c-0.4,0-0.7,0.1-0.9,0.3s-0.3,0.4-0.3,0.7c0,0.2,0,0.4,0.1,0.5c0.1,0.1,0.2,0.3,0.4,0.4s0.6,0.3,1.1,0.5
		c0.6,0.2,1,0.5,1.3,0.7s0.5,0.4,0.6,0.7C87.2,178.3,87.3,178.6,87.3,179z"/>
	<path fill="#FFFFFF" d="M94.8,175.6c0,0.8-0.3,1.4-0.8,1.9c-0.5,0.4-1.3,0.7-2.3,0.7h-0.8v2.9h-1.3v-7.9h2.3c1,0,1.7,0.2,2.2,0.6
		C94.6,174.2,94.8,174.8,94.8,175.6z M90.9,177.1h0.7c0.7,0,1.1-0.1,1.5-0.3s0.5-0.6,0.5-1.1c0-0.5-0.1-0.8-0.4-1s-0.7-0.3-1.3-0.3
		h-0.9V177.1z"/>
	<path fill="#FFFFFF" d="M104.2,177.1c0,1.3-0.3,2.3-1,3c-0.6,0.7-1.5,1.1-2.7,1.1c-1.2,0-2.1-0.4-2.7-1.1c-0.6-0.7-1-1.7-1-3
		c0-1.3,0.3-2.3,1-3c0.6-0.7,1.6-1,2.7-1c1.2,0,2.1,0.4,2.7,1.1S104.2,175.9,104.2,177.1z M98.2,177.1c0,1,0.2,1.7,0.6,2.2
		c0.4,0.5,1,0.7,1.7,0.7c0.8,0,1.3-0.2,1.7-0.7c0.4-0.5,0.6-1.2,0.6-2.2c0-1-0.2-1.7-0.6-2.2c-0.4-0.5-1-0.7-1.7-0.7
		c-0.8,0-1.4,0.2-1.7,0.7C98.4,175.5,98.2,176.2,98.2,177.1z"/>
	<path fill="#FFFFFF" d="M113.2,181.1h-1.6l-3.9-6.3h0l0,0.3c0.1,0.7,0.1,1.3,0.1,1.8v4.1h-1.2v-7.9h1.6l3.9,6.2h0
		c0-0.1,0-0.4,0-0.9s0-0.9,0-1.2v-4.1h1.2V181.1z"/>
	<path fill="#FFFFFF" d="M122.5,177.1c0,1.3-0.4,2.3-1.1,3s-1.8,1-3.1,1h-2.2v-7.9h2.4c1.2,0,2.2,0.3,2.9,1S122.5,175.9,122.5,177.1
		z M121.1,177.1c0-1.9-0.9-2.8-2.6-2.8h-1.1v5.7h0.9C120.2,180,121.1,179,121.1,177.1z"/>
	<path fill="#FFFFFF" d="M129.5,181.1H125v-7.9h4.4v1.1h-3.2v2.1h3v1.1h-3v2.5h3.2V181.1z"/>
	<path fill="#FFFFFF" d="M138.5,181.1h-1.6l-3.9-6.3h0l0,0.3c0.1,0.7,0.1,1.3,0.1,1.8v4.1H132v-7.9h1.6l3.9,6.2h0c0-0.1,0-0.4,0-0.9
		s0-0.9,0-1.2v-4.1h1.2V181.1z"/>
	<path fill="#FFFFFF" d="M144.1,181.1h-1.3v-6.8h-2.3v-1.1h5.9v1.1h-2.3V181.1z"/>
	<path fill="#FFFFFF" d="M153,179c0,0.7-0.3,1.2-0.8,1.6c-0.5,0.4-1.2,0.6-2.1,0.6s-1.6-0.1-2.2-0.4v-1.2c0.4,0.2,0.7,0.3,1.1,0.4
		c0.4,0.1,0.8,0.1,1.1,0.1c0.5,0,0.9-0.1,1.1-0.3c0.2-0.2,0.4-0.5,0.4-0.8c0-0.3-0.1-0.5-0.3-0.7c-0.2-0.2-0.7-0.4-1.4-0.7
		c-0.7-0.3-1.2-0.6-1.5-1c-0.3-0.4-0.4-0.8-0.4-1.3c0-0.7,0.2-1.2,0.7-1.5c0.5-0.4,1.1-0.6,1.9-0.6c0.8,0,1.5,0.2,2.2,0.5l-0.4,1
		c-0.7-0.3-1.3-0.4-1.9-0.4c-0.4,0-0.7,0.1-0.9,0.3s-0.3,0.4-0.3,0.7c0,0.2,0,0.4,0.1,0.5c0.1,0.1,0.2,0.3,0.4,0.4
		c0.2,0.1,0.6,0.3,1.1,0.5c0.6,0.2,1,0.5,1.3,0.7c0.3,0.2,0.5,0.4,0.6,0.7C152.9,178.3,153,178.6,153,179z"/>
	<path fill="#FFFFFF" d="M164.2,175.6c0,0.8-0.3,1.4-0.8,1.9c-0.5,0.4-1.3,0.7-2.3,0.7h-0.8v2.9H159v-7.9h2.3c1,0,1.7,0.2,2.2,0.6
		C164,174.2,164.2,174.8,164.2,175.6z M160.3,177.1h0.7c0.7,0,1.1-0.1,1.5-0.3c0.3-0.2,0.5-0.6,0.5-1.1c0-0.5-0.1-0.8-0.4-1
		s-0.7-0.3-1.3-0.3h-0.9V177.1z"/>
	<path fill="#FFFFFF" d="M166.6,181.1v-7.9h1.3v6.8h3.3v1.1H166.6z"/>
	<path fill="#FFFFFF" d="M177.8,181.1h-4.4v-7.9h4.4v1.1h-3.2v2.1h3v1.1h-3v2.5h3.2V181.1z"/>
	<path fill="#FFFFFF" d="M186.8,177.1c0,1.3-0.4,2.3-1.1,3c-0.7,0.7-1.8,1-3.1,1h-2.2v-7.9h2.4c1.2,0,2.2,0.3,2.9,1
		S186.8,175.9,186.8,177.1z M185.4,177.1c0-1.9-0.9-2.8-2.6-2.8h-1.1v5.7h0.9C184.5,180,185.4,179,185.4,177.1z"/>
	<path fill="#FFFFFF" d="M192.5,176.8h2.9v3.9c-0.5,0.2-0.9,0.3-1.4,0.3c-0.4,0.1-0.9,0.1-1.4,0.1c-1.2,0-2.1-0.4-2.8-1.1
		c-0.6-0.7-1-1.7-1-3c0-1.3,0.4-2.3,1.1-3c0.7-0.7,1.7-1.1,3-1.1c0.8,0,1.6,0.2,2.3,0.5l-0.5,1.1c-0.6-0.3-1.3-0.4-1.9-0.4
		c-0.8,0-1.5,0.3-2,0.8c-0.5,0.5-0.7,1.2-0.7,2.2c0,1,0.2,1.7,0.7,2.2c0.4,0.5,1.1,0.7,1.9,0.7c0.4,0,0.9-0.1,1.3-0.2v-2h-1.6V176.8
		z"/>
	<path fill="#FFFFFF" d="M202.5,181.1h-4.4v-7.9h4.4v1.1h-3.2v2.1h3v1.1h-3v2.5h3.2V181.1z"/>
	<path fill="#FFFFFF" d="M211.4,177.1c0,1.3-0.4,2.3-1.1,3c-0.7,0.7-1.8,1-3.1,1H205v-7.9h2.4c1.2,0,2.2,0.3,2.9,1
		S211.4,175.9,211.4,177.1z M210.1,177.1c0-1.9-0.9-2.8-2.6-2.8h-1.1v5.7h0.9C209.1,180,210.1,179,210.1,177.1z"/>
	<path fill="#FFFFFF" d="M220.3,181.1H219v-6.8h-2.3v-1.1h5.9v1.1h-2.3V181.1z"/>
	<path fill="#FFFFFF" d="M231.6,177.1c0,1.3-0.3,2.3-1,3c-0.6,0.7-1.5,1.1-2.7,1.1c-1.2,0-2.1-0.4-2.7-1.1c-0.6-0.7-1-1.7-1-3
		c0-1.3,0.3-2.3,1-3c0.6-0.7,1.6-1,2.7-1c1.2,0,2.1,0.4,2.7,1.1C231.3,174.9,231.6,175.9,231.6,177.1z M225.6,177.1
		c0,1,0.2,1.7,0.6,2.2c0.4,0.5,1,0.7,1.7,0.7c0.8,0,1.3-0.2,1.7-0.7s0.6-1.2,0.6-2.2c0-1-0.2-1.7-0.6-2.2c-0.4-0.5-1-0.7-1.7-0.7
		c-0.8,0-1.4,0.2-1.7,0.7C225.8,175.5,225.6,176.2,225.6,177.1z"/>
	<path fill="#FFFFFF" d="M241.4,181.1H240l-1.3-4.7c-0.1-0.2-0.1-0.5-0.2-0.9s-0.1-0.7-0.2-0.8c0,0.2-0.1,0.5-0.2,0.9
		c-0.1,0.4-0.1,0.6-0.2,0.8l-1.3,4.7h-1.4l-1-3.9l-1-3.9h1.3l1.1,4.6c0.2,0.7,0.3,1.4,0.4,1.9c0-0.3,0.1-0.6,0.2-1s0.2-0.7,0.2-0.9
		l1.3-4.6h1.3l1.3,4.6c0.1,0.4,0.3,1.1,0.4,1.9c0.1-0.5,0.2-1.2,0.4-2l1.1-4.6h1.3L241.4,181.1z"/>
	<path fill="#FFFFFF" d="M250.3,181.1l-0.8-2.2h-3l-0.8,2.2h-1.4l2.9-7.9h1.4l2.9,7.9H250.3z M249.1,177.8l-0.7-2.1
		c-0.1-0.1-0.1-0.4-0.2-0.7s-0.2-0.5-0.2-0.7c-0.1,0.4-0.2,0.9-0.4,1.4l-0.7,2H249.1z"/>
	<path fill="#FFFFFF" d="M254.8,177.9v3.1h-1.3v-7.9h2.2c1,0,1.8,0.2,2.3,0.6c0.5,0.4,0.7,1,0.7,1.7c0,1-0.5,1.7-1.5,2.1l2.2,3.5
		h-1.5l-1.9-3.1H254.8z M254.8,176.9h0.9c0.6,0,1-0.1,1.3-0.3s0.4-0.6,0.4-1c0-0.4-0.1-0.8-0.4-1s-0.7-0.3-1.3-0.3h-0.8V176.9z"/>
	<path fill="#FFFFFF" d="M267.7,177.1c0,1.3-0.4,2.3-1.1,3c-0.7,0.7-1.8,1-3.1,1h-2.2v-7.9h2.4c1.2,0,2.2,0.3,2.9,1
		S267.7,175.9,267.7,177.1z M266.4,177.1c0-1.9-0.9-2.8-2.6-2.8h-1.1v5.7h0.9C265.4,180,266.4,179,266.4,177.1z"/>
	<path fill="#FFFFFF" d="M274.8,179c0,0.7-0.3,1.2-0.8,1.6c-0.5,0.4-1.2,0.6-2.1,0.6s-1.6-0.1-2.2-0.4v-1.2c0.4,0.2,0.7,0.3,1.1,0.4
		c0.4,0.1,0.8,0.1,1.1,0.1c0.5,0,0.9-0.1,1.1-0.3c0.2-0.2,0.4-0.5,0.4-0.8c0-0.3-0.1-0.5-0.3-0.7c-0.2-0.2-0.7-0.4-1.4-0.7
		c-0.7-0.3-1.2-0.6-1.5-1c-0.3-0.4-0.4-0.8-0.4-1.3c0-0.7,0.2-1.2,0.7-1.5c0.5-0.4,1.1-0.6,1.9-0.6c0.8,0,1.5,0.2,2.2,0.5l-0.4,1
		c-0.7-0.3-1.3-0.4-1.9-0.4c-0.4,0-0.7,0.1-0.9,0.3s-0.3,0.4-0.3,0.7c0,0.2,0,0.4,0.1,0.5c0.1,0.1,0.2,0.3,0.4,0.4
		c0.2,0.1,0.6,0.3,1.1,0.5c0.6,0.2,1,0.5,1.3,0.7c0.3,0.2,0.5,0.4,0.6,0.7C274.7,178.3,274.8,178.6,274.8,179z"/>
	<path fill="#FFFFFF" d="M5.2,188.8c0,0.8-0.3,1.4-0.8,1.9c-0.5,0.4-1.3,0.7-2.3,0.7H1.3v2.9H0v-7.9h2.3c1,0,1.7,0.2,2.2,0.6
		C5,187.4,5.2,188,5.2,188.8z M1.3,190.3H2c0.7,0,1.1-0.1,1.5-0.3s0.5-0.6,0.5-1.1c0-0.5-0.1-0.8-0.4-1s-0.7-0.3-1.3-0.3H1.3V190.3z
		"/>
	<path fill="#FFFFFF" d="M8.9,191.1v3.1H7.6v-7.9h2.2c1,0,1.8,0.2,2.3,0.6s0.7,1,0.7,1.7c0,1-0.5,1.7-1.5,2.1l2.2,3.5H12l-1.9-3.1
		H8.9z M8.9,190.1h0.9c0.6,0,1-0.1,1.3-0.3s0.4-0.6,0.4-1c0-0.4-0.1-0.8-0.4-1s-0.7-0.3-1.3-0.3H8.9V190.1z"/>
	<path fill="#FFFFFF" d="M22.4,190.3c0,1.3-0.3,2.3-1,3c-0.6,0.7-1.5,1.1-2.7,1.1c-1.2,0-2.1-0.4-2.7-1.1c-0.6-0.7-1-1.7-1-3
		c0-1.3,0.3-2.3,1-3c0.6-0.7,1.6-1,2.7-1c1.2,0,2.1,0.4,2.7,1.1S22.4,189.1,22.4,190.3z M16.4,190.3c0,1,0.2,1.7,0.6,2.2
		c0.4,0.5,1,0.7,1.7,0.7c0.8,0,1.3-0.2,1.7-0.7c0.4-0.5,0.6-1.2,0.6-2.2c0-1-0.2-1.7-0.6-2.2c-0.4-0.5-1-0.7-1.7-0.7
		c-0.8,0-1.4,0.2-1.7,0.7C16.6,188.7,16.4,189.4,16.4,190.3z"/>
	<path fill="#FFFFFF" d="M23.9,196.5c-0.4,0-0.6,0-0.9-0.1v-1.1c0.3,0.1,0.6,0.1,0.8,0.1c0.7,0,1.1-0.4,1.1-1.3v-7.6h1.3v7.6
		c0,0.8-0.2,1.4-0.6,1.8C25.2,196.3,24.7,196.5,23.9,196.5z"/>
	<path fill="#FFFFFF" d="M33.5,194.3H29v-7.9h4.4v1.1h-3.2v2.1h3v1.1h-3v2.5h3.2V194.3z"/>
	<path fill="#FFFFFF" d="M39.3,187.4c-0.7,0-1.3,0.3-1.7,0.8s-0.6,1.2-0.6,2.2c0,1,0.2,1.7,0.6,2.2c0.4,0.5,1,0.7,1.8,0.7
		c0.3,0,0.7,0,1-0.1s0.6-0.2,1-0.3v1.1c-0.6,0.2-1.3,0.3-2.1,0.3c-1.1,0-2-0.3-2.6-1s-0.9-1.7-0.9-3c0-0.8,0.1-1.5,0.4-2.1
		c0.3-0.6,0.7-1.1,1.3-1.4s1.2-0.5,2-0.5c0.8,0,1.5,0.2,2.2,0.5l-0.5,1.1c-0.3-0.1-0.5-0.2-0.8-0.3C40,187.5,39.7,187.4,39.3,187.4z
		"/>
	<path fill="#FFFFFF" d="M46.5,194.3h-1.3v-6.8h-2.3v-1.1h5.9v1.1h-2.3V194.3z"/>
	<path fill="#FFFFFF" d="M55.4,192.2c0,0.7-0.3,1.2-0.8,1.6c-0.5,0.4-1.2,0.6-2.1,0.6s-1.6-0.1-2.2-0.4v-1.2
		c0.4,0.2,0.7,0.3,1.1,0.4c0.4,0.1,0.8,0.1,1.1,0.1c0.5,0,0.9-0.1,1.1-0.3c0.2-0.2,0.4-0.5,0.4-0.8c0-0.3-0.1-0.5-0.3-0.7
		s-0.7-0.4-1.4-0.7c-0.7-0.3-1.2-0.6-1.5-1s-0.4-0.8-0.4-1.3c0-0.7,0.2-1.2,0.7-1.5s1.1-0.6,1.9-0.6c0.8,0,1.5,0.2,2.2,0.5l-0.4,1
		c-0.7-0.3-1.3-0.4-1.9-0.4c-0.4,0-0.7,0.1-0.9,0.3s-0.3,0.4-0.3,0.7c0,0.2,0,0.4,0.1,0.5c0.1,0.1,0.2,0.3,0.4,0.4s0.6,0.3,1.1,0.5
		c0.6,0.2,1,0.5,1.3,0.7s0.5,0.4,0.6,0.7C55.3,191.5,55.4,191.8,55.4,192.2z"/>
	<path fill="#FFFFFF" d="M64.1,194.3h-1.3v-6.8h-2.3v-1.1h5.9v1.1h-2.3V194.3z"/>
	<path fill="#FFFFFF" d="M74.7,194.3h-1.3v-3.5h-3.6v3.5h-1.3v-7.9h1.3v3.2h3.6v-3.2h1.3V194.3z"/>
	<path fill="#FFFFFF" d="M82.4,194.3l-0.8-2.2h-3l-0.8,2.2h-1.4l2.9-7.9h1.4l2.9,7.9H82.4z M81.3,191l-0.7-2.1
		c-0.1-0.1-0.1-0.4-0.2-0.7c-0.1-0.3-0.2-0.5-0.2-0.7c-0.1,0.4-0.2,0.9-0.4,1.4l-0.7,2H81.3z"/>
	<path fill="#FFFFFF" d="M88.4,194.3h-1.3v-6.8h-2.3v-1.1h5.9v1.1h-2.3V194.3z"/>
	<path fill="#FFFFFF" d="M103.6,194.3h-1.4l-1.3-4.7c-0.1-0.2-0.1-0.5-0.2-0.9s-0.1-0.7-0.2-0.8c0,0.2-0.1,0.5-0.2,0.9
		c-0.1,0.4-0.1,0.6-0.2,0.8l-1.3,4.7h-1.4l-1-3.9l-1-3.9h1.3l1.1,4.6c0.2,0.7,0.3,1.4,0.4,1.9c0-0.3,0.1-0.6,0.2-1s0.2-0.7,0.2-0.9
		l1.3-4.6h1.3l1.3,4.6c0.1,0.4,0.3,1.1,0.4,1.9c0.1-0.5,0.2-1.2,0.4-2l1.1-4.6h1.3L103.6,194.3z"/>
	<path fill="#FFFFFF" d="M112,194.3h-4.4v-7.9h4.4v1.1h-3.2v2.1h3v1.1h-3v2.5h3.2V194.3z"/>
	<path fill="#FFFFFF" d="M115.9,191.1v3.1h-1.3v-7.9h2.2c1,0,1.8,0.2,2.3,0.6s0.7,1,0.7,1.7c0,1-0.5,1.7-1.5,2.1l2.2,3.5H119
		l-1.9-3.1H115.9z M115.9,190.1h0.9c0.6,0,1-0.1,1.3-0.3s0.4-0.6,0.4-1c0-0.4-0.1-0.8-0.4-1s-0.7-0.3-1.3-0.3h-0.8V190.1z"/>
	<path fill="#FFFFFF" d="M126.9,194.3h-4.4v-7.9h4.4v1.1h-3.2v2.1h3v1.1h-3v2.5h3.2V194.3z"/>
	<path fill="#FFFFFF" d="M140.3,194.3h-1.4l-1.3-4.7c-0.1-0.2-0.1-0.5-0.2-0.9s-0.1-0.7-0.2-0.8c0,0.2-0.1,0.5-0.2,0.9
		c-0.1,0.4-0.1,0.6-0.2,0.8l-1.3,4.7h-1.4l-1-3.9l-1-3.9h1.3l1.1,4.6c0.2,0.7,0.3,1.4,0.4,1.9c0-0.3,0.1-0.6,0.2-1
		c0.1-0.4,0.2-0.7,0.2-0.9l1.3-4.6h1.3l1.3,4.6c0.1,0.4,0.3,1.1,0.4,1.9c0.1-0.5,0.2-1.2,0.4-2l1.1-4.6h1.3L140.3,194.3z"/>
	<path fill="#FFFFFF" d="M144.3,194.3v-7.9h1.3v7.9H144.3z"/>
	<path fill="#FFFFFF" d="M151.2,194.3h-1.3v-6.8h-2.3v-1.1h5.9v1.1h-2.3V194.3z"/>
	<path fill="#FFFFFF" d="M161.7,194.3h-1.3v-3.5h-3.6v3.5h-1.3v-7.9h1.3v3.2h3.6v-3.2h1.3V194.3z"/>
	<path fill="#FFFFFF" d="M164.6,194.3v-7.9h1.3v7.9H164.6z"/>
	<path fill="#FFFFFF" d="M175.3,194.3h-1.6l-3.9-6.3h0l0,0.3c0,0.7,0.1,1.3,0.1,1.8v4.1h-1.2v-7.9h1.6l3.9,6.2h0c0-0.1,0-0.4,0-0.9
		s0-0.9,0-1.2v-4.1h1.2V194.3z"/>
	<path fill="#FFFFFF" d="M184.6,194.3h-1.3v-6.8H181v-1.1h5.9v1.1h-2.3V194.3z"/>
	<path fill="#FFFFFF" d="M195.2,194.3h-1.3v-3.5h-3.6v3.5H189v-7.9h1.3v3.2h3.6v-3.2h1.3V194.3z"/>
	<path fill="#FFFFFF" d="M202.5,194.3h-4.4v-7.9h4.4v1.1h-3.2v2.1h3v1.1h-3v2.5h3.2V194.3z"/>
	<path fill="#FFFFFF" d="M205,194.3v-7.9h1.3v7.9H205z"/>
	<path fill="#FFFFFF" d="M210.5,191.1v3.1h-1.3v-7.9h2.2c1,0,1.8,0.2,2.3,0.6c0.5,0.4,0.7,1,0.7,1.7c0,1-0.5,1.7-1.5,2.1l2.2,3.5
		h-1.5l-1.9-3.1H210.5z M210.5,190.1h0.9c0.6,0,1-0.1,1.3-0.3s0.4-0.6,0.4-1c0-0.4-0.1-0.8-0.4-1s-0.7-0.3-1.3-0.3h-0.8V190.1z"/>
	<path fill="#FFFFFF" d="M224.1,187.4c-0.7,0-1.3,0.3-1.7,0.8c-0.4,0.5-0.6,1.2-0.6,2.2c0,1,0.2,1.7,0.6,2.2s1,0.7,1.8,0.7
		c0.3,0,0.7,0,1-0.1c0.3-0.1,0.6-0.2,1-0.3v1.1c-0.6,0.2-1.3,0.3-2.1,0.3c-1.1,0-2-0.3-2.6-1c-0.6-0.7-0.9-1.7-0.9-3
		c0-0.8,0.1-1.5,0.4-2.1s0.7-1.1,1.3-1.4s1.2-0.5,2-0.5c0.8,0,1.5,0.2,2.2,0.5l-0.5,1.1c-0.3-0.1-0.5-0.2-0.8-0.3
		C224.7,187.5,224.4,187.4,224.1,187.4z"/>
	<path fill="#FFFFFF" d="M235.5,190.3c0,1.3-0.3,2.3-1,3c-0.6,0.7-1.5,1.1-2.7,1.1c-1.2,0-2.1-0.4-2.7-1.1c-0.6-0.7-1-1.7-1-3
		c0-1.3,0.3-2.3,1-3c0.6-0.7,1.6-1,2.7-1c1.2,0,2.1,0.4,2.7,1.1C235.2,188.1,235.5,189.1,235.5,190.3z M229.5,190.3
		c0,1,0.2,1.7,0.6,2.2c0.4,0.5,1,0.7,1.7,0.7c0.8,0,1.3-0.2,1.7-0.7s0.6-1.2,0.6-2.2c0-1-0.2-1.7-0.6-2.2c-0.4-0.5-1-0.7-1.7-0.7
		c-0.8,0-1.4,0.2-1.7,0.7C229.7,188.7,229.5,189.4,229.5,190.3z"/>
	<path fill="#FFFFFF" d="M241.4,194.3l-2.3-6.6h0c0.1,1,0.1,1.9,0.1,2.7v3.8H238v-7.9h1.8l2.2,6.2h0l2.2-6.2h1.8v7.9h-1.2v-3.9
		c0-0.4,0-0.9,0-1.5c0-0.6,0-1,0.1-1.1h0l-2.4,6.5H241.4z"/>
	<path fill="#FFFFFF" d="M252.4,194.3l-2.3-6.6h0c0.1,1,0.1,1.9,0.1,2.7v3.8H249v-7.9h1.8l2.2,6.2h0l2.2-6.2h1.8v7.9h-1.2v-3.9
		c0-0.4,0-0.9,0-1.5c0-0.6,0-1,0.1-1.1h0l-2.4,6.5H252.4z"/>
	<path fill="#FFFFFF" d="M266.1,186.4v5.1c0,0.6-0.1,1.1-0.4,1.5c-0.2,0.4-0.6,0.8-1.1,1s-1,0.4-1.7,0.4c-1,0-1.7-0.3-2.3-0.8
		c-0.5-0.5-0.8-1.2-0.8-2.1v-5.1h1.3v5c0,0.6,0.2,1.1,0.5,1.4s0.8,0.5,1.4,0.5c1.2,0,1.8-0.6,1.8-1.9v-5H266.1z"/>
	<path fill="#FFFFFF" d="M275.5,194.3h-1.6l-3.9-6.3h0l0,0.3c0,0.7,0.1,1.3,0.1,1.8v4.1H269v-7.9h1.6l3.9,6.2h0c0-0.1,0-0.4,0-0.9
		s0-0.9,0-1.2v-4.1h1.2V194.3z"/>
	<path fill="#FFFFFF" d="M278.4,194.3v-7.9h1.3v7.9H278.4z"/>
	<path fill="#FFFFFF" d="M285.3,194.3H284v-6.8h-2.3v-1.1h5.9v1.1h-2.3V194.3z"/>
	<path fill="#FFFFFF" d="M291.9,190l1.9-3.6h1.4l-2.6,4.8v3h-1.3v-3l-2.6-4.9h1.4L291.9,190z"/>
</g>
<g>
	<circle fill="#FFFFFF" cx="149.4" cy="81.4" r="81.4"/>
	<path fill="#9ECECE" d="M149.4,0v81.4l61.8,53.1c0,0-24,31.5-67.3,28.2c0,0-61.9-1.8-74.7-67.3c0,0-12.4-50,36.6-82.7
		C105.7,12.7,123.9-0.2,149.4,0z"/>
</g>
</svg>
