<?xml version="1.0" encoding="utf-8"?>
<!-- Generator: Adobe Illustrator 18.1.0, SVG Export Plug-In . SVG Version: 6.00 Build 0)  -->
<!DOCTYPE svg PUBLIC "-//W3C//DTD SVG 1.1//EN" "http://www.w3.org/Graphics/SVG/1.1/DTD/svg11.dtd">
<svg version="1.1" id="Layer_1" xmlns="http://www.w3.org/2000/svg" xmlns:xlink="http://www.w3.org/1999/xlink" x="0px" y="0px"
	 viewBox="0 0 285.7 182.4" enable-background="new 0 0 285.7 182.4" xml:space="preserve">
<g>
	<path fill="#FFFFFF" d="M5.3,177.8c0,1.5-0.3,2.7-0.9,3.5c-0.6,0.8-1.6,1.1-2.8,1.1c-0.5,0-0.8,0-1-0.1v-1.1c0.3,0.1,0.6,0.1,1,0.1
		c0.9,0,1.5-0.2,1.9-0.7s0.6-1.2,0.7-2.2H4c-0.2,0.3-0.5,0.6-0.8,0.7c-0.3,0.1-0.6,0.2-1,0.2c-0.7,0-1.2-0.2-1.6-0.7
		c-0.4-0.4-0.6-1-0.6-1.8c0-0.8,0.2-1.5,0.7-2c0.5-0.5,1.1-0.7,1.9-0.7c0.6,0,1,0.1,1.5,0.4c0.4,0.3,0.7,0.7,1,1.2
		S5.3,177.1,5.3,177.8z M2.6,175.4c-0.4,0-0.8,0.1-1,0.4c-0.2,0.3-0.3,0.7-0.3,1.2c0,0.4,0.1,0.8,0.3,1.1c0.2,0.3,0.5,0.4,1,0.4
		c0.4,0,0.8-0.1,1.1-0.4s0.4-0.6,0.4-0.9c0-0.3-0.1-0.6-0.2-0.9c-0.1-0.3-0.3-0.5-0.5-0.7C3.1,175.5,2.9,175.4,2.6,175.4z"/>
	<path fill="#FFFFFF" d="M9.8,177.4c0.8,0,1.4,0.2,1.9,0.6s0.7,1,0.7,1.7c0,0.8-0.3,1.5-0.8,2c-0.5,0.5-1.3,0.7-2.2,0.7
		c-0.9,0-1.6-0.1-2.1-0.4v-1.1c0.3,0.2,0.6,0.3,1,0.4c0.4,0.1,0.7,0.1,1,0.1c0.6,0,1-0.1,1.3-0.4c0.3-0.3,0.4-0.6,0.4-1.1
		c0-0.9-0.6-1.4-1.8-1.4c-0.2,0-0.4,0-0.6,0.1s-0.5,0.1-0.6,0.1l-0.6-0.3l0.3-3.8h4.1v1.1h-3l-0.2,1.9c0.1,0,0.3,0,0.5-0.1
		C9.3,177.4,9.5,177.4,9.8,177.4z"/>
	<path fill="#FFFFFF" d="M17.7,176.8c0,0.8-0.1,1.4-0.4,1.9c-0.3,0.4-0.7,0.6-1.3,0.6c-0.5,0-1-0.2-1.3-0.6c-0.3-0.4-0.4-1-0.4-1.8
		c0-1.6,0.6-2.5,1.7-2.5c0.6,0,1,0.2,1.3,0.6C17.5,175.4,17.7,176,17.7,176.8z M15.2,176.8c0,0.5,0.1,0.9,0.2,1.2s0.3,0.4,0.5,0.4
		c0.5,0,0.7-0.5,0.7-1.6s-0.2-1.6-0.7-1.6c-0.2,0-0.4,0.1-0.5,0.4S15.2,176.3,15.2,176.8z M21.2,174.5l-4.4,7.9h-1l4.4-7.9H21.2z
		 M22.8,180c0,0.8-0.1,1.4-0.4,1.9c-0.3,0.4-0.7,0.6-1.3,0.6c-0.5,0-1-0.2-1.3-0.6c-0.3-0.4-0.5-1-0.5-1.8c0-1.6,0.6-2.5,1.7-2.5
		c0.6,0,1,0.2,1.3,0.6C22.6,178.6,22.8,179.2,22.8,180z M20.4,180c0,0.5,0.1,0.9,0.2,1.2c0.1,0.3,0.3,0.4,0.5,0.4
		c0.5,0,0.7-0.5,0.7-1.6c0-1-0.2-1.6-0.7-1.6c-0.2,0-0.4,0.1-0.5,0.4C20.4,179,20.4,179.4,20.4,180z"/>
	<path fill="#FFFFFF" d="M35.7,178.4c0,1.3-0.3,2.3-1,3c-0.6,0.7-1.5,1.1-2.7,1.1c-1.2,0-2.1-0.4-2.7-1.1c-0.6-0.7-1-1.7-1-3
		c0-1.3,0.3-2.3,1-3c0.6-0.7,1.6-1,2.7-1c1.2,0,2.1,0.4,2.7,1.1S35.7,177.1,35.7,178.4z M29.7,178.4c0,1,0.2,1.7,0.6,2.2
		c0.4,0.5,1,0.7,1.7,0.7c0.8,0,1.3-0.2,1.7-0.7c0.4-0.5,0.6-1.2,0.6-2.2c0-1-0.2-1.7-0.6-2.2c-0.4-0.5-1-0.7-1.7-0.7
		c-0.8,0-1.4,0.2-1.7,0.7C29.9,176.7,29.7,177.4,29.7,178.4z"/>
	<path fill="#FFFFFF" d="M39.5,182.3h-1.3v-7.9h4.4v1.1h-3.2v2.5h3v1.1h-3V182.3z"/>
	<path fill="#FFFFFF" d="M49.9,179.2v3.1h-1.3v-7.9h2.2c1,0,1.8,0.2,2.3,0.6s0.7,1,0.7,1.7c0,1-0.5,1.7-1.5,2.1l2.2,3.5H53l-1.9-3.1
		H49.9z M49.9,178.1h0.9c0.6,0,1-0.1,1.3-0.3s0.4-0.6,0.4-1c0-0.4-0.1-0.8-0.4-1s-0.7-0.3-1.3-0.3h-0.8V178.1z"/>
	<path fill="#FFFFFF" d="M60.9,182.3h-4.4v-7.9h4.4v1.1h-3.2v2.1h3v1.1h-3v2.5h3.2V182.3z"/>
	<path fill="#FFFFFF" d="M68,180.2c0,0.7-0.3,1.2-0.8,1.6c-0.5,0.4-1.2,0.6-2.1,0.6s-1.6-0.1-2.2-0.4v-1.2c0.4,0.2,0.7,0.3,1.1,0.4
		c0.4,0.1,0.8,0.1,1.1,0.1c0.5,0,0.9-0.1,1.1-0.3c0.2-0.2,0.4-0.5,0.4-0.8c0-0.3-0.1-0.5-0.3-0.7s-0.7-0.4-1.4-0.7
		c-0.7-0.3-1.2-0.6-1.5-1S63,177,63,176.5c0-0.7,0.2-1.2,0.7-1.5s1.1-0.6,1.9-0.6c0.8,0,1.5,0.2,2.2,0.5l-0.4,1
		c-0.7-0.3-1.3-0.4-1.9-0.4c-0.4,0-0.7,0.1-0.9,0.3s-0.3,0.4-0.3,0.7c0,0.2,0,0.4,0.1,0.5c0.1,0.1,0.2,0.3,0.4,0.4s0.6,0.3,1.1,0.5
		c0.6,0.2,1,0.5,1.3,0.7s0.5,0.4,0.6,0.7C67.9,179.5,68,179.8,68,180.2z"/>
	<path fill="#FFFFFF" d="M75.5,176.9c0,0.8-0.3,1.4-0.8,1.9c-0.5,0.4-1.3,0.7-2.3,0.7h-0.8v2.9h-1.3v-7.9h2.3c1,0,1.7,0.2,2.2,0.6
		C75.3,175.5,75.5,176.1,75.5,176.9z M71.6,178.3h0.7c0.7,0,1.1-0.1,1.5-0.3s0.5-0.6,0.5-1.1c0-0.5-0.1-0.8-0.4-1s-0.7-0.3-1.3-0.3
		h-0.9V178.3z"/>
	<path fill="#FFFFFF" d="M84.9,178.4c0,1.3-0.3,2.3-1,3c-0.6,0.7-1.5,1.1-2.7,1.1c-1.2,0-2.1-0.4-2.7-1.1c-0.6-0.7-1-1.7-1-3
		c0-1.3,0.3-2.3,1-3c0.6-0.7,1.6-1,2.7-1c1.2,0,2.1,0.4,2.7,1.1S84.9,177.1,84.9,178.4z M78.9,178.4c0,1,0.2,1.7,0.6,2.2
		c0.4,0.5,1,0.7,1.7,0.7c0.8,0,1.3-0.2,1.7-0.7c0.4-0.5,0.6-1.2,0.6-2.2c0-1-0.2-1.7-0.6-2.2c-0.4-0.5-1-0.7-1.7-0.7
		c-0.8,0-1.4,0.2-1.7,0.7C79.1,176.7,78.9,177.4,78.9,178.4z"/>
	<path fill="#FFFFFF" d="M93.9,182.3h-1.6l-3.9-6.3h0l0,0.3c0.1,0.7,0.1,1.3,0.1,1.8v4.1h-1.2v-7.9h1.6l3.9,6.2h0c0-0.1,0-0.4,0-0.9
		s0-0.9,0-1.2v-4.1h1.2V182.3z"/>
	<path fill="#FFFFFF" d="M103.2,178.3c0,1.3-0.4,2.3-1.1,3s-1.8,1-3.1,1h-2.2v-7.9h2.4c1.2,0,2.2,0.3,2.9,1S103.2,177.1,103.2,178.3
		z M101.9,178.4c0-1.9-0.9-2.8-2.6-2.8h-1.1v5.7H99C100.9,181.3,101.9,180.3,101.9,178.4z"/>
	<path fill="#FFFFFF" d="M110.2,182.3h-4.4v-7.9h4.4v1.1H107v2.1h3v1.1h-3v2.5h3.2V182.3z"/>
	<path fill="#FFFFFF" d="M119.2,182.3h-1.6l-3.9-6.3h0l0,0.3c0.1,0.7,0.1,1.3,0.1,1.8v4.1h-1.2v-7.9h1.6l3.9,6.2h0
		c0-0.1,0-0.4,0-0.9s0-0.9,0-1.2v-4.1h1.2V182.3z"/>
	<path fill="#FFFFFF" d="M124.8,182.3h-1.3v-6.8h-2.3v-1.1h5.9v1.1h-2.3V182.3z"/>
	<path fill="#FFFFFF" d="M133.7,180.2c0,0.7-0.3,1.2-0.8,1.6c-0.5,0.4-1.2,0.6-2.1,0.6s-1.6-0.1-2.2-0.4v-1.2
		c0.4,0.2,0.7,0.3,1.1,0.4c0.4,0.1,0.8,0.1,1.1,0.1c0.5,0,0.9-0.1,1.1-0.3c0.2-0.2,0.4-0.5,0.4-0.8c0-0.3-0.1-0.5-0.3-0.7
		c-0.2-0.2-0.7-0.4-1.4-0.7c-0.7-0.3-1.2-0.6-1.5-1c-0.3-0.4-0.4-0.8-0.4-1.3c0-0.7,0.2-1.2,0.7-1.5c0.5-0.4,1.1-0.6,1.9-0.6
		c0.8,0,1.5,0.2,2.2,0.5l-0.4,1c-0.7-0.3-1.3-0.4-1.9-0.4c-0.4,0-0.7,0.1-0.9,0.3s-0.3,0.4-0.3,0.7c0,0.2,0,0.4,0.1,0.5
		c0.1,0.1,0.2,0.3,0.4,0.4c0.2,0.1,0.6,0.3,1.1,0.5c0.6,0.2,1,0.5,1.3,0.7c0.3,0.2,0.5,0.4,0.6,0.7
		C133.6,179.5,133.7,179.8,133.7,180.2z"/>
	<path fill="#FFFFFF" d="M145.9,182.3h-1.3v-3.5H141v3.5h-1.3v-7.9h1.3v3.2h3.6v-3.2h1.3V182.3z"/>
	<path fill="#FFFFFF" d="M153.7,182.3l-0.8-2.2h-3l-0.8,2.2h-1.4l2.9-7.9h1.4l2.9,7.9H153.7z M152.6,179l-0.7-2.1
		c-0.1-0.1-0.1-0.4-0.2-0.7s-0.2-0.5-0.2-0.7c-0.1,0.4-0.2,0.9-0.4,1.4l-0.7,2H152.6z"/>
	<path fill="#FFFFFF" d="M161.4,174.5h1.3l-2.8,7.9h-1.4l-2.7-7.9h1.3l1.6,4.9c0.1,0.2,0.2,0.5,0.3,0.9s0.2,0.6,0.2,0.8
		c0-0.3,0.1-0.6,0.2-0.9c0.1-0.4,0.2-0.6,0.2-0.8L161.4,174.5z"/>
	<path fill="#FFFFFF" d="M169,182.3h-4.4v-7.9h4.4v1.1h-3.2v2.1h3v1.1h-3v2.5h3.2V182.3z"/>
	<path fill="#FFFFFF" d="M178.4,178.1h2.9v3.9c-0.5,0.2-0.9,0.3-1.4,0.3c-0.4,0.1-0.9,0.1-1.4,0.1c-1.2,0-2.1-0.4-2.8-1.1
		c-0.6-0.7-1-1.7-1-3c0-1.3,0.4-2.3,1.1-3c0.7-0.7,1.7-1.1,3-1.1c0.8,0,1.6,0.2,2.3,0.5l-0.5,1.1c-0.6-0.3-1.3-0.4-1.9-0.4
		c-0.8,0-1.5,0.3-2,0.8c-0.5,0.5-0.7,1.2-0.7,2.2c0,1,0.2,1.7,0.7,2.2c0.4,0.5,1.1,0.7,1.9,0.7c0.4,0,0.9-0.1,1.3-0.2v-2h-1.6V178.1
		z"/>
	<path fill="#FFFFFF" d="M184,182.3v-7.9h1.3v7.9H184z"/>
	<path fill="#FFFFFF" d="M192.7,174.5h1.3l-2.8,7.9h-1.4l-2.7-7.9h1.3l1.6,4.9c0.1,0.2,0.2,0.5,0.3,0.9s0.2,0.6,0.2,0.8
		c0-0.3,0.1-0.6,0.2-0.9c0.1-0.4,0.2-0.6,0.2-0.8L192.7,174.5z"/>
	<path fill="#FFFFFF" d="M200.3,182.3h-4.4v-7.9h4.4v1.1h-3.2v2.1h3v1.1h-3v2.5h3.2V182.3z"/>
	<path fill="#FFFFFF" d="M209.4,182.3h-1.6l-3.9-6.3h0l0,0.3c0,0.7,0.1,1.3,0.1,1.8v4.1h-1.2v-7.9h1.6l3.9,6.2h0c0-0.1,0-0.4,0-0.9
		s0-0.9,0-1.2v-4.1h1.2V182.3z"/>
	<path fill="#FFFFFF" d="M218.7,182.3h-1.3v-6.8h-2.3v-1.1h5.9v1.1h-2.3V182.3z"/>
	<path fill="#FFFFFF" d="M230,178.4c0,1.3-0.3,2.3-1,3c-0.6,0.7-1.5,1.1-2.7,1.1c-1.2,0-2.1-0.4-2.7-1.1c-0.6-0.7-1-1.7-1-3
		c0-1.3,0.3-2.3,1-3c0.6-0.7,1.6-1,2.7-1c1.2,0,2.1,0.4,2.7,1.1C229.7,176.1,230,177.1,230,178.4z M224,178.4c0,1,0.2,1.7,0.6,2.2
		c0.4,0.5,1,0.7,1.7,0.7c0.8,0,1.3-0.2,1.7-0.7s0.6-1.2,0.6-2.2c0-1-0.2-1.7-0.6-2.2c-0.4-0.5-1-0.7-1.7-0.7c-0.8,0-1.4,0.2-1.7,0.7
		C224.2,176.7,224,177.4,224,178.4z"/>
	<path fill="#FFFFFF" d="M239.5,175.5c-0.7,0-1.3,0.3-1.7,0.8c-0.4,0.5-0.6,1.2-0.6,2.2c0,1,0.2,1.7,0.6,2.2s1,0.7,1.8,0.7
		c0.3,0,0.7,0,1-0.1c0.3-0.1,0.6-0.2,1-0.3v1.1c-0.6,0.2-1.3,0.3-2.1,0.3c-1.1,0-2-0.3-2.6-1c-0.6-0.7-0.9-1.7-0.9-3
		c0-0.8,0.1-1.5,0.4-2.1s0.7-1.1,1.3-1.4s1.2-0.5,2-0.5c0.8,0,1.5,0.2,2.2,0.5l-0.5,1.1c-0.3-0.1-0.5-0.2-0.8-0.3
		C240.2,175.5,239.9,175.5,239.5,175.5z"/>
	<path fill="#FFFFFF" d="M250.2,182.3h-1.3v-3.5h-3.6v3.5H244v-7.9h1.3v3.2h3.6v-3.2h1.3V182.3z"/>
	<path fill="#FFFFFF" d="M257.9,182.3l-0.8-2.2h-3l-0.8,2.2H252l2.9-7.9h1.4l2.9,7.9H257.9z M256.8,179l-0.7-2.1
		c-0.1-0.1-0.1-0.4-0.2-0.7s-0.2-0.5-0.2-0.7c-0.1,0.4-0.2,0.9-0.4,1.4l-0.7,2H256.8z"/>
	<path fill="#FFFFFF" d="M262.5,179.2v3.1h-1.3v-7.9h2.2c1,0,1.8,0.2,2.3,0.6c0.5,0.4,0.7,1,0.7,1.7c0,1-0.5,1.7-1.5,2.1l2.2,3.5
		h-1.5l-1.9-3.1H262.5z M262.5,178.1h0.9c0.6,0,1-0.1,1.3-0.3s0.4-0.6,0.4-1c0-0.4-0.1-0.8-0.4-1s-0.7-0.3-1.3-0.3h-0.8V178.1z"/>
	<path fill="#FFFFFF" d="M269,182.3v-7.9h1.3v7.9H269z"/>
	<path fill="#FFFFFF" d="M275.9,182.3h-1.3v-6.8h-2.3v-1.1h5.9v1.1h-2.3V182.3z"/>
	<path fill="#FFFFFF" d="M282.5,178.1l1.9-3.6h1.4l-2.6,4.8v3h-1.3v-3l-2.6-4.9h1.4L282.5,178.1z"/>
</g>
<g>
	<circle fill="#FFFFFF" cx="143" cy="81.4" r="81.4"/>
	<path fill="#9ECECE" d="M143,0v81.4L122,2.8C122,2.8,132.5,0,143,0z"/>
</g>
</svg>
