<?xml version="1.0" encoding="utf-8"?>
<!-- Generator: Adobe Illustrator 18.1.0, SVG Export Plug-In . SVG Version: 6.00 Build 0)  -->
<!DOCTYPE svg PUBLIC "-//W3C//DTD SVG 1.1//EN" "http://www.w3.org/Graphics/SVG/1.1/DTD/svg11.dtd">
<svg version="1.1" id="Layer_1" xmlns="http://www.w3.org/2000/svg" xmlns:xlink="http://www.w3.org/1999/xlink" x="0px" y="0px"
	 viewBox="0 0 269.4 198.4" enable-background="new 0 0 269.4 198.4" xml:space="preserve">
<g>
	<circle fill="#FFFFFF" cx="134.6" cy="81.4" r="81.4"/>
	<path fill="#9ECECE" d="M134.6,81.4l-54-60.7c0,0,18.7-20.7,54-20.7V81.4z"/>
</g>
<g>
	<path fill="#FFFFFF" d="M7.3,175c0.7,0,1.3,0.2,1.8,0.5s0.6,0.8,0.6,1.4c0,0.8-0.5,1.4-1.5,1.9c0.6,0.3,1.1,0.6,1.3,1
		c0.3,0.3,0.4,0.7,0.4,1.1c0,0.6-0.2,1.2-0.7,1.6c-0.5,0.4-1.1,0.6-1.9,0.6c-0.9,0-1.5-0.2-2-0.5s-0.7-0.9-0.7-1.6
		c0-0.4,0.1-0.8,0.4-1.2c0.2-0.3,0.6-0.7,1.2-0.9c-0.5-0.3-0.8-0.6-1-0.9c-0.2-0.3-0.3-0.7-0.3-1.1c0-0.6,0.2-1,0.7-1.4
		C6,175.2,6.6,175,7.3,175z M5.8,180.9c0,0.4,0.1,0.7,0.4,0.9s0.6,0.3,1.1,0.3c0.5,0,0.8-0.1,1.1-0.3c0.3-0.2,0.4-0.5,0.4-0.9
		c0-0.3-0.1-0.6-0.4-0.8c-0.2-0.2-0.6-0.5-1.1-0.7l-0.2-0.1c-0.5,0.2-0.8,0.4-1,0.7S5.8,180.6,5.8,180.9z M7.3,176
		c-0.4,0-0.6,0.1-0.9,0.3c-0.2,0.2-0.3,0.4-0.3,0.7c0,0.2,0,0.4,0.1,0.5c0.1,0.1,0.2,0.3,0.3,0.4s0.4,0.3,0.8,0.4
		c0.4-0.2,0.7-0.4,0.9-0.6c0.2-0.2,0.3-0.5,0.3-0.7c0-0.3-0.1-0.5-0.3-0.7C7.9,176.1,7.6,176,7.3,176z"/>
	<path fill="#FFFFFF" d="M14.4,178.1c0.8,0,1.4,0.2,1.9,0.6s0.7,1,0.7,1.7c0,0.8-0.3,1.5-0.8,2c-0.5,0.5-1.3,0.7-2.2,0.7
		c-0.9,0-1.6-0.1-2.1-0.4v-1.1c0.3,0.2,0.6,0.3,1,0.4c0.4,0.1,0.7,0.1,1,0.1c0.6,0,1-0.1,1.3-0.4c0.3-0.3,0.4-0.6,0.4-1.1
		c0-0.9-0.6-1.4-1.8-1.4c-0.2,0-0.4,0-0.6,0.1s-0.5,0.1-0.6,0.1L12,179l0.3-3.8h4.1v1.1h-3l-0.2,1.9c0.1,0,0.3,0,0.5-0.1
		C13.9,178.1,14.1,178.1,14.4,178.1z"/>
	<path fill="#FFFFFF" d="M22.3,177.5c0,0.8-0.1,1.4-0.4,1.9c-0.3,0.4-0.7,0.6-1.3,0.6c-0.5,0-1-0.2-1.3-0.6c-0.3-0.4-0.4-1-0.4-1.8
		c0-1.6,0.6-2.5,1.7-2.5c0.6,0,1,0.2,1.3,0.6C22.1,176.1,22.3,176.7,22.3,177.5z M19.9,177.5c0,0.5,0.1,0.9,0.2,1.2s0.3,0.4,0.5,0.4
		c0.5,0,0.7-0.5,0.7-1.6s-0.2-1.6-0.7-1.6c-0.2,0-0.4,0.1-0.5,0.4S19.9,176.9,19.9,177.5z M25.8,175.1l-4.4,7.9h-1l4.4-7.9H25.8z
		 M27.4,180.6c0,0.8-0.1,1.4-0.4,1.9c-0.3,0.4-0.7,0.6-1.3,0.6c-0.5,0-1-0.2-1.3-0.6c-0.3-0.4-0.5-1-0.5-1.8c0-1.6,0.6-2.5,1.7-2.5
		c0.6,0,1,0.2,1.3,0.6C27.2,179.2,27.4,179.8,27.4,180.6z M25,180.6c0,0.5,0.1,0.9,0.2,1.2c0.1,0.3,0.3,0.4,0.5,0.4
		c0.5,0,0.7-0.5,0.7-1.6c0-1-0.2-1.6-0.7-1.6c-0.2,0-0.4,0.1-0.5,0.4C25,179.7,25,180.1,25,180.6z"/>
	<path fill="#FFFFFF" d="M40.4,179c0,1.3-0.3,2.3-1,3c-0.6,0.7-1.5,1.1-2.7,1.1c-1.2,0-2.1-0.4-2.7-1.1c-0.6-0.7-1-1.7-1-3
		c0-1.3,0.3-2.3,1-3c0.6-0.7,1.6-1,2.7-1c1.2,0,2.1,0.4,2.7,1.1S40.4,177.8,40.4,179z M34.4,179c0,1,0.2,1.7,0.6,2.2
		c0.4,0.5,1,0.7,1.7,0.7c0.8,0,1.3-0.2,1.7-0.7c0.4-0.5,0.6-1.2,0.6-2.2c0-1-0.2-1.7-0.6-2.2c-0.4-0.5-1-0.7-1.7-0.7
		c-0.8,0-1.4,0.2-1.7,0.7C34.6,177.3,34.4,178.1,34.4,179z"/>
	<path fill="#FFFFFF" d="M44.1,183h-1.3v-7.9h4.4v1.1h-3.2v2.5h3v1.1h-3V183z"/>
	<path fill="#FFFFFF" d="M54.5,179.8v3.1h-1.3v-7.9h2.2c1,0,1.8,0.2,2.3,0.6s0.7,1,0.7,1.7c0,1-0.5,1.7-1.5,2.1l2.2,3.5h-1.5
		l-1.9-3.1H54.5z M54.5,178.8h0.9c0.6,0,1-0.1,1.3-0.3s0.4-0.6,0.4-1c0-0.4-0.1-0.8-0.4-1s-0.7-0.3-1.3-0.3h-0.8V178.8z"/>
	<path fill="#FFFFFF" d="M65.5,183h-4.4v-7.9h4.4v1.1h-3.2v2.1h3v1.1h-3v2.5h3.2V183z"/>
	<path fill="#FFFFFF" d="M72.6,180.8c0,0.7-0.3,1.2-0.8,1.6c-0.5,0.4-1.2,0.6-2.1,0.6s-1.6-0.1-2.2-0.4v-1.2
		c0.4,0.2,0.7,0.3,1.1,0.4c0.4,0.1,0.8,0.1,1.1,0.1c0.5,0,0.9-0.1,1.1-0.3c0.2-0.2,0.4-0.5,0.4-0.8c0-0.3-0.1-0.5-0.3-0.7
		s-0.7-0.4-1.4-0.7c-0.7-0.3-1.2-0.6-1.5-1s-0.4-0.8-0.4-1.3c0-0.7,0.2-1.2,0.7-1.5s1.1-0.6,1.9-0.6c0.8,0,1.5,0.2,2.2,0.5l-0.4,1
		c-0.7-0.3-1.3-0.4-1.9-0.4c-0.4,0-0.7,0.1-0.9,0.3s-0.3,0.4-0.3,0.7c0,0.2,0,0.4,0.1,0.5c0.1,0.1,0.2,0.3,0.4,0.4s0.6,0.3,1.1,0.5
		c0.6,0.2,1,0.5,1.3,0.7s0.5,0.4,0.6,0.7C72.5,180.2,72.6,180.5,72.6,180.8z"/>
	<path fill="#FFFFFF" d="M80.1,177.5c0,0.8-0.3,1.4-0.8,1.9c-0.5,0.4-1.3,0.7-2.3,0.7h-0.8v2.9h-1.3v-7.9h2.3c1,0,1.7,0.2,2.2,0.6
		C79.9,176.1,80.1,176.7,80.1,177.5z M76.2,179h0.7c0.7,0,1.1-0.1,1.5-0.3s0.5-0.6,0.5-1.1c0-0.5-0.1-0.8-0.4-1s-0.7-0.3-1.3-0.3
		h-0.9V179z"/>
	<path fill="#FFFFFF" d="M89.5,179c0,1.3-0.3,2.3-1,3c-0.6,0.7-1.5,1.1-2.7,1.1c-1.2,0-2.1-0.4-2.7-1.1c-0.6-0.7-1-1.7-1-3
		c0-1.3,0.3-2.3,1-3c0.6-0.7,1.6-1,2.7-1c1.2,0,2.1,0.4,2.7,1.1S89.5,177.8,89.5,179z M83.5,179c0,1,0.2,1.7,0.6,2.2
		c0.4,0.5,1,0.7,1.7,0.7c0.8,0,1.3-0.2,1.7-0.7c0.4-0.5,0.6-1.2,0.6-2.2c0-1-0.2-1.7-0.6-2.2c-0.4-0.5-1-0.7-1.7-0.7
		c-0.8,0-1.4,0.2-1.7,0.7C83.7,177.3,83.5,178.1,83.5,179z"/>
	<path fill="#FFFFFF" d="M98.5,183H97l-3.9-6.3h0l0,0.3c0.1,0.7,0.1,1.3,0.1,1.8v4.1H92v-7.9h1.6l3.9,6.2h0c0-0.1,0-0.4,0-0.9
		s0-0.9,0-1.2v-4.1h1.2V183z"/>
	<path fill="#FFFFFF" d="M107.8,179c0,1.3-0.4,2.3-1.1,3s-1.8,1-3.1,1h-2.2v-7.9h2.4c1.2,0,2.2,0.3,2.9,1S107.8,177.7,107.8,179z
		 M106.5,179c0-1.9-0.9-2.8-2.6-2.8h-1.1v5.7h0.9C105.5,181.9,106.5,180.9,106.5,179z"/>
	<path fill="#FFFFFF" d="M114.8,183h-4.4v-7.9h4.4v1.1h-3.2v2.1h3v1.1h-3v2.5h3.2V183z"/>
	<path fill="#FFFFFF" d="M123.8,183h-1.6l-3.9-6.3h0l0,0.3c0.1,0.7,0.1,1.3,0.1,1.8v4.1h-1.2v-7.9h1.6l3.9,6.2h0c0-0.1,0-0.4,0-0.9
		s0-0.9,0-1.2v-4.1h1.2V183z"/>
	<path fill="#FFFFFF" d="M129.4,183h-1.3v-6.8h-2.3v-1.1h5.9v1.1h-2.3V183z"/>
	<path fill="#FFFFFF" d="M138.3,180.8c0,0.7-0.3,1.2-0.8,1.6c-0.5,0.4-1.2,0.6-2.1,0.6s-1.6-0.1-2.2-0.4v-1.2
		c0.4,0.2,0.7,0.3,1.1,0.4c0.4,0.1,0.8,0.1,1.1,0.1c0.5,0,0.9-0.1,1.1-0.3c0.2-0.2,0.4-0.5,0.4-0.8c0-0.3-0.1-0.5-0.3-0.7
		c-0.2-0.2-0.7-0.4-1.4-0.7c-0.7-0.3-1.2-0.6-1.5-1c-0.3-0.4-0.4-0.8-0.4-1.3c0-0.7,0.2-1.2,0.7-1.5c0.5-0.4,1.1-0.6,1.9-0.6
		c0.8,0,1.5,0.2,2.2,0.5l-0.4,1c-0.7-0.3-1.3-0.4-1.9-0.4c-0.4,0-0.7,0.1-0.9,0.3s-0.3,0.4-0.3,0.7c0,0.2,0,0.4,0.1,0.5
		c0.1,0.1,0.2,0.3,0.4,0.4c0.2,0.1,0.6,0.3,1.1,0.5c0.6,0.2,1,0.5,1.3,0.7c0.3,0.2,0.5,0.4,0.6,0.7
		C138.3,180.2,138.3,180.5,138.3,180.8z"/>
	<path fill="#FFFFFF" d="M149.5,177.5c0,0.8-0.3,1.4-0.8,1.9c-0.5,0.4-1.3,0.7-2.3,0.7h-0.8v2.9h-1.3v-7.9h2.3c1,0,1.7,0.2,2.2,0.6
		C149.3,176.1,149.5,176.7,149.5,177.5z M145.6,179h0.7c0.7,0,1.1-0.1,1.5-0.3c0.3-0.2,0.5-0.6,0.5-1.1c0-0.5-0.1-0.8-0.4-1
		s-0.7-0.3-1.3-0.3h-0.9V179z"/>
	<path fill="#FFFFFF" d="M151.9,183v-7.9h1.3v6.8h3.3v1.1H151.9z"/>
	<path fill="#FFFFFF" d="M163.2,183h-4.4v-7.9h4.4v1.1H160v2.1h3v1.1h-3v2.5h3.2V183z"/>
	<path fill="#FFFFFF" d="M172.1,179c0,1.3-0.4,2.3-1.1,3c-0.7,0.7-1.8,1-3.1,1h-2.2v-7.9h2.4c1.2,0,2.2,0.3,2.9,1
		S172.1,177.7,172.1,179z M170.7,179c0-1.9-0.9-2.8-2.6-2.8H167v5.7h0.9C169.8,181.9,170.7,180.9,170.7,179z"/>
	<path fill="#FFFFFF" d="M177.8,178.7h2.9v3.9c-0.5,0.2-0.9,0.3-1.4,0.3c-0.4,0.1-0.9,0.1-1.4,0.1c-1.2,0-2.1-0.4-2.8-1.1
		c-0.6-0.7-1-1.7-1-3c0-1.3,0.4-2.3,1.1-3c0.7-0.7,1.7-1.1,3-1.1c0.8,0,1.6,0.2,2.3,0.5l-0.5,1.1c-0.6-0.3-1.3-0.4-1.9-0.4
		c-0.8,0-1.5,0.3-2,0.8c-0.5,0.5-0.7,1.2-0.7,2.2c0,1,0.2,1.7,0.7,2.2c0.4,0.5,1.1,0.7,1.9,0.7c0.4,0,0.9-0.1,1.3-0.2v-2h-1.6V178.7
		z"/>
	<path fill="#FFFFFF" d="M187.8,183h-4.4v-7.9h4.4v1.1h-3.2v2.1h3v1.1h-3v2.5h3.2V183z"/>
	<path fill="#FFFFFF" d="M196.7,179c0,1.3-0.4,2.3-1.1,3c-0.7,0.7-1.8,1-3.1,1h-2.2v-7.9h2.4c1.2,0,2.2,0.3,2.9,1
		S196.7,177.7,196.7,179z M195.4,179c0-1.9-0.9-2.8-2.6-2.8h-1.1v5.7h0.9C194.4,181.9,195.4,180.9,195.4,179z"/>
	<path fill="#FFFFFF" d="M205.7,183h-1.3v-6.8h-2.3v-1.1h5.9v1.1h-2.3V183z"/>
	<path fill="#FFFFFF" d="M217,179c0,1.3-0.3,2.3-1,3c-0.6,0.7-1.5,1.1-2.7,1.1c-1.2,0-2.1-0.4-2.7-1.1c-0.6-0.7-1-1.7-1-3
		c0-1.3,0.3-2.3,1-3c0.6-0.7,1.6-1,2.7-1c1.2,0,2.1,0.4,2.7,1.1C216.6,176.8,217,177.8,217,179z M211,179c0,1,0.2,1.7,0.6,2.2
		c0.4,0.5,1,0.7,1.7,0.7c0.8,0,1.3-0.2,1.7-0.7s0.6-1.2,0.6-2.2c0-1-0.2-1.7-0.6-2.2c-0.4-0.5-1-0.7-1.7-0.7c-0.8,0-1.4,0.2-1.7,0.7
		C211.2,177.3,211,178.1,211,179z"/>
	<path fill="#FFFFFF" d="M226.7,183h-1.4l-1.3-4.7c-0.1-0.2-0.1-0.5-0.2-0.9s-0.1-0.7-0.2-0.8c0,0.2-0.1,0.5-0.2,0.9
		c-0.1,0.4-0.1,0.6-0.2,0.8l-1.3,4.7h-1.4l-1-3.9l-1-3.9h1.3l1.1,4.6c0.2,0.7,0.3,1.4,0.4,1.9c0-0.3,0.1-0.6,0.2-1s0.2-0.7,0.2-0.9
		l1.3-4.6h1.3l1.3,4.6c0.1,0.4,0.3,1.1,0.4,1.9c0.1-0.5,0.2-1.2,0.4-2l1.1-4.6h1.3L226.7,183z"/>
	<path fill="#FFFFFF" d="M235.6,183l-0.8-2.2h-3L231,183h-1.4l2.9-7.9h1.4l2.9,7.9H235.6z M234.5,179.7l-0.7-2.1
		c-0.1-0.1-0.1-0.4-0.2-0.7s-0.2-0.5-0.2-0.7c-0.1,0.4-0.2,0.9-0.4,1.4l-0.7,2H234.5z"/>
	<path fill="#FFFFFF" d="M240.1,179.8v3.1h-1.3v-7.9h2.2c1,0,1.8,0.2,2.3,0.6c0.5,0.4,0.7,1,0.7,1.7c0,1-0.5,1.7-1.5,2.1l2.2,3.5
		h-1.5l-1.9-3.1H240.1z M240.1,178.8h0.9c0.6,0,1-0.1,1.3-0.3s0.4-0.6,0.4-1c0-0.4-0.1-0.8-0.4-1s-0.7-0.3-1.3-0.3h-0.8V178.8z"/>
	<path fill="#FFFFFF" d="M253,179c0,1.3-0.4,2.3-1.1,3c-0.7,0.7-1.8,1-3.1,1h-2.2v-7.9h2.4c1.2,0,2.2,0.3,2.9,1S253,177.7,253,179z
		 M251.7,179c0-1.9-0.9-2.8-2.6-2.8h-1.1v5.7h0.9C250.7,181.9,251.7,180.9,251.7,179z"/>
	<path fill="#FFFFFF" d="M260.1,180.8c0,0.7-0.3,1.2-0.8,1.6c-0.5,0.4-1.2,0.6-2.1,0.6s-1.6-0.1-2.2-0.4v-1.2
		c0.4,0.2,0.7,0.3,1.1,0.4c0.4,0.1,0.8,0.1,1.1,0.1c0.5,0,0.9-0.1,1.1-0.3c0.2-0.2,0.4-0.5,0.4-0.8c0-0.3-0.1-0.5-0.3-0.7
		c-0.2-0.2-0.7-0.4-1.4-0.7c-0.7-0.3-1.2-0.6-1.5-1c-0.3-0.4-0.4-0.8-0.4-1.3c0-0.7,0.2-1.2,0.7-1.5c0.5-0.4,1.1-0.6,1.9-0.6
		c0.8,0,1.5,0.2,2.2,0.5l-0.4,1c-0.7-0.3-1.3-0.4-1.9-0.4c-0.4,0-0.7,0.1-0.9,0.3s-0.3,0.4-0.3,0.7c0,0.2,0,0.4,0.1,0.5
		c0.1,0.1,0.2,0.3,0.4,0.4c0.2,0.1,0.6,0.3,1.1,0.5c0.6,0.2,1,0.5,1.3,0.7c0.3,0.2,0.5,0.4,0.6,0.7
		C260,180.2,260.1,180.5,260.1,180.8z"/>
	<path fill="#FFFFFF" d="M5.2,190.7c0,0.8-0.3,1.4-0.8,1.9c-0.5,0.4-1.3,0.7-2.3,0.7H1.3v2.9H0v-7.9h2.3c1,0,1.7,0.2,2.2,0.6
		C5,189.3,5.2,189.9,5.2,190.7z M1.3,192.2H2c0.7,0,1.1-0.1,1.5-0.3s0.5-0.6,0.5-1.1c0-0.5-0.1-0.8-0.4-1s-0.7-0.3-1.3-0.3H1.3
		V192.2z"/>
	<path fill="#FFFFFF" d="M8.9,193v3.1H7.6v-7.9h2.2c1,0,1.8,0.2,2.3,0.6s0.7,1,0.7,1.7c0,1-0.5,1.7-1.5,2.1l2.2,3.5H12l-1.9-3.1H8.9
		z M8.9,192h0.9c0.6,0,1-0.1,1.3-0.3s0.4-0.6,0.4-1c0-0.4-0.1-0.8-0.4-1s-0.7-0.3-1.3-0.3H8.9V192z"/>
	<path fill="#FFFFFF" d="M22.4,192.2c0,1.3-0.3,2.3-1,3c-0.6,0.7-1.5,1.1-2.7,1.1c-1.2,0-2.1-0.4-2.7-1.1c-0.6-0.7-1-1.7-1-3
		c0-1.3,0.3-2.3,1-3c0.6-0.7,1.6-1,2.7-1c1.2,0,2.1,0.4,2.7,1.1S22.4,191,22.4,192.2z M16.4,192.2c0,1,0.2,1.7,0.6,2.2
		c0.4,0.5,1,0.7,1.7,0.7c0.8,0,1.3-0.2,1.7-0.7c0.4-0.5,0.6-1.2,0.6-2.2c0-1-0.2-1.7-0.6-2.2c-0.4-0.5-1-0.7-1.7-0.7
		c-0.8,0-1.4,0.2-1.7,0.7C16.6,190.5,16.4,191.3,16.4,192.2z"/>
	<path fill="#FFFFFF" d="M23.9,198.4c-0.4,0-0.6,0-0.9-0.1v-1.1c0.3,0.1,0.6,0.1,0.8,0.1c0.7,0,1.1-0.4,1.1-1.3v-7.6h1.3v7.6
		c0,0.8-0.2,1.4-0.6,1.8C25.2,198.2,24.7,198.4,23.9,198.4z"/>
	<path fill="#FFFFFF" d="M33.5,196.2H29v-7.9h4.4v1.1h-3.2v2.1h3v1.1h-3v2.5h3.2V196.2z"/>
	<path fill="#FFFFFF" d="M39.3,189.3c-0.7,0-1.3,0.3-1.7,0.8s-0.6,1.2-0.6,2.2c0,1,0.2,1.7,0.6,2.2c0.4,0.5,1,0.7,1.8,0.7
		c0.3,0,0.7,0,1-0.1s0.6-0.2,1-0.3v1.1c-0.6,0.2-1.3,0.3-2.1,0.3c-1.1,0-2-0.3-2.6-1s-0.9-1.7-0.9-3c0-0.8,0.1-1.5,0.4-2.1
		c0.3-0.6,0.7-1.1,1.3-1.4s1.2-0.5,2-0.5c0.8,0,1.5,0.2,2.2,0.5l-0.5,1.1c-0.3-0.1-0.5-0.2-0.8-0.3C40,189.4,39.7,189.3,39.3,189.3z
		"/>
	<path fill="#FFFFFF" d="M46.5,196.2h-1.3v-6.8h-2.3v-1.1h5.9v1.1h-2.3V196.2z"/>
	<path fill="#FFFFFF" d="M55.4,194c0,0.7-0.3,1.2-0.8,1.6c-0.5,0.4-1.2,0.6-2.1,0.6s-1.6-0.1-2.2-0.4v-1.2c0.4,0.2,0.7,0.3,1.1,0.4
		c0.4,0.1,0.8,0.1,1.1,0.1c0.5,0,0.9-0.1,1.1-0.3c0.2-0.2,0.4-0.5,0.4-0.8c0-0.3-0.1-0.5-0.3-0.7s-0.7-0.4-1.4-0.7
		c-0.7-0.3-1.2-0.6-1.5-1s-0.4-0.8-0.4-1.3c0-0.7,0.2-1.2,0.7-1.5s1.1-0.6,1.9-0.6c0.8,0,1.5,0.2,2.2,0.5l-0.4,1
		c-0.7-0.3-1.3-0.4-1.9-0.4c-0.4,0-0.7,0.1-0.9,0.3s-0.3,0.4-0.3,0.7c0,0.2,0,0.4,0.1,0.5c0.1,0.1,0.2,0.3,0.4,0.4s0.6,0.3,1.1,0.5
		c0.6,0.2,1,0.5,1.3,0.7s0.5,0.4,0.6,0.7C55.3,193.4,55.4,193.7,55.4,194z"/>
	<path fill="#FFFFFF" d="M64.8,189.3c-0.7,0-1.3,0.3-1.7,0.8s-0.6,1.2-0.6,2.2c0,1,0.2,1.7,0.6,2.2c0.4,0.5,1,0.7,1.8,0.7
		c0.3,0,0.7,0,1-0.1s0.6-0.2,1-0.3v1.1c-0.6,0.2-1.3,0.3-2.1,0.3c-1.1,0-2-0.3-2.6-1s-0.9-1.7-0.9-3c0-0.8,0.1-1.5,0.4-2.1
		c0.3-0.6,0.7-1.1,1.3-1.4s1.2-0.5,2-0.5c0.8,0,1.5,0.2,2.2,0.5l-0.5,1.1c-0.3-0.1-0.5-0.2-0.8-0.3
		C65.4,189.4,65.1,189.3,64.8,189.3z"/>
	<path fill="#FFFFFF" d="M70.5,193v3.1h-1.3v-7.9h2.2c1,0,1.8,0.2,2.3,0.6s0.7,1,0.7,1.7c0,1-0.5,1.7-1.5,2.1l2.2,3.5h-1.5l-1.9-3.1
		H70.5z M70.5,192h0.9c0.6,0,1-0.1,1.3-0.3s0.4-0.6,0.4-1c0-0.4-0.1-0.8-0.4-1s-0.7-0.3-1.3-0.3h-0.8V192z"/>
	<path fill="#FFFFFF" d="M81.5,196.2h-4.4v-7.9h4.4v1.1h-3.2v2.1h3v1.1h-3v2.5h3.2V196.2z"/>
	<path fill="#FFFFFF" d="M88.9,196.2l-0.8-2.2h-3l-0.8,2.2H83l2.9-7.9h1.4l2.9,7.9H88.9z M87.8,192.9l-0.7-2.1
		c-0.1-0.1-0.1-0.4-0.2-0.7c-0.1-0.3-0.2-0.5-0.2-0.7c-0.1,0.4-0.2,0.9-0.4,1.4l-0.7,2H87.8z"/>
	<path fill="#FFFFFF" d="M94.8,196.2h-1.3v-6.8h-2.3v-1.1h5.9v1.1h-2.3V196.2z"/>
	<path fill="#FFFFFF" d="M103.6,196.2h-4.4v-7.9h4.4v1.1h-3.2v2.1h3v1.1h-3v2.5h3.2V196.2z"/>
	<path fill="#FFFFFF" d="M112.5,192.2c0,1.3-0.4,2.3-1.1,3s-1.8,1-3.1,1h-2.2v-7.9h2.4c1.2,0,2.2,0.3,2.9,1S112.5,190.9,112.5,192.2
		z M111.2,192.2c0-1.9-0.9-2.8-2.6-2.8h-1.1v5.7h0.9C110.2,195.1,111.2,194.1,111.2,192.2z"/>
	<path fill="#FFFFFF" d="M118.7,188.3h2.3c1.1,0,1.9,0.2,2.3,0.5s0.7,0.8,0.7,1.5c0,0.5-0.1,0.8-0.4,1.1c-0.2,0.3-0.6,0.5-1,0.6v0.1
		c0.6,0.1,1,0.3,1.2,0.6c0.3,0.3,0.4,0.7,0.4,1.2c0,0.7-0.2,1.3-0.7,1.7s-1.2,0.6-2.1,0.6h-2.8V188.3z M120,191.6h1.2
		c0.5,0,0.9-0.1,1.2-0.3c0.2-0.2,0.4-0.5,0.4-0.9c0-0.4-0.1-0.6-0.4-0.8s-0.7-0.2-1.3-0.2H120V191.6z M120,192.6v2.5h1.4
		c0.5,0,0.9-0.1,1.2-0.3c0.3-0.2,0.4-0.5,0.4-1c0-0.4-0.1-0.7-0.4-0.9c-0.3-0.2-0.7-0.3-1.3-0.3H120z"/>
	<path fill="#FFFFFF" d="M129,191.9l1.9-3.6h1.4l-2.6,4.8v3h-1.3v-3l-2.6-4.9h1.4L129,191.9z"/>
	<path fill="#FFFFFF" d="M142.4,194c0,0.7-0.3,1.2-0.8,1.6c-0.5,0.4-1.2,0.6-2.1,0.6s-1.6-0.1-2.2-0.4v-1.2c0.4,0.2,0.7,0.3,1.1,0.4
		c0.4,0.1,0.8,0.1,1.1,0.1c0.5,0,0.9-0.1,1.1-0.3c0.2-0.2,0.4-0.5,0.4-0.8c0-0.3-0.1-0.5-0.3-0.7c-0.2-0.2-0.7-0.4-1.4-0.7
		c-0.7-0.3-1.2-0.6-1.5-1c-0.3-0.4-0.4-0.8-0.4-1.3c0-0.7,0.2-1.2,0.7-1.5c0.5-0.4,1.1-0.6,1.9-0.6c0.8,0,1.5,0.2,2.2,0.5l-0.4,1
		c-0.7-0.3-1.3-0.4-1.9-0.4c-0.4,0-0.7,0.1-0.9,0.3s-0.3,0.4-0.3,0.7c0,0.2,0,0.4,0.1,0.5c0.1,0.1,0.2,0.3,0.4,0.4
		c0.2,0.1,0.6,0.3,1.1,0.5c0.6,0.2,1,0.5,1.3,0.7c0.3,0.2,0.5,0.4,0.6,0.7C142.3,193.4,142.4,193.7,142.4,194z"/>
	<path fill="#FFFFFF" d="M151.7,192.2c0,1.3-0.3,2.3-1,3c-0.6,0.7-1.5,1.1-2.7,1.1c-1.2,0-2.1-0.4-2.7-1.1c-0.6-0.7-1-1.7-1-3
		c0-1.3,0.3-2.3,1-3c0.6-0.7,1.6-1,2.7-1c1.2,0,2.1,0.4,2.7,1.1C151.3,190,151.7,191,151.7,192.2z M145.7,192.2c0,1,0.2,1.7,0.6,2.2
		c0.4,0.5,1,0.7,1.7,0.7c0.8,0,1.3-0.2,1.7-0.7s0.6-1.2,0.6-2.2c0-1-0.2-1.7-0.6-2.2c-0.4-0.5-1-0.7-1.7-0.7c-0.8,0-1.4,0.2-1.7,0.7
		C145.9,190.5,145.7,191.3,145.7,192.2z"/>
	<path fill="#FFFFFF" d="M157.6,196.2l-2.3-6.6h0c0.1,1,0.1,1.9,0.1,2.7v3.8h-1.2v-7.9h1.8l2.2,6.2h0l2.2-6.2h1.8v7.9H161v-3.9
		c0-0.4,0-0.9,0-1.5c0-0.6,0-1,0.1-1.1h0l-2.4,6.5H157.6z"/>
	<path fill="#FFFFFF" d="M169.6,196.2h-4.4v-7.9h4.4v1.1h-3.2v2.1h3v1.1h-3v2.5h3.2V196.2z"/>
	<path fill="#FFFFFF" d="M179.1,192.2c0,1.3-0.3,2.3-1,3c-0.6,0.7-1.5,1.1-2.7,1.1c-1.2,0-2.1-0.4-2.7-1.1c-0.6-0.7-1-1.7-1-3
		c0-1.3,0.3-2.3,1-3c0.6-0.7,1.6-1,2.7-1c1.2,0,2.1,0.4,2.7,1.1C178.8,190,179.1,191,179.1,192.2z M173.1,192.2c0,1,0.2,1.7,0.6,2.2
		c0.4,0.5,1,0.7,1.7,0.7c0.8,0,1.3-0.2,1.7-0.7s0.6-1.2,0.6-2.2c0-1-0.2-1.7-0.6-2.2c-0.4-0.5-1-0.7-1.7-0.7c-0.8,0-1.4,0.2-1.7,0.7
		C173.3,190.5,173.1,191.3,173.1,192.2z"/>
	<path fill="#FFFFFF" d="M188.1,196.2h-1.6l-3.9-6.3h0l0,0.3c0,0.7,0.1,1.3,0.1,1.8v4.1h-1.2v-7.9h1.6l3.9,6.2h0c0-0.1,0-0.4,0-0.9
		s0-0.9,0-1.2v-4.1h1.2V196.2z"/>
	<path fill="#FFFFFF" d="M195.5,196.2H191v-7.9h4.4v1.1h-3.2v2.1h3v1.1h-3v2.5h3.2V196.2z"/>
	<path fill="#FFFFFF" d="M204.4,196.2h-1.3v-6.8h-2.3v-1.1h5.9v1.1h-2.3V196.2z"/>
	<path fill="#FFFFFF" d="M214.9,196.2h-1.3v-3.5H210v3.5h-1.3v-7.9h1.3v3.2h3.6v-3.2h1.3V196.2z"/>
	<path fill="#FFFFFF" d="M222.3,196.2h-4.4v-7.9h4.4v1.1h-3.2v2.1h3v1.1h-3v2.5h3.2V196.2z"/>
	<path fill="#FFFFFF" d="M227,191.9l1.9-3.6h1.4l-2.6,4.8v3h-1.3v-3l-2.6-4.9h1.4L227,191.9z"/>
	<path fill="#FFFFFF" d="M241.8,196.2h-1.5l-2.5-3.6l-0.8,0.6v2.9h-1.3v-7.9h1.3v3.7c0.4-0.4,0.7-0.8,1-1.2l2.1-2.5h1.5
		c-1.4,1.6-2.4,2.8-2.9,3.4L241.8,196.2z"/>
	<path fill="#FFFFFF" d="M250.2,196.2h-1.6l-3.9-6.3h0l0,0.3c0,0.7,0.1,1.3,0.1,1.8v4.1h-1.2v-7.9h1.6l3.9,6.2h0c0-0.1,0-0.4,0-0.9
		s0-0.9,0-1.2v-4.1h1.2V196.2z"/>
	<path fill="#FFFFFF" d="M257.5,196.2h-4.4v-7.9h4.4v1.1h-3.2v2.1h3v1.1h-3v2.5h3.2V196.2z"/>
	<path fill="#FFFFFF" d="M267.3,196.2h-1.4l-1.3-4.7c-0.1-0.2-0.1-0.5-0.2-0.9s-0.1-0.7-0.2-0.8c0,0.2-0.1,0.5-0.2,0.9
		c-0.1,0.4-0.1,0.6-0.2,0.8l-1.3,4.7h-1.4l-1-3.9l-1-3.9h1.3l1.1,4.6c0.2,0.7,0.3,1.4,0.4,1.9c0-0.3,0.1-0.6,0.2-1s0.2-0.7,0.2-0.9
		l1.3-4.6h1.3l1.3,4.6c0.1,0.4,0.3,1.1,0.4,1.9c0.1-0.5,0.2-1.2,0.4-2l1.1-4.6h1.3L267.3,196.2z"/>
</g>
</svg>
