<?xml version="1.0" encoding="utf-8"?>
<!-- Generator: Adobe Illustrator 18.1.0, SVG Export Plug-In . SVG Version: 6.00 Build 0)  -->
<!DOCTYPE svg PUBLIC "-//W3C//DTD SVG 1.1//EN" "http://www.w3.org/Graphics/SVG/1.1/DTD/svg11.dtd">
<svg version="1.1" id="Layer_1" xmlns="http://www.w3.org/2000/svg" xmlns:xlink="http://www.w3.org/1999/xlink" x="0px" y="0px"
	 viewBox="0 0 266.24 76.588" enable-background="new 0 0 266.24 76.588" xml:space="preserve">
<g>
	<g>
		<path fill="#02A8B8" d="M37.687,9.523L30.493,43.36c10.232-0.812,17.729-14.082,17.729-24.922c0-7.498-3.647-13.779-12.562-13.779
			c-16.412,0-26.238,9.219-26.238,24.618c0,5.166,1.317,5.977,1.418,6.889C3.85,36.167,0,33.634,0,26.339
			C0,12.866,18.641,0,35.559,0c16.615,0,23.909,9.523,23.909,19.957c0,12.866-11.042,27.15-29.278,27.15h-0.507l-6.18,28.873H8.915
			l13.778-64.432L37.687,9.523z"/>
		<path fill="#02A8B8" d="M94.218,40.624c0.404,0.202,0.81,0.202,1.113,0.202c4.66,0,11.246-3.038,15.602-6.078l0.913,2.736
			c-3.85,4.154-10.536,7.192-17.932,8.408c-1.621,18.741-11.752,30.495-24.213,30.495c-9.422,0-16.21-4.459-16.21-16.008
			c0-11.651,6.889-35.965,27.76-35.965C89.962,24.414,94.218,29.987,94.218,40.624z M85.505,46.196
			c-2.127-0.506-2.735-2.229-2.735-4.254c0-2.838,1.316-4.661,3.141-5.471c-0.203-4.255-1.215-5.876-3.85-5.876
			c-7.193,0-13.474,18.539-13.474,28.468c0,6.686,1.316,8.205,5.167,8.205C78.717,67.268,83.884,58.15,85.505,46.196z"/>
		<path fill="#02A8B8" d="M125.928,64.633c0-1.822,1.925-4.355,5.673-4.355c3.039,0,4.457,2.127,4.457,4.863
			c0,4.66-4.558,10.84-12.358,10.84H96.853l25.834-45.184h-5.675c-3.139,0-5.571,0.203-5.571,1.622c0,0.507,1.113-0.102,1.113,2.229
			c0,3.749-2.835,5.37-5.47,5.37c-2.331,0-4.66-1.519-4.66-4.458c0-4.153,4.558-10.232,11.752-10.232h26.036l-24.82,42.853
			c1.722,0.102,4.963,0.607,7.698,0.607c2.432,0,4.457-0.404,4.763-2.026C126.536,66.661,125.928,65.748,125.928,64.633z"/>
		<path fill="#02A8B8" d="M159.158,25.327l-7.295,34.445c-0.303,1.316-0.404,2.329-0.404,3.241c0,2.837,1.316,3.748,4.154,3.748
			c3.95,0,7.597-3.849,9.115-8.914h4.256c-5.774,16.513-15.803,18.741-21.274,18.741c-6.079,0-10.839-3.647-10.839-12.156
			c0-1.926,0.303-4.154,0.81-6.585l6.889-32.52H159.158z M154.598,3.748c4.458,0,8.106,3.648,8.106,8.104
			c0,4.457-3.648,8.003-8.106,8.003c-4.458,0-8.003-3.545-8.003-8.003C146.595,7.396,150.14,3.748,154.598,3.748z"/>
		<path fill="#02A8B8" d="M173.037,7.091l14.993-2.026l-4.862,22.794c4.153-2.532,6.281-2.836,8.307-2.836
			c7.092,0,11.955,4.458,11.955,17.323c0,11.854-6.28,34.242-27.758,34.242c-9.32,0-14.184-4.863-14.184-12.967
			c0-1.723,0.203-3.647,0.71-5.774L173.037,7.091z M187.829,32.215c-1.419,0-4.862,0.507-5.978,1.824l-5.572,25.733
			c-0.203,0.81-0.304,1.621-0.304,2.329c0,2.938,1.722,4.66,5.369,4.66c6.585,0,11.852-14.183,11.852-24.819
			C193.197,36.977,191.474,32.215,187.829,32.215z"/>
		<path fill="#02A8B8" d="M230.479,5.065l-11.651,54.707c-0.303,1.316-0.404,2.329-0.404,3.241c0,2.837,1.316,3.748,4.154,3.748
			c3.951,0,7.598-3.849,9.117-8.914h4.254c-5.773,16.513-15.803,18.741-21.274,18.741c-6.079,0-10.84-3.647-10.84-12.156
			c0-1.926,0.304-4.154,0.81-6.585l10.842-50.756L230.479,5.065z"/>
		<path fill="#02A8B8" d="M249.019,66.964c3.85,0,8.713-2.532,11.954-5.37c-2.128,11.549-9.423,14.994-17.526,14.994
			c-9.421,0-15.703-4.66-15.703-16.107c0-11.651,6.585-36.066,27.354-36.066c9.018,0,11.143,4.66,11.143,9.726
			c0,11.751-11.143,20.667-23.3,21.375c-0.101,1.014-0.203,2.128-0.203,3.041C242.737,64.938,245.472,66.964,249.019,66.964z
			 M255.908,29.784c-5.066,0-10.131,11.246-12.259,20.87c7.901-0.405,14.79-8.206,14.79-16.716
			C258.439,31.406,257.833,29.784,255.908,29.784z"/>
	</g>
</g>
</svg>
