<?xml version="1.0" encoding="utf-8"?>
<!-- Generator: Adobe Illustrator 18.1.0, SVG Export Plug-In . SVG Version: 6.00 Build 0)  -->
<!DOCTYPE svg PUBLIC "-//W3C//DTD SVG 1.1//EN" "http://www.w3.org/Graphics/SVG/1.1/DTD/svg11.dtd">
<svg version="1.1" id="Layer_1" xmlns="http://www.w3.org/2000/svg" xmlns:xlink="http://www.w3.org/1999/xlink" x="0px" y="0px"
	 viewBox="0 0 1920 1080" enable-background="new 0 0 1920 1080" xml:space="preserve">
<g>
	<path fill="#474747" d="M285.893,986.015h-6.046v9.344h-6.595v-9.344h-19.786v-5.496l19.786-28.58h6.595v28.031h6.046
		L285.893,986.015L285.893,986.015z M273.252,979.97v-10.992c0-3.847,0-7.145,0.55-9.344l0,0c-0.55,1.099-1.649,2.748-2.748,4.947
		l-10.443,15.389H273.252z"/>
	<path fill="#474747" d="M323.267,973.924c0,7.695-1.099,13.191-3.847,16.489c-2.198,3.847-6.046,5.496-10.992,5.496
		s-8.244-1.649-10.992-5.496c-2.748-3.847-3.847-9.344-3.847-16.489c0-7.695,1.099-13.191,3.847-17.038
		c2.198-3.847,6.046-5.496,10.992-5.496s8.244,1.649,10.992,5.496C322.168,960.733,323.267,966.229,323.267,973.924z
		 M301.282,973.924c0,6.046,0.55,9.893,1.649,12.641c1.099,2.748,3.298,3.847,6.046,3.847c2.748,0,4.397-1.099,6.046-3.847
		c1.099-2.748,1.649-6.595,1.649-12.641s-0.55-9.893-1.649-12.641c-1.099-2.748-3.298-3.847-6.046-3.847
		c-2.748,0-4.397,1.099-6.046,3.847C301.832,963.481,301.282,967.878,301.282,973.924z"/>
	<path fill="#474747" d="M352.397,965.13c0,4.397-0.55,7.695-2.198,10.443c-1.649,2.198-3.847,3.298-7.145,3.298
		c-2.748,0-5.496-1.099-7.145-3.298c-1.649-2.198-2.198-5.496-2.198-9.893c0-8.794,3.298-13.74,9.344-13.74
		c3.298,0,5.496,1.099,7.145,3.298C351.298,957.435,352.397,960.733,352.397,965.13z M338.656,965.13
		c0,2.748,0.55,4.947,1.099,6.595c0.55,1.649,1.649,2.198,2.748,2.198c2.748,0,3.847-2.748,3.847-8.794s-1.099-8.794-3.847-8.794
		c-1.099,0-2.198,0.55-2.748,2.198C339.206,960.183,338.656,962.382,338.656,965.13z M371.634,951.939l-24.183,43.42h-5.496
		l24.183-43.42H371.634z M380.427,982.168c0,4.397-0.55,7.695-2.198,10.443c-1.649,2.198-3.847,3.298-7.145,3.298
		c-2.748,0-5.496-1.099-7.145-3.298c-1.649-2.198-2.748-5.496-2.748-9.893c0-8.794,3.298-13.74,9.344-13.74
		c3.298,0,5.496,1.099,7.145,3.298C379.328,974.473,380.427,977.771,380.427,982.168z M366.687,982.168
		c0,2.748,0.55,4.947,1.099,6.595c0.55,1.649,1.649,2.198,2.748,2.198c2.748,0,3.847-2.748,3.847-8.794
		c0-5.496-1.099-8.794-3.847-8.794c-1.099,0-2.198,0.55-2.748,2.198C367.237,977.221,366.687,979.42,366.687,982.168z"/>
	<path fill="#474747" d="M451.328,973.374c0,7.145-1.649,12.641-5.496,16.489c-3.298,3.847-8.244,6.046-14.84,6.046
		s-11.542-2.198-14.84-6.046c-3.298-3.847-5.496-9.344-5.496-16.489c0-7.145,1.649-12.641,5.496-16.489
		c3.298-3.847,8.794-5.496,14.84-5.496c6.595,0,11.542,2.198,14.84,6.046C449.13,961.283,451.328,966.779,451.328,973.374z
		 M418.351,973.374c0,5.496,1.099,9.344,3.298,12.092c2.198,2.748,5.496,3.847,9.344,3.847c4.397,0,7.145-1.099,9.344-3.847
		s3.298-6.595,3.298-12.092c0-5.496-1.099-9.343-3.298-12.092c-2.198-2.748-5.496-3.847-9.344-3.847
		c-4.397,0-7.695,1.099-9.344,3.847C419.45,964.58,418.351,968.427,418.351,973.374z"/>
	<path fill="#474747" d="M472.214,995.359h-7.145v-43.42h24.733v6.046h-17.588v13.74h16.489v6.046h-16.489V995.359z"/>
	<path fill="#474747" d="M529.374,977.771v17.038h-7.145v-43.42h12.092c5.496,0,9.893,1.099,12.641,3.298
		c2.748,2.198,3.847,5.496,3.847,9.344c0,5.496-2.748,9.343-8.244,11.542l12.092,19.237h-8.244l-10.443-17.038L529.374,977.771
		L529.374,977.771z M529.374,972.275h4.947c3.298,0,5.496-0.55,7.145-1.649c1.649-1.099,2.198-3.298,2.198-5.496
		s-0.55-4.397-2.198-5.496c-1.649-1.099-3.847-1.649-7.145-1.649h-4.397v14.29H529.374z"/>
	<path fill="#474747" d="M589.832,995.359h-24.183v-43.42h24.183v6.046h-17.588v11.542h16.489v6.046h-16.489v13.74h17.588V995.359z"
		/>
	<path fill="#474747" d="M628.855,983.817c0,3.847-1.649,6.595-4.397,8.794c-2.748,2.198-6.595,3.298-11.542,3.298
		c-4.947,0-8.794-0.55-12.092-2.198v-6.595c2.198,1.099,3.847,1.649,6.046,2.198c2.198,0.55,4.397,0.55,6.046,0.55
		c2.748,0,4.947-0.55,6.046-1.649c1.099-1.099,2.198-2.748,2.198-4.397s-0.55-2.748-1.649-3.847
		c-1.099-1.099-3.847-2.198-7.695-3.847c-3.847-1.649-6.595-3.298-8.244-5.496s-2.198-4.397-2.198-7.145
		c0-3.847,1.099-6.595,3.847-8.244s6.046-3.298,10.443-3.298s8.244,1.099,12.092,2.748l-2.198,5.496
		c-3.847-1.649-7.145-2.198-10.443-2.198c-2.198,0-3.847,0.55-4.947,1.649c-1.099,1.099-1.649,2.198-1.649,3.847
		c0,1.099,0,2.198,0.55,2.748c0.55,0.55,1.099,1.649,2.198,2.198c1.099,0.55,3.298,1.649,6.046,2.748
		c3.298,1.099,5.496,2.748,7.145,3.847c1.649,1.099,2.748,2.198,3.298,3.847C628.305,979.97,628.855,981.618,628.855,983.817z"/>
	<path fill="#474747" d="M670.076,965.13c0,4.397-1.649,7.695-4.397,10.443c-2.748,2.198-7.145,3.847-12.641,3.847h-4.397v15.939
		h-7.145v-43.42h12.641c5.496,0,9.343,1.099,12.092,3.298C668.977,957.435,670.076,960.733,670.076,965.13z M648.641,973.374h3.847
		c3.847,0,6.046-0.55,8.244-1.649c2.198-1.099,2.748-3.298,2.748-6.046c0-2.748-0.55-4.397-2.198-5.496s-3.847-1.649-7.145-1.649
		h-4.947v14.84H648.641z"/>
	<path fill="#474747" d="M721.74,973.374c0,7.145-1.649,12.641-5.496,16.489c-3.298,3.847-8.244,6.046-14.84,6.046
		s-11.542-2.198-14.84-6.046c-3.298-3.847-5.496-9.344-5.496-16.489c0-7.145,1.649-12.641,5.496-16.489
		c3.298-3.847,8.794-5.496,14.84-5.496c6.595,0,11.542,2.198,14.84,6.046C719.542,961.283,721.74,966.779,721.74,973.374z
		 M688.763,973.374c0,5.496,1.099,9.344,3.298,12.092s5.496,3.847,9.344,3.847c4.397,0,7.145-1.099,9.344-3.847
		c2.198-2.748,3.298-6.595,3.298-12.092c0-5.496-1.099-9.343-3.298-12.092s-5.496-3.847-9.344-3.847
		c-4.397,0-7.695,1.099-9.344,3.847C689.863,964.58,688.763,968.427,688.763,973.374z"/>
	<path fill="#474747" d="M771.206,995.359h-8.794l-21.435-34.626l0,0v1.649c0.55,3.847,0.55,7.145,0.55,9.893v22.534h-6.595v-43.42
		h8.794l21.435,34.076l0,0c0-0.55,0-2.198,0-4.947c0-2.748,0-4.947,0-6.595v-22.534h6.595v43.969H771.206z"/>
	<path fill="#474747" d="M822.321,973.374c0,7.145-2.198,12.641-6.046,16.489c-3.847,3.847-9.893,5.496-17.038,5.496h-12.092v-43.42
		h13.191c6.595,0,12.092,1.649,15.939,5.496C820.122,961.283,822.321,966.779,822.321,973.374z M814.626,973.374
		c0-10.443-4.947-15.389-14.29-15.389h-6.046v31.328h4.947C809.679,989.313,814.626,983.817,814.626,973.374z"/>
	<path fill="#474747" d="M860.794,995.359h-24.733v-43.42h24.183v6.046h-17.588v11.542h16.489v6.046h-16.489v13.74h17.588v6.046
		H860.794z"/>
	<path fill="#474747" d="M910.26,995.359h-8.794l-21.435-34.626l0,0v1.649c0.55,3.847,0.55,7.145,0.55,9.893v22.534h-6.046v-43.42
		h8.794l21.435,34.076l0,0c0-0.55,0-2.198,0-4.947c0-2.748,0-4.947,0-6.595v-22.534h6.595v43.969H910.26z"/>
	<path fill="#474747" d="M941.038,995.359h-7.145v-37.374h-12.641v-6.046h32.427v6.046h-12.641L941.038,995.359L941.038,995.359z"/>
	<path fill="#474747" d="M989.954,983.817c0,3.847-1.649,6.595-4.397,8.794c-2.748,2.198-6.595,3.298-11.542,3.298
		c-4.947,0-8.794-0.55-12.092-2.198v-6.595c2.198,1.099,3.847,1.649,6.046,2.198c2.198,0.55,4.397,0.55,6.046,0.55
		c2.748,0,4.947-0.55,6.046-1.649c1.099-1.099,2.198-2.748,2.198-4.397s-0.55-2.748-1.649-3.847s-3.847-2.198-7.695-3.847
		c-3.847-1.649-6.595-3.298-8.244-5.496s-2.198-4.397-2.198-7.145c0-3.847,1.099-6.595,3.847-8.244
		c2.748-2.198,6.046-3.298,10.443-3.298s8.244,1.099,12.092,2.748l-2.198,5.496c-3.847-1.649-7.145-2.198-10.443-2.198
		c-2.198,0-3.847,0.55-4.947,1.649c-1.099,1.099-1.649,2.198-1.649,3.847c0,1.099,0,2.198,0.55,2.748
		c0.55,0.55,1.099,1.649,2.198,2.198c1.099,0.55,3.298,1.649,6.046,2.748c3.298,1.099,5.496,2.748,7.145,3.847
		c1.649,1.099,2.748,2.198,3.298,3.847C989.405,979.97,989.954,981.618,989.954,983.817z"/>
	<path fill="#474747" d="M1051.511,965.13c0,4.397-1.649,7.695-4.397,10.443c-2.748,2.198-7.145,3.847-12.641,3.847h-4.397v15.939
		h-7.145v-43.42h12.641c5.496,0,9.344,1.099,12.092,3.298C1050.412,957.435,1051.511,960.733,1051.511,965.13z M1030.076,973.374
		h3.847c3.847,0,6.046-0.55,8.244-1.649c1.649-1.099,2.748-3.298,2.748-6.046c0-2.748-0.55-4.397-2.198-5.496
		c-1.649-1.099-3.847-1.649-7.145-1.649h-4.947v14.84H1030.076z"/>
	<path fill="#474747" d="M1064.702,995.359v-43.42h7.145v37.374h18.137v6.046L1064.702,995.359L1064.702,995.359z"/>
	<path fill="#474747" d="M1126.26,995.359h-24.183v-43.42h24.183v6.046h-17.588v11.542h16.489v6.046h-16.489v13.74h17.588V995.359z"
		/>
	<path fill="#474747" d="M1175.725,973.374c0,7.145-2.198,12.641-6.046,16.489c-3.847,3.847-9.893,5.496-17.038,5.496h-12.092
		v-43.42h13.191c6.595,0,12.092,1.649,15.939,5.496C1173.527,961.283,1175.725,966.779,1175.725,973.374z M1168.031,973.374
		c0-10.443-4.947-15.389-14.29-15.389h-6.046v31.328h4.947C1163.084,989.313,1168.031,983.817,1168.031,973.374z"/>
	<path fill="#474747" d="M1207.053,971.725h15.939v21.435c-2.748,1.099-4.947,1.649-7.695,1.649c-2.198,0.55-4.947,0.55-7.695,0.55
		c-6.595,0-11.542-2.198-15.389-6.046c-3.298-3.847-5.496-9.343-5.496-16.489s2.198-12.641,6.046-16.489
		c3.847-3.847,9.344-6.046,16.489-6.046c4.397,0,8.794,1.099,12.641,2.748l-2.748,6.046c-3.298-1.649-7.145-2.198-10.443-2.198
		c-4.397,0-8.244,1.649-10.992,4.397c-2.748,2.748-3.847,6.595-3.847,12.092c0,5.496,1.099,9.344,3.847,12.092
		c2.198,2.748,6.046,3.847,10.443,3.847c2.198,0,4.947-0.55,7.145-1.099v-10.992h-8.794v-5.496H1207.053z"/>
	<path fill="#474747" d="M1262.015,995.359h-24.183v-43.42h24.183v6.046h-17.588v11.542h16.489v6.046h-16.489v13.74h17.588V995.359z
		"/>
	<path fill="#474747" d="M1310.931,973.374c0,7.145-2.198,12.641-6.046,16.489c-3.847,3.847-9.893,5.496-17.038,5.496h-12.092
		v-43.42h13.191c6.595,0,12.092,1.649,15.939,5.496C1308.733,961.283,1310.931,966.779,1310.931,973.374z M1303.786,973.374
		c0-10.443-4.947-15.389-14.29-15.389h-6.046v31.328h4.947C1298.29,989.313,1303.786,983.817,1303.786,973.374z"/>
	<path fill="#474747" d="M1359.847,995.359h-7.145v-37.374h-12.641v-6.046h32.427v6.046h-12.641L1359.847,995.359L1359.847,995.359z
		"/>
	<path fill="#474747" d="M1421.954,973.374c0,7.145-1.649,12.641-5.496,16.489c-3.298,3.847-8.244,6.046-14.84,6.046
		c-6.595,0-11.542-2.198-14.84-6.046c-3.298-3.847-5.496-9.344-5.496-16.489c0-7.145,1.649-12.641,5.496-16.489
		c3.298-3.847,8.794-5.496,14.84-5.496c6.595,0,11.542,2.198,14.84,6.046C1420.305,961.282,1421.954,966.779,1421.954,973.374z
		 M1388.977,973.374c0,5.496,1.099,9.344,3.298,12.092s5.496,3.847,9.344,3.847c4.397,0,7.145-1.099,9.344-3.847
		c2.198-2.748,3.298-6.595,3.298-12.092c0-5.496-1.099-9.343-3.298-12.092s-5.496-3.847-9.344-3.847
		c-4.397,0-7.695,1.099-9.344,3.847C1390.076,964.58,1388.977,968.427,1388.977,973.374z"/>
	<path fill="#474747" d="M1475.817,995.359h-7.695l-7.145-25.832c-0.55-1.099-0.55-2.748-1.099-4.947s-0.55-3.847-1.099-4.397
		c0,1.099-0.55,2.748-1.099,4.947c-0.55,2.198-0.55,3.298-1.099,4.397l-7.145,25.832h-7.695l-5.496-21.435l-5.496-21.435h7.145
		l6.046,25.282c1.099,3.847,1.649,7.695,2.198,10.443c0-1.649,0.55-3.298,1.099-5.496c0.55-2.198,1.099-3.847,1.099-4.947
		l7.145-25.282h7.145l7.145,25.282c0.55,2.198,1.649,6.046,2.198,10.443c0.55-2.748,1.099-6.595,2.198-10.992l6.046-25.282h7.145
		L1475.817,995.359z"/>
	<path fill="#474747" d="M1524.733,995.359l-4.397-12.092h-16.489l-4.397,12.092h-7.695l15.939-43.42h7.695l15.939,43.42H1524.733z
		 M1518.137,977.221l-3.847-11.542c-0.55-0.55-0.55-2.198-1.099-3.847s-1.099-2.748-1.099-3.847
		c-0.55,2.198-1.099,4.947-2.198,7.695l-3.847,10.992h12.091V977.221z"/>
	<path fill="#474747" d="M1549.466,977.771v17.038h-7.145v-43.42h12.092c5.496,0,9.893,1.099,12.641,3.298
		c2.748,2.198,3.847,5.496,3.847,9.344c0,5.496-2.748,9.343-8.244,11.542l12.092,19.237h-8.244l-10.443-17.038L1549.466,977.771
		L1549.466,977.771z M1549.466,972.275h4.947c3.298,0,5.496-0.55,7.145-1.649c1.649-1.099,2.198-3.298,2.198-5.496
		s-0.55-4.397-2.198-5.496c-1.649-1.099-3.847-1.649-7.145-1.649h-4.397v14.29H1549.466z"/>
	<path fill="#474747" d="M1620.366,973.374c0,7.145-2.198,12.641-6.046,16.489s-9.893,5.496-17.038,5.496h-12.092v-43.42h13.191
		c6.595,0,12.092,1.649,15.939,5.496C1618.168,961.283,1620.366,966.779,1620.366,973.374z M1613.221,973.374
		c0-10.443-4.947-15.389-14.29-15.389h-6.046v31.328h4.947C1607.725,989.313,1613.221,983.817,1613.221,973.374z"/>
	<path fill="#474747" d="M1659.389,983.817c0,3.847-1.649,6.595-4.397,8.794c-2.748,2.198-6.596,3.298-11.542,3.298
		c-4.947,0-8.794-0.55-12.092-2.198v-6.595c2.198,1.099,3.847,1.649,6.046,2.198c2.198,0.55,4.397,0.55,6.046,0.55
		c2.748,0,4.946-0.55,6.046-1.649c1.099-1.099,2.198-2.748,2.198-4.397s-0.55-2.748-1.649-3.847
		c-1.099-1.099-3.847-2.198-7.695-3.847c-3.847-1.649-6.595-3.298-8.244-5.496s-2.198-4.397-2.198-7.145
		c0-3.847,1.099-6.595,3.847-8.244c2.748-2.198,6.046-3.298,10.443-3.298s8.244,1.099,12.092,2.748l-2.198,5.496
		c-3.847-1.649-7.145-2.198-10.443-2.198c-2.198,0-3.847,0.55-4.947,1.649c-1.099,1.099-1.649,2.198-1.649,3.847
		c0,1.099,0,2.198,0.55,2.748c0.55,0.55,1.099,1.649,2.198,2.198c1.099,0.55,3.298,1.649,6.046,2.748
		c3.298,1.099,5.496,2.748,7.145,3.847c1.649,1.099,2.748,2.198,3.298,3.847C1658.84,979.97,1659.389,981.618,1659.389,983.817z"/>
	<path fill="#474747" d="M177.618,1037.679c0,4.397-1.649,7.695-4.397,10.443c-2.748,2.198-7.145,3.847-12.641,3.847h-4.397v15.939
		h-7.145v-43.42h12.641c5.496,0,9.344,1.099,12.092,3.298C176.519,1029.985,177.618,1033.282,177.618,1037.679z M156.183,1045.924
		h3.847c3.847,0,6.046-0.55,8.244-1.649c2.198-1.099,2.748-3.298,2.748-6.046s-0.55-4.397-2.198-5.496
		c-1.649-1.099-3.847-1.649-7.145-1.649h-5.496V1045.924z"/>
	<path fill="#474747" d="M197.954,1050.321v17.038h-7.145v-43.42h12.092c5.496,0,9.893,1.099,12.641,3.298s3.847,5.496,3.847,9.344
		c0,5.496-2.748,9.344-8.244,11.542l12.092,19.237h-8.244l-10.443-17.038L197.954,1050.321L197.954,1050.321z M197.954,1044.824
		h4.947c3.298,0,5.496-0.55,7.145-1.649c1.649-1.099,2.198-3.298,2.198-5.496s-0.55-4.397-2.198-5.496s-3.847-1.649-7.145-1.649
		h-4.947V1044.824z"/>
	<path fill="#474747" d="M272.153,1045.924c0,7.145-1.649,12.641-5.496,16.489c-3.298,3.847-8.244,6.046-14.84,6.046
		s-11.542-2.198-14.84-6.046c-3.298-3.847-5.496-9.344-5.496-16.489s1.649-12.641,5.496-16.489c3.298-3.847,8.794-5.496,14.84-5.496
		c6.595,0,11.542,2.198,14.84,6.046C269.954,1033.832,272.153,1039.328,272.153,1045.924z M239.176,1045.924
		c0,5.496,1.099,9.344,3.298,12.092c2.198,2.748,5.496,3.847,9.344,3.847c4.397,0,7.145-1.099,9.344-3.847
		c2.198-2.748,3.298-6.595,3.298-12.092s-1.099-9.344-3.298-12.092c-2.198-2.748-5.496-3.847-9.344-3.847
		c-4.397,0-7.695,1.099-9.344,3.847C240.275,1037.13,239.176,1040.977,239.176,1045.924z"/>
	<path fill="#474747" d="M280.397,1080c-2.198,0-3.298,0-4.947-0.55v-6.046c1.649,0.55,3.298,0.55,4.397,0.55
		c3.847,0,6.046-2.198,6.046-7.145v-41.771h7.145v41.771c0,4.397-1.099,7.695-3.298,9.893
		C287.542,1078.901,284.794,1080,280.397,1080z"/>
	<path fill="#474747" d="M333.16,1067.908h-24.733v-43.42h24.183v6.046h-17.588v11.542h16.489v6.046h-16.489v13.74h17.588v6.046
		H333.16z"/>
	<path fill="#474747" d="M365.038,1029.985c-3.847,0-7.145,1.649-9.344,4.397s-3.298,6.595-3.298,12.092s1.099,9.344,3.298,12.092
		c2.198,2.748,5.496,3.847,9.893,3.847c1.649,0,3.847,0,5.496-0.55c1.649-0.55,3.298-1.099,5.496-1.649v6.046
		c-3.298,1.099-7.145,1.649-11.542,1.649c-6.046,0-10.992-1.649-14.29-5.496c-3.298-3.847-4.947-9.344-4.947-16.489
		c0-4.397,0.55-8.244,2.198-11.542c1.649-3.298,3.847-6.046,7.145-7.695s6.595-2.748,10.992-2.748s8.244,1.099,12.092,2.748
		l-2.748,6.046c-1.649-0.55-2.748-1.099-4.397-1.649C368.885,1030.534,367.237,1029.985,365.038,1029.985z"/>
	<path fill="#474747" d="M404.611,1067.908h-7.145v-37.374h-12.641v-6.046h32.427v6.046h-12.641V1067.908L404.611,1067.908z"/>
	<path fill="#474747" d="M453.527,1056.366c0,3.847-1.649,6.595-4.397,8.794c-2.748,2.198-6.595,3.298-11.542,3.298
		s-8.794-0.55-12.092-2.198v-6.595c2.198,1.099,3.847,1.649,6.046,2.198c2.198,0.55,4.397,0.55,6.046,0.55
		c2.748,0,4.947-0.55,6.046-1.649c1.099-1.099,2.198-2.748,2.198-4.397c0-1.649-0.55-2.748-1.649-3.847
		c-1.099-1.099-3.847-2.198-7.695-3.847c-3.847-1.649-6.595-3.298-8.244-5.496c-1.649-2.198-2.198-4.397-2.198-7.145
		c0-3.847,1.099-6.595,3.847-8.244c2.748-1.649,6.046-3.298,10.443-3.298c4.397,0,8.244,1.099,12.092,2.748l-2.198,5.496
		c-3.847-1.649-7.145-2.198-10.443-2.198c-2.198,0-3.847,0.55-4.947,1.649s-1.649,2.198-1.649,3.847c0,1.099,0,2.198,0.55,2.748
		c0.55,0.55,1.099,1.649,2.198,2.198s3.298,1.649,6.046,2.748c3.298,1.099,5.496,2.748,7.145,3.847
		c1.649,1.099,2.748,2.198,3.298,3.847C452.977,1052.519,453.527,1054.168,453.527,1056.366z"/>
	<path fill="#474747" d="M501.344,1067.908h-7.145v-37.374h-12.641v-6.046h32.427v6.046h-12.641V1067.908z"/>
	<path fill="#474747" d="M559.603,1067.908h-7.145v-19.237h-19.786v19.237h-7.145v-43.42h7.145v17.588h19.786v-17.588h7.145
		V1067.908z"/>
	<path fill="#474747" d="M601.924,1067.908l-4.397-12.092h-16.489l-4.397,12.092h-7.695l15.939-43.42h7.695l15.939,43.42H601.924z
		 M595.878,1049.771l-3.847-11.542c-0.55-0.55-0.55-2.198-1.099-3.847c-0.55-1.649-1.099-2.748-1.099-3.847
		c-0.55,2.198-1.099,4.947-2.198,7.695l-3.847,10.992h12.092V1049.771z"/>
	<path fill="#474747" d="M634.901,1067.908h-7.145v-37.374h-12.641v-6.046h32.427v6.046h-12.641L634.901,1067.908L634.901,1067.908z
		"/>
	<path fill="#474747" d="M718.443,1067.908h-7.695l-7.145-25.832c-0.55-1.099-0.55-2.748-1.099-4.947s-0.55-3.847-1.099-4.397
		c0,1.099-0.55,2.748-1.099,4.947s-0.55,3.298-1.099,4.397l-7.145,25.832h-7.695l-5.496-21.435l-5.496-21.435h7.145l6.046,25.282
		c1.099,3.847,1.649,7.695,2.198,10.443c0-1.649,0.55-3.298,1.099-5.496c0.55-2.198,1.099-3.847,1.099-4.947l7.145-25.282h7.145
		l7.145,25.282c0.55,2.198,1.649,6.046,2.198,10.443c0.55-2.748,1.099-6.595,2.198-10.992l6.046-25.282h7.145L718.443,1067.908z"/>
	<path fill="#474747" d="M764.611,1067.908h-24.183v-43.42h24.183v6.046h-17.588v11.542h16.489v6.046h-16.489v13.74h17.588V1067.908
		z"/>
	<path fill="#474747" d="M786.046,1050.321v17.038h-7.145v-43.42h12.092c5.496,0,9.893,1.099,12.641,3.298
		c2.748,2.198,3.847,5.496,3.847,9.344c0,5.496-2.748,9.344-8.244,11.542l12.092,19.237h-8.244l-10.443-17.038L786.046,1050.321
		L786.046,1050.321z M786.046,1044.824h4.947c3.298,0,5.496-0.55,7.145-1.649s2.198-3.298,2.198-5.496s-0.55-4.397-2.198-5.496
		s-3.847-1.649-7.145-1.649h-4.397v14.29H786.046z"/>
	<path fill="#474747" d="M846.504,1067.908h-24.183v-43.42h24.183v6.046h-17.588v11.542h16.489v6.046h-16.489v13.74h17.588V1067.908
		z"/>
	<path fill="#474747" d="M920.153,1067.908h-7.695l-7.145-25.832c-0.55-1.099-0.55-2.748-1.099-4.947s-0.55-3.847-1.099-4.397
		c0,1.099-0.55,2.748-1.099,4.947c-0.55,2.198-0.55,3.298-1.099,4.397l-7.145,25.832h-7.695l-5.496-21.435l-5.496-21.435h7.145
		l6.046,25.282c1.099,3.847,1.649,7.695,2.198,10.443c0-1.649,0.55-3.298,1.099-5.496c0.55-2.198,1.099-3.847,1.099-4.947
		l7.145-25.282h7.145l7.145,25.282c0.55,2.198,1.649,6.046,2.198,10.443c0.55-2.748,1.099-6.595,2.198-10.992l6.046-25.282h7.145
		L920.153,1067.908z"/>
	<path fill="#474747" d="M942.137,1067.908v-43.42h7.145v43.42H942.137z"/>
	<path fill="#474747" d="M980.061,1067.908h-7.145v-37.374h-12.641v-6.046h32.427v6.046h-12.641L980.061,1067.908L980.061,1067.908z
		"/>
	<path fill="#474747" d="M1037.771,1067.908h-7.145v-19.237h-19.786v19.237h-7.145v-43.42h7.145v17.588h19.786v-17.588h7.145
		V1067.908z"/>
	<path fill="#474747" d="M1053.71,1067.908v-43.42h7.145v43.42H1053.71z"/>
	<path fill="#474747" d="M1112.519,1067.908h-8.794l-21.435-34.626l0,0v1.649c0,3.847,0.55,7.145,0.55,9.893v22.534h-6.595v-43.42
		h8.794l21.435,34.076l0,0c0-0.55,0-2.198,0-4.947s0-4.947,0-6.595v-22.534h6.595v43.969H1112.519z"/>
	<path fill="#474747" d="M1163.634,1067.908h-7.145v-37.374h-12.641v-6.046h32.427v6.046h-12.641L1163.634,1067.908
		L1163.634,1067.908z"/>
	<path fill="#474747" d="M1221.893,1067.908h-7.145v-19.237h-19.786v19.237h-7.145v-43.42h7.145v17.588h19.786v-17.588h7.145
		V1067.908L1221.893,1067.908z"/>
	<path fill="#474747" d="M1262.015,1067.908h-24.183v-43.42h24.183v6.046h-17.588v11.542h16.489v6.046h-16.489v13.74h17.588
		V1067.908z"/>
	<path fill="#474747" d="M1275.756,1067.908v-43.42h7.145v43.42H1275.756z"/>
	<path fill="#474747" d="M1305.985,1050.321v17.038h-7.145v-43.42h12.092c5.496,0,9.893,1.099,12.641,3.298s3.847,5.496,3.847,9.344
		c0,5.496-2.748,9.344-8.244,11.542l12.092,19.237h-8.244l-10.443-17.038L1305.985,1050.321L1305.985,1050.321z M1305.985,1044.824
		h4.947c3.298,0,5.496-0.55,7.145-1.649c1.649-1.099,2.198-3.298,2.198-5.496s-0.55-4.397-2.198-5.496s-3.847-1.649-7.145-1.649
		h-4.397v14.29H1305.985z"/>
	<path fill="#474747" d="M1380.733,1029.985c-3.847,0-7.145,1.649-9.344,4.397c-2.198,2.748-3.298,6.595-3.298,12.092
		s1.099,9.344,3.298,12.092c2.198,2.748,5.496,3.847,9.893,3.847c1.649,0,3.847,0,5.496-0.55c1.649-0.55,3.298-1.099,5.496-1.649
		v6.046c-3.298,1.099-7.145,1.649-11.542,1.649c-6.046,0-10.992-1.649-14.29-5.496c-3.298-3.847-4.947-9.344-4.947-16.489
		c0-4.397,0.55-8.244,2.198-11.542s3.847-6.046,7.145-7.695s6.595-2.748,10.992-2.748c4.397,0,8.244,1.099,12.092,2.748
		l-2.748,6.046c-1.649-0.55-2.748-1.099-4.397-1.649C1384.031,1030.534,1382.382,1029.985,1380.733,1029.985z"/>
	<path fill="#474747" d="M1443.389,1045.924c0,7.145-1.649,12.641-5.496,16.489c-3.298,3.847-8.244,6.046-14.84,6.046
		c-6.595,0-11.542-2.198-14.84-6.046c-3.298-3.847-5.496-9.344-5.496-16.489s1.649-12.641,5.496-16.489
		c3.298-3.847,8.794-5.496,14.84-5.496c6.595,0,11.542,2.198,14.84,6.046C1441.74,1033.832,1443.389,1039.328,1443.389,1045.924z
		 M1410.412,1045.924c0,5.496,1.099,9.344,3.298,12.092c2.198,2.748,5.496,3.847,9.344,3.847c4.397,0,7.145-1.099,9.344-3.847
		c2.198-2.748,3.298-6.595,3.298-12.092s-1.099-9.344-3.298-12.092c-2.198-2.748-5.496-3.847-9.344-3.847
		c-4.397,0-7.695,1.099-9.344,3.847C1411.511,1037.13,1410.412,1040.977,1410.412,1045.924z"/>
	<path fill="#474747" d="M1475.817,1067.908l-12.641-36.275l0,0c0.55,5.496,0.55,10.443,0.55,14.84v20.885h-6.595v-43.42h9.893
		l12.092,34.076l0,0l12.092-34.076h9.893v43.42h-6.595v-21.435c0-2.198,0-4.947,0-8.244s0-5.496,0.55-6.046l0,0l-13.191,35.725
		h-6.046V1067.908z"/>
	<path fill="#474747" d="M1536.275,1067.908l-12.641-36.275l0,0c0.55,5.496,0.55,10.443,0.55,14.84v20.885h-6.595v-43.42h9.893
		l12.092,34.076l0,0l12.092-34.076h9.893v43.42h-6.595v-21.435c0-2.198,0-4.947,0-8.244s0-5.496,0.55-6.046l0,0l-13.191,35.725
		h-6.046V1067.908z"/>
	<path fill="#474747" d="M1611.573,1024.489v28.031c0,3.298-0.55,6.046-2.198,8.244c-1.099,2.198-3.298,4.397-6.046,5.496
		c-2.748,1.099-5.496,2.198-9.344,2.198c-5.496,0-9.344-1.649-12.641-4.397c-2.748-2.748-4.397-6.595-4.397-11.542v-28.031h7.145
		v27.481c0,3.298,1.099,6.046,2.748,7.695c1.649,1.649,4.397,2.748,7.695,2.748c6.595,0,9.893-3.298,9.893-10.443v-27.481H1611.573
		L1611.573,1024.489z"/>
	<path fill="#474747" d="M1663.237,1067.908h-8.794l-21.435-34.626l0,0v1.649c0,3.847,0.55,7.145,0.55,9.893v22.534h-6.046v-43.42
		h8.794l21.435,34.076l0,0c0-0.55,0-2.198,0-4.947s0-4.947,0-6.595v-22.534h6.595v43.969H1663.237z"/>
	<path fill="#474747" d="M1679.176,1067.908v-43.42h7.145v43.42H1679.176z"/>
	<path fill="#474747" d="M1717.099,1067.908h-7.145v-37.374h-12.641v-6.046h32.427v6.046h-12.641L1717.099,1067.908
		L1717.099,1067.908z"/>
	<path fill="#474747" d="M1753.374,1044.275l10.443-19.786h7.695l-14.29,26.382v16.489h-7.145v-16.489l-14.29-26.931h7.695
		L1753.374,1044.275z"/>
</g>
<g>
	<circle fill="#9ECECE" cx="970.168" cy="447.389" r="447.389"/>
	<path fill="#474747" d="M970.168,0v447.389l339.664,291.847c0,0-131.908,173.13-369.893,154.992c0,0-340.214-9.893-410.565-369.893
		c0,0-68.153-274.809,201.16-454.534C729.985,69.802,830.015-1.099,970.168,0z"/>
</g>
</svg>
