<?xml version="1.0" encoding="utf-8"?>
<!-- Generator: Adobe Illustrator 18.1.0, SVG Export Plug-In . SVG Version: 6.00 Build 0)  -->
<!DOCTYPE svg PUBLIC "-//W3C//DTD SVG 1.1//EN" "http://www.w3.org/Graphics/SVG/1.1/DTD/svg11.dtd">
<svg version="1.1" id="Layer_1" xmlns="http://www.w3.org/2000/svg" xmlns:xlink="http://www.w3.org/1999/xlink" x="0px" y="0px"
	 viewBox="0 0 1920 1080" enable-background="new 0 0 1920 1080" xml:space="preserve">
<g>
	<circle fill="#9ECECE" cx="959.456" cy="443.105" r="443.105"/>
	<path fill="#474747" d="M959.456,443.105L665.504,112.681c0,0,101.794-112.681,293.952-112.681V443.105z"/>
</g>
<g>
	<path fill="#474747" d="M266.492,952.621c3.81,0,7.077,1.089,9.798,2.722c2.722,1.633,3.266,4.355,3.266,7.621
		c0,4.355-2.722,7.621-8.165,10.343c3.266,1.633,5.988,3.266,7.077,5.444c1.633,1.633,2.177,3.81,2.177,5.988
		c0,3.266-1.089,6.532-3.81,8.71c-2.722,2.177-5.988,3.266-10.343,3.266c-4.899,0-8.165-1.089-10.887-2.722
		c-2.722-1.633-3.81-4.899-3.81-8.71c0-2.177,0.544-4.355,2.177-6.532c1.089-1.633,3.266-3.81,6.532-4.899
		c-2.722-1.633-4.355-3.266-5.444-4.899c-1.089-1.633-1.633-3.81-1.633-5.988c0-3.266,1.089-5.444,3.811-7.621
		C259.415,953.71,262.681,952.621,266.492,952.621z M258.327,984.738c0,2.177,0.544,3.81,2.177,4.899s3.266,1.633,5.988,1.633
		s4.355-0.544,5.988-1.633c1.633-1.089,2.177-2.722,2.177-4.899c0-1.633-0.544-3.266-2.177-4.355
		c-1.089-1.089-3.266-2.722-5.988-3.81l-1.089-0.544c-2.722,1.089-4.355,2.177-5.444,3.81S258.327,983.105,258.327,984.738z
		 M266.492,958.065c-2.177,0-3.266,0.544-4.899,1.633c-1.089,1.089-1.633,2.177-1.633,3.81c0,1.089,0,2.177,0.544,2.722
		c0.544,0.544,1.089,1.633,1.633,2.177c0.544,0.544,2.177,1.633,4.355,2.177c2.177-1.089,3.81-2.177,4.899-3.266
		c1.089-1.089,1.633-2.722,1.633-3.81c0-1.633-0.544-2.722-1.633-3.81C269.758,958.609,268.125,958.065,266.492,958.065z"/>
	<path fill="#474747" d="M305.141,969.496c4.355,0,7.621,1.089,10.343,3.266s3.81,5.444,3.81,9.254
		c0,4.355-1.633,8.165-4.355,10.887c-2.722,2.722-7.077,3.81-11.976,3.81s-8.71-0.544-11.431-2.177v-5.988
		c1.633,1.089,3.266,1.633,5.444,2.177c2.177,0.544,3.81,0.544,5.444,0.544c3.266,0,5.444-0.544,7.077-2.177
		c1.633-1.633,2.177-3.266,2.177-5.988c0-4.899-3.266-7.621-9.798-7.621c-1.089,0-2.177,0-3.266,0.544s-2.722,0.544-3.266,0.544
		l-3.266-2.178l1.633-20.685h22.319v5.988h-16.331l-1.089,10.343c0.544,0,1.633,0,2.722-0.544
		C302.419,969.496,303.508,969.496,305.141,969.496z"/>
	<path fill="#474747" d="M348.145,966.23c0,4.355-0.544,7.621-2.177,10.343c-1.633,2.177-3.81,3.266-7.077,3.266
		c-2.722,0-5.444-1.089-7.077-3.266c-1.633-2.177-2.177-5.444-2.177-9.798c0-8.71,3.266-13.609,9.254-13.609
		c3.266,0,5.444,1.089,7.077,3.266C347.056,958.609,348.145,961.875,348.145,966.23z M335.081,966.23
		c0,2.722,0.544,4.899,1.089,6.532c0.544,1.633,1.633,2.177,2.722,2.177c2.722,0,3.81-2.722,3.81-8.71c0-5.988-1.089-8.71-3.81-8.71
		c-1.089,0-2.177,0.544-2.722,2.177C335.625,961.331,335.081,962.964,335.081,966.23z M367.198,953.165l-23.952,43.004h-5.444
		l23.952-43.004H367.198z M375.907,983.105c0,4.355-0.544,7.621-2.177,10.343c-1.633,2.177-3.81,3.266-7.077,3.266
		c-2.722,0-5.444-1.089-7.077-3.266c-1.633-2.177-2.722-5.444-2.722-9.798c0-8.71,3.266-13.609,9.254-13.609
		c3.266,0,5.444,1.089,7.077,3.266C374.819,975.484,375.907,978.75,375.907,983.105z M362.843,983.105
		c0,2.722,0.544,4.899,1.089,6.532c0.544,1.633,1.633,2.177,2.722,2.177c2.722,0,3.81-2.722,3.81-8.71c0-5.444-1.089-8.71-3.81-8.71
		c-1.089,0-2.177,0.544-2.722,2.177C362.843,978.206,362.843,980.383,362.843,983.105z"/>
	<path fill="#474747" d="M446.673,974.395c0,7.077-1.633,12.52-5.444,16.331c-3.266,3.81-8.165,5.988-14.698,5.988
		c-6.532,0-11.431-2.177-14.698-5.988c-3.266-3.81-5.444-9.254-5.444-16.331c0-7.077,1.633-12.52,5.444-16.331
		c3.266-3.81,8.71-5.444,14.698-5.444c6.532,0,11.431,2.177,14.698,5.988S446.673,967.863,446.673,974.395z M414.012,974.395
		c0,5.444,1.089,9.254,3.266,11.976c2.177,2.722,5.444,3.81,9.254,3.81c4.355,0,7.077-1.089,9.254-3.81
		c2.177-2.722,3.266-6.532,3.266-11.976s-1.089-9.254-3.266-11.976c-2.177-2.722-5.444-3.81-9.254-3.81
		c-4.355,0-7.621,1.089-9.254,3.81C415.101,965.141,414.012,969.496,414.012,974.395z"/>
	<path fill="#474747" d="M466.815,996.169h-7.077v-43.004h23.952v5.988H466.27v13.609h16.331v5.988H466.27v17.419H466.815z"/>
	<path fill="#474747" d="M523.427,978.75v16.875h-7.077v-43.004h11.976c5.444,0,9.798,1.089,12.52,3.266
		c2.722,2.177,3.81,5.444,3.81,9.254c0,5.444-2.722,9.254-8.165,11.431l11.976,19.052h-8.165L529.96,978.75L523.427,978.75
		L523.427,978.75z M523.427,973.307h4.899c3.266,0,5.444-0.544,7.077-1.633c1.633-1.089,2.177-3.266,2.177-5.444
		c0-2.177-0.544-4.355-2.177-5.444c-1.633-1.089-3.81-1.633-7.077-1.633h-4.355v14.153H523.427z"/>
	<path fill="#474747" d="M583.306,996.169h-23.952v-43.004h23.952v5.988h-17.419v11.432h16.331v5.988h-16.331v13.609h17.419V996.169
		z"/>
	<path fill="#474747" d="M621.956,984.194c0,3.81-1.633,6.532-4.355,8.71c-2.722,2.177-6.532,3.266-11.431,3.266
		c-4.899,0-8.71-0.544-11.976-2.177v-6.532c2.177,1.089,3.81,1.633,5.988,2.177c2.177,0.544,4.355,0.544,5.988,0.544
		c2.722,0,4.899-0.544,5.988-1.633c1.089-1.089,2.177-2.722,2.177-4.355c0-1.633-0.544-2.722-1.633-3.81s-3.81-2.177-7.621-3.81
		c-3.81-1.633-6.532-3.266-8.165-5.444c-1.633-2.177-2.177-4.355-2.177-7.077c0-3.81,1.089-6.532,3.81-8.165
		c2.722-1.633,5.988-3.266,10.343-3.266s8.165,1.089,11.976,2.722l-2.177,5.444c-3.81-1.633-7.077-2.177-10.343-2.177
		c-2.177,0-3.81,0.544-4.899,1.633s-1.633,2.177-1.633,3.81c0,1.089,0,2.177,0.544,2.722s1.089,1.633,2.177,2.177
		c1.089,0.544,3.266,1.633,5.988,2.722c3.266,1.089,5.444,2.722,7.077,3.81c1.633,1.089,2.722,2.177,3.266,3.81
		C621.411,980.927,621.956,982.561,621.956,984.194z"/>
	<path fill="#474747" d="M662.782,966.23c0,4.355-1.633,7.621-4.355,10.343c-2.722,2.177-7.077,3.81-12.52,3.81h-4.355v15.786
		h-7.077v-43.004h12.52c5.444,0,9.254,1.089,11.976,3.266C661.694,958.609,662.782,961.875,662.782,966.23z M641.552,974.395h3.81
		c3.81,0,5.988-0.544,8.165-1.633s2.722-3.266,2.722-5.988c0-2.722-0.544-4.355-2.177-5.444c-1.633-1.089-3.81-1.633-7.077-1.633
		h-4.899v14.698H641.552z"/>
	<path fill="#474747" d="M713.952,974.395c0,7.077-1.633,12.52-5.444,16.331c-3.266,3.81-8.165,5.988-14.698,5.988
		c-6.532,0-11.431-2.177-14.698-5.988c-3.266-3.81-5.444-9.254-5.444-16.331c0-7.077,1.633-12.52,5.444-16.331
		c3.266-3.81,8.71-5.444,14.698-5.444c6.532,0,11.431,2.177,14.698,5.988C711.774,962.419,713.952,967.863,713.952,974.395z
		 M681.29,974.395c0,5.444,1.089,9.254,3.266,11.976c2.177,2.722,5.444,3.81,9.254,3.81c4.355,0,7.077-1.089,9.254-3.81
		c2.177-2.722,3.266-6.532,3.266-11.976s-1.089-9.254-3.266-11.976c-2.177-2.722-5.444-3.81-9.254-3.81
		c-4.355,0-7.621,1.089-9.254,3.81C682.379,965.141,681.29,969.496,681.29,974.395z"/>
	<path fill="#474747" d="M762.944,996.169h-8.165l-21.23-34.294l0,0v1.633c0.544,3.81,0.544,7.077,0.544,9.798v22.319h-6.532
		v-43.004h8.71l21.23,33.75l0,0c0-0.544,0-2.177,0-4.899s0-4.899,0-6.532v-22.319h6.532v43.548H762.944z"/>
	<path fill="#474747" d="M813.569,974.395c0,7.077-2.177,12.52-5.988,16.331c-3.81,3.81-9.798,5.444-16.875,5.444H778.73v-43.004
		h13.065c6.532,0,11.976,1.633,15.786,5.444C811.391,962.419,813.569,967.319,813.569,974.395z M806.492,974.395
		c0-10.343-4.899-15.242-14.153-15.242h-5.988v31.028h4.899C801.048,990.181,806.492,984.738,806.492,974.395z"/>
	<path fill="#474747" d="M851.673,996.169h-23.952v-43.004h23.952v5.988h-17.419v11.432h16.331v5.988h-16.331v13.609h17.419V996.169
		z"/>
	<path fill="#474747" d="M900.665,996.169h-8.71l-21.23-34.294l0,0v1.633c0.544,3.81,0.544,7.077,0.544,9.798v22.319h-6.532v-43.004
		h8.71l21.23,33.75l0,0c0-0.544,0-2.177,0-4.899s0-4.899,0-6.532v-22.319h6.532v43.548H900.665z"/>
	<path fill="#474747" d="M931.149,996.169h-7.077v-37.016h-12.52v-5.988h32.117v5.988h-12.52L931.149,996.169L931.149,996.169z"/>
	<path fill="#474747" d="M979.597,984.194c0,3.81-1.633,6.532-4.355,8.71c-2.722,2.177-6.532,3.266-11.431,3.266
		s-8.71-0.544-11.976-2.177v-6.532c2.177,1.089,3.81,1.633,5.988,2.177c2.177,0.544,4.355,0.544,5.988,0.544
		c2.722,0,4.899-0.544,5.988-1.633c1.089-1.089,2.177-2.722,2.177-4.355c0-1.633-0.544-2.722-1.633-3.81
		c-1.089-1.089-3.81-2.177-7.621-3.81c-3.81-1.633-6.532-3.266-8.165-5.444c-1.633-2.177-2.177-4.355-2.177-7.077
		c0-3.81,1.089-6.532,3.81-8.165c2.722-2.177,5.988-3.266,10.343-3.266c4.355,0,8.165,1.089,11.976,2.722l-2.177,5.444
		c-3.81-1.633-7.077-2.177-10.343-2.177c-2.177,0-3.81,0.544-4.899,1.633s-1.633,2.177-1.633,3.81c0,1.089,0,2.177,0.544,2.722
		s1.089,1.633,2.177,2.177c1.089,0.544,3.266,1.633,5.988,2.722c3.266,1.089,5.444,2.722,7.077,3.81
		c1.633,1.089,2.722,2.177,3.266,3.81C979.597,980.927,979.597,982.561,979.597,984.194z"/>
	<path fill="#474747" d="M1040.565,966.23c0,4.355-1.633,7.621-4.355,10.343c-2.722,2.177-7.077,3.81-12.52,3.81h-4.355v15.786
		h-7.077v-43.004h12.52c5.444,0,9.254,1.089,11.976,3.266C1039.476,958.609,1040.565,961.875,1040.565,966.23z M1019.335,974.395
		h3.81c3.81,0,5.988-0.544,8.165-1.633c1.633-1.089,2.722-3.266,2.722-5.988c0-2.722-0.544-4.355-2.177-5.444
		c-1.633-1.089-3.811-1.633-7.077-1.633h-4.899v14.698H1019.335z"/>
	<path fill="#474747" d="M1053.629,996.169v-43.004h7.077v37.016h17.964v5.988L1053.629,996.169L1053.629,996.169z"/>
	<path fill="#474747" d="M1115.141,996.169h-23.952v-43.004h23.952v5.988h-17.419v11.432h16.331v5.988h-16.331v13.609h17.419
		V996.169z"/>
	<path fill="#474747" d="M1163.589,974.395c0,7.077-2.177,12.52-5.988,16.331c-3.81,3.81-9.798,5.444-16.875,5.444h-11.976v-43.004
		h13.064c6.532,0,11.976,1.633,15.786,5.444C1161.411,962.419,1163.589,967.319,1163.589,974.395z M1155.968,974.395
		c0-10.343-4.899-15.242-14.153-15.242h-5.988v31.028h4.899C1151.069,990.181,1155.968,984.738,1155.968,974.395z"/>
	<path fill="#474747" d="M1194.617,972.762h15.786v21.23c-2.722,1.089-4.899,1.633-7.621,1.633
		c-2.177,0.544-4.899,0.544-7.621,0.544c-6.532,0-11.432-2.177-15.242-5.988c-3.266-3.81-5.444-9.254-5.444-16.331
		c0-7.077,2.177-12.52,5.988-16.331c3.81-3.81,9.254-5.988,16.331-5.988c4.355,0,8.71,1.089,12.52,2.722l-2.722,5.988
		c-3.266-1.633-7.077-2.177-10.343-2.177c-4.355,0-8.165,1.633-10.887,4.355c-2.722,2.722-3.81,6.532-3.81,11.976
		s1.089,9.254,3.81,11.976c2.177,2.722,5.988,3.81,10.343,3.81c2.177,0,4.899-0.544,7.077-1.089v-10.887h-8.71v-5.444H1194.617z"/>
	<path fill="#474747" d="M1249.052,996.169h-23.952v-43.004h23.952v5.988h-17.419v11.432h16.331v5.988h-16.331v13.609h17.419
		V996.169z"/>
	<path fill="#474747" d="M1297.5,974.395c0,7.077-2.177,12.52-5.988,16.331c-3.81,3.81-9.798,5.444-16.875,5.444h-11.976v-43.004
		h13.064c6.532,0,11.976,1.633,15.786,5.444C1295.323,962.419,1297.5,967.319,1297.5,974.395z M1290.423,974.395
		c0-10.343-4.899-15.242-14.153-15.242h-5.988v31.028h4.899C1284.98,990.181,1290.423,984.738,1290.423,974.395z"/>
	<path fill="#474747" d="M1346.492,996.169h-7.077v-37.016h-12.52v-5.988h32.117v5.988h-12.52V996.169L1346.492,996.169z"/>
	<path fill="#474747" d="M1408.004,974.395c0,7.077-1.633,12.52-5.444,16.331c-3.266,3.81-8.165,5.988-14.698,5.988
		c-6.532,0-11.432-2.177-14.698-5.988c-3.266-3.81-5.443-9.254-5.443-16.331c0-7.077,1.633-12.52,5.443-16.331
		c3.266-3.81,8.71-5.444,14.698-5.444c6.532,0,11.431,2.177,14.698,5.988C1405.827,962.419,1408.004,967.863,1408.004,974.395z
		 M1375.343,974.395c0,5.444,1.089,9.254,3.266,11.976c2.177,2.722,5.443,3.81,9.254,3.81c4.355,0,7.077-1.089,9.254-3.81
		c2.177-2.722,3.266-6.532,3.266-11.976s-1.089-9.254-3.266-11.976c-2.177-2.722-5.443-3.81-9.254-3.81
		c-4.355,0-7.621,1.089-9.254,3.81C1376.432,965.141,1375.343,969.496,1375.343,974.395z"/>
	<path fill="#474747" d="M1460.807,996.169h-7.621l-7.077-25.585c-0.544-1.089-0.544-2.722-1.089-4.899
		c-0.544-2.177-0.544-3.81-1.089-4.355c0,1.089-0.544,2.722-1.089,4.899c-0.544,2.177-0.544,3.266-1.089,4.355l-7.077,25.585h-7.621
		l-5.444-21.23l-5.443-21.23h7.077l5.988,25.04c1.089,3.81,1.633,7.621,2.177,10.343c0-1.633,0.544-3.266,1.089-5.444
		c0.544-2.177,1.089-3.81,1.089-4.899l7.077-25.04h7.077l7.077,25.04c0.544,2.177,1.633,5.988,2.177,10.343
		c0.544-2.722,1.089-6.532,2.177-10.887l5.988-25.04h7.077L1460.807,996.169z"/>
	<path fill="#474747" d="M1509.254,996.169l-4.355-11.976h-16.331l-4.355,11.976h-7.621l15.786-43.004H1500l15.786,43.004H1509.254z
		 M1503.266,978.206l-3.811-11.432c-0.544-0.544-0.544-2.177-1.089-3.81c-0.544-1.633-1.089-2.722-1.089-3.81
		c-0.544,2.177-1.089,4.899-2.177,7.621l-3.81,10.887h11.976V978.206z"/>
	<path fill="#474747" d="M1533.75,978.75v16.875h-7.077v-43.004h11.976c5.443,0,9.798,1.089,12.52,3.266
		c2.722,2.177,3.81,5.444,3.81,9.254c0,5.444-2.722,9.254-8.165,11.431l11.976,19.052h-8.165l-10.343-16.875L1533.75,978.75
		L1533.75,978.75z M1533.75,973.307h4.899c3.266,0,5.443-0.544,7.077-1.633c1.633-1.089,2.177-3.266,2.177-5.444
		c0-2.177-0.544-4.355-2.177-5.444c-1.633-1.089-3.81-1.633-7.077-1.633h-4.355v14.153H1533.75z"/>
	<path fill="#474747" d="M1603.972,974.395c0,7.077-2.177,12.52-5.988,16.331c-3.81,3.81-9.798,5.444-16.875,5.444h-11.976v-43.004
		h13.064c6.532,0,11.976,1.633,15.786,5.444C1601.794,962.419,1603.972,967.319,1603.972,974.395z M1596.895,974.395
		c0-10.343-4.899-15.242-14.153-15.242h-5.988v31.028h4.899C1591.452,990.181,1596.895,984.738,1596.895,974.395z"/>
	<path fill="#474747" d="M1642.621,984.194c0,3.81-1.633,6.532-4.355,8.71c-2.722,2.177-6.532,3.266-11.432,3.266
		s-8.71-0.544-11.976-2.177v-6.532c2.177,1.089,3.81,1.633,5.988,2.177c2.177,0.544,4.355,0.544,5.988,0.544
		c2.722,0,4.899-0.544,5.988-1.633c1.089-1.089,2.177-2.722,2.177-4.355c0-1.633-0.544-2.722-1.633-3.81
		c-1.089-1.089-3.811-2.177-7.621-3.81c-3.811-1.633-6.532-3.266-8.165-5.444c-1.633-2.177-2.177-4.355-2.177-7.077
		c0-3.81,1.089-6.532,3.811-8.165c2.722-2.177,5.988-3.266,10.343-3.266c4.355,0,8.165,1.089,11.976,2.722l-2.177,5.444
		c-3.811-1.633-7.077-2.177-10.343-2.177c-2.177,0-3.811,0.544-4.899,1.633s-1.633,2.177-1.633,3.81c0,1.089,0,2.177,0.544,2.722
		c0.544,0.544,1.089,1.633,2.177,2.177c1.089,0.544,3.266,1.633,5.988,2.722c3.266,1.089,5.444,2.722,7.077,3.81
		c1.633,1.089,2.722,2.177,3.266,3.81C1642.077,980.927,1642.621,982.561,1642.621,984.194z"/>
	<path fill="#474747" d="M255.06,1038.085c0,4.355-1.633,7.621-4.355,10.343c-2.722,2.177-7.077,3.811-12.52,3.811h-4.355v15.786
		h-7.077v-43.004h12.52c5.444,0,9.254,1.089,11.976,3.266C253.972,1030.464,255.06,1033.73,255.06,1038.085z M233.831,1046.25h3.81
		c3.81,0,5.988-0.544,8.165-1.633c2.177-1.089,2.722-3.266,2.722-5.988s-0.544-4.355-2.177-5.444
		c-1.633-1.089-3.81-1.633-7.077-1.633h-5.444V1046.25z"/>
	<path fill="#474747" d="M275.202,1050.605v16.875h-7.077v-43.004h11.976c5.444,0,9.798,1.089,12.52,3.266s3.81,5.444,3.81,9.254
		c0,5.444-2.722,9.254-8.165,11.432l11.976,19.052h-8.165l-10.343-16.875L275.202,1050.605L275.202,1050.605z M275.202,1045.161
		h4.899c3.266,0,5.444-0.544,7.077-1.633c1.633-1.089,2.177-3.266,2.177-5.444s-0.544-4.355-2.177-5.444
		c-1.633-1.089-3.81-1.633-7.077-1.633h-4.899V1045.161z"/>
	<path fill="#474747" d="M348.69,1046.25c0,7.077-1.633,12.52-5.444,16.331c-3.266,3.81-8.165,5.988-14.698,5.988
		c-6.532,0-11.431-2.177-14.698-5.988c-3.266-3.81-5.444-9.254-5.444-16.331c0-7.077,1.633-12.52,5.444-16.331
		c3.266-3.811,8.71-5.444,14.698-5.444c6.532,0,11.431,2.177,14.698,5.988C346.512,1034.274,348.69,1039.718,348.69,1046.25z
		 M316.028,1046.25c0,5.444,1.089,9.254,3.266,11.976c2.177,2.722,5.444,3.81,9.254,3.81c4.355,0,7.077-1.089,9.254-3.81
		s3.266-6.532,3.266-11.976c0-5.443-1.089-9.254-3.266-11.976c-2.177-2.722-5.444-3.811-9.254-3.811
		c-4.355,0-7.621,1.089-9.254,3.811C317.117,1036.996,316.028,1041.351,316.028,1046.25z"/>
	<path fill="#474747" d="M356.855,1080c-2.177,0-3.266,0-4.899-0.544v-5.988c1.633,0.544,3.266,0.544,4.355,0.544
		c3.81,0,5.988-2.177,5.988-7.077v-41.371h7.077v41.371c0,4.355-1.089,7.621-3.266,9.798C363.931,1078.911,361.21,1080,356.855,1080
		z"/>
	<path fill="#474747" d="M409.113,1068.024h-24.496v-43.004h23.952v5.988h-17.419v11.432h16.331v5.988h-16.331v13.609h17.419v5.988
		H409.113z"/>
	<path fill="#474747" d="M440.685,1030.464c-3.81,0-7.077,1.633-9.254,4.355c-2.177,2.722-3.266,6.532-3.266,11.976
		s1.089,9.254,3.266,11.976c2.177,2.722,5.444,3.81,9.798,3.81c1.633,0,3.81,0,5.444-0.544c1.633-0.544,3.266-1.089,5.444-1.633
		v5.988c-3.266,1.089-7.077,1.633-11.431,1.633c-5.988,0-10.887-1.633-14.153-5.444c-3.266-3.81-4.899-9.254-4.899-16.331
		c0-4.355,0.544-8.165,2.177-11.431c1.633-3.266,3.81-5.988,7.077-7.621c3.266-1.633,6.532-2.722,10.887-2.722
		s8.165,1.089,11.976,2.722l-2.722,5.988c-1.633-0.544-2.722-1.089-4.355-1.633C444.496,1031.008,442.863,1030.464,440.685,1030.464
		z"/>
	<path fill="#474747" d="M479.879,1068.024h-7.077v-37.016h-12.52v-5.988h32.117v5.988h-12.52L479.879,1068.024L479.879,1068.024z"
		/>
	<path fill="#474747" d="M528.327,1056.048c0,3.81-1.633,6.532-4.355,8.71c-2.722,2.177-6.532,3.266-11.431,3.266
		s-8.71-0.544-11.976-2.177v-6.532c2.177,1.089,3.81,1.633,5.988,2.177c2.177,0.544,4.355,0.544,5.988,0.544
		c2.722,0,4.899-0.544,5.988-1.633c1.089-1.089,2.177-2.722,2.177-4.355c0-1.633-0.544-2.722-1.633-3.811
		c-1.089-1.089-3.81-2.177-7.621-3.81c-3.81-1.633-6.532-3.266-8.165-5.444c-1.633-2.177-2.177-4.355-2.177-7.077
		c0-3.811,1.089-6.532,3.811-8.165c2.722-1.633,5.988-3.266,10.343-3.266c4.355,0,8.165,1.089,11.976,2.722l-2.177,5.443
		c-3.81-1.633-7.077-2.177-10.343-2.177c-2.177,0-3.81,0.544-4.899,1.633c-1.089,1.089-1.633,2.177-1.633,3.811
		c0,1.089,0,2.177,0.544,2.722c0.544,0.544,1.089,1.633,2.177,2.177c1.089,0.544,3.266,1.633,5.988,2.722
		c3.266,1.089,5.444,2.722,7.077,3.811c1.633,1.089,2.722,2.177,3.266,3.81C527.782,1052.782,528.327,1054.415,528.327,1056.048z"/>
	<path fill="#474747" d="M579.496,1030.464c-3.81,0-7.077,1.633-9.254,4.355c-2.177,2.722-3.266,6.532-3.266,11.976
		s1.089,9.254,3.266,11.976c2.177,2.722,5.444,3.81,9.798,3.81c1.633,0,3.81,0,5.444-0.544c1.633-0.544,3.266-1.089,5.444-1.633
		v5.988c-3.266,1.089-7.077,1.633-11.431,1.633c-5.988,0-10.887-1.633-14.153-5.444s-4.899-9.254-4.899-16.331
		c0-4.355,0.544-8.165,2.177-11.431c1.633-3.266,3.81-5.988,7.077-7.621c3.266-1.633,6.532-2.722,10.887-2.722
		s8.165,1.089,11.976,2.722l-2.722,5.988c-1.633-0.544-2.722-1.089-4.355-1.633C582.762,1031.008,581.129,1030.464,579.496,1030.464
		z"/>
	<path fill="#474747" d="M610.524,1050.605v16.875h-7.077v-43.004h11.976c5.444,0,9.798,1.089,12.52,3.266
		c2.722,2.177,3.81,5.444,3.81,9.254c0,5.444-2.722,9.254-8.165,11.432l11.976,19.052h-8.165l-10.343-16.875L610.524,1050.605
		L610.524,1050.605z M610.524,1045.161h4.899c3.266,0,5.444-0.544,7.077-1.633c1.633-1.089,2.177-3.266,2.177-5.444
		s-0.544-4.355-2.177-5.444c-1.633-1.089-3.81-1.633-7.077-1.633h-4.355v14.153H610.524z"/>
	<path fill="#474747" d="M670.403,1068.024h-23.952v-43.004h23.952v5.988h-17.419v11.432h16.331v5.988h-16.331v13.609h17.419
		V1068.024z"/>
	<path fill="#474747" d="M710.685,1068.024l-4.355-11.976H690l-4.355,11.976h-7.077l15.786-43.004h7.621l15.786,43.004H710.685z
		 M704.698,1050.061l-3.81-11.432c-0.544-0.544-0.544-2.177-1.089-3.81c-0.544-1.633-1.089-2.722-1.089-3.811
		c-0.544,2.177-1.089,4.899-2.177,7.621l-3.81,10.887h11.976V1050.061z"/>
	<path fill="#474747" d="M742.802,1068.024h-7.077v-37.016h-12.52v-5.988h32.117v5.988h-12.52L742.802,1068.024L742.802,1068.024z"
		/>
	<path fill="#474747" d="M790.706,1068.024h-23.952v-43.004h23.952v5.988h-17.419v11.432h16.331v5.988h-16.331v13.609h17.419
		V1068.024z"/>
	<path fill="#474747" d="M839.153,1046.25c0,7.077-2.177,12.52-5.988,16.331c-3.81,3.81-9.798,5.444-16.875,5.444h-11.976v-43.004
		h13.065c6.532,0,11.976,1.633,15.786,5.443C836.976,1034.274,839.153,1039.173,839.153,1046.25z M832.077,1046.25
		c0-10.343-4.899-15.242-14.153-15.242h-5.988v31.028h4.899C826.633,1062.036,832.077,1056.593,832.077,1046.25z"/>
	<path fill="#474747" d="M872.903,1025.02h12.52c5.988,0,10.343,1.089,12.52,2.722c2.177,1.633,3.81,4.355,3.81,8.165
		c0,2.722-0.544,4.355-2.177,5.988c-1.089,1.633-3.266,2.722-5.444,3.266v0.544c3.266,0.544,5.444,1.633,6.532,3.266
		c1.633,1.633,2.177,3.811,2.177,6.532c0,3.81-1.089,7.077-3.81,9.254c-2.722,2.177-6.532,3.266-11.431,3.266h-15.242v-43.004
		H872.903z M879.98,1042.984h6.532c2.722,0,4.899-0.544,6.532-1.633c1.089-1.089,2.177-2.722,2.177-4.899
		c0-2.177-0.544-3.266-2.177-4.355c-1.633-1.089-3.81-1.089-7.077-1.089h-5.988V1042.984z M879.98,1048.427v13.609h7.621
		c2.722,0,4.899-0.544,6.532-1.633c1.633-1.089,2.177-2.722,2.177-5.444c0-2.177-0.544-3.81-2.177-4.899
		c-1.633-1.089-3.81-1.633-7.077-1.633H879.98z"/>
	<path fill="#474747" d="M928.972,1044.617l10.343-19.597h7.621l-14.153,26.129v16.331h-7.077v-16.331l-14.153-26.673h7.621
		L928.972,1044.617z"/>
	<path fill="#474747" d="M1001.915,1056.048c0,3.81-1.633,6.532-4.355,8.71c-2.722,2.177-6.532,3.266-11.432,3.266
		c-4.899,0-8.71-0.544-11.976-2.177v-6.532c2.177,1.089,3.81,1.633,5.988,2.177c2.177,0.544,4.355,0.544,5.988,0.544
		c2.722,0,4.899-0.544,5.988-1.633c1.089-1.089,2.177-2.722,2.177-4.355c0-1.633-0.544-2.722-1.633-3.811
		c-1.089-1.089-3.81-2.177-7.621-3.81c-3.81-1.633-6.532-3.266-8.165-5.444c-1.633-2.177-2.177-4.355-2.177-7.077
		c0-3.811,1.089-6.532,3.81-8.165c2.722-2.177,5.988-3.266,10.343-3.266c4.355,0,8.165,1.089,11.976,2.722l-2.177,5.443
		c-3.81-1.633-7.077-2.177-10.343-2.177c-2.177,0-3.81,0.544-4.899,1.633c-1.089,1.089-1.633,2.177-1.633,3.811
		c0,1.089,0,2.177,0.544,2.722c0.544,0.544,1.089,1.633,2.177,2.177c1.089,0.544,3.266,1.633,5.988,2.722
		c3.266,1.089,5.444,2.722,7.077,3.811c1.633,1.089,2.722,2.177,3.266,3.81C1001.371,1052.782,1001.915,1054.415,1001.915,1056.048z
		"/>
	<path fill="#474747" d="M1052.54,1046.25c0,7.077-1.633,12.52-5.444,16.331c-3.266,3.81-8.165,5.988-14.698,5.988
		c-6.532,0-11.432-2.177-14.698-5.988c-3.266-3.81-5.444-9.254-5.444-16.331c0-7.077,1.633-12.52,5.444-16.331
		c3.266-3.811,8.71-5.444,14.698-5.444c6.532,0,11.431,2.177,14.698,5.988S1052.54,1039.718,1052.54,1046.25z M1019.879,1046.25
		c0,5.444,1.089,9.254,3.266,11.976s5.444,3.81,9.254,3.81c4.355,0,7.077-1.089,9.254-3.81c2.177-2.722,3.266-6.532,3.266-11.976
		c0-5.443-1.089-9.254-3.266-11.976c-2.177-2.722-5.443-3.811-9.254-3.811c-4.355,0-7.621,1.089-9.254,3.811
		C1020.968,1036.996,1019.879,1041.351,1019.879,1046.25z"/>
	<path fill="#474747" d="M1084.657,1068.024l-12.52-35.927l0,0c0.544,5.443,0.544,10.343,0.544,14.698v20.686h-6.532v-43.004h9.798
		l11.976,33.75l0,0l11.976-33.75h9.798v43.004h-6.532v-21.23c0-2.177,0-4.899,0-8.165s0-5.444,0.544-5.988l0,0l-13.064,35.383
		h-5.988V1068.024z"/>
	<path fill="#474747" d="M1149.98,1068.024h-23.952v-43.004h23.952v5.988h-17.419v11.432h16.331v5.988h-16.331v13.609h17.419
		V1068.024z"/>
	<path fill="#474747" d="M1201.694,1046.25c0,7.077-1.633,12.52-5.443,16.331c-3.266,3.81-8.165,5.988-14.698,5.988
		s-11.432-2.177-14.698-5.988c-3.266-3.81-5.444-9.254-5.444-16.331c0-7.077,1.633-12.52,5.444-16.331
		c3.266-3.811,8.71-5.444,14.698-5.444c6.532,0,11.432,2.177,14.698,5.988C1200.061,1034.274,1201.694,1039.718,1201.694,1046.25z
		 M1169.032,1046.25c0,5.444,1.089,9.254,3.266,11.976c2.177,2.722,5.444,3.81,9.254,3.81c4.355,0,7.077-1.089,9.254-3.81
		s3.266-6.532,3.266-11.976c0-5.443-1.089-9.254-3.266-11.976c-2.177-2.722-5.443-3.811-9.254-3.811
		c-4.355,0-7.621,1.089-9.254,3.811C1170.121,1036.996,1169.032,1041.351,1169.032,1046.25z"/>
	<path fill="#474747" d="M1250.686,1068.024h-8.71l-21.23-34.294l0,0v1.633c0,3.811,0.544,7.077,0.544,9.798v22.319h-6.532v-43.004
		h8.71l21.23,33.75l0,0c0-0.544,0-2.177,0-4.899s0-4.899,0-6.532v-22.319h6.532v43.548H1250.686z"/>
	<path fill="#474747" d="M1290.968,1068.024h-24.496v-43.004h23.952v5.988h-17.419v11.432h16.331v5.988h-16.331v13.609h17.419v5.988
		H1290.968z"/>
	<path fill="#474747" d="M1339.415,1068.024h-7.077v-37.016h-12.52v-5.988h32.117v5.988h-12.52L1339.415,1068.024L1339.415,1068.024
		z"/>
	<path fill="#474747" d="M1396.573,1068.024h-7.077v-19.052h-19.597v19.052h-7.077v-43.004h7.077v17.419h19.597v-17.419h7.077
		V1068.024L1396.573,1068.024z"/>
	<path fill="#474747" d="M1436.855,1068.024h-23.952v-43.004h23.952v5.988h-17.419v11.432h16.331v5.988h-16.331v13.609h17.419
		V1068.024z"/>
	<path fill="#474747" d="M1462.44,1044.617l10.343-19.597h7.621l-14.153,26.129v16.331h-7.077v-16.331l-14.153-26.673h7.621
		L1462.44,1044.617z"/>
	<path fill="#474747" d="M1543.004,1068.024h-8.165l-13.609-19.597l-4.355,3.266v15.786h-7.077v-43.004h7.077v20.141
		c2.177-2.177,3.81-4.355,5.443-6.532l11.432-13.609h8.165c-7.621,8.71-13.064,15.242-15.786,18.508L1543.004,1068.024z"/>
	<path fill="#474747" d="M1588.73,1068.024h-8.71l-21.23-34.294l0,0v1.633c0,3.811,0.544,7.077,0.544,9.798v22.319h-6.532v-43.004
		h8.71l21.23,33.75l0,0c0-0.544,0-2.177,0-4.899s0-4.899,0-6.532v-22.319h6.532v43.548H1588.73z"/>
	<path fill="#474747" d="M1628.468,1068.024h-23.952v-43.004h23.952v5.988h-17.419v11.432h16.331v5.988h-16.331v13.609h17.419
		V1068.024z"/>
	<path fill="#474747" d="M1681.815,1068.024h-7.621l-7.077-25.585c-0.544-1.089-0.544-2.722-1.089-4.899
		c-0.544-2.177-0.544-3.81-1.089-4.355c0,1.089-0.544,2.722-1.089,4.899s-0.544,3.266-1.089,4.355l-7.077,25.585h-7.621
		l-5.444-21.23l-5.443-21.23h7.077l5.988,25.04c1.089,3.81,1.633,7.621,2.177,10.343c0-1.633,0.544-3.266,1.089-5.443
		c0.544-2.177,1.089-3.81,1.089-4.899l7.077-25.04h7.077l7.077,25.04c0.544,2.177,1.633,5.988,2.177,10.343
		c0.544-2.722,1.089-6.532,2.177-10.887l5.988-25.04h7.077L1681.815,1068.024z"/>
</g>
</svg>
