<?xml version="1.0" encoding="utf-8"?>
<!-- Generator: Adobe Illustrator 18.1.0, SVG Export Plug-In . SVG Version: 6.00 Build 0)  -->
<!DOCTYPE svg PUBLIC "-//W3C//DTD SVG 1.1//EN" "http://www.w3.org/Graphics/SVG/1.1/DTD/svg11.dtd">
<svg version="1.1" id="Layer_1" xmlns="http://www.w3.org/2000/svg" xmlns:xlink="http://www.w3.org/1999/xlink" x="0px" y="0px"
	 viewBox="0 0 1920 1080" enable-background="new 0 0 1920 1080" xml:space="preserve">
<g>
	<path fill="#474747" d="M145.559,1052.763c0,8.882-1.776,15.987-5.329,20.724c-3.553,4.737-9.474,6.513-16.579,6.513
		c-2.961,0-4.737,0-5.921-0.592v-6.513c1.776,0.592,3.553,0.592,5.921,0.592c5.329,0,8.882-1.184,11.25-4.145
		c2.368-2.96,3.553-7.105,4.145-13.026h-1.184c-1.184,1.776-2.961,3.553-4.737,4.145c-1.776,0.592-3.553,1.184-5.921,1.184
		c-4.145,0-7.105-1.184-9.474-4.145c-2.368-2.368-3.553-5.921-3.553-10.658s1.184-8.882,4.145-11.842
		c2.961-2.961,6.513-4.145,11.25-4.145c3.553,0,5.921,0.592,8.882,2.368c2.368,1.776,4.145,4.145,5.921,7.105
		S145.559,1048.619,145.559,1052.763z M129.572,1038.553c-2.368,0-4.737,0.592-5.921,2.368c-1.184,1.776-1.776,4.145-1.776,7.105
		c0,2.368,0.592,4.737,1.776,6.513c1.184,1.776,2.961,2.368,5.921,2.368c2.368,0,4.737-0.592,6.513-2.368
		c1.776-1.776,2.368-3.553,2.368-5.329c0-1.776-0.592-3.553-1.184-5.329s-1.776-2.96-2.961-4.145
		C132.533,1039.145,131.349,1038.553,129.572,1038.553z"/>
	<path fill="#474747" d="M172.204,1050.395c4.737,0,8.289,1.184,11.25,3.553c2.961,2.369,4.145,5.921,4.145,10.066
		c0,4.737-1.776,8.882-4.737,11.842c-2.961,2.96-7.697,4.145-13.026,4.145s-9.474-0.592-12.434-2.368v-6.513
		c1.776,1.184,3.553,1.776,5.921,2.368c2.368,0.592,4.145,0.592,5.921,0.592c3.553,0,5.921-0.592,7.697-2.368
		c1.776-1.776,2.368-3.553,2.368-6.513c0-5.329-3.553-8.289-10.658-8.289c-1.184,0-2.368,0-3.553,0.592
		c-1.184,0.592-2.961,0.592-3.553,0.592l-3.553-1.776l1.776-22.5h24.276v6.513h-17.763l-1.184,11.25c0.592,0,1.776,0,2.961-0.592
		C169.243,1050.395,170.428,1050.395,172.204,1050.395z"/>
	<path fill="#474747" d="M218.98,1046.842c0,4.737-0.592,8.289-2.368,11.25c-1.776,2.368-4.145,3.553-7.697,3.553
		c-2.961,0-5.921-1.184-7.697-3.553s-2.368-5.921-2.368-10.658c0-9.474,3.553-14.803,10.066-14.803c3.553,0,5.921,1.184,7.697,3.553
		C217.796,1038.553,218.98,1042.105,218.98,1046.842z M204.178,1046.842c0,2.961,0.592,5.329,1.184,7.105
		c0.592,1.776,1.776,2.368,2.961,2.368c2.961,0,4.145-2.961,4.145-9.474s-1.184-9.474-4.145-9.474c-1.184,0-2.368,0.592-2.961,2.368
		S204.178,1043.882,204.178,1046.842z M239.704,1033.224L213.651,1080h-5.921l26.053-46.776H239.704z M249.178,1065.79
		c0,4.737-0.592,8.289-2.368,11.25c-1.776,2.368-4.145,3.553-7.697,3.553c-2.961,0-5.921-1.184-7.697-3.553
		c-1.776-2.368-2.961-5.921-2.961-10.658c0-9.474,3.553-14.803,10.066-14.803c3.553,0,5.921,1.184,7.697,3.553
		C247.993,1057.5,249.178,1061.053,249.178,1065.79z M234.967,1065.79c0,2.96,0.592,5.329,1.184,7.105s1.776,2.368,2.961,2.368
		c2.961,0,4.145-2.961,4.145-9.474c0-5.921-1.184-9.474-4.145-9.474c-1.184,0-2.368,0.592-2.961,2.368
		C234.967,1059.869,234.967,1062.237,234.967,1065.79z"/>
	<path fill="#474747" d="M325.559,1056.316c0,7.697-1.776,13.618-5.921,17.763c-3.553,4.145-8.882,6.513-15.987,6.513
		s-12.434-2.368-15.987-6.513s-5.921-10.066-5.921-17.763s1.776-13.618,5.921-17.763c3.553-4.145,9.474-5.921,15.987-5.921
		c7.105,0,12.434,2.368,15.987,6.513S325.559,1048.619,325.559,1056.316z M290.033,1056.316c0,5.921,1.184,10.066,3.553,13.026
		c2.368,2.96,5.921,4.145,10.066,4.145c4.737,0,7.697-1.184,10.066-4.145c2.368-2.961,3.553-7.105,3.553-13.026
		s-1.184-10.066-3.553-13.026c-2.368-2.961-5.921-4.145-10.066-4.145c-4.737,0-8.289,1.184-10.066,4.145
		C291.217,1046.25,290.033,1050.395,290.033,1056.316z"/>
	<path fill="#474747" d="M348.059,1079.408h-7.697v-46.776h26.053v6.513h-18.947v14.803h17.763v6.513h-17.763v18.947H348.059z"/>
	<path fill="#474747" d="M409.638,1061.053v18.355h-7.697v-46.776h13.026c5.921,0,10.658,1.184,13.618,3.553
		c2.961,2.369,4.145,5.921,4.145,10.066c0,5.921-2.961,10.066-8.882,12.434l13.026,20.724h-8.882l-11.25-18.355L409.638,1061.053
		L409.638,1061.053z M409.638,1054.54h5.329c3.553,0,5.921-0.592,7.697-1.776s2.368-3.553,2.368-5.921s-0.592-4.737-2.368-5.921
		s-4.145-1.776-7.697-1.776h-4.737v15.395H409.638z"/>
	<path fill="#474747" d="M474.77,1079.408h-26.053v-46.776h26.053v6.513h-18.947v12.434h17.763v6.513h-17.763v14.803h18.947
		V1079.408z"/>
	<path fill="#474747" d="M516.809,1066.974c0,4.145-1.776,7.105-4.737,9.474c-2.961,2.368-7.105,3.553-12.434,3.553
		s-9.474-0.592-13.026-2.368v-7.105c2.368,1.184,4.145,1.776,6.513,2.368c2.368,0.592,4.737,0.592,6.513,0.592
		c2.961,0,5.329-0.592,6.513-1.776c1.184-1.184,2.368-2.961,2.368-4.737c0-1.776-0.592-2.96-1.776-4.145
		c-1.184-1.184-4.145-2.368-8.289-4.145c-4.145-1.776-7.105-3.553-8.882-5.921s-2.368-4.737-2.368-7.698
		c0-4.145,1.184-7.105,4.145-8.882c2.961-1.776,6.513-3.553,11.25-3.553c4.737,0,8.882,1.184,13.026,2.961l-2.368,5.921
		c-4.145-1.776-7.697-2.368-11.25-2.368c-2.368,0-4.145,0.592-5.329,1.776s-1.776,2.368-1.776,4.145c0,1.184,0,2.368,0.592,2.961
		s1.184,1.776,2.368,2.368c1.184,0.592,3.553,1.776,6.513,2.96c3.553,1.184,5.921,2.961,7.697,4.145
		c1.776,1.184,2.961,2.368,3.553,4.145C516.217,1062.829,516.809,1064.605,516.809,1066.974z"/>
	<path fill="#474747" d="M561.217,1047.434c0,4.737-1.776,8.289-4.737,11.25c-2.961,2.368-7.697,4.145-13.618,4.145h-4.737V1080
		h-7.697v-46.776h13.618c5.921,0,10.066,1.184,13.026,3.553C560.033,1039.145,561.217,1042.698,561.217,1047.434z M538.125,1055.724
		h4.145c4.145,0,6.513-0.592,8.882-1.776c2.368-1.184,2.961-3.553,2.961-6.513c0-2.96-0.592-4.737-2.368-5.921
		c-1.776-1.184-4.145-1.776-7.697-1.776h-5.329v15.987H538.125z"/>
	<path fill="#474747" d="M616.875,1056.316c0,7.697-1.776,13.618-5.921,17.763c-3.553,4.145-8.882,6.513-15.987,6.513
		c-7.105,0-12.434-2.368-15.987-6.513c-3.553-4.145-5.921-10.066-5.921-17.763s1.776-13.618,5.921-17.763
		c3.553-4.145,9.474-5.921,15.987-5.921c7.105,0,12.434,2.368,15.987,6.513S616.875,1048.619,616.875,1056.316z M581.349,1056.316
		c0,5.921,1.184,10.066,3.553,13.026c2.368,2.96,5.921,4.145,10.066,4.145c4.737,0,7.697-1.184,10.066-4.145
		c2.368-2.961,3.553-7.105,3.553-13.026s-1.184-10.066-3.553-13.026c-2.368-2.961-5.921-4.145-10.066-4.145
		c-4.737,0-8.289,1.184-10.066,4.145C582.533,1046.25,581.349,1050.395,581.349,1056.316z"/>
	<path fill="#474747" d="M670.164,1079.408h-9.474l-23.092-37.303l0,0v1.776c0.592,4.145,0.592,7.697,0.592,10.658v24.276h-7.105
		v-46.776h9.474l23.092,36.71l0,0c0-0.592,0-2.368,0-5.329c0-2.961,0-5.329,0-7.105v-24.276h7.105v47.368H670.164z"/>
	<path fill="#474747" d="M725.23,1055.724c0,7.697-2.368,13.618-6.513,17.763c-4.145,4.145-10.658,5.921-18.355,5.921h-13.026
		v-46.776h14.211c7.105,0,13.026,1.776,17.171,5.921S725.23,1048.619,725.23,1055.724z M717.533,1056.316
		c0-11.25-5.329-16.579-15.395-16.579h-6.513v33.75h4.737C711.612,1073.487,717.533,1067.566,717.533,1056.316z"/>
	<path fill="#474747" d="M766.678,1079.408h-26.053v-46.776h26.053v6.513H747.73v12.434h17.763v6.513H747.73v14.803h18.947V1079.408
		z"/>
	<path fill="#474747" d="M819.967,1079.408h-9.474l-23.092-37.303l0,0v1.776c0.592,4.145,0.592,7.697,0.592,10.658v24.276h-7.105
		v-46.776h9.474l23.092,36.71l0,0c0-0.592,0-2.368,0-5.329c0-2.961,0-5.329,0-7.105v-24.276h7.105v47.368H819.967z"/>
	<path fill="#474747" d="M853.125,1079.408h-7.697v-40.263h-13.618v-6.513h34.934v6.513h-13.618L853.125,1079.408L853.125,1079.408z
		"/>
	<path fill="#474747" d="M905.822,1066.974c0,4.145-1.776,7.105-4.737,9.474S893.98,1080,888.651,1080
		c-5.329,0-9.474-0.592-13.026-2.368v-7.105c2.368,1.184,4.145,1.776,6.513,2.368c2.368,0.592,4.737,0.592,6.513,0.592
		c2.961,0,5.329-0.592,6.513-1.776c1.184-1.184,2.368-2.961,2.368-4.737c0-1.776-0.592-2.96-1.776-4.145s-4.145-2.368-8.289-4.145
		c-4.145-1.776-7.105-3.553-8.882-5.921c-1.776-2.368-2.368-4.737-2.368-7.697c0-4.145,1.184-7.105,4.145-8.882
		c2.961-2.368,6.513-3.553,11.25-3.553c4.737,0,8.882,1.184,13.026,2.96l-2.368,5.921c-4.145-1.776-7.697-2.368-11.25-2.368
		c-2.368,0-4.145,0.592-5.329,1.776c-1.184,1.184-1.776,2.368-1.776,4.145c0,1.184,0,2.368,0.592,2.961
		c0.592,0.592,1.184,1.776,2.368,2.368c1.184,0.592,3.553,1.776,6.513,2.96c3.553,1.184,5.921,2.961,7.697,4.145
		s2.961,2.368,3.553,4.145C905.23,1062.829,905.822,1064.605,905.822,1066.974z"/>
	<path fill="#474747" d="M978.059,1079.408h-7.697v-20.724h-21.316v20.724h-7.697v-46.776h7.697v18.947h21.316v-18.947h7.697
		L978.059,1079.408L978.059,1079.408z"/>
	<path fill="#474747" d="M1024.243,1079.408l-4.737-13.026h-17.763l-4.737,13.026h-8.289l17.171-46.776h8.289l17.171,46.776
		H1024.243z M1017.73,1059.869l-4.145-12.434c-0.592-0.592-0.592-2.368-1.184-4.145c-0.592-1.776-1.184-2.961-1.184-4.145
		c-0.592,2.368-1.184,5.329-2.368,8.289l-4.145,11.842h13.026V1059.869z"/>
	<path fill="#474747" d="M1069.835,1033.224h7.697L1060.954,1080h-8.289l-15.987-46.776h7.697l9.474,29.013
		c0.592,1.184,1.184,2.961,1.776,5.329c0.592,2.368,1.184,3.553,1.184,4.737c0-1.776,0.592-3.553,1.184-5.329
		c0.592-2.368,1.184-3.553,1.184-4.737L1069.835,1033.224z"/>
	<path fill="#474747" d="M1114.835,1079.408h-26.052v-46.776h26.052v6.513h-18.947v12.434h17.763v6.513h-17.763v14.803h18.947
		V1079.408z"/>
	<path fill="#474747" d="M1170.493,1054.54h17.171v23.092c-2.961,1.184-5.329,1.776-8.29,1.776
		c-2.368,0.592-5.329,0.592-8.289,0.592c-7.105,0-12.434-2.368-16.579-6.513c-3.553-4.145-5.921-10.066-5.921-17.763
		s2.368-13.618,6.513-17.763c4.145-4.145,10.066-6.513,17.763-6.513c4.737,0,9.474,1.184,13.618,2.961l-2.96,6.513
		c-3.553-1.776-7.697-2.368-11.25-2.368c-4.737,0-8.882,1.776-11.842,4.737c-2.961,2.961-4.145,7.105-4.145,13.026
		s1.184,10.066,4.145,13.026c2.368,2.961,6.513,4.145,11.25,4.145c2.368,0,5.329-0.592,7.697-1.184v-11.842h-9.474v-5.921H1170.493z
		"/>
	<path fill="#474747" d="M1203.651,1079.408v-46.776h7.697v46.776H1203.651z"/>
	<path fill="#474747" d="M1255.164,1033.224h7.697L1246.283,1080h-8.289l-15.987-46.776h7.697l9.474,29.013
		c0.592,1.184,1.184,2.961,1.776,5.329c0.592,2.368,1.184,3.553,1.184,4.737c0-1.776,0.592-3.553,1.184-5.329
		c0.592-2.368,1.184-3.553,1.184-4.737L1255.164,1033.224z"/>
	<path fill="#474747" d="M1300.164,1079.408h-26.053v-46.776h26.053v6.513h-18.947v12.434h17.763v6.513h-17.763v14.803h18.947
		V1079.408z"/>
	<path fill="#474747" d="M1354.046,1079.408h-9.474l-23.092-37.303l0,0v1.776c0,4.145,0.592,7.697,0.592,10.658v24.276h-7.105
		v-46.776h9.474l23.092,36.71l0,0c0-0.592,0-2.368,0-5.329c0-2.961,0-5.329,0-7.105v-24.276h7.105v47.368H1354.046z"/>
	<path fill="#474747" d="M1409.112,1079.408h-7.697v-40.263h-13.618v-6.513h34.934v6.513h-13.618L1409.112,1079.408
		L1409.112,1079.408z"/>
	<path fill="#474747" d="M1476.02,1056.316c0,7.697-1.776,13.618-5.921,17.763c-3.553,4.145-8.882,6.513-15.987,6.513
		s-12.434-2.368-15.987-6.513s-5.921-10.066-5.921-17.763s1.776-13.618,5.921-17.763c3.553-4.145,9.474-5.921,15.987-5.921
		c7.105,0,12.434,2.368,15.987,6.513C1474.243,1042.698,1476.02,1048.619,1476.02,1056.316z M1440.493,1056.316
		c0,5.921,1.184,10.066,3.553,13.026c2.368,2.96,5.921,4.145,10.066,4.145c4.737,0,7.697-1.184,10.066-4.145
		c2.368-2.961,3.553-7.105,3.553-13.026s-1.184-10.066-3.553-13.026c-2.368-2.961-5.921-4.145-10.066-4.145
		c-4.737,0-8.289,1.184-10.066,4.145C1441.678,1046.25,1440.493,1050.395,1440.493,1056.316z"/>
	<path fill="#474747" d="M1532.27,1039.145c-4.145,0-7.697,1.776-10.066,4.737c-2.368,2.961-3.553,7.105-3.553,13.026
		s1.184,10.066,3.553,13.026c2.368,2.961,5.921,4.145,10.658,4.145c1.776,0,4.145,0,5.921-0.592
		c1.776-0.592,3.553-1.184,5.921-1.776v6.513c-3.553,1.184-7.697,1.776-12.434,1.776c-6.513,0-11.842-1.776-15.395-5.921
		c-3.553-4.145-5.329-10.066-5.329-17.763c0-4.737,0.592-8.882,2.368-12.434c1.776-3.553,4.145-6.513,7.697-8.289
		s7.105-2.961,11.842-2.961c4.737,0,8.881,1.184,13.026,2.961l-2.961,6.513c-1.776-0.592-2.96-1.184-4.737-1.776
		C1536.414,1039.145,1534.638,1039.145,1532.27,1039.145z"/>
	<path fill="#474747" d="M1595.625,1079.408h-7.697v-20.724h-21.316v20.724h-7.697v-46.776h7.697v18.947h21.316v-18.947h7.697
		L1595.625,1079.408L1595.625,1079.408z"/>
	<path fill="#474747" d="M1641.217,1079.408l-4.737-13.026h-17.763l-4.737,13.026h-7.697l17.171-46.776h8.289l17.171,46.776
		H1641.217z M1634.704,1059.869l-4.145-12.434c-0.592-0.592-0.592-2.368-1.184-4.145c-0.592-1.776-1.184-2.961-1.184-4.145
		c-0.592,2.368-1.184,5.329-2.368,8.289l-4.145,11.842h13.026V1059.869z"/>
	<path fill="#474747" d="M1668.454,1061.053v18.355h-7.697v-46.776h13.026c5.921,0,10.658,1.184,13.618,3.553
		c2.961,2.368,4.145,5.921,4.145,10.066c0,5.921-2.96,10.066-8.881,12.434l13.026,20.724h-8.882l-11.25-18.355L1668.454,1061.053
		L1668.454,1061.053z M1668.454,1054.54h5.329c3.553,0,5.921-0.592,7.697-1.776s2.368-3.553,2.368-5.921s-0.592-4.737-2.368-5.921
		s-4.145-1.776-7.697-1.776h-4.737v15.395H1668.454z"/>
	<path fill="#474747" d="M1706.941,1079.408v-46.776h7.697v46.776H1706.941z"/>
	<path fill="#474747" d="M1747.796,1079.408h-7.697v-40.263h-13.618v-6.513h34.934v6.513h-13.618L1747.796,1079.408
		L1747.796,1079.408z"/>
	<path fill="#474747" d="M1786.875,1054.54l11.25-21.316h8.289l-15.395,28.421v17.763h-7.697v-17.763l-15.395-29.013h8.289
		L1786.875,1054.54z"/>
</g>
<g>
	<circle fill="#9ECECE" cx="960.888" cy="481.974" r="481.974"/>
	<path fill="#474747" d="M960.888,0v481.974L836.546,16.579C836.546,16.579,898.717,0,960.888,0z"/>
</g>
</svg>
