<?xml version="1.0" encoding="utf-8"?>
<!-- Generator: Adobe Illustrator 18.1.0, SVG Export Plug-In . SVG Version: 6.00 Build 0)  -->
<!DOCTYPE svg PUBLIC "-//W3C//DTD SVG 1.1//EN" "http://www.w3.org/Graphics/SVG/1.1/DTD/svg11.dtd">
<svg version="1.1" id="Layer_1" xmlns="http://www.w3.org/2000/svg" xmlns:xlink="http://www.w3.org/1999/xlink" x="0px" y="0px"
	 viewBox="0 0 186.285 32.32" enable-background="new 0 0 186.285 32.32" xml:space="preserve">
<g>
	<polygon fill-rule="evenodd" clip-rule="evenodd" fill="#FF0000" points="154.304,16.017 170.294,0.027 138.314,0.027 
		154.304,16.017 	"/>
	<polygon fill-rule="evenodd" clip-rule="evenodd" fill="#FF0000" points="154.304,16.017 170.294,32.007 138.314,32.007 
		154.304,16.017 	"/>
	<polygon fill-rule="evenodd" clip-rule="evenodd" fill="#FF0000" points="186.285,16.017 170.294,0.027 170.294,32.007 
		186.285,16.017 	"/>
	<polygon fill-rule="evenodd" clip-rule="evenodd" fill="#FF0000" points="122.324,16.017 138.314,0.027 138.314,32.007 
		122.324,16.017 	"/>
	<path fill-rule="evenodd" clip-rule="evenodd" d="M8.792,15.039h14.362V6.193c0-1.579-0.101-2.622-0.295-3.12
		c-0.156-0.381-0.475-0.708-0.957-0.98c-0.653-0.366-1.346-0.544-2.077-0.544h-1.089V0.7h13.219v0.848h-1.097
		c-0.724,0-1.416,0.171-2.069,0.521c-0.49,0.241-0.817,0.615-0.996,1.105c-0.171,0.498-0.257,1.501-0.257,3.019v19.949
		c0,1.562,0.093,2.598,0.296,3.096c0.148,0.381,0.459,0.709,0.934,0.98c0.669,0.365,1.369,0.553,2.093,0.553h1.097v0.84H18.735
		v-0.84h1.089c1.26,0,2.186-0.373,2.762-1.121c0.381-0.482,0.568-1.656,0.568-3.508v-9.415H8.792v9.415
		c0,1.562,0.101,2.598,0.296,3.096c0.155,0.381,0.475,0.709,0.964,0.98c0.654,0.365,1.338,0.553,2.07,0.553h1.12v0.84H0v-0.84h1.089
		c1.276,0,2.202-0.373,2.786-1.121c0.358-0.482,0.544-1.656,0.544-3.508V6.193c0-1.579-0.101-2.622-0.295-3.12
		C3.968,2.692,3.657,2.365,3.19,2.093C2.52,1.727,1.82,1.548,1.089,1.548H0V0.7h13.242v0.848h-1.12c-0.731,0-1.416,0.171-2.07,0.521
		C9.578,2.31,9.25,2.684,9.072,3.174c-0.187,0.498-0.28,1.501-0.28,3.019V15.039L8.792,15.039z"/>
	<path fill-rule="evenodd" clip-rule="evenodd" d="M52.25,0v10.69h-0.84c-0.28-2.054-0.77-3.688-1.47-4.901
		c-0.708-1.222-1.72-2.187-3.027-2.895C45.606,2.178,44.26,1.82,42.859,1.82c-1.58,0-2.887,0.482-3.921,1.447
		C37.903,4.232,37.39,5.33,37.39,6.559c0,0.941,0.327,1.805,0.98,2.575c0.942,1.144,3.182,2.661,6.722,4.559
		c2.886,1.548,4.863,2.738,5.913,3.572c1.058,0.824,1.875,1.805,2.443,2.924c0.568,1.129,0.856,2.305,0.856,3.533
		c0,2.342-0.91,4.357-2.723,6.053c-1.821,1.697-4.155,2.545-7.01,2.545c-0.902,0-1.743-0.07-2.536-0.211
		c-0.467-0.07-1.447-0.35-2.925-0.824c-1.479-0.482-2.42-0.725-2.817-0.725c-0.381,0-0.677,0.117-0.902,0.344
		c-0.218,0.225-0.381,0.699-0.49,1.416h-0.84V21.722h0.84c0.397,2.217,0.934,3.875,1.603,4.98c0.669,1.096,1.688,2.014,3.065,2.746
		c1.369,0.723,2.878,1.088,4.52,1.088c1.898,0,3.4-0.496,4.505-1.5c1.097-1.004,1.649-2.188,1.649-3.557
		c0-0.762-0.21-1.525-0.622-2.303c-0.42-0.777-1.074-1.494-1.953-2.162c-0.591-0.459-2.209-1.424-4.855-2.91
		c-2.645-1.479-4.52-2.661-5.641-3.541c-1.121-0.887-1.96-1.859-2.544-2.917c-0.576-1.066-0.864-2.241-0.864-3.517
		c0-2.217,0.848-4.124,2.552-5.727C38.02,0.801,40.183,0,42.812,0c1.642,0,3.384,0.396,5.221,1.206
		c0.848,0.381,1.455,0.568,1.797,0.568c0.397,0,0.724-0.117,0.973-0.35C51.052,1.183,51.254,0.708,51.41,0H52.25L52.25,0z"/>
	<path fill-rule="evenodd" clip-rule="evenodd" d="M76.305,15.841c2.147,0.451,3.75,1.182,4.816,2.186
		c1.47,1.4,2.21,3.104,2.21,5.127c0,1.533-0.49,3.004-1.462,4.412c-0.973,1.408-2.303,2.428-4,3.072
		c-1.696,0.646-4.279,0.973-7.757,0.973H55.523v-0.84h1.159c1.292,0,2.217-0.412,2.778-1.236c0.35-0.529,0.529-1.658,0.529-3.393
		V6.17c0-1.914-0.218-3.12-0.662-3.618c-0.591-0.669-1.478-1.003-2.645-1.003h-1.159V0.7h13.351c2.497,0,4.497,0.186,5.999,0.552
		c2.28,0.545,4.022,1.509,5.221,2.902c1.198,1.393,1.797,2.988,1.797,4.801c0,1.548-0.467,2.933-1.408,4.163
		C79.541,14.339,78.148,15.242,76.305,15.841L76.305,15.841z M64.362,14.603c0.568,0.109,1.206,0.187,1.93,0.241
		c0.723,0.055,1.517,0.078,2.38,0.078c2.218,0,3.89-0.233,5.003-0.716c1.12-0.475,1.976-1.213,2.567-2.202
		c0.591-0.981,0.887-2.062,0.887-3.237c0-1.805-0.739-3.345-2.21-4.621c-1.478-1.276-3.625-1.914-6.45-1.914
		c-1.525,0-2.886,0.164-4.108,0.498V14.603L64.362,14.603z M64.362,29.378c1.766,0.412,3.509,0.615,5.221,0.615
		c2.754,0,4.847-0.623,6.294-1.859c1.439-1.238,2.163-2.772,2.163-4.592c0-1.197-0.327-2.358-0.98-3.461
		c-0.653-1.113-1.719-1.984-3.19-2.623c-1.47-0.638-3.299-0.957-5.469-0.957c-0.941,0-1.751,0.016-2.42,0.039
		c-0.669,0.031-1.206,0.085-1.618,0.163V29.378L64.362,29.378z"/>
	<path fill-rule="evenodd" clip-rule="evenodd" d="M111.92,0l0.708,10.503h-0.708c-0.941-3.144-2.287-5.407-4.03-6.793
		c-1.75-1.385-3.844-2.077-6.294-2.077c-2.054,0-3.906,0.521-5.563,1.564c-1.657,1.043-2.956,2.7-3.905,4.979
		c-0.949,2.28-1.424,5.12-1.424,8.504c0,2.794,0.443,5.221,1.346,7.274c0.895,2.047,2.241,3.619,4.045,4.715
		c1.798,1.098,3.852,1.643,6.162,1.643c2.008,0,3.773-0.428,5.313-1.291c1.533-0.856,3.222-2.561,5.058-5.111l0.708,0.451
		c-1.548,2.754-3.361,4.768-5.423,6.045c-2.069,1.275-4.521,1.914-7.368,1.914c-5.119,0-9.087-1.898-11.896-5.703
		c-2.093-2.824-3.143-6.154-3.143-9.982c0-3.081,0.692-5.921,2.07-8.504c1.385-2.583,3.291-4.583,5.711-6.006
		C95.714,0.708,98.36,0,101.23,0c2.233,0,4.443,0.544,6.613,1.634c0.639,0.334,1.098,0.506,1.37,0.506
		c0.404,0,0.762-0.148,1.065-0.436c0.396-0.404,0.677-0.98,0.848-1.704H111.92L111.92,0z"/>
</g>
</svg>
