<?xml version="1.0" encoding="utf-8"?>
<!-- Generator: Adobe Illustrator 18.1.0, SVG Export Plug-In . SVG Version: 6.00 Build 0)  -->
<!DOCTYPE svg PUBLIC "-//W3C//DTD SVG 1.1//EN" "http://www.w3.org/Graphics/SVG/1.1/DTD/svg11.dtd">
<svg version="1.1" id="Layer_1" xmlns="http://www.w3.org/2000/svg" xmlns:xlink="http://www.w3.org/1999/xlink" x="0px" y="0px"
	 viewBox="0 0 86.6 100" enable-background="new 0 0 86.6 100" xml:space="preserve">
<polygon fill="#D8D8D7" points="43.3,100 0,75 0,25 43.3,0 86.6,25 86.6,75 "/>
<line opacity="0.7" fill="none" stroke="#FFFFFF" stroke-width="1.1753" stroke-miterlimit="10" x1="4.8" y1="34.7" x2="64" y2="82.7"/>
<line opacity="0.7" fill="none" stroke="#FFFFFF" stroke-width="1.1753" stroke-miterlimit="10" x1="5.9" y1="28" x2="69.4" y2="79.6"/>
<line opacity="0.7" fill="none" stroke="#FFFFFF" stroke-width="1.1753" stroke-miterlimit="10" x1="12.3" y1="24.4" x2="75.8" y2="76"/>
<line opacity="0.7" fill="none" stroke="#FFFFFF" stroke-width="1.1753" stroke-miterlimit="10" x1="18.4" y1="20.9" x2="81.9" y2="72.5"/>
<line opacity="0.7" fill="none" stroke="#FFFFFF" stroke-width="1.1753" stroke-miterlimit="10" x1="24.8" y1="17.2" x2="81.8" y2="63.6"/>
<line opacity="0.7" fill="none" stroke="#FFFFFF" stroke-width="1.1753" stroke-miterlimit="10" x1="31.1" y1="13.7" x2="81.8" y2="54.9"/>
<line opacity="0.7" fill="none" stroke="#FFFFFF" stroke-width="1.1753" stroke-miterlimit="10" x1="36.5" y1="10.6" x2="81.8" y2="47.4"/>
<line opacity="0.7" fill="none" stroke="#FFFFFF" stroke-width="1.1753" stroke-miterlimit="10" x1="43.3" y1="6.7" x2="81.8" y2="38.5"/>
<line opacity="0.7" fill="none" stroke="#FFFFFF" stroke-width="1.1753" stroke-miterlimit="10" x1="74.4" y1="24.4" x2="81.9" y2="30.1"/>
<line opacity="0.7" fill="none" stroke="#FFFFFF" stroke-width="1.1753" stroke-miterlimit="10" x1="4.9" y1="69.3" x2="19" y2="80.6"/>
<line opacity="0.7" fill="none" stroke="#FFFFFF" stroke-width="1.1753" stroke-miterlimit="10" x1="4.9" y1="60.5" x2="45.4" y2="93.4"/>
<line opacity="0.7" fill="none" stroke="#FFFFFF" stroke-width="1.1753" stroke-miterlimit="10" x1="4.8" y1="52" x2="51.5" y2="89.9"/>
<line opacity="0.7" fill="none" stroke="#FFFFFF" stroke-width="1.1753" stroke-miterlimit="10" x1="4.8" y1="43.2" x2="57.9" y2="86.2"/>
</svg>
