<?xml version="1.0" encoding="utf-8"?>
<!-- Generator: Adobe Illustrator 18.1.0, SVG Export Plug-In . SVG Version: 6.00 Build 0)  -->
<!DOCTYPE svg PUBLIC "-//W3C//DTD SVG 1.1//EN" "http://www.w3.org/Graphics/SVG/1.1/DTD/svg11.dtd">
<svg version="1.1" id="Layer_1" xmlns="http://www.w3.org/2000/svg" xmlns:xlink="http://www.w3.org/1999/xlink" x="0px" y="0px"
	 viewBox="0 0 86.6 100" enable-background="new 0 0 86.6 100" xml:space="preserve">
<polygon fill="#838383" points="43.3,100 0,75 0,25 43.3,0 86.6,25 86.6,75 "/>
<g>
	<g>
		<path fill="#FFFFFF" d="M28.8,68.4h2.3v3.2c-0.3,0.1-0.7,0.2-1.1,0.3c-0.4,0.1-0.8,0.1-1.3,0.1c-1,0-1.8-0.3-2.3-0.9
			c-0.6-0.6-0.8-1.4-0.8-2.5c0-0.7,0.1-1.3,0.4-1.8c0.3-0.5,0.7-0.9,1.2-1.2c0.5-0.3,1.1-0.4,1.8-0.4c0.7,0,1.4,0.1,2,0.4l-0.3,0.7
			c-0.6-0.3-1.2-0.4-1.7-0.4c-0.8,0-1.4,0.2-1.9,0.7c-0.5,0.5-0.7,1.1-0.7,2c0,0.9,0.2,1.6,0.7,2c0.4,0.5,1.1,0.7,1.9,0.7
			c0.5,0,0.9-0.1,1.3-0.2v-2h-1.5V68.4z"/>
		<path fill="#FFFFFF" d="M34.8,66.8c0.2,0,0.4,0,0.6,0.1l-0.1,0.7c-0.2,0-0.4-0.1-0.5-0.1c-0.4,0-0.7,0.2-1,0.5
			c-0.3,0.3-0.4,0.7-0.4,1.2v2.7h-0.8v-5h0.6l0.1,0.9h0c0.2-0.3,0.4-0.6,0.7-0.7C34.2,66.9,34.5,66.8,34.8,66.8z"/>
		<path fill="#FFFFFF" d="M39.4,71.8l-0.2-0.7h0c-0.2,0.3-0.5,0.5-0.7,0.6c-0.2,0.1-0.6,0.2-0.9,0.2c-0.5,0-0.9-0.1-1.2-0.4
			c-0.3-0.3-0.4-0.6-0.4-1.1c0-1,0.8-1.5,2.4-1.6l0.8,0v-0.3c0-0.4-0.1-0.7-0.3-0.9c-0.2-0.2-0.4-0.3-0.8-0.3
			c-0.4,0-0.9,0.1-1.4,0.4l-0.2-0.6c0.2-0.1,0.5-0.2,0.8-0.3c0.3-0.1,0.6-0.1,0.9-0.1c0.6,0,1,0.1,1.3,0.4c0.3,0.3,0.4,0.7,0.4,1.3
			v3.4H39.4z M37.7,71.3c0.5,0,0.8-0.1,1.1-0.4c0.3-0.3,0.4-0.6,0.4-1.1v-0.4l-0.8,0c-0.6,0-1,0.1-1.3,0.3c-0.3,0.2-0.4,0.4-0.4,0.8
			c0,0.3,0.1,0.5,0.2,0.6C37.2,71.2,37.4,71.3,37.7,71.3z"/>
		<path fill="#FFFFFF" d="M43.8,71.9c-0.3,0-0.6-0.1-0.9-0.2c-0.3-0.1-0.5-0.3-0.7-0.5h-0.1c0,0.3,0.1,0.6,0.1,0.8v2h-0.8v-7.2h0.6
			l0.1,0.7h0c0.2-0.3,0.4-0.5,0.7-0.6c0.3-0.1,0.6-0.2,0.9-0.2c0.7,0,1.2,0.2,1.5,0.7c0.4,0.5,0.5,1.1,0.5,1.9
			c0,0.8-0.2,1.4-0.5,1.9S44.5,71.9,43.8,71.9z M43.7,67.4c-0.5,0-0.9,0.1-1.1,0.4c-0.2,0.3-0.3,0.7-0.3,1.3v0.2
			c0,0.7,0.1,1.2,0.3,1.5c0.2,0.3,0.6,0.5,1.1,0.5c0.4,0,0.8-0.2,1-0.5c0.2-0.3,0.4-0.8,0.4-1.4c0-0.6-0.1-1.1-0.4-1.4
			C44.5,67.6,44.2,67.4,43.7,67.4z"/>
		<path fill="#FFFFFF" d="M50.6,71.8v-3.2c0-0.4-0.1-0.7-0.3-0.9c-0.2-0.2-0.5-0.3-0.9-0.3c-0.5,0-0.9,0.1-1.1,0.4
			c-0.2,0.3-0.4,0.7-0.4,1.4v2.6h-0.8v-7H48v2.1c0,0.3,0,0.5,0,0.6h0c0.1-0.2,0.4-0.4,0.6-0.6c0.3-0.1,0.6-0.2,0.9-0.2
			c0.6,0,1.1,0.1,1.4,0.4c0.3,0.3,0.5,0.7,0.5,1.4v3.2H50.6z"/>
		<path fill="#FFFFFF" d="M52.8,65.5c0-0.2,0-0.3,0.1-0.4c0.1-0.1,0.2-0.1,0.3-0.1c0.1,0,0.2,0,0.3,0.1c0.1,0.1,0.1,0.2,0.1,0.4
			s0,0.3-0.1,0.4S53.4,66,53.3,66c-0.1,0-0.2,0-0.3-0.1C52.9,65.8,52.8,65.7,52.8,65.5z M53.6,71.8h-0.8v-5h0.8V71.8z"/>
		<path fill="#FFFFFF" d="M57.2,71.9c-0.7,0-1.3-0.2-1.7-0.7c-0.4-0.4-0.6-1.1-0.6-1.9c0-0.8,0.2-1.5,0.6-1.9c0.4-0.5,1-0.7,1.7-0.7
			c0.2,0,0.5,0,0.7,0.1c0.2,0.1,0.4,0.1,0.6,0.2l-0.2,0.6c-0.2-0.1-0.3-0.1-0.5-0.2c-0.2,0-0.4-0.1-0.5-0.1c-1,0-1.5,0.6-1.5,1.9
			c0,0.6,0.1,1.1,0.4,1.4c0.2,0.3,0.6,0.5,1.1,0.5c0.4,0,0.8-0.1,1.3-0.3v0.7C58.1,71.8,57.7,71.9,57.2,71.9z"/>
		<path fill="#FFFFFF" d="M34.3,77.1c0,0.8-0.2,1.5-0.5,2.1c-0.3,0.6-0.8,1.1-1.4,1.4c-0.6,0.3-1.3,0.5-2.1,0.5h-1.6l1.4-6.6h1.5
			c0.8,0,1.5,0.2,1.9,0.7C34.1,75.6,34.3,76.3,34.3,77.1z M30.4,80.5c0.6,0,1.1-0.1,1.6-0.4s0.8-0.7,1.1-1.2
			c0.2-0.5,0.4-1.1,0.4-1.7c0-0.6-0.2-1.1-0.5-1.5c-0.3-0.3-0.8-0.5-1.4-0.5h-0.8l-1.1,5.3H30.4z"/>
		<path fill="#FFFFFF" d="M36.8,81.2c-0.6,0-1-0.2-1.3-0.5c-0.3-0.3-0.5-0.8-0.5-1.4c0-0.6,0.1-1.1,0.3-1.6c0.2-0.5,0.5-0.9,0.9-1.2
			c0.4-0.3,0.8-0.4,1.2-0.4c0.5,0,0.8,0.1,1,0.3c0.2,0.2,0.3,0.5,0.3,0.8c0,0.5-0.3,1-0.8,1.3C37.6,78.8,36.9,79,36,79h-0.2l0,0.4
			c0,0.4,0.1,0.7,0.3,0.9c0.2,0.2,0.5,0.3,0.9,0.3c0.2,0,0.4,0,0.6-0.1c0.2-0.1,0.5-0.2,0.8-0.3v0.7c-0.3,0.1-0.5,0.2-0.8,0.3
			C37.3,81.2,37.1,81.2,36.8,81.2z M37.4,76.7c-0.3,0-0.6,0.1-0.9,0.4c-0.3,0.3-0.5,0.7-0.6,1.2H36c0.7,0,1.2-0.1,1.6-0.3
			c0.4-0.2,0.5-0.4,0.5-0.8c0-0.2-0.1-0.3-0.2-0.4C37.8,76.8,37.7,76.7,37.4,76.7z"/>
		<path fill="#FFFFFF" d="M42.5,79.7c0,0.5-0.2,0.8-0.5,1.1c-0.3,0.3-0.8,0.4-1.4,0.4c-0.5,0-1-0.1-1.4-0.3v-0.7
			c0.2,0.1,0.4,0.2,0.7,0.3c0.2,0.1,0.5,0.1,0.7,0.1c0.4,0,0.7-0.1,0.9-0.2c0.2-0.2,0.3-0.3,0.3-0.6c0-0.2-0.1-0.3-0.2-0.4
			c-0.1-0.1-0.3-0.3-0.7-0.5c-0.4-0.2-0.7-0.4-0.8-0.6c-0.2-0.2-0.2-0.5-0.2-0.8c0-0.4,0.2-0.8,0.5-1c0.3-0.3,0.7-0.4,1.2-0.4
			c0.5,0,1,0.1,1.5,0.3L42.7,77l-0.3-0.1c-0.3-0.1-0.6-0.2-1-0.2c-0.3,0-0.5,0.1-0.7,0.2c-0.2,0.1-0.2,0.3-0.2,0.5
			c0,0.2,0.1,0.3,0.2,0.4c0.1,0.1,0.3,0.3,0.7,0.5c0.3,0.2,0.6,0.3,0.7,0.5c0.1,0.1,0.2,0.3,0.3,0.4C42.4,79.4,42.5,79.5,42.5,79.7z
			"/>
		<path fill="#FFFFFF" d="M44.1,81.1h-0.8l1.1-5h0.8L44.1,81.1z M44.7,74.9c0-0.2,0-0.3,0.1-0.4c0.1-0.1,0.2-0.2,0.4-0.2
			c0.3,0,0.4,0.1,0.4,0.4c0,0.2-0.1,0.3-0.2,0.4c-0.1,0.1-0.2,0.2-0.4,0.2c-0.1,0-0.2,0-0.3-0.1C44.7,75.1,44.7,75,44.7,74.9z"/>
		<path fill="#FFFFFF" d="M50.5,76.2l-0.1,0.5l-1,0.1c0.1,0.2,0.2,0.4,0.2,0.7c0,0.6-0.2,1-0.5,1.4c-0.4,0.3-0.8,0.5-1.4,0.5
			c-0.2,0-0.3,0-0.4,0c-0.4,0.2-0.6,0.4-0.6,0.6c0,0.1,0.1,0.2,0.1,0.2c0.1,0,0.2,0.1,0.4,0.1l0.5,0.1c0.5,0.1,0.9,0.2,1.2,0.4
			c0.2,0.2,0.4,0.5,0.4,0.9c0,0.6-0.2,1-0.7,1.3c-0.4,0.3-1.1,0.5-1.9,0.5c-0.6,0-1-0.1-1.4-0.3c-0.3-0.2-0.5-0.5-0.5-0.9
			c0-0.3,0.1-0.6,0.3-0.8c0.2-0.2,0.6-0.4,1.1-0.6c-0.2-0.1-0.4-0.3-0.4-0.5c0-0.2,0.1-0.4,0.2-0.5c0.2-0.1,0.4-0.3,0.6-0.4
			c-0.2-0.1-0.3-0.2-0.5-0.4c-0.1-0.2-0.2-0.4-0.2-0.7c0-0.6,0.2-1.1,0.5-1.4c0.4-0.4,0.8-0.6,1.4-0.6c0.2,0,0.5,0,0.7,0.1H50.5z
			 M45.6,82c0,0.2,0.1,0.4,0.3,0.6c0.2,0.1,0.5,0.2,0.9,0.2c0.5,0,1-0.1,1.3-0.3c0.3-0.2,0.5-0.5,0.5-0.8c0-0.2-0.1-0.3-0.2-0.4
			c-0.2-0.1-0.4-0.2-0.8-0.2l-0.7-0.1c-0.4,0.1-0.6,0.2-0.8,0.4C45.7,81.5,45.6,81.7,45.6,82z M46.9,78c0,0.3,0.1,0.5,0.2,0.6
			c0.1,0.1,0.3,0.2,0.6,0.2c0.2,0,0.4-0.1,0.6-0.2c0.2-0.1,0.3-0.3,0.4-0.5c0.1-0.2,0.1-0.5,0.1-0.7c0-0.2-0.1-0.4-0.2-0.6
			c-0.1-0.1-0.3-0.2-0.6-0.2c-0.2,0-0.4,0.1-0.6,0.2c-0.2,0.1-0.3,0.3-0.4,0.5C46.9,77.5,46.9,77.8,46.9,78z"/>
		<path fill="#FFFFFF" d="M53.4,81.1l0.7-3.1c0.1-0.3,0.1-0.5,0.1-0.7c0-0.2-0.1-0.3-0.2-0.5c-0.1-0.1-0.3-0.2-0.5-0.2
			c-0.3,0-0.5,0.1-0.8,0.3c-0.3,0.2-0.5,0.4-0.7,0.8c-0.2,0.3-0.3,0.7-0.4,1.2l-0.5,2.2h-0.8l1.1-5h0.6L52,77.1h0
			c0.3-0.4,0.6-0.6,0.8-0.8c0.3-0.2,0.5-0.2,0.8-0.2c0.4,0,0.7,0.1,0.9,0.3c0.2,0.2,0.3,0.5,0.3,0.9c0,0.2,0,0.5-0.1,0.8l-0.6,3
			H53.4z"/>
	</g>
	<line fill="none" stroke="#FFFFFF" stroke-miterlimit="10" x1="16.3" y1="58.5" x2="70.3" y2="58.5"/>
	<g id="Zq7xF4.tif">
		<g>
			<path fill="#FFFFFF" d="M58.9,42c1.5,0.2,3,0.3,4.4,0.7c0.3,0.1,0.7,0.3,1,0.5c0.5,0.3,0.6,0.8,0.5,1.3c0,0.3-0.2,0.4-0.5,0.4
				c-3.1,0-6.2,0-9.3,0c-0.1,0-0.3,0-0.5,0c0.3,0.9,0.5,1.7,0.8,2.5c0.4,1.4,0.8,2.9,1.3,4.3c0,0.1,0,0.2,0,0.2
				c0.1,0.8-0.3,1.2-1.1,1.2c-0.3,0-0.5-0.2-0.6-0.5c-0.3-0.7-0.7-1.5-0.9-2.2c-0.6-1.7-1.1-3.4-1.6-5.1c-0.1-0.3-0.2-0.4-0.6-0.4
				c-10,0-19.9,0-29.9,0c-0.5,0-0.6-0.1-0.6-0.6c0-0.5,0.2-0.9,0.7-1.1c0.7-0.4,1.5-0.6,2.3-0.8c0.9-0.2,1.8-0.3,2.7-0.4
				c-0.9-0.4-1.2-1.1-1.1-2.1c0-6,0-11.9,0-17.9c0-1.2,0.8-2.1,2.1-2.1c10.1,0,20.1,0,30.2,0c1.3,0,2,0.7,2,2c0,6,0,12,0,18
				C60.1,40.9,59.8,41.6,58.9,42C58.9,42,58.9,42,58.9,42z M58.4,21.5c-10.3,0-20.6,0-30.8,0c0,6.4,0,12.7,0,19.1
				c7.8,0,15.5,0,23.3,0c-0.3-1.1-0.7-2.2-1-3.4c-0.2,0-0.3,0.1-0.4,0.1c-0.2-1.2-0.4-2.4-0.7-3.7c-1.2-0.1-2-0.9-2.3-2
				c-0.6-2,0-4,1.5-5.3c0.7-0.6,1.5-0.8,2.4-1.1c-0.2,0.5-0.5,1-0.7,1.5c-0.3,0.9-0.1,1.5,0.6,2c0.2,0.2,0.5,0.4,0.7,0.6
				c1,1,1,2.6,0.1,3.7C51,33,51,33.2,51,33.3c0.3,0.7,0.6,1.3,0.9,2c0.2,0.4,0.3,0.8,0.5,1.2c-0.1,0.1-0.2,0.1-0.4,0.2
				c0.4,1.3,0.8,2.7,1.2,4c1.7,0,3.4,0,5.1,0C58.4,34.2,58.4,27.9,58.4,21.5z"/>
		</g>
	</g>
</g>
</svg>
