<?xml version="1.0" encoding="utf-8"?>
<!-- Generator: Adobe Illustrator 18.1.0, SVG Export Plug-In . SVG Version: 6.00 Build 0)  -->
<!DOCTYPE svg PUBLIC "-//W3C//DTD SVG 1.1//EN" "http://www.w3.org/Graphics/SVG/1.1/DTD/svg11.dtd">
<svg version="1.1" id="Layer_1" xmlns="http://www.w3.org/2000/svg" xmlns:xlink="http://www.w3.org/1999/xlink" x="0px" y="0px"
	 viewBox="0 0 86.6 100" enable-background="new 0 0 86.6 100" xml:space="preserve">
<polygon fill="#838383" points="43.3,100 0,75 0,25 43.3,0 86.6,25 86.6,75 "/>
<g>
	<g>
		<path fill="#FFFFFF" d="M22,72.8v2.8h-0.8v-6.7h1.8c0.8,0,1.4,0.2,1.8,0.5c0.4,0.3,0.6,0.8,0.6,1.4c0,0.9-0.4,1.5-1.3,1.8l1.8,3
			H25l-1.6-2.8H22z M22,72.1h1.1c0.6,0,1-0.1,1.2-0.3c0.3-0.2,0.4-0.5,0.4-1c0-0.4-0.1-0.8-0.4-1c-0.3-0.2-0.7-0.3-1.3-0.3h-1V72.1z
			"/>
		<path fill="#FFFFFF" d="M29.1,75.6c-0.7,0-1.3-0.2-1.8-0.7c-0.4-0.5-0.6-1.1-0.6-1.9c0-0.8,0.2-1.5,0.6-1.9
			c0.4-0.5,0.9-0.7,1.6-0.7c0.6,0,1.1,0.2,1.5,0.6c0.4,0.4,0.6,1,0.6,1.6v0.5h-3.5c0,0.6,0.2,1,0.4,1.3c0.3,0.3,0.7,0.5,1.2,0.5
			c0.5,0,1.1-0.1,1.6-0.3v0.7c-0.3,0.1-0.5,0.2-0.8,0.3C29.7,75.6,29.4,75.6,29.1,75.6z M28.9,71.1c-0.4,0-0.7,0.1-1,0.4
			c-0.2,0.3-0.4,0.6-0.4,1.1h2.6c0-0.5-0.1-0.8-0.3-1.1C29.6,71.2,29.3,71.1,28.9,71.1z"/>
		<path fill="#FFFFFF" d="M35.5,74.2c0,0.5-0.2,0.8-0.5,1.1c-0.3,0.3-0.8,0.4-1.5,0.4c-0.7,0-1.2-0.1-1.6-0.3v-0.7
			c0.2,0.1,0.5,0.2,0.8,0.3C33,75,33.2,75,33.5,75c0.4,0,0.7-0.1,0.9-0.2c0.2-0.1,0.3-0.3,0.3-0.6c0-0.2-0.1-0.4-0.3-0.5
			c-0.2-0.1-0.5-0.3-1-0.5c-0.5-0.2-0.8-0.3-1-0.5c-0.2-0.1-0.3-0.3-0.4-0.4c-0.1-0.2-0.1-0.4-0.1-0.6c0-0.4,0.2-0.7,0.5-1
			c0.3-0.2,0.8-0.4,1.4-0.4c0.5,0,1.1,0.1,1.6,0.3l-0.3,0.6c-0.5-0.2-1-0.3-1.4-0.3c-0.4,0-0.6,0.1-0.8,0.2
			c-0.2,0.1-0.3,0.3-0.3,0.5c0,0.1,0,0.2,0.1,0.3c0.1,0.1,0.2,0.2,0.3,0.3c0.2,0.1,0.4,0.2,0.9,0.4c0.6,0.2,1,0.4,1.2,0.7
			C35.3,73.6,35.5,73.8,35.5,74.2z"/>
		<path fill="#FFFFFF" d="M39,75.6c-0.3,0-0.6-0.1-0.9-0.2c-0.3-0.1-0.5-0.3-0.7-0.6h-0.1c0,0.3,0.1,0.6,0.1,0.8v2.1h-0.8v-7.3h0.6
			l0.1,0.7h0c0.2-0.3,0.4-0.5,0.7-0.6c0.3-0.1,0.6-0.2,0.9-0.2c0.7,0,1.2,0.2,1.5,0.7c0.4,0.5,0.5,1.1,0.5,1.9
			c0,0.8-0.2,1.5-0.6,1.9S39.7,75.6,39,75.6z M38.9,71.1c-0.5,0-0.9,0.1-1.1,0.4c-0.2,0.3-0.3,0.7-0.4,1.4V73c0,0.7,0.1,1.2,0.4,1.5
			c0.2,0.3,0.6,0.5,1.1,0.5c0.4,0,0.8-0.2,1-0.5c0.2-0.4,0.4-0.8,0.4-1.5c0-0.6-0.1-1.1-0.4-1.4C39.7,71.2,39.4,71.1,38.9,71.1z"/>
		<path fill="#FFFFFF" d="M46.8,73c0,0.8-0.2,1.5-0.6,1.9c-0.4,0.5-1,0.7-1.7,0.7c-0.5,0-0.8-0.1-1.2-0.3c-0.3-0.2-0.6-0.5-0.8-0.9
			c-0.2-0.4-0.3-0.9-0.3-1.4c0-0.8,0.2-1.5,0.6-1.9c0.4-0.5,1-0.7,1.7-0.7c0.7,0,1.3,0.2,1.7,0.7C46.6,71.6,46.8,72.2,46.8,73z
			 M43,73c0,0.6,0.1,1.1,0.4,1.5c0.3,0.3,0.6,0.5,1.1,0.5c0.5,0,0.9-0.2,1.1-0.5c0.3-0.3,0.4-0.8,0.4-1.5c0-0.6-0.1-1.1-0.4-1.5
			c-0.3-0.3-0.6-0.5-1.1-0.5c-0.5,0-0.9,0.2-1.1,0.5C43.1,71.9,43,72.4,43,73z"/>
		<path fill="#FFFFFF" d="M51.6,75.5v-3.3c0-0.4-0.1-0.7-0.3-0.9c-0.2-0.2-0.5-0.3-0.9-0.3c-0.5,0-0.9,0.1-1.2,0.4
			c-0.2,0.3-0.4,0.8-0.4,1.4v2.6h-0.8v-5h0.6l0.1,0.7h0c0.2-0.2,0.4-0.4,0.7-0.6c0.3-0.1,0.6-0.2,0.9-0.2c0.6,0,1.1,0.1,1.4,0.4
			s0.5,0.8,0.5,1.4v3.3H51.6z"/>
		<path fill="#FFFFFF" d="M57.1,74.2c0,0.5-0.2,0.8-0.5,1.1c-0.3,0.3-0.8,0.4-1.5,0.4c-0.7,0-1.2-0.1-1.6-0.3v-0.7
			c0.2,0.1,0.5,0.2,0.8,0.3c0.3,0.1,0.5,0.1,0.8,0.1c0.4,0,0.7-0.1,0.9-0.2c0.2-0.1,0.3-0.3,0.3-0.6c0-0.2-0.1-0.4-0.3-0.5
			c-0.2-0.1-0.5-0.3-1-0.5c-0.5-0.2-0.8-0.3-1-0.5c-0.2-0.1-0.3-0.3-0.4-0.4c-0.1-0.2-0.1-0.4-0.1-0.6c0-0.4,0.2-0.7,0.5-1
			c0.3-0.2,0.8-0.4,1.4-0.4c0.5,0,1.1,0.1,1.6,0.3l-0.3,0.6c-0.5-0.2-1-0.3-1.4-0.3c-0.4,0-0.6,0.1-0.8,0.2
			c-0.2,0.1-0.3,0.3-0.3,0.5c0,0.1,0,0.2,0.1,0.3c0.1,0.1,0.2,0.2,0.3,0.3c0.2,0.1,0.4,0.2,0.9,0.4c0.6,0.2,1,0.4,1.2,0.7
			C57,73.6,57.1,73.8,57.1,74.2z"/>
		<path fill="#FFFFFF" d="M58.3,69.1c0-0.2,0-0.3,0.1-0.4c0.1-0.1,0.2-0.1,0.3-0.1c0.1,0,0.2,0,0.3,0.1c0.1,0.1,0.1,0.2,0.1,0.4
			c0,0.2,0,0.3-0.1,0.4s-0.2,0.1-0.3,0.1c-0.1,0-0.2,0-0.3-0.1C58.4,69.4,58.3,69.3,58.3,69.1z M59.1,75.5h-0.8v-5h0.8V75.5z"/>
		<path fill="#FFFFFF" d="M61.9,75.5l-1.9-5h0.8l1.1,3c0.2,0.7,0.4,1.2,0.4,1.4h0c0-0.2,0.1-0.5,0.3-1c0.2-0.5,0.6-1.6,1.2-3.3h0.8
			l-1.9,5H61.9z"/>
		<path fill="#FFFFFF" d="M67.6,75.6c-0.7,0-1.3-0.2-1.8-0.7c-0.4-0.5-0.6-1.1-0.6-1.9c0-0.8,0.2-1.5,0.6-1.9
			c0.4-0.5,0.9-0.7,1.6-0.7c0.6,0,1.1,0.2,1.5,0.6c0.4,0.4,0.6,1,0.6,1.6v0.5H66c0,0.6,0.2,1,0.4,1.3c0.3,0.3,0.7,0.5,1.2,0.5
			c0.5,0,1.1-0.1,1.6-0.3v0.7c-0.3,0.1-0.5,0.2-0.8,0.3C68.2,75.6,67.9,75.6,67.6,75.6z M67.4,71.1c-0.4,0-0.7,0.1-1,0.4
			c-0.2,0.3-0.4,0.6-0.4,1.1h2.6c0-0.5-0.1-0.8-0.3-1.1C68.1,71.2,67.8,71.1,67.4,71.1z"/>
		<path fill="#FFFFFF" d="M37.4,80.9c0,0.8-0.2,1.5-0.5,2.1c-0.3,0.6-0.8,1.1-1.4,1.4c-0.6,0.3-1.3,0.5-2.1,0.5h-1.6l1.4-6.7h1.6
			c0.8,0,1.5,0.2,1.9,0.7C37.2,79.4,37.4,80,37.4,80.9z M33.5,84.3c0.6,0,1.2-0.1,1.6-0.4c0.5-0.3,0.8-0.7,1.1-1.2
			c0.2-0.5,0.4-1.1,0.4-1.8c0-0.7-0.2-1.2-0.5-1.5c-0.3-0.3-0.8-0.5-1.4-0.5h-0.8l-1.1,5.4H33.5z"/>
		<path fill="#FFFFFF" d="M39.9,85c-0.6,0-1-0.2-1.3-0.5c-0.3-0.3-0.5-0.8-0.5-1.4c0-0.6,0.1-1.1,0.3-1.7c0.2-0.5,0.5-0.9,0.9-1.2
			c0.4-0.3,0.8-0.4,1.2-0.4c0.5,0,0.8,0.1,1.1,0.3c0.2,0.2,0.4,0.5,0.4,0.9c0,0.6-0.3,1-0.8,1.3c-0.5,0.3-1.2,0.5-2.2,0.5h-0.2
			l0,0.4c0,0.4,0.1,0.7,0.3,0.9c0.2,0.2,0.5,0.3,0.9,0.3c0.2,0,0.4,0,0.6-0.1c0.2-0.1,0.5-0.2,0.8-0.3v0.7c-0.3,0.1-0.5,0.2-0.8,0.3
			C40.4,85,40.2,85,39.9,85z M40.6,80.5c-0.3,0-0.6,0.1-0.9,0.4c-0.3,0.3-0.5,0.7-0.6,1.2h0.1c0.7,0,1.2-0.1,1.6-0.3
			c0.4-0.2,0.6-0.4,0.6-0.8c0-0.2-0.1-0.3-0.2-0.4C41,80.5,40.8,80.5,40.6,80.5z"/>
		<path fill="#FFFFFF" d="M45.7,83.5c0,0.5-0.2,0.8-0.5,1.1c-0.3,0.3-0.8,0.4-1.4,0.4c-0.5,0-1-0.1-1.4-0.3V84
			c0.2,0.1,0.4,0.2,0.7,0.3c0.2,0.1,0.5,0.1,0.7,0.1c0.4,0,0.7-0.1,0.9-0.2c0.2-0.2,0.3-0.3,0.3-0.6c0-0.2-0.1-0.3-0.2-0.4
			c-0.1-0.1-0.3-0.3-0.7-0.5c-0.4-0.2-0.7-0.4-0.8-0.7s-0.2-0.5-0.2-0.8c0-0.4,0.2-0.8,0.5-1c0.3-0.3,0.7-0.4,1.2-0.4
			c0.5,0,1,0.1,1.5,0.3l-0.2,0.6l-0.3-0.1c-0.3-0.1-0.6-0.2-1-0.2c-0.3,0-0.5,0.1-0.7,0.2c-0.2,0.1-0.2,0.3-0.2,0.5
			c0,0.2,0.1,0.3,0.2,0.4c0.1,0.1,0.3,0.3,0.7,0.5c0.3,0.2,0.6,0.3,0.7,0.5c0.1,0.1,0.2,0.3,0.3,0.4C45.6,83.2,45.7,83.3,45.7,83.5z
			"/>
		<path fill="#FFFFFF" d="M47.4,84.9h-0.8l1.1-5h0.8L47.4,84.9z M47.9,78.6c0-0.2,0-0.3,0.1-0.4c0.1-0.1,0.2-0.2,0.4-0.2
			c0.3,0,0.4,0.1,0.4,0.4c0,0.2-0.1,0.3-0.2,0.4s-0.2,0.2-0.4,0.2c-0.1,0-0.2,0-0.3-0.1C47.9,78.9,47.9,78.8,47.9,78.6z"/>
		<path fill="#FFFFFF" d="M53.8,79.9l-0.1,0.5l-1,0.1c0.1,0.2,0.2,0.4,0.2,0.7c0,0.6-0.2,1.1-0.5,1.4c-0.4,0.3-0.8,0.5-1.4,0.5
			c-0.2,0-0.3,0-0.4,0c-0.4,0.2-0.6,0.4-0.6,0.6c0,0.1,0.1,0.2,0.2,0.3c0.1,0,0.2,0.1,0.4,0.1l0.5,0.1c0.6,0.1,1,0.2,1.2,0.4
			c0.2,0.2,0.4,0.5,0.4,0.9c0,0.6-0.2,1-0.7,1.3c-0.4,0.3-1.1,0.5-1.9,0.5c-0.6,0-1.1-0.1-1.4-0.3c-0.3-0.2-0.5-0.5-0.5-1
			c0-0.3,0.1-0.6,0.3-0.8c0.2-0.2,0.6-0.4,1.1-0.6c-0.2-0.1-0.4-0.3-0.4-0.6c0-0.2,0.1-0.4,0.2-0.5c0.2-0.2,0.4-0.3,0.7-0.4
			c-0.2-0.1-0.4-0.2-0.5-0.4c-0.1-0.2-0.2-0.4-0.2-0.7c0-0.6,0.2-1.1,0.5-1.5c0.4-0.4,0.8-0.6,1.4-0.6c0.2,0,0.5,0,0.7,0.1H53.8z
			 M48.9,85.8c0,0.2,0.1,0.4,0.3,0.6c0.2,0.1,0.5,0.2,0.9,0.2c0.6,0,1-0.1,1.3-0.3c0.3-0.2,0.5-0.5,0.5-0.8c0-0.2-0.1-0.3-0.2-0.4
			c-0.2-0.1-0.4-0.2-0.8-0.2L50,84.7c-0.4,0.1-0.6,0.2-0.8,0.4C49,85.3,48.9,85.6,48.9,85.8z M50.1,81.8c0,0.3,0.1,0.5,0.2,0.6
			c0.1,0.1,0.3,0.2,0.6,0.2c0.2,0,0.5-0.1,0.6-0.2c0.2-0.1,0.3-0.3,0.4-0.5c0.1-0.2,0.1-0.5,0.1-0.7c0-0.3-0.1-0.4-0.2-0.6
			c-0.1-0.1-0.3-0.2-0.6-0.2c-0.2,0-0.4,0.1-0.6,0.2c-0.2,0.1-0.3,0.3-0.4,0.5C50.2,81.3,50.1,81.6,50.1,81.8z"/>
		<path fill="#FFFFFF" d="M56.8,84.9l0.7-3.2c0.1-0.3,0.1-0.5,0.1-0.7c0-0.2-0.1-0.3-0.2-0.5c-0.1-0.1-0.3-0.2-0.5-0.2
			c-0.3,0-0.5,0.1-0.8,0.3c-0.3,0.2-0.5,0.4-0.7,0.8c-0.2,0.3-0.3,0.8-0.4,1.2l-0.5,2.2h-0.8l1.1-5h0.6l-0.1,0.9h0
			c0.3-0.4,0.6-0.6,0.9-0.8c0.3-0.2,0.6-0.2,0.9-0.2c0.4,0,0.7,0.1,0.9,0.3c0.2,0.2,0.3,0.5,0.3,0.9c0,0.2,0,0.5-0.1,0.8l-0.7,3.1
			H56.8z"/>
	</g>
	<g>
		<path fill="#FFFFFF" stroke="#FFFFFF" stroke-width="1.1753" stroke-miterlimit="10" d="M77.8,62.1c0,0-4.9-1-6.5-2l0.1,3.8
			C71.4,63.9,74.6,62.6,77.8,62.1z"/>
		<polyline fill="#FFFFFF" stroke="#FFFFFF" stroke-width="1.1753" stroke-miterlimit="10" points="73.3,62.4 23.3,62.2 10.3,62.4 
					"/>
		<line fill="#FFFFFF" stroke="#FFFFFF" stroke-width="1.1753" stroke-miterlimit="10" x1="12.5" y1="62.7" x2="9.9" y2="60.5"/>
		<line fill="#FFFFFF" stroke="#FFFFFF" stroke-width="1.1753" stroke-miterlimit="10" x1="13.9" y1="62.7" x2="11.6" y2="60.3"/>
		<line fill="#FFFFFF" stroke="#FFFFFF" stroke-width="1.1753" stroke-miterlimit="10" x1="15.5" y1="62.7" x2="13.2" y2="60.3"/>
		<line fill="#FFFFFF" stroke="#FFFFFF" stroke-width="1.1753" stroke-miterlimit="10" x1="10.8" y1="62.4" x2="8.9" y2="61.2"/>
		<line fill="#FFFFFF" stroke="#FFFFFF" stroke-width="1.1753" stroke-miterlimit="10" x1="12.3" y1="62.4" x2="10" y2="64.7"/>
		<line fill="#FFFFFF" stroke="#FFFFFF" stroke-width="1.1753" stroke-miterlimit="10" x1="13.8" y1="62.4" x2="11.6" y2="64.7"/>
		<line fill="#FFFFFF" stroke="#FFFFFF" stroke-width="1.1753" stroke-miterlimit="10" x1="15.5" y1="62.3" x2="13.2" y2="64.6"/>
		<line fill="#FFFFFF" stroke="#FFFFFF" stroke-width="1.1753" stroke-miterlimit="10" x1="10.8" y1="62.3" x2="8.9" y2="64.4"/>
	</g>
	<g id="XPMwV2.tif">
		<g>
			<path fill="#FFFFFF" d="M70.9,51.5c-0.5,1.2-1.3,1.5-2.5,1.5c-4.1,0-8.3,0-12.4,0c-1.5,0-2.2-0.7-2.2-2.2c0-6.2,0-12.3,0-18.5
				c0-1.5,0.7-2.2,2.2-2.2c4.2,0,8.4,0,12.6,0c1.2,0,2,0.4,2.4,1.6C70.9,38.3,70.9,44.9,70.9,51.5z M54.9,49.3c4.9,0,9.8,0,14.7,0
				c0-5.9,0-11.7,0-17.5c-4.9,0-9.8,0-14.7,0C54.9,37.6,54.9,43.4,54.9,49.3z M65.8,51c0-0.5-0.4-0.9-0.9-0.9
				c-0.5,0-0.9,0.4-0.9,0.9c0,0.5,0.4,0.9,0.9,0.9C65.4,52,65.8,51.6,65.8,51z M59.6,50.2c-0.5,0-0.9,0.4-0.9,0.9
				c0,0.5,0.4,0.8,0.9,0.8c0.5,0,0.9-0.4,0.9-0.9C60.5,50.6,60.1,50.2,59.6,50.2z M63.2,51c0-0.5-0.4-0.9-0.9-0.9
				c-0.5,0-0.8,0.4-0.8,0.9c0,0.5,0.4,0.9,0.9,0.9C62.8,51.9,63.2,51.5,63.2,51z"/>
			<path fill="#FFFFFF" d="M58.8,22.9c1.2,0.5,1.4,0.8,1.4,2.1c0,1.2,0,2.3,0,3.5c-0.8,0-1.5,0-2.3,0c0-1.1,0-2.1,0-3.2
				c-11,0-22,0-33,0c0,3.6,0,7.1,0,10.8c-0.8,0-1.5,0-2.3,0c0-0.3,0-0.5,0-0.7c0-3.4,0-6.9,0-10.3c0-1,0.3-1.8,1.3-2.1
				C35.5,22.9,47.1,22.9,58.8,22.9z"/>
			<path fill="#FFFFFF" d="M20.5,54c-0.9-0.3-1.2-0.9-1.2-1.8c0-4.3,0-8.7,0-13c0-1.1,0.4-1.6,1.6-1.6c1.9,0,3.8,0,5.7,0
				c1.1,0,1.6,0.5,1.6,1.6c0,4.4,0,8.8,0,13.3c0,0.9-0.4,1.3-1.2,1.6C24.8,54,22.7,54,20.5,54z M20.2,51.2c2.4,0,4.7,0,7.1,0
				c0-3.6,0-7.2,0-10.8c-2.4,0-4.7,0-7.1,0C20.2,44.1,20.2,47.6,20.2,51.2z M23.5,53.2c0.1,0,0.2,0,0.3,0c0.2-0.2,0.5-0.5,0.4-0.7
				c0-0.2-0.4-0.6-0.5-0.6c-0.3,0-0.6,0.3-0.6,0.6C23,52.7,23.4,53,23.5,53.2z"/>
			<path fill="#FFFFFF" d="M52.2,43.3c0,1.5,0,3,0,4.5c-7.5,0-15,0-22.5,0c0-1.5,0-3,0-4.5C37.2,43.3,44.7,43.3,52.2,43.3z
				 M41.4,46.5c0.6,0,1-0.5,1-1.1c0-0.5-0.5-1-1-1c-0.6,0-1,0.5-1,1C40.4,46.1,40.9,46.5,41.4,46.5z"/>
			<path fill="#FFFFFF" d="M47.1,52.9c-3.8,0-7.6,0-11.6,0c0.2-0.3,0.3-0.5,0.5-0.6c0.9-0.6,1.3-1.4,1.3-2.5c0-0.6,0.3-0.7,0.8-0.7
				c2.2,0,4.4,0,6.6,0c0.2,0,0.3,0,0.6,0c0,1.5,0.5,2.7,1.9,3.5C47.2,52.8,47.1,52.9,47.1,52.9z"/>
		</g>
	</g>
</g>
</svg>
