<?xml version="1.0" encoding="utf-8"?>
<!-- Generator: Adobe Illustrator 18.1.0, SVG Export Plug-In . SVG Version: 6.00 Build 0)  -->
<!DOCTYPE svg PUBLIC "-//W3C//DTD SVG 1.1//EN" "http://www.w3.org/Graphics/SVG/1.1/DTD/svg11.dtd">
<svg version="1.1" id="Layer_1" xmlns="http://www.w3.org/2000/svg" xmlns:xlink="http://www.w3.org/1999/xlink" x="0px" y="0px"
	 viewBox="0 0 86.6 100" enable-background="new 0 0 86.6 100" xml:space="preserve">
<polygon fill="#9ECECE" points="43.3,100 0,75 0,25 43.3,0 86.6,25 86.6,75 "/>
<g>
	<g>
		<path fill="#5E5F5E" d="M33.1,48.2v-6.7h0.8v6.7H33.1z"/>
		<path fill="#5E5F5E" d="M39.1,48.2v-3.3c0-0.4-0.1-0.7-0.3-0.9c-0.2-0.2-0.5-0.3-0.9-0.3c-0.5,0-0.9,0.1-1.2,0.4
			c-0.2,0.3-0.4,0.8-0.4,1.4v2.6h-0.8v-5h0.6l0.1,0.7h0c0.2-0.2,0.4-0.4,0.7-0.6c0.3-0.1,0.6-0.2,0.9-0.2c0.6,0,1.1,0.1,1.4,0.4
			s0.5,0.8,0.5,1.4v3.3H39.1z"/>
		<path fill="#5E5F5E" d="M43,47.7c0.1,0,0.3,0,0.4,0c0.1,0,0.2,0,0.3-0.1v0.6c-0.1,0-0.2,0.1-0.4,0.1s-0.3,0-0.4,0
			c-1,0-1.5-0.5-1.5-1.5v-3h-0.7v-0.4l0.7-0.3l0.3-1.1h0.4v1.2h1.5v0.6h-1.5v3c0,0.3,0.1,0.5,0.2,0.7C42.6,47.6,42.8,47.7,43,47.7z"
			/>
		<path fill="#5E5F5E" d="M46.9,48.3c-0.7,0-1.3-0.2-1.8-0.7c-0.4-0.5-0.6-1.1-0.6-1.9c0-0.8,0.2-1.5,0.6-1.9
			c0.4-0.5,0.9-0.7,1.6-0.7c0.6,0,1.1,0.2,1.5,0.6c0.4,0.4,0.6,1,0.6,1.6v0.5h-3.5c0,0.6,0.2,1,0.4,1.3c0.3,0.3,0.7,0.5,1.2,0.5
			c0.5,0,1.1-0.1,1.6-0.3V48c-0.3,0.1-0.5,0.2-0.8,0.3C47.5,48.3,47.2,48.3,46.9,48.3z M46.6,43.7c-0.4,0-0.7,0.1-1,0.4
			c-0.2,0.3-0.4,0.6-0.4,1.1h2.6c0-0.5-0.1-0.9-0.3-1.1C47.4,43.8,47,43.7,46.6,43.7z"/>
		<path fill="#5E5F5E" d="M52.3,43.1c0.2,0,0.4,0,0.6,0.1l-0.1,0.7c-0.2,0-0.4-0.1-0.6-0.1c-0.4,0-0.8,0.2-1,0.5
			c-0.3,0.3-0.4,0.7-0.4,1.2v2.7H50v-5h0.6l0.1,0.9h0c0.2-0.3,0.4-0.6,0.7-0.8C51.7,43.2,52,43.1,52.3,43.1z"/>
		<path fill="#5E5F5E" d="M57,48.2l-0.2-0.7h0c-0.3,0.3-0.5,0.5-0.8,0.6c-0.3,0.1-0.6,0.2-0.9,0.2c-0.5,0-0.9-0.1-1.2-0.4
			c-0.3-0.3-0.4-0.6-0.4-1.1c0-1,0.8-1.6,2.4-1.6l0.9,0v-0.3c0-0.4-0.1-0.7-0.3-0.9c-0.2-0.2-0.4-0.3-0.8-0.3
			c-0.4,0-0.9,0.1-1.4,0.4l-0.2-0.6c0.2-0.1,0.5-0.2,0.8-0.3c0.3-0.1,0.6-0.1,0.9-0.1c0.6,0,1,0.1,1.3,0.4c0.3,0.3,0.4,0.7,0.4,1.3
			v3.4H57z M55.2,47.7c0.5,0,0.8-0.1,1.1-0.4c0.3-0.3,0.4-0.6,0.4-1.1v-0.5l-0.8,0c-0.6,0-1,0.1-1.3,0.3s-0.4,0.4-0.4,0.8
			c0,0.3,0.1,0.5,0.3,0.6C54.7,47.6,54.9,47.7,55.2,47.7z"/>
		<path fill="#5E5F5E" d="M61.1,48.3c-0.7,0-1.3-0.2-1.7-0.7c-0.4-0.5-0.6-1.1-0.6-1.9c0-0.8,0.2-1.5,0.6-2c0.4-0.5,1-0.7,1.7-0.7
			c0.2,0,0.5,0,0.7,0.1c0.2,0.1,0.4,0.1,0.6,0.2L62.2,44c-0.2-0.1-0.4-0.1-0.6-0.2s-0.4-0.1-0.5-0.1c-1,0-1.5,0.7-1.5,2
			c0,0.6,0.1,1.1,0.4,1.4c0.3,0.3,0.6,0.5,1.1,0.5c0.4,0,0.9-0.1,1.3-0.3V48C62.1,48.2,61.6,48.3,61.1,48.3z"/>
		<path fill="#5E5F5E" d="M65.2,47.7c0.1,0,0.3,0,0.4,0c0.1,0,0.2,0,0.3-0.1v0.6c-0.1,0-0.2,0.1-0.4,0.1c-0.2,0-0.3,0-0.4,0
			c-1,0-1.5-0.5-1.5-1.5v-3h-0.7v-0.4l0.7-0.3L64,42h0.4v1.2h1.5v0.6h-1.5v3c0,0.3,0.1,0.5,0.2,0.7C64.8,47.6,65,47.7,65.2,47.7z"/>
		<path fill="#5E5F5E" d="M66.9,41.8c0-0.2,0-0.3,0.1-0.4c0.1-0.1,0.2-0.1,0.3-0.1c0.1,0,0.2,0,0.3,0.1c0.1,0.1,0.1,0.2,0.1,0.4
			s0,0.3-0.1,0.4s-0.2,0.1-0.3,0.1c-0.1,0-0.2,0-0.3-0.1C66.9,42.1,66.9,42,66.9,41.8z M67.7,48.2h-0.8v-5h0.8V48.2z"/>
		<path fill="#5E5F5E" d="M73.7,45.7c0,0.8-0.2,1.5-0.6,1.9c-0.4,0.5-1,0.7-1.7,0.7c-0.5,0-0.9-0.1-1.2-0.3
			c-0.4-0.2-0.6-0.5-0.8-0.9c-0.2-0.4-0.3-0.9-0.3-1.4c0-0.8,0.2-1.5,0.6-1.9c0.4-0.5,1-0.7,1.7-0.7c0.7,0,1.3,0.2,1.7,0.7
			C73.5,44.2,73.7,44.9,73.7,45.7z M69.8,45.7c0,0.6,0.1,1.1,0.4,1.5c0.3,0.3,0.6,0.5,1.1,0.5c0.5,0,0.9-0.2,1.1-0.5
			c0.3-0.3,0.4-0.8,0.4-1.5c0-0.6-0.1-1.1-0.4-1.5c-0.3-0.3-0.6-0.5-1.1-0.5c-0.5,0-0.9,0.2-1.1,0.5C70,44.5,69.8,45,69.8,45.7z"/>
		<path fill="#5E5F5E" d="M78.5,48.2v-3.3c0-0.4-0.1-0.7-0.3-0.9s-0.5-0.3-0.9-0.3c-0.5,0-0.9,0.1-1.2,0.4c-0.2,0.3-0.4,0.8-0.4,1.4
			v2.6H75v-5h0.6l0.1,0.7h0c0.2-0.2,0.4-0.4,0.7-0.6c0.3-0.1,0.6-0.2,0.9-0.2c0.6,0,1.1,0.1,1.4,0.4s0.5,0.8,0.5,1.4v3.3H78.5z"/>
		<path fill="#5E5F5E" d="M38.5,54.2c0,1.1-0.3,2-0.9,2.5c-0.6,0.6-1.5,0.9-2.6,0.9h-1.9v-6.7h2.1c1,0,1.9,0.3,2.4,0.9
			C38.2,52.4,38.5,53.2,38.5,54.2z M37.6,54.2c0-0.9-0.2-1.5-0.7-2c-0.4-0.4-1.1-0.7-2-0.7h-1.1V57h1c0.9,0,1.6-0.2,2.1-0.7
			C37.4,55.8,37.6,55.1,37.6,54.2z"/>
		<path fill="#5E5F5E" d="M42,57.7c-0.7,0-1.3-0.2-1.8-0.7c-0.4-0.5-0.6-1.1-0.6-1.9c0-0.8,0.2-1.5,0.6-1.9c0.4-0.5,0.9-0.7,1.6-0.7
			c0.6,0,1.1,0.2,1.5,0.6c0.4,0.4,0.6,1,0.6,1.6v0.5h-3.5c0,0.6,0.2,1,0.4,1.3c0.3,0.3,0.7,0.5,1.2,0.5c0.5,0,1.1-0.1,1.6-0.3v0.7
			c-0.3,0.1-0.5,0.2-0.8,0.3C42.6,57.7,42.3,57.7,42,57.7z M41.8,53.1c-0.4,0-0.7,0.1-1,0.4c-0.2,0.3-0.4,0.6-0.4,1.1H43
			c0-0.5-0.1-0.9-0.3-1.1C42.5,53.3,42.2,53.1,41.8,53.1z"/>
		<path fill="#5E5F5E" d="M48.4,56.3c0,0.5-0.2,0.8-0.5,1.1c-0.4,0.3-0.8,0.4-1.5,0.4c-0.7,0-1.2-0.1-1.6-0.3v-0.7
			c0.2,0.1,0.5,0.2,0.8,0.3c0.3,0.1,0.5,0.1,0.8,0.1c0.4,0,0.7-0.1,0.9-0.2c0.2-0.1,0.3-0.3,0.3-0.6c0-0.2-0.1-0.4-0.3-0.5
			c-0.2-0.1-0.5-0.3-1-0.5c-0.5-0.2-0.8-0.3-1-0.5c-0.2-0.1-0.3-0.3-0.4-0.4c-0.1-0.2-0.1-0.4-0.1-0.6c0-0.4,0.2-0.7,0.5-1
			s0.8-0.4,1.4-0.4c0.5,0,1.1,0.1,1.6,0.3L48,53.5c-0.5-0.2-1-0.3-1.4-0.3c-0.4,0-0.6,0.1-0.8,0.2c-0.2,0.1-0.3,0.3-0.3,0.5
			c0,0.1,0,0.3,0.1,0.3c0.1,0.1,0.2,0.2,0.3,0.3c0.2,0.1,0.4,0.2,0.9,0.4c0.6,0.2,1,0.4,1.2,0.7C48.3,55.7,48.4,55.9,48.4,56.3z"/>
		<path fill="#5E5F5E" d="M49.6,51.2c0-0.2,0-0.3,0.1-0.4c0.1-0.1,0.2-0.1,0.3-0.1c0.1,0,0.2,0,0.3,0.1c0.1,0.1,0.1,0.2,0.1,0.4
			c0,0.2,0,0.3-0.1,0.4s-0.2,0.1-0.3,0.1c-0.1,0-0.2,0-0.3-0.1C49.6,51.5,49.6,51.4,49.6,51.2z M50.4,57.6h-0.8v-5h0.8V57.6z"/>
		<path fill="#5E5F5E" d="M56.2,52.6v0.5l-0.9,0.1c0.1,0.1,0.2,0.2,0.2,0.4c0.1,0.2,0.1,0.4,0.1,0.6c0,0.5-0.2,0.9-0.5,1.2
			c-0.3,0.3-0.8,0.4-1.4,0.4c-0.2,0-0.3,0-0.4,0c-0.3,0.2-0.5,0.4-0.5,0.6c0,0.1,0.1,0.2,0.2,0.3c0.1,0.1,0.3,0.1,0.6,0.1h0.9
			c0.5,0,1,0.1,1.3,0.3c0.3,0.2,0.4,0.6,0.4,1c0,0.6-0.2,1-0.7,1.3c-0.4,0.3-1.1,0.4-2,0.4c-0.7,0-1.2-0.1-1.5-0.4
			c-0.4-0.2-0.5-0.6-0.5-1c0-0.3,0.1-0.6,0.3-0.8c0.2-0.2,0.5-0.4,0.8-0.5c-0.1-0.1-0.2-0.1-0.3-0.3c-0.1-0.1-0.1-0.3-0.1-0.4
			c0-0.2,0-0.3,0.1-0.5c0.1-0.1,0.3-0.3,0.5-0.4c-0.3-0.1-0.5-0.3-0.6-0.5c-0.2-0.3-0.2-0.6-0.2-0.9c0-0.6,0.2-1,0.5-1.3
			c0.3-0.3,0.8-0.4,1.4-0.4c0.3,0,0.5,0,0.7,0.1H56.2z M52.1,58.5c0,0.3,0.1,0.5,0.3,0.6c0.2,0.1,0.6,0.2,1,0.2
			c0.6,0,1.1-0.1,1.4-0.3s0.5-0.5,0.5-0.8c0-0.3-0.1-0.5-0.3-0.6c-0.2-0.1-0.5-0.2-1-0.2h-0.9c-0.3,0-0.6,0.1-0.8,0.2
			C52.2,57.9,52.1,58.2,52.1,58.5z M52.5,54.2c0,0.4,0.1,0.6,0.3,0.8c0.2,0.2,0.5,0.3,0.8,0.3c0.7,0,1.1-0.4,1.1-1.1
			c0-0.8-0.4-1.1-1.1-1.1c-0.4,0-0.6,0.1-0.8,0.3C52.6,53.5,52.5,53.8,52.5,54.2z"/>
		<path fill="#5E5F5E" d="M60.7,57.6v-3.3c0-0.4-0.1-0.7-0.3-0.9c-0.2-0.2-0.5-0.3-0.9-0.3c-0.5,0-0.9,0.1-1.2,0.4
			C58.1,53.9,58,54.3,58,55v2.6h-0.8v-5h0.6l0.1,0.7h0c0.2-0.2,0.4-0.4,0.7-0.6s0.6-0.2,0.9-0.2c0.6,0,1.1,0.1,1.4,0.4
			c0.3,0.3,0.5,0.8,0.5,1.4v3.3H60.7z"/>
	</g>
	<g>
		<path fill="#5E5F5E" d="M11.3,51.3c0-0.1,0-0.2,0-0.3c0-2,0-4,0-6c0-0.2-0.1-0.3-0.2-0.3c-2.3-1-3.5-3.4-3-5.8
			c0.5-2.4,2.7-4.1,5.1-4c2.5,0.1,4.5,1.9,4.9,4.3c0.4,2.3-0.9,4.6-3.1,5.5c-0.1,0-0.2,0.1-0.2,0.2c1.3-0.6,2.3-0.5,3.1,0.8
			c0.6-0.4,1.2-0.5,1.9-0.2c0.7,0.3,1,0.8,1.1,1.5c0.1,0,0.2,0,0.3-0.1c0.9-0.2,2,0.6,2,1.7c-0.1,2.1-0.1,4.1-0.4,6.2
			c-0.2,1.5-0.8,2.7-1.8,3.8c-0.8,0.8-1.8,1.2-2.9,1.3c-2.5,0.3-4.6-0.4-6.4-2.1c-1.7-1.6-3.3-3.3-4.9-5c-0.4-0.4-0.6-0.8-0.7-1.3
			c-0.1-0.9,0.4-1.8,1.2-2.2c0.8-0.4,1.8-0.2,2.5,0.4C10.3,50.3,10.8,50.8,11.3,51.3z M12.1,46.3C12.1,46.3,12.1,46.3,12.1,46.3
			c0,2,0,3.9,0,5.9c0,0.1,0,0.2,0,0.2c-0.1,0.1-0.1,0.3-0.3,0.3c-0.1,0-0.3,0-0.4-0.1c-0.1,0-0.1-0.1-0.2-0.2
			c-0.7-0.7-1.3-1.4-2-2.1c-0.6-0.6-1.4-0.6-1.9-0.1c-0.6,0.5-0.6,1.4,0,1.9c1.5,1.6,3,3.2,4.6,4.7c0.6,0.6,1.2,1.1,1.9,1.5
			c1.4,0.8,2.9,0.9,4.4,0.7c1.3-0.2,2.2-0.9,2.9-2c0.5-0.8,0.7-1.6,0.8-2.4c0.3-2,0.3-4.1,0.4-6.1c0-0.3-0.1-0.5-0.4-0.7
			c-0.3-0.2-0.7-0.2-1-0.1c-0.1,0-0.2,0.1-0.2,0.2c0,0.3,0,0.6,0,0.8c0,0.2-0.2,0.4-0.4,0.4c-0.2,0-0.4-0.2-0.4-0.4
			c0-0.1,0-0.1,0-0.2c0-0.5,0-1,0-1.5c0-0.6-0.5-1-1-1c-0.6,0-1,0.5-1,1.1c0,0.2,0,0.4,0,0.6c0,0.3-0.2,0.5-0.4,0.5
			c-0.2,0-0.4-0.2-0.4-0.5c0-0.5,0-0.9,0-1.4c0-0.4-0.2-0.7-0.6-0.9c-0.8-0.4-1.8,0.2-1.8,1c0,0.3,0,0.6,0,0.9
			c0,0.4-0.1,0.5-0.4,0.5c-0.3,0-0.4-0.2-0.4-0.5c0-0.1,0-0.2,0-0.3c0-2.2,0-4.5,0-6.7c0-0.2,0-0.4-0.1-0.6
			c-0.1-0.4-0.4-0.6-0.8-0.7c-0.4,0-0.8,0.2-0.9,0.6c-0.1,0.2-0.1,0.5-0.1,0.7C12.1,42.4,12.1,44.3,12.1,46.3z M11.3,44
			c0-0.2,0-0.4,0-0.6c0-0.2-0.1-0.3-0.2-0.4c-1.9-1.3-2.1-3.9-0.5-5.5c1.1-1,2.7-1.3,4.1-0.6c1.3,0.7,2.1,2.2,1.9,3.6
			c-0.2,1.1-0.7,1.9-1.6,2.5c-0.1,0-0.2,0.1-0.2,0.2c0,0.2,0,0.5,0,0.7c1.4-0.3,2.7-2.4,2.6-4.2c-0.2-2.2-1.9-3.9-4-4
			c-2.2-0.1-4.1,1.4-4.5,3.5C8.4,41.5,9.9,43.4,11.3,44z M14.8,42.1c0.7-0.4,1.2-1.7,1-2.7c-0.3-1.2-1.3-2.1-2.6-2.2
			c-1.2,0-2.4,0.8-2.7,2c-0.3,1,0.1,2.4,0.9,2.8c0-0.1,0-0.2,0-0.2c0-0.6,0-1.2,0-1.9c0.1-0.9,0.8-1.6,1.7-1.7
			c0.9,0,1.6,0.5,1.7,1.5c0.1,0.6,0,1.2,0.1,1.8C14.8,41.8,14.8,42,14.8,42.1z"/>
	</g>
	<polyline fill="none" stroke="#FFFFFF" stroke-miterlimit="10" points="42.3,31.5 29.8,31.5 29.8,67.9 42.6,67.8 	"/>
</g>
</svg>
