<?xml version="1.0" encoding="utf-8"?>
<!-- Generator: Adobe Illustrator 18.1.0, SVG Export Plug-In . SVG Version: 6.00 Build 0)  -->
<!DOCTYPE svg PUBLIC "-//W3C//DTD SVG 1.1//EN" "http://www.w3.org/Graphics/SVG/1.1/DTD/svg11.dtd">
<svg version="1.1" id="Layer_1" xmlns="http://www.w3.org/2000/svg" xmlns:xlink="http://www.w3.org/1999/xlink" x="0px" y="0px"
	 viewBox="0 0 86.6 100" enable-background="new 0 0 86.6 100" xml:space="preserve">
<polygon fill="#9ECECE" points="43.3,100 0,75 0,25 43.3,0 86.6,25 86.6,75 "/>
<g>
	<g>
		<path fill="#5E5F5E" d="M18.4,67.6v-6.7h0.8v6.7H18.4z"/>
		<path fill="#5E5F5E" d="M24.4,67.6v-3.2c0-0.4-0.1-0.7-0.3-0.9c-0.2-0.2-0.5-0.3-0.9-0.3c-0.5,0-0.9,0.1-1.2,0.4
			c-0.2,0.3-0.4,0.8-0.4,1.4v2.6h-0.8v-5h0.6l0.1,0.7h0c0.2-0.2,0.4-0.4,0.7-0.6c0.3-0.1,0.6-0.2,0.9-0.2c0.6,0,1.1,0.1,1.4,0.4
			c0.3,0.3,0.5,0.8,0.5,1.4v3.3H24.4z"/>
		<path fill="#5E5F5E" d="M29,63.2h-1.3v4.4h-0.8v-4.4H26v-0.3l0.9-0.3v-0.3c0-1.2,0.5-1.8,1.6-1.8c0.3,0,0.6,0.1,0.9,0.2l-0.2,0.6
			C29,61.1,28.7,61,28.5,61c-0.3,0-0.5,0.1-0.6,0.3c-0.1,0.2-0.2,0.5-0.2,0.9v0.3H29V63.2z"/>
		<path fill="#5E5F5E" d="M34.2,65.1c0,0.8-0.2,1.5-0.6,1.9c-0.4,0.5-1,0.7-1.7,0.7c-0.4,0-0.8-0.1-1.2-0.3
			c-0.3-0.2-0.6-0.5-0.8-0.9c-0.2-0.4-0.3-0.9-0.3-1.4c0-0.8,0.2-1.5,0.6-1.9c0.4-0.5,1-0.7,1.7-0.7c0.7,0,1.3,0.2,1.7,0.7
			C34,63.6,34.2,64.3,34.2,65.1z M30.4,65.1c0,0.6,0.1,1.1,0.4,1.5c0.3,0.3,0.6,0.5,1.1,0.5c0.5,0,0.9-0.2,1.1-0.5
			c0.3-0.3,0.4-0.8,0.4-1.5c0-0.6-0.1-1.1-0.4-1.5s-0.6-0.5-1.1-0.5c-0.5,0-0.9,0.2-1.1,0.5S30.4,64.4,30.4,65.1z"/>
		<path fill="#5E5F5E" d="M37.8,62.5c0.2,0,0.4,0,0.6,0.1l-0.1,0.7c-0.2,0-0.4-0.1-0.5-0.1c-0.4,0-0.8,0.2-1,0.5
			c-0.3,0.3-0.4,0.7-0.4,1.2v2.7h-0.8v-5h0.6l0.1,0.9h0c0.2-0.3,0.4-0.6,0.7-0.8C37.2,62.6,37.5,62.5,37.8,62.5z"/>
		<path fill="#5E5F5E" d="M45.8,67.6v-3.3c0-0.4-0.1-0.7-0.3-0.9c-0.2-0.2-0.4-0.3-0.8-0.3c-0.5,0-0.8,0.1-1,0.4
			c-0.2,0.3-0.3,0.7-0.3,1.3v2.8h-0.8v-3.3c0-0.4-0.1-0.7-0.3-0.9c-0.2-0.2-0.4-0.3-0.8-0.3c-0.5,0-0.8,0.1-1,0.4s-0.3,0.8-0.3,1.4
			v2.6h-0.8v-5H40l0.1,0.7h0c0.1-0.2,0.3-0.4,0.6-0.6c0.3-0.1,0.6-0.2,0.9-0.2c0.8,0,1.3,0.3,1.5,0.9h0c0.1-0.3,0.4-0.5,0.7-0.6
			c0.3-0.2,0.6-0.2,1-0.2c0.6,0,1,0.1,1.3,0.4c0.3,0.3,0.4,0.8,0.4,1.4v3.3H45.8z"/>
		<path fill="#5E5F5E" d="M51.2,67.6L51,66.9h0c-0.3,0.3-0.5,0.5-0.7,0.6c-0.2,0.1-0.6,0.2-0.9,0.2c-0.5,0-0.9-0.1-1.2-0.4
			c-0.3-0.3-0.4-0.6-0.4-1.1c0-1,0.8-1.5,2.4-1.6l0.9,0v-0.3c0-0.4-0.1-0.7-0.3-0.9c-0.2-0.2-0.4-0.3-0.8-0.3
			c-0.4,0-0.9,0.1-1.4,0.4l-0.2-0.6c0.2-0.1,0.5-0.2,0.8-0.3c0.3-0.1,0.6-0.1,0.9-0.1c0.6,0,1,0.1,1.3,0.4c0.3,0.3,0.4,0.7,0.4,1.3
			v3.4H51.2z M49.4,67.1c0.5,0,0.8-0.1,1.1-0.4c0.3-0.3,0.4-0.6,0.4-1.1v-0.5l-0.8,0c-0.6,0-1,0.1-1.3,0.3s-0.4,0.4-0.4,0.8
			c0,0.3,0.1,0.5,0.2,0.6C48.9,67,49.1,67.1,49.4,67.1z"/>
		<path fill="#5E5F5E" d="M54.9,67.1c0.1,0,0.3,0,0.4,0c0.1,0,0.2,0,0.3-0.1v0.6c-0.1,0-0.2,0.1-0.4,0.1c-0.2,0-0.3,0-0.4,0
			c-1,0-1.5-0.5-1.5-1.5v-3h-0.7v-0.4l0.7-0.3l0.3-1.1h0.4v1.2h1.5v0.6h-1.5v3c0,0.3,0.1,0.5,0.2,0.7C54.5,67,54.7,67.1,54.9,67.1z"
			/>
		<path fill="#5E5F5E" d="M56.5,61.2c0-0.2,0-0.3,0.1-0.4c0.1-0.1,0.2-0.1,0.3-0.1c0.1,0,0.2,0,0.3,0.1c0.1,0.1,0.1,0.2,0.1,0.4
			s0,0.3-0.1,0.4c-0.1,0.1-0.2,0.1-0.3,0.1c-0.1,0-0.2,0-0.3-0.1S56.5,61.4,56.5,61.2z M57.4,67.6h-0.8v-5h0.8V67.6z"/>
		<path fill="#5E5F5E" d="M63.3,65.1c0,0.8-0.2,1.5-0.6,1.9c-0.4,0.5-1,0.7-1.7,0.7c-0.4,0-0.8-0.1-1.2-0.3
			c-0.3-0.2-0.6-0.5-0.8-0.9c-0.2-0.4-0.3-0.9-0.3-1.4c0-0.8,0.2-1.5,0.6-1.9c0.4-0.5,1-0.7,1.7-0.7c0.7,0,1.3,0.2,1.7,0.7
			C63.1,63.6,63.3,64.3,63.3,65.1z M59.5,65.1c0,0.6,0.1,1.1,0.4,1.5c0.3,0.3,0.6,0.5,1.1,0.5c0.5,0,0.9-0.2,1.1-0.5
			c0.3-0.3,0.4-0.8,0.4-1.5c0-0.6-0.1-1.1-0.4-1.5c-0.3-0.3-0.6-0.5-1.1-0.5c-0.5,0-0.9,0.2-1.1,0.5C59.6,63.9,59.5,64.4,59.5,65.1z
			"/>
		<path fill="#5E5F5E" d="M68.1,67.6v-3.2c0-0.4-0.1-0.7-0.3-0.9c-0.2-0.2-0.5-0.3-0.9-0.3c-0.5,0-0.9,0.1-1.2,0.4
			c-0.2,0.3-0.4,0.8-0.4,1.4v2.6h-0.8v-5h0.6l0.1,0.7h0c0.2-0.2,0.4-0.4,0.7-0.6s0.6-0.2,0.9-0.2c0.6,0,1.1,0.1,1.4,0.4
			c0.3,0.3,0.5,0.8,0.5,1.4v3.3H68.1z"/>
		<path fill="#5E5F5E" d="M21.9,77l-0.8-2.1h-2.7L17.6,77h-0.8l2.6-6.7h0.7l2.6,6.7H21.9z M20.8,74.1l-0.8-2.1
			c-0.1-0.3-0.2-0.6-0.3-1c-0.1,0.3-0.2,0.6-0.3,1l-0.8,2.1H20.8z"/>
		<path fill="#5E5F5E" d="M25.8,71.9c0.2,0,0.4,0,0.6,0.1l-0.1,0.7c-0.2,0-0.4-0.1-0.5-0.1c-0.4,0-0.8,0.2-1,0.5
			c-0.3,0.3-0.4,0.7-0.4,1.2V77h-0.8v-5h0.6l0.1,0.9h0c0.2-0.3,0.4-0.6,0.7-0.8C25.2,71.9,25.5,71.9,25.8,71.9z"/>
		<path fill="#5E5F5E" d="M29.4,77.1c-0.7,0-1.3-0.2-1.7-0.7c-0.4-0.4-0.6-1.1-0.6-1.9c0-0.8,0.2-1.5,0.6-1.9c0.4-0.5,1-0.7,1.7-0.7
			c0.2,0,0.5,0,0.7,0.1c0.2,0.1,0.4,0.1,0.6,0.2l-0.2,0.6c-0.2-0.1-0.4-0.1-0.5-0.2c-0.2,0-0.4-0.1-0.5-0.1c-1,0-1.5,0.6-1.5,2
			c0,0.6,0.1,1.1,0.4,1.4c0.2,0.3,0.6,0.5,1.1,0.5c0.4,0,0.8-0.1,1.3-0.3v0.7C30.3,77,29.9,77.1,29.4,77.1z"/>
		<path fill="#5E5F5E" d="M35.2,77v-3.2c0-0.4-0.1-0.7-0.3-0.9c-0.2-0.2-0.5-0.3-0.9-0.3c-0.5,0-0.9,0.1-1.2,0.4
			c-0.2,0.3-0.4,0.8-0.4,1.4V77h-0.8v-7.1h0.8V72c0,0.3,0,0.5,0,0.6h0c0.1-0.2,0.4-0.4,0.6-0.6c0.3-0.1,0.6-0.2,0.9-0.2
			c0.6,0,1.1,0.1,1.4,0.4c0.3,0.3,0.5,0.8,0.5,1.4V77H35.2z"/>
		<path fill="#5E5F5E" d="M37.5,70.6c0-0.2,0-0.3,0.1-0.4c0.1-0.1,0.2-0.1,0.3-0.1c0.1,0,0.2,0,0.3,0.1c0.1,0.1,0.1,0.2,0.1,0.4
			c0,0.2,0,0.3-0.1,0.4c-0.1,0.1-0.2,0.1-0.3,0.1c-0.1,0-0.2,0-0.3-0.1C37.5,70.9,37.5,70.8,37.5,70.6z M38.3,77h-0.8v-5h0.8V77z"/>
		<path fill="#5E5F5E" d="M41.6,76.4c0.1,0,0.3,0,0.4,0c0.1,0,0.2,0,0.3-0.1v0.6C42.2,77,42,77,41.9,77c-0.2,0-0.3,0-0.4,0
			c-1,0-1.5-0.5-1.5-1.5v-3h-0.7v-0.4l0.7-0.3l0.3-1.1h0.4v1.2h1.5v0.6h-1.5v3c0,0.3,0.1,0.5,0.2,0.7S41.3,76.4,41.6,76.4z"/>
		<path fill="#5E5F5E" d="M45.4,77.1c-0.7,0-1.3-0.2-1.8-0.7c-0.4-0.5-0.6-1.1-0.6-1.9c0-0.8,0.2-1.5,0.6-1.9
			c0.4-0.5,0.9-0.7,1.6-0.7c0.6,0,1.1,0.2,1.5,0.6c0.4,0.4,0.5,1,0.5,1.6v0.5h-3.5c0,0.6,0.2,1,0.4,1.3c0.3,0.3,0.7,0.5,1.2,0.5
			c0.5,0,1.1-0.1,1.6-0.3v0.7c-0.3,0.1-0.5,0.2-0.8,0.2C46,77,45.7,77.1,45.4,77.1z M45.2,72.5c-0.4,0-0.7,0.1-1,0.4
			s-0.4,0.6-0.4,1.1h2.6c0-0.5-0.1-0.8-0.3-1.1C45.9,72.6,45.6,72.5,45.2,72.5z"/>
		<path fill="#5E5F5E" d="M50.5,77.1c-0.7,0-1.3-0.2-1.7-0.7s-0.6-1.1-0.6-1.9c0-0.8,0.2-1.5,0.6-1.9c0.4-0.5,1-0.7,1.7-0.7
			c0.2,0,0.5,0,0.7,0.1c0.2,0.1,0.4,0.1,0.6,0.2l-0.2,0.6c-0.2-0.1-0.4-0.1-0.5-0.2c-0.2,0-0.4-0.1-0.5-0.1c-1,0-1.5,0.6-1.5,2
			c0,0.6,0.1,1.1,0.4,1.4c0.2,0.3,0.6,0.5,1.1,0.5c0.4,0,0.8-0.1,1.3-0.3v0.7C51.4,77,51,77.1,50.5,77.1z"/>
		<path fill="#5E5F5E" d="M54.6,76.4c0.1,0,0.3,0,0.4,0c0.1,0,0.2,0,0.3-0.1v0.6c-0.1,0-0.2,0.1-0.4,0.1c-0.2,0-0.3,0-0.4,0
			c-1,0-1.5-0.5-1.5-1.5v-3h-0.7v-0.4l0.7-0.3l0.3-1.1h0.4v1.2h1.5v0.6h-1.5v3c0,0.3,0.1,0.5,0.2,0.7C54.1,76.3,54.3,76.4,54.6,76.4
			z"/>
		<path fill="#5E5F5E" d="M57,71.9v3.3c0,0.4,0.1,0.7,0.3,0.9c0.2,0.2,0.5,0.3,0.9,0.3c0.5,0,0.9-0.1,1.2-0.4
			c0.2-0.3,0.4-0.8,0.4-1.4v-2.6h0.8v5h-0.6l-0.1-0.7h0c-0.2,0.2-0.4,0.4-0.6,0.6c-0.3,0.1-0.6,0.2-0.9,0.2c-0.6,0-1.1-0.1-1.4-0.4
			c-0.3-0.3-0.5-0.8-0.5-1.4v-3.3H57z"/>
		<path fill="#5E5F5E" d="M64.3,71.9c0.2,0,0.4,0,0.6,0.1l-0.1,0.7c-0.2,0-0.4-0.1-0.5-0.1c-0.4,0-0.8,0.2-1,0.5
			c-0.3,0.3-0.4,0.7-0.4,1.2V77H62v-5h0.6l0.1,0.9h0c0.2-0.3,0.4-0.6,0.7-0.8C63.7,71.9,64,71.9,64.3,71.9z"/>
		<path fill="#5E5F5E" d="M68,77.1c-0.7,0-1.3-0.2-1.8-0.7c-0.4-0.5-0.6-1.1-0.6-1.9c0-0.8,0.2-1.5,0.6-1.9c0.4-0.5,0.9-0.7,1.6-0.7
			c0.6,0,1.1,0.2,1.5,0.6c0.4,0.4,0.5,1,0.5,1.6v0.5h-3.5c0,0.6,0.2,1,0.4,1.3c0.3,0.3,0.7,0.5,1.2,0.5c0.5,0,1.1-0.1,1.6-0.3v0.7
			c-0.3,0.1-0.5,0.2-0.8,0.2C68.6,77,68.3,77.1,68,77.1z M67.8,72.5c-0.4,0-0.7,0.1-1,0.4c-0.2,0.3-0.4,0.6-0.4,1.1H69
			c0-0.5-0.1-0.8-0.3-1.1C68.5,72.6,68.2,72.5,67.8,72.5z"/>
	</g>
	<polygon fill="#5E5F5E" points="20.4,43 17.8,38 20.4,33 25.6,33 28.2,38 25.6,43 	"/>
	<polygon fill="#5E5F5E" points="40.6,43 38,38 40.6,33 45.8,33 48.5,38 45.8,43 	"/>
	<polygon fill="#5E5F5E" points="63.6,43 61,38 63.6,33 68.8,33 71.4,38 68.8,43 	"/>
	<polygon fill="#5E5F5E" points="40.6,25 38,20 40.6,15 45.8,15 48.5,20 45.8,25 	"/>
	<polyline fill="none" stroke="#5E5F5E" stroke-miterlimit="10" points="42.8,25 42.8,28.5 22.8,28.5 22.8,36 	"/>
	<polyline fill="none" stroke="#5E5F5E" stroke-miterlimit="10" points="42.8,25 42.8,28.5 65.8,28.5 65.8,33 	"/>
	<polyline fill="none" stroke="#5E5F5E" stroke-miterlimit="10" points="42.8,28 42.8,34.8 42.8,58 	"/>
	<polyline fill="none" stroke="#5E5F5E" stroke-miterlimit="10" points="12.8,70 12.8,58.5 72.8,58.5 72.8,70 	"/>
</g>
</svg>
