<?xml version="1.0" encoding="utf-8"?>
<!-- Generator: Adobe Illustrator 18.1.0, SVG Export Plug-In . SVG Version: 6.00 Build 0)  -->
<!DOCTYPE svg PUBLIC "-//W3C//DTD SVG 1.1//EN" "http://www.w3.org/Graphics/SVG/1.1/DTD/svg11.dtd">
<svg version="1.1" id="Layer_1" xmlns="http://www.w3.org/2000/svg" xmlns:xlink="http://www.w3.org/1999/xlink" x="0px" y="0px"
	 viewBox="0 0 86.6 100" enable-background="new 0 0 86.6 100" xml:space="preserve">
<polygon fill="#C3AA54" points="43.3,100 0,75 0,25 43.3,0 86.6,25 86.6,75 "/>
<g>
	<g>
		<g>
			<path fill="#FFFFFF" d="M30.1,23.3c-0.7,0-1.3-0.2-1.7-0.7c-0.4-0.4-0.6-1.1-0.6-1.9c0-0.8,0.2-1.5,0.6-1.9
				c0.4-0.5,1-0.7,1.7-0.7c0.2,0,0.5,0,0.7,0.1c0.2,0.1,0.4,0.1,0.6,0.2L31.2,19c-0.2-0.1-0.3-0.1-0.5-0.2c-0.2,0-0.4-0.1-0.5-0.1
				c-1,0-1.5,0.6-1.5,1.9c0,0.6,0.1,1.1,0.4,1.4c0.2,0.3,0.6,0.5,1.1,0.5c0.4,0,0.8-0.1,1.3-0.3V23C31.1,23.2,30.7,23.3,30.1,23.3z"
				/>
			<path fill="#FFFFFF" d="M34.9,18.1c0.2,0,0.4,0,0.6,0.1l-0.1,0.7c-0.2,0-0.4-0.1-0.5-0.1c-0.4,0-0.7,0.2-1,0.5
				c-0.3,0.3-0.4,0.7-0.4,1.2v2.7h-0.8v-5h0.6l0.1,0.9h0c0.2-0.3,0.4-0.6,0.7-0.8C34.3,18.2,34.6,18.1,34.9,18.1z"/>
			<path fill="#FFFFFF" d="M38.5,23.3c-0.7,0-1.3-0.2-1.7-0.7c-0.4-0.4-0.6-1.1-0.6-1.9c0-0.8,0.2-1.4,0.6-1.9
				c0.4-0.5,0.9-0.7,1.6-0.7c0.6,0,1.1,0.2,1.5,0.6c0.4,0.4,0.5,1,0.5,1.6v0.5h-3.4c0,0.6,0.2,1,0.4,1.3c0.3,0.3,0.7,0.5,1.2,0.5
				c0.5,0,1.1-0.1,1.6-0.3v0.7c-0.3,0.1-0.5,0.2-0.8,0.2C39.1,23.2,38.8,23.3,38.5,23.3z M38.3,18.7c-0.4,0-0.7,0.1-1,0.4
				c-0.2,0.3-0.4,0.6-0.4,1.1h2.6c0-0.5-0.1-0.8-0.3-1.1C39,18.8,38.7,18.7,38.3,18.7z"/>
			<path fill="#FFFFFF" d="M44.7,23.2l-0.1-0.7h0c-0.2,0.3-0.5,0.5-0.7,0.6c-0.2,0.1-0.6,0.2-0.9,0.2c-0.5,0-0.9-0.1-1.2-0.4
				c-0.3-0.3-0.4-0.6-0.4-1.1c0-1,0.8-1.5,2.4-1.6l0.8,0v-0.3c0-0.4-0.1-0.7-0.3-0.9c-0.2-0.2-0.4-0.3-0.8-0.3
				c-0.4,0-0.9,0.1-1.4,0.4l-0.2-0.6c0.2-0.1,0.5-0.2,0.8-0.3c0.3-0.1,0.6-0.1,0.9-0.1c0.6,0,1,0.1,1.3,0.4c0.3,0.3,0.4,0.7,0.4,1.3
				v3.4H44.7z M43,22.6c0.5,0,0.8-0.1,1.1-0.4c0.3-0.3,0.4-0.6,0.4-1.1v-0.5l-0.8,0c-0.6,0-1,0.1-1.3,0.3c-0.3,0.2-0.4,0.4-0.4,0.8
				c0,0.3,0.1,0.5,0.2,0.6C42.5,22.6,42.7,22.6,43,22.6z"/>
			<path fill="#FFFFFF" d="M48.4,22.6c0.1,0,0.3,0,0.4,0c0.1,0,0.2,0,0.3-0.1v0.6c-0.1,0-0.2,0.1-0.4,0.1c-0.2,0-0.3,0-0.4,0
				c-1,0-1.4-0.5-1.4-1.5v-3h-0.7v-0.4l0.7-0.3l0.3-1.1h0.4v1.2h1.4v0.6h-1.4v2.9c0,0.3,0.1,0.5,0.2,0.7
				C48,22.5,48.2,22.6,48.4,22.6z"/>
			<path fill="#FFFFFF" d="M50.1,16.8c0-0.2,0-0.3,0.1-0.4c0.1-0.1,0.2-0.1,0.3-0.1c0.1,0,0.2,0,0.3,0.1c0.1,0.1,0.1,0.2,0.1,0.4
				c0,0.2,0,0.3-0.1,0.4c-0.1,0.1-0.2,0.1-0.3,0.1c-0.1,0-0.2,0-0.3-0.1C50.1,17.1,50.1,17,50.1,16.8z M50.9,23.2h-0.8v-5h0.8V23.2z
				"/>
			<path fill="#FFFFFF" d="M53.6,23.2l-1.9-5h0.8l1.1,3c0.2,0.7,0.4,1.1,0.4,1.3h0c0-0.2,0.1-0.5,0.3-1c0.2-0.5,0.6-1.6,1.2-3.3h0.8
				l-1.9,5H53.6z"/>
			<path fill="#FFFFFF" d="M59.3,23.3c-0.7,0-1.3-0.2-1.7-0.7c-0.4-0.4-0.6-1.1-0.6-1.9c0-0.8,0.2-1.4,0.6-1.9
				c0.4-0.5,0.9-0.7,1.6-0.7c0.6,0,1.1,0.2,1.5,0.6c0.4,0.4,0.5,1,0.5,1.6v0.5h-3.4c0,0.6,0.2,1,0.4,1.3c0.3,0.3,0.7,0.5,1.2,0.5
				c0.5,0,1.1-0.1,1.6-0.3v0.7c-0.3,0.1-0.5,0.2-0.8,0.2C59.9,23.2,59.6,23.3,59.3,23.3z M59.1,18.7c-0.4,0-0.7,0.1-1,0.4
				c-0.2,0.3-0.4,0.6-0.4,1.1h2.6c0-0.5-0.1-0.8-0.3-1.1C59.8,18.8,59.5,18.7,59.1,18.7z"/>
			<path fill="#FFFFFF" d="M38,31.1c0,0.5-0.2,0.8-0.5,1.1c-0.3,0.3-0.8,0.4-1.5,0.4c-0.7,0-1.2-0.1-1.5-0.3v-0.7
				c0.2,0.1,0.5,0.2,0.8,0.3c0.3,0.1,0.5,0.1,0.8,0.1c0.4,0,0.7-0.1,0.9-0.2c0.2-0.1,0.3-0.3,0.3-0.6c0-0.2-0.1-0.4-0.3-0.5
				c-0.2-0.1-0.5-0.3-1-0.5c-0.5-0.2-0.8-0.3-1-0.5c-0.2-0.1-0.3-0.3-0.4-0.4c-0.1-0.2-0.1-0.4-0.1-0.6c0-0.4,0.2-0.7,0.5-1
				c0.3-0.2,0.8-0.4,1.4-0.4c0.5,0,1.1,0.1,1.6,0.3l-0.3,0.6c-0.5-0.2-1-0.3-1.4-0.3c-0.4,0-0.6,0.1-0.8,0.2
				c-0.2,0.1-0.3,0.3-0.3,0.5c0,0.1,0,0.2,0.1,0.3c0.1,0.1,0.2,0.2,0.3,0.3c0.2,0.1,0.4,0.2,0.9,0.4c0.6,0.2,1,0.4,1.2,0.7
				C37.9,30.5,38,30.8,38,31.1z"/>
			<path fill="#FFFFFF" d="M39.9,27.5v3.2c0,0.4,0.1,0.7,0.3,0.9c0.2,0.2,0.5,0.3,0.9,0.3c0.5,0,0.9-0.1,1.1-0.4
				c0.2-0.3,0.4-0.8,0.4-1.4v-2.6h0.8v5h-0.6l-0.1-0.7h0c-0.2,0.2-0.4,0.4-0.6,0.6c-0.3,0.1-0.6,0.2-0.9,0.2c-0.6,0-1.1-0.1-1.4-0.4
				c-0.3-0.3-0.5-0.8-0.5-1.4v-3.3H39.9z"/>
			<path fill="#FFFFFF" d="M44.9,26.1c0-0.2,0-0.3,0.1-0.4c0.1-0.1,0.2-0.1,0.3-0.1c0.1,0,0.2,0,0.3,0.1c0.1,0.1,0.1,0.2,0.1,0.4
				s0,0.3-0.1,0.4c-0.1,0.1-0.2,0.1-0.3,0.1c-0.1,0-0.2,0-0.3-0.1C44.9,26.4,44.9,26.3,44.9,26.1z M45.7,32.5h-0.8v-5h0.8V32.5z"/>
			<path fill="#FFFFFF" d="M48.9,32c0.1,0,0.3,0,0.4,0c0.1,0,0.2,0,0.3-0.1v0.6c-0.1,0-0.2,0.1-0.4,0.1c-0.2,0-0.3,0-0.4,0
				c-1,0-1.4-0.5-1.4-1.5v-3h-0.7v-0.4l0.7-0.3l0.3-1.1h0.4v1.2h1.4v0.6h-1.4V31c0,0.3,0.1,0.5,0.2,0.7C48.4,31.9,48.6,32,48.9,32z"
				/>
			<path fill="#FFFFFF" d="M52.7,32.6c-0.7,0-1.3-0.2-1.7-0.7c-0.4-0.4-0.6-1.1-0.6-1.9c0-0.8,0.2-1.4,0.6-1.9
				c0.4-0.5,0.9-0.7,1.6-0.7c0.6,0,1.1,0.2,1.5,0.6c0.4,0.4,0.5,1,0.5,1.6v0.5h-3.4c0,0.6,0.2,1,0.4,1.3c0.3,0.3,0.7,0.5,1.2,0.5
				c0.5,0,1.1-0.1,1.6-0.3v0.7c-0.3,0.1-0.5,0.2-0.8,0.2C53.3,32.6,53,32.6,52.7,32.6z M52.5,28c-0.4,0-0.7,0.1-1,0.4
				c-0.2,0.3-0.4,0.6-0.4,1.1h2.6c0-0.5-0.1-0.8-0.3-1.1C53.2,28.2,52.9,28,52.5,28z"/>
		</g>
	</g>
	<g>
		<line fill="none" stroke="#FFFFFF" stroke-width="1.1753" stroke-miterlimit="10" x1="13.5" y1="24.5" x2="73.1" y2="75.7"/>
		<line fill="none" stroke="#FFFFFF" stroke-width="1.1753" stroke-miterlimit="10" x1="73.1" y1="24.5" x2="15.7" y2="76.4"/>
	</g>
	<g>
		<path fill="#FFFFFF" d="M9.6,54.7v-9.3H14c2,0,3.1,1.4,3.1,3c0,1.6-1.1,3-3.1,3h-2.4v3.3H9.6z M15.1,48.3c0-0.8-0.6-1.3-1.4-1.3
			h-2.1v2.5h2.1C14.5,49.6,15.1,49.1,15.1,48.3z"/>
		<path fill="#FFFFFF" d="M17.7,53.4l1.1-1.6c0.7,0.7,1.7,1.3,3,1.3c1.1,0,1.6-0.5,1.6-1c0-1.6-5.4-0.5-5.4-4c0-1.6,1.3-2.8,3.5-2.8
			c1.5,0,2.7,0.4,3.6,1.3L24.1,48c-0.8-0.7-1.8-1-2.7-1c-0.8,0-1.3,0.4-1.3,0.9c0,1.5,5.4,0.5,5.4,4c0,1.7-1.2,3-3.7,3
			C19.9,54.8,18.6,54.2,17.7,53.4z"/>
	</g>
	<g>
		<path fill="#FFFFFF" d="M69.8,54.7l-0.6-1.6h-4l-0.6,1.6h-2.3l3.6-9.3h2.5l3.6,9.3H69.8z M67.2,47.3l-1.5,4h2.9L67.2,47.3z"/>
		<path fill="#FFFFFF" d="M72.7,46.1c0-0.6,0.5-1,1-1c0.6,0,1.1,0.5,1.1,1s-0.5,1.1-1.1,1.1C73.2,47.2,72.7,46.7,72.7,46.1z
			 M72.8,54.7v-6.8h1.8v6.8H72.8z"/>
	</g>
	<g>
		<path fill="#FFFFFF" d="M37.1,78.6v-9.3h2v9.3H37.1z"/>
		<path fill="#FFFFFF" d="M40.9,78.6v-9.3h3.7c2.9,0,5,1.9,5,4.7c0,2.8-2,4.7-4.9,4.7H40.9z M47.5,73.9c0-1.6-1-2.9-2.9-2.9h-1.7
			v5.8h1.7C46.4,76.8,47.5,75.5,47.5,73.9z"/>
	</g>
</g>
</svg>
