<?xml version="1.0" encoding="utf-8"?>
<!-- Generator: Adobe Illustrator 18.1.0, SVG Export Plug-In . SVG Version: 6.00 Build 0)  -->
<!DOCTYPE svg PUBLIC "-//W3C//DTD SVG 1.1//EN" "http://www.w3.org/Graphics/SVG/1.1/DTD/svg11.dtd">
<svg version="1.1" id="Layer_1" xmlns="http://www.w3.org/2000/svg" xmlns:xlink="http://www.w3.org/1999/xlink" x="0px" y="0px"
	 viewBox="594.454 0 676.769 1080" enable-background="new 594.454 0 676.769 1080" xml:space="preserve">
<path fill="#5E5E5E" d="M1179.699,241.216c-4.999,3.091-10.49,6.124-16.5,8.983c-0.113,0-0.113,0.116-0.285,0.116
	c-13.312,5.506-26.893,10.781-40.59,15.495c6.28,0.617,12.691,1.177,18.971,1.51c60.31,4.498,75.902,0.401,79.782-1.51
	C1210.802,259.241,1196.196,250.647,1179.699,241.216 M1134.611,174.628c0,1.795-0.1,3.477-0.273,5.274
	c-0.617,6.681-5.002,11.799-12.52,15.507c8.811,4.986,17.506,9.989,26.1,14.702c10.781,6.008,21.39,12.018,31.391,17.681
	c13.584-9.876,21.274-20.885,22.796-32.9c3.191-24.979-20.105-48.107-27.006-54.402c-14.878,2.027-30.886,3.824-47.618,5.622
	C1132.197,155.153,1134.611,164.753,1134.611,174.628 M1161.404,130.559c-18.082-10.505-42.501-17.017-68.272-20.998
	c11.498,8.078,20.597,16.616,27.394,25.599C1134.784,133.751,1148.481,132.241,1161.404,130.559 M1114.907,147.232
	c-21.271,2.027-43.506,3.824-66.073,5.39c18.298,11.282,39.067,23.3,59.906,35.2c11.674-3.088,13.973-6.897,14.201-9.199
	C1123.73,169.739,1122.092,158.962,1114.907,147.232 M1054.325,70.368c-8.307,2.7-17.506,5.115-26.89,7.185
	c8.595,2.919,16.788,6.124,24.591,9.6c5.791,2.415,11.125,5.002,16.284,7.689c61.196,5.795,93.483,20.224,110.268,33.577
	c0.793-0.1,1.682-0.273,2.415-0.389c44.067-6.296,65.8-11.786,74.668-15.379c-52.604-5.29-104.978-14.718-155.687-27.914
	C1085.327,80.758,1069.603,75.483,1054.325,70.368 M1062.299,215.56c0,2.302-0.389,4.601-1.293,6.784
	c-4.714,12.018-21.387,19.492-46.366,24.995c11.282,4.213,21.503,7.301,29.465,8.695c9.212,1.682,28.026,4.385,50.303,6.916
	c21.906-6.916,43.293-14.605,64.018-23.2c3.477-1.682,6.784-3.304,9.7-4.986c-8.307-4.714-17.001-9.6-25.984-14.602
	c-11.398-6.396-23.297-13.196-35.315-19.98c-12.187,2.691-28.183,3.984-47.888,4.197
	C1061.297,208.146,1062.299,212.027,1062.299,215.56 M1035.412,354.23c-12.519,8.206-28.186,16.788-45.203,25.712
	c11.511,5.29,23.701,11.398,35.716,18.198c3.304,1.911,7.574,4.21,12.175,7.013c46.61-11.514,59.402-22.68,59.69-27.006
	c0-0.276,0-7.906-32.684-17.004C1056.639,358.615,1046.808,356.429,1035.412,354.23 M993.802,103.942
	c-3.981,0.404-5.779,1.021-6.396,1.409c0.617,2.415,5.791,11.398,44.799,36.766c25.095-1.51,50.306-3.48,74.508-5.607
	c-8.811-9.888-22.176-20.208-41.376-30.21C1039.118,103.77,1013.406,103.554,993.802,103.942 M1021.829,293.82
	c-16.4,3.48-32.797,6.512-49.413,8.983c24.089,13.584,25.884,26.276,24.089,33.404c13.697,1.911,25.712,3.821,36.377,5.791
	c22.523-15.495,22.407-22.68,21.286-25.095C1050.632,309.315,1038.717,301.625,1021.829,293.82 M968.551,156.446
	c-0.793,2.183-1.525,4.37-2.415,6.669c30.197,4.614,57.764,14.602,81.408,29.708c4.482,0,8.983,0,13.193-0.116
	c12.404-0.285,22.392-0.89,30.313-1.795c-21.618-12.403-42.617-24.822-60.582-36.22c-0.501-0.273-0.89-0.617-1.394-0.893
	c-14.214,0.793-28.587,1.51-42.617,2.03C980.449,156.158,974.442,156.33,968.551,156.446 M961.634,174.124
	c-2.011,4.714-4.21,9.6-6.681,14.99c24.202,1.51,47.386,2.703,68.269,3.307C1004.539,183.439,983.814,177.328,961.634,174.124
	 M994.203,251.047c-12.303,2.014-26,3.693-40.706,5.491c26.777,8.322,50.807,16.516,69.894,25.111
	c14.602-3.207,29.079-6.684,43.293-10.621c-10.508-1.397-19.087-2.691-24.594-3.708
	C1030.909,265.248,1013.519,259.513,994.203,251.047 M1009.638,620.975c0-1.911-1.005-3.593-1.798-4.498
	c-5.387-6.283-20.998-10.608-47.603-1.682c-2.415,0.905-5.002,1.682-7.301,2.415c8.983,5.791,19.476,10.217,32.108,12.804
	c14.317,1.51,21.906-2.587,23.917-6.509C1009.409,622.772,1009.638,621.868,1009.638,620.975 M977.245,386.626
	c-3.48,1.798-7.013,3.593-10.608,5.506c-5.115,2.688-10.39,5.387-15.492,7.918c13.409,4.21,27.895,9.099,41.207,14.202
	c9.873-1.51,19.821-3.48,29.477-5.506c-0.401-0.273-0.905-0.501-1.293-0.777C1005.717,399.935,990.826,392.518,977.245,386.626
	 M949.619,200.225c-1.293,2.587-2.572,5.29-3.809,8.094c-0.401,0.89-0.906,1.795-1.293,2.804
	c15.996,10.893,33.906,20.494,50.807,28.183c5.895-1.005,11.514-2.011,16.788-3.191c28.186-6.293,36.377-13.193,38.175-17.923
	c1.293-3.191-0.116-7.401-4.213-12.288c-0.617-0.504-1.394-0.906-2.011-1.409C1017.835,204.049,986.341,202.539,949.619,200.225
	 M937.332,199.448c-3.091-0.285-6.124-0.401-9.215-0.617c2.302,1.798,4.601,3.708,7.016,5.506c0.113-0.288,0.285-0.62,0.517-0.905
	C936.039,202.138,936.712,200.742,937.332,199.448 M939.515,221.627c-4.097,8.695-8.191,17.506-11.899,26.272
	c4.097-0.501,8.307-1.005,12.691-1.406c11.282-1.293,23.181-2.691,34.811-4.213C963.316,236.216,951.029,229.26,939.515,221.627
	 M1041.693,452.712c-13.08,31.606-68.488,26.605-121.998,21.775h-0.113c10.117,3.32,22.175,6.412,36.217,9.215
	c63.615,12.516,126.884,9.484,138.166-6.9c1.181-1.694,2.302-4.385-0.113-10.004c-5.895-12.792-26.893-30.698-57.491-49.397
	c-0.389,0.113-0.62,0.113-1.008,0.273c-7.574,1.795-15.495,3.492-23.585,5.002c14.89,6.897,26.288,14.198,29.48,20.998
	C1043.102,447.437,1042.426,450.685,1041.693,452.712 M922.73,260.131c-2.186,5.506-4.097,11.009-5.779,16.284
	c12.908,5.118,25.211,11.285,37.282,17.293c0.1,0,0.1,0.113,0.273,0.113c16.284-2.183,32.512-4.886,48.511-7.918
	c-22.684-8.811-50.478-17.506-78.608-25.871C923.735,260.03,923.231,260.131,922.73,260.131 M936.539,407.624
	c-8.595,4.601-16.785,9.099-24.086,13.424c4.382-0.116,8.595-0.288,12.804-0.501h0.388c11.514,0.1,26.388-1.021,42.4-2.819
	C958.214,414.424,947.709,411.003,936.539,407.624 M913.919,287.54c-0.906,3.693-1.525,7.401-1.914,10.781
	c7.188-0.62,14.318-1.293,21.503-2.027C927.112,293.146,920.544,290.228,913.919,287.54 M952.439,305.607
	c-13.424,1.798-27.009,3.204-40.706,4.385c0.388,3.32,1.281,6.396,2.688,8.983c3.207,5.791,9.487,9.096,18.975,9.989
	c19.084,1.911,36.217,3.824,51.483,5.791c0.113-0.288,0.285-0.501,0.285-0.79c1.51-4.886-3.981-14.202-24.475-24.089
	C958.042,308.425,955.239,307.016,952.439,305.607 M949.619,172.83c-12.288-1.177-24.807-1.293-37.887-0.617h-0.288
	c-2.8,0-5.619,0.113-8.479,0.501c3.091,4.614,6.912,9.215,11.398,13.697c9.487,0.62,18.971,1.293,28.299,1.813
	C945.022,183.051,947.437,177.833,949.619,172.83 M956.131,156.835c-22.179,0.501-43.277,0.501-62.982,0.113
	c1.177,1.682,2.299,3.48,3.477,5.102c4.889-0.89,9.716-1.293,14.589-1.293c14.89-0.774,29.205-0.501,43.017,1.021
	C955.01,160.039,955.627,158.344,956.131,156.835 M963.216,380.907c-12.804-4.886-23.585-8.094-30.886-8.826
	c-16.616-1.682-31.606,1.525-46.209,6.684c9.212,4.213,18.815,8.091,28.587,10.781c5.779,1.522,12.792,3.593,20.597,5.791
	c8.091-4.213,16.785-8.71,26-13.424C961.923,381.524,962.543,381.236,963.216,380.907 M909.65,261.929
	c-8.194,1.293-16.4,2.816-24.478,4.498c2.804,0.617,5.102,1.293,6.8,1.682c4.87,1.293,9.484,2.703,14.086,4.213
	C907.119,268.957,908.413,265.521,909.65,261.929 M983.137,49.367c-34.078-4.714-70.8-4.598-99.587,0.793
	c41.88,2.415,84.092,9.484,121.65,20.208c10.778-2.014,20.898-4.213,29.981-6.684C1017.5,58.078,999.925,52.746,983.137,49.367
	 M894.427,432.719c-13.077,9.603-15.492,14.718-15.608,17.017c0.906,3.191,4.109,6.784,9.6,10.608
	c10.12,0.617,20.998,1.522,32.296,2.587c46.869,4.21,100.091,9.099,110.255-14.489c-0.62-1.293-4.989-7.918-34.078-19.993
	c-1.914-0.774-3.809-1.679-5.895-2.415c-24.475,3.824-48.104,6.011-65.296,5.907C923.519,432.218,911.216,432.719,894.427,432.719
	 M962.039,133.535c0-1.911-0.288-3.477-0.793-4.714c-0.501-1.293-1.29-1.911-2.7-2.299c-14.473-4.886-48.107-2.315-88.481,6.108
	c5.002,4.097,9.487,8.206,13.584,12.519c23.413,0.617,49.024,0.79,76.419,0.116C961.246,140.55,962.039,136.569,962.039,133.535
	 M890.835,175.13c-7.401,2.027-14.875,4.886-22.279,8.31c9.703,0.617,19.592,1.293,29.468,1.911
	C895.333,182.043,892.921,178.565,890.835,175.13 M989.549,346.829c-10.509,8.695-31.103,12.015-56.99,8.467
	c-21.903-2.919-52.504-0.893-82.986,5.619c5.619,2.7,11.009,5.39,16.513,8.191c1.911,0.906,3.708,1.914,5.607,2.819
	c19.2-7.805,38.692-13.424,61.704-11.282c10.001,1.005,25.496,5.892,43.289,13.293c14.874-7.689,29.305-15.379,41.708-22.796
	C1009.525,349.632,999.925,348.222,989.549,346.829 M850.649,60.881c-7.921,4.213-13.713,9.487-16.4,15.608
	c0,0.116-0.116,0.288-0.116,0.288c0.908,0.893,6.684,5.607,36.897,6.396c21.387,0.504,49.786-1.005,79.767-4.498
	c9.099-1.005,18.082-2.299,26.793-3.593c-36.509-8.467-76.422-13.584-114.982-14.202C862.608,60.881,850.649,60.881,850.649,60.881z
	 M855.247,135.837c-5.503,1.293-11.009,2.688-16.613,4.094c-2.703,0.793-5.39,1.409-8.094,2.186
	c11.125,1.021,23.084,1.795,35.703,2.315C862.937,141.456,859.228,138.637,855.247,135.837 M849.124,193.829
	c-7.185,4.213-14.198,8.594-21.271,13.08c-4.886,3.091-9.888,6.124-14.718,9.099c19.705,6.008,41.495,12.188,62.997,18.194
	c13.581,3.809,27.006,7.574,40.201,11.398c4.21-10.004,8.983-20.221,13.81-30.601c-7.586-5.503-14.486-11.282-20.725-17.29h-0.1
	C889.714,196.36,869.449,194.95,849.124,193.829 M871.36,384.443c-4.498,1.911-8.811,3.809-13.309,5.892
	c-11.282,5.002-22.909,10.22-35.315,14.202c-1.911,0.617-3.821,1.293-5.892,1.911c-5.39,1.798-10.893,3.593-16.4,5.274
	c10.508,2.919,23.817,5.274,39.584,6.912c15.219,1.51,32.784,2.415,50.478,2.575c8.191-5.607,18.295-11.671,30.21-18.182
	c-2.931-0.905-6.008-1.682-9.099-2.587C897.359,396.73,884.211,390.723,871.36,384.443 M896.742,575.098
	c-8.71-10.781-17.017-19.304-27.523-22.68c-34.078-10.881-66.806-2.919-80.892,6.681c0.1,0.62,0.504,1.525,1.394,2.415
	C801.064,573.472,852.547,577.798,896.742,575.098 M774.572,393.811c0,1.682,0.389,4.097,3.079,6.916
	c1.406,1.394,3.204,2.8,5.387,4.21c10.22-2.703,20.224-6.008,30.213-9.212c1.911-0.62,3.981-1.293,5.892-1.914
	c11.902-3.809,23.184-8.983,34.194-13.81c1.51-0.62,3.091-1.394,4.598-2.014c-8.983-4.498-17.678-8.823-26.601-12.416
	C796.074,374.839,777.435,386.51,774.572,393.811 M825.151,267.043c-33.401-3.821-62.377-2.7-74.276,7.577
	c-1.798,1.522-3.091,3.204-3.981,5.002c25.984-2.703,49.802-7.188,65.293-10.22c3.981-0.79,7.404-1.409,10.22-1.911
	C823.356,267.319,824.261,267.159,825.151,267.043 M830.829,61.442c-34.983,1.798-64.175,7.805-84.284,17.177
	c12.691,2.931,26.793,7.028,42.4,12.416c27.898,9.603,50.694,20.381,68.776,32.396c40.198-9.096,83.879-14.99,104.473-8.091
	c4.501,1.409,7.805,4.498,9.716,8.71c2.302,5.274,2.186,12.172,0.288,20.71c13.296-0.389,26.893-0.89,40.978-1.682
	c-32.512-22.407-38.679-32.684-36.997-40.587c1.293-5.907,7.016-9.331,16.904-10.22h0.385c15.106-0.288,28.919-0.116,41.883,0.273
	c-9.716-3.708-19.993-7.185-30.714-10.377c-17.004,3.191-32.28,5.39-40.803,6.396c-49.805,6.512-114.885,10.22-134.085-0.906
	c-7.805-4.485-8.194-11.282-5.895-16.112C825.439,68.066,827.737,64.646,830.829,61.442 M857.835,272.145
	c-10.893,2.315-22.175,4.717-33.417,6.684c-2.688,0.504-6.108,1.181-10.105,1.914c-16.497,3.204-41.492,7.918-68.889,10.605
	c1.181,2.415,7.921,5.791,19.821,6.8c44.699,3.821,90.003,4.21,134.977,1.005c0.385-4.989,1.394-10.22,2.688-15.767
	c-4.601-1.525-9.199-2.931-13.813-4.213C878.82,276.53,868.327,274.231,857.835,272.145 M828.746,192.651
	c-28.691-1.51-57.206-2.587-83.883-2.688c10.608,6.669,29.984,13.813,53.397,21.387c7.805-4.498,15.608-9.328,23.413-14.314
	C824.032,195.626,826.331,194.217,828.746,192.651 M802.242,150.768c-28.286,9.487-49.902,19.492-59.289,27.51
	c32.008,0.116,67.207,1.682,103.312,3.824c12.519-7.188,25.211-13.424,38.404-17.293c-1.911-2.816-4.094-5.619-6.409-8.319
	c-21.891-0.777-41.883-1.898-59.79-3.809C812.863,152.061,807.472,151.445,802.242,150.768 M725.046,93.277
	c-5.506,10.105-3.708,17.794,6.008,24.979c12.404,9.099,36.606,16.112,70.571,20.725c15.507-5.115,28.688-8.707,34.191-10.101
	c2.027-0.52,4.097-1.021,6.123-1.525c-15.608-9.212-34.407-17.521-56.874-25.368c-19.473-6.8-37.398-11.514-53.394-14.602
	C729.14,89.352,726.957,91.25,725.046,93.277 M690.349,362.32c-7.574,3.708-15.996,9.876-14.198,18.586
	c2.916,13.309,28.688,28.572,60.795,29.076h0.404c10.49,0.906,20.998,0,31.375-1.911c-4.213-4.717-6.108-10.22-5.607-15.999
	c0-0.388,0.116-0.79,0.273-1.177c4.385-14.314,29.308-25.383,49.416-32.007c-2.703-0.777-5.506-1.394-8.31-1.898
	C773.338,350.637,728.135,346.713,690.349,362.32 M728.251,190.12c-21.286,0.288-40.819,1.293-57.995,3.32
	c9.315,10.608,20.381,20.381,32.396,28.302c28.286,16.268,54.791,10.489,81.408-2.819c-24.478-8.191-43.004-16.112-51.884-23.802
	C730.549,193.557,729.14,191.918,728.251,190.12 M716.969,85.142c-37.614-4.498-63.286,3.076-72.886,22.68
	c-7.013,14.086-4.873,34.41,5.791,55.696c3.307,6.509,7.301,13.077,12.018,19.473c19.2-2.916,41.88-4.21,66.587-4.598
	c0.1-0.288,0.273-0.617,0.504-0.905c6.108-10.997,27.51-21.775,49.902-30.313c-31.375-5.892-51.584-14.486-61.472-25.712
	c-6.008-6.8-11.11-18.298-2.027-34.31c0.288-0.389,0.401-0.617,0.79-1.005C716.348,85.76,716.737,85.471,716.969,85.142
	 M656.774,195.354c-22.291,3.809-38.679,9.989-46.366,19.473c-4.617,5.622-5.622,12.406-3.207,20.713
	c8.31,29.092,38.404,44.584,89.502,46.209c12.404,0.401,25.195,0,37.611-1.005c1.293-5.779,4.37-10.897,8.983-14.878
	c21.618-18.699,76.578-12.519,114.076-5.503c0.793-0.116,1.525-0.273,2.202-0.504c12.404-2.703,25.092-5.39,37.999-7.689
	c-8.479-2.415-16.785-4.714-24.807-7.028c-26.617-7.401-51.712-14.586-73.386-21.387c-32.283,17.909-65.913,28.918-102.679,7.689
	c-0.116,0-0.288-0.1-0.288-0.1C681.252,221.339,667.784,209.051,656.774,195.354 M594.454,227.462
	c0-7.301,2.299-13.985,7.028-19.821c8.695-10.781,25.368-17.91,47.603-22.508c-3.593-5.39-6.9-10.893-9.716-16.513
	c-12.404-24.81-14.489-48.279-5.779-65.916c8.194-16.5,31.103-38.288,95.393-27.51c24.478-16.112,66.186-25.208,118.791-25.712
	c11.009-5.503,25.383-9.484,42.616-12.015c27.682-3.981,62.994-3.708,94.488,0.617h0.285c22.508,4.385,46.209,12.403,69.161,20.108
	c23.3-7.918,25.383-13.54,25.383-13.813c0.116-0.501-0.617-1.409-1.51-2.199c-37.167-22.003-89.555-32.728-147.666-30.313
	c-52.777,2.186-104.589,14.202-154.779,25.715h-0.116c-3.091,0.79-6.123-1.293-6.912-4.385c-0.777-3.076,1.293-6.108,4.382-6.9
	h0.116c50.634-11.511,103.026-23.642,156.809-25.94c60.579-2.575,115.367,8.811,154.388,32.123c0.288,0.1,0.505,0.273,0.793,0.501
	c6.509,5.39,7.918,12.403,3.477,18.699c-3.091,4.485-9.212,8.467-17.406,12.175c10.893,3.593,21.387,6.912,31.606,9.6
	c50.591,13.196,102.807,22.523,155.299,27.798c0.388,0,0.617,0.116,1.005,0.273c3.204,0.906,11.686,3.32,12.015,10.105
	c0.401,6.912-7.806,10.22-11.398,11.686c-12.403,5.002-37.614,10.217-70.399,15.106c10.897,11.498,27.281,33.401,24.089,57.88
	c-1.798,13.982-9.6,26.617-23.413,37.611c15.106,8.71,28.399,16.516,38.003,22.796c0.401,0.288,0.79,0.504,1.021,0.906
	c5.776,6.008,4.37,10.997,3.076,13.296c-3.307,6.008-13.08,8.983-32.901,9.716c-14.086,0.617-33.016,0-56.085-1.682
	c-15.996-1.177-32.509-2.703-47.615-4.486c-18.298,5.607-36.997,10.781-55.969,15.207c12.691,7.013,21.387,14.317,25.095,22.006
	c5.118,10.621-1.911,21.615-16.4,33.186c53.121,11.514,61.604,23.413,61.087,33.689c-0.388,8.482-8.31,15.996-24.305,23.184
	c-8.695,3.981-20.093,7.918-33.401,11.511c20.882,13.584,44.915,31.879,52.604,48.511c4.598,10.105,2.027,17.29-0.908,21.387
	c-7.903,11.398-28.167,17.907-59.89,19.316c-26.617,1.177-59.402-1.682-89.887-7.69c-16.516-3.32-48.508-10.781-68.616-23.197
	c-24.305-1.293-44.684-0.1-47.502,9.212c0.517,1.293,3.207,4.886,15.395,11.009c10.605,5.39,24.979,10.997,40.201,16.889
	c41.091,16.012,79.883,31.219,78.99,52.777c0,0.288,0,0.617-0.113,0.906c-1.525,7.013-8.983,12.288-23.585,16.384
	c-7.906,2.315-18.082,4.113-29.308,5.506c6.684,8.307,13.813,16.901,22.523,24.318c4.886-1.522,9.873-3.204,14.99-5.002
	c20.998-7.013,47.891-9.312,60.063,5.102c5.002,5.907,5.895,13.424,2.587,19.821c-5.102,9.716-18.583,14.486-35.7,12.519
	c-0.116,0-0.404,0-0.52-0.1c-18.067-3.596-32.108-10.781-43.778-19.604c-2.587,0.79-5.002,1.694-7.589,2.415
	c-28.399,9.212-55.292,17.907-59.173,25.712c-0.388,0.79-0.388,1.522-0.113,2.415c2.412,6.912,21.111,13.193,36.101,18.194
	c26.103,8.695,55.812,18.699,52.492,42.272c-1.181,14.602-20.713,21.788-39.584,28.688c-12.792,4.729-27.278,10.004-30.698,16.128
	c-1.293,4.87,1.293,9.484,6.781,18.411c8.094,13.309,20.224,33.401,20.381,70.01l-0.1,228.67c0,3.204-2.587,5.779-5.791,5.779
	s-5.779-2.575-5.779-5.779l0.116-228.67c-0.116-33.405-10.893-51.095-18.699-64.002c-5.892-9.716-11.009-18.198-7.689-28.299
	c0.1-0.288,0.1-0.504,0.273-0.793c5.118-10.377,20.725-16.112,37.285-22.276c14.082-5.29,31.603-11.686,32.108-18.987v-0.504
	c2.027-14.086-22.796-22.407-44.687-29.809c-20.998-7.013-39.08-13.08-43.29-25.383c-1.394-3.809-1.177-7.802,0.617-11.398
	c6.008-12.172,28.575-19.473,65.913-31.603c0.288-0.116,0.504-0.116,0.793-0.276c-9.215-8.707-16.616-18.195-23.585-27.006
	c-15.379,1.281-32.111,1.682-48.511,1.177c-22.508-0.79-62.377-4.109-75.397-17.691c-4.385-4.485-5.619-9.989-3.809-15.495
	c0.388-1.005,1.005-2.027,1.895-2.688c17.406-13.713,56.097-21.791,93.21-9.888c15.608,5.002,26.605,18.194,37.887,32.512
	c13.193-1.293,25.108-3.32,34.423-5.895c10.893-3.088,14.602-6.296,15.379-7.417c-0.777-13.193-43.277-29.809-71.576-40.819
	c-39.412-15.379-61.876-24.807-62.997-38.288v-1.408c2.688-15.88,20.381-20.208,45.203-20.208c-1.81-2.587-3.207-5.274-3.708-8.078
	c-0.116-0.401-0.116-0.617-0.116-1.018c-0.116-5.895,3.091-11.902,9.487-18.182c-32.111-0.905-72.196-4.385-94.992-15.395
	c-14.602,3.492-29.592,5.619-44.912,4.385c-35.603-0.62-67.094-17.406-71.708-38.003c-1.682-7.185-1.005-20.898,20.497-31.506
	c0.116,0,0.288-0.113,0.288-0.113c40.474-16.889,88.089-12.679,120.989-6.108c8.811,1.795,17.29,4.37,25.368,7.574
	c36.22-9.487,75.3-12.923,102.19-9.328c13.412,1.795,24.19,1.522,32.396,0.113c-10.778-1.293-22.291-2.415-34.307-3.708
	c-13.309-1.394-22.796-6.668-27.91-15.88c-2.302-3.981-3.596-8.595-4.097-13.697c-45.188,3.204-90.895,2.804-135.983-1.177
	c-18.295-1.525-29.305-7.805-30.482-17.293c-58.383,4.37-123.063-2.299-137.778-53.682
	C595.071,234.763,594.454,231.055,594.454,227.462"/>
</svg>
