<?xml version="1.0" encoding="utf-8"?>
<!-- Generator: Adobe Illustrator 18.1.0, SVG Export Plug-In . SVG Version: 6.00 Build 0)  -->
<!DOCTYPE svg PUBLIC "-//W3C//DTD SVG 1.1//EN" "http://www.w3.org/Graphics/SVG/1.1/DTD/svg11.dtd">
<svg version="1.1" id="Layer_1" xmlns="http://www.w3.org/2000/svg" xmlns:xlink="http://www.w3.org/1999/xlink" x="0px" y="0px"
	 viewBox="0 0 344.809 216.071" enable-background="new 0 0 344.809 216.071" xml:space="preserve">
<path fill="#5e5e5e" d="M77.012,29.221c0.987,1.596,1.955,3.349,2.868,5.268c0,0.036,0.037,0.036,0.037,0.091
	c1.758,4.25,3.442,8.586,4.947,12.959c0.197-2.005,0.376-4.052,0.482-6.057c1.436-19.255,0.128-24.233-0.482-25.472
	C82.767,19.291,80.023,23.954,77.012,29.221 M55.753,43.616c0.573,0,1.11,0.032,1.684,0.087c2.133,0.197,3.767,1.597,4.951,3.997
	c1.592-2.813,3.189-5.589,4.694-8.333c1.918-3.442,3.837-6.829,5.645-10.022c-3.153-4.337-6.668-6.792-10.504-7.278
	c-7.975-1.019-15.359,6.419-17.369,8.622c0.647,4.75,1.221,9.861,1.795,15.203C49.535,44.387,52.6,43.616,55.753,43.616
	 M41.683,35.062c-3.354,5.773-5.433,13.569-6.704,21.797c2.579-3.671,5.305-6.576,8.173-8.746
	C42.702,43.561,42.22,39.188,41.683,35.062 M47.006,49.907c0.647,6.791,1.221,13.89,1.721,21.095
	c3.602-5.842,7.439-12.473,11.238-19.126c-0.986-3.727-2.202-4.461-2.937-4.534C54.192,47.09,50.751,47.613,47.006,49.907
	 M22.466,69.249c0.862,2.652,1.633,5.589,2.294,8.585c0.932-2.744,1.955-5.36,3.065-7.851c0.771-1.849,1.597-3.552,2.455-5.199
	C32.13,45.246,36.737,34.938,41,29.579c-0.032-0.253-0.087-0.537-0.124-0.771c-2.01-14.069-3.763-21.008-4.91-23.839
	c-1.689,16.795-4.699,33.516-8.912,49.706C25.783,59.351,24.099,64.371,22.466,69.249 M68.821,66.703
	c0.735,0,1.469,0.124,2.166,0.413c3.837,1.505,6.223,6.828,7.98,14.803c1.345-3.602,2.331-6.865,2.776-9.407
	c0.537-2.941,1.4-8.948,2.208-16.06c-2.208-6.994-4.663-13.822-7.407-20.439c-0.537-1.11-1.055-2.166-1.592-3.097
	c-1.505,2.652-3.065,5.428-4.662,8.296c-2.042,3.639-4.213,7.438-6.379,11.275c0.859,3.891,1.272,8.998,1.34,15.289
	C66.454,67.023,67.693,66.703,68.821,66.703 M113.094,75.287c2.62,3.997,5.36,8.999,8.209,14.432
	c1.689-3.675,3.639-7.567,5.81-11.403c0.61-1.055,1.344-2.418,2.239-3.887c-3.676-14.881-7.241-18.965-8.622-19.057
	c-0.088,0-2.524,0-5.429,10.435C114.494,68.51,113.796,71.649,113.094,75.287 M33.185,88.572c0.129,1.271,0.326,1.845,0.45,2.042
	c0.771-0.197,3.639-1.849,11.738-14.303c-0.482-8.012-1.111-16.061-1.79-23.788c-3.157,2.813-6.452,7.08-9.645,13.21
	C33.13,74.104,33.061,82.313,33.185,88.572 M93.807,79.624c1.111,5.236,2.079,10.471,2.868,15.776
	c4.337-7.691,8.389-8.264,10.665-7.691c0.61-4.373,1.22-8.209,1.849-11.614c-4.947-7.191-7.241-7.154-8.012-6.796
	C98.754,70.428,96.299,74.232,93.807,79.624 M49.948,96.634c0.697,0.253,1.395,0.487,2.129,0.771
	c1.473-9.641,4.662-18.442,9.485-25.991c0-1.431,0-2.868-0.037-4.212c-0.091-3.96-0.284-7.149-0.573-9.678
	c-3.96,6.902-7.925,13.606-11.564,19.342c-0.087,0.16-0.197,0.284-0.285,0.445c0.253,4.538,0.482,9.127,0.648,13.606
	C49.856,92.835,49.911,94.753,49.948,96.634 M55.592,98.842c1.505,0.642,3.065,1.344,4.786,2.133
	c0.482-7.727,0.863-15.129,1.056-21.796C58.566,85.144,56.615,91.761,55.592,98.842 M80.151,88.444
	c0.643,3.928,1.179,8.301,1.753,12.996c2.657-8.549,5.273-16.221,8.017-22.315c-1.024-4.662-2.134-9.284-3.391-13.822
	c-0.446,3.355-0.859,6.094-1.184,7.852C84.685,76.725,82.854,82.277,80.151,88.444 M198.257,83.516c-0.61,0-1.147,0.321-1.436,0.574
	c-2.006,1.72-3.387,6.704-0.537,15.198c0.289,0.771,0.537,1.597,0.771,2.331c1.849-2.868,3.262-6.218,4.088-10.251
	c0.482-4.571-0.826-6.994-2.078-7.636C198.831,83.589,198.542,83.516,198.257,83.516 M123.437,93.858
	c0.574,1.111,1.147,2.239,1.758,3.387c0.858,1.633,1.72,3.317,2.528,4.946c1.344-4.281,2.905-8.906,4.534-13.156
	c-0.482-3.152-1.111-6.328-1.758-9.411c-0.087,0.128-0.16,0.289-0.248,0.413C127.686,84.768,125.318,89.522,123.437,93.858
	 M63.925,102.678c0.826,0.413,1.689,0.821,2.584,1.216c0.284,0.128,0.573,0.289,0.895,0.413c3.478-5.107,6.543-10.825,8.998-16.221
	c-0.321-1.882-0.642-3.676-1.019-5.36c-2.009-8.999-4.212-11.614-5.722-12.188c-1.019-0.413-2.363,0.037-3.923,1.345
	c-0.161,0.197-0.289,0.445-0.45,0.642C65.146,80.899,64.664,90.954,63.925,102.678 M63.677,106.601
	c-0.091,0.987-0.128,1.955-0.197,2.942c0.574-0.735,1.184-1.469,1.758-2.24c-0.092-0.036-0.198-0.091-0.289-0.165
	C64.536,107.014,64.09,106.799,63.677,106.601 M70.758,105.904c2.776,1.308,5.589,2.615,8.388,3.799
	c-0.16-1.308-0.321-2.652-0.449-4.052c-0.413-3.602-0.859-7.401-1.345-11.114C75.416,98.305,73.195,102.228,70.758,105.904
	 M144.536,73.282c10.091,4.176,8.494,21.866,6.952,38.95v0.036c1.06-3.23,2.047-7.08,2.942-11.563
	c3.996-20.31,3.028-40.51-2.203-44.112c-0.541-0.377-1.4-0.735-3.194,0.036c-4.084,1.882-9.801,8.586-15.771,18.355
	c0.036,0.124,0.036,0.198,0.087,0.322c0.573,2.418,1.115,4.947,1.597,7.53c2.202-4.754,4.533-8.393,6.704-9.412
	C142.852,72.832,143.889,73.048,144.536,73.282 M83.051,111.263c1.758,0.698,3.515,1.308,5.199,1.845
	c1.634-4.121,3.603-8.049,5.521-11.903c0-0.032,0.036-0.032,0.036-0.087c-0.697-5.199-1.56-10.38-2.528-15.488
	c-2.813,7.242-5.589,16.116-8.26,25.097C83.019,110.942,83.051,111.103,83.051,111.263 M130.141,106.854
	c1.469,2.744,2.905,5.359,4.286,7.69c-0.037-1.399-0.092-2.744-0.16-4.088v-0.124c0.032-3.676-0.326-8.425-0.9-13.537
	C132.312,99.934,131.22,103.288,130.141,106.854 M91.802,114.076c1.179,0.289,2.363,0.487,3.442,0.611
	c-0.198-2.295-0.413-4.571-0.647-6.865C93.592,109.864,92.66,111.961,91.802,114.076 M97.57,101.778
	c0.574,4.286,1.023,8.623,1.4,12.996c1.06-0.124,2.042-0.409,2.868-0.858c1.849-1.024,2.904-3.029,3.189-6.058
	c0.61-6.093,1.221-11.563,1.849-16.437c-0.092-0.036-0.16-0.091-0.252-0.091c-1.56-0.482-4.534,1.271-7.691,7.814
	C98.47,99.989,98.02,100.884,97.57,101.778 M55.179,102.678c-0.376,3.923-0.413,7.92-0.197,12.096v0.092
	c0,0.894,0.036,1.794,0.16,2.707c1.473-0.987,2.942-2.207,4.373-3.639c0.198-3.029,0.413-6.057,0.579-9.035
	C58.442,104.146,56.776,103.375,55.179,102.678 M50.072,100.599c0.16,7.081,0.16,13.817,0.036,20.108
	c0.537-0.376,1.111-0.734,1.629-1.11c-0.284-1.561-0.413-3.102-0.413-4.658c-0.247-4.754-0.16-9.324,0.326-13.734
	C51.095,100.957,50.554,100.76,50.072,100.599 M121.611,98.337c-1.56,4.088-2.584,7.53-2.818,9.861
	c-0.537,5.305,0.487,10.091,2.134,14.753c1.345-2.941,2.583-6.007,3.442-9.127c0.486-1.845,1.147-4.084,1.849-6.576
	c-1.345-2.583-2.781-5.359-4.286-8.301C121.808,98.75,121.716,98.552,121.611,98.337 M83.625,115.439
	c0.413,2.616,0.899,5.236,1.436,7.815c0.197-0.895,0.413-1.629,0.537-2.171c0.413-1.555,0.863-3.028,1.345-4.497
	C85.869,116.247,84.772,115.834,83.625,115.439 M15.761,91.977c-1.505,10.88-1.468,22.604,0.253,31.795
	c0.771-13.371,3.028-26.848,6.452-38.839c-0.643-3.441-1.345-6.672-2.134-9.572C18.542,81.006,16.84,86.617,15.761,91.977
	 M138.153,120.299c3.066,4.175,4.699,4.946,5.433,4.983c1.019-0.289,2.166-1.312,3.387-3.065c0.197-3.231,0.486-6.704,0.826-10.311
	c1.344-14.964,2.905-31.956-4.626-35.201c-0.413,0.198-2.528,1.593-6.383,10.88c-0.247,0.611-0.536,1.216-0.771,1.882
	c1.221,7.814,1.919,15.358,1.886,20.847C137.993,111.011,138.153,114.939,138.153,120.299 M42.633,98.713
	c-0.61,0-1.11,0.092-1.505,0.253c-0.413,0.16-0.61,0.412-0.734,0.862c-1.56,4.621-0.739,15.359,1.95,28.249
	c1.308-1.597,2.62-3.029,3.997-4.337c0.197-7.475,0.252-15.652,0.037-24.398C44.873,98.966,43.602,98.713,42.633,98.713
	 M55.913,121.446c0.647,2.363,1.56,4.749,2.653,7.113c0.197-3.098,0.413-6.255,0.61-9.408C58.12,120.01,57.01,120.78,55.913,121.446
	 M110.731,89.93c2.776,3.355,3.836,9.93,2.703,18.195c-0.932,6.993-0.285,16.763,1.794,26.495c0.862-1.794,1.721-3.515,2.615-5.272
	c0.289-0.61,0.611-1.184,0.9-1.79c-2.492-6.13-4.286-12.353-3.602-19.7c0.321-3.193,1.881-8.14,4.244-13.821
	c-2.455-4.749-4.91-9.356-7.278-13.316C111.626,83.552,111.176,86.617,110.731,89.93 M19.437,134.276
	c1.345,2.529,3.029,4.378,4.983,5.236c0.037,0,0.092,0.037,0.092,0.037c0.285-0.29,1.79-2.134,2.042-11.78
	c0.161-6.828-0.321-15.895-1.436-25.467c-0.321-2.905-0.734-5.773-1.147-8.554c-2.703,11.656-4.337,24.399-4.534,36.71V134.276z
	 M43.368,132.808c0.413,1.757,0.858,3.515,1.307,5.304c0.253,0.863,0.45,1.721,0.698,2.584c0.326-3.552,0.573-7.37,0.739-11.399
	C45.162,130.353,44.262,131.537,43.368,132.808 M61.883,134.763c1.345,2.294,2.744,4.533,4.176,6.791
	c0.987,1.56,1.955,3.157,2.905,4.699c1.918-6.291,3.891-13.248,5.809-20.113c1.216-4.336,2.418-8.622,3.639-12.835
	c-3.194-1.344-6.456-2.868-9.77-4.409c-1.757,2.422-3.602,4.625-5.52,6.617v0.032C62.691,121.804,62.241,128.274,61.883,134.763
	 M122.74,127.664c0.61,1.436,1.216,2.813,1.881,4.249c1.597,3.602,3.263,7.314,4.534,11.275c0.197,0.61,0.413,1.22,0.61,1.881
	c0.574,1.721,1.147,3.478,1.684,5.236c0.932-3.355,1.684-7.604,2.207-12.638c0.482-4.859,0.771-10.467,0.822-16.116
	c-1.79-2.615-3.726-5.841-5.805-9.645c-0.289,0.936-0.537,1.918-0.826,2.905C126.663,119.363,124.745,123.561,122.74,127.664
	 M183.61,119.56c-3.442,2.781-6.163,5.433-7.241,8.787c-3.474,10.88-0.932,21.329,2.133,25.826c0.198-0.032,0.487-0.161,0.771-0.445
	C183.091,150.107,184.472,133.67,183.61,119.56 M125.731,158.565c0.537,0,1.308-0.124,2.208-0.983
	c0.445-0.449,0.894-1.023,1.344-1.72c-0.863-3.263-1.918-6.457-2.941-9.646c-0.198-0.61-0.413-1.271-0.611-1.881
	c-1.216-3.8-2.868-7.402-4.409-10.917c-0.198-0.482-0.445-0.987-0.643-1.468c-1.436,2.868-2.817,5.644-3.964,8.493
	C119.674,151.7,123.4,157.651,125.731,158.565 M85.258,142.417c-1.22,10.664-0.862,19.915,2.419,23.714
	c0.486,0.574,1.023,0.987,1.597,1.271c-0.863-8.296-2.295-15.9-3.263-20.846c-0.252-1.271-0.45-2.364-0.61-3.263
	C85.346,142.99,85.295,142.701,85.258,142.417 M19.616,140.604c0.574,11.169,2.492,20.489,5.484,26.909
	c0.936-4.052,2.244-8.554,3.964-13.537c3.066-8.907,6.507-16.185,10.343-21.958c-2.904-12.834-4.786-26.78-2.583-33.355
	c0.45-1.437,1.436-2.492,2.781-3.102c1.684-0.735,3.886-0.698,6.612-0.092c-0.124-4.245-0.284-8.586-0.537-13.083
	c-7.154,10.38-10.435,12.349-12.958,11.812c-1.886-0.413-2.979-2.24-3.263-5.397v-0.123c-0.092-4.823-0.037-9.233,0.087-13.372
	c-1.184,3.102-2.294,6.383-3.313,9.806c1.019,5.429,1.721,10.306,2.042,13.027c2.079,15.901,3.263,36.679-0.289,42.809
	c-1.432,2.492-3.602,2.616-5.144,1.882C21.731,142.325,20.639,141.591,19.616,140.604 M86.887,131.982
	c0.739,3.478,1.506,7.08,2.134,10.669c0.161,0.858,0.377,1.95,0.611,3.226c1.023,5.267,2.528,13.247,3.386,21.994
	c0.771-0.377,1.849-2.529,2.171-6.328c1.22-14.271,1.344-28.735,0.321-43.094c-1.593-0.123-3.263-0.445-5.034-0.858
	c-0.487,1.469-0.936,2.937-1.345,4.41C88.287,125.282,87.553,128.632,86.887,131.982 M61.507,141.269
	c-0.482,9.16-0.826,18.264-0.858,26.781c2.129-3.387,4.41-9.573,6.828-17.048c-1.436-2.492-2.978-4.983-4.57-7.475
	C62.457,142.774,62.007,142.04,61.507,141.269 M48.135,149.731c3.029,9.031,6.223,15.932,8.783,18.929
	c0.037-10.219,0.537-21.457,1.221-32.984c-2.295-3.997-4.286-8.049-5.521-12.261c-0.899,0.61-1.794,1.307-2.656,2.046
	c-0.248,6.989-0.606,13.372-1.216,19.089C48.548,146.34,48.351,148.061,48.135,149.731 M29.78,174.377
	c3.226,1.758,5.681,1.184,7.975-1.918c2.905-3.96,5.144-11.687,6.617-22.531c-1.633-4.951-2.78-9.159-3.225-10.916
	c-0.166-0.647-0.326-1.308-0.487-1.955c-2.941,4.983-5.594,10.985-8.099,18.158c-2.171,6.217-3.676,11.94-4.662,17.047
	C28.527,173.07,29.133,173.767,29.78,174.377 M115.677,185.455c1.184,2.418,3.153,5.107,5.934,4.533
	c4.249-0.931,9.122-9.159,9.283-19.41v-0.129c0.289-3.349,0-6.704-0.61-10.017c-1.506,1.345-3.263,1.95-5.108,1.79
	c-0.124,0-0.252-0.037-0.376-0.087c-4.57-1.4-8.104-9.357-10.219-15.777c-0.248,0.863-0.445,1.758-0.606,2.653
	C111.947,158.959,110.694,173.391,115.677,185.455 M60.699,173.354c0.092,6.796,0.413,13.032,1.06,18.516
	c3.387-2.974,6.507-6.507,9.036-10.343c5.194-9.031,3.349-17.493-0.9-25.991c-2.615,7.815-5.144,13.73-7.599,16.565
	C61.796,172.62,61.273,173.07,60.699,173.354 M27.183,176.956c-1.436,12.009,0.982,20.205,7.241,23.27
	c4.497,2.239,10.986,1.556,17.782-1.849c2.078-1.056,4.175-2.331,6.217-3.837c-0.931-6.13-1.344-13.371-1.468-21.259
	c-0.092-0.032-0.197-0.087-0.289-0.161c-3.511-1.95-6.952-8.783-9.678-15.932c-1.881,10.017-4.625,16.469-8.209,19.626
	c-2.171,1.918-5.842,3.547-10.954,0.647c-0.124-0.092-0.197-0.128-0.321-0.252C27.38,177.154,27.288,177.03,27.183,176.956
	 M62.37,196.174c1.216,7.117,3.189,12.349,6.217,14.803c1.795,1.474,3.961,1.795,6.613,1.024
	c9.288-2.653,14.234-12.261,14.753-28.575c0.128-3.96,0-8.044-0.321-12.008c-1.845-0.413-3.479-1.395-4.75-2.868
	c-5.97-6.902-3.997-24.449-1.757-36.421c-0.037-0.253-0.087-0.487-0.161-0.703c-0.863-3.96-1.721-8.011-2.455-12.132
	c-0.771,2.707-1.505,5.359-2.244,7.92c-2.363,8.498-4.657,16.51-6.828,23.43c5.718,10.307,9.233,21.044,2.455,32.782
	c0,0.037-0.032,0.092-0.032,0.092C70.666,188.359,66.743,192.659,62.37,196.174 M72.621,216.071c-2.331,0-4.465-0.734-6.328-2.244
	c-3.442-2.776-5.718-8.099-7.186-15.198c-1.721,1.147-3.478,2.203-5.272,3.102c-7.921,3.96-15.414,4.626-21.045,1.845
	c-5.268-2.616-12.224-9.93-8.783-30.456c-5.144-7.815-8.048-21.131-8.209-37.926c-1.757-3.515-3.028-8.104-3.836-13.606
	c-1.271-8.838-1.184-20.112,0.197-30.167V91.33c1.4-7.186,3.96-14.753,6.42-22.081c-2.528-7.439-4.323-8.104-4.41-8.104
	c-0.16-0.037-0.45,0.197-0.702,0.482C6.442,73.493,3.018,90.219,3.789,108.772c0.698,16.85,4.534,33.392,8.21,49.416v0.037
	c0.252,0.987-0.413,1.955-1.4,2.207c-0.982,0.248-1.95-0.413-2.203-1.399v-0.037c-3.675-16.166-7.548-32.893-8.282-50.064
	C-0.708,89.591,2.927,72.099,10.37,59.641c0.032-0.092,0.087-0.161,0.16-0.253c1.721-2.078,3.96-2.528,5.97-1.11
	c1.432,0.987,2.703,2.941,3.887,5.557c1.147-3.478,2.207-6.828,3.065-10.091c4.213-16.152,7.191-32.823,8.875-49.582
	c0-0.124,0.037-0.197,0.087-0.321c0.289-1.023,1.06-3.731,3.226-3.836c2.207-0.128,3.263,2.492,3.731,3.639
	c1.597,3.96,3.262,12.009,4.823,22.476c3.671-3.479,10.664-8.71,18.479-7.691c4.464,0.574,8.498,3.065,12.008,7.475
	c2.781-4.823,5.273-9.067,7.278-12.133c0.092-0.128,0.161-0.252,0.289-0.326c1.918-1.844,3.511-1.395,4.245-0.982
	c1.918,1.056,2.868,4.176,3.102,10.504c0.197,4.497,0,10.541-0.537,17.906c-0.376,5.107-0.863,10.379-1.432,15.202
	c1.79,5.842,3.442,11.812,4.855,17.869c2.239-4.052,4.571-6.828,7.026-8.012c3.391-1.634,6.901,0.61,10.595,5.236
	c3.676-16.96,7.475-19.668,10.756-19.503c2.708,0.124,5.107,2.653,7.402,7.76c1.271,2.776,2.528,6.415,3.675,10.664
	c4.337-6.667,10.178-14.34,15.488-16.795c3.226-1.468,5.52-0.647,6.828,0.29c3.639,2.523,5.717,8.993,6.167,19.121
	c0.376,8.498-0.537,18.965-2.455,28.698c-1.06,5.273-3.442,15.487-7.406,21.907c-0.413,7.76-0.032,14.266,2.941,15.166
	c0.413-0.165,1.56-1.024,3.515-4.915c1.721-3.386,3.511-7.975,5.392-12.835c5.112-13.119,9.967-25.504,16.85-25.219
	c0.092,0,0.197,0,0.289,0.036c2.239,0.487,3.923,2.868,5.231,7.53c0.739,2.524,1.313,5.773,1.758,9.357
	c2.652-2.134,5.396-4.41,7.764-7.191c-0.486-1.56-1.023-3.152-1.597-4.786c-2.239-6.704-2.973-15.29,1.629-19.176
	c1.886-1.597,4.286-1.882,6.328-0.826c3.102,1.629,4.625,5.933,3.997,11.398c0,0.037,0,0.129-0.032,0.166
	c-1.148,5.768-3.442,10.251-6.259,13.977c0.252,0.826,0.541,1.597,0.771,2.423c2.941,9.067,5.717,17.653,8.209,18.892
	c0.252,0.124,0.486,0.124,0.771,0.036c2.207-0.77,4.212-6.74,5.809-11.526c2.776-8.334,5.97-17.819,13.496-16.759
	c4.662,0.377,6.956,6.613,9.159,12.638c1.51,4.084,3.194,8.709,5.149,9.801c1.555,0.413,3.028-0.413,5.878-2.165
	c4.249-2.584,10.664-6.457,22.352-6.507l73.007,0.032c1.023,0,1.845,0.826,1.845,1.849c0,1.023-0.822,1.845-1.845,1.845
	l-73.007-0.037c-10.665,0.037-16.313,3.478-20.434,5.97c-3.102,1.881-5.81,3.515-9.035,2.455c-0.092-0.032-0.161-0.032-0.253-0.087
	c-3.313-1.634-5.144-6.617-7.112-11.904c-1.689-4.496-3.731-10.09-6.062-10.251H226.9c-4.497-0.647-7.154,7.278-9.517,14.267
	c-2.239,6.704-4.176,12.477-8.104,13.821c-1.216,0.445-2.491,0.376-3.639-0.197c-3.886-1.918-6.217-9.123-10.09-21.044
	c-0.037-0.092-0.037-0.161-0.088-0.253c-2.78,2.942-5.809,5.305-8.622,7.53c0.409,4.91,0.537,10.252,0.376,15.488
	c-0.252,7.186-1.312,19.915-5.648,24.072c-1.432,1.4-3.189,1.794-4.947,1.216c-0.321-0.124-0.647-0.321-0.858-0.605
	c-4.378-5.557-6.957-17.91-3.157-29.759c1.597-4.983,5.809-8.494,10.38-12.096c-0.413-4.212-1.06-8.016-1.882-10.99
	c-0.986-3.478-2.01-4.662-2.368-4.91c-4.212,0.248-9.517,13.817-13.032,22.852c-4.91,12.583-7.92,19.755-12.224,20.113h-0.45
	c-5.07-0.858-6.452-6.507-6.452-14.432c-0.826,0.578-1.684,1.024-2.579,1.184c-0.128,0.037-0.197,0.037-0.325,0.037
	c-1.882,0.037-3.8-0.987-5.805-3.029c-0.289,10.252-1.4,23.05-4.915,30.328c1.115,4.662,1.794,9.448,1.4,14.339
	c-0.198,11.367-5.557,21.421-12.133,22.894c-2.294,0.537-6.672,0.321-10.059-6.544c0-0.037-0.036-0.092-0.036-0.092
	c-5.392-12.922-4.048-28.124-1.95-38.628c0.573-2.813,1.395-5.52,2.418-8.099c-3.029-11.564-4.126-24.041-2.978-32.626
	c0.573-4.282,0.486-7.723,0.036-10.343c-0.413,3.441-0.771,7.117-1.184,10.953c-0.445,4.249-2.129,7.278-5.07,8.911
	c-1.271,0.735-2.744,1.148-4.373,1.308c1.023,14.427,0.895,29.02-0.376,43.415c-0.487,5.841-2.492,9.356-5.521,9.732
	c1.395,18.64-0.734,39.29-17.139,43.988C74.952,215.874,73.768,216.071,72.621,216.071"/>
</svg>
